<?xml version="1.0" encoding="utf-8"?>
<!-- Generator: Adobe Illustrator 27.8.1, SVG Export Plug-In . SVG Version: 6.00 Build 0)  -->
<svg version="1.1" id="Layer_1" xmlns="http://www.w3.org/2000/svg" xmlns:xlink="http://www.w3.org/1999/xlink" x="0px" y="0px"
	 viewBox="0 0 171.3 171.3" style="enable-background:new 0 0 171.3 171.3;" xml:space="preserve">
<style type="text/css">
	.st0{fill:#FFFFFF;}
	.st1{fill:#272726;}
	.st2{opacity:0.3;fill:url(#SVGID_1_);}
	.st3{opacity:0.85;fill:#231F20;}
</style>
<path class="st0" d="M68.4,103.9L73.2,93l7.7-17.3h-2c-3.3,0-5.3,1.3-6.5,3.3l-12.7,28.1l2.1,0C65.3,107.2,67.3,105.9,68.4,103.9z"
	/>
<path class="st1" d="M85.6,171.3L85.6,171.3C38.3,171.3,0,132.9,0,85.6v0C0,38.3,38.3,0,85.6,0h0c47.3,0,85.6,38.3,85.6,85.6v0
	C171.3,132.9,132.9,171.3,85.6,171.3z"/>
<radialGradient id="SVGID_1_" cx="85.6348" cy="85.6348" r="85.6348" gradientUnits="userSpaceOnUse">
	<stop  offset="0" style="stop-color:#231F20;stop-opacity:0"/>
	<stop  offset="0.3346" style="stop-color:#1F1B1C;stop-opacity:0.3346"/>
	<stop  offset="0.6806" style="stop-color:#121011;stop-opacity:0.6806"/>
	<stop  offset="1" style="stop-color:#000000"/>
</radialGradient>
<path class="st2" d="M85.6,171.3L85.6,171.3C38.3,171.3,0,132.9,0,85.6v0C0,38.3,38.3,0,85.6,0h0c47.3,0,85.6,38.3,85.6,85.6v0
	C171.3,132.9,132.9,171.3,85.6,171.3z"/>
<g>
	
		<image style="overflow:visible;opacity:0.4;" width="597" height="374" xlink:href="836B0B1243F1792B.png"  transform="matrix(0.24 0 0 0.24 13.9908 45.0708)">
	</image>
	<g>
		<path class="st0" d="M73.2,93l-4.9,10.9c-1.1,2-3.1,3.3-6.5,3.3l-2.1,0L72.4,79c1.1-2,3.1-3.3,6.5-3.3h2L73.2,93z M101.9,53.8
			L101.9,53.8l-1.5,0c-4.2,0-8,1.8-10.9,4.7c-1.7,1.7-2.7,3.9-3.8,6.5L85,66.6l-0.7,1.5h-1h-4.8c-4.2,0-8,1.8-10.9,4.7
			c-1.7,1.7-2.7,3.9-3.9,6.5L63.1,81l-11.7,26.2l-15.8,0c-5.5,0-10.3,3-12.9,7.6l25.3,0l-1.6,3.5l-3.5,7.9c5.9,0,10-3.7,12.3-9
			l1.1-2.3l5.7,0c4.2,0,8-1.8,10.9-4.7c1.7-1.7,2.7-3.9,3.8-6.5l4.6-10.2l7.8-17.5h30c5.5,0,10.3-3,12.9-7.6h-13.8H92.6l0.1-0.3
			c0,0,0.5-1.1,1.6-3.2c1.1-2,3.1-3.3,6.5-3.3h34.9c5.5,0,10.3-3,12.9-7.6H101.9z"/>
	</g>
</g>
<path class="st3" d="M85.6,171.3c47.3,0,85.6-38.3,85.6-85.6v0c0-3.3-0.2-6.5-0.6-9.7l-22.2-22.2c-2.6,4.6-7.4,7.6-12.9,7.6h-34.9
	c-3.3,0-5.3,1.3-6.5,3.3c-1.1,2.1-1.6,3.2-1.6,3.2l-0.1,0.3h25.6H132c-2.6,4.6-7.4,7.6-12.9,7.6h-30l-7.8,17.5l-4.6,10.2
	c-1.1,2.6-2.2,4.8-3.8,6.5c-2.9,3-6.7,4.7-10.9,4.7l-5.7,0l-1.1,2.3c-2.3,5.2-6.4,9-12.3,9l3.5-7.9l1.6-3.5l-25.3,0L78.9,171
	C81.2,171.2,83.4,171.3,85.6,171.3L85.6,171.3z"/>
<path class="st3" d="M72.4,79l-12.7,28.1l2.1,0c3.3,0,5.3-1.3,6.5-3.3L73.2,93l7.7-17.3h-2C75.5,75.7,73.5,77,72.4,79z"/>
</svg>
