<svg width="73" height="84" viewBox="0 0 73 84" fill="none" xmlns="http://www.w3.org/2000/svg">
<path d="M0.0150961 73.1377C0.0150961 73.1377 -0.0613279 72.7461 0.129732 72.7652C0.110626 72.6792 0.320792 73.0613 0.0150961 73.1377ZM3.13893 72.0296L3.56881 71.6761L3.17714 71.8959L3.13893 72.0296ZM4.51456 71.743L4.41903 71.6093L4.22797 72.0774C4.85847 71.9818 5.65136 71.6475 6.10991 71.8003C5.78511 71.2367 5.05908 71.9341 4.51456 71.743ZM7.46643 72.9849C7.46643 72.9849 7.5142 72.9849 7.76258 72.9849C7.64794 72.7652 8.08738 72.7843 7.39001 72.9276L7.46643 72.9753V72.9849ZM7.46643 72.9849C7.6766 73.1664 7.16074 73.0136 7.46643 72.9849ZM8.87073 72.8129L8.47905 73.0327C8.56503 73.1569 8.92804 73.176 8.80385 73.281C9.21463 73.1569 9.1191 73.0327 8.86117 72.8225L8.87073 72.8129ZM9.22419 72.3831L9.01402 72.4786C9.01402 72.4786 9.1191 72.555 9.22419 72.3831ZM8.82296 72.555C8.84207 72.3831 8.76564 72.5455 8.58414 72.6697L9.01402 72.4786C8.94715 72.3831 8.92804 72.2016 8.82296 72.555ZM8.18291 72.192C7.40912 72.3066 7.56197 72.6983 8.3262 72.5932C8.08738 72.4786 7.79124 72.4117 8.18291 72.192ZM5.64181 71.2558C5.75645 71.1603 6.2341 71.3991 6.20544 71.2176L5.88064 71.0647L5.64181 71.2654V71.2558ZM11.2112 72.555L10.9246 72.7079C11.0775 72.7843 11.3832 72.8512 11.4118 73.0327C11.4309 72.9085 11.2494 72.7079 11.2112 72.555L11.6506 72.3353C11.2494 72.3257 11.1826 72.4213 11.2112 72.555ZM8.54592 72.2207L9.39614 71.743H9.25285L8.54592 72.2207ZM12.883 73.281L13.3129 72.832L13.1314 72.9849L12.8925 73.281H12.883ZM14.2491 72.9085C14.0676 73.1473 14.5261 73.2906 14.335 73.4434C14.6407 73.3957 14.8891 73.176 15.1184 72.9945C14.87 73.1091 14.6025 73.09 14.2491 72.9085ZM15.5005 72.7174C15.3859 72.7747 15.2521 72.8894 15.1184 72.9945C15.2426 72.9371 15.3763 72.8512 15.5005 72.7174ZM12.4149 72.3735C12.4531 72.4404 12.5295 72.6314 12.7875 72.7079L12.5868 72.3735H12.4149ZM12.9785 72.3735C12.9785 72.3735 12.8161 72.3735 12.5868 72.3544C12.7683 72.364 12.969 72.3735 12.969 72.3735H12.9785ZM10.6858 71.3227C10.5043 71.5615 10.8291 71.7239 10.447 72.02C10.6953 71.8194 11.2303 71.5902 10.6858 71.3227ZM11.6315 72.2016L12.1283 71.9436L11.6506 71.8768C11.6602 71.9723 11.7557 72.0965 11.6315 72.2016ZM12.3098 71.9723L12.3576 71.829L12.1283 71.9436L12.3098 71.9627V71.9723ZM14.6789 72.4213C14.8796 72.2684 15.0993 72.2493 15.3477 72.2207C15.0706 72.1633 14.7936 72.1347 14.5261 72.1442C14.4879 72.2589 14.3828 72.4499 14.6789 72.4213ZM16.1979 72.5359L15.8349 72.364C15.9399 72.4595 16.1692 72.6314 16.1979 72.5359ZM13.7523 72.4499C13.8192 72.5168 13.781 72.4404 13.781 72.4404H13.7523V72.4499ZM14.0389 72.2207C14.2968 72.1824 14.4497 72.1538 14.5261 72.1442L14.4688 72.0774C14.2586 72.02 14.144 72.106 14.0293 72.2207L13.695 72.3449L13.7619 72.4404L14.0198 72.2207H14.0389ZM19.0256 70.0044L18.481 70.2241C18.4619 70.1381 18.6625 69.9853 18.5097 69.8993C18.481 70.2241 17.9556 70.5393 17.478 70.205C17.029 70.4629 17.3824 71.4946 17.8123 72.0678C17.8123 71.9341 17.8123 71.8003 18.2709 71.5902C18.0989 71.4278 17.2009 71.2176 17.5831 70.9215C18.204 70.7304 18.1085 71.017 18.4142 71.1698C18.1371 70.7877 19.1784 70.5584 19.016 69.9853L19.0256 70.0044ZM16.8475 72.1347L16.9143 72.0869L16.7233 72.1347C16.943 72.1825 17.115 72.3066 17.4111 72.5359C17.7264 72.3831 17.7837 72.2589 17.8028 72.1442H17.8505L17.8123 72.0869V72.1442H16.857L16.8475 72.1347ZM15.8158 72.2971L15.854 72.1633C15.9877 71.8099 16.4463 71.6475 16.1406 71.2845C15.5674 71.3227 15.7584 71.5806 15.4241 71.743C16.3316 71.6284 15.1662 71.9436 15.8444 72.1156C15.6725 72.1824 15.5005 72.2111 15.3477 72.2302C15.4718 72.2684 15.6438 72.3162 15.8349 72.3735L15.8062 72.3449V72.2971H15.8158ZM15.854 72.1633C16.1215 72.2302 15.8922 72.2493 15.8158 72.2971V72.3449L16.7233 72.1251C16.5227 72.0774 16.2839 72.106 15.854 72.1538V72.1633ZM11.1348 70.5775L11.173 70.6635C11.2303 70.6253 11.2494 70.5871 11.1348 70.5775ZM11.1443 71.0839L11.2112 71.0361C11.5933 71.1412 12.0901 71.5615 12.0328 71.6093C11.899 71.294 11.7939 71.0839 11.5265 70.7877C11.4596 70.8355 11.4118 70.9788 11.1921 70.9501C11.001 70.8546 11.1921 70.7877 11.1634 70.6731C11.0393 70.7686 10.7145 70.9406 11.1443 71.0934V71.0839ZM14.058 70.8928L14.0867 71.0839C13.6472 71.0265 13.7523 71.2367 13.7045 71.38L14.4592 71.1889L14.0485 70.8928H14.058ZM17.8601 72.6888L18.2804 72.1538L17.9461 72.3162L17.8601 72.6888ZM18.9109 72.5646L19.1593 72.364L18.93 72.2493L18.9109 72.5646ZM56.5115 53.3822C56.5402 53.4872 56.6071 53.6019 56.6071 53.6019L56.5115 53.3822ZM56.6835 55.2354L56.8459 55.2736C56.7504 55.1972 56.6835 55.2354 56.6835 55.2354ZM43.3284 71.5806C43.6532 71.8768 44.0162 72.3353 43.978 71.9818L43.8825 71.6284C43.6532 71.6952 43.4717 71.6475 43.3284 71.5806ZM59.024 68.4568L58.9189 68.4759L59.2723 68.944L59.024 68.4568ZM55.7377 44.7176L55.3652 44.4692C55.3938 44.88 55.5562 44.6889 55.7377 44.7176ZM29.0944 71.7717C29.381 71.9054 29.6007 71.9532 29.8013 71.9627C29.4574 71.7717 29.1708 71.4851 29.0944 71.7717ZM30.6133 71.9341C30.3363 72.1825 30.0497 72.0965 29.8013 71.9532C30.0497 71.9723 30.2599 71.915 30.4605 71.8481C29.3524 71.2367 28.3493 71.915 27.394 71.9054V71.8099L26.41 72.0678C26.6584 71.7812 26.2285 72.2684 25.9324 72.2016C25.6267 72.364 25.1204 72.2971 24.7574 72.1156H24.1364C24.8242 71.8863 24.0695 71.6666 24.0218 71.3131L23.6301 71.6188C23.4677 71.4469 23.8785 71.3227 23.5823 71.2558C23.3244 71.4564 22.5411 71.4755 22.3118 71.8576C22.35 71.9436 22.4551 72.0296 22.5697 72.0965H22.5793L22.6079 72.1156H22.5793L22.4742 72.2493C22.4742 72.2493 22.5793 72.2684 22.6557 72.278C22.4742 72.3449 22.4742 72.2493 22.4742 72.2493C21.9774 72.192 22.1589 72.3353 22.1876 72.4881C21.6049 71.9532 21.3087 72.3353 20.8502 71.6952C21.4616 72.4117 19.5701 71.743 19.9618 72.4404C19.5223 71.8863 19.6752 72.4308 19.3886 71.9436C19.9809 72.0869 20.5445 71.5424 21.0126 71.2749L20.5349 70.9501C20.812 70.3005 21.5953 71.1507 21.8628 70.9215C21.6813 71.0839 21.2514 70.9501 21.2323 70.7973L21.3756 71.2845C22.0443 71.4564 22.5602 71.0552 23.0187 70.7877C22.5697 70.6444 23.5537 70.482 23.2098 70.1381L22.8659 70.205C22.6939 70.0426 23.0378 69.8802 23.2289 69.7273C24.3561 70.0521 26.3909 69.67 26.7921 70.0426C26.5629 69.9184 26.1425 70.0426 25.9515 70.1954L26.4769 70.3865C26.047 70.4056 25.7031 69.9853 25.0822 70.1763C25.1968 70.482 24.7574 70.9215 25.2446 71.3418C26.4482 71.7908 26.1999 70.4916 27.6519 70.568C27.7761 70.4725 27.3653 71.0839 28.12 70.8928C29.0753 70.5489 29.7727 69.8038 29.7631 69.135C29.3619 69.3452 28.5499 69.7751 28.4162 69.2783C28.8174 69.0586 29.5243 68.9249 29.553 68.6001C29.9829 69.1541 28.7887 68.8007 29.3428 69.2497C29.6294 69.2306 29.7536 69.0395 29.8873 68.9344C29.6963 69.1733 30.1548 69.3261 30.2312 69.4598C31.1579 69.4312 31.6928 69.6605 32.6864 69.6796C32.6864 69.6796 32.6481 69.6127 32.7055 69.6796H32.6864C32.7437 69.7655 32.8488 69.947 32.8296 70.0808C33.3073 69.9088 33.9951 69.0395 33.8136 68.6861C34.3868 68.6478 34.4154 68.9153 34.9026 68.7338C34.1289 68.2466 35.0555 68.8198 35.1415 68.2657C35.6382 68.1797 35.3134 68.5237 35.5427 68.6478C35.6191 68.581 35.8293 68.3899 35.8388 68.2466C36.1445 68.6478 35.2466 69.3548 35.6096 69.8229C35.8579 70.119 36.9183 70.6349 36.9948 70.6922C37.224 70.2241 37.1667 68.3135 36.8037 67.7021C36.8419 67.3773 37.2718 68.0364 37.4915 68.0747C38.122 68.5905 38.4564 67.6734 38.9818 67.8645L38.5805 68.1511C38.6665 68.2848 39.4403 68.1129 39.5645 67.9314C39.5836 68.1129 39.1633 68.858 39.4021 69.0777C40.3383 69.1637 41.2363 68.1606 41.179 67.6257L39.7365 68.1893C39.6887 67.7403 40.7682 67.7308 40.7109 67.1862L42.0387 67.3486C41.8668 67.3582 41.3509 67.4919 41.5515 67.7403C42.1247 67.7116 41.8477 67.8167 42.2298 68.0173C41.5706 68.5905 40.367 70.0712 39.9371 70.7686L40.6249 70.4725L40.7968 70.7399C41.6853 70.3769 42.5068 68.6096 42.7457 68.1415C43.2615 68.2562 43.0705 69.221 42.9463 69.4025C43.9589 69.4503 43.9589 68.0364 44.9715 68.1702L44.5894 67.96C44.8282 67.8645 45.6975 68.0556 45.6116 67.8836C45.8122 68.132 45.9937 68.7338 45.7644 68.9058L46.6719 67.9887C46.5382 68.0842 46.6242 68.858 46.5573 68.9917C46.9203 69.0204 47.1878 68.0938 46.9585 67.9791C47.6559 68.5332 47.4935 68.2275 48.0476 68.8771C48.2577 68.8293 48.0476 68.0556 47.8852 67.9791C48.3628 67.769 48.6399 67.8645 48.8596 67.9505C48.0762 68.2848 48.6208 69.6796 48.4583 70.2718L50.1683 67.96C50.111 68.0938 49.9677 68.8293 49.9773 68.9153C50.1301 68.2275 52.0598 68.1415 52.996 68.2275H52.8527C52.6617 68.4759 53.4641 68.6574 53.7985 68.4186C53.7412 68.5619 53.6647 68.5141 53.5214 68.5237C54.1424 69.0395 54.3621 67.4824 54.9926 68.0842C54.4194 68.0173 54.2952 68.3039 54.3143 68.5714C54.792 68.323 55.8906 68.5905 55.6804 67.7785C56.053 67.9409 56.0721 67.8454 56.1103 68.2466L56.5497 67.7594C56.5593 67.8454 56.6071 68.0842 56.8268 68.1415C56.5115 68.0364 56.2058 68.7816 55.9383 68.2562C55.9097 68.7529 56.1294 69.0204 55.8237 69.4407C57.1325 69.1924 57.2567 68.3421 57.0943 67.769C57.1898 67.9027 57.8394 67.9791 57.7057 67.8167L57.4668 67.6161L58.0496 67.9505C57.9158 67.7594 57.8489 67.6543 57.8489 67.6543C57.8489 67.6543 57.9827 67.7403 58.0687 67.8358L57.9158 67.5684C58.2215 67.7116 58.5845 68.046 58.9093 68.4759L58.5941 68.5141C58.8998 68.9153 59.215 69.3834 59.3965 69.2115L59.2628 68.944C59.4825 69.2592 59.6736 69.5267 59.7595 69.4598L59.4347 68.2848C59.3583 68.3517 59.1959 68.4186 59.0144 68.4568C58.6132 67.6543 58.1355 67.1098 57.7534 67.2435L58.0782 66.9379C57.4859 66.25 57.6101 66.6417 57.1516 65.6578C57.3522 65.61 57.5337 65.8488 57.6674 65.6864C56.9987 65.0273 58.3553 64.0337 57.7821 63.9C57.6197 63.3555 57.2758 63.6803 57.1038 63.3364C57.1038 63.3364 57.2949 63.3841 57.2949 63.2791L56.8745 62.8778C57.0178 62.7059 57.1802 63.2504 57.3331 62.7823C56.9987 61.999 56.7695 61.5404 56.9414 60.8813C56.8077 59.9546 56.139 61.3111 56.1867 60.5182C56.5211 60.394 56.9128 60.2699 56.951 59.7731C56.7026 59.5247 56.4447 59.5725 56.2823 59.1331H56.7981C56.7599 58.7318 56.6548 58.407 57.0369 58.3879C56.8077 58.0631 56.8363 57.8243 56.9128 57.6428C56.6166 57.0314 55.881 58.1491 55.69 58.3019C56.053 57.6714 55.8142 57.2607 56.4255 56.8785L56.588 57.4135C57.1802 56.2289 55.8142 56.3531 56.8841 55.7608C56.865 56.1621 57.1516 56.6206 57.4286 56.3722L57.142 55.8086C57.2758 55.7322 57.2471 56.1334 57.4 55.8564C57.2853 55.7035 57.0083 55.3787 56.8268 55.245H56.865L56.7217 54.2133C56.7217 54.4139 56.9032 54.4521 56.9128 54.2515L56.5975 53.5828C56.7408 53.7834 56.8841 53.5541 56.951 53.2484C57.056 52.36 55.7568 52.6084 56.2345 51.8919C56.2345 51.9874 56.2918 52.0065 56.2918 52.1116L56.502 51.7486C55.4034 51.739 56.2727 49.6851 55.1741 49.666C55.5849 49.1406 55.432 49.6183 55.9861 50.2297L56.2727 49.6851C56.3205 49.8953 56.2536 50.0864 56.3778 50.3061C56.7981 49.5896 56.1772 48.9591 55.8715 48.5961C56.0148 48.3191 56.7026 48.7585 56.4829 48.0134C56.2154 46.9434 55.6995 48.2617 55.5371 47.6217L56.0721 47.1249C55.5944 46.3225 55.9479 45.6824 55.9766 44.9851C55.9288 44.8322 55.8619 44.7558 55.8046 44.7176V44.7462L55.7282 44.6985L55.8046 44.7176C56.0052 43.9629 55.1646 43.1987 55.3174 42.6255C55.4416 42.7497 55.6518 42.2911 55.7855 42.2147L55.3747 41.2307C55.5467 41.6702 55.8715 41.632 56.1963 41.6893C56.139 41.374 55.9575 41.2403 55.9001 41.0301C56.0243 41.1448 56.1485 41.2785 56.2823 41.097L55.6804 40.0748C55.6231 40.1417 55.6135 40.2659 55.604 40.371C55.5849 40.1035 55.3461 39.5494 55.5944 39.1482L55.9766 39.3201C55.6326 39.6545 55.9479 39.8264 56.2058 39.9697C56.1103 39.2342 56.2823 39.7787 56.4924 39.4157C56.4447 38.9094 56.0052 38.7183 55.7377 38.8616C55.8333 38.2693 55.9001 38.0878 55.5371 37.5146L55.9861 37.6006L55.8142 37.0561L56.3778 37.4669C56.6166 36.4065 55.604 37.314 55.7855 36.1485L56.1772 36.1199C56.0052 35.6804 55.3365 35.5658 55.7855 35.1932C55.5276 34.7825 55.2792 35.967 55.1454 34.9544C55.3365 34.7634 55.4607 34.3621 55.5276 34.066C55.3652 33.8081 55.1646 34.1806 55.1359 34.429C54.983 33.0629 56.3969 33.4737 55.8237 32.1745C55.5658 32.6617 55.0499 31.821 55.1263 32.9387C54.8684 32.4229 55.6326 31.8592 55.1741 31.3243L55.69 31.6586C55.69 31.458 55.4894 31.2479 55.4225 31.1428L55.8142 31.1619C55.1072 30.5218 56.0625 29.8722 55.155 29.5092C55.8619 29.748 55.0881 29.0029 55.3365 28.7163C55.8524 29.2513 55.4129 30.3308 56.0625 30.369C56.244 30.0919 55.9097 29.8818 56.0912 29.6143C56.1963 29.7862 56.3778 30.0346 56.5115 30.0919C56.8268 29.2035 56.0434 28.7545 55.8524 28.2291L56.053 29.1557C55.4129 29.1175 55.9192 28.745 55.4034 28.5157C55.7186 28.0285 55.2028 27.6941 55.4034 27.3025C55.4034 27.398 55.4607 27.4076 55.4703 27.5031C55.3938 26.4905 56.416 26.1466 56.416 25.7453C56.4733 25.3441 56.0816 24.6181 55.8333 24.9047C55.6422 24.599 56.1008 26.2421 55.241 25.7071C56.1676 25.0766 54.8206 24.5417 55.4034 23.2424C55.7759 23.7774 55.9192 22.889 56.2058 23.3666C56.1007 22.7743 55.9575 22.7552 55.6709 22.5069L55.9575 22.3062C55.241 21.5611 55.3556 22.163 54.9257 20.9879C55.1837 21.3701 55.3365 20.4912 55.5562 20.7778C55.5562 20.453 55.4511 20.1377 55.2601 19.9084L55.2983 19.9467C55.0786 18.7525 55.6231 18.9436 55.2219 17.8641L55.0499 17.9883C54.4863 16.584 54.6965 14.7594 54.3812 13.2787L54.2666 13.8136C54.343 13.6512 53.9227 12.8297 54.171 12.352C54.1997 12.4476 54.2857 12.6004 54.2666 12.6864C54.4672 12.6577 54.7538 12.4571 54.7824 12.1036L54.4672 11.9795L54.6965 11.8171C54.6678 11.2821 54.2666 12.0081 54.2379 11.4636C55.0977 11.091 54.2188 9.11356 54.9735 8.60725C54.3143 8.2729 54.9353 9.63897 54.343 9.26641C54.429 9.09445 54.5436 9.00848 54.5723 8.65502L54.1997 8.79831C54.3239 7.14564 54.6105 6.49604 54.4481 5.03443L54.5341 5.08219C54.6487 4.55678 54.5627 4.27974 54.2188 4.06002C54.3908 3.93583 54.5054 4.3084 54.6487 4.09824C53.617 3.23847 55.2601 2.22585 54.5436 1.70999C55.3174 1.73865 55.9861 0.496756 56.6166 0.964853L56.5115 0.592286C57.0178 0.687816 56.588 1.77686 57.1325 1.95836L56.6644 3.18115C56.8554 3.12383 57.1516 3.30534 57.2089 3.11428C57.2376 3.41042 57.2758 3.6588 57.5337 3.25757C56.3969 6.17124 57.8203 9.01803 57.2853 11.8457C57.3426 12.0368 57.5146 11.9126 57.6292 11.8457C57.1611 12.3807 57.9158 12.3234 58.0018 12.5909L57.3331 13.3837C57.5624 13.6799 57.763 13.4315 57.9063 13.4411C58.126 14.8645 57.5241 16.2879 58.0018 17.4151C57.763 17.7972 57.4286 17.3578 57.3713 17.8546C58.0591 17.1572 57.7916 19.2493 58.2788 18.8003C57.5337 19.3162 58.212 20.5581 57.1229 20.4052C57.0943 20.9879 57.6101 20.8637 57.6961 20.6918C57.6961 21.3605 57.7248 21.9146 58.0878 22.44C57.8585 22.8221 58.5272 25.497 57.7534 26.1466C58.2597 25.6976 58.0305 26.1561 58.2788 26.5478L58.7278 26.1657V27.0541C58.7851 27.2356 58.7278 27.2834 58.7278 27.2834C58.7087 27.4362 58.4603 27.2547 58.3648 27.6559C58.3648 28.2578 58.6227 28.2673 58.8902 28.5826L58.9571 28.487L59.024 28.8978C59.024 29.2035 58.4986 27.8565 58.317 28.8501C58.4508 28.8596 59.0908 29.4041 58.7756 29.6812C58.7756 29.1749 58.4508 29.2608 58.3266 29.4519V30.1588L58.9093 29.8913C58.9953 31.9166 58.6992 34.0373 58.852 36.1963C58.3362 36.1963 58.9093 37.7152 58.1451 37.5719L58.212 37.486C58.1069 36.9605 57.6197 37.677 57.7343 38.0974C57.9445 37.6388 58.5368 38.8616 58.5941 37.763L59.0049 38.5846C60.476 38.9667 59.0049 40.8486 59.5494 42.1001C59.4921 42.0141 59.3679 41.9854 59.3679 41.9854C59.9028 43.1031 59.1195 44.5647 59.3679 44.8131L58.9762 44.9373C59.6449 45.883 59.7022 45.9881 59.5207 47.1631C59.5207 47.1631 59.3297 47.0294 59.2628 47.2109C59.578 47.4784 59.8837 47.7363 59.8455 48.5292L59.7213 48.5101L59.8551 49.752C58.6227 49.8093 60.7244 51.8441 59.4156 52.2931C59.7882 52.5128 59.9506 53.4108 60.1512 53.8025C60.2276 53.8025 60.2945 53.8502 60.3709 53.984C60.285 54.0222 60.2181 53.9458 60.1512 53.8025C60.1512 53.8025 60.0366 53.8407 59.9888 53.9076C60.6862 54.347 59.8646 55.3023 59.9506 55.8373C60.1226 56.1716 60.3232 56.0092 60.5333 55.8468C60.0366 56.5633 61.1829 57.7192 60.9728 57.9771C60.9346 58.4834 60.5047 58.1873 60.2372 58.3402C60.3805 59.0853 61.3453 58.1682 60.8964 59.1904C60.839 59.0757 60.7817 58.8656 60.7148 58.9515C60.6193 59.3337 59.2341 60.0788 59.5303 60.4514L59.75 60.1839C60.0939 60.8717 58.8042 61.8652 59.6354 61.9512L60.0175 61.8748C59.5494 63.088 60.1894 62.3811 59.7882 63.6134H59.7213C59.8169 64.1293 59.3392 64.4254 59.9793 64.6738L60.0557 64.4923C60.1321 65.1514 60.0843 65.2088 60.0843 65.887C60.1417 65.9634 60.2467 66.2691 60.1226 66.4315C60.6384 66.4793 60.4378 68.6478 60.4283 69.0109C60.3232 68.218 60.113 68.4854 59.9028 68.5428C60.3423 69.1733 60.4092 69.584 60.113 69.8897C60.562 70.3101 62.1573 71.8959 60.4569 71.7335C60.6098 71.6379 60.9059 71.5806 60.6384 71.4469C60.3709 71.3131 60.1799 71.4564 60.1035 71.5137C59.8646 71.38 60.2181 71.2749 59.8742 71.0552C59.4252 71.6761 58.3648 71.103 57.1229 71.3322C57.505 71.1412 57.0943 71.017 56.9128 70.7973C56.8268 71.5328 55.3174 70.1763 55.7664 71.1125C54.1424 70.5584 51.6204 71.0934 50.9994 70.482C50.8275 70.2145 50.3689 70.654 50.0824 70.6635L50.1301 70.3483C49.3277 70.931 49.5092 70.568 48.5634 71.1507C48.9551 70.7686 48.8023 70.5871 48.4106 70.291L47.761 70.9597L47.6463 70.4725C47.3789 70.6635 47.0827 70.5871 46.7866 70.5107C46.9299 70.5107 46.8534 70.4629 46.8439 70.3674C46.691 71.0552 45.5447 70.9788 45.3632 71.3131C45.0861 70.6444 44.5894 71.4851 44.3888 70.8546L44.0353 71.0839C44.1691 71.38 44.2168 71.7048 43.9589 71.5615H43.9016L43.7869 71.1889C43.529 71.2749 43.252 71.3227 43.0705 71.3322C43.1564 71.3704 43.2424 71.4373 43.3379 71.5233L43.0227 71.3322H42.9272L42.9845 71.3036C42.8221 71.208 42.6597 71.1698 42.4209 71.3036C41.5038 70.7113 40.367 72.1251 39.3448 71.3036C39.4976 71.3895 39.7174 71.4278 39.7747 71.2845C38.9245 71.3322 38.0742 70.7782 37.5297 71.0743L37.5679 71.4373C36.9374 71.6093 36.4598 71.7239 35.963 71.7239L35.9344 72.1251C35.2083 72.0009 33.6512 72.7174 33.1927 71.8863C33.0112 72.2207 32.18 71.829 31.7693 71.9532L31.6642 71.6475C31.1197 71.5615 30.7853 71.6857 30.4701 71.7908C30.4701 71.7908 30.556 71.8385 30.6229 71.8768L30.6133 71.9341ZM58.4794 27.3789L58.5654 27.2356C58.4508 27.1592 58.3457 27.0732 58.4794 27.3789ZM56.8077 57.0792C56.5784 57.2033 56.8459 57.4899 56.9319 57.6428C57.0465 57.3753 57.2567 57.232 56.8077 57.0792ZM58.1451 68.6765C58.4412 68.8389 58.3744 68.6478 58.3457 68.5237C58.2215 68.5619 58.1451 68.5905 58.1451 68.6765ZM25.2255 71.8481L25.2064 71.8672C25.4452 71.9341 25.5694 71.9818 25.2255 71.8481ZM57.1611 2.73216C57.1993 2.97098 57.1993 3.00919 57.2185 3.11428C57.2376 3.04741 57.228 2.92322 57.1611 2.73216ZM21.9392 70.7113C21.9297 70.7973 21.8628 70.8832 21.8628 70.8832C21.8628 70.8832 21.9392 70.7877 21.9392 70.7113ZM22.9327 72.2398C23.0092 72.2302 23.1047 72.2207 23.2289 72.2111L22.885 72.1824L22.9327 72.2398ZM56.1294 29.557C55.9766 29.3564 56.0052 29.4423 56.1007 29.6047L56.1294 29.557ZM48.8882 67.8932L48.8596 67.9123H48.8882V67.8932ZM49.1366 68.9249L49.662 67.6257C49.3277 68.0556 49.1462 68.0078 48.8978 67.9218L49.1366 68.9249ZM55.155 34.5341C55.155 34.5341 55.155 34.4577 55.155 34.4099C55.155 34.4577 55.155 34.4959 55.155 34.5341ZM57.7152 67.4346L57.9254 67.5206C57.8489 67.4346 57.7725 67.4059 57.7152 67.4346ZM35.5427 68.0078C35.686 68.0651 35.772 68.1224 35.8293 68.1988C35.8293 68.1033 35.772 68.0269 35.5427 68.0078ZM20.7547 72.469L21.2036 72.3544C20.9839 72.3831 20.8979 72.3066 20.7929 72.2398C20.7929 72.3353 20.8979 72.4595 20.7547 72.469ZM16.6755 70.205C16.6087 70.2527 16.5322 70.2145 16.4654 70.2718L16.494 70.4438C16.7806 70.4247 16.9717 70.2718 16.6755 70.205ZM20.277 71.1985C20.2292 70.8737 19.9426 70.9979 19.6274 71.0647H19.6752C19.6083 71.5233 19.9426 71.3609 20.2675 71.1985H20.277ZM19.2548 71.103C19.2262 71.2845 19.379 71.1316 19.551 71.0743L19.2548 71.103ZM23.611 71.9341C23.4582 71.8576 23.525 72.364 23.439 72.2302C23.2862 72.6505 24.4326 71.6952 23.611 71.9341ZM20.277 70.205L19.9713 70.1381L20.105 70.5393L20.277 70.205ZM22.5315 70.3483L22.0156 70.2527C22.0156 70.2527 21.9583 70.3674 21.8819 70.396C22.1972 70.396 22.5506 70.4725 22.5315 70.3483ZM21.4711 70.4725C21.5667 70.4725 21.7577 70.4438 21.8819 70.3865C21.7195 70.3865 21.5667 70.4056 21.4711 70.4725ZM21.2036 70.0903L20.6878 69.9948L20.8406 70.0712L21.2036 70.0903ZM28.0531 70.2336L28.6072 70.0999C28.6645 69.9661 28.5117 69.8802 28.3015 69.9375C28.1678 70.033 27.9576 70.0999 28.0531 70.2336ZM26.582 69.4885V68.9822L26.3241 69.1828C26.4769 69.2688 26.496 69.3548 26.582 69.479V69.4885ZM27.9576 69.0204C28.0054 68.8771 28.7696 68.5905 28.0531 68.6478C27.9958 68.7911 27.4418 68.9249 27.9576 69.0204ZM36.4216 69.3643H36.2878L36.3069 70.1954L36.4216 69.3643ZM43.4526 67.9982C43.8538 67.7976 44.064 67.9027 43.8825 67.3677C43.2233 67.1767 43.7201 67.874 43.1182 67.6257C42.9654 67.8167 43.6054 67.8263 43.4526 67.9982ZM43.4526 67.9982C43.4526 67.9982 43.3379 68.0651 43.2424 68.1224C43.357 68.0747 43.4526 67.9982 43.4526 67.9982ZM57.6579 0.697369L57.4 0.993512L57.5146 1.13681L57.6579 0.697369ZM57.3713 0.219719L56.8841 0C56.9128 0.09553 56.9701 0.277037 56.8554 0.353461L57.3713 0.219719ZM56.2154 58.4835L55.9383 58.8178L56.0625 58.8465C56.1963 58.7796 56.2058 58.6745 56.2154 58.4739V58.4835ZM56.0625 53.1624L56.5306 52.9523L56.0721 53.0669V53.1624H56.0625ZM55.1932 48.2426C55.2219 48.4146 55.2696 48.6821 55.2887 48.8636C55.1837 48.4337 55.7759 48.1567 55.1932 48.2426ZM68.7776 33.0916C68.8062 32.9674 68.405 32.9961 68.405 32.9961C68.4719 33.2158 68.854 33.0916 68.7776 33.0916ZM69.5227 35.2219L69.3794 35.1837L69.7138 35.4989L69.5132 35.2219H69.5227ZM69.5036 37.2089C70.0768 37.0274 69.4176 36.4925 69.6182 36.139L69.752 36.0817L69.2934 35.9193C69.3603 36.3492 69.666 36.9128 69.5036 37.2089ZM68.319 38.0114L68.2617 38.0496C68.2617 38.0496 68.2617 38.0591 68.2522 38.2502C68.4719 38.1833 68.4432 38.4795 68.319 38.0018V38.0114ZM68.2617 38.0496C68.2522 37.849 68.0802 38.1929 68.2617 38.0496ZM68.3859 39.024L68.1853 38.747C68.0515 38.8043 68.0229 39.0527 67.9274 38.9571C68.0324 39.2342 68.1662 39.1864 68.3859 39.024ZM68.8062 39.2915L68.7203 39.1482C68.7203 39.1482 68.6438 39.2151 68.8062 39.2915ZM68.5388 38.8425L68.7203 39.1482C68.8158 39.11 69.0069 39.11 68.6534 39.0049C68.8253 39.0335 68.6534 38.9667 68.5388 38.8425ZM68.6343 38.6705C68.7585 38.5177 68.8444 38.3171 69.0355 38.5941C68.9591 38.0687 68.5579 38.1356 68.6343 38.6705ZM70.0959 37.314L70.2678 37.1038L70.0768 36.9319C70.1723 37.0179 69.9144 37.3331 70.0959 37.314ZM68.0707 40.7435C68.1948 40.7626 68.405 40.648 68.5579 40.6289L68.4146 40.4187C68.3381 40.5238 68.2522 40.7244 68.0707 40.734V40.7435ZM68.768 40.9346C68.7967 40.6671 68.7011 40.6193 68.5579 40.6289L68.768 40.9346ZM69.4463 39.3488L69.0068 38.8425L69.4463 39.4348V39.3392V39.3488ZM68.0515 41.909L67.7745 41.737L68.1948 42.0523L68.0515 41.909ZM67.9751 43.2751C68.0324 43.3706 68.1089 43.4566 68.2426 43.5521C68.1853 43.4661 68.0898 43.3802 67.9751 43.2751C67.8796 43.1031 67.9083 42.9216 68.0993 42.6923C67.87 42.5586 67.6981 42.8643 67.5548 42.721C67.6026 42.9312 67.7936 43.1127 67.9751 43.2751ZM68.7012 41.5842C68.7012 41.6988 68.682 41.8421 68.682 41.8421C68.682 41.8421 68.6916 41.737 68.7107 41.5746H68.7012V41.46C68.6247 41.4791 68.4337 41.5269 68.3477 41.6893L68.6916 41.5746L68.7012 41.5842ZM69.131 40.1512C69.3221 40.3328 69.5323 40.7053 69.8284 40.3519C69.5896 40.2181 69.4176 40.4283 69.131 40.1512ZM69.1501 41.2881L69.1215 41.4122L69.2648 41.4505L69.1597 41.2881L69.2361 40.9633C69.1501 40.9633 69.0164 41.0301 68.9209 40.9346L69.1597 41.2785L69.1501 41.2881ZM68.8636 42.9025C68.7585 42.8739 68.5674 42.7879 68.577 42.9885C68.7203 43.1318 68.7298 43.2846 68.7585 43.4566C68.8253 43.2655 68.8636 43.084 68.8636 42.9025ZM68.7394 45.1284V45.1666L68.8062 45.1379H68.7394V45.1284ZM68.8062 42.5682L68.8636 42.9025L68.9304 42.8739C68.9973 42.7306 68.9113 42.6541 68.8158 42.5682H68.8062ZM68.5865 43.7814C68.4814 43.8483 68.3095 44.0011 68.3955 44.0202L68.5865 43.7814ZM68.5865 42.3866L68.5674 42.3675C68.491 42.4058 68.5865 42.3866 68.5865 42.3866ZM68.682 42.3484L68.5865 42.3866L68.7967 42.5777L68.682 42.3484ZM70.9366 45.7015C70.6213 45.6729 70.3252 45.3003 70.6691 44.9946C70.4302 44.6794 69.3794 44.8704 68.7967 45.1379C68.94 45.1475 69.0642 45.1475 69.2552 45.4723C69.4272 45.3576 69.666 44.7653 69.9526 45.0424C70.115 45.4723 69.8284 45.3863 69.666 45.5965C70.0672 45.4245 70.2392 46.141 70.8219 46.055L70.6213 45.6824C70.7168 45.6824 70.8601 45.8066 70.9366 45.7111V45.7015ZM68.7871 44.4883L68.8349 44.5361L68.7967 44.4023C68.7394 44.5456 68.6056 44.6603 68.3572 44.8609C68.5196 45.0806 68.6343 45.1284 68.7394 45.1379L68.7871 44.4883ZM69.2361 43.533C69.3125 44.154 69.0355 43.3515 68.8444 43.8005C68.7871 43.6763 68.768 43.5712 68.7585 43.4661L68.5961 43.7909H68.6152L68.8062 44.4023C68.854 44.2781 68.8444 44.1062 68.8062 43.81C68.7394 43.9916 68.7203 43.8292 68.6725 43.7814H68.6247L68.6725 43.7718L68.8062 43.81C69.1501 43.9151 69.303 44.2304 69.6756 44.0393C69.6565 43.6476 69.389 43.7623 69.2457 43.533H69.2361ZM70.3538 40.9441C70.3538 40.9441 70.1628 40.8582 70.201 40.7149C70.3061 40.5907 70.3634 40.7149 70.478 40.7149C70.478 40.7149 70.5449 40.7722 70.564 40.6958L70.478 40.7149C70.3825 40.6289 70.2296 40.3996 70.0577 40.6767L70.1054 40.7244C69.9813 40.9728 69.5036 41.2498 69.5036 41.2498C69.8189 41.183 70.0386 41.1161 70.3443 40.9537L70.3538 40.9441ZM69.666 42.3962L69.838 42.9216L70.1437 42.6541H69.9621C70.0386 42.3771 69.8093 42.4344 69.6756 42.3962H69.666ZM68.5674 45.2334L68.1948 45.157L68.7107 45.4627L68.5579 45.2334H68.5674ZM68.6056 45.9022L68.2808 45.8735L68.4719 46.055L68.5961 45.9022H68.6056ZM66.4275 82.5283L66.2747 82.6143C66.3511 82.5857 66.4275 82.5283 66.4275 82.5283ZM67.7554 82.5857L67.7841 82.4233C67.7076 82.5092 67.679 82.5761 67.7554 82.5857ZM68.1089 62.9638L68.4623 62.8969C68.405 62.7441 68.4432 62.6199 68.5196 62.5148C68.2235 62.7345 67.7554 62.9829 68.1089 62.9638ZM70.5162 73.9115L70.6213 73.8447L70.287 73.6918L70.5162 73.9115ZM71.7294 74.3701C71.8059 74.3032 71.8823 74.2077 71.9587 74.0739L71.7294 74.3701ZM60.1608 83.1206C60.4378 83.1206 60.3232 82.9487 60.3518 82.7672L60.1608 83.1206ZM68.6916 52.8376C68.5483 53.0287 68.491 53.1815 68.4719 53.3153C68.6725 53.086 68.9782 52.9045 68.6916 52.8376ZM66.9625 78.8313C66.867 78.8982 66.8288 78.9651 66.8288 79.0415C66.9243 78.9842 66.9816 78.9173 66.9625 78.8313ZM68.4719 53.8694L68.5579 53.7738C68.5005 53.6305 68.4528 53.4872 68.4719 53.3153C68.3286 53.4872 68.2235 53.6783 68.4719 53.8694ZM32.2756 78.3537C32.4571 78.3441 32.5335 78.3346 32.5335 78.3346C32.5335 78.3346 32.4093 78.3059 32.2756 78.3537ZM69.8284 47.9369C69.8284 47.9369 69.9144 47.9847 69.9908 47.9943C69.9048 47.9847 69.8284 47.9369 69.8284 47.9369ZM70.6309 55.3023V55.3214C70.6977 55.2736 70.6309 55.3023 70.6309 55.3023ZM68.4528 48.8254L68.491 48.5961L68.4337 48.6343C68.4337 48.6343 68.4337 48.6248 68.4337 48.6057C68.4337 48.6057 68.4337 48.6152 68.4337 48.6343C68.4337 48.6343 68.4432 48.7585 68.4528 48.8349V48.8254ZM50.2065 81.3247L50.1779 81.2865C50.025 81.4297 50.0824 81.4011 50.2065 81.3247ZM72.1211 66.2691L72.102 66.25V66.2691L71.0799 66.422L72.3695 66.7755C71.9301 66.5462 71.9874 66.422 72.0829 66.2596H72.1116L72.1211 66.2691ZM72.7421 80.7706C72.3886 80.7133 72.0352 80.5891 71.7963 80.9903C71.8536 81.3533 72.102 81.4966 71.9014 81.9743L71.5479 81.5922C71.4715 81.6877 71.2805 81.8883 71.2805 81.8883C71.1085 82.0316 70.9652 82.0698 70.8028 81.8692C70.6595 82.2035 70.4207 82.2513 70.2201 82.2322C69.7711 82.6621 71.2327 83.0347 71.5193 83.0251C70.6977 83.0633 70.3538 83.369 69.6851 82.834L70.1723 82.5857C68.7967 82.2035 69.2266 83.4645 68.3477 82.3946C68.7967 82.4424 69.1692 82.1462 68.8349 81.8692L68.3572 82.1367C68.2617 81.9934 68.6534 82.0507 68.3572 81.8883C68.2426 82.0029 67.9656 82.2609 67.7936 82.4233V82.4042L66.867 82.471C67.0007 82.4901 67.0389 82.2991 66.9052 82.28L66.4275 82.5475C66.5804 82.4137 66.4275 82.2513 66.2269 82.1749C65.6346 82.0029 65.7111 83.3212 65.2621 82.7863C65.2621 82.7863 65.3481 82.7385 65.4149 82.7481L65.1761 82.5188C65.0901 83.6078 63.7623 82.6048 63.6858 83.6843C63.3515 83.2353 63.6667 83.4168 64.1253 82.92L63.7718 82.5952C63.9247 82.557 64.0488 82.643 64.2017 82.5379C63.7431 82.0698 63.275 82.6334 63.0076 82.92C62.8261 82.7576 63.1795 82.0985 62.6446 82.2704C61.909 82.471 62.7592 83.0729 62.3102 83.1875L62.0045 82.6239C61.4313 83.0442 61.0205 82.6525 60.5524 82.5666C60.4474 82.6048 60.3614 82.7194 60.3614 82.7194C59.8646 82.471 59.2819 83.2544 58.9093 83.0538C59.0049 82.9391 58.7087 82.6907 58.661 82.5475L57.9636 82.8818C58.2788 82.7481 58.2788 82.4233 58.3457 82.108C58.1355 82.1367 58.0209 82.3086 57.8776 82.3564C57.9731 82.2418 58.0687 82.1271 57.9636 81.9743L57.2185 82.4997C57.2567 82.5475 57.3426 82.5761 57.4095 82.5952C57.228 82.5952 56.8363 82.7863 56.588 82.5092L56.7408 82.1462C56.9414 82.5092 57.0752 82.2035 57.1993 81.9647C56.7026 82.0029 57.0752 81.8787 56.8459 81.6399C56.502 81.6399 56.33 82.0698 56.416 82.3468C56.0243 82.2131 55.9001 82.1271 55.4894 82.4424L55.5849 81.9934L55.2028 82.1271L55.5276 81.5922C54.8302 81.2769 55.3556 82.3468 54.5818 82.0794V81.6972C54.2857 81.831 54.1519 82.4901 53.9322 82.0125C53.6265 82.2418 54.4099 82.5761 53.7125 82.643C53.6074 82.4424 53.3399 82.28 53.1489 82.2035C52.9578 82.3468 53.1871 82.5761 53.3495 82.6143C52.4228 82.6716 52.8241 81.296 51.8974 81.7737C52.2031 82.0507 51.5917 82.5188 52.3464 82.5188C51.9739 82.7385 51.6586 81.9361 51.2669 82.3564L51.544 81.8692C51.4007 81.8596 51.2383 82.0316 51.1618 82.0889L51.2192 81.7068C50.7129 82.3659 50.3689 81.3724 50.0441 82.2418C50.2734 81.5539 49.6907 82.2704 49.5187 82.0029C49.9295 81.5253 50.6173 82.0411 50.7033 81.4011C50.5314 81.2005 50.3594 81.5157 50.197 81.3247C50.3212 81.2291 50.5122 81.0667 50.56 80.933C49.9868 80.5604 49.6143 81.3056 49.2417 81.4584L49.8817 81.3247C49.7958 81.9552 49.5856 81.4202 49.385 81.917C49.0888 81.573 48.8118 82.0602 48.573 81.8501L48.7163 81.7928C48.0285 81.7928 47.8947 80.7515 47.6272 80.7324C47.3598 80.6369 46.8343 80.9808 46.9967 81.2482C46.7675 81.4202 47.9234 81.0763 47.4839 81.8883C47.1496 80.933 46.6528 82.2322 45.8408 81.5539C46.2421 81.2291 45.6498 81.019 46.0128 80.761C45.5924 80.8375 45.5733 80.9712 45.3727 81.2387L45.2676 80.9425C44.6945 81.6017 45.1052 81.5253 44.2741 81.8692C44.5607 81.6399 43.978 81.4202 44.1977 81.2196C43.9684 81.2005 43.7487 81.2865 43.5768 81.4584L43.615 81.4202C42.7839 81.5539 42.9654 81.019 42.2011 81.3342L42.268 81.5253C41.2554 81.9838 40.0422 81.6495 39.02 81.8501L39.3639 82.0029C39.2588 81.9169 38.657 82.28 38.3704 81.9934L38.5997 81.9265C38.6092 81.7259 38.5137 81.4297 38.2653 81.3724L38.1507 81.6686L38.0742 81.4297C37.7017 81.4202 38.1411 81.8787 37.7781 81.8596C37.6348 80.9808 36.1923 81.7163 35.9344 80.9234C35.6287 81.5539 36.6317 81.0381 36.3069 81.6113C36.2019 81.5062 36.1636 81.3915 35.9248 81.3342L35.9821 81.7163C34.8835 81.4775 34.4823 81.1432 33.4792 81.2005L33.527 81.1241C33.1831 80.9617 32.9825 81.0381 32.801 81.3533C32.7437 81.1814 33.0112 81.0858 32.8774 80.9234C32.1609 81.8883 31.6928 80.1783 31.2534 80.8566C31.368 80.0923 30.6229 79.3376 31.0241 78.7454L30.7662 78.8313C30.8999 78.325 31.5686 78.8313 31.7597 78.3059L32.5144 78.86C32.5144 78.6689 32.6672 78.3823 32.5431 78.325C32.7437 78.325 32.9156 78.2964 32.6864 78.0193C34.4919 79.3567 36.5649 78.1531 38.399 78.8695C38.5328 78.8218 38.4755 78.6498 38.4373 78.5256C38.7525 79.0128 38.7907 78.2773 38.9913 78.2104L39.4499 78.9269C39.6696 78.7167 39.5263 78.497 39.555 78.3632C40.5294 78.2486 41.4178 78.946 42.2298 78.5543C42.4591 78.8122 42.1247 79.1275 42.4495 79.2135C42.0578 78.4779 43.4335 78.8887 43.1851 78.3728C43.4526 79.1561 44.3506 78.5639 44.1404 79.6338C44.5321 79.7102 44.4939 79.1848 44.3888 79.0797C44.8378 79.1275 45.2103 79.1466 45.602 78.8122C45.8408 79.0606 47.7037 78.5925 48.0571 79.4045C47.8087 78.8695 48.0953 79.1275 48.3819 78.9078L48.1622 78.4397L48.764 78.5065C48.8882 78.4588 48.9169 78.5256 48.9169 78.5256C49.022 78.5447 48.8787 78.7931 49.1271 78.9078C49.5378 78.9555 49.5761 78.688 49.8053 78.4588L49.748 78.3919L50.025 78.3537C50.2352 78.3728 49.2799 78.7931 49.9295 79.0511C49.9486 78.9269 50.3785 78.325 50.5314 78.6498C50.197 78.6116 50.2161 78.946 50.3403 79.0797L50.8179 79.1179L50.6938 78.5256C52.0598 78.5925 53.4546 79.0415 54.9162 79.032C54.878 79.5478 55.9479 79.0797 55.7855 79.8344L55.7377 79.7675C55.3747 79.8344 55.8142 80.3598 56.1103 80.2834C55.8142 80.035 56.693 79.5383 55.9575 79.4045L56.5497 79.0606C56.9319 77.6181 58.0687 79.2135 58.9571 78.7645C58.8998 78.8122 58.8711 78.9364 58.8711 78.9364C59.6545 78.4874 60.5811 79.3663 60.7722 79.137L60.8199 79.5383C61.5077 78.9364 61.5842 78.8887 62.358 79.1561C62.358 79.1561 62.2529 79.3376 62.3771 79.4141C62.5681 79.1179 62.7783 78.8313 63.3133 78.9269L63.2846 79.0511L64.1253 79.0033C64.0871 80.2261 65.5869 78.2773 65.8066 79.6242C65.9881 79.2612 66.5995 79.1657 66.8765 79.0033C66.8765 79.0033 66.8956 79.1179 66.9338 79.1752C67.3828 78.5256 67.5643 79.395 67.8509 79.3281C67.9465 79.1657 67.8032 78.9555 67.7076 78.7454C68.1566 79.2803 67.9083 78.1626 68.0133 78.3632C68.1471 78.3823 68.4241 78.8122 68.6725 79.0606V78.9269C68.491 78.6021 67.8127 78.0958 68.2999 78.325C68.3381 78.3919 68.3477 78.4683 68.4241 78.5256C68.5674 78.6116 70.029 79.3185 69.7424 78.8791H69.5227C69.2266 78.4683 70.5353 78.4015 69.7138 78.0767L69.3221 78.0098C69.838 77.4939 69.1692 77.9142 69.6278 77.1309H69.6851C69.6182 76.7774 70.0959 76.5864 69.4749 76.4049L69.389 76.5386C69.3508 76.0896 69.389 76.0514 69.4272 75.6024C69.3699 75.5451 69.2743 75.3254 69.4081 75.2681C68.8922 75.249 69.1788 74.2077 69.217 74.0071C69.2934 74.3796 69.5132 74.1981 69.7233 74.1026C69.303 73.8829 69.2648 73.7396 69.5705 73.4434C68.9304 73.3957 68.2426 73.3384 68.214 72.7556C68.3095 72.8512 68.3572 72.9945 68.491 72.9371C68.6247 72.8703 68.4241 72.6983 68.4241 72.6983C68.5579 72.641 68.6629 72.8321 68.8827 72.7652C68.2713 72.364 68.8444 72.0965 68.6247 71.5233C68.8158 71.7048 68.9495 71.5519 69.1693 71.4946C68.4432 71.4469 69.8093 70.7208 68.8636 70.931C69.4367 69.8229 68.9304 68.1129 69.5418 67.683C69.7998 67.5683 69.3794 67.2531 69.3699 67.062L69.6851 67.0907C69.1119 66.5462 69.4749 66.6704 68.8922 66.0303C69.2743 66.2978 69.4463 66.1927 69.752 65.9252L69.0928 65.4762L69.5896 65.3998C69.3985 65.2279 69.4749 65.0273 69.5609 64.8266C69.5609 64.9222 69.6087 64.8649 69.6947 64.8649C69.0068 64.7598 69.0928 63.986 68.7776 63.8618C69.4463 63.6707 68.6152 63.3268 69.2361 63.1931L69.0068 62.9638C68.7107 63.0498 68.3859 63.088 68.5292 62.916V62.8778L68.9018 62.8014C68.8158 62.6294 68.768 62.4384 68.7585 62.3142C68.7585 62.3142 68.6534 62.4384 68.5674 62.4957L68.7585 62.276V62.2187L68.7776 62.2569C68.8731 62.1422 68.9209 62.0372 68.7871 61.8843C69.389 61.2634 67.9847 60.48 68.8062 59.7922C68.7298 59.8973 68.6916 60.0406 68.8253 60.0884C68.7871 59.5152 69.3508 58.942 69.0546 58.579L68.6916 58.5981C68.5292 58.1682 68.4146 57.8434 68.4432 57.4899L68.0324 57.4708C68.1853 56.9836 67.5357 55.9041 68.3764 55.608C68.0516 55.4838 68.4814 54.9202 68.3764 54.6336L68.6916 54.5667C68.7967 54.1942 68.6916 53.9649 68.5961 53.7452C69.2552 53 68.6152 52.3027 68.6629 51.6531H68.7489L68.5388 50.9843C68.8158 51.1563 68.3381 50.8506 68.4241 50.65C68.2713 50.4398 68.3572 50.0959 68.5674 49.8571L68.5865 49.4272C68.7967 49.9049 69.0355 49.4081 69.3985 49.3794L69.1119 49.112C69.2839 49.0069 69.389 49.2839 69.4749 49.0833C69.2839 48.9018 69.2934 48.3668 68.9209 48.1949C68.8349 48.2235 68.7394 48.2904 68.6725 48.3668L68.6534 48.3859V48.3668L68.5196 48.2904L68.4814 48.4146C68.4241 48.2904 68.5101 48.2808 68.5101 48.2808C68.5961 47.9465 68.4432 48.0611 68.2808 48.0802C68.8445 47.6981 68.4719 47.4879 69.131 47.2014C68.3764 47.593 69.131 46.332 68.4146 46.5709C68.9877 46.2938 68.4432 46.3702 68.9304 46.1983C68.768 46.5995 69.2934 47.0007 69.5418 47.3255L69.8857 47.0103C70.5353 47.2205 69.6373 47.7172 69.8571 47.9083C69.7138 47.7745 69.8571 47.4975 70.0099 47.4879L69.5132 47.5644C69.3125 48.0134 69.6947 48.3764 69.9335 48.7012C70.0959 48.3955 70.2296 49.0737 70.5831 48.8445L70.5258 48.6152C70.6977 48.5006 70.841 48.7394 70.9939 48.8731C70.6309 49.6278 70.927 51.0035 70.5449 51.2805C70.6691 51.1276 70.564 50.8506 70.4207 50.7073L70.2201 51.0608C70.2105 50.7742 70.65 50.5449 70.4876 50.1246C70.1723 50.1914 69.752 49.8858 69.3125 50.201C68.8158 51.013 70.1245 50.8793 69.9908 51.8537C70.0863 51.9396 69.4845 51.6531 69.6469 52.1689C69.9622 52.8185 70.6691 53.3057 71.3473 53.3153C71.1467 53.0382 70.755 52.4842 71.2518 52.3982C71.4524 52.6752 71.5671 53.1529 71.8919 53.1815C71.3187 53.4586 71.7199 52.6561 71.2423 53.0191C71.2614 53.2197 71.4429 53.2962 71.5384 53.3917C71.2996 53.2675 71.1372 53.5637 71.0034 53.621C71.0034 54.2515 70.7455 54.6049 70.6882 55.2736C70.6118 55.3119 70.4302 55.3787 70.287 55.3596C70.4398 55.6844 71.29 56.1716 71.6435 56.0474C71.6626 56.4296 71.3951 56.4582 71.5479 56.783C72.0543 56.2672 71.462 56.8785 72.0065 56.9454C72.0734 57.2798 71.739 57.0601 71.6148 57.2129C71.6721 57.2702 71.8536 57.404 72.0065 57.4135C72.0829 57.3753 72.1498 57.3275 72.2071 57.2225C72.1784 57.3658 72.102 57.4135 72.0065 57.4135C71.5862 57.6141 70.927 57.0027 70.4302 57.2416C70.1246 57.4135 69.5323 58.1778 69.5323 58.1778C69.9908 58.3306 71.911 58.3115 72.5224 58.0727C72.8472 58.0918 72.1784 58.3879 72.1402 58.5312C71.6148 58.9515 72.5415 59.1808 72.3313 59.5343L72.0447 59.2572C71.911 59.3146 72.0829 59.84 72.2644 59.926C72.0829 59.9355 71.3378 59.6489 71.1276 59.8113C71.0321 60.4514 72.016 61.0628 72.5606 61.0245L72.0065 60.0501C72.4555 60.0119 72.4555 60.7475 73 60.7093L72.828 61.6073C72.8185 61.4926 72.6848 61.1487 72.4364 61.2825C72.4555 61.6646 72.3599 61.4831 72.1402 61.741C71.5766 61.292 70.115 60.4705 69.4176 60.1743L69.7138 60.652L69.4463 60.7666C69.7997 61.378 71.5671 61.9321 72.0256 62.0945C71.911 62.4384 70.9461 62.3142 70.7646 62.2282C70.7073 62.916 72.1211 62.916 71.9778 63.6039L72.1976 63.3459C72.2835 63.5083 72.0925 64.1006 72.2644 64.0337C72.0065 64.1675 71.4047 64.2917 71.2423 64.1388L72.1402 64.7502C72.0447 64.6547 71.2709 64.712 71.1372 64.6738C71.1085 64.9222 72.0256 65.1037 72.1498 64.9413C71.5862 65.4189 71.8919 65.2947 71.2327 65.6864C71.29 65.8297 72.0543 65.6864 72.1402 65.5718C72.3408 65.8966 72.2453 66.0781 72.1593 66.2309C71.825 65.696 70.4302 66.0781 69.838 65.973L72.1402 67.1194C71.9969 67.1098 71.2614 67.0047 71.1754 66.9952C71.8632 67.1003 71.9396 68.3995 71.8345 69.0395V68.944C71.5957 68.8102 71.3951 69.3548 71.6435 69.584C71.5097 69.5458 71.5479 69.4981 71.5384 69.4025C71.0225 69.8229 72.5701 69.9566 71.9683 70.3865C72.0351 69.9948 71.7581 69.9184 71.4906 69.9279C71.739 70.2527 71.4524 70.9979 72.2644 70.8546C72.0925 71.0552 72.1976 71.2463 71.7868 71.2176L72.2644 72.0105C72.1784 71.9532 71.9396 71.8959 71.8823 72.1251C71.9969 71.6857 71.2422 71.2463 71.7772 71.017C71.2805 70.9979 71.013 71.1603 70.5926 70.9501C70.8219 71.8099 71.6721 72.278 72.2453 72.832L71.8823 73.5772L72.102 73.6154L71.5288 73.7396C71.6626 73.8351 71.7199 73.9115 71.7199 73.9115C71.7199 73.9115 71.5862 73.9115 71.5097 73.8638C71.5384 73.9498 71.5862 74.0166 71.653 74.0548C71.3473 74.0835 71.0034 73.9498 70.6977 73.8065L71.0225 73.5963C70.7359 73.4434 70.4398 73.3384 70.2487 73.539L70.3729 73.6441C70.1628 73.5485 69.9813 73.4912 69.8953 73.5581L70.1628 74.1408C70.2392 74.093 70.4016 73.988 70.5926 73.8638C70.9652 74.2268 71.4142 74.6471 71.8059 74.3223L71.462 74.7522C72.0256 75.2776 71.911 75.1821 72.3313 75.8126C72.1307 75.8508 71.9587 75.6788 71.8154 75.7935C72.4555 76.2616 71.0512 76.9016 71.6244 77.0067C71.7581 77.3793 72.1211 77.1691 72.274 77.4079C72.274 77.4079 72.0829 77.3697 72.0734 77.4366L72.4841 77.8474C72.3313 78.0098 72.1975 77.4366 72.016 77.9047C72.3122 78.7263 72.551 79.4141 72.2262 79.9681C72.0925 80.9521 73.1051 79.9681 72.8089 80.7419L72.7421 80.7706ZM71.1945 73.4339C71.3378 73.3097 71.4047 73.1855 71.2805 73.1091C71.1849 73.2237 71.1658 73.3384 71.1945 73.4339ZM68.7776 50.2106H68.7585C68.682 50.3539 68.6247 50.4398 68.7776 50.2106ZM48.9264 78.7836L48.8309 78.6785C48.7736 78.7931 48.7067 78.8982 48.9264 78.7836ZM70.2201 82.2226C69.9048 82.1749 69.6947 81.9934 69.7329 82.4424C69.9526 82.643 70.1246 82.3373 70.2201 82.2226ZM53.4641 82.6143C53.4641 82.6143 53.4068 82.6143 53.3781 82.6143C53.4068 82.6143 53.445 82.6239 53.4641 82.6143ZM71.8059 74.0357L71.5957 74.0739C71.6626 74.1122 71.739 74.1122 71.8059 74.0357ZM60.3709 82.7576L60.4092 82.6907H60.39L60.3709 82.7576ZM68.3955 47.4402C68.3763 47.2873 68.4623 47.2396 68.5196 47.1631C68.4337 47.1631 68.2999 47.23 68.2904 47.1345L68.3955 47.4402ZM70.7168 44.4501L70.6595 44.3068H70.478C70.4876 44.5074 70.6309 44.6507 70.7073 44.4501H70.7168ZM69.58 46.8479C69.9048 46.8288 69.7997 46.6282 69.7424 46.418V46.4562C69.2839 46.3894 69.4367 46.6186 69.58 46.8575V46.8479ZM69.7233 46.3607V46.1601C69.5323 46.1314 69.6851 46.2461 69.7233 46.3607ZM68.7107 49.0833C68.7967 48.9782 68.2904 49.0164 68.4337 48.9496C68.0229 48.8349 68.9304 49.6374 68.7107 49.0833ZM70.6595 46.6759L70.2583 46.7524L70.5831 46.8766L70.6595 46.6759ZM70.3538 48.3955L70.4685 48.0516L70.3252 47.956C70.3061 48.1758 70.2296 48.405 70.3443 48.3955H70.3538ZM70.3347 47.956C70.3347 47.8414 70.3347 47.7363 70.2678 47.679C70.2678 47.679 70.2869 47.8701 70.3347 47.956ZM70.7837 47.1631L70.6977 47.2682L70.6691 47.5071L70.7837 47.1631ZM70.2487 52.1403L70.3634 52.5224C70.5067 52.5701 70.5831 52.4651 70.5353 52.3218C70.4398 52.2262 70.392 52.0925 70.2487 52.1403ZM71.3664 51.0035C71.2805 51.099 71.1849 51.1085 71.0607 51.1563L71.5575 51.185L71.3664 51.0035ZM71.4715 52.1116C71.6148 52.1498 71.8727 52.6657 71.8441 52.188C71.7008 52.1403 71.5957 51.7677 71.4715 52.1116ZM70.7933 57.8243V57.7288H69.9621L70.7933 57.8243ZM72.7134 62.8778C72.914 62.4384 72.2071 62.7632 72.465 62.362C72.274 62.2569 72.2549 62.6963 72.0925 62.5912C72.0925 62.5912 72.0256 62.5053 71.9683 62.4479C72.016 62.5244 72.0925 62.5912 72.0925 62.5912C72.2931 62.8683 72.1784 63.002 72.7134 62.8874V62.8778ZM31.2725 77.876L31.005 77.7041L31.1674 77.9811L31.2821 77.876H31.2725ZM30.4318 78.4206C30.4987 78.4014 30.6325 78.3537 30.6707 78.4683L30.6516 77.9525L30.4318 78.4206ZM71.4333 82.4615H71.9205L71.8632 82.3373C71.7199 82.2895 71.6148 82.3468 71.4333 82.4615ZM66.0741 83.0155H66.1409L66.0263 82.557L66.0741 83.0155ZM62.7496 83.5505C62.8929 83.5696 63.0458 83.4645 63.1891 83.4932C62.8834 83.5696 62.7401 82.9678 62.7496 83.5505Z" fill="white"/>
</svg>
