<svg width="73" height="95" viewBox="0 0 73 95" fill="none" xmlns="http://www.w3.org/2000/svg">
<path d="M57.6725 94.2877C57.6725 94.2877 57.2694 94.2877 57.3174 94.0957C57.231 94.0957 57.6245 93.9422 57.6725 94.2877ZM56.8279 90.7461L56.9623 90.8133L56.6647 90.295L56.8279 90.7461ZM57.087 87.6749C56.4824 87.9244 57.087 88.7978 56.8471 89.3257L56.7031 89.4024L57.1446 89.6904C57.1254 89.0185 56.8855 88.126 57.087 87.6749ZM58.4211 86.4368C58.4307 86.3696 58.4307 86.3792 58.4595 86.1296C58.2292 86.216 58.2963 85.7553 58.3539 86.5039L58.4115 86.4368C58.6227 86.2448 58.4115 86.7631 58.4115 86.4368H58.4211ZM58.4115 84.9299L58.5747 85.3714C58.7186 85.285 58.7762 84.9107 58.8626 85.0643C58.7858 84.6132 58.6419 84.6996 58.4115 84.9299ZM58.018 84.4884L58.0852 84.7188C57.9892 84.7764 57.8069 84.7668 58.1332 84.9395C57.9604 84.8915 58.1236 84.9875 58.2292 85.1987L58.0852 84.7188C58.0852 84.7188 58.162 84.6228 58.018 84.4884ZM57.7109 85.5538C57.7205 86.3792 58.1428 86.2832 58.1236 85.4578C57.9796 85.6881 57.8741 85.9953 57.7109 85.5538ZM56.5112 87.4637L56.3096 87.7708L56.4824 88.0684C56.396 87.9244 56.6839 87.4637 56.5016 87.4733L56.5112 87.4637ZM58.5171 82.7608C58.6131 82.5977 58.7186 82.3002 58.901 82.2906C58.7858 82.2618 58.5651 82.4153 58.4019 82.4345L58.5171 82.7608ZM58.4019 82.4345L58.2292 81.945C58.1716 82.3673 58.2676 82.4537 58.4019 82.4345ZM57.3846 84.3733L57.7685 85.1795L57.3846 84.2197V84.3637V84.3733ZM59.0354 80.4958L59.2945 80.7837L58.901 80.275L59.0354 80.4958ZM59.0546 79.2961C59.2753 79.5168 59.4769 79.0561 59.6016 79.2769C59.5824 78.9506 59.3905 78.6626 59.2273 78.3939C59.3137 78.6626 59.2657 78.9506 59.0546 79.2961ZM59.2369 78.3939C59.1889 78.2499 59.1218 78.106 58.997 77.962C59.045 78.0964 59.1409 78.2403 59.2369 78.3939ZM58.709 80.8125L58.3539 80.9661C58.3731 80.7837 58.3923 80.6398 58.4019 80.563C58.4019 80.563 58.3731 80.7261 58.3443 80.9757H58.3539L58.3347 81.1484C58.4115 81.1196 58.6035 81.0621 58.709 80.8029V80.8125ZM57.1062 82.828C57.327 83.0392 57.5093 82.7321 57.7781 83.164C57.6053 82.876 57.4326 82.281 57.1062 82.828ZM58.0852 81.9546L57.8836 81.398L57.7781 81.8875C57.8645 81.8875 58.0084 81.8107 58.0948 81.9546H58.0852ZM57.7877 81.1484L57.874 81.398L57.922 81.2156L57.7877 81.1484ZM58.6323 75.4666V75.4186L58.5747 75.457L58.6323 75.4762V75.4666ZM58.6707 77.5589C58.7858 77.4629 58.9682 77.2422 58.8818 77.2038L58.6707 77.5589ZM58.5363 79.728V79.7568C58.6227 79.6896 58.5363 79.728 58.5363 79.728ZM58.3443 79.4209L58.4403 79.7856L58.5363 79.7184L58.3443 79.4113V79.4209ZM56.7895 74.5452C56.7031 74.5452 56.5688 74.3341 56.4728 74.4972C56.7895 74.5452 57.0582 75.1403 56.6839 75.6106C56.8951 76.1001 57.9604 75.8505 58.5747 75.457C58.4307 75.4378 58.3059 75.4282 58.1428 74.9195C57.9604 75.0827 57.6821 75.9945 57.4038 75.5626C57.279 74.9003 57.5477 75.0347 57.7397 74.7276C57.327 74.9771 57.2022 73.8542 56.6072 73.9598L56.7799 74.5452H56.7895ZM58.5363 76.4648L58.4883 76.3976L58.5171 76.5991C58.5939 76.3784 58.7282 76.2152 58.9874 75.9273C58.853 75.5722 58.7378 75.4954 58.6323 75.4666L58.5267 76.4648H58.5363ZM58.6515 77.5781H58.6035V77.5685L58.4787 77.5205C58.5651 77.2422 58.5747 77.4821 58.6035 77.5685H58.6515V77.5781L58.5171 76.5991C58.4499 76.8007 58.4499 77.0598 58.4595 77.5109C58.1236 77.3382 58.0084 76.8295 57.6053 77.1078C57.6053 77.7029 57.8741 77.5397 57.9988 77.914C57.9796 76.9351 58.1716 78.2019 58.4211 77.5109C58.4691 77.7029 58.4787 77.8756 58.4787 78.0388C58.3923 78.3171 58.3443 78.6146 58.3155 78.893C58.3155 78.893 58.2388 78.8642 58.258 78.941C58.1716 79.1521 58.258 79.2865 58.3443 79.4113C58.3251 79.1329 58.3251 78.9794 58.3155 78.893C58.4307 78.941 58.6131 79.0753 58.6227 78.7586C58.4787 78.5379 58.4883 78.2979 58.4787 78.0292C58.5267 77.8948 58.5939 77.7317 58.6707 77.5397L58.6419 77.5589L58.6515 77.5781ZM56.8951 82.3002L56.8567 82.233C57.0103 81.8491 57.4709 81.3788 57.5189 81.4556C57.2022 81.5515 56.9719 81.6283 56.6455 81.8683C56.6839 81.945 56.8183 82.0122 56.7703 82.2426C56.6455 82.4345 56.5976 82.233 56.4824 82.2426C56.444 82.1754 56.4152 82.1466 56.396 82.2618L56.4824 82.2426C56.5688 82.3865 56.6935 82.7321 56.8951 82.3194V82.3002ZM57.4709 79.6608L57.3558 78.8546L57.0295 79.2385H57.2118C57.1062 79.68 57.3462 79.6032 57.4709 79.6608ZM58.8242 75.3322L59.1889 75.4666L58.6995 74.9771L58.8338 75.3418L58.8242 75.3322ZM58.8434 74.2861L59.1601 74.3437L58.9874 74.0557L58.8434 74.2861ZM60.1295 47.8637L59.784 47.9692C59.8416 48.2092 59.8032 48.4011 59.7264 48.5547C60.0335 48.2092 60.4942 47.8349 60.1295 47.8637ZM57.6341 30.9429L57.5285 31.0485L57.8645 31.2693L57.6341 30.9429ZM56.396 30.2711C56.3192 30.3671 56.252 30.5206 56.1753 30.7222L56.396 30.2711ZM59.2177 63.5655C59.3617 63.2679 59.4289 63.0376 59.4577 62.8265C59.2369 63.1816 58.9298 63.4599 59.2177 63.5655ZM57.2598 14.8956C57.4518 15.0108 57.5861 15.0684 57.6245 14.982C57.4326 14.8572 57.3174 14.8476 57.2598 14.8956ZM59.4097 62.1162C59.4577 62.337 59.4961 62.5577 59.4577 62.8169C59.6208 62.5577 59.7264 62.2602 59.4961 61.9627C59.4577 62.0298 59.4097 62.1162 59.4097 62.1162ZM57.7781 71.0901C57.7781 71.0901 57.6917 71.0037 57.6149 70.9941C57.6917 71.0133 57.7781 71.0901 57.7781 71.0901ZM59.2081 70.3702C59.1889 70.4566 59.1697 70.5622 59.1697 70.5622C59.1697 70.5622 59.2561 70.5718 59.2081 70.3702ZM59.2081 69.7752L59.1601 70.1399L59.2177 70.0919C59.2177 70.0055 59.2177 69.9095 59.2177 69.7848L59.2081 69.7752ZM56.1273 42.7481L56.1465 42.7673V42.7289L57.1734 42.4794L55.8777 41.9515C56.3096 42.2874 56.2616 42.4794 56.1657 42.7289H56.1273V42.7481ZM59.6976 59.2465C60.0239 59.4481 59.5632 60.3119 59.6592 60.7534L59.3425 60.8493C59.2273 61.4156 59.3233 61.7803 59.4097 62.1162C58.709 63.2488 59.3137 64.3525 59.2177 65.3602H59.1313L59.3137 66.3968C59.045 66.1185 59.5057 66.6079 59.4097 66.9151C59.544 67.251 59.4385 67.7693 59.2177 68.1532L59.1697 68.8058C58.997 68.0668 58.709 68.8346 58.3443 68.8538L58.6227 69.2857C58.4403 69.4489 58.3443 69.0074 58.258 69.3145C58.4403 69.612 58.3827 70.4278 58.757 70.7062C58.8434 70.6678 58.9394 70.5718 59.0162 70.4566L59.045 70.4182L59.0258 70.4566L59.1601 70.5718C59.0546 71.0901 59.2177 70.9077 59.3809 70.8981C58.7858 71.4644 59.1505 71.8099 58.4595 72.2226C59.2465 71.6563 58.3923 73.5759 59.1313 73.2303C58.5363 73.643 59.0834 73.5279 58.5843 73.787C58.7762 73.1728 58.2772 72.5393 58.0564 72.021L57.6821 72.4913C57.0486 72.1362 57.9892 71.4068 57.7781 71.1093C57.922 71.3108 57.7397 71.7427 57.5957 71.7523L58.0948 71.6467C58.3251 70.9557 57.97 70.3798 57.7493 69.8712C57.5573 70.3318 57.4709 69.2857 57.1062 69.612L57.1446 69.9767C56.9623 70.1399 56.8279 69.7752 56.6935 69.564C57.1158 68.4123 56.9047 66.272 57.2982 65.8689C57.1638 66.0993 57.2598 66.5504 57.3942 66.7615L57.6245 66.224C57.6245 66.6655 57.1638 67.0014 57.2982 67.6637C57.6245 67.5677 58.0276 68.0668 58.4883 67.5773C59.045 66.3392 57.7109 66.512 57.8932 64.9955C57.8069 64.8516 58.3923 65.341 58.258 64.5252C57.9796 63.4983 57.2982 62.7305 56.6168 62.7017C56.7991 63.1336 57.1638 64.007 56.6647 64.1125C56.4824 63.6806 56.396 62.9416 56.0697 62.8936C56.6647 62.4713 56.2041 63.6998 56.7031 63.1432C56.7031 62.8456 56.5208 62.7113 56.4248 62.5673C56.6551 62.7689 56.8375 62.3178 56.9719 62.2314C57.0103 61.262 57.279 60.715 57.3558 59.6784C57.3558 59.6784 57.2886 59.7168 57.3558 59.6592V59.6784C57.4422 59.6208 57.6245 59.5153 57.7685 59.5536C57.6245 59.045 56.7991 58.2867 56.4344 58.4691C56.4344 57.874 56.7031 57.8453 56.5592 57.3366C56.0217 58.1332 56.6455 57.183 56.0985 57.0774C56.0505 56.5688 56.3768 56.9143 56.5016 56.6743C56.444 56.5784 56.2616 56.3768 56.1177 56.3576C56.54 56.0505 57.1926 57.0007 57.6821 56.6359C57.9988 56.3864 58.5747 55.2827 58.6227 55.2059C58.162 54.9372 56.2424 54.9755 55.609 55.3211C55.2827 55.2731 55.9641 54.8412 56.0121 54.6204C56.5496 53.9774 55.6282 53.6127 55.8489 53.0656L56.1273 53.4879C56.2616 53.4015 56.1081 52.5953 55.9257 52.461C56.1081 52.4418 56.8471 52.8928 57.0678 52.6529C57.183 51.6643 56.2041 50.7238 55.657 50.7718L56.1849 52.2786C55.7338 52.3266 55.753 51.2037 55.2059 51.2516L55.3978 49.8696C55.3978 50.0423 55.5322 50.5798 55.7818 50.3783C55.7626 49.7832 55.8681 50.0711 56.0889 49.6776C56.6455 50.3591 58.1044 51.6451 58.7954 52.1058L58.4979 51.386L58.7666 51.2133C58.4211 50.2727 56.6647 49.3993 56.2041 49.1498C56.3288 48.6123 57.2982 48.8138 57.4805 48.9482C57.5477 47.8925 56.1273 47.8829 56.2712 46.8271L56.0601 47.2302C55.9737 46.9807 56.1753 46.0689 55.9929 46.1649C56.252 45.9633 56.8663 45.7714 57.0295 46.0113L56.1273 45.0611C56.2136 45.2051 57.0007 45.1187 57.135 45.1859C57.1638 44.802 56.2424 44.5333 56.1177 44.7732C56.6839 44.0438 56.3768 44.2165 57.0391 43.6215C56.9911 43.4103 56.2136 43.6407 56.1273 43.7942C55.9161 43.3048 56.0217 43.0168 56.1081 42.7769C56.4344 43.5927 57.8453 43.0072 58.4403 43.1608L56.1273 41.3948C56.2616 41.4524 57.0007 41.5964 57.0966 41.5868C56.4056 41.4332 56.3288 39.4273 56.4152 38.4483V38.5923C56.6647 38.7938 56.8471 37.9493 56.6072 37.6037C56.7511 37.6613 56.7031 37.7381 56.7127 37.8917C57.231 37.2294 55.6666 37.0375 56.2808 36.3752C56.2136 36.9799 56.492 37.0951 56.7703 37.0663C56.5208 36.5672 56.7799 35.4251 55.9737 35.665C56.1465 35.3387 56.0409 35.0603 56.4536 35.0795L55.9545 33.8606C56.0409 33.9566 56.2808 34.0238 56.3288 33.6687C56.2328 34.3597 56.9911 35.0124 56.4632 35.3771C56.9623 35.3867 57.231 35.1275 57.6533 35.4635C57.4038 34.139 56.54 33.4287 55.9449 32.5937L56.2904 31.4228L56.0697 31.3748L56.6455 31.1733C56.5112 31.0293 56.4536 30.9045 56.4536 30.9045C56.4536 30.9045 56.5784 30.9141 56.6647 30.9717C56.6359 30.847 56.588 30.7318 56.5208 30.6838C56.8279 30.6358 57.1734 30.8374 57.4901 31.0581L57.1734 31.3844C57.4709 31.6052 57.7685 31.7683 57.9508 31.4516C57.9508 31.4516 57.8645 31.346 57.8261 31.2885C58.0372 31.4324 58.2292 31.5188 58.3059 31.4132L58.018 30.5302C57.9412 30.607 57.7781 30.7798 57.5957 30.9621C57.2118 30.4055 56.7415 29.7816 56.3576 30.2903L56.6935 29.5993C56.1081 28.8123 56.2232 28.9466 55.7818 27.9869C55.9833 27.9293 56.1561 28.1884 56.3 28.006C55.6378 27.315 57.0199 26.2689 56.444 26.1249C56.3 25.5586 55.9449 25.9042 55.7722 25.5394C55.7722 25.5394 55.9641 25.5874 55.9737 25.4819L55.5514 25.0692C55.6954 24.8964 55.8489 25.4627 56.0121 24.9732C55.6762 24.1478 55.4554 23.6679 55.6378 22.9673C55.513 21.9883 54.822 23.4088 54.8892 22.5834C55.2251 22.4586 55.6186 22.3338 55.657 21.8059C55.417 21.5372 55.1483 21.5852 54.9947 21.1245H55.513C55.4746 20.7118 55.3691 20.4047 55.753 20.3855C55.513 20.0688 55.5322 19.8576 55.5994 19.6849C55.2635 19.1762 54.6012 20.1935 54.3901 20.3279C54.7356 19.752 54.4765 19.4545 55.0427 19.0802L55.2443 19.5121C55.7242 18.3988 54.3805 18.8403 55.3307 18.1492C55.3883 18.4276 55.7338 18.7635 55.9737 18.5139L55.5898 18.1204C55.6954 18.0149 55.753 18.3412 55.8489 18.0916C55.6954 17.9861 55.3499 17.8421 55.1579 17.8325L55.0043 17.8805C55.0043 17.8805 55.0619 17.8325 55.1579 17.8325H55.1867L54.7836 17.3622C54.8316 17.4582 54.9947 17.3622 54.9468 17.2566L54.5053 17.1991C54.6588 17.1703 54.6972 16.9783 54.5916 16.8055C54.1501 16.3833 53.795 17.6885 53.6031 17.0743H53.7374L53.5743 16.796C53.4303 17.8133 51.9715 16.7576 51.8179 17.8901C51.338 17.4582 51.7891 17.6214 52.3458 17.1031L51.8563 16.796C52.0674 16.748 52.2306 16.8247 52.4322 16.7288C51.8083 16.2585 51.1557 16.8823 50.7718 17.1895C50.4838 17.0455 50.9541 16.3449 50.1575 16.5848C49.0442 16.8823 50.4166 17.3718 49.7448 17.5446L49.2265 17.0167C48.3819 17.5062 47.7197 17.1607 46.9903 17.1319C46.8271 17.1895 46.7503 17.2566 46.7119 17.3238C45.9249 17.1223 45.1187 17.9861 44.5237 17.8421C44.6484 17.7077 44.1686 17.4966 44.0918 17.3622L43.0552 17.7845C43.5159 17.6118 43.4775 17.2758 43.5447 16.9591C43.2184 17.0071 43.0744 17.1991 42.8537 17.2566C42.9784 17.1415 43.1128 17.0071 42.9305 16.8727L41.8459 17.487C41.9131 17.535 42.0475 17.5446 42.153 17.5542C41.8747 17.5734 41.2892 17.8229 40.8765 17.583L41.0685 17.1991C41.414 17.535 41.5964 17.2182 41.7595 16.9591C40.9917 17.0647 41.558 16.8919 41.1837 16.6808C40.6462 16.7288 40.4447 17.1703 40.5982 17.439C39.984 17.3526 39.7824 17.2854 39.1874 17.6597L39.2833 17.2087L38.7171 17.3814L39.149 16.8151C38.0452 16.5848 38.9858 17.5926 37.7573 17.4198L37.7285 17.0359C37.2678 17.2087 37.143 17.8805 36.7495 17.439C36.308 17.7077 37.5557 17.9381 36.4904 18.082C36.2889 17.8901 35.8858 17.7749 35.569 17.7077C35.2907 17.8805 35.6842 18.082 35.9433 18.1012C34.5133 18.274 34.9548 16.8439 33.5823 17.439C34.091 17.6789 33.208 18.2164 34.3789 18.13C33.8318 18.3988 33.256 17.6405 32.6993 18.1012L33.0544 17.5734C32.8433 17.5734 32.6129 17.7749 32.5074 17.8421L32.5362 17.4582C31.8547 18.178 31.1829 17.2278 30.8086 18.13C31.0677 17.4198 30.2711 18.2164 29.9736 17.9573C30.5398 17.4294 31.6628 17.8613 31.7108 17.2087C31.4228 17.0359 31.2021 17.3622 30.9141 17.1991C30.7414 17.295 30.6454 17.3334 30.8662 17.1703L30.9141 17.1991C31.0965 17.0839 31.3556 16.9015 31.4228 16.7672C30.5014 16.46 30.0216 17.247 29.4745 17.4486L30.4343 17.2374C30.3959 17.8805 30.0024 17.3814 29.7528 17.8901C29.2442 17.583 28.889 18.1108 28.4859 17.9189C28.5915 17.9189 28.6011 17.8517 28.7067 17.8517C27.6509 17.9381 27.3054 16.9111 26.8735 16.9207C26.4512 16.8727 25.693 17.2662 25.9905 17.5158C25.6546 17.7173 27.3822 17.2278 26.8255 18.1012C26.1729 17.1895 25.597 18.5427 24.2438 17.9765C24.81 17.5926 23.879 17.4582 24.3877 17.1703C23.7639 17.295 23.7447 17.439 23.4759 17.7269L23.2744 17.4294C22.4874 18.1588 23.1112 18.0436 21.8827 18.4755C22.2858 18.2164 21.3645 18.0724 21.6716 17.8421C21.3261 17.8421 20.9901 17.9573 20.7502 18.1492L20.7982 18.1108C19.5505 18.3412 19.752 17.7941 18.6195 18.2068L18.7443 18.3796C17.2662 18.965 15.3563 18.7827 13.8111 19.0994L14.3677 19.2146C14.2046 19.1282 13.3312 19.5697 12.8417 19.3201C12.9377 19.2913 13.1008 19.205 13.1872 19.2242C13.1584 19.0226 12.9569 18.7347 12.5826 18.7059L12.4578 19.0322L12.2946 18.8019C11.7284 18.8403 12.4866 19.2338 11.9107 19.2626C11.5364 18.3988 9.45372 19.3105 8.92585 18.5619C8.57073 19.2338 10.0104 18.5811 9.60728 19.1858C9.43453 19.0994 9.34815 18.9938 8.97384 18.965L9.1178 19.3393C7.39022 19.2338 6.70878 18.9458 5.18275 19.1282L5.24034 19.0418C4.68367 18.9266 4.39574 19.0226 4.17499 19.3681C4.05022 19.1954 4.44373 19.0802 4.21338 18.9362C3.3016 19.9728 2.26505 18.3412 1.70839 19.0706C1.74678 18.2932 0.460689 17.6405 0.950171 16.9975L0.556666 17.1127C0.66224 16.5944 1.79477 17.0167 1.99632 16.4696L3.26321 16.9207C3.21523 16.7384 3.40718 16.4312 3.20563 16.3832C3.09045 16.3928 3.05206 16.4024 2.80252 16.4312C3.01367 16.3641 3.12885 16.3545 3.20563 16.3832C3.51275 16.3449 3.78149 16.3065 3.35919 16.0569C6.39206 17.1607 9.37694 15.7018 12.333 16.2009C12.5346 16.1433 12.4002 15.9705 12.333 15.8554C12.8993 16.3065 12.8417 15.5578 13.1296 15.4715L13.955 16.1241C14.2718 15.8938 14.003 15.6922 14.0222 15.5483C15.5099 15.3083 16.9975 15.9034 18.178 15.4043C18.5811 15.6346 18.1108 15.9897 18.6291 16.0377C17.9093 15.3467 20.088 15.5962 19.6273 15.1068C20.1551 15.8554 21.4604 15.1643 21.2877 16.2489C21.9019 16.2777 21.7676 15.7594 21.5852 15.673C22.2954 15.673 22.8617 15.6442 23.4184 15.2603C23.8119 15.4907 26.624 14.7804 27.2862 15.5483C26.8351 15.0588 27.3054 15.2699 27.7085 15.0204L27.315 14.5789L28.246 14.5597C28.4379 14.5117 28.4859 14.5597 28.4859 14.5597C28.6491 14.5693 28.4571 14.8284 28.8698 14.9148C29.5033 14.9148 29.5225 14.6461 29.8584 14.3773L29.7624 14.3197L30.1943 14.243C30.511 14.243 29.1002 14.7804 30.1463 14.9532C30.1559 14.8188 30.7318 14.1662 31.0197 14.4829C30.4918 14.4925 30.5782 14.8188 30.7702 14.9436H31.5092L31.2309 14.3485C33.352 14.243 35.569 14.5213 37.8149 14.3389C37.8149 14.8572 39.4081 14.2622 39.2449 15.03L39.1586 14.9628C38.6115 15.078 39.3409 15.5578 39.792 15.4331C39.3121 15.2315 40.5982 14.6173 39.4465 14.5789L40.3103 14.1662C40.7326 12.6785 42.6809 14.1278 44.0054 13.5711C43.9094 13.6287 43.8806 13.7631 43.8806 13.7631C45.0515 13.2064 46.5776 13.9838 46.8463 13.7247L46.9711 14.1182C47.9596 13.4368 48.0748 13.3696 49.3033 13.5423C49.3033 13.5423 49.1593 13.7343 49.3513 13.8111C49.6296 13.4943 49.908 13.1776 50.743 13.2064L50.7238 13.3408L52.0866 13.216C51.9235 14.3773 54.822 12.6018 55.0139 14.2334C55.4362 13.955 56.6647 14.5309 57.183 14.9052C57.183 14.9052 57.135 15.0204 57.1638 15.126C58.2292 15.2603 58.0948 16.9207 58.2772 17.4582C58.5459 17.8325 58.709 17.6022 58.8434 17.3526C58.6131 18.3316 59.832 19.6081 59.6208 19.9344C59.6016 20.5103 59.1601 20.1743 58.8914 20.3375C59.045 21.1437 60.0143 20.1743 59.5536 21.2589C59.4961 21.1437 59.4481 20.923 59.3809 21.0093C59.2945 21.4124 57.8836 22.1707 58.1812 22.5546L58.3923 22.2858C58.7378 23.0057 57.4326 24.0326 58.2676 24.1382L58.6515 24.0518C58.162 25.3283 58.8242 24.5893 58.4019 25.8658H58.3347C58.4211 26.4032 57.9412 26.72 58.5747 26.9791L58.6515 26.7871C58.7186 27.4782 58.6707 27.5358 58.6515 28.2364C58.7186 28.3228 58.805 28.6491 58.6803 28.7547C59.1985 28.7739 58.9586 30.3767 58.9202 30.6934C58.8434 30.1367 58.6227 30.4055 58.4115 30.559C58.8434 30.8854 58.8914 31.1157 58.5843 31.5668C59.2273 31.6148 59.9184 31.7012 59.9663 32.6033C59.8704 32.4594 59.8128 32.2482 59.6784 32.3346C59.544 32.4306 59.6976 32.6321 59.7456 32.7089C59.6112 32.7953 59.5057 32.5074 59.2849 32.6129C59.9088 33.208 59.3425 33.6591 59.5728 34.5325C59.3713 34.2541 59.2561 34.4941 59.0354 34.5997C59.7648 34.6572 58.4019 35.7994 59.3521 35.4635C58.7858 37.1814 59.3233 39.8208 58.709 40.4926C58.4403 40.675 58.8626 41.1453 58.8818 41.4524L58.5555 41.414C59.1313 42.249 58.7666 42.0571 59.3521 43.0552C58.9778 42.6425 58.7954 42.8153 58.4979 43.2184L59.1601 43.8998L58.6611 44.0246C58.853 44.3029 58.7762 44.6196 58.6899 44.9268C59.2177 45.2051 59.1697 46.2417 59.4673 46.424C58.7954 46.7119 59.6304 47.2302 58.997 47.451L59.2273 47.8253C59.5249 47.6813 59.8512 47.6333 59.7072 47.9117V47.9788L59.3233 48.094C59.4097 48.3723 59.4481 48.6603 59.4577 48.8426C59.4865 48.7658 59.5632 48.6699 59.6592 48.5643L59.4577 48.9002V48.9962L59.4289 48.9386C59.3329 49.1018 59.2945 49.2745 59.4193 49.5241C58.805 50.4838 60.1967 51.7027 59.3617 52.7489C59.4481 52.5953 59.4865 52.365 59.3521 52.2978C59.3713 53.2 58.7858 54.0734 59.0738 54.6492L59.4385 54.6108C59.5824 55.2731 59.688 55.7818 59.6496 56.3192L60.0623 56.3576C59.8992 57.1254 60.5038 58.805 59.64 59.2465H59.6976ZM28.6203 14.7804L28.4667 14.6845C28.3804 14.7996 28.294 14.9148 28.6203 14.7804ZM55.465 19.1474C55.2539 19.2818 55.5418 19.5025 55.6282 19.6369C55.7338 19.3873 55.9257 19.2242 55.465 19.1474ZM56.9527 31.6532C56.7991 31.8643 56.7415 32.0563 56.8759 32.1714C56.9719 31.9795 56.9911 31.8067 56.9527 31.6532ZM58.5939 44.8692C58.6419 44.8788 58.6803 44.9076 58.7282 44.9268C58.7282 44.7828 58.6803 44.8596 58.5939 44.8692ZM58.9778 67.6157L58.997 67.6349C59.0834 67.3854 59.1505 67.2606 58.9778 67.6157ZM36.1065 18.0532C36.0585 18.0532 36.0297 18.0532 35.9817 18.0532C36.0297 18.0532 36.0777 18.0532 36.1065 18.0532ZM56.3192 30.751L56.5304 30.6742C56.4632 30.6166 56.3864 30.6166 56.3192 30.751ZM46.7599 17.2854H46.7407L46.7215 17.3526L46.4624 17.7269C46.8847 17.6885 46.6927 17.535 46.7215 17.3526L46.7599 17.2854ZM55.9161 56.6455C55.9737 56.492 56.0505 56.4152 56.1273 56.3576C56.0313 56.348 55.9545 56.4056 55.9161 56.6455ZM59.2561 72.3953L59.1793 71.9059C59.1793 72.1362 59.093 72.2226 59.0258 72.3378C59.1122 72.3378 59.2561 72.2418 59.2465 72.4049L59.2561 72.3953ZM56.6072 76.4264C56.6455 76.4936 56.6072 76.5703 56.6455 76.6471H56.8183C56.8279 76.34 56.6935 76.1097 56.5976 76.4264H56.6072ZM57.9316 72.7601C57.5957 72.7889 57.7013 73.0864 57.7397 73.4319V73.3743C58.2004 73.4991 58.066 73.1344 57.9316 72.7601ZM57.7397 73.5087V73.8254C57.9124 73.8734 57.7781 73.7006 57.7397 73.5087ZM58.949 69.3337C58.8626 69.4873 59.3713 69.4585 59.2273 69.5448C59.64 69.7368 58.7666 68.4507 58.949 69.3337ZM56.8279 72.9808L57.2406 72.8848L56.9239 72.6833L56.8279 72.9904V72.9808ZM57.2694 70.3414L57.1254 70.8789C57.1254 70.8789 57.231 70.9365 57.2598 71.0229C57.2886 70.687 57.3846 70.3318 57.2598 70.3414H57.2694ZM57.3078 71.4548C57.3078 71.3588 57.3078 71.1572 57.2694 71.0229C57.2502 71.1956 57.2502 71.3588 57.3078 71.4548ZM56.8471 72.0786L56.8951 71.6947L56.7511 72.2322L56.8471 72.0786ZM57.6053 64.554L57.5093 63.959C57.375 63.8918 57.279 64.055 57.327 64.2661C57.4134 64.4101 57.4613 64.6308 57.6053 64.5444V64.554ZM56.7415 66.0321L56.2424 65.9937L56.4248 66.2816C56.5112 66.1281 56.5976 66.1281 56.7415 66.0321ZM56.3768 64.5636C56.2328 64.5061 56.0121 63.6998 56.0121 64.4485C56.1465 64.506 56.2424 65.1011 56.3768 64.5636ZM57.3078 55.753V55.9065H58.1332L57.3078 55.753ZM55.5034 47.9404C55.2923 48.6315 56.0121 48.1132 55.753 48.7371C55.9449 48.9002 55.9641 48.2284 56.1273 48.4011C55.9257 47.9884 56.0505 47.7581 55.5034 47.95V47.9404ZM56.1273 48.3915C56.1273 48.3915 56.2041 48.5163 56.2424 48.6123C56.1945 48.4875 56.1273 48.3915 56.1273 48.3915ZM1.19971 16.0761L0.74862 15.9418L1.05575 16.1913L1.19971 16.0761ZM0 16.7192C0.105575 16.6808 0.297528 16.6328 0.383907 16.7384L0.24954 16.2201L0 16.7096V16.7192ZM54.6492 20.8078L54.7836 20.8366C54.918 20.7694 54.9276 20.6734 54.9372 20.4815L54.6588 20.8078H54.6492ZM54.1022 17.4966L54.2749 17.0455L54.083 17.4774L54.1022 17.4966ZM50.4454 17.8517C50.6278 17.8325 50.9061 17.7749 51.0981 17.7461C50.647 17.8613 50.3591 17.2662 50.4454 17.8517ZM71.9539 52.4801C71.9251 52.6145 72.3282 52.5857 72.3282 52.5857C72.2514 52.365 71.8771 52.4897 71.9539 52.4801ZM71.1572 50.2631L71.2916 50.3015L70.9557 49.9752L71.1572 50.2631ZM71.1476 48.1804C70.5718 48.3819 71.2436 48.929 71.0421 49.3033L70.9077 49.3705L71.378 49.5337C71.3012 49.0826 70.9845 48.4971 71.1476 48.1804ZM72.3186 47.307L72.3762 47.259C72.3762 47.259 72.3762 47.2494 72.3858 47.0479C72.165 47.115 72.1938 46.8175 72.3186 47.307ZM72.3762 47.259C72.5681 47.115 72.3954 47.4798 72.3762 47.259ZM72.2322 46.2513L72.4337 46.5392C72.5681 46.4816 72.5873 46.2129 72.6929 46.3184C72.5777 46.0209 72.4433 46.0881 72.2322 46.2513ZM71.8963 46.1361C71.8963 46.1361 71.9731 46.0689 71.8099 45.9825L71.8963 46.1361ZM72.0786 46.4432L71.8963 46.1361C71.8003 46.1745 71.6179 46.1841 71.9635 46.28C71.7907 46.2512 71.9539 46.3184 72.0786 46.4528V46.4432ZM71.9922 46.6256C71.8675 46.7887 71.7907 46.9999 71.5891 46.7119C71.6755 47.259 72.0786 47.1726 71.9922 46.6256ZM70.5526 48.0748L70.3894 48.286L70.5814 48.4779C70.4758 48.3819 70.735 48.0652 70.5526 48.0748ZM72.5201 44.4469C72.4049 44.4277 72.1938 44.5429 72.0402 44.5717L72.1842 44.7828C72.2706 44.6676 72.3378 44.4661 72.5201 44.4469ZM71.8195 44.2549C71.8003 44.5333 71.8963 44.5909 72.0402 44.5717L71.8195 44.2549ZM71.1668 45.9441L71.6179 46.4624L71.1572 45.8481V45.9441H71.1668ZM72.5201 43.2376L72.7985 43.4103L72.3666 43.0936L72.5201 43.2376ZM72.5681 41.8075C72.6641 41.9899 72.6449 42.1818 72.4529 42.4314C72.6929 42.5657 72.8464 42.2394 73 42.3834C72.952 42.1626 72.7505 41.9803 72.5681 41.8075ZM72.5681 41.8075C72.5105 41.7115 72.4337 41.6156 72.2994 41.5292C72.357 41.6252 72.4625 41.7115 72.5681 41.8075ZM72.213 43.4679L71.8675 43.6023V43.7271C71.9443 43.7079 72.1362 43.6503 72.213 43.4775V43.4679ZM71.8579 43.6023C71.8675 43.4775 71.8771 43.324 71.8771 43.324C71.8771 43.324 71.8675 43.4391 71.8483 43.6023H71.8579ZM71.4644 45.1091C71.2628 44.9172 71.0517 44.5429 70.7637 44.9172C71.0037 45.0515 71.1668 44.8308 71.4644 45.1091ZM71.4356 43.919L71.3588 44.2549C71.4548 44.2549 71.5891 44.1877 71.6851 44.2741L71.4356 43.9094V43.919ZM71.4644 43.7942L71.3204 43.7559L71.4356 43.919L71.4644 43.7942ZM71.9826 42.1242C71.8291 41.9803 71.8099 41.8171 71.7907 41.6348C71.7235 41.8267 71.6851 42.0283 71.6947 42.2202C71.8003 42.2394 72.0018 42.3258 71.9826 42.1242ZM71.6947 42.2202L71.6275 42.2586C71.5699 42.4026 71.6563 42.489 71.7619 42.5657L71.6947 42.2202ZM72.1362 41.0397L71.9539 41.2988C72.0594 41.2221 72.2322 41.0685 72.1362 41.0397ZM71.9922 42.7769C72.069 42.7289 71.973 42.7577 71.973 42.7577L71.9922 42.7769ZM71.973 42.7577L71.7619 42.5657L71.8771 42.8057L71.973 42.7577ZM69.8328 40.0703C70.0823 40.3967 71.1285 40.1663 71.7139 39.8784C71.5699 39.8688 71.4452 39.8688 71.2532 39.5329C71.0805 39.648 70.8501 40.2815 70.5622 39.9936C70.3894 39.5521 70.6678 39.6288 70.8405 39.4177C70.4374 39.6001 70.2551 38.861 69.6696 38.957L69.8808 39.3505C69.7848 39.3505 69.6408 39.2161 69.5544 39.3313C69.8808 39.3505 70.1783 39.7344 69.8328 40.0703ZM71.6851 40.5118L71.7235 40.6558C71.7811 40.4926 71.8963 40.3871 72.1554 40.1759C72.0018 39.9456 71.8771 39.8976 71.7715 39.888V39.8496L71.7043 39.888H71.7715L71.7331 40.5694L71.6851 40.5214V40.5118ZM71.3012 41.5676C71.1477 41.3372 70.8789 41.4524 70.8501 41.0493C71.2244 40.8478 71.378 41.1741 71.7235 41.2796C71.6851 40.9725 71.6755 40.7998 71.7235 40.6558L71.9155 41.3084H71.9347C71.8675 41.4332 71.8195 41.5388 71.7811 41.6348C71.7619 41.5196 71.7523 41.414 71.6851 41.2796C71.4932 41.7595 71.2052 40.9149 71.3012 41.5676ZM71.7331 41.2796L71.8675 41.3084H71.8771H71.9155H71.8675C71.8195 41.2413 71.8003 41.0877 71.7331 41.2796ZM70.0151 44.5717L70.1015 44.5429C70.1015 44.5429 70.0247 44.4949 70.0151 44.5717ZM70.5142 44.5717L70.4662 44.5333C70.5814 44.2645 71.0613 43.967 71.0613 43.967C70.7445 44.0534 70.5238 44.111 70.2167 44.2933C70.2167 44.2933 70.4086 44.3797 70.3702 44.5333C70.2647 44.6676 70.2071 44.5333 70.0919 44.5333C70.1879 44.6292 70.3414 44.8596 70.5142 44.5621V44.5717ZM70.8885 42.7673L70.7158 42.2298L70.4182 42.5082H70.6006C70.5334 42.8057 70.7541 42.7385 70.8981 42.7769L70.8885 42.7673ZM71.9443 39.7824L72.3186 39.8496L71.8003 39.5425L71.9539 39.7824H71.9443ZM71.8963 39.0722L72.213 39.0914L72.021 38.8994L71.8963 39.0626V39.0722ZM64.8132 5.11557L64.6596 5.23074C64.7364 5.19235 64.8132 5.11557 64.8132 5.11557ZM65.6866 4.9908V4.82764C65.677 4.92361 65.6866 4.9908 65.6866 4.9908ZM69.3625 9.80884L69.2665 9.88562L69.612 10.02L69.3625 9.80884ZM67.9036 9.76085L68.1052 9.45372C68.0284 9.5209 67.9708 9.62648 67.9036 9.76085ZM58.2484 6.01775L58.0564 6.38246C58.3635 6.37286 58.2196 6.19051 58.2484 6.01775ZM71.6851 31.8259C71.8195 31.6244 71.8771 31.4612 71.8963 31.3173C71.6947 31.5572 71.3972 31.7587 71.6851 31.8259ZM64.554 1.60281C64.6404 1.51643 64.6884 1.44925 64.65 1.36287C64.5636 1.44925 64.5444 1.51643 64.554 1.60281ZM71.8867 30.7318L71.8099 30.847C71.8675 30.9909 71.9155 31.1445 71.8963 31.3268C72.0402 31.1445 72.1266 30.9429 71.8867 30.7414V30.7318ZM72.021 36.2505C72.021 36.2505 72.021 36.2409 72.021 36.2217C72.021 36.2217 72.021 36.2409 72.021 36.2505ZM70.639 36.9607C70.639 36.9607 70.5526 36.9127 70.4758 36.9127C70.5526 36.9223 70.639 36.9607 70.639 36.9607ZM72.021 36.4136L71.9826 36.548C71.9826 36.548 72.0786 36.548 72.021 36.4136ZM71.9635 36.2505L72.0114 36.2121C72.0114 36.2121 72.0018 36.0873 71.9922 36.0009L71.9539 36.2505H71.9635ZM47.5181 4.5493L47.4894 4.52051C47.3262 4.65488 47.3934 4.63568 47.5181 4.5493ZM67.9996 17.8229L68.0188 17.8037H67.99L68.0092 17.8229H67.9996ZM67.7117 17.2662C68.1532 17.4966 68.1052 17.6309 68.0092 17.8037L69.017 17.6118L67.7117 17.2662ZM65.3506 4.91402L65.2643 4.94281C65.2643 4.94281 65.3314 4.93321 65.3506 4.91402ZM50.9349 5.90258C50.9349 5.90258 50.8773 5.90258 50.8485 5.90258C50.8773 5.90258 50.9157 5.91217 50.9349 5.90258ZM69.4873 35.9625C69.8424 35.1659 69.516 33.7263 69.9 33.4383C69.7752 33.6015 69.8904 33.899 70.0343 34.0334L70.2359 33.6591C70.2551 33.9566 69.8136 34.1966 69.9863 34.6476C70.3031 34.5709 70.735 34.8876 71.1668 34.5421C71.6467 33.6879 70.3414 33.851 70.447 32.8241C70.351 32.7281 70.9653 33.0256 70.7925 32.4882C70.4662 31.7971 69.7464 31.3077 69.065 31.3173C69.2761 31.6052 69.6792 32.181 69.1801 32.277C68.9786 31.9891 68.8538 31.49 68.5275 31.4708C69.0937 31.1733 68.7002 32.0179 69.1801 31.6244C69.1609 31.4228 68.9786 31.3364 68.873 31.2405C69.1129 31.3748 69.2761 31.0485 69.4009 30.9909C69.4009 30.3383 69.6408 29.9544 69.6888 29.2537C69.7656 29.2154 69.9575 29.1386 70.0919 29.1578C69.9383 28.8123 69.0745 28.3324 68.7194 28.4667C68.6906 28.0636 68.9594 28.0444 68.8058 27.6989C68.2971 28.2556 68.8826 27.5933 68.3355 27.5358C68.2683 27.1806 68.6043 27.4014 68.729 27.2382C68.6714 27.1902 68.4891 27.0463 68.3355 27.0367C68.7482 26.8159 69.4297 27.4398 69.9095 27.1806C70.2167 27.0079 70.8021 26.1921 70.8021 26.1921C70.3318 26.0289 68.4123 26.0961 67.7981 26.3456C67.4813 26.3265 68.1436 26.0097 68.1724 25.8562C68.6906 25.4051 67.7597 25.1843 67.9612 24.8004L68.2587 25.0788C68.3835 25.0116 68.2108 24.4741 68.0188 24.3877C68.2012 24.3781 68.9594 24.6661 69.1705 24.4933C69.2569 23.8215 68.2492 23.2072 67.7117 23.2456L68.2875 24.263C67.8364 24.3013 67.8268 23.5431 67.2798 23.5911L67.4333 22.6409C67.4525 22.7657 67.5869 23.1304 67.8268 22.9865C67.7981 22.5834 67.9036 22.7753 68.1148 22.5066C68.7002 22.9673 70.1783 23.8023 70.8885 24.0902L70.5814 23.6103L70.8501 23.4855C70.4854 22.8617 68.7098 22.305 68.23 22.1419C68.3355 21.7676 69.3145 21.8923 69.4969 21.9787C69.5352 21.2685 68.1244 21.2877 68.2491 20.5678L68.038 20.8462C67.942 20.6734 68.134 20.0496 67.9612 20.1263C68.2108 19.9824 68.825 19.8384 68.9882 19.992L68.0764 19.3681C68.1724 19.4641 68.9498 19.3873 69.0842 19.4353C69.1129 19.1762 68.182 19.0034 68.0572 19.1666C68.6139 18.6579 68.3067 18.7923 68.9594 18.37C68.9018 18.226 68.134 18.3892 68.0476 18.5043C67.8364 18.1684 67.9324 17.9669 68.0188 17.8133C68.3643 18.3604 69.7656 17.9381 70.351 18.0436L68.0188 16.8727C68.1628 16.8919 68.9018 16.9783 68.9882 16.9879C68.2971 16.8919 68.1916 15.5291 68.2875 14.8572V14.9532C68.5371 15.0876 68.7194 14.5117 68.4699 14.2814C68.6043 14.3197 68.5659 14.3677 68.5755 14.4733C69.0841 14.0222 67.5197 13.907 68.1244 13.4464C68.0572 13.8495 68.3355 13.9358 68.6139 13.907C68.3643 13.5711 68.6235 12.7937 67.8173 12.9665C67.9804 12.7457 67.8748 12.5634 68.2875 12.573L67.7789 11.7668C67.8652 11.8243 68.1052 11.8723 68.1532 11.6324C68.0572 12.0931 68.825 12.5154 68.2971 12.7745C68.7962 12.7745 69.065 12.6018 69.4873 12.8129C69.2377 11.9107 68.3643 11.45 67.7597 10.9318L68.086 10.1544L67.8556 10.1352L68.4219 9.9624C68.2779 9.87602 68.2108 9.79924 68.2108 9.79924C68.2108 9.79924 68.3451 9.79924 68.4315 9.82803C68.4027 9.75125 68.3451 9.68407 68.2779 9.64567L68.0668 9.71286C68.134 9.61688 68.2012 9.61688 68.2779 9.64567C68.5851 9.59769 68.9402 9.70326 69.2569 9.82803L68.9498 10.0584C69.2473 10.1927 69.5544 10.2887 69.7368 10.0584L69.6024 9.9624C69.8232 10.0488 70.0055 10.0968 70.0919 10.02L69.7752 9.42493C69.6984 9.48251 69.5448 9.60728 69.3625 9.75125C68.9594 9.39613 68.4603 9.03142 68.1052 9.39613L68.4027 8.91625C67.7789 8.46516 67.9036 8.54194 67.4046 7.99487C67.5965 7.92769 67.7885 8.06206 67.9228 7.93729C67.2222 7.61096 68.4795 6.71838 67.9036 6.72798C67.6829 6.41125 67.3854 6.68959 67.1742 6.50723L67.3662 6.42085L66.9055 6.26729C67.0206 6.12332 67.251 6.43045 67.347 6.09453C66.8863 5.58585 66.7039 5.73942 66.8095 5.43229C66.6463 5.28832 66.1281 5.96976 66.1473 5.797C66.4256 5.57626 66.7519 5.27873 66.7327 5.10597C66.5312 5.24993 66.3104 5.42269 66.1856 5.51867L66.56 5.04838C66.4928 4.962 66.3872 5.00039 66.6463 4.5685C66.4928 4.68367 66.4352 4.62608 66.4352 4.62608V4.58769C66.2336 4.78925 66.1569 5.14436 66.0321 5.46108C65.9169 5.71062 65.8113 5.92177 65.7729 6.02735C65.8305 5.89298 65.8785 5.77781 65.8785 5.77781C65.9073 5.65304 65.9073 5.64344 66.0129 5.16356L66.1856 4.9812C66.0801 4.36695 65.7921 5.8162 65.8497 4.69327C65.9457 4.71246 66.1856 4.37654 66.176 4.09821L65.8977 4.42453C65.8881 4.29017 66.0417 4.29976 65.9553 4.1558C65.8689 4.29017 65.725 4.58769 65.6866 4.77005V4.74126L65.3506 4.87562C65.4082 4.81804 65.3794 4.71246 65.2643 4.72206L64.8036 5.06758C64.9379 4.92361 64.7556 4.78925 64.5252 4.74126C63.8534 4.68367 64.1605 5.97936 63.5847 5.50907C63.6615 5.50907 63.6615 5.44189 63.7478 5.44189L63.4503 5.24993C63.5271 6.35367 61.9243 5.51867 61.9627 6.61281C61.55 6.2001 61.9243 6.35367 62.3562 5.7874L61.9339 5.50907C62.0874 5.46108 62.2314 5.52827 62.3946 5.4035C61.8379 5.00039 61.406 5.60505 61.1373 5.91217C60.9261 5.76821 61.2332 5.08677 60.6958 5.29792C59.9184 5.55706 60.8877 6.09453 60.4174 6.24809L60.0431 5.69143C59.4481 6.15212 58.9778 5.77781 58.4691 5.71062C58.3539 5.75861 58.2676 5.88338 58.2676 5.88338C57.7205 5.65304 57.135 6.44964 56.7223 6.26729C56.8183 6.15212 56.492 5.90258 56.444 5.75861L55.7146 6.11373C56.0409 5.96976 56.0313 5.64344 56.0889 5.31712C55.8681 5.35551 55.7626 5.52827 55.5994 5.56666C55.6954 5.45149 55.7914 5.33631 55.6762 5.18275L54.9084 5.72022C54.9468 5.77781 55.0331 5.797 55.1099 5.8066C54.918 5.8066 54.5053 6.00815 54.2365 5.73942L54.3901 5.3747C54.6108 5.72982 54.7452 5.43229 54.87 5.19235C54.3421 5.23074 54.7356 5.10597 54.4957 4.86603C54.1214 4.86603 53.9678 5.29792 54.0542 5.57626C53.6415 5.44189 53.5071 5.35551 53.0752 5.67223L53.1616 5.22114L52.7681 5.34591L53.104 4.80844C52.365 4.48212 52.9504 5.57626 52.125 5.29792V4.91402C51.8083 5.05798 51.6835 5.71062 51.4532 5.23074C51.1365 5.45149 51.9619 5.797 51.2325 5.84499C51.1077 5.64344 50.8389 5.48988 50.6374 5.3939C50.4358 5.53786 50.6854 5.76821 50.8581 5.8162C49.8888 5.85459 50.2727 4.48212 49.3129 4.94281C49.6392 5.24034 49.0154 5.69143 49.812 5.71062C49.4281 5.93137 49.0826 5.11557 48.6795 5.52827L48.9482 5.03879C48.8042 5.01959 48.6411 5.20195 48.5643 5.25953L48.6123 4.87562C48.1036 5.53786 47.7197 4.53011 47.403 5.4035C47.6141 4.71246 47.0383 5.42269 46.8463 5.15396C47.259 4.68367 47.998 5.20195 48.0652 4.5685C47.8829 4.36695 47.7101 4.67407 47.5277 4.48212C47.6621 4.39574 47.8445 4.23258 47.9021 4.10781C47.2974 3.7239 46.9231 4.45333 46.5488 4.61649L47.211 4.49172C47.1342 5.13476 46.9135 4.58769 46.7119 5.08677C46.3952 4.73166 46.1169 5.21154 45.8577 4.9908C45.9345 4.9908 45.9345 4.94281 46.0113 4.94281C45.2915 4.94281 45.1187 3.87747 44.8308 3.84867C44.5525 3.76229 44.015 4.08861 44.1973 4.36695C43.967 4.53971 45.1571 4.21338 44.7252 5.01959C44.3413 4.05022 43.871 5.35551 42.9976 4.66448C43.4007 4.33815 42.7865 4.10781 43.1416 3.86787C42.7097 3.93505 42.6905 4.07902 42.489 4.33815L42.3642 4.03103C41.7883 4.68367 42.2202 4.62608 41.366 4.95241C41.654 4.73166 41.0397 4.50131 41.2605 4.29976C41.0205 4.27097 40.7902 4.34775 40.6174 4.53011L40.6558 4.49172C39.792 4.61649 39.9648 4.08861 39.1778 4.39574L39.2545 4.5781C38.2276 5.02919 36.9415 4.66448 35.8857 4.85643L36.2505 5.00999C36.1353 4.92361 35.5306 5.27873 35.2139 4.9812L35.4635 4.91402C35.4635 4.71246 35.3387 4.40534 35.0891 4.34775L34.9836 4.65488L34.8876 4.41494C34.5037 4.39574 34.9932 4.85643 34.6093 4.84683C34.4077 3.94465 32.9489 4.67407 32.6321 3.87747C32.3538 4.50131 33.3616 3.99264 33.0544 4.5589C32.9393 4.46292 32.8913 4.33815 32.6417 4.28057L32.7185 4.66448C31.5572 4.40534 31.1253 4.05982 30.0791 4.10781L30.1271 4.02143C29.7624 3.86787 29.5609 3.92545 29.3785 4.25177C29.3113 4.06942 29.5801 3.99264 29.4361 3.81988C28.7547 4.77965 28.1596 3.05206 27.7373 3.7239C27.8141 2.95609 26.9791 2.17867 27.3534 1.59322L27.0847 1.67C27.1902 1.16132 27.9197 1.68919 28.0924 1.16132L28.9274 1.72758C28.9082 1.53563 29.0522 1.2573 28.9178 1.18052C28.9178 1.18052 28.8315 1.18052 28.6491 1.19971C28.7931 1.15172 28.9178 1.18052 28.9178 1.18052C29.129 1.18052 29.3113 1.16132 29.0426 0.873389C31.0197 2.24586 33.1216 1.06534 35.0795 1.82356C35.2235 1.78517 35.1467 1.60281 35.0987 1.47804C35.4539 1.98672 35.4539 1.2285 35.6554 1.17092L36.1737 1.90034C36.3944 1.69879 36.2313 1.46845 36.2505 1.33408C37.2678 1.2285 38.2276 1.95793 39.0626 1.56442C39.3121 1.83316 38.9762 2.13069 39.3217 2.23626C38.8802 1.48764 40.3391 1.91954 40.0511 1.39166C40.3679 2.18827 41.2892 1.59322 41.1069 2.68735C41.5196 2.76413 41.4524 2.23626 41.3468 2.13069C41.8267 2.19787 42.2106 2.21707 42.6137 1.89074C42.8729 2.14988 44.8116 1.69879 45.2051 2.52419C44.9268 1.98672 45.2339 2.25546 45.5218 2.03471L45.2819 1.55483L45.9153 1.62201C46.0497 1.58362 46.0785 1.6508 46.0785 1.6508C46.1841 1.67 46.0401 1.91954 46.3088 2.04431C46.7407 2.0827 46.7695 1.83316 47.0095 1.60281L46.9423 1.53563L47.2302 1.49724C47.4414 1.51643 46.4624 1.93873 47.1534 2.19787C47.1726 2.0731 47.5949 1.46845 47.7773 1.81396C47.4222 1.77557 47.451 2.10189 47.5853 2.24586L48.0844 2.29385L47.9308 1.69879C49.3609 1.78517 50.8389 2.26505 52.365 2.26505C52.3362 2.78333 53.4399 2.32264 53.2864 3.08086L53.2288 3.01367C52.8449 3.07126 53.3247 3.60873 53.6319 3.53195C53.3151 3.28241 54.2269 2.78333 53.4495 2.64896L54.0638 2.30344C54.4285 0.854194 55.6474 2.45701 56.5496 1.99632C56.4824 2.04431 56.4632 2.16908 56.4632 2.16908C57.2598 1.70839 58.2484 2.55298 58.4307 2.31304L58.5171 2.71615C59.1793 2.0731 59.2465 2.02511 60.0623 2.23626C60.0623 2.23626 59.9759 2.42821 60.1007 2.505C60.2831 2.19787 60.4558 1.89074 61.0029 1.93873L60.9837 2.0635L61.8283 1.92913C61.9531 3.16724 63.1912 1.02695 63.6135 2.31304C63.7286 1.92913 64.3333 1.72758 64.5636 1.51643C64.5636 1.51643 64.602 1.61241 64.6596 1.6604C64.7844 0.969366 66.0513 1.60281 66.4448 1.43006C66.8191 1.18052 66.7231 0.978964 66.5887 0.796608C67.0398 1.07494 67.9132 0.393505 68.6427 0C68.8346 0.0287931 68.9402 0.172758 68.9498 0.307126C69.1993 0.882987 68.7578 0.978964 68.6715 1.38207C69.1033 1.95793 69.3241 0.211149 69.5256 1.6604C69.4201 1.58362 69.2857 1.41086 69.2761 1.55483C69.4393 2.0827 68.6235 3.68551 68.9402 3.7527L69.0362 3.40718C69.612 3.88706 68.6139 5.18275 69.4201 4.9716L69.7752 4.79884C69.5256 5.85459 70.0439 5.15396 69.8136 6.15212H69.7464C69.9095 6.52643 69.4585 6.82395 70.1207 6.90074L70.1783 6.75677C70.3223 7.23666 70.2647 7.28464 70.3127 7.78372C70.3798 7.83171 70.5046 8.05246 70.3798 8.13884C70.9077 8.10045 70.7445 9.26177 70.7254 9.48251C70.6294 9.09861 70.4182 9.29056 70.2071 9.42493C70.6486 9.61688 70.7062 9.78004 70.4182 10.116C71.0613 10.116 71.7523 10.1448 71.8195 10.7782C71.7139 10.6822 71.6563 10.5287 71.522 10.6054C71.3876 10.6822 71.5987 10.8646 71.5987 10.8646C71.4644 10.9318 71.3588 10.7398 71.1381 10.8166C71.7715 11.2197 71.2148 11.546 71.4452 12.1411C71.2436 11.9491 71.1189 12.1219 70.8981 12.1891C71.6275 12.2179 70.2743 13.0145 71.2148 12.7841C70.6678 13.955 71.2148 15.7306 70.6006 16.1913C70.3414 16.3161 70.7733 16.6424 70.7829 16.8439L70.4566 16.8151C71.0421 17.3814 70.6774 17.2566 71.2724 17.9189C70.8885 17.6405 70.7158 17.7653 70.4182 18.0436L71.0901 18.4947L70.591 18.5907C70.7925 18.7827 70.7062 18.9938 70.639 19.205C70.639 19.0994 70.591 19.1474 70.495 19.1666C71.186 19.2626 71.1093 20.0784 71.4452 20.1935C70.7733 20.4047 71.6179 20.7502 70.9941 20.8942L71.234 21.1437C71.522 21.0477 71.8579 20.9997 71.7139 21.1917V21.2301L72.0786 21.1533C72.4433 21.1245 71.9731 21.3836 71.6755 21.6332C71.7427 21.5276 71.7811 21.3932 71.7235 21.2301L71.33 21.3069C71.426 21.4988 71.474 21.6812 71.4836 21.8155C71.4836 21.8155 71.5891 21.6908 71.6755 21.6236L71.4836 21.8539V21.9211L71.4644 21.8827C71.378 21.9979 71.33 22.1131 71.4644 22.2762C70.8693 22.9385 72.2994 23.7351 71.4836 24.4645C71.57 24.3493 71.5987 24.1958 71.4644 24.1574C71.5028 24.7716 70.9557 25.3763 71.2532 25.7506L71.6179 25.7218C71.7907 26.1633 71.9059 26.4992 71.8867 26.8639H72.2898C72.1458 27.4014 72.8176 28.5051 71.973 28.841C72.2994 28.9658 71.8771 29.5609 71.9922 29.8488L71.6755 29.9256C71.5795 30.3191 71.6947 30.5494 71.7811 30.7798C71.1381 31.5764 71.7907 32.2866 71.7523 32.9681H71.6659L71.8963 33.6687C71.6179 33.4959 72.0978 33.8031 72.021 34.0142C72.1746 34.2349 72.0978 34.5901 71.8963 34.8588V35.3003C71.6659 34.8108 71.4356 35.3387 71.0709 35.3675L71.3684 35.6458C71.1956 35.761 71.0901 35.4635 71.0037 35.6746C71.2052 35.8666 71.1956 36.4232 71.5699 36.5864C71.6659 36.5576 71.7427 36.4904 71.8195 36.404H71.8291L71.973 36.4712C71.8963 36.8263 72.0498 36.7016 72.213 36.6824C71.6467 37.0855 72.0402 37.3062 71.3684 37.6133C72.117 37.2006 71.3876 38.5251 72.0978 38.266C71.5316 38.5635 72.0786 38.4675 71.5891 38.6691C71.7427 38.2468 71.2052 37.8341 70.9557 37.4982L70.6198 37.8341C69.9671 37.6325 70.8501 37.0951 70.6294 36.8935C70.7829 37.0279 70.6294 37.3254 70.4854 37.335L70.9845 37.239C71.1764 36.7687 70.7829 36.3944 70.5334 36.0585C70.3798 36.3752 70.2263 35.6746 69.8808 35.9145L69.9479 36.1641C69.7752 36.2793 69.6216 36.0393 69.4681 35.9049L69.4873 35.9625ZM46.0785 1.97712L45.9825 1.87155C45.9249 1.98672 45.8481 2.0827 46.0785 1.97712ZM66.3968 4.64528C66.3968 4.52051 66.416 4.29017 66.1856 4.79884C66.1185 5.04838 66.3008 4.75085 66.3968 4.64528ZM68.7194 10.3271C68.5755 10.4711 68.5179 10.5958 68.6523 10.6726C68.7386 10.5383 68.7482 10.4231 68.7194 10.3271ZM71.6563 34.5709H71.6755C71.7523 34.4173 71.8099 34.3309 71.6563 34.5709ZM58.2676 5.96016H58.2484L58.2388 6.02735L58.2676 5.96016ZM68.1148 27.2574C68.1724 27.1519 68.2396 27.0943 68.3163 27.0559C68.2204 27.0559 68.1436 27.0943 68.1148 27.2574ZM72.0978 37.4598C72.117 37.6133 72.0306 37.6805 71.973 37.7477C72.0594 37.7381 72.1938 37.6805 72.2034 37.7765L72.0978 37.4502V37.4598ZM69.8136 40.6366L69.8712 40.7806H70.0535C70.0439 40.5598 69.8904 40.4255 69.8136 40.6366ZM70.9077 38.1028C70.5814 38.1316 70.6966 38.3332 70.7637 38.5635V38.5251C71.2244 38.5923 71.0709 38.3428 70.9077 38.1124V38.1028ZM70.7637 38.6115L70.7829 38.8226C70.9653 38.8418 70.8213 38.7363 70.7637 38.6115ZM71.7331 35.7418C71.6467 35.8474 72.1554 35.7994 72.021 35.8666C72.4433 35.9817 71.5028 35.1467 71.7331 35.7418ZM69.8328 38.2948L70.2359 38.2084L69.9095 38.0836L69.8328 38.2948ZM70.1111 36.4904L70.0055 36.8647L70.1495 36.9607C70.1687 36.7399 70.2359 36.4904 70.1207 36.5L70.1111 36.4904ZM70.2167 37.239C70.2167 37.239 70.1975 37.0471 70.1399 36.9511C70.1399 37.0663 70.1399 37.1814 70.2167 37.239ZM69.8136 37.4214L69.708 37.7861L69.7944 37.6805L69.8136 37.4214ZM70.1495 32.5649L70.0343 32.1714C69.8904 32.1331 69.8136 32.2386 69.8712 32.3826C69.9671 32.4786 70.0247 32.6225 70.1591 32.5649H70.1495ZM69.0554 33.7839C69.1417 33.6687 69.2281 33.6687 69.3625 33.6111H68.8634L69.0554 33.7839ZM68.5563 32.5554C68.6906 32.5937 68.8058 32.9872 68.921 32.6225C68.777 32.5841 68.5179 32.0467 68.5563 32.5554ZM69.4969 26.6336V26.7296L70.3318 26.7104L69.4969 26.6336ZM67.7405 21.9115C67.9324 22.0171 67.942 21.566 68.1052 21.6716C67.894 21.3932 68.0092 21.2397 67.4717 21.374C67.2798 21.8539 67.9804 21.4892 67.7405 21.9115ZM68.1052 21.6716C68.1052 21.6716 68.1724 21.758 68.23 21.8155C68.182 21.7292 68.1052 21.6716 68.1052 21.6716ZM27.5166 0.796608L27.219 0.604654L27.411 0.892585L27.5262 0.796608H27.5166ZM26.9119 1.38207L26.8639 0.854194L26.6624 1.32448C26.7296 1.29569 26.8639 1.2573 26.9119 1.37247V1.38207ZM65.9841 5.75861C66.0801 5.61465 66.0801 5.55706 66.0801 5.55706L65.9073 5.88338L65.9937 5.76821L65.9841 5.75861ZM64.4773 5.67223H64.554L64.3429 5.23074L64.4773 5.67223ZM60.8781 6.6512C60.9933 6.66079 61.1181 6.59361 61.2332 6.56482C60.9741 6.53602 60.8109 6.13292 60.8781 6.6512ZM61.3484 6.55522C61.3484 6.55522 61.2716 6.55522 61.2332 6.56482C61.2716 6.56482 61.31 6.56482 61.3484 6.55522Z" fill="white"/>
</svg>
