<svg width="73" height="95" viewBox="0 0 73 95" fill="none" xmlns="http://www.w3.org/2000/svg">
<path d="M15.3179 0C15.3179 0 15.721 0 15.673 0.193542C15.7594 0.193542 15.3659 0.348375 15.3179 0ZM16.1625 3.57085L16.0281 3.50311L16.3257 4.02567L16.1625 3.58052V3.57085ZM15.9034 6.66752C16.508 6.41591 15.9034 5.5353 16.1433 5.00306L16.2777 4.92564L15.8362 4.63533C15.8554 5.31272 16.0953 6.21269 15.8938 6.66752H15.9034ZM14.5693 7.90618C14.5693 7.97392 14.5693 7.96425 14.5309 8.21585C14.7612 8.12876 14.6941 8.59326 14.6365 7.83844L14.5789 7.90618C14.5789 7.57716 14.3677 8.09972 14.5789 7.90618H14.5693ZM14.5789 9.42549L14.4157 8.98034C14.2718 9.06743 14.2142 9.44484 14.1278 9.29001C14.2046 9.73515 14.3485 9.65774 14.5789 9.42549ZM14.9724 9.87063L14.9052 9.63838C15.0012 9.58032 15.1835 9.59 14.8572 9.41581C15.03 9.46419 14.8668 9.36742 14.7612 9.15453L14.9052 9.63838C14.9052 9.63838 14.8284 9.73515 14.9724 9.87063ZM15.2795 8.79648C15.2699 7.96425 14.8476 8.06102 14.8668 8.89325C15.0108 8.661 15.1068 8.35133 15.2795 8.79648ZM16.4792 6.87073L16.6712 6.56107L16.4984 6.26108C16.5848 6.40623 16.2969 6.87073 16.4792 6.86106V6.87073ZM14.4733 11.6125C14.3773 11.777 14.2814 12.077 14.0894 12.0867C14.2046 12.1157 14.4253 11.9512 14.5885 11.9415L14.4733 11.6125ZM14.5885 11.9415L14.7612 12.4351C14.8092 12.0093 14.7229 11.9222 14.5885 11.9415ZM15.6058 9.98676L15.2219 9.17388L15.6058 10.1416V9.99643V9.98676ZM13.955 13.8963L13.6863 13.606L14.0798 14.1189L13.9454 13.8963H13.955ZM13.9358 15.1059C13.7151 14.8834 13.5135 15.3479 13.3888 15.1253C13.408 15.4543 13.5999 15.7446 13.7631 16.0156C13.6767 15.7446 13.7247 15.464 13.9358 15.1059ZM13.7535 16.0156C13.8015 16.1607 13.8687 16.3059 13.9934 16.4511C13.9454 16.3156 13.8591 16.1704 13.7535 16.0156ZM14.2814 13.577L14.6365 13.4221C14.6173 13.606 14.5981 13.7511 14.5885 13.8286C14.5885 13.8286 14.6077 13.6641 14.6461 13.4124H14.6365L14.6557 13.2383C14.5789 13.2673 14.3869 13.3254 14.2814 13.5866V13.577ZM15.8842 11.5448C15.6634 11.3319 15.4811 11.6415 15.2123 11.1964C15.3851 11.4867 15.5578 12.0867 15.8842 11.5448ZM14.9052 12.4254L15.1068 12.9867L15.2123 12.4931C15.1164 12.4931 14.982 12.5705 14.8956 12.4254H14.9052ZM15.2027 13.2383L15.1164 12.9867L15.0684 13.1705L15.2027 13.2383ZM14.3773 15.6285C14.5213 15.8511 14.5117 16.093 14.5213 16.364C14.6077 16.0833 14.6557 15.7833 14.6845 15.5027C14.6845 15.5027 14.7612 15.5317 14.742 15.4543C14.8284 15.2414 14.742 15.1156 14.6461 14.9801L14.5597 14.6027L14.4637 14.6705L14.6557 14.9801C14.6749 15.2608 14.6749 15.4156 14.6845 15.5027C14.5693 15.4543 14.3869 15.3188 14.3773 15.6382V15.6285ZM14.3581 18.9671V19.0155L14.4157 18.9768L14.3581 18.9574V18.9671ZM14.3197 16.8575C14.2046 16.9543 14.0222 17.1768 14.1086 17.2155L14.3197 16.8575ZM14.4349 14.6414C14.3581 14.7092 14.4541 14.6705 14.4541 14.6705L14.4349 14.6414ZM16.2009 19.8961C16.2873 19.8961 16.4216 20.109 16.5176 19.9445C16.2009 19.8961 15.9322 19.2961 16.3065 18.8219C16.0953 18.3284 15.03 18.58 14.4157 18.9768C14.5501 18.9961 14.6845 19.0058 14.8476 19.5187C15.03 19.3542 15.3083 18.4349 15.5866 18.8703C15.7114 19.538 15.4427 19.4026 15.2507 19.7122C15.6634 19.4606 15.7882 20.5928 16.3833 20.4864L16.2105 19.8961H16.2009ZM14.4541 17.9607L14.5021 18.0284L14.4733 17.8252C14.4061 18.0478 14.2718 18.2123 14.003 18.5026C14.1374 18.8607 14.2526 18.9381 14.3581 18.9671L14.4637 17.9607H14.4541ZM14.3389 16.8285H14.3869V16.8478L14.5213 16.8962C14.4349 17.1768 14.4349 16.9349 14.3965 16.8478H14.3485V16.8381L14.4829 17.8252C14.5501 17.622 14.5501 17.3607 14.5405 16.9059C14.8764 17.0801 14.9916 17.593 15.3947 17.3123C15.3947 16.7123 15.126 16.8768 15.0012 16.4994C15.0204 17.4865 14.8284 16.2091 14.5789 16.9059C14.5309 16.7123 14.5309 16.5381 14.5213 16.3736C14.4637 16.4994 14.4061 16.6736 14.3293 16.8672L14.3581 16.8478L14.3389 16.8285ZM16.0953 12.077L16.1337 12.1447C15.9801 12.5318 15.5195 13.006 15.4715 12.9286C15.7882 12.8318 16.0185 12.7544 16.3449 12.5125C16.3065 12.4351 16.1721 12.3673 16.2105 12.1351C16.3353 11.9415 16.3833 12.1447 16.4984 12.1351C16.5368 12.2028 16.5656 12.2318 16.5848 12.1157L16.4984 12.1351C16.412 11.9899 16.2873 11.6415 16.0857 12.0577L16.0953 12.077ZM15.5195 14.7382L15.6346 15.5511L15.961 15.164H15.7786C15.8842 14.7189 15.6442 14.7963 15.5099 14.7382H15.5195ZM14.1662 19.1026L13.8015 18.9768L14.291 19.4703L14.1662 19.1026ZM14.147 20.1671L13.8303 20.109L14.003 20.3993L14.147 20.1671ZM12.8609 46.8081L13.216 46.7016C13.1584 46.4597 13.1968 46.2662 13.2736 46.1113C12.9665 46.45 12.5058 46.8371 12.8609 46.8081ZM16.5944 64.5559C16.6712 64.4591 16.7384 64.3043 16.8151 64.101L16.5944 64.5559ZM26.2497 77.5716L26.5088 77.1941C26.0769 77.2329 26.2785 77.3877 26.2497 77.5716ZM13.7631 30.986C13.6095 31.286 13.5423 31.5183 13.5231 31.7312C13.7439 31.3731 14.051 31.0925 13.7631 30.986ZM15.3659 79.9715C15.5579 80.0973 15.673 80.107 15.7306 80.0586C15.5387 79.9424 15.4043 79.8844 15.3659 79.9715ZM13.5807 32.4376C13.5327 32.215 13.4943 31.9925 13.5327 31.7312C13.3696 31.9925 13.264 32.2925 13.5039 32.5924C13.5423 32.5247 13.5903 32.4376 13.5903 32.4376H13.5807ZM15.2123 23.3895C15.2123 23.3895 15.2987 23.4766 15.3755 23.4863C15.2891 23.4669 15.2123 23.3895 15.2123 23.3895ZM13.7823 24.1153C13.8015 24.0282 13.8207 23.9218 13.8207 23.9218C13.8207 23.9218 13.7247 23.9121 13.7823 24.1153ZM13.7823 24.7153L13.8303 24.3476L13.7727 24.3959C13.7727 24.4734 13.7727 24.5798 13.7727 24.7056L13.7823 24.7153ZM16.8439 51.9466V51.9853L15.817 52.2369L17.1127 52.7692C16.6808 52.4305 16.7288 52.2369 16.8247 51.9853L16.8535 51.9757L16.8343 51.9563L16.8439 51.9466ZM71.9635 77.9586L72.357 77.8425C72.2514 78.3651 71.1189 77.9393 70.9173 78.4909L69.6504 78.0361C69.6984 78.2199 69.5064 78.5296 69.708 78.578C69.8232 78.5683 69.8616 78.5586 70.1111 78.5296C69.9 78.5973 69.7848 78.607 69.708 78.578C69.4009 78.6167 69.1321 78.6554 69.5544 78.907C66.5216 77.7941 63.5367 79.265 60.5806 78.7618C60.379 78.8199 60.5038 78.9941 60.5806 79.1102C60.0143 78.6554 60.0719 79.4005 59.784 79.4973L58.9586 78.8393C58.6419 79.0715 58.9106 79.2747 58.8914 79.4199C57.4038 79.6618 55.9161 79.0618 54.7356 79.565C54.3325 79.3328 54.8028 78.9747 54.2845 78.9263C55.0043 79.6231 52.8257 79.3715 53.2864 79.865C52.7585 79.1102 51.4532 79.807 51.626 78.7135C51.0117 78.6941 51.1461 79.207 51.3284 79.3038C50.6182 79.3038 50.0519 79.3328 49.4857 79.7199C49.0922 79.4876 46.28 80.2037 45.6178 79.4296C46.0689 79.9231 45.5986 79.7102 45.1955 79.9618L45.589 80.4069L44.658 80.4263C44.4661 80.4747 44.4181 80.4263 44.4181 80.4263C44.2549 80.4166 44.4469 80.1553 44.0342 80.0682C43.4007 80.0682 43.3815 80.3392 43.0456 80.6102L43.1416 80.6682L42.7097 80.7456C42.393 80.7456 43.8038 80.2037 42.7577 80.0295C42.7481 80.1553 42.1722 80.8231 41.8843 80.5037C42.4122 80.494 42.3258 80.165 42.1338 80.0392H41.3948L41.6732 80.6392C39.5617 80.7456 37.335 80.465 35.0891 80.6489C35.0891 80.1263 33.4959 80.7263 33.6591 79.9521L33.7455 80.0199C34.2925 79.9037 33.5631 79.4199 33.112 79.5457C33.5919 79.7489 32.3058 80.3682 33.4575 80.4069L32.5937 80.8231C32.1714 82.323 30.2231 80.8618 28.8986 81.423C28.9946 81.365 29.0234 81.2295 29.0234 81.2295C27.8525 81.7908 26.3265 81.0069 26.0577 81.2682L25.9329 80.8714C24.9444 81.5585 24.8292 81.6263 23.6007 81.4521C23.6007 81.4521 23.7447 81.2585 23.5431 81.1811C23.2648 81.5005 22.9865 81.8198 22.1515 81.7908L22.1707 81.6553L20.8078 81.7811C20.9709 80.6102 18.0724 82.4004 17.8805 80.7553C17.4582 81.036 16.2297 80.4553 15.7114 80.0779C15.7114 80.0779 15.7594 79.9618 15.7306 79.8553C14.6653 79.7199 14.7996 78.0457 14.6173 77.5038C14.3485 77.1264 14.1854 77.3587 14.0414 77.6103C14.2718 76.6232 13.0529 75.3362 13.264 75.0071C13.2736 74.4265 13.7247 74.7652 13.9934 74.6007C13.8399 73.7878 12.8705 74.7555 13.3312 73.6717C13.3888 73.7878 13.4368 74.0104 13.5135 73.9233C13.5999 73.5169 15.0108 72.762 14.7133 72.3653L14.5021 72.6362C14.1566 71.9105 15.4619 70.875 14.6269 70.7686L14.243 70.8557C14.7324 69.5686 14.0702 70.3137 14.4925 69.0267H14.5597C14.4733 68.4848 14.9532 68.1654 14.3197 67.9041L14.243 68.0977C14.1758 67.4009 14.2238 67.3429 14.243 66.6364C14.1758 66.5494 14.0894 66.2203 14.2142 66.1139C13.6959 66.0849 13.9358 64.4785 13.9742 64.1591C14.0606 64.7107 14.2718 64.4494 14.4829 64.2849C14.051 63.9559 14.003 63.7236 14.3102 63.2688C13.6671 63.2204 12.9761 63.1333 12.9281 62.2237C13.0241 62.3689 13.0816 62.5817 13.216 62.4947C13.3504 62.3979 13.1968 62.1947 13.1488 62.1172C13.2832 62.0302 13.3888 62.3205 13.6095 62.214C12.9857 61.614 13.5519 61.1592 13.3216 60.2786C13.5231 60.5592 13.6383 60.3173 13.8591 60.2109C13.1296 60.1528 14.4925 59.0012 13.5423 59.3399C14.1086 57.6077 13.5711 54.9465 14.1854 54.2691C14.4541 54.0853 14.0318 53.6111 14.0126 53.3014L14.3389 53.3401C13.7631 52.4982 14.1278 52.6918 13.5423 51.6853C13.9166 52.1015 14.099 51.9273 14.3965 51.5208L13.7343 50.8338L14.2334 50.708C14.0414 50.4273 14.1182 50.108 14.2046 49.7983C13.6767 49.5177 13.7247 48.4725 13.4272 48.2887C14.099 47.9984 13.264 47.4661 13.8974 47.2532L13.6671 46.8758C13.3696 47.021 13.0433 47.0694 13.1872 46.7887V46.721L13.5711 46.6049C13.4847 46.3242 13.4464 46.0339 13.4368 45.8501C13.3984 45.9372 13.3312 46.0242 13.2352 46.1307L13.4368 45.792V45.6952L13.456 45.7533C13.5519 45.5888 13.5999 45.4146 13.4752 45.163C14.0894 44.1953 12.6977 42.9663 13.5327 41.9115C13.4464 42.076 13.408 42.2986 13.5423 42.3663C13.5231 41.4567 14.1086 40.576 13.8207 39.9954L13.456 40.0341C13.312 39.3664 13.2064 38.8535 13.2448 38.3116L12.8321 38.2729C12.9953 37.4987 12.3906 35.8149 13.2544 35.3601C12.9377 35.1569 13.3888 34.2859 13.2928 33.8408L13.6095 33.744C13.7247 33.1731 13.6287 32.8053 13.5423 32.4666C14.243 31.3247 13.6383 30.2119 13.7343 29.1958H13.8207L13.6383 28.1507C13.907 28.4313 13.4464 27.9378 13.5423 27.6281C13.408 27.2894 13.5135 26.7668 13.7343 26.3797L13.7823 25.7217C13.955 26.4668 14.243 25.6927 14.6077 25.6733L14.3293 25.2379C14.5117 25.0733 14.6077 25.5185 14.6941 25.2088C14.5117 24.9088 14.5693 24.0863 14.195 23.8056C14.099 23.8444 14.0126 23.9411 13.9358 24.0572L13.907 24.096L13.9262 24.0572L13.7823 23.9411C13.8879 23.4186 13.7343 23.6024 13.5711 23.6121C14.1662 23.0412 13.8015 22.6928 14.4925 22.2767C13.7055 22.8476 14.5597 20.9122 13.8207 21.2606C14.4157 20.8445 13.8687 20.9606 14.3677 20.6993C14.1758 21.3186 14.6749 21.9573 14.8956 22.4799L15.2699 22.0057C15.9034 22.3638 14.9628 23.0992 15.1739 23.3992C15.03 23.196 15.2123 22.7605 15.3563 22.7508L14.8572 22.8573C14.6269 23.554 14.982 24.1347 15.2027 24.6475C15.3947 24.183 15.4811 25.2379 15.8458 24.9088L15.8074 24.5314C15.9897 24.3669 16.1241 24.7346 16.2585 24.9475C15.8362 26.1088 16.0473 28.2668 15.6538 28.6732C15.7882 28.441 15.6922 27.9861 15.5578 27.7733L15.3275 28.3152C15.3275 27.87 15.7882 27.5313 15.6538 26.8636C15.3275 26.9604 14.9244 26.4572 14.4637 26.9507C13.907 28.199 15.2411 28.0249 15.0588 29.5538C15.1547 29.699 14.5597 29.2151 14.6941 30.0377C14.9724 31.0731 15.6538 31.8473 16.3353 31.8763C16.1529 31.4409 15.7882 30.5603 16.2873 30.4538C16.4696 30.8893 16.556 31.6344 16.8823 31.6828C16.2873 32.1086 16.7384 30.8699 16.2489 31.4312C16.2489 31.7312 16.4312 31.8667 16.5272 32.0118C16.2969 31.8086 16.1145 32.2634 15.9801 32.3505C15.9418 33.3279 15.673 33.8795 15.5962 34.9246C15.5962 34.9246 15.6634 34.8859 15.5962 34.944V34.9246C15.5099 34.9827 15.3275 35.0891 15.1835 35.0504C15.3179 35.5633 16.1529 36.3278 16.5176 36.1439C16.5176 36.7439 16.2489 36.7729 16.3928 37.2762C16.9303 36.473 16.2969 37.4407 16.8535 37.5471C16.9015 38.06 16.5848 37.7116 16.4504 37.9536C16.508 38.0503 16.6904 38.2535 16.8343 38.2729C16.412 38.5922 15.7594 37.6245 15.2699 37.9923C14.9532 38.2439 14.3773 39.3567 14.3293 39.4341C14.79 39.7051 16.7096 39.6664 17.343 39.318C17.6693 39.3664 16.9879 39.8019 16.9399 40.0244C16.4024 40.6728 17.3238 41.0405 17.1031 41.5921L16.8247 41.1663C16.6904 41.2534 16.8439 42.0663 17.0263 42.2018C16.8439 42.2211 16.1049 41.7663 15.8842 42.0083C15.769 43.005 16.748 43.9533 17.295 43.905L16.7672 42.3857C17.2182 42.3373 17.1991 43.4695 17.7461 43.4211L17.5638 44.8146C17.5638 44.6404 17.4294 44.0985 17.1799 44.3017C17.1895 44.9017 17.0935 44.6114 16.8727 45.0081C16.3161 44.3114 14.8572 43.0243 14.1662 42.5598L14.4637 43.2856L14.195 43.4598C14.5405 44.4082 16.2969 45.2888 16.7576 45.5404C16.6328 46.0823 15.6634 45.8791 15.4811 45.7436C15.4139 46.8081 16.8343 46.8178 16.6904 47.8822L16.9015 47.4758C16.9879 47.7274 16.7864 48.6467 16.9687 48.55C16.7096 48.7532 16.0953 48.9467 15.9322 48.7048L16.8343 49.6628C16.748 49.5177 15.961 49.6048 15.8266 49.537C15.7978 49.9241 16.7192 50.1951 16.8439 49.9531C16.2777 50.6983 16.5848 50.5144 15.9226 51.1144C15.9801 51.3273 16.748 51.095 16.8343 50.9402C17.0455 51.4337 16.9495 51.7241 16.8535 51.966C16.5176 51.1434 15.1164 51.7337 14.5213 51.5789L16.8343 53.3498C16.7 53.2917 15.961 53.1466 15.865 53.1563C16.556 53.3111 16.6328 55.3336 16.5464 56.3207V56.1755C16.2969 55.9723 16.1145 56.8239 16.3545 57.1723C16.2105 57.1142 16.2585 57.0368 16.2489 56.8819C15.7306 57.5497 17.295 57.7432 16.6904 58.4109C16.7576 57.8013 16.4792 57.6851 16.2009 57.7142C16.4504 58.2174 16.1913 59.3689 16.9975 59.127C16.8247 59.456 16.9303 59.7367 16.5176 59.7173L17.0167 60.9463C16.9303 60.8495 16.7 60.7818 16.6424 61.1399C16.7384 60.4431 15.9801 59.7851 16.508 59.4173C16.0089 59.4077 15.7402 59.6689 15.3179 59.3302C15.5674 60.6657 16.4312 61.3818 17.0167 62.2237L16.6712 63.4043L16.8919 63.4527L16.3161 63.6656C16.4504 63.8107 16.508 63.9365 16.508 63.9365C16.508 63.9365 16.3833 63.9269 16.2969 63.8688C16.3257 63.9946 16.3737 64.1107 16.4408 64.1591C16.1433 64.2075 15.7882 64.0043 15.4715 63.7914L15.3659 63.8978L15.1356 63.5688L15.4715 63.7914L15.7882 63.4624C15.4907 63.2398 15.1931 63.0753 15.0108 63.3946C15.0108 63.3946 15.0876 63.5011 15.1356 63.5591C14.9148 63.414 14.7324 63.3269 14.6557 63.4333L14.9436 64.3236C15.0204 64.2462 15.1835 64.072 15.3659 63.8881C15.7498 64.4494 16.2201 65.0784 16.604 64.5655L16.2681 65.2623C16.8535 66.0558 16.7384 65.9203 17.1799 66.8881C16.9783 66.9461 16.8055 66.6848 16.6616 66.8687C17.3238 67.5654 15.9418 68.6202 16.508 68.7654C16.6616 69.3364 17.0071 68.988 17.1799 69.3557C17.1799 69.3557 16.9879 69.3073 16.9783 69.4138L17.4006 69.8299C17.2662 70.0041 17.1031 69.4331 16.9399 69.9267C17.2758 70.7589 17.4966 71.2427 17.3142 71.9492C17.439 72.9362 18.13 71.504 18.0628 72.3363C17.7269 72.4621 17.3334 72.5879 17.295 73.1201C17.535 73.3911 17.8037 73.3427 17.9573 73.8072H17.439C17.4774 74.2233 17.583 74.533 17.1895 74.5523C17.4294 74.8717 17.4102 75.0845 17.343 75.2587C17.6789 75.7716 18.3412 74.7458 18.5523 74.6104C18.2068 75.191 18.4659 75.491 17.8997 75.8684L17.6981 75.4329C17.2183 76.5555 18.5619 76.1103 17.6214 76.8071C17.5638 76.5264 17.2087 76.1877 16.9783 76.4393L17.3622 76.8361C17.247 76.9425 17.1991 76.6135 17.1031 76.8651C17.247 76.9716 17.6022 77.1167 17.7941 77.1264L17.9477 77.078C17.9477 77.078 17.8997 77.1264 17.7941 77.1264H17.7653L18.1684 77.6006C18.1204 77.5038 17.9573 77.6006 18.0053 77.707L18.4468 77.7651C18.2836 77.7941 18.2548 77.9877 18.3604 78.1619C18.8019 78.5876 19.157 77.2716 19.3489 77.8909H19.2146L19.3777 78.1715C19.5217 77.1458 20.9805 78.2102 21.1341 77.0683C21.614 77.5038 21.1629 77.3393 20.6062 77.8619L21.0957 78.1715C20.8846 78.2199 20.731 78.1425 20.5199 78.2393C21.1437 78.7135 21.7963 78.0844 22.1803 77.7748C22.4682 77.9199 21.9979 78.6264 22.7945 78.3844C23.9078 78.0844 22.5354 77.5909 23.2072 77.4167L23.7255 77.949C24.5701 77.4554 25.2323 77.8038 25.9617 77.8328C26.1249 77.7748 26.2017 77.707 26.2401 77.6393C27.0271 77.8425 27.8333 76.9716 28.4283 77.1167C28.3036 77.2522 28.7835 77.4554 28.8602 77.6006L29.8968 77.1748C29.4361 77.349 29.4745 77.6877 29.4073 78.007C29.7336 77.9586 29.8776 77.7651 30.0983 77.707C29.9736 77.8232 29.8392 77.9586 30.0216 78.0941L31.1061 77.4748C31.0389 77.4264 30.9046 77.4167 30.799 77.407C31.0773 77.378 31.6628 77.1361 32.0755 77.378L31.8835 77.7651C31.538 77.4264 31.3556 77.7457 31.1925 78.007C31.9603 77.9006 31.394 78.0748 31.7683 78.2877C32.2962 78.2393 32.5074 77.7941 32.3442 77.5232C32.9585 77.6103 33.16 77.678 33.7551 77.3006L33.6591 77.7554L34.2254 77.5812L33.7935 78.1522C34.8972 78.3844 33.9566 77.3683 35.1851 77.5425L35.2139 77.9296C35.6746 77.7554 35.7994 77.078 36.1929 77.5232C36.6344 77.2522 35.3867 77.02 36.452 76.8748C36.6536 77.0684 37.0567 77.1845 37.3734 77.2522C37.6517 77.078 37.2582 76.8748 36.9991 76.8555C38.4291 76.6813 37.9876 78.1232 39.3601 77.5232C38.8514 77.2812 39.7344 76.7393 38.5635 76.8264C39.1106 76.5651 39.6864 77.32 40.2431 76.8555L39.888 77.3877C40.0991 77.3877 40.3295 77.1845 40.4351 77.1167L40.4063 77.5038C41.0877 76.778 41.7595 77.7361 42.1338 76.8264C41.8747 77.5425 42.6713 76.749 42.9688 77.0006C42.4026 77.5328 41.2796 77.0974 41.2317 77.7554C41.5196 77.9296 41.7403 77.6006 42.0283 77.7651C42.201 77.6683 42.297 77.6296 42.0763 77.7941L42.0283 77.7651C41.8459 77.8812 41.5868 78.0651 41.5196 78.2006C42.441 78.5102 42.9209 77.7167 43.4679 77.5135L42.5082 77.7264C42.5465 77.078 42.94 77.5812 43.1896 77.0683C43.6983 77.378 44.0534 76.8458 44.4565 77.0393C44.3509 77.0393 44.3413 77.1071 44.2357 77.1071C45.2915 77.02 45.637 78.0554 46.0689 78.0457C46.4912 78.0941 47.2494 77.6974 46.9519 77.4458C47.2878 77.2425 45.5602 77.7361 46.1169 76.8651C46.7695 77.7845 47.3454 76.42 48.6987 76.9909C48.1324 77.378 49.0634 77.5135 48.5547 77.8038C49.1785 77.678 49.1977 77.5425 49.4665 77.2425L49.668 77.5425C50.455 76.8071 49.8312 76.9232 51.0597 76.478C50.6566 76.749 51.578 76.8845 51.2708 77.1167C51.6164 77.1167 51.9523 77.0006 52.1922 76.7974L52.1442 76.8361C53.3919 76.6039 53.1904 77.1554 54.3229 76.7393L54.1981 76.5651C55.6762 75.9748 57.5861 76.1587 59.1313 75.8394L58.5747 75.7232C58.7474 75.8103 59.6112 75.3652 60.1007 75.6168C60.0047 75.6458 59.8416 75.7329 59.7552 75.7136C59.784 75.9168 59.9759 76.2071 60.3598 76.2361L60.4846 75.9071L60.6478 76.1393C61.214 76.1006 60.4558 75.7039 61.0317 75.6748C61.406 76.5458 63.4887 75.6265 64.0166 76.3813C64.3717 75.7039 62.932 76.3619 63.3351 75.7523C63.5079 75.8394 63.5943 75.9458 63.9686 75.9748L63.815 75.5974C65.5426 75.7039 66.224 75.9942 67.7501 75.8103L67.6925 75.8974C68.2491 76.0135 68.5371 75.9168 68.7578 75.5684C68.8826 75.7426 68.4891 75.8587 68.7098 76.0039C69.6216 74.9587 70.6582 76.6039 71.2148 75.8684C71.1764 76.6522 72.4625 77.3103 71.973 77.9586H71.9635ZM17.5062 75.7523C17.7173 75.6265 17.439 75.3942 17.343 75.2587C17.247 75.5103 17.0455 75.6748 17.5062 75.7523ZM16.0185 63.143C16.1721 62.9301 16.2201 62.7366 16.0953 62.6205C15.9993 62.814 15.9801 62.9882 16.0185 63.143ZM13.9934 26.8926L13.9742 26.8733C13.8879 27.1249 13.8207 27.2507 13.9934 26.8926ZM14.3773 49.8177C14.3293 49.808 14.291 49.779 14.243 49.7596C14.243 49.9048 14.291 49.8273 14.3773 49.8177ZM44.3509 80.1553L44.5045 80.2521C44.5909 80.136 44.6772 80.0199 44.3509 80.1553ZM36.8647 76.8555C36.9127 76.8555 36.9415 76.8555 36.9895 76.8555C36.9415 76.8555 36.8935 76.8555 36.8647 76.8555ZM16.652 64.0527L16.4408 64.1301C16.508 64.1881 16.5848 64.1881 16.652 64.0527ZM26.2593 77.5619L26.2209 77.6296H26.2401L26.2593 77.5619ZM17.0647 37.9439C17.0071 38.0987 16.9303 38.1761 16.8535 38.2342C16.9495 38.2439 17.0263 38.1761 17.0647 37.9439ZM13.7247 22.0638L13.8015 22.5573C13.8015 22.325 13.8879 22.238 13.955 22.1218C13.8687 22.1218 13.7247 22.2186 13.7343 22.0541L13.7247 22.0638ZM16.3737 17.9994C16.3353 17.9316 16.3737 17.8542 16.3353 17.7768H16.1625C16.1529 18.0962 16.2873 18.3187 16.3833 17.9994H16.3737ZM15.0492 21.696C15.3851 21.6767 15.2795 21.367 15.2411 21.0186V21.0767C14.79 20.9509 14.9148 21.3186 15.0492 21.696ZM15.2411 20.9412V20.6219C15.0684 20.5735 15.2027 20.7477 15.2411 20.9412ZM14.0318 25.1508C14.1182 24.9959 13.6095 25.025 13.7535 24.9379C13.3408 24.7443 14.2142 26.0411 14.0318 25.1508ZM16.1529 21.4735L15.7402 21.5702L16.0569 21.7735L16.1529 21.4638V21.4735ZM15.7114 24.1347L15.8554 23.5927C15.8554 23.5927 15.7498 23.5347 15.721 23.4476C15.6922 23.7863 15.5962 24.1443 15.721 24.1347H15.7114ZM15.673 23.0121C15.673 23.1089 15.673 23.3121 15.7114 23.4476C15.7306 23.2734 15.7306 23.1089 15.673 23.0121ZM16.1337 22.3831L16.0857 22.7702L16.2297 22.2283L16.1337 22.3831ZM15.3755 29.9699L15.4715 30.5699C15.6058 30.6377 15.7018 30.4732 15.6538 30.2603C15.5674 30.1151 15.5099 29.8925 15.3755 29.9796V29.9699ZM16.2393 28.4797L16.7384 28.5184L16.556 28.2281C16.46 28.3829 16.3833 28.3926 16.2393 28.4797ZM16.604 29.9603C16.748 30.0183 16.9687 30.8312 16.9687 30.0764C16.8343 30.0183 16.7384 29.4184 16.604 29.9603ZM15.673 38.8438V38.689H14.8476L15.673 38.8438ZM17.4774 46.721C17.6885 46.0242 16.9687 46.5468 17.2278 45.9178C17.0359 45.7533 17.0167 46.4307 16.8535 46.2662C17.0551 46.6823 16.9303 46.9145 17.4774 46.721ZM16.8535 46.2662C16.8535 46.2662 16.7768 46.1404 16.7384 46.0436C16.7864 46.1694 16.8535 46.2662 16.8535 46.2662ZM71.7907 78.8683L72.2418 79.0038L71.9347 78.7522L71.7907 78.8683ZM72.6161 78.1909L72.7505 78.7135L73 78.2199C72.904 78.2586 72.7025 78.307 72.6161 78.2006V78.1909ZM18.3508 74.0878L18.226 74.0588C18.0916 74.1265 18.082 74.2233 18.0724 74.4168L18.3508 74.0878ZM18.8978 77.4264L18.7251 77.8812L18.917 77.4458L18.8978 77.4167V77.4264ZM22.5546 77.0683C22.3722 77.0877 22.0843 77.1458 21.9019 77.1748C22.353 77.0587 22.6409 77.6587 22.5546 77.0683ZM1.04615 42.1534C1.07494 42.0179 0.671838 42.047 0.671838 42.047C0.74862 42.2695 1.13253 42.1437 1.04615 42.1534ZM1.84276 44.3888L1.70839 44.3501L2.04431 44.6791L1.84276 44.3888ZM1.85235 46.4887C2.42821 46.2855 1.75638 45.7339 1.95793 45.3565L2.0923 45.2888L1.62201 45.1243C1.69879 45.5791 2.01551 46.1694 1.85235 46.4887ZM0.681436 47.3694L0.62385 47.4177C0.62385 47.4177 0.62385 47.4274 0.614252 47.6306C0.834999 47.5629 0.806206 47.8629 0.681436 47.3694ZM0.62385 47.4177C0.604654 47.1952 0.431896 47.5629 0.62385 47.4177ZM0.767815 48.4338L0.566263 48.1435C0.431896 48.2016 0.403103 48.4725 0.307126 48.3661C0.422298 48.6661 0.556666 48.5983 0.767815 48.4338ZM1.10373 48.55C1.10373 48.55 1.02695 48.6177 1.19011 48.7048L1.10373 48.55ZM0.921378 48.2403L1.10373 48.55C1.19971 48.5113 1.38207 48.5016 1.03655 48.4048C1.20931 48.4338 1.04615 48.3661 0.921378 48.2306V48.2403ZM1.00776 48.0564C1.13253 47.8919 1.20931 47.679 1.41086 47.9693C1.32448 47.4081 0.921378 47.5048 1.00776 48.0564ZM2.44741 46.5952L2.61057 46.3823L2.40902 46.1888C2.51459 46.2855 2.25546 46.6049 2.43781 46.5952H2.44741ZM0.489482 50.2531C0.604654 50.2725 0.815803 50.1564 0.969366 50.1273L0.825401 49.9144C0.739022 50.0306 0.671838 50.2338 0.489482 50.2531ZM1.19011 50.4467C1.20931 50.166 1.10373 50.108 0.969366 50.1273L1.19011 50.4467ZM1.84276 48.7435L1.39166 48.2209L1.85235 48.8403V48.7435H1.84276ZM0.489482 51.4724L0.211149 51.2983L0.643045 51.6176L0.489482 51.4724ZM0.547068 52.2853C0.307126 52.1498 0.153563 52.4789 0 52.3337C0.0479884 52.5563 0.24954 52.7401 0.431896 52.9143C0.335919 52.7305 0.355114 52.5369 0.547068 52.2853ZM0.431896 52.9143C0.489482 53.0111 0.566264 53.1079 0.700631 53.195C0.643045 53.0982 0.547068 53.0111 0.431896 52.9143ZM1.13253 50.9886C1.05575 51.0079 0.863792 51.066 0.78701 51.2402L1.13253 51.1047V50.9789V50.9886ZM1.13253 51.1047C1.12293 51.2305 1.11333 51.3853 1.11333 51.3853C1.11333 51.3853 1.12293 51.2692 1.14212 51.1047H1.13253ZM1.52603 49.5854C1.72758 49.779 1.92913 50.1564 2.22666 49.779C1.98672 49.6435 1.82356 49.866 1.52603 49.5854ZM1.55483 50.7854L1.63161 50.4467C1.54523 50.4467 1.40126 50.5144 1.30529 50.4273L1.55483 50.7951V50.7854ZM1.52603 50.9112L1.67 50.9499L1.55483 50.7854L1.52603 50.9112ZM1.29569 52.4885C1.19011 52.4692 0.988562 52.3821 1.00776 52.5853C1.16132 52.7305 1.18052 52.895 1.19971 53.0788C1.26689 52.8853 1.30529 52.6821 1.29569 52.4885ZM1.21891 54.8401V54.8788L1.28609 54.8401H1.21891ZM1.29569 52.4885L1.36287 52.4498C1.42046 52.3047 1.33408 52.2176 1.2285 52.1402L1.29569 52.4885ZM0.854194 53.6788L1.03655 53.4175C0.930976 53.495 0.758217 53.6498 0.854194 53.6788ZM1.01735 51.9466V51.9273C0.930976 51.9757 1.01735 51.9466 1.01735 51.9466L1.2285 52.1402L1.11333 51.8982L1.01735 51.9466ZM3.43597 55.4013C3.10965 55.382 2.81212 54.9949 3.15764 54.6659C2.9081 54.3369 1.86195 54.5691 1.27649 54.8594C1.41086 54.8691 1.53563 54.8691 1.73718 55.1981C1.90994 55.082 2.14028 54.4433 2.42821 54.7336C2.60097 55.1788 2.32264 55.1014 2.14988 55.3142C2.55298 55.1207 2.73534 55.8755 3.3208 55.7787L3.10965 55.382C3.20563 55.382 3.34959 55.5175 3.43597 55.4013ZM1.2573 54.1627L1.30529 54.2111L1.26689 54.0659C1.21891 54.2304 1.09414 54.3369 0.834999 54.5498C0.988562 54.782 1.11333 54.8304 1.21891 54.8401L1.2573 54.1627ZM1.68919 53.1466C1.84276 53.3788 2.11149 53.2627 2.14028 53.6788C1.76597 53.882 1.61241 53.553 1.26689 53.4369C1.30529 53.7466 1.31488 53.9207 1.26689 54.0659L1.06534 53.4079H1.04615C1.11333 53.2821 1.16132 53.1756 1.19971 53.0788C1.20931 53.195 1.2285 53.3014 1.29569 53.4369C1.48764 52.953 1.77557 53.8046 1.68919 53.1466ZM1.2573 53.4369L1.12293 53.4175H1.11333H1.07494H1.12293C1.16132 53.4853 1.19011 53.6401 1.2573 53.4466V53.4369ZM2.97528 50.1177L2.8889 50.1467C2.8889 50.1467 2.96569 50.1951 2.97528 50.1177ZM2.4762 50.1177L2.52419 50.1564C2.40902 50.4273 1.92913 50.7273 1.92913 50.7273C2.24586 50.6402 2.46661 50.5822 2.77373 50.3983C2.77373 50.3983 2.58178 50.3112 2.62017 50.1564C2.72574 50.0209 2.78333 50.1564 2.8985 50.1564C2.81212 50.0596 2.64896 49.8273 2.4762 50.1273V50.1177ZM2.10189 51.9369L2.27465 52.4789L2.57218 52.1982H2.38982C2.45701 51.8982 2.23626 51.966 2.0923 51.9273L2.10189 51.9369ZM1.04615 54.9465L0.671838 54.8788L1.19971 55.1884L1.04615 54.9465ZM1.09414 55.6626L0.777413 55.6433L0.969366 55.8368L1.09414 55.6723V55.6626ZM7.30384 90.026V90.1905C7.31344 90.0937 7.30384 90.026 7.30384 90.026ZM3.62793 85.1681L3.7239 85.0907L3.37839 84.9552L3.62793 85.1681ZM5.08677 85.2165L4.88522 85.5261C4.962 85.4584 5.02919 85.3519 5.08677 85.2165ZM1.30529 62.9688C1.17092 63.172 1.11333 63.3462 1.09414 63.4817C1.29569 63.2398 1.59322 63.0366 1.30529 62.9688ZM8.43637 93.442C8.34999 93.5291 8.302 93.6065 8.34039 93.6839C8.42677 93.5968 8.44596 93.5194 8.43637 93.442ZM1.10373 64.072L1.18052 63.9559C1.12293 63.8107 1.06534 63.6559 1.08454 63.472C0.940573 63.6559 0.854194 63.8591 1.09414 64.0623L1.10373 64.072ZM44.3701 93.7613C44.1782 93.771 44.1014 93.7807 44.1014 93.7807C44.1014 93.7807 44.2357 93.8097 44.3701 93.7613ZM2.37063 57.8013C2.37063 57.8013 2.45701 57.8496 2.53379 57.8496C2.45701 57.84 2.37063 57.8013 2.37063 57.8013ZM0.988562 58.3529L1.01735 58.2174C1.01735 58.2174 0.921378 58.2174 0.988562 58.3529ZM1.04615 58.5174L0.998159 58.5561C0.998159 58.5561 1.00776 58.6819 1.01735 58.769L1.04615 58.5174ZM25.4915 90.4808L25.5202 90.5098C25.6834 90.3743 25.6162 90.3937 25.4915 90.4808ZM5.01959 77.1167L5.00039 77.0974V77.1167L3.97344 77.3103L5.27873 77.6587C4.83723 77.4264 4.89482 77.2909 4.9812 77.1167H5.00999H5.01959ZM7.64936 90.1131L7.73574 90.084C7.73574 90.084 7.66855 90.0937 7.64936 90.1131ZM45.6658 93.3839L45.9345 93.3065C45.829 93.8194 45.0995 93.2872 44.9268 93.8194L44.0918 93.2484C44.1206 93.442 43.967 93.7323 44.1014 93.8C43.8902 93.8 43.7079 93.8194 43.9766 94.1097C41.9995 92.7259 39.8976 93.9162 37.9397 93.1517C37.7957 93.1904 37.8725 93.3743 37.9205 93.5001C37.5653 92.9872 37.5653 93.7517 37.3638 93.8097L36.8455 93.0743C36.6248 93.2775 36.7879 93.5097 36.7687 93.6452C35.7514 93.7517 34.7916 93.0162 33.9566 93.413C33.7071 93.1517 34.043 92.842 33.6975 92.7356C34.139 93.4904 32.6801 93.0549 32.9681 93.5871C32.6513 92.7839 31.73 93.3839 31.9123 92.2807C31.4996 92.2033 31.5668 92.7356 31.6724 92.842C31.1925 92.7743 30.8086 92.7646 30.4055 93.0839C30.1463 92.8227 28.2076 93.2775 27.8141 92.4452C28.0924 92.9872 27.7853 92.7162 27.4974 92.9388L27.7373 93.4226L27.1039 93.3549C26.9695 93.3936 26.9407 93.3259 26.9407 93.3259C26.8351 93.3065 26.9791 93.0549 26.7104 92.9291C26.2785 92.8904 26.2497 93.142 26.0097 93.3839L26.0673 93.4517L25.7794 93.4904C25.5586 93.471 26.5472 93.0452 25.8562 92.7839C25.837 92.9194 25.4147 93.5291 25.2323 93.171C25.5874 93.2097 25.5586 92.8807 25.4243 92.7356L24.9252 92.6872L25.0788 93.2872C23.6487 93.2097 22.1707 92.7162 20.6446 92.7162C20.6734 92.184 19.5697 92.6581 19.7232 91.8937L19.7808 91.9614C20.1647 91.9033 19.6849 91.3614 19.3777 91.4388C19.6945 91.6904 18.7827 92.1936 19.5601 92.3291L18.9458 92.6775C18.5811 94.1387 17.3622 92.5227 16.46 92.9872C16.5272 92.9388 16.5464 92.813 16.5464 92.813C15.7498 93.2775 14.7612 92.4259 14.5789 92.6678L14.4925 92.2614C13.8303 92.9097 13.7631 92.9581 12.9473 92.7452C12.9473 92.7452 13.0433 92.5517 12.9089 92.4743C12.7265 92.7839 12.5538 93.0936 12.0067 93.0452L12.0259 92.9194L11.1813 93.0549C11.0565 91.8066 9.81843 93.9646 9.40573 92.6678C9.29056 93.0549 8.68591 93.2581 8.45556 93.471C8.45556 93.471 8.41717 93.3742 8.35959 93.3259C8.23482 94.0226 6.96792 93.3742 6.57442 93.5581C6.20011 93.8097 6.28648 94.0129 6.43045 94.1968C5.97936 93.9162 5.10597 94.6032 4.37655 95C4.18459 94.971 4.07902 94.8258 4.06942 94.6903C3.81988 94.1097 4.26137 94.0129 4.35735 93.6065C3.92545 93.0259 3.70471 94.7871 3.50316 93.3259C3.59913 93.4033 3.7431 93.5775 3.7527 93.4323C3.58953 92.9001 4.40534 91.2937 4.08861 91.2163L3.99264 91.5646C3.41678 91.0808 4.41494 89.7744 3.60873 89.9873L3.25362 90.1615C3.50316 89.097 2.98488 89.8034 3.21522 88.797H3.28241C3.11925 88.4196 3.57034 88.1196 2.9177 88.0422L2.86011 88.1873C2.71615 87.7035 2.77373 87.6551 2.72574 87.1519C2.65856 87.1035 2.53379 86.8809 2.65856 86.7938C2.13069 86.8325 2.29385 85.6519 2.31304 85.439C2.40902 85.8261 2.62017 85.6326 2.83132 85.4971C2.38982 85.3036 2.33224 85.139 2.62017 84.8003C1.97712 84.8003 1.28609 84.7713 1.21891 84.1326C1.32448 84.2294 1.38207 84.3842 1.51643 84.3068C1.6508 84.2294 1.44925 84.0455 1.44925 84.0455C1.58362 83.9778 1.68919 84.1713 1.90994 84.0939C1.27649 83.6875 1.84276 83.3585 1.60281 82.7585C1.80437 82.952 1.92913 82.7875 2.14988 82.7101C1.42046 82.6811 2.77373 81.8779 1.83316 82.1101C2.38023 80.9295 1.83316 79.1393 2.44741 78.6747C2.71615 78.5489 2.27465 78.2199 2.26505 78.0167L2.59138 78.0457C2.00592 77.4748 2.37063 77.6006 1.77557 76.9329C2.15948 77.2135 2.33224 77.0877 2.62977 76.8071L1.95793 76.3522L2.45701 76.2555C2.25546 76.0619 2.34184 75.849 2.40902 75.6361C2.40902 75.7426 2.45701 75.6845 2.55298 75.6748C1.86195 75.5781 1.93873 74.7555 1.60281 74.6394C2.27465 74.4265 1.43006 74.0878 2.05391 73.933L1.81396 73.6814C1.52603 73.7781 1.19011 73.8265 1.33408 73.633V73.5943L0.969366 73.6717C0.604654 73.7007 1.07494 73.4394 1.37247 73.1878C1.29569 73.2943 1.26689 73.4298 1.32448 73.5943L1.71799 73.5169C1.62201 73.3233 1.57402 73.1395 1.56442 73.004C1.56442 73.004 1.45885 73.1298 1.37247 73.1975L1.56442 72.9653V72.8975L1.58362 72.9362C1.67 72.8201 1.71799 72.704 1.58362 72.5395C2.17867 71.8718 0.74862 71.0686 1.56442 70.3331C1.47804 70.4492 1.44925 70.6041 1.58362 70.6428C1.54523 70.0234 2.0923 69.4138 1.79477 69.0364L1.43006 69.0654C1.2573 68.6203 1.14212 68.2816 1.16132 67.9138H0.758217C0.902183 67.3719 0.230344 66.259 1.07494 65.9203C0.74862 65.7945 1.16132 65.1946 1.04615 64.9042L1.36287 64.8268C1.45885 64.4301 1.35327 64.1978 1.2573 63.9656C1.90034 63.1624 1.2477 62.4463 1.28609 61.7592H1.38207L1.15172 61.0528C1.43006 61.227 0.950171 60.9173 1.02695 60.7044C0.87339 60.4818 0.950171 60.1238 1.15172 59.8528V59.398C1.38207 59.8915 1.61241 59.3593 1.97712 59.3302L1.6796 59.0496C1.85235 58.9335 1.95793 59.2335 2.04431 59.0206C1.84276 58.827 1.85235 58.2658 1.47804 58.0916C1.38207 58.1206 1.30529 58.1883 1.2285 58.2754H1.21891L1.07494 58.2077C1.15172 57.8496 0.998159 57.9755 0.834999 57.9948C1.40126 57.5884 1.01735 57.3658 1.6796 57.0561C0.930976 57.4722 1.6604 56.1271 0.950171 56.3981C1.51643 56.0981 0.969366 56.1949 1.45885 55.9916C1.30529 56.4174 1.84276 56.8336 2.0923 57.1723L2.42821 56.8336C3.08086 57.0368 2.19787 57.5787 2.41862 57.7819C2.26505 57.6464 2.41862 57.3464 2.56258 57.3271L2.0635 57.4239C1.87155 57.898 2.26505 58.2754 2.51459 58.6141C2.67775 58.2948 2.82172 59.0012 3.16724 58.7593L3.10005 58.5077C3.27281 58.3916 3.42637 58.6335 3.57994 58.7787C3.22482 59.5818 3.55114 61.0334 3.16724 61.3237C3.29201 61.1592 3.17683 60.8592 3.03287 60.7237L2.83132 61.0915C2.81212 60.7915 3.25362 60.5496 3.08086 60.0947C2.76413 60.1721 2.33224 59.8528 1.90034 60.2012C1.42046 61.0624 2.72574 60.8979 2.62017 61.9334C2.71615 62.0302 2.10189 61.7302 2.27465 62.2721C2.60097 62.9688 3.3208 63.4624 4.00224 63.4527C3.79109 63.1624 3.38798 62.5817 3.88706 62.485C4.08861 62.7753 4.21338 63.2785 4.53971 63.2979C3.97344 63.5978 4.36695 62.7463 3.88706 63.143C3.90626 63.3462 4.08861 63.4333 4.19419 63.5301C3.95425 63.3946 3.79109 63.7236 3.66632 63.7817C3.66632 64.4398 3.41678 64.8268 3.37839 65.5333C3.3016 65.572 3.10965 65.6494 2.97528 65.63C3.13844 65.9784 3.99264 66.4623 4.34775 66.3268C4.37655 66.7332 4.10781 66.7526 4.26137 67.1009C4.77005 66.5397 4.18459 67.2074 4.73166 67.2558C4.79884 67.6138 4.46292 67.3913 4.33815 67.5558C4.39574 67.6042 4.5781 67.7493 4.73166 67.759C4.31896 67.9816 3.63752 67.3526 3.15764 67.6138C2.85051 67.788 2.26505 68.6106 2.26505 68.6106C2.72574 68.7751 4.65488 68.7073 5.26913 68.4461C5.59545 68.4654 4.92361 68.7944 4.89482 68.9396C4.37654 69.3847 5.30752 69.617 5.10597 69.9944L4.81804 69.7138C4.68367 69.7815 4.85643 70.3234 5.05798 70.4105C4.87562 70.4202 4.11741 70.1299 3.90626 70.3041C3.81988 70.9815 4.82764 71.6008 5.3747 71.5621L4.79884 70.5363C5.24993 70.4976 5.25953 71.2621 5.8066 71.2137L5.65304 72.1621C5.63384 72.0363 5.49947 71.6685 5.25953 71.8234C5.28833 72.2298 5.18275 72.0363 4.9812 72.3072C4.39574 71.8427 2.9177 71.0008 2.20747 70.7105L2.51459 71.1944L2.24586 71.3202C2.61057 71.9588 4.38614 72.5104 4.86603 72.6749C4.75085 73.0524 3.78149 72.9266 3.59913 72.8395C3.55114 73.5556 4.9716 73.5362 4.84683 74.262L5.05798 73.9814C5.14436 74.1555 4.962 74.7846 5.13476 74.7071C4.87562 74.8523 4.27097 74.9974 4.10781 74.8426L5.01959 75.4716C4.92361 75.3749 4.1462 75.4523 4.01183 75.4039C3.98304 75.6652 4.91402 75.8394 5.03879 75.6748C4.48212 76.1877 4.78925 76.0523 4.1366 76.478C4.19419 76.6232 4.962 76.4587 5.04838 76.3426C5.25953 76.6813 5.16356 76.8845 5.07718 77.0393C4.73166 76.4877 3.3304 76.9135 2.74494 76.8071L5.07718 77.9877C4.93321 77.9683 4.19419 77.8812 4.10781 77.8715C4.79884 77.9683 4.90442 79.3425 4.80844 80.0102V79.9134C4.5589 79.7779 4.37655 80.3586 4.62609 80.5908C4.49172 80.5521 4.53011 80.5037 4.52051 80.3973C4.01183 80.8424 5.57626 80.9682 4.9716 81.4327C5.03879 81.0263 4.76045 80.9392 4.48212 80.9682C4.73166 81.3069 4.47252 82.0908 5.27873 81.9166C5.11557 82.1391 5.22114 82.323 4.80844 82.3133L5.31712 83.1262C5.23074 83.0681 4.9908 83.0198 4.94281 83.2617C5.03879 82.7972 4.27097 82.3714 4.79884 82.1101C4.29976 82.1101 4.03103 82.2843 3.60873 82.0714C3.85827 82.981 4.73166 83.4455 5.33631 83.9681L5.00999 84.752L5.24034 84.7713L4.67407 84.9455C4.81804 85.0326 4.88522 85.11 4.88522 85.11C4.88522 85.11 4.75085 85.11 4.66448 85.081C4.69327 85.1584 4.75085 85.2261 4.81804 85.2648L5.02919 85.1971C4.962 85.2939 4.89482 85.2939 4.81804 85.2648C4.51091 85.3132 4.1558 85.2068 3.83907 85.081L4.1462 84.8487C3.84867 84.7133 3.54155 84.6165 3.35919 84.8487L3.49356 84.9455C3.27281 84.8584 3.09046 84.81 3.00408 84.8874L3.3304 85.4874C3.40718 85.4294 3.56074 85.3036 3.7431 85.1584C4.1462 85.5165 4.64528 85.8842 5.00039 85.5165L4.70287 86.0003C5.32672 86.4551 5.20195 86.3777 5.70103 86.9293C5.50907 86.997 5.31712 86.8616 5.18275 86.9874C5.88338 87.3164 4.62608 88.2164 5.20195 88.2067C5.42269 88.526 5.72022 88.2454 5.93137 88.4293L5.73942 88.5163L6.20011 88.6712C6.08493 88.8163 5.85459 88.5067 5.75861 88.8454C6.2193 89.3583 6.40166 89.2034 6.29608 89.5131C6.45924 89.6582 6.97752 88.9712 6.95832 89.1454C6.67999 89.3679 6.35367 89.6679 6.37286 89.8421C6.57442 89.6969 6.79516 89.5228 6.91993 89.426L6.54562 89.9002C6.61281 89.9873 6.71838 89.9486 6.46884 90.384C6.6224 90.2679 6.67039 90.326 6.67039 90.326V90.3647C6.87194 90.1615 6.94872 89.8131 7.07349 89.4937C7.18867 89.2421 7.29424 89.0292 7.33263 88.9228C7.27505 89.0583 7.22706 89.1744 7.22706 89.1744C7.19827 89.3002 7.19827 89.3099 7.08309 89.7937L6.91033 89.9776C7.01591 90.5969 7.30384 89.1357 7.24625 90.2679C7.14068 90.2485 6.91033 90.5872 6.91993 90.8679L7.19826 90.5389C7.20786 90.6743 7.0543 90.6647 7.14068 90.8098C7.22706 90.6743 7.37102 90.3743 7.40941 90.1905V90.2195L7.74533 90.084C7.68775 90.1421 7.71654 90.2485 7.83171 90.2389L8.2924 89.8905C8.2924 89.8905 8.36918 89.8034 8.44596 89.7744L8.2924 89.8905C8.15803 90.0357 8.34039 90.1711 8.58033 90.2195C9.25217 90.2776 8.94504 88.9712 9.52091 89.4453C9.44412 89.4453 9.44412 89.5131 9.35774 89.5131L9.65527 89.7066C9.57849 88.5938 11.1813 89.4357 11.1429 88.3228C11.5556 88.7389 11.1813 88.5841 10.7494 89.155L11.1717 89.4357C11.0181 89.4841 10.8742 89.4163 10.711 89.5421C11.2677 89.9486 11.6996 89.3389 11.9683 89.0292C12.1795 89.1744 11.8627 89.8615 12.4098 89.6486C13.1872 89.3873 12.2179 88.8454 12.6881 88.6905L13.0625 89.2518C13.6575 88.7873 14.1278 89.1647 14.6365 89.2325C14.7516 89.1744 14.838 89.0583 14.838 89.0583C15.3851 89.2905 15.9706 88.4873 16.3833 88.6712C16.2873 88.7873 16.6136 89.0389 16.6616 89.1841L17.391 88.826C17.0647 88.9712 17.0839 89.3099 17.0167 89.6292C17.247 89.5905 17.3526 89.4163 17.5062 89.3776C17.4102 89.4937 17.3142 89.6099 17.4294 89.7647L18.1972 89.2228C18.1588 89.1647 18.0724 89.1454 17.9957 89.1357C18.1876 89.1357 18.6003 88.9325 18.8691 89.2034L18.7155 89.5711C18.5043 89.2131 18.3604 89.5131 18.2356 89.755C18.7635 89.7163 18.37 89.8421 18.6099 90.084C18.9842 90.084 19.1378 89.6486 19.0514 89.3679C19.4641 89.5034 19.5985 89.5905 20.0304 89.2712L19.944 89.7163L20.3375 89.5905L20.0016 90.1324C20.7406 90.4614 20.1647 89.3679 20.9805 89.6389V90.026C21.2973 89.8808 21.422 89.2228 21.6524 89.7066C21.9691 89.4841 21.1437 89.1357 21.8731 89.0873C21.9979 89.2905 22.2666 89.4453 22.4682 89.5421C22.6697 89.397 22.4202 89.1647 22.2378 89.1163C23.2072 89.0776 22.8233 90.4614 23.7831 89.9969C23.4567 89.697 24.0806 89.2421 23.284 89.2228C23.6679 89.0002 24.0134 89.8228 24.4165 89.4066L24.1478 89.9002C24.2917 89.9195 24.4549 89.7453 24.5317 89.6776L24.4837 90.0647C24.9924 89.397 25.3763 90.4131 25.693 89.5324C25.4723 90.2292 26.0577 89.5034 26.2497 89.784C25.837 90.2582 25.098 89.7357 25.0308 90.3743C25.2131 90.5776 25.3859 90.2679 25.5682 90.4614C25.4339 90.5485 25.2515 90.7131 25.1939 90.8389C25.7986 91.2259 26.1729 90.4905 26.5472 90.326L25.885 90.4518C25.9521 89.8034 26.1825 90.355 26.384 89.8518C26.7008 90.2098 26.9791 89.726 27.2382 89.9486C27.1615 89.9486 27.1615 89.9969 27.0847 89.9969C27.8045 89.9969 27.9773 91.0711 28.2652 91.1001C28.5435 91.1872 29.081 90.8582 28.8986 90.5776C29.129 90.4034 27.9389 90.7324 28.3708 89.9195C28.7547 90.8969 29.225 89.5808 30.0983 90.2776C29.6952 90.6066 30.3095 90.8389 29.9544 91.0808C30.3863 91.013 30.4055 90.8679 30.607 90.6066L30.7318 90.9163C31.3077 90.2485 30.8758 90.3163 31.73 89.9873C31.442 90.2098 32.0563 90.4324 31.8355 90.6453C32.0755 90.6743 32.3058 90.5969 32.4786 90.4131L32.4402 90.4518C33.304 90.326 33.1312 90.8582 33.9182 90.5485L33.8414 90.3647C34.8684 89.9098 36.1545 90.2776 37.2102 90.084L36.8455 89.9195C36.9511 90.0066 37.5653 89.6486 37.8821 89.9486L37.6325 90.0163C37.6325 90.2195 37.7573 90.5292 38.0068 90.5872L38.1124 90.2776L38.2084 90.5195C38.5923 90.5389 38.1028 90.0744 38.4867 90.084C38.6883 90.9937 40.1471 90.2582 40.4638 91.0614C40.7422 90.4324 39.7344 90.9453 40.0415 90.3647C40.1567 90.4614 40.2047 90.5872 40.4543 90.6453L40.3775 90.2582C41.5388 90.5195 41.9707 90.8679 43.0168 90.8195L42.9688 90.9066C43.3336 91.0614 43.5351 91.0034 43.7175 90.6743C43.7942 90.8582 43.5159 90.9453 43.6599 91.1098C44.3413 90.1421 44.9364 91.884 45.3587 91.2066C45.2819 91.9807 46.1169 92.7646 45.7426 93.3549L45.6658 93.3839ZM4.27097 84.6649C4.41494 84.5197 4.47252 84.3939 4.33815 84.3165C4.24218 84.452 4.23258 84.5681 4.27097 84.6649ZM1.33408 60.2205H1.31488C1.2381 60.3754 1.18052 60.4625 1.33408 60.2205ZM6.59361 90.3937C6.59361 90.5195 6.57442 90.7518 6.80476 90.2292C6.87194 89.9776 6.68959 90.2776 6.59361 90.3937ZM26.9119 93.0839L27.0079 93.1904C27.0655 93.0743 27.1423 92.9775 26.9119 93.0839ZM22.0651 89.1163C22.0651 89.1163 22.1227 89.1163 22.1515 89.1163C22.1227 89.1163 22.0843 89.1066 22.0651 89.1163ZM14.742 89.0776V89.0099H14.7516L14.9436 88.6421C14.6461 88.6518 14.7804 88.826 14.7516 89.0099L14.7229 89.0776H14.742ZM4.88522 67.5945C4.82764 67.7009 4.76045 67.759 4.68367 67.7977C4.77965 67.7977 4.85643 67.759 4.88522 67.5945ZM0.892585 57.3077C0.873389 57.1432 0.959769 57.0852 1.01735 57.0077C0.930976 57.0174 0.796608 57.0755 0.78701 56.9787L0.892585 57.3077ZM3.17683 54.1046L3.11925 53.9595H2.93689C2.94649 54.182 3.10005 54.3175 3.17683 54.1046ZM2.0827 56.6594C2.40902 56.6303 2.29385 56.4271 2.22666 56.1949V56.2336C1.76597 56.1658 1.91954 56.4174 2.0827 56.6497V56.6594ZM2.22666 56.1465L2.20747 55.9336C2.02511 55.9142 2.16908 56.0207 2.22666 56.1465ZM1.2573 59.0399C1.34368 58.9335 0.834999 58.9819 0.969366 58.9141C0.547068 58.798 1.48764 59.6399 1.2573 59.0399ZM3.16724 56.4658L2.76413 56.5529L3.09046 56.6787L3.16724 56.4658ZM2.8889 58.2851L2.99448 57.9077L2.85051 57.8109C2.84092 58.0335 2.76413 58.2851 2.87931 58.2754L2.8889 58.2851ZM2.78333 57.5303C2.78333 57.5303 2.80252 57.7238 2.85051 57.8206C2.85051 57.7045 2.85051 57.5884 2.78333 57.5303ZM3.29201 56.9787L3.20563 57.0852L3.18643 57.3464L3.29201 56.9787ZM2.85051 62.243L2.96569 62.6398C3.10965 62.6785 3.18643 62.5721 3.12885 62.4269C3.03287 62.3301 2.97528 62.185 2.85051 62.243ZM3.94465 61.0141C3.85827 61.1302 3.77189 61.1302 3.63752 61.1882H4.1366L3.94465 61.0141ZM4.44373 62.2527C4.30936 62.214 4.18459 61.8173 4.07902 62.185C4.21338 62.2237 4.48212 62.7656 4.44373 62.2527ZM3.50316 68.2235V68.1267L2.66816 68.1461L3.50316 68.2235ZM5.25953 72.9943C5.06758 72.8878 5.06758 73.3427 4.89482 73.2362C5.10597 73.5169 4.9908 73.6717 5.52827 73.5362C5.72022 73.0524 5.01959 73.4201 5.25953 72.9943ZM4.89482 73.2362C4.89482 73.2362 4.81804 73.1491 4.77005 73.0911C4.81804 73.1782 4.89482 73.2362 4.89482 73.2362ZM45.4738 94.2645L45.7714 94.4581L45.5794 94.1678L45.4642 94.2645H45.4738ZM46.0785 93.6742L46.1265 94.1968L46.328 93.7226C46.2608 93.7517 46.1265 93.7904 46.0785 93.6742ZM7.00631 89.2615C6.91033 89.4066 6.91033 89.4647 6.91033 89.4647L7.08309 89.1357L6.99671 89.2518L7.00631 89.2615ZM8.51315 89.3486H8.43637L8.64752 89.7937L8.51315 89.3486ZM12.1123 88.3615C11.9971 88.3518 11.8723 88.4196 11.7572 88.4486C12.0163 88.4776 12.1795 88.8841 12.1123 88.3615ZM11.642 88.4583C11.642 88.4583 11.7188 88.4583 11.7572 88.4486C11.7188 88.4486 11.6804 88.4486 11.642 88.4583Z" fill="white"/>
</svg>
