<?xml version="1.0" encoding="utf-8"?>
<!-- Generator: Adobe Illustrator 27.8.1, SVG Export Plug-In . SVG Version: 6.00 Build 0)  -->
<svg version="1.1" id="Layer_1" xmlns="http://www.w3.org/2000/svg" xmlns:xlink="http://www.w3.org/1999/xlink" x="0px" y="0px"
	 viewBox="0 0 76.3 87.6" style="enable-background:new 0 0 76.3 87.6;" xml:space="preserve">
<style type="text/css">
	.st0{fill:#FFFFFF;}
</style>
<path id="CornerTopRight_00000127738344600364341150000006708551839394292358_" class="st0" d="M76.2,11.4c0,0.1-0.2-0.3,0.1-0.4
	C76.3,11,76.4,11.4,76.2,11.4z M73,12.3l0-0.1l-0.5,0.4L73,12.3z M69.9,12.4c0.3,0.6,1.1-0.1,1.7,0.1l0.1,0.1l0.2-0.5
	C71.3,12.2,70.4,12.6,69.9,12.4z M68.2,11.2c0.1,0.2-0.3,0.2,0.4,0.1l-0.1-0.1C68.5,11.2,68.5,11.2,68.2,11.2z M68.5,11.2
	C68.8,11.1,68.3,11,68.5,11.2L68.5,11.2z M67.1,10.9c-0.4,0.1-0.3,0.3-0.1,0.5l0.4-0.2C67.4,11,67,11,67.1,10.9z M66.7,11.8l0.2-0.1
	C66.9,11.7,66.8,11.6,66.7,11.8z M67.1,11.6c0,0.2,0.1,0,0.2-0.1l-0.5,0.2C67,11.8,67,12,67.1,11.6z M67.6,11.6
	c0.2,0.1,0.6,0.2,0.1,0.4C68.6,11.9,68.4,11.5,67.6,11.6z M69.8,13l0.3,0.2l0.3-0.2C70.3,13.1,69.8,12.8,69.8,13z M64.4,11.1
	c0,0.1,0.2,0.3,0.2,0.5l-0.5,0.2c0.4,0,0.5-0.1,0.5-0.2l0.3-0.2C64.7,11.4,64.4,11.3,64.4,11.1z M66.6,12.5l0.7-0.5l-0.9,0.5
	L66.6,12.5z M62.4,11.3l0.2-0.2l0.3-0.3L62.4,11.3z M61.4,11.3c0.2-0.3-0.3-0.4-0.1-0.6c-0.3,0.1-0.6,0.3-0.8,0.5
	C60.8,11.1,61,11.1,61.4,11.3z M60.1,11.5c0.1-0.1,0.3-0.2,0.4-0.3C60.4,11.2,60.2,11.3,60.1,11.5z M63.3,11.8
	c0-0.1-0.1-0.3-0.4-0.3l0.2,0.3H63.3z M62.8,11.8c0,0,0.2,0,0.4,0l0,0C63,11.8,62.8,11.8,62.8,11.8z M65.1,12.9
	c0.2-0.3-0.1-0.4,0.2-0.7C65.1,12.4,64.6,12.6,65.1,12.9z M63.6,12.3l0.5,0.1c0-0.1-0.1-0.2,0-0.3L63.6,12.3z M63.4,12.4l0.2-0.1
	l-0.2,0L63.4,12.4z M61,11.8c-0.2,0.2-0.4,0.2-0.7,0.2c0.3,0.1,0.6,0.1,0.9,0.1C61.2,11.9,61.3,11.7,61,11.8z M61.6,12
	c-0.3,0-0.4,0.1-0.5,0.1l0.1,0.1C61.4,12.2,61.5,12.1,61.6,12z M59.4,11.6l0.4,0.2C59.7,11.7,59.4,11.6,59.4,11.6z M61.9,11.7
	C61.9,11.7,61.9,11.8,61.9,11.7L61.9,11.7z M61.9,11.8L61.6,12l0.3-0.1L61.9,11.8z M57.2,12.6c0.2,0.2,1.1,0.4,0.7,0.7
	c-0.6,0.2-0.5-0.1-0.9-0.3c0.3,0.4-0.8,0.6-0.6,1.2l0.6-0.2c0,0.1-0.2,0.2,0,0.3c0-0.3,0.6-0.7,1.1-0.3c0.5-0.3,0.1-1.4-0.3-2
	C57.7,12.3,57.7,12.4,57.2,12.6z M58.8,12.1c-0.2,0-0.4-0.2-0.7-0.4c-0.3,0.2-0.4,0.3-0.4,0.4l0,0l0,0.1l0-0.1l1,0l-0.1,0.1
	L58.8,12.1z M59.8,11.9L59.8,11.9l-0.9,0.2c0.2,0,0.5,0,0.9,0C59.5,12,59.7,12,59.8,11.9z M59.8,11.8L59.8,11.8L59.8,11.8L59.8,11.8
	l0,0.2c-0.1,0.4-0.6,0.5-0.3,0.9c0.6,0,0.4-0.3,0.7-0.5c-1,0.1,0.3-0.2-0.4-0.4c0.2-0.1,0.4-0.1,0.5-0.1
	C60.1,11.9,60,11.9,59.8,11.8z M64.7,13.7L64.7,13.7C64.6,13.7,64.6,13.7,64.7,13.7z M64.7,13.2L64.7,13.2c-0.5-0.1-1-0.5-0.9-0.5
	c0.1,0.3,0.2,0.6,0.5,0.9c0.1-0.1,0.1-0.2,0.3-0.2c0.2,0.1,0,0.2,0,0.3C64.8,13.5,65.1,13.4,64.7,13.2z M61.6,13.4l0-0.2
	c0.5,0.1,0.3-0.2,0.4-0.3l-0.8,0.2L61.6,13.4z M57.6,11.5l-0.4,0.6l0.4-0.2L57.6,11.5z M56.5,11.6l-0.3,0.2l0.2,0.1L56.5,11.6z
	 M17.2,31.7c0-0.1-0.1-0.2-0.1-0.2L17.2,31.7z M17,29.8l-0.2,0C16.9,29.8,17,29.8,17,29.8z M30.3,12.3l0.1,0.4c0.2-0.1,0.4,0,0.6,0
	C30.6,12.4,30.3,11.9,30.3,12.3z M14.5,15.9l0.1,0l-0.4-0.5L14.5,15.9z M18.4,41.1c0-0.4-0.2-0.2-0.4-0.3l-0.1,0l0,0l0.1,0
	c0,0,0,0,0,0L18.4,41.1z M45.9,12.5c-0.3-0.1-0.5-0.2-0.7-0.2C45.5,12.5,45.8,12.8,45.9,12.5z M16.5,84.7c0-0.3,0-0.3-0.1-0.4
	C16.4,84.4,16.4,84.5,16.5,84.7z M53.4,13.6c0-0.1,0.1-0.2,0.1-0.2S53.4,13.5,53.4,13.6z M52.3,12C52.3,12,52.5,11.9,52.3,12
	L52.3,12c-0.1,0-0.2,0-0.3,0L52.3,12L52.3,12z M17.6,56.6C17.7,56.8,17.7,56.7,17.6,56.6L17.6,56.6z M24.9,15.4l-0.5,1.4
	c0.3-0.5,0.5-0.4,0.8-0.3l0,0l0,0l0,0L24.9,15.4z M18.6,51.4c0,0,0,0.1,0,0.1C18.6,51.5,18.6,51.4,18.6,51.4z M56,12.3
	c-0.6-0.1-1.2,0.4-1.7,0.7l0.5,0.3c-0.3,0.7-1.1-0.2-1.4,0c0.2-0.2,0.6,0,0.7,0.1L54,13c-0.7-0.2-1.2,0.2-1.7,0.5
	c0.5,0.2-0.6,0.3-0.2,0.7l0.4-0.1c0.2,0.2-0.2,0.3-0.4,0.5c-1.2-0.3-3.3,0.1-3.7-0.3c0.2,0.1,0.7,0,0.9-0.2l-0.6-0.2
	c0.4,0,0.8,0.4,1.5,0.2c-0.1-0.3,0.3-0.8-0.2-1.2c-1.3-0.5-1,0.9-2.5,0.8c-0.1,0.1,0.3-0.5-0.5-0.3c-1,0.4-1.7,1.1-1.7,1.8
	c0.4-0.2,1.3-0.7,1.4-0.2c-0.4,0.2-1.2,0.4-1.2,0.7c-0.5-0.6,0.8-0.2,0.2-0.7c-0.3,0-0.4,0.2-0.6,0.3c0.2-0.3-0.3-0.4-0.4-0.5
	c-1,0-1.5-0.2-2.6-0.2c0,0,0,0.1,0,0h0c-0.1-0.1-0.2-0.3-0.1-0.4c-0.5,0.2-1.2,1.1-1,1.5c-0.6,0-0.6-0.2-1.1-0.1
	c0.8,0.5-0.2-0.1-0.2,0.5c-0.5,0.1-0.2-0.3-0.4-0.4c-0.1,0.1-0.3,0.3-0.3,0.4c-0.3-0.4,0.6-1.2,0.2-1.7c-0.3-0.3-1.4-0.8-1.5-0.9
	c-0.2,0.5-0.2,2.5,0.2,3.1c0,0.3-0.5-0.4-0.7-0.4c-0.7-0.5-1,0.4-1.6,0.2l0.4-0.3c-0.1-0.1-0.9,0-1,0.2c0-0.2,0.4-1,0.2-1.2
	c-1-0.1-1.9,1-1.9,1.5l1.5-0.6c0.1,0.5-1.1,0.5-1,1l-1.4-0.2c0.2,0,0.7-0.1,0.5-0.4c-0.6,0-0.3-0.1-0.7-0.3c0.7-0.6,1.9-2.1,2.4-2.9
	l-0.7,0.3l-0.2-0.3c-0.9,0.4-1.8,2.2-2,2.7c-0.5-0.1-0.3-1.1-0.2-1.3c-1.1,0-1.1,1.4-2.1,1.3l0.4,0.2c-0.3,0.1-1.2-0.1-1.1,0.1
	c-0.2-0.3-0.4-0.9-0.2-1.1l-1,1c0.1-0.1,0.1-0.9,0.1-1.1c-0.4,0-0.7,0.9-0.4,1.1c-0.7-0.6-0.6-0.3-1.1-0.9c-0.2,0.1,0,0.9,0.2,0.9
	c-0.5,0.2-0.8,0.1-1,0c0.8-0.3,0.3-1.8,0.4-2.4l-1.8,2.4c0.1-0.1,0.2-0.9,0.2-1c-0.2,0.7-2.2,0.8-3.2,0.7l0.2,0
	c0.2-0.3-0.6-0.4-1-0.2c0.1-0.1,0.1-0.1,0.3-0.1c-0.6-0.5-0.9,1.1-1.5,0.5c0.6,0.1,0.7-0.2,0.7-0.5c-0.5,0.3-1.6,0-1.4,0.8
	c-0.4-0.2-0.4-0.1-0.5-0.5l-0.5,0.5c0-0.1-0.1-0.3-0.3-0.4c0.3,0.1,0.6-0.7,0.9-0.1c0-0.5-0.2-0.8,0.1-1.2c-1.4,0.3-1.5,1.1-1.3,1.8
	c-0.1-0.1-0.8-0.2-0.6,0l0.2,0.2l-0.6-0.3c0.1,0.2,0.2,0.3,0.2,0.3s-0.1-0.1-0.2-0.2l0.2,0.3c-0.3-0.2-0.7-0.5-1-0.9l0.3,0
	c-0.3-0.4-0.6-0.9-0.8-0.7l0.1,0.3c-0.2-0.3-0.4-0.6-0.5-0.5l0.3,1.2c0.1-0.1,0.2-0.1,0.4-0.2c0.4,0.8,0.9,1.4,1.3,1.3l-0.3,0.3
	c0.6,0.7,0.5,0.3,1,1.3c-0.2,0.1-0.4-0.2-0.5,0c0.7,0.7-0.7,1.7-0.1,1.9c0.2,0.6,0.5,0.2,0.7,0.6c0,0-0.2,0-0.2,0.1l0.4,0.4
	c-0.2,0.2-0.3-0.4-0.5,0.1c0.3,0.8,0.6,1.3,0.4,2c0.1,1,0.8-0.4,0.8,0.4c-0.4,0.1-0.8,0.3-0.8,0.8c0.3,0.3,0.5,0.2,0.7,0.7l-0.5,0
	c0,0.4,0.2,0.8-0.3,0.8c0.2,0.3,0.2,0.6,0.1,0.8c0.3,0.6,1.1-0.5,1.3-0.7c-0.4,0.7-0.1,1.1-0.8,1.5l-0.2-0.6
	c-0.6,1.2,0.8,1.1-0.3,1.7c0-0.4-0.3-0.9-0.6-0.6l0.3,0.6c-0.1,0.1-0.1-0.3-0.3-0.1c0.1,0.2,0.4,0.5,0.6,0.6l0,0l0.2,1.1
	c0-0.2-0.2-0.3-0.2,0l0.3,0.7c-0.2-0.2-0.3,0-0.4,0.3c-0.1,0.9,1.3,0.7,0.7,1.4c0-0.1-0.1-0.1-0.1-0.2l-0.2,0.4
	c1.1,0,0.2,2.2,1.4,2.2c-0.4,0.6-0.3,0-0.9-0.6l-0.3,0.6c-0.1-0.2,0-0.4-0.1-0.6c-0.4,0.8,0.2,1.4,0.5,1.8c-0.2,0.3-0.9-0.2-0.6,0.6
	c0.3,1.1,0.8-0.3,1,0.4l-0.6,0.5c0.5,0.8,0.1,1.5,0.1,2.2c0.1,0.2,0.1,0.2,0.2,0.3c-0.2,0.8,0.7,1.6,0.5,2.2
	c-0.1-0.1-0.3,0.3-0.5,0.4l0.4,1c-0.2-0.5-0.5-0.4-0.9-0.5c0.1,0.3,0.3,0.5,0.3,0.7c-0.1-0.1-0.3-0.3-0.4-0.1l0.6,1.1
	c0.1-0.1,0.1-0.2,0.1-0.3c0,0.3,0.3,0.9,0,1.3l-0.4-0.2c0.4-0.4,0-0.5-0.2-0.7c0.1,0.8-0.1,0.2-0.3,0.6c0,0.5,0.5,0.7,0.8,0.6
	c-0.1,0.6-0.2,0.8,0.2,1.4l-0.5-0.1l0.2,0.6l-0.6-0.4c-0.2,1.1,0.8,0.2,0.6,1.4l-0.4,0c0.2,0.5,0.9,0.6,0.4,1
	c0.3,0.4,0.5-0.8,0.7,0.2c-0.2,0.2-0.3,0.6-0.4,0.9c0.2,0.3,0.4-0.1,0.4-0.4c0.2,1.4-1.3,1-0.7,2.4c0.3-0.5,0.8,0.4,0.7-0.8
	c0.3,0.5-0.5,1.1-0.1,1.7L18,54.4c0,0.2,0.2,0.4,0.3,0.5l-0.4,0c0.7,0.7-0.3,1.4,0.7,1.7c-0.7-0.3,0.1,0.5-0.2,0.8
	c-0.5-0.6-0.1-1.7-0.8-1.7c-0.2,0.3,0.2,0.5,0,0.8c-0.1-0.2-0.3-0.4-0.4-0.5c-0.3,0.9,0.5,1.4,0.7,1.9l-0.2-1c0.7,0,0.1,0.4,0.7,0.7
	c-0.3,0.5,0.2,0.9,0,1.3c0-0.1-0.1-0.1-0.1-0.2c0.1,1.1-1,1.4-1,1.8c-0.1,0.4,0.3,1.2,0.6,0.9c0.2,0.3-0.3-1.4,0.6-0.8
	c-1,0.7,0.4,1.2-0.2,2.6c-0.4-0.6-0.5,0.4-0.8-0.1c0.1,0.6,0.3,0.6,0.6,0.9l-0.3,0.2c0.7,0.8,0.6,0.2,1.1,1.4
	c-0.3-0.4-0.4,0.5-0.7,0.2c0,0.3,0.1,0.7,0.3,0.9l0,0c0.2,1.2-0.3,1.1,0.1,2.2l0.2-0.1c0.6,1.5,0.4,3.4,0.7,4.9l0.1-0.6
	c-0.1,0.2,0.4,1,0.1,1.5c0-0.1-0.1-0.3-0.1-0.4c-0.2,0-0.5,0.2-0.5,0.6l0.3,0.1l-0.2,0.2c0,0.6,0.5-0.2,0.5,0.4
	c-0.9,0.4,0,2.5-0.8,3c0.7,0.4,0-1.1,0.7-0.7c-0.1,0.2-0.2,0.3-0.2,0.6l0.4-0.1c-0.1,1.7-0.4,2.4-0.3,3.9l-0.1-0.1
	c-0.1,0.6,0,0.8,0.3,1.1c-0.2,0.1-0.3-0.3-0.5,0c1.1,0.9-0.6,2,0.1,2.5c-0.8,0-1.5,1.3-2.2,0.8l0.1,0.4c-0.5-0.1-0.1-1.2-0.7-1.4
	l0.5-1.3c-0.2,0.1-0.5-0.1-0.6,0.1c0-0.3-0.1-0.6-0.3-0.2c1.2-3.1-0.3-6,0.3-9c-0.1-0.2-0.2-0.1-0.4,0c0.5-0.6-0.3-0.5-0.4-0.8
	l0.7-0.8c-0.2-0.3-0.5,0-0.6-0.1c-0.2-1.5,0.4-3-0.1-4.2c0.2-0.4,0.6,0.1,0.7-0.5c-0.7,0.7-0.4-1.5-1-1c0.8-0.5,0.1-1.8,1.2-1.7
	c0-0.6-0.5-0.5-0.6-0.3c0-0.7,0-1.3-0.4-1.8c0.2-0.4-0.5-3.2,0.4-3.9c-0.5,0.5-0.3,0-0.5-0.4l-0.5,0.4v-0.9c-0.1-0.2,0-0.2,0-0.2
	c0-0.2,0.3,0,0.4-0.4c0-0.6-0.3-0.6-0.5-1l-0.1,0.1l-0.1-0.4c0-0.3,0.5,1.1,0.7,0c-0.1,0-0.8-0.6-0.5-0.9c0,0.5,0.3,0.4,0.5,0.2
	l0-0.7l-0.6,0.3c-0.1-2.1,0.2-4.3,0.1-6.6c0.5,0-0.1-1.6,0.7-1.4l-0.1,0.1c0.1,0.6,0.6-0.2,0.5-0.6c-0.2,0.5-0.8-0.8-0.9,0.3
	l-0.4-0.9c-1.5-0.4,0-2.4-0.6-3.7c0.1,0.1,0.2,0.1,0.2,0.1c-0.6-1.2,0.3-2.7,0-3l0.4-0.1c-0.7-1-0.8-1.1-0.6-2.3
	c0,0,0.2,0.1,0.3-0.1c-0.3-0.3-0.7-0.6-0.6-1.4l0.1,0l-0.1-1.3c1.3-0.1-0.9-2.2,0.5-2.7c-0.4-0.2-0.6-1.2-0.8-1.6
	c-0.1,0-0.2,0-0.2-0.2c0.1,0,0.2,0,0.2,0.2c0,0,0.1,0,0.2-0.1c-0.7-0.5,0.1-1.5,0-2c-0.2-0.4-0.4-0.2-0.6,0c0.5-0.7-0.7-2-0.5-2.2
	c0-0.5,0.5-0.2,0.8-0.4c-0.1-0.8-1.2,0.2-0.7-0.9c0.1,0.1,0.1,0.3,0.2,0.3c0.1-0.4,1.5-1.2,1.2-1.6l-0.2,0.3c-0.4-0.7,1-1.8,0.1-1.9
	l-0.4,0.1c0.5-1.3-0.2-0.5,0.2-1.8l0.1,0c-0.1-0.6,0.4-0.9-0.3-1.1L13.5,20c-0.1-0.7,0-0.8,0-1.5c-0.1-0.1-0.2-0.4,0-0.6
	c-0.5-0.1-0.3-2.3-0.3-2.7c0.1,0.8,0.3,0.6,0.5,0.5c-0.5-0.7-0.5-1.1-0.2-1.4c-0.5-0.4-2.1-2.1-0.4-1.9c-0.2,0.1-0.5,0.2-0.2,0.3
	c0.3,0.1,0.5,0,0.6-0.1c0.3,0.1-0.1,0.2,0.2,0.5c0.5-0.6,1.6-0.1,2.9-0.3c-0.4,0.2,0,0.3,0.2,0.6c0.1-0.8,1.7,0.7,1.2-0.3
	c1.7,0.6,4.3,0,5,0.7c0.2,0.3,0.7-0.2,1-0.2l0,0.3c0.8-0.6,0.7-0.2,1.6-0.8c-0.4,0.4-0.2,0.6,0.2,0.9l0.7-0.7l0.1,0.5
	c0.3-0.2,0.6-0.1,0.9,0c-0.2,0-0.1,0-0.1,0.1c0.2-0.7,1.4-0.6,1.5-1c0.3,0.7,0.8-0.2,1,0.5l0.4-0.2c-0.1-0.3-0.2-0.7,0.1-0.5l0.1,0
	l0.1,0.4c0.3-0.1,0.6-0.1,0.7-0.2c-0.1,0-0.2-0.1-0.3-0.2l0.3,0.2l0.1,0l-0.1,0c0.2,0.1,0.3,0.1,0.6,0c1,0.6,2.2-0.9,3.2,0
	c-0.2-0.1-0.4-0.1-0.5,0c0.9,0,1.8,0.5,2.3,0.2l0-0.4c0.7-0.2,1.2-0.3,1.7-0.3l0-0.4c0.8,0.1,2.4-0.6,2.9,0.3
	c0.2-0.3,1.1,0.1,1.5-0.1l0.1,0.3c0.6,0.1,0.9,0,1.3-0.1c0,0-0.1,0-0.2-0.1c0.3-0.3,0.6-0.2,0.9,0c-0.3,0-0.5,0-0.7,0.1
	c1.2,0.6,2.2-0.1,3.2-0.1l0,0.1l1-0.3c-0.3,0.3,0.2-0.2,0.5-0.1c0.3-0.2,0.8-0.1,1.2,0.1h0.7c-0.7,0.2,0.1,0.5,0.1,0.8l0.4-0.3
	c0.2,0.2-0.3,0.3,0,0.4c0.3-0.2,1.1-0.2,1.3-0.6c0-0.1-0.1-0.2-0.3-0.3l0,0l0,0l0,0l0.1-0.2c0,0-0.1,0-0.2,0c0.2-0.1,0.2,0,0.2,0
	l0,0c0.5,0.1,0.3-0.1,0.3-0.3c0.6,0.6,0.9,0.2,1.4,0.8c-0.6-0.8,1.3,0,0.9-0.8C55.9,12.4,55.7,11.8,56,12.3z M15.1,58.9L15,59.1
	C15.1,59.2,15.2,59.3,15.1,58.9z M16.9,27.9c0.2-0.1,0-0.4-0.1-0.6C16.6,27.5,16.4,27.7,16.9,27.9z M15.5,15.7
	c-0.3-0.2-0.2,0-0.2,0.2C15.4,15.8,15.5,15.8,15.5,15.7z M49.9,12.4C49.7,12.3,49.5,12.2,49.9,12.4L49.9,12.4z M15.9,17l-0.2-0.1
	C15.8,17,15.9,17,15.9,17z M39.1,16.4c-0.2-0.1-0.2-0.1-0.3-0.2C38.8,16.3,38.9,16.3,39.1,16.4z M54.6,11.7l-0.5,0.1
	c0.2,0,0.3,0.1,0.4,0.1C54.6,11.8,54.5,11.7,54.6,11.7z M58.9,14.1c0.1,0,0.2,0,0.2-0.1l0-0.2C58.8,13.8,58.6,14,58.9,14.1z
	 M55.1,13c0.1,0.3,0.3,0.2,0.7,0.1h-0.1C55.8,12.7,55.5,12.9,55.1,13z M55.9,13.2l0.3,0C56.2,12.9,56,13.1,55.9,13.2z M51.6,12.3
	c0.2,0.1,0.1-0.4,0.2-0.3C52,11.5,50.8,12.5,51.6,12.3z M55.1,14.1l0.3,0.1l-0.1-0.4L55.1,14.1z M52.8,13.9l0.5,0.1
	c0,0,0.1-0.1,0.1-0.1C53.1,13.9,52.7,13.8,52.8,13.9z M53.9,13.8c-0.1,0-0.3,0-0.4,0.1C53.6,13.9,53.8,13.9,53.9,13.8z M54.2,14.2
	l0.5,0.1l-0.2-0.1L54.2,14.2z M47,14l-0.6,0.1c-0.1,0.1,0.1,0.2,0.3,0.2C46.9,14.2,47.1,14.2,47,14z M48.5,14.8l0,0.5l0.3-0.2
	C48.6,15.1,48.6,15,48.5,14.8z M47.1,15.3c-0.1,0.1-0.8,0.5-0.1,0.4C47,15.6,47.6,15.4,47.1,15.3z M38.2,15l0.1,0l0-0.9L38.2,15z
	 M30.9,16.4c-0.4,0.2-0.6,0.1-0.5,0.7c0.7,0.2,0.2-0.5,0.8-0.3C31.4,16.6,30.7,16.6,30.9,16.4z M30.9,16.4c0,0,0.1-0.1,0.2-0.1
	C31,16.3,30.9,16.4,30.9,16.4z M16,86.8l0.3-0.3l-0.1-0.2L16,86.8z M16.3,87.3l0.5,0.2c0-0.1-0.1-0.3,0-0.4L16.3,87.3z M17.5,26.3
	l0.3-0.4l-0.1,0C17.5,26,17.5,26.1,17.5,26.3z M17.6,31.9l-0.5,0.2l0.5-0.1L17.6,31.9z M18.6,37.1c0-0.2-0.1-0.5-0.1-0.6
	C18.6,36.9,17.9,37.2,18.6,37.1z M4.3,52.9c0,0.1,0.4,0.1,0.4,0.1C4.6,52.8,4.2,52.9,4.3,52.9z M3.6,50.7l0.1,0l-0.4-0.3L3.6,50.7z
	 M3.6,48.6c-0.6,0.2,0.1,0.8-0.1,1.1l-0.1,0.1L3.8,50C3.7,49.5,3.4,48.9,3.6,48.6z M4.8,47.8L4.8,47.8c0.1,0,0.1-0.1,0.1-0.3
	C4.7,47.6,4.7,47.3,4.8,47.8z M4.9,47.7C4.9,47.9,5.1,47.6,4.9,47.7L4.9,47.7z M4.7,46.7L5,47c0.1-0.1,0.2-0.3,0.3-0.2
	C5.1,46.5,5,46.5,4.7,46.7z M4.3,46.4l0.1,0.2C4.4,46.6,4.5,46.5,4.3,46.4z M4.6,46.9l-0.2-0.3c-0.1,0-0.3,0,0.1,0.1
	C4.3,46.7,4.5,46.8,4.6,46.9z M4.5,47.1c-0.1,0.2-0.2,0.4-0.4,0.1C4.1,47.7,4.6,47.6,4.5,47.1z M3,48.5l-0.2,0.2L3,48.9
	C2.9,48.8,3.1,48.5,3,48.5z M5.1,44.9c-0.1,0-0.3,0.1-0.5,0.1l0.1,0.2C4.8,45.1,4.9,44.9,5.1,44.9z M4.3,44.7C4.3,45,4.4,45,4.6,45
	L4.3,44.7z M3.6,46.4l0.5,0.5L3.6,46.4L3.6,46.4z M5.1,43.7l0.3,0.2l-0.4-0.3L5.1,43.7z M5.2,42.3C5.1,42.2,5,42.1,4.9,42
	C5,42.1,5.1,42.2,5.2,42.3c0.1,0.2,0.1,0.4-0.1,0.6c0.2,0.1,0.4-0.2,0.6,0C5.6,42.6,5.4,42.4,5.2,42.3z M4.4,44l0,0.1
	c0.1,0,0.3-0.1,0.4-0.2L4.4,44z M4.4,43.8c0,0,0,0.1,0,0.3l0,0C4.4,43.9,4.4,43.8,4.4,43.8z M4,45.5c-0.2-0.2-0.4-0.6-0.7-0.2
	C3.5,45.5,3.7,45.3,4,45.5z M4,44.3l0-0.1l-0.1,0L4,44.3l-0.1,0.3c0.1,0,0.2-0.1,0.3,0L4,44.3z M4.3,42.7c0.1,0,0.3,0.1,0.3-0.1
	c-0.2-0.2-0.2-0.3-0.2-0.5C4.3,42.3,4.3,42.5,4.3,42.7z M4.4,40.3L4.4,40.3L4.4,40.3L4.4,40.3z M4.3,43l-0.1-0.3l-0.1,0
	C4.1,42.8,4.2,42.9,4.3,43z M4.5,41.7c0.1-0.1,0.3-0.2,0.2-0.3L4.5,41.7z M4.5,43.2L4.5,43.2C4.6,43.2,4.5,43.2,4.5,43.2z M4.4,43.2
	L4.4,43.2L4.3,43L4.4,43.2z M2.1,39.7c0.3,0,0.6,0.4,0.3,0.7c0.3,0.3,1.3,0.1,2-0.2c-0.1,0-0.3,0-0.5-0.3c-0.2,0.1-0.4,0.7-0.7,0.5
	c-0.2-0.4,0.1-0.4,0.3-0.6C3,40,2.8,39.3,2.2,39.4l0.2,0.4C2.3,39.8,2.2,39.6,2.1,39.7z M4.3,41L4.3,41L4.3,41
	c0-0.1,0.2-0.2,0.5-0.4c-0.2-0.2-0.3-0.3-0.4-0.3L4.3,41z M3.9,42c-0.1-0.7,0.2,0.2,0.4-0.3c0.1,0.1,0.1,0.2,0.1,0.4l0.2-0.3l0,0
	l-0.2-0.7c0,0.1,0,0.3,0,0.6c0.1-0.2,0.1,0,0.1,0l0.1,0l0,0l0,0l-0.1,0c-0.4-0.1-0.5-0.4-0.9-0.2C3.4,41.9,3.7,41.8,3.9,42z
	 M2.7,44.7c0,0,0.2,0.1,0.2,0.2c-0.1,0.1-0.2,0-0.3,0c0,0-0.1-0.1-0.1,0l0.1,0c0.1,0.1,0.3,0.3,0.4,0l0,0c0.1-0.3,0.6-0.6,0.6-0.6
	C3.2,44.5,3,44.5,2.7,44.7z M3.4,43.2l-0.2-0.5l-0.3,0.3l0.2,0C3,43.2,3.3,43.2,3.4,43.2z M4.6,40.2L5,40.3L4.4,40L4.6,40.2z
	 M4.5,39.5l0.3,0l-0.2-0.2L4.5,39.5z M6.8,1.2L7,1.1C6.9,1.1,6.8,1.2,6.8,1.2z M5.4,1.1l0,0.2C5.5,1.2,5.5,1.1,5.4,1.1z M5.1,21.7
	l-0.4,0.1c0.1,0.2,0,0.3-0.1,0.4C4.9,21.9,5.4,21.7,5.1,21.7z M2.5,10.2l-0.1,0.1l0.3,0.2L2.5,10.2z M1.3,9.7C1.2,9.8,1.1,9.9,1,10
	L1.3,9.7z M4.4,32.3c0.1-0.2,0.2-0.4,0.2-0.5C4.5,32,4.1,32.2,4.4,32.3z M6.3,5.1C6.4,5,6.4,4.9,6.4,4.8C6.3,4.9,6.2,5,6.3,5.1z
	 M4.7,31.2l-0.1,0.1c0.1,0.1,0.1,0.3,0.1,0.5C4.8,31.6,4.9,31.4,4.7,31.2z M42.6,5.6c-0.2,0-0.3,0-0.3,0S42.4,5.6,42.6,5.6z
	 M4.7,36.7C4.7,36.8,4.7,36.7,4.7,36.7L4.7,36.7z M3.3,37.4c0,0-0.1-0.1-0.2-0.1C3.2,37.3,3.3,37.4,3.3,37.4z M2.4,29.7L2.4,29.7
	C2.3,29.7,2.4,29.7,2.4,29.7z M4.7,36.5l0,0.2l0.1,0c0,0,0,0,0,0c0,0,0,0,0,0l0,0C4.7,36.7,4.7,36.5,4.7,36.5z M23.8,2.4L23.8,2.4
	C24,2.3,23.9,2.4,23.8,2.4z M0.9,18.2L0.9,18.2L0.9,18.2L0.9,18.2z M0.6,17.7C1,17.9,1,18,0.9,18.2L1.9,18L0.6,17.7z M12.7,4.3
	C12,4.9,11.9,5,11.1,4.7c0,0,0.1-0.2,0-0.3c-0.2,0.3-0.4,0.6-1,0.5l0-0.1l-0.9,0c0-1.3-1.5,0.8-1.8-0.6C7.3,4.6,6.7,4.7,6.4,4.8
	c0,0,0-0.1-0.1-0.2c-0.5,0.7-0.7-0.2-1-0.2C5.3,4.7,5.4,4.9,5.5,5.1C5.1,4.6,5.3,5.7,5.2,5.5C5.1,5.5,4.8,5,4.5,4.8l0,0.1
	c0.2,0.3,0.9,0.9,0.4,0.6c0-0.1,0-0.2-0.1-0.2C4.6,5.3,3.1,4.5,3.4,5l0.2,0C4,5.4,2.6,5.5,3.4,5.8l0.4,0.1C3.3,6.4,4,6,3.5,6.8
	l-0.1,0C3.5,7.2,3,7.4,3.7,7.6l0.1-0.1c0,0.5,0,0.5,0,1c0.1,0.1,0.2,0.3,0,0.3C4.3,8.8,4,9.9,4,10.1C3.9,9.7,3.6,9.9,3.4,10
	c0.4,0.2,0.5,0.4,0.2,0.7c0.7,0,1.4,0.1,1.4,0.7c-0.1-0.1-0.2-0.3-0.3-0.2c-0.1,0.1,0.1,0.3,0.1,0.3c-0.1,0.1-0.2-0.1-0.5-0.1
	c0.6,0.4,0,0.7,0.3,1.3c-0.2-0.2-0.3,0-0.6,0c0.8,0.1-0.7,0.8,0.3,0.6c-0.6,1.2-0.1,2.9-0.7,3.4c-0.3,0.1,0.2,0.4,0.2,0.6l-0.3,0
	c0.6,0.6,0.2,0.4,0.8,1.1c-0.4-0.3-0.6-0.2-0.9,0.1L4.1,19l-0.5,0.1c0.2,0.2,0.1,0.4,0,0.6c0-0.1,0,0-0.1,0c0.7,0.1,0.6,0.9,1,1.1
	c-0.7,0.2,0.2,0.6-0.5,0.7l0.2,0.2c0.3-0.1,0.7-0.1,0.5,0.1l0,0l-0.4,0.1c0.1,0.2,0.1,0.4,0.1,0.5c0,0,0.1-0.1,0.2-0.2l-0.2,0.2
	l0,0.1l0,0c-0.1,0.1-0.1,0.2,0,0.4c-0.6,0.7,0.8,1.5,0,2.2c0.1-0.1,0.1-0.3,0-0.3c0,0.6-0.5,1.2-0.2,1.6l0.4,0
	c0.2,0.4,0.3,0.8,0.3,1.2l0.4,0c-0.2,0.5,0.5,1.6-0.4,2c0.3,0.1-0.1,0.7,0,1l-0.3,0.1c-0.1,0.4,0,0.6,0.1,0.9
	c-0.7,0.8,0,1.5-0.1,2.2l-0.1,0l0.2,0.7c-0.3-0.2,0.2,0.1,0.1,0.4c0.2,0.2,0.1,0.6-0.1,0.8l0,0.4c-0.2-0.5-0.5,0-0.9,0.1l0.3,0.3
	c-0.2,0.1-0.3-0.2-0.4,0c0.2,0.2,0.2,0.7,0.6,0.9c0.1,0,0.2-0.1,0.3-0.2h0l0,0l0,0L4.7,37l0-0.1c0.1,0.1,0,0.1,0,0.1h0
	c-0.1,0.3,0.1,0.2,0.2,0.2c-0.6,0.4-0.2,0.6-0.9,0.9c0.8-0.4,0,0.9,0.7,0.7c-0.6,0.3,0,0.2-0.5,0.4c0.2-0.4-0.4-0.8-0.6-1.2
	l-0.4,0.3c-0.7-0.2,0.3-0.7,0-0.9c0.2,0.1,0,0.4-0.2,0.4l0.5-0.1c0.2-0.5-0.2-0.9-0.4-1.2c-0.2,0.3-0.3-0.4-0.7-0.2l0.1,0.2
	c-0.2,0.1-0.3-0.1-0.5-0.3c0.4-0.8,0.1-2.2,0.5-2.5c-0.1,0.2,0,0.5,0.1,0.6l0.2-0.4c0,0.3-0.4,0.5-0.3,1C2.9,35,3.4,35.3,3.8,35
	c0.5-0.9-0.8-0.7-0.7-1.7c-0.1-0.1,0.5,0.2,0.4-0.3c-0.3-0.7-1.1-1.2-1.8-1.2c0.2,0.3,0.6,0.9,0.1,1c-0.2-0.3-0.3-0.8-0.7-0.8
	c0.6-0.3,0.2,0.6,0.7,0.2c0-0.2-0.2-0.3-0.3-0.4c0.3,0.1,0.4-0.2,0.6-0.2c0-0.7,0.3-1,0.3-1.7c0.1,0,0.3-0.1,0.4-0.1
	c-0.2-0.3-1-0.8-1.4-0.7c0-0.4,0.3-0.4,0.1-0.8C1,28.6,1.6,28,1,27.9c-0.1-0.3,0.3-0.1,0.4-0.3c-0.1-0.1-0.3-0.2-0.4-0.2
	c-0.1,0-0.1,0.1-0.2,0.2c0-0.2,0.1-0.2,0.2-0.2c0,0,0,0,0,0c0.4-0.2,1.1,0.4,1.6,0.2c0.3-0.2,0.9-1,0.9-1c-0.5-0.2-2.5-0.1-3.1,0.1
	c-0.3,0,0.4-0.3,0.4-0.5c0.5-0.4-0.4-0.7-0.2-1.1L1,25.5c0.1-0.1,0-0.6-0.2-0.7c0.2,0,1,0.3,1.2,0.1c0.1-0.7-0.9-1.3-1.5-1.3l0.6,1
	c-0.5,0-0.5-0.7-1-0.7l0.2-0.9c0,0.1,0.1,0.5,0.4,0.3c0-0.4,0.1-0.2,0.3-0.5c0.6,0.5,2.1,1.3,2.9,1.6l-0.3-0.5l0.3-0.1
	c-0.4-0.6-2.2-1.2-2.7-1.4c0.1-0.4,1.1-0.2,1.3-0.1c0.1-0.7-1.4-0.7-1.3-1.4l-0.2,0.3c-0.1-0.2,0.1-0.8-0.1-0.7
	c0.3-0.1,0.9-0.3,1.1-0.1l-0.9-0.6c0.1,0.1,0.9,0,1.1,0.1c0-0.3-0.9-0.4-1.1-0.3c0.6-0.5,0.3-0.4,1-0.8c-0.1-0.1-0.9,0-0.9,0.1
	c-0.2-0.3-0.1-0.5,0-0.7c0.3,0.6,1.8,0.2,2.4,0.3l-2.4-1.2c0.1,0,0.9,0.1,1,0.1c-0.7-0.1-0.8-1.5-0.7-2.1l0,0.1
	c0.2,0.1,0.5-0.4,0.2-0.7c0.1,0,0.1,0.1,0.1,0.2c0.5-0.4-1.1-0.6-0.4-1c-0.1,0.4,0.2,0.5,0.5,0.5c-0.3-0.3,0-1.1-0.8-1
	C1,13.2,0.8,13,1.3,13l-0.5-0.8c0.1,0.1,0.3,0.1,0.4-0.1c-0.1,0.5,0.7,0.9,0.1,1.2c0.5,0,0.8-0.2,1.2,0.1c-0.2-0.9-1.1-1.4-1.7-2
	l0.4-0.8l-0.2,0l0.6-0.1c-0.1-0.1-0.2-0.2-0.2-0.2s0.1,0,0.2,0c0-0.1-0.1-0.2-0.1-0.2c0.3,0,0.7,0.1,1,0.3l-0.3,0.2
	c0.3,0.2,0.6,0.3,0.8,0.1l-0.1-0.1c0.2,0.1,0.4,0.2,0.5,0.1L3,9.9c-0.1,0.1-0.3,0.2-0.5,0.3C2.1,9.8,1.7,9.4,1.3,9.7l0.4-0.5
	C1,8.7,1.2,8.8,0.7,8.2c0.2,0,0.4,0.1,0.5,0C0.6,7.7,2,7,1.5,6.9C1.3,6.5,0.9,6.8,0.8,6.5c0,0,0.2,0,0.2,0L0.6,6.1
	C0.7,5.9,0.9,6.5,1,6C0.7,5.1,0.5,4.4,0.8,3.8c0.1-1-0.9,0-0.6-0.8c0.4,0.1,0.7,0.2,1-0.2c-0.1-0.4-0.3-0.5-0.1-1l0.4,0.4
	c0.1-0.1,0.3-0.3,0.3-0.3c0.2-0.1,0.3-0.2,0.5,0c0.1-0.4,0.4-0.4,0.6-0.4C3.3,1,1.8,0.7,1.5,0.7c0.9,0,1.2-0.4,1.9,0.2L2.9,1.1
	c1.4,0.4,1-0.9,1.9,0.2C4.3,1.3,4,1.6,4.3,1.9l0.5-0.3c0.1,0.1-0.3,0.1,0,0.3c0.1-0.1,0.4-0.4,0.6-0.6l0,0l1-0.1
	c-0.1,0-0.2,0.2,0,0.2l0.5-0.3C6.7,1.3,6.8,1.5,7,1.6c0.6,0.2,0.5-1.2,1-0.6c0,0-0.1,0.1-0.2,0l0.2,0.2C8.2,0.1,9.6,1.1,9.7,0
	c0.3,0.5,0,0.3-0.5,0.8l0.4,0.3c-0.2,0-0.3,0-0.5,0.1c0.5,0.5,1-0.1,1.2-0.4c0.2,0.2-0.2,0.9,0.4,0.7c0.8-0.2-0.1-0.8,0.3-1l0.3,0.6
	c0.6-0.4,1,0,1.5,0.1c0.1,0,0.2-0.2,0.2-0.2c0.5,0.3,1.1-0.6,1.5-0.4c-0.1,0.1,0.2,0.4,0.3,0.5l0.7-0.3c-0.3,0.1-0.3,0.5-0.4,0.8
	c0.2,0,0.3-0.2,0.5-0.3c-0.1,0.1-0.2,0.2-0.1,0.4l0.8-0.5c0-0.1-0.1-0.1-0.2-0.1c0.2,0,0.6-0.2,0.9,0.1L17,1.6
	c-0.2-0.4-0.4-0.1-0.5,0.2c0.5,0,0.1,0.1,0.4,0.3c0.4,0,0.5-0.5,0.5-0.7c0.4,0.1,0.5,0.2,1-0.1l-0.1,0.5l0.4-0.1l-0.3,0.6
	c0.7,0.3,0.2-0.8,1-0.5l0,0.4c0.3-0.1,0.5-0.8,0.7-0.3c0.3-0.2-0.5-0.6,0.2-0.7c0.1,0.2,0.4,0.4,0.6,0.5c0.2-0.2,0-0.4-0.2-0.4
	C21.5,1,21,2.5,22,2c-0.3-0.3,0.3-0.8-0.5-0.8c0.4-0.2,0.7,0.6,1.1,0.2l-0.3,0.5c0.1,0,0.3-0.2,0.4-0.2L22.7,2
	c0.5-0.7,0.9,0.3,1.2-0.6c-0.2,0.7,0.4,0,0.5,0.3c-0.4,0.5-1.2,0-1.2,0.6c0.2,0.2,0.4-0.1,0.5,0.1c-0.1,0.1-0.3,0.3-0.4,0.4
	c0.6,0.4,1-0.4,1.4-0.6l-0.7,0.1c0.1-0.7,0.3-0.1,0.5-0.6c0.3,0.4,0.6-0.2,0.9,0.1l-0.2,0.1c0.7,0,0.9,1.1,1.1,1.1
	c0.3,0.1,0.8-0.3,0.7-0.5c0.2-0.2-1,0.2-0.5-0.7c0.4,1,0.9-0.4,1.7,0.3c-0.4,0.3,0.2,0.6-0.2,0.8c0.4-0.1,0.5-0.2,0.7-0.5L29,2.8
	c0.6-0.7,0.2-0.6,1-1c-0.3,0.2,0.3,0.5,0.1,0.7c0.2,0,0.5-0.1,0.7-0.3l0,0c0.9-0.1,0.7,0.4,1.5,0.1l-0.1-0.2
	c1.1-0.5,2.3-0.1,3.4-0.3l-0.4-0.2c0.1,0.1,0.7-0.3,1,0l-0.2,0.1c0,0.2,0.1,0.5,0.3,0.6l0.1-0.3l0.1,0.3c0.4,0-0.1-0.5,0.3-0.5
	c0.2,0.9,1.7,0.2,1.9,1C39,2.2,38,2.7,38.3,2.1c0.1,0.1,0.2,0.2,0.4,0.3L38.7,2c1.2,0.3,1.6,0.6,2.6,0.5l-0.1,0.1
	c0.4,0.2,0.6,0.1,0.8-0.2c0.1,0.2-0.2,0.3-0.1,0.4c0.7-1,1.2,0.8,1.7,0.1c-0.1,0.8,0.7,1.6,0.2,2.2L44.1,5c-0.1,0.5-0.8,0-1,0.6
	L42.3,5c0,0.2-0.2,0.5,0,0.6c-0.2,0-0.4,0-0.1,0.3c-1.9-1.4-4.1-0.1-6-0.9c-0.1,0-0.1,0.2,0,0.4c-0.3-0.5-0.4,0.3-0.6,0.3l-0.5-0.8
	C34.8,5.2,35,5.4,35,5.5c-1,0.1-1.9-0.6-2.8-0.2c-0.2-0.3,0.1-0.6-0.2-0.7c0.4,0.8-1,0.3-0.8,0.9c-0.3-0.8-1.2-0.2-1-1.3
	c-0.4-0.1-0.4,0.5-0.3,0.6c-0.5-0.1-0.9-0.1-1.3,0.3c-0.2-0.3-2.2,0.2-2.6-0.6C26.3,5,26,4.7,25.7,5L26,5.4l-0.6-0.1
	c-0.1,0-0.2,0-0.2,0c-0.1,0,0-0.3-0.2-0.4c-0.4,0-0.5,0.2-0.7,0.5l0.1,0.1l-0.3,0c-0.2,0,0.8-0.5,0.1-0.7c0,0.1-0.5,0.8-0.6,0.4
	c0.3,0,0.3-0.3,0.2-0.5l-0.5,0l0.1,0.6c-1.4-0.1-2.9-0.5-4.4-0.5c0-0.5-1.1,0-0.9-0.8L18.1,4C18.4,4,18,3.4,17.7,3.5
	c0.3,0.3-0.6,0.8,0.2,0.9l-0.6,0.4c-0.4,1.5-1.6-0.2-2.5,0.3c0.1-0.1,0.1-0.2,0.1-0.2c-0.8,0.5-1.8-0.4-2-0.2L12.7,4.3z M25.2,5.1
	l0.1,0.1C25.3,5.1,25.4,5,25.2,5.1z M1.8,10.7C1.7,10.8,1.6,11,1.7,11C1.9,10.9,1.9,10.8,1.8,10.7z M4.4,35L4.4,35
	C4.5,34.9,4.5,34.8,4.4,35z M3.4,1.3C3.1,1.1,3,1.4,2.9,1.5C3.2,1.5,3.4,1.7,3.4,1.3z M20.4,1.1C20.4,1.1,20.5,1.1,20.4,1.1
	C20.5,1.1,20.4,1.1,20.4,1.1z M1.2,10.1l0.2,0C1.4,10,1.3,10,1.2,10.1z M13.1,1L13.1,1L13.1,1C13.2,0.9,13.2,0.9,13.1,1l0.2-0.4
	C13.1,0.6,13.2,0.8,13.1,1L13.1,1z M4.8,37.9c0,0.2-0.1,0.2-0.1,0.3c0.1,0,0.2-0.1,0.2,0L4.8,37.9z M2.3,41l0.1,0.1l0.2,0
	C2.6,41,2.4,40.8,2.3,41z M3.5,38.5c-0.3,0-0.2,0.2-0.2,0.5v0C3.8,39,3.7,38.8,3.5,38.5z M3.4,39l0,0.2C3.6,39.3,3.4,39.2,3.4,39z
	 M4.4,36.2c-0.1,0.1,0.4,0.1,0.3,0.1C5.2,36.4,4.2,35.6,4.4,36.2z M2.4,38.7l0.4-0.1l-0.3-0.1L2.4,38.7z M2.7,36.9l-0.1,0.4l0.1,0.1
	C2.8,37.1,2.8,36.9,2.7,36.9z M2.7,37.4c0,0.1,0,0.2,0.1,0.3C2.8,37.7,2.8,37.5,2.7,37.4z M2.3,38.2l0.1-0.1l0-0.3L2.3,38.2z
	 M2.8,33l-0.1-0.4c-0.1,0-0.2,0.1-0.2,0.2C2.6,32.9,2.7,33,2.8,33z M1.7,34.2C1.8,34.1,1.9,34.1,2,34l-0.5,0L1.7,34.2z M1.6,33
	c-0.1,0-0.4-0.6-0.4-0.1C1.3,33,1.4,33.4,1.6,33z M2.3,27L2.3,27l0.9,0.1L2.3,27z M0.3,21.7c-0.2,0.5,0.5,0.1,0.3,0.5
	c0.2,0.1,0.2-0.4,0.4-0.2c0,0,0.1,0.1,0.1,0.1C1,22.1,0.9,22,0.9,22c0,0,0,0,0,0C0.7,21.8,0.8,21.6,0.3,21.7z M43.9,6.2l-0.2-0.3
	L43.6,6L43.9,6.2z M44.5,5.5c-0.1,0-0.2,0.1-0.2-0.1l0,0.5L44.5,5.5z M1.6,1.2l-0.5,0l0.1,0.1C1.3,1.4,1.4,1.4,1.6,1.2z M7.2,0.7
	L7.2,0.7l0,0.5L7.2,0.7z M10.7,0.1c-0.1,0-0.3,0.1-0.5,0.1C10.5,0.1,10.7,0.7,10.7,0.1z"/>
</svg>
