<svg width="100" height="84" viewBox="0 0 100 84" fill="none" xmlns="http://www.w3.org/2000/svg">
<path d="M1.71341 26.531C2.30305 24.2953 3.15661 22.1832 4.09441 20.0992C4.90867 18.2961 6.11603 16.8188 7.63785 15.6167C11.0914 12.8923 14.7303 10.5106 18.9196 9.12318C19.6159 8.89288 20.3066 8.62325 20.9692 8.29745C22.2327 7.67394 23.5468 7.35376 24.9451 7.37061C27.7079 7.3987 30.3192 6.5842 32.9361 5.80902C33.7728 5.56186 34.6713 5.52816 35.4911 5.24168C36.1201 5.02823 36.6704 4.56761 37.2657 4.2362C37.9002 3.8767 38.5123 3.41047 39.1974 3.2251C42.4208 2.34881 45.6497 1.45005 48.918 0.759136C52.4334 0.0176621 55.9824 0.135624 59.509 0.826542C60.1155 0.944503 60.7276 1.02314 61.3397 1.09055C66.1579 1.60172 70.7177 3.06781 75.0136 5.27538C77.5238 6.56734 79.888 8.17387 82.224 9.78601C82.9597 10.2972 83.4988 11.224 83.9031 12.0722C84.4085 13.1339 85.0599 13.9596 85.9584 14.6955C86.7783 15.3695 87.4465 16.2458 88.1541 17.0603C88.4854 17.4367 88.6876 17.9535 89.0638 18.268C90.4565 19.442 90.945 21.0991 91.3213 22.773C91.5122 23.6212 91.4673 24.5481 91.3831 25.43C91.2371 27.0421 90.9675 28.643 90.7934 30.2552C90.771 30.4855 90.9956 30.7495 91.1135 30.9966C91.3325 31.4348 91.7031 31.8505 91.7537 32.2998C91.8997 33.6255 91.5459 34.8388 90.7148 35.8949C90.0072 36.7936 89.4457 37.7766 89.3895 38.9731C89.3727 39.3101 89.339 39.664 89.4232 39.9786C89.7714 41.2368 90.0072 42.4839 89.412 43.8151C90.2431 43.9106 90.9226 43.9893 91.6021 44.0679C91.6021 44.1241 91.6021 44.1803 91.6021 44.2364C90.9563 44.2364 90.3049 44.1971 89.6647 44.2589C89.4457 44.2758 89.1368 44.4892 89.0694 44.6858C88.7325 45.6857 88.4573 46.708 88.1597 47.7247C88.1316 47.8146 88.1148 47.9045 88.0867 48.0281L99.2673 48.0281C99.2673 48.0674 99.2786 48.1067 99.2786 48.1404C97.8354 48.2584 96.3978 48.4213 94.9546 48.4831C92.7308 48.5729 90.5014 48.5786 88.272 48.6516C88.0474 48.6572 87.7105 48.7695 87.6206 48.9381C86.9131 50.2525 86.2617 51.5894 85.4979 53.0948C89.5355 53.2689 93.4215 53.4375 97.3075 53.606C97.3075 53.6341 97.3075 53.6621 97.3075 53.6902C94.6457 53.6902 91.9895 53.7071 89.3334 53.6846C88.126 53.6734 86.9187 53.5723 85.7113 53.5554C85.4867 53.5554 85.1778 53.6846 85.0543 53.8587C84.0997 55.1732 83.1843 56.5101 82.2184 57.8919C87.031 58.184 91.8828 58.4761 96.7347 58.7626C91.6975 59.2176 86.7109 58.4143 81.6906 58.3413C80.0564 59.6838 78.3493 61.0881 76.4625 62.6328C83.4482 63.4417 90.2263 64.2281 96.8526 64.9921C96.4539 64.9921 95.8868 65.0033 95.3252 64.9921C94.758 64.9752 94.1852 64.9752 93.6237 64.9078C88.3338 64.2675 83.0439 63.6271 77.754 62.9699C76.8162 62.8519 76.0244 62.9699 75.199 63.6102C73.2447 65.1213 71.0153 66.0144 68.522 66.2054C67.7639 66.2616 67.0339 66.6323 66.1522 66.9019C73.6996 67.8737 81.0953 68.8286 88.491 69.778C88.4798 69.8566 88.4742 69.9296 88.463 70.0083C85.8798 69.7162 83.291 69.4409 80.7078 69.1264C75.8672 68.5309 71.0266 67.9299 66.1859 67.2783C65.1751 67.1435 64.2766 67.3345 63.3557 67.6996C60.7444 68.7332 57.9984 69.087 55.2355 69.3567C54.7638 69.4016 54.2977 69.4971 53.8317 69.5814C53.7699 69.5926 53.7193 69.6544 53.5396 69.778C63.2714 71.1429 72.8853 72.2945 82.2521 74.9289C80.4944 74.6031 78.7424 74.2661 76.9791 73.9628C71.4477 72.9966 65.9164 72.0417 60.385 71.0924C57.8412 70.6599 55.3029 70.188 52.7478 69.851C51.9055 69.7386 51.0182 70.0307 50.1478 70.1094C47.8679 70.3228 45.5824 70.525 43.4709 70.716C51.0912 72.845 59.0429 74.4683 67.0339 75.8783C67.0227 75.9401 67.0114 76.0075 67.0002 76.0692C64.5799 75.6929 62.1371 75.4514 59.7505 74.9233C53.2982 73.4966 46.8683 71.935 40.4216 70.4576C39.5231 70.2554 38.5797 70.2442 37.6363 70.2386C40.6575 71.8957 44.0662 72.7663 46.5482 75.3727C46.4135 75.3165 46.2731 75.2772 46.1439 75.2098C43.572 73.9291 40.9551 72.7158 38.4337 71.3339C36.3784 70.2049 34.194 69.6431 31.9421 69.1488C27.635 68.2051 23.3896 66.9862 19.3014 65.301C16.4262 64.1158 13.7925 62.4924 11.7148 60.0545C10.9174 59.1221 9.97955 58.3244 9.21583 57.3695C7.57047 55.308 6.29572 53.0218 5.51516 50.4547C5.23438 49.5279 4.76267 48.646 4.63351 47.7023C4.54366 47.0563 4.30219 46.5732 3.9821 46.0789C3.90348 45.9553 3.80802 45.843 3.69009 45.77C1.88749 44.5735 1.23047 42.6805 1.06761 40.6807C0.826143 37.7879 0.820527 34.8725 0.769987 31.9628C0.741909 30.1035 1.23047 28.3341 1.69656 26.5478L1.71341 26.531ZM83.6897 51.9601C83.7403 51.9657 83.7908 51.977 83.8357 51.9882C84.066 51.5164 84.2962 51.0389 84.5264 50.5614C84.7511 50.0952 84.9757 49.6346 85.2733 49.0279C84.6556 49.3425 84.1951 49.5672 83.7515 49.8256C83.6616 49.8818 83.5886 50.0559 83.5942 50.1738C83.6111 50.7693 83.656 51.3647 83.6897 51.9601ZM80.5899 54.8361C80.9044 53.8531 81.2132 52.8645 81.5221 51.8815C81.421 51.8253 81.3199 51.7635 81.2189 51.7073C81.0223 51.9489 80.6966 52.1736 80.6517 52.4488C80.5281 53.224 80.5225 54.016 80.472 54.7968C80.5057 54.8137 80.545 54.8249 80.5843 54.8361L80.5899 54.8361ZM81.4716 50.1907C81.1964 50.275 80.8258 50.2806 80.6966 50.4603C80.5394 50.685 80.5787 51.0557 80.5225 51.404C81.275 51.3366 81.5839 51.0164 81.4716 50.1907ZM79.405 54.6115C79.478 54.6283 79.5454 54.6395 79.6184 54.6564C79.7139 54.0048 79.8093 53.3532 79.9048 52.7072C79.8206 52.696 79.742 52.6847 79.6577 52.6679C79.0849 53.2352 79.624 53.9879 79.405 54.6115ZM79.4163 52.0388C80.0452 51.8478 79.8711 51.4265 79.8093 51.0108C79.113 51.14 79.1748 51.5276 79.4163 52.0388ZM78.6469 53.1229C78.3661 53.342 78.0517 53.4655 78.0067 53.6509C77.7597 54.7126 77.5856 55.7855 77.3834 56.8527C78.3605 56.4651 78.8884 55.0047 78.6469 53.1229ZM76.1255 57.5998C76.4344 56.7909 76.7432 55.9877 77.0465 55.1788C77.0016 55.1563 76.9566 55.1282 76.9117 55.1002C76.5804 55.909 76.2491 56.7067 75.9234 57.5156C75.9907 57.5436 76.0581 57.5717 76.1255 57.5998ZM74.6486 58.2739C75.2102 57.0437 75.7661 55.8135 76.3951 54.4317C75.6257 54.544 75.345 54.8137 75.2214 55.3754C75.0586 56.1506 74.7722 56.9033 74.5475 57.6616C74.497 57.8357 74.4633 58.0211 74.4184 58.2009C74.4914 58.2289 74.57 58.2514 74.6486 58.2739ZM74.6374 53.7239C73.986 53.8812 73.6865 54.2763 73.7389 54.9092C74.643 54.6115 74.789 54.4148 74.6374 53.7239ZM73.0987 58.9592C73.5985 57.802 74.0028 56.5999 74.4352 55.4091C74.3566 55.3473 74.2724 55.2911 74.1938 55.235C73.9523 55.4484 73.5985 55.6169 73.4918 55.8866C73.0201 57.0718 72.6214 58.2851 72.1216 59.7063C72.5372 59.3973 72.9752 59.2513 73.0987 58.9592ZM72.9303 54.2969C72.6214 54.3811 72.3743 54.471 72.1272 54.516C71.5488 54.6171 71.4534 54.9597 71.3972 55.5327C71.3073 56.4539 71.0827 57.3807 70.8019 58.2683C70.5436 59.0996 70.1337 59.886 69.7743 60.7342C71.0546 60.3523 72.9359 56.4876 72.9303 54.2969ZM73.0763 53.2858C73.0089 53.1734 72.9415 53.0667 72.8741 52.9544C72.4024 53.2521 71.9307 53.5498 71.459 53.8475C71.4983 53.9149 71.5432 53.9936 71.5825 54.061C72.0823 53.8026 72.5765 53.5442 73.0763 53.2858ZM70.6559 54.9597C70.2516 55.2968 69.5441 55.5888 69.4879 55.9708C69.2296 57.9088 68.5108 59.6557 67.6628 61.3634C67.5674 61.5543 67.4831 61.7509 67.3427 62.0487C68.9657 61.369 71.0434 57.1111 70.6503 54.9541L70.6559 54.9597ZM66.0961 62.5654C67.2866 60.8971 68.1121 59.0378 68.7017 56.892C66.6857 58.6615 66.3319 61.2847 64.8326 63.2395C65.338 63.1047 65.8322 62.9249 66.0905 62.5654L66.0961 62.5654ZM65.5121 60.3916C63.6084 60.6387 63.4792 62.616 62.3224 63.7563C63.5915 63.7226 65.3773 61.7285 65.5121 60.3916ZM61.8507 63.4923C62.2494 62.9137 62.6481 62.3239 63.0524 61.7453C61.9349 61.8127 62.1315 62.8126 61.7047 63.3856C61.7552 63.4249 61.8058 63.453 61.8563 63.4923L61.8507 63.4923ZM61.0814 64.4416C61.0982 64.5315 61.1207 64.6157 61.1375 64.7056C61.7665 64.582 62.3954 64.4584 63.0244 64.3293C63.0019 64.2281 62.9794 64.127 62.957 64.0259C62.3336 64.1607 61.7047 64.3012 61.0758 64.436L61.0814 64.4416ZM60.239 65.6324C61.3285 65.3909 62.4123 65.1494 63.4961 64.9078C63.4792 64.846 63.468 64.7786 63.4511 64.7112C62.3561 64.9247 61.2667 65.1325 60.1716 65.346C60.1941 65.4415 60.211 65.537 60.2334 65.6324L60.239 65.6324ZM60.0593 64.2281C60.8567 64.1664 61.4913 63.3125 61.5475 62.2733C60.1436 62.7283 59.509 63.2058 60.0593 64.2281ZM57.9703 66.0425C58.5656 65.9189 59.1608 65.801 59.7561 65.6774C59.7392 65.61 59.7224 65.537 59.7112 65.4695C59.1159 65.565 58.5207 65.6605 57.9254 65.756C57.9423 65.8515 57.9591 65.947 57.976 66.0481L57.9703 66.0425ZM59.5989 63.2114C58.7453 63.3687 58.3054 63.7863 58.2792 64.4641C58.3522 64.5259 58.4196 64.5876 58.4926 64.6494C58.8239 64.2169 59.1608 63.7844 59.5932 63.2114L59.5989 63.2114ZM55.9993 64.9247C57.2965 65.0202 57.5772 64.8404 57.7569 63.7619C56.0723 63.6833 55.9431 63.7675 55.9993 64.9247ZM55.4321 63.8069C55.0278 63.7282 54.6234 63.6496 54.1405 63.5541C54.0956 64.2281 54.0563 64.7899 54.017 65.3572C55.1962 65.2954 55.2636 65.228 55.4321 63.8069ZM53.3094 64.4135C53.3487 64.1551 53.4442 63.863 53.3768 63.6327C53.2813 63.2957 53.1353 62.9081 52.8826 62.7115C52.5064 62.4138 52.0234 62.2621 51.5517 62.0318L51.5517 65.801C53.0736 65.874 53.1072 65.8515 53.315 64.4191L53.3094 64.4135ZM52.9275 66.5481C52.9107 66.4582 52.8995 66.3739 52.8826 66.2897C52.3884 66.3402 51.8269 66.0987 51.4731 66.8177C51.956 66.7278 52.439 66.6379 52.9275 66.5481ZM50.6532 66.4189C50.1366 66.4582 49.6424 66.4975 49.1483 66.5312C50.0804 67.1828 50.5465 67.1266 50.6532 66.4189ZM49.356 61.0769C49.4234 61.3016 49.3785 61.5543 49.3785 61.8015C49.3785 63.1721 49.3785 64.5483 49.3785 65.9582C49.6537 65.9582 50.0018 66.0257 50.2994 65.9358C50.5016 65.874 50.7712 65.5931 50.7824 65.3965C50.8385 64.0652 50.8835 62.7283 50.8385 61.3971C50.7992 60.2905 49.4234 59.6445 48.4912 60.195C48.0027 60.4815 47.4523 60.65 46.9582 60.9196C46.7111 61.0544 46.3405 61.2735 46.3236 61.4813C46.1888 62.9643 46.1327 64.4584 46.0485 65.9976L48.5698 65.9976L48.5698 61.9363C48.5698 61.6442 48.5249 61.3409 48.5923 61.0656C48.6485 60.8466 48.845 60.6668 48.9798 60.4702C49.1089 60.6724 49.2943 60.8578 49.3616 61.0825L49.356 61.0769ZM39.6972 67.4131C40.2812 67.4917 40.8765 67.4918 41.4661 67.5423C43.8808 67.7389 46.2843 67.7389 48.6541 67.0592C45.4981 67.1884 42.3478 66.8626 39.1413 66.9469C39.2929 67.1884 39.4838 67.3794 39.6972 67.4131ZM45.442 61.3465C44.813 61.3016 44.1111 61.2173 43.4035 61.2117C43.2294 61.2117 42.8981 61.4645 42.8981 61.5937C42.9093 62.8912 42.9599 64.1944 43.0497 65.492C43.061 65.6886 43.3193 66.02 43.4653 66.0257C44.1111 66.0313 44.7569 65.947 45.4027 65.8796C45.4251 65.8796 45.442 65.6999 45.442 65.6044C45.442 64.2057 45.442 62.807 45.442 61.3465ZM39.2087 66.0762C40.2588 66.1043 41.3089 66.0931 42.3366 66.0931C42.2523 64.9247 42.1737 63.8855 42.0951 62.807L38.473 62.807C38.6078 63.8237 38.7201 64.7674 38.8717 65.7111C38.8942 65.8571 39.0907 66.0706 39.2087 66.0762ZM39.0907 62.4643C39.8208 62.4812 40.5508 62.5037 41.2808 62.5205C42.1962 62.5374 42.2018 62.5374 42.1681 61.5656C42.1681 61.4757 42.1512 61.3802 42.1175 61.0993C41.1011 61.06 40.124 61.0376 39.1413 60.987C38.7089 60.9645 38.5404 61.1443 38.5741 61.5824C38.5966 61.9756 38.4618 62.4475 39.0907 62.4643ZM38.6752 67.43C38.7145 67.3176 38.7482 67.2109 38.7819 67.0985C38.5067 66.9693 38.2372 66.7503 37.9508 66.7166C37.0804 66.6267 36.1987 66.6098 35.3283 66.5649C34.222 66.5031 33.1158 66.4413 32.0151 66.3795C32.0151 66.4413 32.0039 66.5031 31.9983 66.5649C34.2276 66.8514 36.4514 67.1379 38.6808 67.4243L38.6752 67.43ZM37.9059 62.6609C37.0523 62.5205 36.2942 62.3969 35.3227 62.234C35.5024 63.4361 35.6484 64.5034 35.8337 65.5594C35.8618 65.7055 36.0639 65.9077 36.2043 65.9245C36.8445 65.9919 37.4959 66.0088 38.1923 66.0481C38.0799 65.3797 37.962 64.8629 37.9171 64.3349C37.8722 63.8068 37.9115 63.2732 37.9115 62.6609L37.9059 62.6609ZM37.8497 62.3351L37.8497 61.0263C37.2095 60.9814 36.648 60.9084 36.0808 60.9252C35.873 60.9308 35.5585 61.1106 35.4855 61.2847C35.3508 61.6218 35.4575 61.9532 35.9067 62.0206C36.5357 62.1161 37.159 62.2228 37.8497 62.3351ZM34.3287 65.7504C34.5983 65.7673 34.8678 65.7897 35.0924 65.801C34.9914 64.6551 34.9071 63.5822 34.778 62.5149C34.7555 62.3295 34.5814 62.0655 34.4242 62.015C33.8963 61.8464 33.346 61.7509 32.7227 61.6105C32.7227 62.3632 32.7227 63.0148 32.7227 63.6608C32.7227 63.9023 32.7002 64.1551 32.7564 64.3854C33.2449 66.4076 33.3797 66.4469 35.3452 66.2223C34.9296 66.1099 34.6039 66.0144 34.2782 65.9302C34.2894 65.874 34.3063 65.8122 34.3231 65.756L34.3287 65.7504ZM34.8341 60.8971C34.2389 60.8353 33.711 60.7679 33.1775 60.7455C33.0371 60.7398 32.8911 60.8915 32.7507 60.9758C32.8518 61.105 32.9361 61.3184 33.0652 61.3577C33.5987 61.515 34.149 61.6218 34.7443 61.7566C34.7724 61.4701 34.8004 61.2623 34.8397 60.9027L34.8341 60.8971ZM30.3641 65.7055C30.3866 65.8908 30.6674 66.1717 30.8583 66.1998C31.4704 66.2953 32.0937 66.2897 32.8855 66.3346C32.1555 65.346 31.9646 64.3967 31.9758 63.3799C31.9814 62.8688 31.9983 62.3576 31.9589 61.8521C31.9477 61.6723 31.8242 61.3971 31.6894 61.3465C31.184 61.1668 30.6561 61.0713 29.9036 60.8859C30.0609 62.5935 30.1844 64.1495 30.3641 65.6999L30.3641 65.7055ZM31.9702 60.869C31.8916 60.7792 31.8242 60.6163 31.7343 60.5994C31.2626 60.532 30.7853 60.4983 30.308 60.4534C30.2911 60.5208 30.2799 60.5882 30.263 60.6612C30.7404 60.7848 31.2177 60.9196 31.695 61.0207C31.7736 61.0376 31.8747 60.9252 31.9646 60.869L31.9702 60.869ZM27.0453 64.8966C27.0453 65.082 27.2419 65.3853 27.3991 65.4302C28.1516 65.6605 28.9322 65.8178 29.5106 65.9583C29.46 64.3798 29.4095 62.8519 29.3533 61.3184C29.3477 61.1106 29.3477 60.7679 29.241 60.723C28.5391 60.4084 27.8034 60.1557 27.0285 59.8692C27.0285 61.6892 27.0172 63.2901 27.0453 64.8966ZM26.276 65.0988L26.276 59.5546C25.7369 59.476 25.1585 59.3917 24.5913 59.3075C24.2824 60.9027 24.5857 62.7677 25.2876 64.363C25.5123 64.8741 25.6751 65.2786 26.276 65.0988ZM22.5192 63.144C22.9122 64.3124 23.5749 64.7337 24.6811 64.7225C24.4116 63.9023 24.0185 63.0429 23.8557 62.1442C23.7097 61.3465 23.8276 60.4983 23.7883 59.6782C23.777 59.4872 23.6367 59.1951 23.4906 59.1446C22.9572 58.9592 22.4012 58.8525 21.8172 58.712C21.6319 60.2905 22.0418 61.7285 22.5135 63.1496L22.5192 63.144ZM21.7667 63.863C21.5083 62.3295 21.1883 60.869 21.0423 59.3917C20.9187 58.1615 21.0142 58.1503 19.6552 57.7178C19.599 59.8411 20.1831 61.7004 21.2219 63.4249C21.3455 63.6271 21.6094 63.7451 21.7667 63.863ZM19.5204 63.0148C19.6608 63.2002 19.9191 63.2844 20.1213 63.4136C19.4587 61.6049 18.8409 59.9085 18.9982 58.0267C19.06 57.319 18.8353 56.8078 18.0885 56.409C18.0885 57.3751 18.0772 58.2627 18.0885 59.1446C18.1109 60.6107 18.6612 61.8745 19.5204 63.0148ZM16.853 60.7399C16.9092 61.9588 17.4764 62.5767 18.2962 62.734C18.0548 62.0992 17.7796 61.4701 17.5774 60.8129C17.0889 59.2007 17.3921 57.5549 17.4258 55.9147C17.4314 55.5439 17.2405 55.1732 17.1394 54.7968C17.0327 54.8249 16.9316 54.853 16.825 54.8811C16.825 56.8303 16.7576 58.7851 16.8474 60.7342L16.853 60.7399ZM15.4884 55.3754C15.5446 56.555 15.4772 57.7459 15.5502 58.9255C15.5895 59.6445 15.7917 60.3466 15.9489 61.2229C16.05 58.7682 16.1455 56.5213 16.2409 54.252C15.6344 54.3081 15.4547 54.7182 15.4884 55.381L15.4884 55.3754ZM14.6517 59.7119C14.691 59.7119 14.7247 59.7119 14.7696 59.7119L14.7696 54.6115C14.7303 54.6115 14.691 54.6115 14.6517 54.6115L14.6517 59.7175L14.6517 59.7119ZM13.8431 59.6726L13.8431 54.5553C13.4163 54.3587 13.0344 54.1789 12.5515 53.9486C12.6638 56.0101 13.0625 57.8863 13.8431 59.6726ZM12.1247 56.8246C12.1359 56.7404 12.164 56.6561 12.1584 56.5719C12.0854 55.4653 12.0573 54.3531 11.9169 53.2577C11.8495 52.7241 11.5912 52.2129 11.3666 51.7074C11.3161 51.5894 11.0634 51.5107 10.9061 51.5164C10.8331 51.5164 10.704 51.7635 10.704 51.8983C10.6871 53.6734 11.3554 55.2574 12.1247 56.8246ZM11.0521 56.8359C11.0577 56.5887 10.9679 56.3753 10.9174 56.1506C10.6197 54.8418 10.2603 53.5386 10.075 52.2129C9.99078 51.6062 9.87285 51.3141 9.12598 51.404C9.18775 53.4543 9.85601 55.2406 11.0577 56.8415L11.0521 56.8359ZM8.53073 53.3364C8.6262 53.3083 8.72728 53.2802 8.82274 53.2521C8.27803 52.4151 8.94628 51.3928 8.19379 50.5109C7.58731 49.7975 7.08752 49.0055 6.20026 48.5617C6.97521 50.1514 7.75016 51.7411 8.53073 53.3364ZM3.82487 40.8268C3.88102 41.0796 4.02141 41.3211 4.15057 41.5514C5.04907 43.1636 6.13849 44.6128 7.55924 45.7868C7.78386 45.9722 7.97479 46.253 8.08148 46.5283C8.62619 47.9213 9.65946 48.6741 11.069 48.4718C12.1359 48.3202 12.5234 48.7752 12.8098 49.6346C12.8772 49.8368 13.0007 50.0222 13.1018 50.2132C13.7532 51.3928 14.2474 51.6175 15.5446 51.2467C16.4768 50.9715 17.291 51.3141 18.0716 51.7242C18.6669 52.0388 19.1779 52.5162 19.7282 52.9151C19.6945 52.9375 19.5429 53.0386 19.1723 53.2746C19.7057 53.5498 20.0539 53.8138 20.447 53.9037C20.8569 53.9992 21.3006 53.9262 21.7274 53.9262C21.7274 54.0104 21.7274 54.1003 21.733 54.1845C21.295 54.252 20.8569 54.3194 20.374 54.398C21.104 55.4709 22.1429 55.454 23.3783 55.3305C23.0358 55.5832 22.9066 55.6843 22.7775 55.7855C22.7831 55.8641 22.7887 55.9371 22.7943 56.0214C26.1131 56.3191 29.3309 57.4482 32.7507 57.2291C32.5935 57.3021 32.4363 57.3807 32.1499 57.5212C32.4082 57.5549 32.5261 57.5717 32.6441 57.583C35.3508 57.8694 38.0631 58.1391 40.7642 58.4424C42.2242 58.6053 43.6674 58.8862 45.1275 59.0097C45.9811 59.0771 46.7672 58.7682 47.5141 58.2514C48.1768 57.7908 48.9798 57.5212 49.7435 57.2347C49.9232 57.1673 50.2658 57.3021 50.4118 57.4594C51.0295 58.1559 51.5798 58.903 52.1919 59.6052C52.5457 60.0152 52.9219 60.4253 53.3599 60.7342C54.8031 61.7453 56.3587 61.515 57.8468 60.914C59.6494 60.1894 61.4015 59.3187 63.1816 58.5323C64.1026 58.1278 64.827 57.5436 65.3773 56.6617C65.9557 55.7405 66.6745 54.9429 67.7078 54.4879C68.0784 54.325 68.5052 54.0834 68.6961 53.7464C70.0326 51.3928 71.9868 50.0671 74.6262 49.7526C74.9968 49.7076 75.3506 49.5223 75.7156 49.4268C77.5687 48.9493 79.4106 48.3876 81.2862 48.0281C82.7968 47.736 83.993 47.0057 85.1441 46.0115C86.2841 45.0285 86.3908 43.5455 87.031 42.3322C87.323 41.7817 87.4971 41.1694 87.6936 40.574C87.7498 40.4111 87.7722 40.164 87.6936 40.0348C86.8737 38.7203 86.9692 37.4284 87.7161 36.142C88.1036 35.4792 88.4686 34.7827 88.9571 34.2041C89.7433 33.2604 89.3334 30.4181 88.1092 30.0305C88.0362 30.2889 87.9688 30.5417 87.8677 30.9068C87.8003 30.6708 87.7554 30.5585 87.7385 30.4405C87.7161 30.3001 87.6936 30.1484 87.6992 30.008C87.7779 27.8959 87.1433 25.9805 86.1044 24.211C85.7619 23.6212 85.2003 23.1719 84.7735 22.6326C84.6668 22.4978 84.6893 22.245 84.6556 22.0484C84.7679 22.0091 84.8802 21.9698 84.9981 21.9304C86.0258 23.6774 87.0534 25.4244 87.9632 26.9859C88.1822 26.0535 88.4854 24.8907 88.7157 23.7111C88.9964 22.2675 89.0133 20.8688 87.8452 19.7285C87.542 19.4364 87.323 19.0376 87.1377 18.6444C86.5537 17.4086 85.6327 16.493 84.6219 15.6335C83.7515 14.8921 82.8361 14.145 82.1679 13.2294C81.4716 12.2744 80.6292 11.6846 79.5847 11.3027C77.6136 10.5893 75.6931 9.69052 73.5817 9.43774C75.9964 9.58941 78.2033 10.5724 80.5225 11.2409C79.9778 10.6061 79.4275 9.97138 78.7592 9.51077C78.2651 9.16812 77.6024 9.09509 77.0633 8.80861C72.4922 6.38759 67.6516 5.33155 62.5133 5.69667C61.8395 5.74161 61.1656 5.85396 60.4973 5.93821C60.4861 5.87643 60.4805 5.81464 60.4749 5.75285C61.2611 5.62927 62.0472 5.47198 62.839 5.38773C63.6084 5.30909 64.3889 5.30347 65.1639 5.25853C62.2269 3.9104 59.0822 4.53391 56.0554 4.17441C56.0554 4.11262 56.0554 4.05083 56.0554 3.98904C57.3358 3.92725 58.6217 3.87108 59.9021 3.80929C57.4705 2.74763 54.9491 2.86559 52.3491 2.98917C52.4671 2.85998 52.5457 2.77572 52.6692 2.64652C52.2649 2.64652 51.9055 2.59597 51.5686 2.65776C48.8394 3.11837 46.1102 3.60707 43.381 4.06768C40.8877 4.48897 38.6415 5.48884 36.5974 7.03919C37.086 7.03919 37.5801 7.02796 38.0743 7.03919C38.5966 7.05604 39.1188 7.05043 39.6355 7.12907C40.0791 7.19647 40.5059 7.37623 40.9383 7.51104C37.7093 7.51104 34.5365 7.3032 31.4816 8.42103C31.4816 8.51091 31.4816 8.59516 31.4929 8.68504L38.254 8.68504C38.254 8.79738 38.254 8.90973 38.254 9.02207C37.2657 9.02207 36.2773 8.9996 35.289 9.02769C33.6998 9.06701 32.1162 9.15689 30.5326 9.19621C28.9771 9.23553 27.4833 9.71861 25.9053 9.7804C24.1926 9.8478 22.5135 10.623 20.8064 10.9993C18.1053 11.5948 15.4435 12.2464 13.2703 14.1506C13.04 14.3528 12.7593 14.4989 12.4841 14.6449C7.17737 17.5434 4.21796 22.1776 3.005 28.0925C2.11773 32.4178 2.93761 36.6251 3.86418 40.8268L3.82487 40.8268ZM95.3196 81.2427C94.9433 82.0347 95.196 82.7818 95.8025 83.0571C96.9537 83.5851 98.8125 83.0346 99.4807 81.9392C99.8008 81.4112 99.9019 80.8551 99.4302 80.3383C98.9079 79.7598 98.0151 79.507 97.5097 79.8103C97.358 79.9058 97.2626 80.1024 97.066 80.3496C97.6332 80.4956 98.0375 80.5406 98.3969 80.6978C98.9922 80.9618 99.0259 81.2764 98.5766 81.737C97.9421 82.3886 97.1503 82.4392 96.336 82.3044C96.2125 82.2875 96.0047 81.9561 96.044 81.8494C96.2237 81.3719 96.4876 80.9281 96.701 80.4619C96.774 80.3046 96.7965 80.1249 96.8358 79.9507C96.6673 79.9564 96.4259 79.889 96.3416 79.9844C95.971 80.3777 95.5498 80.7652 95.3196 81.2427ZM81.4996 39.0574C81.713 39.1248 81.9713 39.3607 82.0275 39.5685C82.2802 40.574 82.488 41.5963 82.6733 42.6243C82.7238 42.8995 82.6396 43.2029 82.6115 43.495C82.7182 43.4893 82.8249 43.4837 82.9316 43.4725C83.3809 41.9502 83.0551 40.4954 82.2802 39.1079C82.6227 38.8271 82.9091 38.5911 83.2405 38.3215C83.9873 39.6865 84.0772 41.1245 84.0323 42.6468C84.2681 42.3884 84.5208 42.085 84.4927 41.8042C84.4029 40.8493 84.2737 39.8887 84.0547 38.9563C83.8975 38.2878 83.5999 37.6531 83.3303 37.0183C83.2517 36.8386 83.0327 36.7206 82.8024 36.5015C82.7014 36.9734 82.7182 37.361 82.5385 37.5969C82.3588 37.8272 81.977 37.8946 81.6849 38.035C81.5839 37.7766 81.4547 37.5295 81.3929 37.2655C81.3649 37.1475 81.4716 36.9902 81.5052 36.8554C81.6232 36.3442 81.4266 36.1083 80.9156 36.1701C80.5001 36.2207 80.0789 36.2993 79.6577 36.3274C79.259 36.3611 78.8884 36.3105 78.821 35.7713C78.8042 35.6533 78.6918 35.5522 78.6245 35.4399C78.5571 35.4399 78.4897 35.4511 78.4167 35.4511C78.4054 35.7488 78.2875 36.0971 78.3942 36.3442C78.7536 37.1531 79.5398 36.9341 80.2249 36.9846C80.2305 37.1082 80.2417 37.2037 80.2417 37.2936C80.2024 38.5911 80.2979 38.6922 81.5052 39.0574L81.4996 39.0574ZM73.986 39.1978C74.0253 39.5573 74.2106 40.0067 74.4802 40.2089C75.1316 40.6976 75.9627 40.5403 76.7545 39.9112C77.0352 40.2857 77.5706 40.4486 78.3605 40.3999C78.383 40.5122 78.4167 40.6246 78.4167 40.7425C78.4167 40.9054 78.4054 41.0683 78.3942 41.3492C78.2145 41.1413 78.1078 41.0178 78.0011 40.8886C77.945 40.911 77.8888 40.9279 77.8327 40.9504C78.0292 42.0513 78.2201 43.1523 78.4167 44.2533C78.4841 44.2533 78.5571 44.2477 78.6245 44.2421C78.9389 43.2759 79.2534 42.3097 79.5791 41.3042C79.4556 41.2874 79.259 41.2649 79.0175 41.2312C78.9951 40.8436 78.9782 40.4673 78.9614 40.0965C79.2141 40.0235 79.4106 40.0011 79.5735 39.9112C79.888 39.737 79.888 39.5517 79.5903 39.3101C79.3601 39.1248 79.1411 38.8832 79.0232 38.6136C78.8659 38.2541 78.6694 38.08 78.3156 38.271C77.8551 38.5237 77.4115 38.8214 76.9959 39.0854C76.8162 38.9169 76.586 38.7147 76.4063 38.5462C76.2996 38.9619 76.3108 39.3944 76.1311 39.5124C75.8504 39.6865 75.4292 39.7202 75.0866 39.6753C74.3061 39.5629 74.9294 38.8608 74.6711 38.4732C74.1769 38.4563 73.9467 38.8158 73.986 39.1978ZM64.8045 44.5903C64.7483 44.6128 64.6922 44.6353 64.6304 44.6577C65.5065 46.972 66.0119 49.2919 65.0797 51.6399C65.2313 52.8589 65.3885 54.0722 65.5458 55.3529C65.6525 55.1058 65.8378 54.8755 65.8322 54.6508C65.8153 53.9542 65.849 53.2128 65.6244 52.578C65.3829 51.8815 65.4952 51.4546 66.1916 50.9546C66.2758 51.668 66.4162 52.2972 66.4162 52.9263C66.4162 53.5498 66.2758 54.1733 66.1972 54.7968C66.506 54.5103 66.8373 54.1565 66.8261 53.8138C66.7924 52.8139 66.6408 51.8085 66.506 50.8142C66.4218 50.23 66.1859 49.6627 66.1691 49.0841C66.1242 47.7023 65.8939 46.3935 65.2257 45.1745C65.1077 44.9667 64.9449 44.7869 64.7989 44.5903L64.8045 44.5903ZM5.8577 32.1089C4.7739 33.3952 4.13373 38.6192 5.04907 39.8887C5.08838 36.8273 5.87456 34.1198 7.51992 31.682C6.06549 32.6313 5.67801 34.2546 5.01537 35.6983C4.94798 35.6758 4.88059 35.6533 4.81321 35.6252C5.16137 34.4456 5.50954 33.2716 5.8577 32.1089ZM7.91863 34.1311C6.00933 36.5015 5.16699 39.2147 5.46462 42.2817C5.48708 42.5457 5.72293 42.7928 5.85771 43.0512C5.54323 39.7033 6.55404 36.7936 8.31733 34.0861C8.26118 34.0524 8.19941 34.0243 8.14325 33.9906C8.06463 34.0412 7.97479 34.0693 7.91863 34.1367L7.91863 34.1311ZM13.0962 39.3719C11.7428 41.3155 11.0577 43.4444 11.4396 45.8486C11.4733 46.0677 11.6698 46.2586 11.7934 46.4609C11.8495 46.4496 11.9057 46.4328 11.9619 46.4215C11.6474 43.7927 12.3381 41.4166 13.742 39.2203C13.669 39.1697 13.596 39.1192 13.5174 39.0686C13.3714 39.1697 13.186 39.2371 13.0906 39.3719L13.0962 39.3719ZM16.1735 43.9612C16.0051 45.343 15.9321 46.7417 15.8815 48.1348C15.8703 48.41 16.1455 48.6965 16.2859 48.9774C16.3476 48.9549 16.4094 48.9268 16.4712 48.8987C16.6509 46.7642 16.0331 44.4668 17.6785 42.5457C17.3528 42.5625 17.0046 42.5962 16.8362 42.7984C16.5498 43.1355 16.2185 43.5455 16.1735 43.9612ZM22.0137 45.8317C21.8621 47.2697 21.7779 48.7134 21.7049 50.157C21.6937 50.3985 21.8958 50.6569 21.9969 50.9041C22.0587 50.8872 22.1204 50.8648 22.1822 50.8479C22.3675 48.7358 22.0699 46.5339 23.2379 44.5229C22.9684 44.5398 22.6764 44.5791 22.5472 44.7532C22.3114 45.0734 22.0474 45.4554 22.0081 45.8374L22.0137 45.8317ZM13.3489 45.2532C13.2366 46.1463 13.0513 47.1406 13.9329 48.0393C13.815 45.7025 13.9722 43.5961 15.2863 41.748C13.8206 42.4783 13.5174 43.8601 13.3433 45.2532L13.3489 45.2532ZM65.6356 41.5065C65.6356 41.3042 65.849 41.1076 65.9332 40.956C66.36 41.0796 66.6745 41.1694 66.9833 41.2593C67.2978 41.3492 67.6628 41.3773 67.9155 41.5626C68.1458 41.7312 68.4041 42.085 68.376 42.3266C68.3479 42.5906 68.0559 42.9445 67.8032 43.04C66.7812 43.4332 65.6019 42.5794 65.6356 41.5009L65.6356 41.5065ZM67.646 42.3715C67.6628 42.2985 67.6797 42.2255 67.6965 42.1581C67.2922 42.0233 66.8823 41.8884 66.4723 41.7536C66.6745 42.5176 67.1518 42.467 67.646 42.3715ZM57.5885 55.1956C58.852 53.5105 58.3859 51.5613 58.4308 49.6627C58.6554 49.4942 58.9025 49.3088 59.2844 49.0279C58.8464 48.983 58.5993 48.9549 58.3578 48.9324C58.2455 48.674 58.15 48.4381 58.049 48.2022C57.8805 50.5614 58.3017 52.9038 57.5829 55.2013L57.5885 55.1956ZM85.6776 31.9235C86.1999 32.9009 86.7109 33.8614 87.2219 34.8107C87.9519 33.002 86.7783 29.5418 85.5204 28.6992C86.1381 30.1316 86.8513 31.4011 86.9748 32.9739C86.4245 32.6425 86.3234 31.8224 85.6776 31.9291L85.6776 31.9235ZM8.86205 37.2711C7.81193 39.0855 7.33461 41.0515 7.50869 43.1579C7.53677 43.495 7.76139 43.8095 7.89617 44.1353C7.95232 44.1185 8.00848 44.096 8.05902 44.0735C7.69401 41.5851 8.31172 39.2708 9.3843 37.0071C9.18775 37.0071 9.12598 36.9902 9.0979 37.0071C9.00805 37.0857 8.91821 37.1644 8.85643 37.2655L8.86205 37.2711ZM69.4317 44.6577C69.0555 45.0959 68.8028 45.3655 68.5894 45.6632C68.5557 45.7082 68.7579 45.9946 68.7691 45.9946C69.0106 45.8767 69.2464 45.7419 69.5272 45.5733C69.6901 46.8878 69.6114 48.1741 69.0892 49.438C70.3022 48.5729 70.3246 44.1747 69.078 42.8378C69.2296 43.6242 69.3531 44.2589 69.4317 44.6577ZM45.5318 52.3702C45.4813 52.5218 45.4195 52.696 45.4307 52.8533C45.515 53.6902 45.6048 54.5272 45.7396 55.3585C45.7789 55.6057 45.9754 55.8248 46.1046 56.0607C46.0372 53.9542 46.683 51.8646 45.9361 49.8368C45.8351 50.3985 45.8688 50.9659 45.8238 51.5276C45.8014 51.8197 45.6273 52.0893 45.5318 52.3758L45.5318 52.3702ZM60.3401 54.7912C61.671 53.8363 61.963 48.7976 60.8118 46.9776C61.0084 49.6009 61.5418 52.241 60.3401 54.7912ZM9.72123 44.5903C9.72123 42.13 10.3109 39.9224 11.7709 37.8553C10.0694 38.49 8.64304 43.3096 9.72123 44.5903ZM30.044 47.5338C29.387 48.91 29.4319 50.3929 29.5218 51.859C29.5555 52.3758 29.9598 52.6286 30.336 52.6061C29.6846 50.6232 30.0946 48.7246 30.8808 46.8541C30.8021 46.7979 30.7235 46.7417 30.6449 46.6856C30.4427 46.9664 30.19 47.2248 30.044 47.5338ZM79.5623 39.9617C79.9722 41.3211 80.3428 42.5457 80.7135 43.7702C81.64 42.6973 81.2469 41.5402 81.0841 40.3943C81.0111 40.383 80.9381 40.3662 80.8651 40.3549C80.7584 40.5684 80.6517 40.7818 80.5562 40.9728C80.2193 40.6358 79.9048 40.3156 79.5566 39.9674L79.5623 39.9617ZM41.4549 49.0055C41.1629 51.0221 40.8428 52.9038 41.118 54.8361C41.7245 53.8812 42.0052 49.6346 41.4549 49.0055ZM33.0428 48.0281C31.9926 49.4492 31.841 51.0951 32.0039 52.7802C32.032 53.1117 32.4475 53.4038 32.7451 53.7913C32.6441 52.8476 32.4194 52.123 32.5261 51.4602C32.7058 50.3592 33.0989 49.2919 33.4022 48.2134C33.4415 48.073 33.4695 47.9326 33.5089 47.7641C33.3853 47.7697 33.3235 47.7584 33.2955 47.7809C33.2056 47.8539 33.1101 47.9326 33.0428 48.0225L33.0428 48.0281ZM64.6416 21.4193C64.7764 21.0036 64.5799 20.8126 64.1924 20.6947C63.8835 20.5992 63.614 20.3857 63.322 20.2341C63.1704 20.1554 63.0131 20.0936 62.8559 20.0262C62.811 20.1947 62.7267 20.3632 62.7323 20.5318C62.7436 20.8014 62.8166 21.0654 62.8727 21.3631C63.1367 21.3856 63.4455 21.4137 63.7544 21.4418C63.7544 21.526 63.7656 21.6103 63.7712 21.6945C63.176 21.7844 62.5863 21.8743 61.89 21.9754C62.7211 22.7281 64.3496 22.3574 64.6473 21.4193L64.6416 21.4193ZM55.1906 50.3648C54.9211 50.4716 54.7077 50.5558 54.4887 50.6457C54.4887 50.7187 54.4999 50.7861 54.5055 50.8591C54.7807 50.9266 55.0558 50.9883 55.3872 51.067C55.5781 52.6398 55.7578 54.207 55.0839 55.8641C56.2857 54.8249 56.2014 50.4042 55.0278 49.2976C55.0839 49.6964 55.1401 50.0447 55.1906 50.3648ZM80.2193 30.5641C80.3484 30.4125 80.4439 30.0698 80.3653 29.9238C80.0957 29.4463 79.669 29.1486 78.967 29.0419C79.1355 29.4688 79.2422 29.7384 79.3545 30.0193C79.0812 30.023 78.6694 29.5717 78.1191 28.6655C77.6923 29.3227 77.7203 29.9799 78.1696 30.3844C78.6413 30.8113 79.888 30.9461 80.2193 30.5585L80.2193 30.5641ZM18.5939 46.3148C18.5939 47.3428 18.2232 48.5055 19.1779 49.3481C18.9982 47.472 19.0206 45.6295 19.5878 43.8095C18.6444 44.405 18.5995 45.3992 18.5995 46.3148L18.5939 46.3148ZM25.1304 45.5677C24.3386 46.1295 24.0297 50.084 24.771 51.1344C24.8889 49.3088 25.0069 47.4832 25.1304 45.5677ZM71.4421 41.8267C71.3747 41.8491 71.3073 41.8716 71.24 41.8941L71.24 47.2641C71.24 47.2641 71.3804 47.2417 71.4028 47.1686C71.5825 46.6125 71.8352 46.0508 71.8745 45.4835C71.9251 44.6802 71.9082 43.8938 72.4305 43.2197C72.4473 43.1973 72.408 43.1298 72.3912 43.0512L71.9363 43.0512C71.7622 42.6131 71.605 42.2199 71.4477 41.8267L71.4421 41.8267ZM28.8591 28.5588C28.8367 26.4523 29.7801 24.9132 31.5322 23.8515C29.5779 23.8291 27.9045 26.8287 28.8591 28.5588ZM27.5114 46.9608C26.7814 47.7922 26.3714 50.8311 26.8488 51.8365C27.0902 52.3421 27.4103 52.5331 27.8259 52.4769C26.5287 50.6906 27.3317 48.8032 27.6967 46.9271C27.59 46.9439 27.5282 46.9327 27.5058 46.9552L27.5114 46.9608ZM52.9556 49.556L52.9556 55.0552C53.6183 54.3531 53.6632 50.6401 52.9556 49.556ZM75.3506 36.6588C76.2154 36.0634 76.659 36.6307 77.1419 37.1756C77.2823 37.3329 77.5743 37.3441 77.799 37.4227C77.8102 37.1644 77.9337 36.8273 77.8158 36.6588C77.5463 36.2712 77.2149 35.8892 76.8219 35.6533C76.0413 35.1871 75.3169 35.6365 75.345 36.6588L75.3506 36.6588ZM75.6201 43.5961C75.3281 43.4613 75.1765 43.3882 75.008 43.3096C75.5134 44.3263 75.9795 45.2812 76.5467 46.4215C76.5467 46.0564 76.5972 45.8879 76.5411 45.7812C76.0076 44.8206 76.1761 43.7702 76.1087 42.7479C76.0862 42.3659 75.9907 41.9896 75.8897 41.6188C75.8504 41.4728 75.6931 41.3604 75.4573 41.0683C75.519 42.0345 75.5696 42.7703 75.6257 43.6017L75.6201 43.5961ZM48.2498 50.0727C48.5418 51.9489 48.8113 53.6678 49.0753 55.3922C49.7491 54.6395 49.2886 51.2355 48.2498 50.0727ZM36.1482 48.6965C35.2834 49.5447 35.1205 52.4376 35.8618 53.4543C35.9685 51.7298 36.0583 50.2132 36.1482 48.6965ZM61.8282 43.7646C61.4295 44.6858 61.9406 45.2981 63.1198 45.2307C63.4231 45.2138 63.7825 45.0172 63.979 44.7813C64.0857 44.6577 63.979 44.1747 63.8162 44.0286C63.5635 43.8039 63.1872 43.7365 62.8615 43.6017C62.8334 43.6691 62.811 43.7365 62.7829 43.7983C62.9851 44.0174 63.1872 44.2364 63.4062 44.4724C62.8596 44.6222 62.416 44.3151 62.0753 43.5511C61.9855 43.6298 61.8619 43.6803 61.8226 43.7702L61.8282 43.7646ZM62.5751 46.6856C62.7773 47.7753 63.0356 48.8594 63.1591 49.9548C63.2883 51.0782 63.2827 52.2185 63.3501 53.5554C64.0408 52.1062 63.4511 47.4607 62.5751 46.6856ZM42.651 52.4039C42.5836 52.4095 42.5163 52.4151 42.4432 52.4207C42.5331 54.1396 42.6286 55.8529 42.7184 57.5717C42.8083 57.5661 42.9037 57.5605 42.988 57.5549C43.308 55.8079 43.0273 54.1059 42.651 52.4039ZM39.4108 48.6909C38.473 49.5391 38.4843 52.3927 39.4108 53.0948L39.4108 48.6909ZM83.6504 35.2152C84.8746 36.2768 85.0936 37.7879 85.3126 39.3832C85.964 38.5181 85.5148 36.6083 84.4927 35.4006C84.1277 34.968 84.0884 34.9624 83.6504 35.2152ZM73.1661 43.3377C73.3627 43.4669 73.5592 43.5961 73.7557 43.7309C73.8175 43.7309 73.8793 43.7309 73.9467 43.7197L73.9467 45.6688C74.6486 44.6577 74.4633 41.6694 73.7333 41.1301C73.767 41.5851 73.8231 41.9896 73.8231 42.3996C73.8231 42.5962 73.767 42.8265 73.6547 42.9782C73.5424 43.1355 73.329 43.2197 73.1605 43.3321L73.1661 43.3377ZM33.2898 23.4415C33.2618 23.6325 33.2393 23.7841 33.2225 23.9414C33.8795 23.7785 34.5421 23.6156 35.1991 23.4527C35.4743 23.3853 35.7551 23.3348 36.019 23.2449C38.4393 22.3967 40.7923 21.4024 43.0385 20.1273C43.6955 19.751 44.5154 19.6611 45.2679 19.4813C47.5478 18.9421 49.8053 18.9926 52.0796 19.6442C53.534 20.0599 54.6964 20.8295 55.6904 21.9642C55.96 22.2787 56.3306 22.5146 56.6844 22.7393C57.7569 23.4303 58.268 24.4975 58.3522 25.7108C58.4364 26.8905 58.3803 28.0982 58.2287 29.2665C58.1444 29.9013 57.7345 30.4967 57.42 31.2157C57.6166 31.2663 57.8412 31.3505 58.0658 31.3618C58.515 31.3899 58.9699 31.3337 59.4135 31.4011C60.1155 31.5134 60.2952 31.8617 60.0762 32.6537L61.817 32.6537C61.8226 32.738 61.8339 32.8222 61.8451 32.9065C61.1488 32.9964 60.4524 33.1705 59.7561 33.1593C58.6049 33.1424 57.4537 33.0076 56.2969 32.9234C56.0161 32.9065 55.7241 32.884 55.4433 32.9346C53.7755 33.2492 52.1189 33.6311 50.4398 33.9064C48.9236 34.1591 47.6377 34.822 46.4472 35.7994C45.9249 36.2263 45.2679 36.4847 44.6726 36.8217C44.6109 36.7543 44.5435 36.6869 44.4817 36.6195C45.077 35.8499 45.6666 35.0804 46.3348 34.2097C45.5936 34.1311 44.8636 34.1479 44.1897 33.9625C42.3759 33.4626 40.6463 33.6424 38.9167 34.3501C38.108 34.6815 37.2488 34.9006 36.4065 35.1478C36.1482 35.2208 35.873 35.2208 35.5754 35.159C36.7715 34.1591 38.2877 33.9457 39.7197 33.2323C38.6976 32.8672 37.6925 32.4178 36.648 32.1594C35.1767 31.7943 33.8009 31.3674 32.7339 30.1372C31.4255 28.6318 31.549 26.8511 32.2341 25.5479C32.5205 24.9975 32.8631 24.4807 33.1831 23.947C31.7736 24.8458 31.5265 26.2894 31.5546 27.9634C30.5607 26.4355 31.7736 24.1268 33.2786 23.4303L33.2898 23.4415ZM42.4713 22.2619C42.1962 22.5989 41.8592 22.818 41.8536 23.0483C41.8255 24.9357 41.8536 26.8231 41.8929 28.7104C41.8929 28.8565 42.0502 29.0025 42.1344 29.143C42.2467 28.9969 42.4545 28.8509 42.4545 28.6992C42.4769 26.6433 42.4713 24.5874 42.4713 22.2563L42.4713 22.2619ZM43.2294 22.2169L43.2294 28.8958C43.5664 28.8509 43.7966 28.8228 43.8584 28.8172C43.937 26.5141 44.01 24.2897 44.083 21.9979C43.8415 22.0596 43.4765 22.1551 43.2238 22.2169L43.2294 22.2169ZM44.8411 21.9585C44.7681 24.2167 44.6951 26.4186 44.6221 28.7385C45.2735 28.6711 45.7508 28.6206 46.172 28.5756C45.7957 26.3119 45.9642 24.1436 46.1776 21.8855C45.7508 21.908 45.3858 21.9305 44.8355 21.9585L44.8411 21.9585ZM46.8459 22.0316C46.6718 24.138 46.5539 26.2445 46.829 28.4015C47.0256 28.4015 47.1379 28.4127 47.2502 28.3959C47.385 28.3734 47.5085 28.3116 47.6994 28.2498C47.4748 26.1602 47.2614 24.0875 47.0424 22.0203C46.975 22.0203 46.9132 22.0316 46.8459 22.0316ZM49.1202 23.228C48.9966 21.981 48.9405 21.9866 47.7275 22.0428C47.6826 22.0428 47.6377 22.0653 47.6826 22.054C47.9016 24.138 48.1094 26.1546 48.3228 28.1824C49.1819 28.1206 49.283 28.0701 49.283 27.0646C49.283 25.7839 49.2437 24.4975 49.1146 23.228L49.1202 23.228ZM50.1759 22.6944C50.1647 22.509 49.9064 22.3405 49.766 22.1664C49.7042 22.2113 49.648 22.2619 49.5863 22.3068C50.1029 24.138 50.3051 25.9805 49.8727 27.8566C49.94 27.9184 50.0018 27.9746 50.0636 28.0308C50.1928 27.8398 50.4455 27.6432 50.4342 27.4522C50.3837 25.8625 50.2938 24.2728 50.1759 22.6888L50.1759 22.6944ZM52.1133 26.5534C52.001 25.4525 51.81 24.3571 51.7314 23.2561C51.6753 22.4978 51.2485 22.4809 50.6925 22.4922C51.2597 24.4694 51.3833 26.1995 51.0744 27.8173L52.1245 27.8173C52.1245 27.3679 52.1582 26.9523 52.1189 26.5534L52.1133 26.5534ZM55.8533 24.6717C56.5664 26.1546 56.5945 27.6881 56.1621 29.2553C56.1003 29.48 56.0891 29.7159 56.033 30.0867C56.2463 29.935 56.3081 29.9013 56.353 29.8507C56.398 29.8002 56.4429 29.7272 56.4541 29.6654C56.7967 27.8959 57.0325 26.1265 56.1228 24.4582C56.0161 24.2672 55.6623 24.211 55.3984 24.1099C55.5612 24.2953 55.7578 24.4638 55.8589 24.6773L55.8533 24.6717ZM54.3427 28.4352C54.4157 28.4183 54.4887 28.3959 54.5561 28.379C54.6459 26.9129 54.5954 25.4805 53.5059 24.1998C53.8092 24.1436 54.118 24.1156 54.3539 24.2335C54.6291 24.3739 54.8368 24.6436 54.9435 24.7334C55.0615 24.5481 55.2019 24.3178 55.3479 24.0818C54.382 23.6437 53.4217 23.2056 52.4558 22.7674C52.3997 22.8517 52.3379 22.9303 52.2817 23.0146C52.7928 23.8628 53.4273 24.6604 53.7755 25.576C54.118 26.4692 54.1686 27.4746 54.3483 28.4296L54.3427 28.4352ZM41.7638 31.4067C45.6947 31.4516 49.6256 32.1313 53.5565 31.1652C51.81 30.4068 49.985 30.1372 48.1094 30.2833C46.8627 30.3788 45.6217 30.581 44.3806 30.7551C43.4934 30.8843 42.6173 31.0472 41.7357 31.1876C41.7469 31.2607 41.7525 31.3281 41.7638 31.4011L41.7638 31.4067ZM40.5957 28.1937C40.5957 28.688 40.5957 29.1767 40.5957 29.6766C40.6687 29.6991 40.7473 29.7272 40.8203 29.7552C40.927 29.5418 41.1292 29.3227 41.1348 29.1036C41.1573 27.1264 41.1517 25.1491 41.1517 23.1045C40.7024 23.1325 40.5452 23.4078 40.5564 23.9133C40.5901 25.3401 40.5901 26.7669 40.5957 28.1937ZM38.8437 24.9357C38.8998 26.1658 38.9391 27.4016 38.9953 28.6262C39.0234 29.2216 39.0739 29.817 39.1132 30.4405C39.7365 30.3113 39.9331 30.0305 39.8882 29.4575C39.8152 28.5925 39.8208 27.7218 39.8152 26.8511C39.8039 25.8457 39.8152 24.8346 39.8152 23.8291C38.7931 23.9639 38.8043 23.9639 38.8493 24.9357L38.8437 24.9357ZM38.1922 30.4743L38.1922 24.5368C38.1361 24.5368 38.0743 24.5368 38.0182 24.5368C38.1866 26.5141 37.8216 28.5082 38.1922 30.4743ZM37.0691 30.2383C37.1197 30.2383 37.1646 30.2383 37.2151 30.2383L37.2151 24.6717C37.1646 24.6717 37.1197 24.6717 37.0691 24.666L37.0691 30.2383ZM34.2894 28.9913L34.2894 25.6771C33.5706 26.4579 33.5762 28.0869 34.2894 28.9913ZM84.0996 27.4129C84.0996 26.8287 83.7234 26.6939 83.1225 26.6939C82.7688 26.6321 82.4599 26.7837 82.4599 27.3342C82.4543 27.9353 82.7856 28.1206 83.3191 28.115C83.7908 28.1094 84.0996 27.9409 84.0996 27.4072L84.0996 27.4129ZM25.6526 28.0982C25.8436 26.3456 26.6915 24.9132 27.7697 23.5932C26.4164 24.0931 25.1922 26.7107 25.6526 28.0982ZM43.9033 49.5953L43.9033 53.8812C44.6221 52.7859 44.5659 49.9211 43.9033 49.5953ZM84.4085 33.9176C84.9476 34.9456 85.4867 35.9791 86.0483 37.052C86.5087 36.1476 85.3351 33.912 84.4085 33.9176ZM81.9657 33.1424C81.8478 32.8784 81.6962 32.547 81.5446 32.2212C81.4322 32.2605 81.3143 32.2998 81.1964 32.3392C81.2694 32.7492 81.2301 33.2716 81.4603 33.5412C81.6625 33.7772 82.1791 33.7828 82.5497 33.7716C82.6845 33.7603 82.8698 33.4064 82.9035 33.1874C82.9204 33.0806 82.6508 32.8335 82.4992 32.8222C82.342 32.811 82.1679 33.0076 81.9601 33.1368L81.9657 33.1424ZM42.505 19.1892C43.9145 18.8466 45.3409 18.5039 46.8964 18.1276C45.1668 17.9254 42.8307 18.5545 42.505 19.1892ZM53.7137 45.7699C53.8148 45.9104 53.899 46.0789 54.0282 46.1912C54.236 46.3654 54.5729 46.444 54.6796 46.6575C54.9828 47.2585 55.3535 47.0394 55.988 46.8541C55.3366 46.3429 54.8425 45.9216 54.309 45.5733C54.1967 45.5003 53.9215 45.6969 53.7193 45.7699L53.7137 45.7699ZM15.2357 35.9904C14.6798 35.5915 14.1295 35.1983 13.5735 34.7995C13.5005 34.8557 13.4275 34.9119 13.3545 34.9736C13.6128 35.3837 13.7925 35.8893 14.1519 36.1701C14.3765 36.3499 14.8539 36.2038 15.2189 36.2038C15.2189 36.1364 15.2301 36.0634 15.2357 35.9904ZM58.4477 47.1405C58.6554 46.5507 58.8014 45.9385 58.9699 45.3374C58.9138 45.2925 58.8576 45.2532 58.8014 45.2082C58.5881 45.4722 58.341 45.7138 58.1613 46.0002C58.0153 46.2418 57.9423 46.5283 57.8412 46.7979C57.7906 46.9383 57.7176 47.0956 57.7289 47.2417C57.7289 47.3091 57.9254 47.4326 57.9984 47.4102C58.1613 47.3596 58.4027 47.2754 58.4477 47.1405ZM63.8442 53.8307L63.8442 56.8022C64.3496 56.1393 64.3946 54.4373 63.8442 53.8307ZM16.6733 40.1415C17.1507 39.8887 17.5943 39.5629 18.0491 39.2596C18.0098 39.1809 17.9761 39.1079 17.9368 39.0349C17.4314 39.1866 16.9204 39.3158 16.4319 39.5067C16.2971 39.5629 16.2353 39.8101 16.1342 39.973C16.3195 40.0348 16.5554 40.2089 16.6733 40.1415ZM13.158 35.6646C13.2085 35.6252 13.259 35.5859 13.3096 35.5466C13.2366 35.2096 13.1636 34.8782 13.0906 34.558C12.6413 34.6591 12.2539 34.7265 11.8832 34.8388C11.7822 34.8669 11.6474 35.0298 11.6474 35.1309C11.6474 35.2208 11.8271 35.3781 11.9225 35.3725C12.1696 35.3556 12.4167 35.2714 12.5908 35.2264C12.8042 35.3949 12.9839 35.5298 13.158 35.6646ZM67.4888 49.2414C67.5786 50.2244 67.6572 51.1119 67.7583 52.196C68.1963 51.2018 68.0559 49.8143 67.4888 49.2414ZM76.9117 41.9165C76.7488 42.3097 76.5467 42.585 76.6085 42.6861C76.7769 42.9557 77.0577 43.1523 77.2992 43.377C77.4227 43.2366 77.6698 43.0231 77.6417 42.967C77.4789 42.6524 77.243 42.3771 76.9117 41.9221L76.9117 41.9165ZM54.2135 17.1614C54.2135 17.0659 54.2135 16.9704 54.2135 16.8806C53.8878 16.7851 53.5677 16.6278 53.242 16.6166C53.0792 16.6109 52.8995 16.8637 52.731 16.9985C52.9051 17.1614 53.0792 17.4479 53.2476 17.4479C53.5677 17.4423 53.8878 17.2682 54.2079 17.167L54.2135 17.1614ZM59.0878 20.2902C58.8744 20.6722 58.6667 21.0485 58.3634 21.5822L59.436 21.5822C59.3855 21.144 59.3405 20.7115 59.29 20.2734C59.2226 20.279 59.1552 20.2846 59.0878 20.2902ZM76.3558 34.0187C76.3333 33.8333 76.2659 33.648 76.1761 33.4795C76.0581 33.2548 75.9121 33.0413 75.783 32.8279C75.6987 32.8279 75.6145 32.8391 75.5303 32.8391C75.5078 33.148 75.418 33.4738 75.4853 33.7603C75.5303 33.9345 75.8054 34.0749 76.0076 34.1648C76.0918 34.2041 76.3558 34.058 76.3501 34.0187L76.3558 34.0187ZM44.2571 46.3766C44.7906 46.8485 45.397 47.0057 46.0765 46.8485C46.099 46.753 46.1271 46.6575 46.1495 46.5564C45.5374 46.4103 44.931 46.2643 44.3245 46.1238C44.302 46.2081 44.2795 46.2923 44.2571 46.3766ZM82.8024 17.3356C82.8193 17.2232 82.8305 17.1109 82.853 17.0041C82.4711 16.9311 82.0837 16.8581 81.7018 16.7851C81.6849 16.9761 81.5782 17.2457 81.6625 17.3468C82.0387 17.7793 82.4318 17.5996 82.8024 17.3356ZM72.8572 25.7895C72.8067 25.9018 72.8067 26.0703 72.8572 26.1827C73.065 26.6377 73.576 26.7332 74.278 26.34C73.8344 26.0816 73.503 25.8737 73.1549 25.6996C73.0819 25.6603 72.8853 25.7221 72.8572 25.7895ZM74.1994 34.4906C74.5588 34.322 74.8845 34.0861 75.227 33.8783C75.1653 33.7716 75.1091 33.6648 75.0529 33.5525C74.7272 33.648 74.3903 33.721 74.0758 33.8502C73.9523 33.9008 73.8849 34.0749 73.7838 34.1928C73.9242 34.2996 74.1151 34.5243 74.1994 34.4906ZM49.2662 51.3478C49.4122 52.0949 49.5582 52.842 49.7042 53.5891C49.794 53.5723 49.8895 53.5554 49.9794 53.5386C49.867 52.7859 49.7547 52.0331 49.6424 51.2804C49.5189 51.3029 49.3897 51.3254 49.2662 51.3478ZM77.2093 33.8783C77.2543 33.6873 77.2879 33.5413 77.3216 33.4008C77.2486 33.3671 77.1756 33.3334 77.097 33.2997C76.9285 33.6199 76.7488 33.9345 76.6085 34.2603C76.5916 34.294 76.8162 34.5074 76.9005 34.4906C77.2599 34.4175 77.608 34.294 77.9562 34.1872C77.9394 34.1198 77.9225 34.0524 77.9057 33.985C77.6867 33.9513 77.4676 33.9176 77.2149 33.8783L77.2093 33.8783ZM54.8425 58.2907C54.7245 58.3132 54.6122 58.3301 54.4943 58.3525C54.5841 58.9929 54.674 59.6276 54.7638 60.268C54.8818 60.2455 55.0053 60.2287 55.1232 60.2062C55.0334 59.5658 54.9379 58.9311 54.8481 58.2907L54.8425 58.2907ZM58.7228 18.2736C59.1047 18.1332 59.4585 17.9141 59.8235 17.7231C59.8066 17.6557 59.7898 17.5883 59.7673 17.5153C59.3798 17.5715 58.9868 17.5996 58.6049 17.6951C58.4701 17.7288 58.3747 17.9254 58.2623 18.0489C58.4196 18.1332 58.6049 18.3073 58.7172 18.268L58.7228 18.2736ZM52.439 46.7754C52.1638 47.1686 51.8887 47.5675 51.5573 48.0393C52.366 48.0674 52.6468 47.7247 52.6299 46.9271C52.5681 46.8765 52.5008 46.8316 52.439 46.781L52.439 46.7754ZM59.8628 22.7225C59.874 22.6101 59.8796 22.4978 59.8909 22.3798C59.5259 22.3068 59.1608 22.2282 58.7902 22.1551C58.8014 22.3461 58.7958 22.6888 58.8295 22.7C59.1721 22.7393 59.5202 22.7225 59.8628 22.7225ZM40.3318 17.4648C39.6972 17.5996 39.1637 17.7175 38.4618 17.8692C39.1918 18.3523 39.6298 18.2231 40.3318 17.4648ZM10.7096 20.0375C11.2318 19.7117 11.7597 19.3859 12.2876 19.0657C12.2539 19.0039 12.2146 18.9477 12.1809 18.8859C11.6249 19.1555 10.951 19.223 10.5523 19.7734C10.6029 19.8633 10.6534 19.9476 10.7096 20.0375ZM59.4697 25.0761C59.8235 24.9581 60.1548 24.7784 60.4973 24.6155C60.4693 24.52 60.4356 24.4245 60.4019 24.329C60.0649 24.3908 59.7224 24.4301 59.3967 24.5256C59.2731 24.5649 59.1889 24.7334 59.0934 24.8402C59.2226 24.9244 59.3798 25.0986 59.4753 25.0705L59.4697 25.0761ZM62.9738 55.5776C62.9008 55.5776 62.8334 55.5776 62.7604 55.5776L62.7604 57.2066C62.8334 57.2178 62.9008 57.2291 62.9738 57.2459L62.9738 55.5832L62.9738 55.5776ZM8.71604 24.9357C8.90136 24.4077 9.04736 23.8684 9.2046 23.3291C9.15967 23.3404 9.12036 23.346 9.07544 23.3572C8.81712 23.7617 8.54757 24.1605 8.3061 24.5762C8.24994 24.666 8.28925 24.8177 8.28925 24.9413C8.44087 24.9413 8.70481 24.9862 8.72166 24.9413L8.71604 24.9357ZM78.9165 14.4146C78.9165 14.2517 78.9277 14.0888 78.9333 13.9315C78.6076 13.9259 78.2875 13.9147 77.9618 13.9034C77.9618 14.0551 77.9506 14.3303 77.973 14.336C78.2819 14.3865 78.602 14.3978 78.9165 14.4202L78.9165 14.4146ZM30.1114 45.0453C30.3697 45.2026 30.6561 45.315 30.9313 45.4385C30.9875 45.3037 31.0492 45.1689 31.111 45.0341C30.8134 44.8993 30.5157 44.7645 30.2181 44.6297C30.1844 44.7757 30.0833 45.0285 30.117 45.0453L30.1114 45.0453ZM45.2679 16.8693C46.1383 16.684 47.0031 16.4986 47.8735 16.3076C47.8623 16.2571 47.8511 16.2009 47.8398 16.1447C46.9806 16.3301 46.1158 16.5154 45.2566 16.7064C45.2566 16.7626 45.2679 16.8132 45.2735 16.8693L45.2679 16.8693ZM61.0645 56.9595C60.9522 56.9482 60.8399 56.9314 60.722 56.9201L60.722 58.3525C60.8062 58.3525 60.8848 58.3581 60.9691 58.3638C61.0028 57.8975 61.0308 57.4257 61.0645 56.9595ZM83.9705 20.279C83.8919 19.8465 83.8526 19.5825 83.7964 19.3297C83.7852 19.2679 83.7178 19.2229 83.6729 19.1668C83.5942 19.1555 83.51 19.1443 83.4314 19.1387C83.3977 19.4083 83.2966 19.6948 83.3472 19.9476C83.3696 20.0711 83.6729 20.1329 83.9705 20.2846L83.9705 20.279ZM14.9606 17.3917C15.2189 17.3637 15.4716 17.2232 15.7243 17.1333C15.7131 17.0772 15.7018 17.021 15.6906 16.9648C15.4379 16.9255 15.1796 16.8412 14.9269 16.8581C14.7921 16.8637 14.6686 17.0491 14.5394 17.1502C14.6798 17.2401 14.8314 17.4142 14.9606 17.3917ZM68.9993 37.6531C69.1903 37.4227 69.4149 37.2205 69.3868 37.17C69.2801 36.9902 69.0892 36.861 68.932 36.715C68.8253 36.8442 68.6175 36.9846 68.6287 37.1026C68.6456 37.2655 68.8253 37.4115 68.9993 37.6531ZM41.6065 46.7024C41.7076 46.7979 41.8705 47.0001 41.9098 46.9833C42.1232 46.8597 42.2972 46.6856 42.5612 46.4721C42.3534 46.3485 42.2018 46.2081 42.1512 46.2362C41.9491 46.3654 41.7862 46.5451 41.6009 46.7024L41.6065 46.7024Z" fill="white"/>
</svg>
