<svg width="164" height="176" viewBox="0 0 164 176" fill="none" xmlns="http://www.w3.org/2000/svg">
<path d="M11.7968 18.3823C14.2458 15.046 17.0532 12.0886 19.9824 9.2333C22.5217 6.76467 25.5018 5.09656 28.825 4.09319C36.3642 1.8222 43.9872 0.24346 51.8744 0.681648C53.1852 0.755011 54.5124 0.759202 55.8297 0.651422C58.3431 0.442104 60.7416 0.771116 63.0593 1.71669C67.6421 3.57638 72.5253 3.93335 77.3921 4.35948C78.9477 4.4969 80.4662 5.03034 82.0196 5.09122C83.2071 5.14842 84.4259 4.74243 85.6347 4.58108C86.9273 4.39875 88.2527 4.02393 89.5153 4.16477C95.4584 4.82047 101.426 5.44243 107.322 6.43633C113.663 7.50816 119.496 10.0334 124.916 13.4981C125.849 14.0925 126.816 14.6251 127.792 15.139C135.48 19.1519 142.112 24.5855 147.818 31.0809C151.151 34.8796 154.034 39.1064 156.867 43.3241C157.756 44.6581 158.046 46.5554 158.163 48.2333C158.308 50.333 158.851 52.1357 159.864 53.9507C160.787 55.6113 161.325 57.5091 161.969 59.3299C162.274 60.1741 162.272 61.1674 162.692 61.9381C164.241 64.8071 163.967 67.8874 163.495 70.922C163.257 72.4599 162.574 73.974 161.855 75.3875C160.554 77.9765 159.054 80.4658 157.707 83.0364C157.518 83.4052 157.719 83.9923 157.753 84.4813C157.83 85.3547 158.175 86.2901 157.964 87.0717C157.338 89.3753 155.952 91.1638 153.875 92.3772C152.107 93.4097 150.527 94.6783 149.648 96.634C149.399 97.1843 149.111 97.7515 149.045 98.3307C148.799 100.655 148.373 102.886 146.508 104.713C147.83 105.417 148.91 105.994 149.99 106.571C149.953 106.664 149.916 106.758 149.879 106.851C148.804 106.428 147.745 105.935 146.638 105.618C146.262 105.502 145.608 105.655 145.367 105.938C144.149 107.382 143.02 108.904 141.857 110.402C141.752 110.533 141.665 110.672 141.537 110.859L160.157 118.196C160.131 118.261 160.124 118.334 160.102 118.39C157.621 117.64 155.12 116.968 152.676 116.124C148.914 114.814 145.197 113.361 141.436 112.019C141.059 111.881 140.424 111.847 140.164 112.069C138.123 113.794 136.161 115.593 133.901 117.599C140.511 120.538 146.872 123.369 153.233 126.199C153.215 126.246 153.196 126.293 153.178 126.339C148.745 124.593 144.31 122.878 139.901 121.098C137.898 120.287 135.954 119.326 133.954 118.506C133.58 118.358 132.981 118.371 132.661 118.58C130.208 120.143 127.807 121.768 125.291 123.436C133.115 127.08 141.003 130.75 148.896 134.411C140.208 131.864 132.43 127.254 124.118 123.838C120.515 125.001 116.751 126.22 112.595 127.555C123.698 133.486 134.47 139.243 145.004 144.863C144.34 144.601 143.388 144.248 142.461 143.861C141.527 143.461 140.573 143.085 139.682 142.604C131.293 138.066 122.903 133.529 114.524 128.963C113.04 128.152 111.644 127.828 109.849 128.353C105.603 129.587 101.304 129.612 97.0264 128.294C95.727 127.89 94.268 128.028 92.6228 127.899C104.554 134.47 116.245 140.913 127.939 147.347C127.868 147.47 127.811 147.588 127.741 147.712C123.63 145.53 119.5 143.373 115.404 141.155C107.733 136.987 100.066 132.809 92.4319 128.548C90.837 127.66 89.2153 127.389 87.442 127.392C82.415 127.4 77.6096 126.188 72.8314 124.824C72.0163 124.589 71.1775 124.442 70.3459 124.277C70.2357 124.255 70.111 124.325 69.7306 124.413C85.0423 133.072 100.298 141.298 114.168 151.831C111.455 150.136 108.758 148.425 106.021 146.762C97.4427 141.524 88.8574 136.304 80.2684 131.093C76.3157 128.704 72.3981 126.253 68.364 124.015C67.0349 123.275 65.3656 123.179 63.8644 122.739C59.9274 121.598 55.9884 120.436 52.3466 119.368C63.6406 127.914 75.8181 135.835 88.2011 143.427C88.1418 143.522 88.0789 143.627 88.0196 143.723C84.2358 141.508 80.3261 139.503 76.6979 137.057C66.8884 130.447 57.2049 123.627 47.4379 116.937C46.0743 116.011 44.5105 115.373 42.943 114.744C46.8871 119.487 51.9926 123.173 54.416 129.143C54.2284 128.961 54.0204 128.803 53.8496 128.606C50.4066 124.785 46.8447 121.048 43.5523 117.092C40.8702 113.863 37.6008 111.494 34.1749 109.193C27.6211 104.795 21.3506 99.9797 15.648 94.4907C11.6374 90.6302 8.31645 86.1984 6.45581 80.775C5.73965 78.6989 4.70124 76.7551 4.05594 74.6637C2.66846 70.1508 2.04565 65.5069 2.43014 60.7195C2.5707 58.9917 2.3638 57.2134 2.76793 55.5571C3.04216 54.4223 2.957 53.4593 2.74829 52.4261C2.69844 52.1687 2.61317 51.9189 2.46469 51.7199C0.247729 48.5445 0.395661 44.9608 1.43662 41.5236C2.93269 36.5474 4.8363 31.6885 6.66141 26.8095C7.83467 23.6946 9.80937 21.0684 11.7577 18.3993L11.7968 18.3823ZM131.634 114.523C131.715 114.565 131.791 114.617 131.859 114.665C132.552 114.03 133.249 113.386 133.945 112.742C134.625 112.113 135.302 111.493 136.195 110.678C134.96 110.797 134.046 110.869 133.138 111.008C132.951 111.043 132.715 111.285 132.647 111.485C132.284 112.488 131.969 113.509 131.634 114.523ZM124.584 117.278C125.753 115.847 126.916 114.404 128.076 112.969C127.944 112.809 127.816 112.64 127.685 112.48C127.199 112.754 126.509 112.914 126.254 113.343C125.539 114.553 125.01 115.868 124.414 117.135C124.459 117.186 124.517 117.23 124.575 117.275L124.584 117.278ZM129.101 110.12C128.587 110.08 127.966 109.846 127.633 110.061C127.224 110.332 127.046 110.975 126.724 111.518C128.022 111.9 128.746 111.569 129.101 110.12ZM122.759 116.127C122.869 116.203 122.974 116.265 123.084 116.341C123.671 115.319 124.258 114.296 124.84 113.283C124.708 113.209 124.584 113.139 124.455 113.056C123.129 113.625 123.532 115.232 122.759 116.127ZM124.465 111.849C125.638 111.944 125.625 111.128 125.795 110.395C124.55 110.154 124.399 110.84 124.465 111.849ZM122.473 113.15C121.861 113.331 121.257 113.33 121.06 113.609C119.952 115.215 118.958 116.888 117.921 118.533C119.803 118.528 121.64 116.442 122.473 113.15ZM115.336 118.951C116.381 117.807 117.423 116.672 118.458 115.524C118.398 115.457 118.342 115.381 118.286 115.304C117.203 116.434 116.128 117.545 115.055 118.678C115.148 118.769 115.242 118.86 115.336 118.951ZM112.434 119.105C114.177 117.425 115.91 115.741 117.864 113.852C116.509 113.534 115.864 113.799 115.29 114.654C114.51 115.838 113.539 116.903 112.668 118.019C112.469 118.276 112.291 118.562 112.099 118.832C112.202 118.927 112.318 119.016 112.434 119.105ZM115.401 111.52C114.213 111.355 113.455 111.816 113.127 112.904C114.828 113.002 115.2 112.77 115.401 111.52ZM109.403 119.229C110.995 117.63 112.457 115.893 113.959 114.194C113.868 114.039 113.765 113.891 113.671 113.745C113.128 113.943 112.429 113.991 112.074 114.37C110.511 116.034 109.051 117.793 107.286 119.832C108.181 119.59 109.006 119.635 109.403 119.229ZM112.182 111.354C111.612 111.292 111.142 111.279 110.701 111.192C109.671 110.981 109.287 111.489 108.818 112.406C108.064 113.881 107.082 115.278 106.032 116.572C105.056 117.787 103.857 118.827 102.702 120.004C105.085 120.208 110.754 115.006 112.182 111.354ZM113.089 109.766C113.05 109.535 113.008 109.313 112.969 109.081C111.988 109.268 111.007 109.454 110.027 109.64C110.048 109.778 110.071 109.939 110.092 110.077C111.094 109.974 112.087 109.868 113.089 109.766ZM107.959 110.966C107.065 111.262 105.695 111.284 105.351 111.883C103.649 114.941 101.305 117.379 98.7728 119.666C98.4885 119.922 98.2192 120.194 97.79 120.598C100.939 120.53 107.193 114.803 107.954 110.953L107.959 110.966ZM95.3747 120.64C98.4521 118.643 101.047 116.088 103.437 112.901C98.9184 114.525 96.6079 118.662 92.8282 120.934C93.7583 121.041 94.6993 121.066 95.3654 120.636L95.3747 120.64ZM95.8285 116.637C92.496 115.799 90.9834 119.007 88.3087 120.147C90.4444 120.924 94.7269 118.775 95.8285 116.637ZM87.6963 119.398C88.74 118.696 89.791 117.975 90.844 117.277C88.9387 116.656 88.6099 118.45 87.5232 119.124C87.5816 119.223 87.6473 119.303 87.7057 119.402L87.6963 119.398ZM85.7922 120.474C85.7612 120.635 85.7434 120.79 85.7125 120.951C86.841 121.158 87.9695 121.364 89.1017 121.562C89.1307 121.379 89.1596 121.196 89.1885 121.013C88.062 120.828 86.9224 120.649 85.7865 120.461L85.7922 120.474ZM83.6079 121.905C85.5807 122.217 87.5442 122.526 89.5077 122.835C89.5202 122.721 89.5457 122.602 89.5619 122.478C87.5981 122.115 85.6474 121.746 83.6837 121.383C83.6584 121.557 83.6238 121.727 83.5986 121.901L83.6079 121.905ZM84.2301 119.448C85.5987 119.868 87.2157 118.863 87.9911 117.169C85.3545 117.006 83.9844 117.384 84.2301 119.448ZM79.5606 121.099C80.633 121.284 81.7017 121.478 82.7742 121.663C82.7903 121.539 82.8102 121.407 82.8357 121.287C81.7817 121.055 80.7277 120.824 79.6737 120.592C79.6391 120.762 79.6045 120.933 79.5662 121.112L79.5606 121.099ZM84.1304 117.453C82.6057 117.155 81.5991 117.561 81.1107 118.673C81.1917 118.824 81.2634 118.971 81.3444 119.122C82.18 118.619 83.025 118.119 84.121 117.449L84.1304 117.453ZM77.0115 117.944C79.1092 118.954 79.6947 118.839 80.7017 117.161C77.9476 115.924 77.6772 115.98 77.0115 117.944ZM76.8004 115.71C76.1786 115.314 75.5569 114.918 74.8152 114.442C74.2981 115.535 73.8641 116.445 73.4263 117.364C75.4308 118.034 75.5873 117.966 76.8004 115.71ZM72.8672 115.328C73.1022 114.923 73.4528 114.499 73.4917 114.072C73.5539 113.448 73.5651 112.706 73.2732 112.213C72.842 111.47 72.1372 110.901 71.5028 110.208L69.0295 116.485C71.5161 117.605 71.5869 117.59 72.8728 115.341L72.8672 115.328ZM70.8306 118.632C70.8615 118.471 70.8981 118.324 70.9253 118.172C70.0692 117.932 69.2924 117.161 68.2315 118.127C69.0947 118.294 69.958 118.461 70.8306 118.632ZM67.1277 116.924C66.2415 116.651 65.3927 116.392 64.5476 116.124C65.6725 117.821 66.4856 118.033 67.1277 116.924ZM68.4726 107.177C68.4374 107.595 68.1968 107.987 68.0346 108.398C67.1352 110.681 66.2322 112.973 65.307 115.321C65.7653 115.501 66.3009 115.842 66.8555 115.888C67.2328 115.918 67.866 115.627 68.0137 115.307C68.9807 113.126 69.9328 110.929 70.7315 108.683C71.3922 106.814 69.5248 104.835 67.6111 105.141C66.6095 105.297 65.5824 105.217 64.5825 105.341C64.0825 105.404 63.3215 105.525 63.1571 105.861C61.9596 108.242 60.8856 110.693 59.7354 113.201L63.9345 114.856L66.5994 108.092C66.7911 107.606 66.9153 107.071 67.2081 106.657C67.4454 106.329 67.8907 106.159 68.2441 105.92C68.3265 106.341 68.5135 106.771 68.4783 107.19L68.4726 107.177ZM48.2292 111.391C49.1503 111.905 50.1416 112.296 51.0904 112.767C54.9828 114.679 58.9856 116.256 63.3782 116.679C58.0375 114.823 53.0047 112.214 47.6093 110.25C47.7033 110.752 47.896 111.195 48.2292 111.391ZM61.7773 105.057C60.7593 104.57 59.6456 103.969 58.4709 103.495C58.181 103.381 57.4633 103.585 57.3785 103.8C56.5458 105.968 55.7749 108.172 55.0731 110.392C54.9628 110.726 55.1755 111.448 55.415 111.553C56.4868 111.986 57.6176 112.27 58.7373 112.581C58.7747 112.596 58.9207 112.308 58.9834 112.149C59.9011 109.819 60.8189 107.49 61.7773 105.057ZM48.2928 108.844C50.0233 109.58 51.7795 110.25 53.4909 110.925C54.1173 108.924 54.6683 107.141 55.245 105.294L49.2129 102.917C48.7702 104.699 48.338 106.344 47.9713 108.015C47.9129 108.273 48.1001 108.757 48.2928 108.844ZM50.4665 102.752C51.6712 103.259 52.8722 103.775 54.0769 104.282C55.5903 104.911 55.5996 104.915 56.1812 103.274C56.2402 103.124 56.2748 102.954 56.4029 102.464C54.736 101.732 53.1235 101.053 51.52 100.324C50.8146 100.003 50.4161 100.192 50.1847 100.944C49.9641 101.613 49.4301 102.311 50.4665 102.752ZM46.5161 110.749C46.6553 110.587 46.7814 110.432 46.9112 110.267C46.5378 109.871 46.2326 109.329 45.7778 109.085C44.3871 108.364 42.9299 107.758 41.5098 107.112C39.708 106.283 37.9061 105.454 36.1137 104.629C36.0731 104.732 36.0139 104.828 35.964 104.927C39.4888 106.867 43.0043 108.803 46.5291 110.743L46.5161 110.749ZM48.3641 102.302C47.0348 101.508 45.8533 100.804 44.3423 99.8956C43.8528 102.015 43.3956 103.889 43.0113 105.769C42.9622 106.031 43.1662 106.5 43.3889 106.62C44.4109 107.153 45.4847 107.608 46.6185 108.13C46.8701 106.944 47.0128 106.006 47.2845 105.097C47.5561 104.188 47.9717 103.325 48.3735 102.305L48.3641 102.302ZM48.4844 101.722L49.3432 99.5424C48.3065 99.0475 47.4192 98.5574 46.4636 98.2133C46.1139 98.0863 45.4722 98.1794 45.2364 98.4215C44.7908 98.8943 44.751 99.5163 45.455 99.9233C46.4397 100.495 47.4078 101.082 48.4844 101.722ZM40.3796 105.1C40.8174 105.304 41.2516 105.519 41.6183 105.685C42.2019 103.71 42.7656 101.868 43.2508 100.006C43.335 99.6825 43.2184 99.1285 42.9897 98.9412C42.2211 98.3142 41.3673 97.794 40.4213 97.1511C39.9274 98.4047 39.4999 99.4899 39.076 100.566C38.9175 100.968 38.7142 101.374 38.6566 101.795C38.1434 105.483 38.342 105.637 41.7627 106.552C41.1444 106.093 40.6646 105.72 40.1775 105.366C40.233 105.28 40.3016 105.188 40.3665 105.105L40.3796 105.1ZM44.4059 97.3485C43.4551 96.855 42.6202 96.3964 41.7465 96.0089C41.5164 95.9075 41.1737 96.0642 40.8846 96.1124C40.9682 96.3939 40.9684 96.8047 41.1577 96.9549C41.9429 97.5669 42.7894 98.1058 43.6923 98.7209C43.927 98.2622 44.1102 97.9345 44.4115 97.3616L44.4059 97.3485ZM33.8064 102.423C33.7222 102.747 34.0055 103.399 34.3051 103.571C35.2618 104.131 36.3036 104.531 37.5927 105.125C37.0257 103 37.3306 101.294 38.0164 99.6079C38.3612 98.7602 38.7247 97.92 38.9909 97.0523C39.0902 96.7455 39.065 96.2061 38.8738 96.0334C38.15 95.4025 37.3336 94.8971 36.202 94.0946C35.3434 97.0416 34.5281 99.714 33.8101 102.414L33.8064 102.423ZM39.6547 95.4225C39.5827 95.2213 39.5774 94.9057 39.4388 94.8187C38.6975 94.3969 37.9246 94.0276 37.1592 93.6396C37.0869 93.7408 37.024 93.8457 36.948 93.9562C37.6618 94.4752 38.3683 95.013 39.0969 95.4946C39.2168 95.5742 39.4588 95.4534 39.6453 95.4188L39.6547 95.4225ZM28.81 98.8984C28.6884 99.2071 28.8167 99.8413 29.0491 100.019C30.1511 100.897 31.3479 101.671 32.219 102.284C33.1706 99.6222 34.089 97.0445 35.0017 94.4538C35.1287 94.104 35.3536 93.5333 35.2053 93.3885C34.2427 92.404 33.1835 91.5003 32.0808 90.5147C30.8866 93.5457 29.8174 96.2045 28.81 98.8984ZM27.3961 98.7304L31.034 89.4971C30.1878 89.0124 29.2799 88.4925 28.3906 87.98C26.8294 90.4342 26.1107 93.739 26.233 96.8564C26.2716 97.8551 26.2775 98.6355 27.3961 98.7304ZM22.4222 93.0098C22.3102 95.2135 23.1373 96.3499 24.987 97.0571C25.0763 95.5144 24.9855 93.8252 25.3041 92.2216C25.5843 90.7974 26.3373 89.4622 26.8099 88.0705C26.9166 87.7451 26.8744 87.1665 26.6644 86.9865C25.8976 86.3278 25.0418 85.7852 24.1613 85.1681C22.817 87.6753 22.5561 90.3391 22.4091 93.0154L22.4222 93.0098ZM20.6972 93.7134C21.2732 90.99 21.6985 88.3477 22.4247 85.7916C23.0262 83.6618 23.1925 83.7057 21.2131 82.0937C19.7263 85.593 19.4789 89.0727 20.0775 92.6263C20.1506 93.0442 20.5127 93.4138 20.6972 93.7134ZM17.5129 90.8269C17.6251 91.2277 18 91.5376 18.2519 91.8854C18.3352 88.4383 18.4196 85.2078 19.9162 82.1771C20.4835 81.0389 20.4448 80.0402 19.4627 78.8859C18.8287 80.495 18.2276 81.9657 17.6676 83.4418C16.743 85.8981 16.8302 88.3641 17.5129 90.8269ZM14.5634 85.2879C13.8571 87.3548 14.3962 88.756 15.6584 89.5559C15.6728 88.3403 15.6273 87.112 15.7219 85.8849C15.9661 82.8794 17.5511 80.3374 18.6835 77.6279C18.9361 77.0141 18.8614 76.2714 18.94 75.5783C18.7439 75.5551 18.5571 75.5356 18.361 75.5123C17.082 78.7585 15.6871 81.9698 14.5577 85.2749L14.5634 85.2879ZM15.8108 75.4586C15.1303 77.4599 14.2367 79.399 13.5842 81.4114C13.1779 82.6346 13.0538 83.9366 12.7407 85.4992C14.5197 81.4774 16.1531 77.7981 17.8012 74.0813C16.7543 73.7769 16.1859 74.3419 15.8071 75.4679L15.8108 75.4586ZM11.5718 82.1315C11.6373 82.1573 11.6934 82.1794 11.7682 82.2089L15.115 73.7146C15.0495 73.6889 14.9841 73.6631 14.9186 73.6373L11.5681 82.1409L11.5718 82.1315ZM10.2509 81.5354L13.6087 73.0131C13.027 72.4056 12.509 71.8557 11.8558 71.1553C10.6902 74.6622 10.1231 78.0484 10.2509 81.5354ZM9.25789 75.6649C9.33188 75.532 9.43393 75.4101 9.47986 75.2661C10.0844 73.3753 10.7674 71.5046 11.2524 69.5882C11.4903 68.6553 11.3955 67.6345 11.3532 66.6452C11.3464 66.4156 10.9772 66.1188 10.7116 66.025C10.59 65.977 10.2128 66.3039 10.1243 66.5284C8.9315 69.4735 9.00499 72.5501 9.25789 75.6649ZM7.46425 74.9799C7.63578 74.5719 7.62621 74.1575 7.68948 73.7501C8.05262 71.3751 8.3092 68.969 8.87044 66.6396C9.12823 65.574 9.1235 65.0102 7.82069 64.6698C6.57822 68.1249 6.51903 71.5382 7.46992 74.9929L7.46425 74.9799ZM5.56142 67.4973C5.73884 67.5132 5.92561 67.5327 6.10302 67.5486C5.74506 65.7973 7.52878 64.5332 6.85427 62.5707C6.31234 60.9846 5.9997 59.3377 4.81324 58.0164C5.06074 61.1724 5.30825 64.3283 5.56142 67.4973ZM5.93271 43.576C5.86037 44.0339 5.93568 44.5282 5.99966 44.9965C6.43817 48.271 7.30154 51.3994 8.8973 54.2868C9.14975 54.7429 9.28343 55.3359 9.28051 55.8643C9.27358 58.5418 10.5005 60.4733 12.9806 61.0615C14.857 61.509 15.2037 62.521 15.1168 64.1402C15.0963 64.5212 15.1804 64.911 15.2234 65.2954C15.5343 67.6873 16.2098 68.3858 18.6134 68.6196C20.3465 68.7728 21.4777 69.8778 22.5086 71.0729C23.2935 71.9873 23.8313 73.1178 24.4861 74.1431C24.4152 74.1584 24.0964 74.2273 23.3243 74.3771C24.0322 75.1855 24.4388 75.8536 25.0345 76.2612C25.6545 76.6893 26.4413 76.8588 27.152 77.1388C27.0967 77.2791 27.0378 77.4288 26.9918 77.5728C26.2181 77.3976 25.4444 77.2225 24.5885 77.0366C25.1003 79.3024 26.8415 79.956 28.9801 80.5609C28.2438 80.7571 27.9623 80.8407 27.6809 80.9243C27.6386 81.059 27.6 81.1843 27.5541 81.3283C32.8859 84.0018 37.5038 87.9935 43.3431 89.8727C43.0333 89.8912 42.7198 89.919 42.1507 89.9649C42.5588 90.1905 42.7441 90.296 42.9332 90.3921C47.2529 92.6452 51.5931 94.874 55.8925 97.1516C58.2172 98.3809 60.4364 99.7957 62.7869 100.96C64.1642 101.632 65.6762 101.633 67.2591 101.263C68.6649 100.93 70.1792 101.008 71.6391 101.032C71.9826 101.038 72.4646 101.487 72.6045 101.845C73.1762 103.41 73.6025 105.016 74.1612 106.587C74.4813 107.502 74.8388 108.431 75.3656 109.233C77.1056 111.864 79.8473 112.501 82.72 112.477C86.1976 112.453 89.6867 112.153 93.1674 112.011C94.9665 111.942 96.5563 111.444 98.0515 110.336C99.6193 109.182 101.34 108.325 103.359 108.245C104.083 108.217 104.952 108.095 105.492 107.659C109.262 104.616 113.386 103.691 117.988 104.899C118.635 105.067 119.346 104.991 120.016 105.071C123.416 105.492 126.852 105.765 130.211 106.397C132.919 106.902 135.39 106.47 137.96 105.57C140.503 104.681 141.654 102.281 143.516 100.681C144.364 99.9555 145.055 99.05 145.773 98.1874C145.974 97.9529 146.173 97.5561 146.127 97.2893C145.624 94.5623 146.631 92.4733 148.719 90.8211C149.799 89.9715 150.864 89.051 152.057 88.408C153.986 87.3522 155.168 82.3497 153.384 80.9009C153.093 81.2833 152.815 81.6601 152.407 82.2018C152.449 81.7647 152.448 81.5481 152.497 81.3406C152.552 81.092 152.614 80.8247 152.716 80.5945C154.233 77.1286 154.433 73.5222 153.864 69.8937C153.68 68.6867 153.04 67.5698 152.683 66.3917C152.594 66.0972 152.797 65.691 152.87 65.3414C153.083 65.3496 153.296 65.3578 153.518 65.3697C154.083 68.9534 154.648 72.5371 155.138 75.7347C156.115 74.3255 157.383 72.588 158.54 70.7746C159.955 68.5546 160.901 66.2363 159.704 63.5708C159.391 62.8854 159.288 62.0775 159.237 61.301C159.075 58.8597 158.142 56.7306 157.023 54.636C156.06 52.83 155.026 50.9852 154.514 49.0219C153.981 46.9746 152.965 45.4396 151.476 44.1181C148.661 41.6367 146.053 38.8797 142.702 37.0732C146.624 38.9103 149.654 41.9955 153.078 44.6306C152.588 43.216 152.088 41.7978 151.277 40.5922C150.679 39.6973 149.623 39.1409 148.913 38.3101C142.889 31.2787 135.521 26.3437 126.724 23.5802C125.572 23.2128 124.376 22.9577 123.208 22.6596C123.23 22.5493 123.261 22.4427 123.292 22.3361C124.682 22.6462 126.095 22.9001 127.469 23.2794C128.802 23.6532 130.105 24.156 131.425 24.5897C127.419 20.4174 121.773 19.3923 116.968 16.8075C117.008 16.7046 117.049 16.6017 117.089 16.4988C119.262 17.236 121.441 17.9863 123.613 18.7235C120.261 15.3599 115.984 13.9019 111.573 12.4016C111.854 12.2638 112.04 12.1751 112.331 12.041C111.657 11.7757 111.092 11.4557 110.49 11.3375C105.643 10.3138 100.777 9.33687 95.9298 8.31317C91.5009 7.37874 87.104 7.57 82.6825 8.81069C83.4961 9.13127 84.3265 9.43682 85.1421 9.77979C86.0008 10.1505 86.8743 10.4839 87.6831 10.9538C88.3776 11.3572 88.9705 11.9366 89.6021 12.4448C84.2246 10.3261 79.077 7.89805 73.2559 7.75516C73.197 7.90483 73.1417 8.04516 73.1014 8.20221L84.3614 12.6387C84.2877 12.8258 84.214 13.0129 84.1403 13.2C82.4943 12.5515 80.8631 11.8655 79.1986 11.2638C76.5262 10.2865 73.8299 9.39703 71.1668 8.42341C68.5504 7.4682 65.7458 7.29257 63.0772 6.36005C60.1806 5.34845 56.8757 5.53767 53.7856 5.04428C48.8965 4.26351 44.036 3.6021 39.1672 5.3474C38.6511 5.5331 38.0877 5.59208 37.5336 5.65475C26.7939 6.99976 18.8244 12.7757 12.9231 21.8305C8.60739 28.4516 7.2121 35.9964 5.99818 43.6018L5.93271 43.576ZM131.788 170.921C130.642 171.993 130.572 173.403 131.402 174.259C132.972 175.894 136.429 176.197 138.261 174.811C139.14 174.142 139.674 173.282 139.227 172.112C138.737 170.806 137.416 169.799 136.375 169.972C136.06 170.032 135.772 170.297 135.283 170.579C136.131 171.195 136.775 171.535 137.27 172.033C138.089 172.863 137.938 173.409 136.888 173.881C135.404 174.55 134.052 174.115 132.784 173.356C132.589 173.247 132.461 172.558 132.596 172.407C133.209 171.729 133.94 171.163 134.601 170.527C134.826 170.313 134.981 170.028 135.161 169.764C134.877 169.663 134.519 169.392 134.316 169.496C133.44 169.908 132.485 170.277 131.788 170.921ZM136.453 91.5972C136.764 91.8495 137.04 92.4119 136.997 92.7949C136.758 94.6352 136.433 96.4742 136.067 98.3077C135.971 98.7993 135.631 99.2492 135.393 99.7172C135.574 99.7779 135.756 99.8385 135.941 99.8898C137.688 97.6494 138.1 95.0128 137.72 92.1936C138.475 91.9506 139.106 91.7457 139.835 91.514C140.183 94.2773 139.389 96.7312 138.316 99.2369C138.878 98.9613 139.498 98.6219 139.635 98.1358C140.112 96.4865 140.528 94.802 140.775 93.1054C140.951 91.889 140.872 90.6366 140.84 89.4026C140.827 89.0517 140.54 88.7115 140.3 88.1956C139.822 88.9151 139.596 89.5716 139.142 89.8466C138.691 90.1123 138.011 89.974 137.433 90.0162C137.434 89.5196 137.381 89.0232 137.451 88.543C137.482 88.3281 137.763 88.1362 137.907 87.9338C138.439 87.1599 138.267 86.638 137.375 86.4056C136.65 86.2171 135.897 86.0717 135.177 85.8421C134.491 85.6366 133.907 85.3093 134.148 84.367C134.198 84.1595 134.077 83.9174 134.038 83.6861C133.926 83.6418 133.807 83.6163 133.685 83.5684C133.471 84.0569 133.046 84.5595 133.062 85.0411C133.129 86.6241 134.582 86.7751 135.69 87.3088C135.619 87.5183 135.575 87.6847 135.516 87.8344C134.599 89.9696 134.691 90.2006 136.462 91.6009L136.453 91.5972ZM123.848 86.9009C123.677 87.5254 123.691 88.3954 124.007 88.909C124.771 90.1503 126.259 90.4337 127.99 89.9055C128.212 90.7134 128.997 91.336 130.344 91.7733C130.308 91.9751 130.29 92.1843 130.213 92.3808C130.106 92.652 129.981 92.916 129.778 93.3763C129.615 92.9123 129.518 92.6365 129.425 92.3513C129.317 92.3519 129.212 92.3431 129.104 92.3437C128.709 94.3062 128.304 96.265 127.909 98.2276C128.022 98.2718 128.147 98.3103 128.263 98.3452C129.42 96.9425 130.578 95.5398 131.78 94.079C131.586 93.9699 131.273 93.8035 130.893 93.5889C131.11 92.9287 131.329 92.2908 131.544 91.6624C132.013 91.7066 132.355 91.7981 132.685 91.7553C133.323 91.6716 133.445 91.3629 133.107 90.7654C132.846 90.3056 132.639 89.7596 132.62 89.2332C132.594 88.5313 132.381 88.1123 131.666 88.1983C130.734 88.3171 129.8 88.5218 128.934 88.6888C128.746 88.2902 128.495 87.8024 128.306 87.4038C127.856 88.0261 127.591 88.7538 127.214 88.8323C126.632 88.9381 125.908 88.7179 125.367 88.4182C124.141 87.719 125.64 86.9586 125.464 86.1436C124.652 85.7913 124.033 86.2389 123.848 86.9009ZM105.018 89.8569C104.91 89.8575 104.802 89.8581 104.684 89.855C104.625 94.284 103.944 98.4792 100.851 101.778C100.304 103.907 99.7694 106.031 99.1909 108.267C99.5307 107.926 99.9905 107.664 100.129 107.286C100.558 106.115 101.1 104.902 101.143 103.698C101.198 102.379 101.665 101.742 103.152 101.366C102.825 102.61 102.646 103.749 102.233 104.797C101.824 105.836 101.181 106.782 100.641 107.769C101.343 107.494 102.127 107.122 102.333 106.544C102.933 104.857 103.34 103.083 103.768 101.339C104.011 100.31 103.991 99.2109 104.342 98.2363C105.174 95.9055 105.65 93.5747 105.337 91.1062C105.277 90.6827 105.123 90.2765 105.009 89.8533L105.018 89.8569ZM15.0386 30.3911C12.3896 31.8222 7.89563 40.1022 8.58703 42.8171C10.6613 37.7444 13.7472 33.7512 18.087 30.7708C15.0419 31.3975 13.3314 33.8468 11.2806 35.8162C11.1831 35.7346 11.0856 35.6529 10.9918 35.5619C12.3457 33.8258 13.6958 32.0991 15.0386 30.3911ZM17.144 35.1112C12.4088 37.8062 9.22572 41.7719 7.7089 47.0749C7.57308 47.5293 7.80369 48.0957 7.85859 48.6145C9.53164 42.8326 13.1243 38.65 17.8375 35.298C17.7661 35.205 17.6816 35.1177 17.6102 35.0247C17.4461 35.0573 17.2781 35.0452 17.1403 35.1206L17.144 35.1112ZM22.3278 47.2367C18.7986 49.5855 16.2607 52.6814 15.3191 56.9359C15.2315 57.3229 15.4335 57.7699 15.5065 58.1877C15.6074 58.2059 15.712 58.2147 15.8129 58.2328C17.0142 53.6483 19.7236 50.1444 23.5028 47.4079C23.4144 47.2758 23.326 47.1437 23.2282 47.0079C22.9187 47.0805 22.5659 47.0711 22.3184 47.233L22.3278 47.2367ZM24.4414 56.8989C23.2542 59.0897 22.2148 61.3712 21.2165 63.658C21.0172 64.109 21.2875 64.7667 21.337 65.3266C21.4546 65.3297 21.5759 65.3234 21.6972 65.3172C23.3971 61.8802 23.8759 57.6488 27.8767 55.529C27.3232 55.3434 26.7212 55.171 26.308 55.3973C25.6099 55.7706 24.789 56.2361 24.4414 56.8989ZM32.9403 63.8463C31.7442 66.1417 30.6567 68.4906 29.5878 70.8469C29.4106 71.2418 29.5778 71.8048 29.5839 72.2827C29.6979 72.2952 29.8155 72.2983 29.9294 72.3108C31.6239 68.9149 32.5731 65.0525 35.8379 62.4699C35.3779 62.3211 34.8658 62.195 34.5364 62.4002C33.9336 62.7787 33.2434 63.2416 32.9273 63.852L32.9403 63.8463ZM18.8895 57.1971C18.1165 58.6109 17.1554 60.1451 18.034 62.2204C19.3709 58.2513 21.015 54.8464 24.416 52.6309C21.4959 52.8853 20.0842 54.9876 18.8802 57.1934L18.8895 57.1971ZM108.426 85.2664C108.559 84.9297 109.043 84.7423 109.283 84.545C109.913 85.0308 110.377 85.3868 110.833 85.7392C111.298 86.0952 111.887 86.3815 112.186 86.856C112.459 87.2877 112.657 88.0466 112.452 88.4304C112.232 88.8517 111.513 89.2494 111.03 89.2427C109.07 89.2269 107.666 87.0311 108.43 85.2571L108.426 85.2664ZM111.207 88.0263C111.283 87.9157 111.359 87.8051 111.431 87.7039C110.846 87.2141 110.252 86.7206 109.657 86.2271C109.493 87.632 110.321 87.861 111.207 88.0263ZM86.042 102.784C89.252 100.807 89.7548 97.2547 91.0754 94.1222C91.5601 93.9889 92.0932 93.8424 92.9135 93.6252C92.2135 93.2629 91.8204 93.054 91.433 92.8582C91.4155 92.3541 91.4114 91.8986 91.3978 91.4394C89.5692 95.2579 88.7336 99.4352 86.029 102.79L86.042 102.784ZM148.092 82.458C148.321 84.4284 148.541 86.3634 148.769 88.2797C151.172 85.7465 151.488 79.2137 149.946 76.9851C150.035 79.7759 150.39 82.3581 149.563 85.0585C148.864 84.1455 149.234 82.7133 148.088 82.4673L148.092 82.458ZM16.6548 40.9596C13.7154 43.2922 11.6304 46.2532 10.5381 49.8756C10.3637 50.4553 10.5314 51.1265 10.5421 51.7576C10.6466 51.7663 10.7549 51.7658 10.8538 51.7615C11.8788 47.3778 14.4261 43.9289 17.6978 40.8627C17.3704 40.7337 17.2786 40.6651 17.2208 40.6747C17.0196 40.7467 16.8183 40.8187 16.6491 40.9466L16.6548 40.9596ZM112.68 93.0055C111.766 93.4883 111.169 93.7715 110.618 94.1273C110.532 94.18 110.681 94.7898 110.7 94.7971C111.179 94.7591 111.66 94.6894 112.239 94.593C111.647 96.8889 110.672 98.9796 108.973 100.742C111.561 100.097 114.484 92.7868 113.285 89.7423C113.022 91.1515 112.811 92.2897 112.68 93.0055ZM67.8169 90.1673C67.6332 90.3867 67.4161 90.6362 67.3316 90.9055C66.9227 92.3547 66.5231 93.8075 66.202 95.2805C66.1053 95.7179 66.2889 96.2117 66.3492 96.6893C67.6192 93.137 70.0658 90.0807 70.1526 86.2135C69.6157 87.0827 69.2995 88.0497 68.8561 88.9557C68.627 89.4274 68.1602 89.7622 67.8132 90.1767L67.8169 90.1673ZM90.89 103.916C93.733 103.199 97.5256 94.9993 96.8026 91.2129C95.4086 95.7106 94.5647 100.457 90.89 103.916ZM13.283 53.7129C14.8974 49.6154 17.3279 46.3258 21.1159 43.8413C17.8657 43.7819 12.3277 50.8725 13.283 53.7129ZM45.1971 71.9501C43.1999 73.8109 42.3016 76.3101 41.4893 78.8107C41.2063 79.6934 41.7138 80.3797 42.3551 80.5892C42.5714 76.8595 44.4999 73.9665 47.0366 71.3672C46.9425 71.222 46.8484 71.0769 46.7544 70.9318C46.2334 71.2669 45.643 71.5314 45.1971 71.9501ZM132.633 91.8321C132.424 94.365 132.238 96.6476 132.051 98.9301C134.298 97.7513 134.403 95.5663 134.884 93.551C134.77 93.4844 134.659 93.4085 134.545 93.3418C134.227 93.6273 133.909 93.9128 133.625 94.1682C133.285 93.3858 132.971 92.6463 132.62 91.8378L132.633 91.8321ZM63.235 81.8886C61.4255 85.0554 59.6577 87.9792 58.848 91.3779C60.4846 90.1855 63.7387 83.2974 63.235 81.8886ZM49.8668 74.741C47.1854 76.4187 45.853 79.0602 45.0184 81.9736C44.8477 82.5439 45.3481 83.3031 45.5895 84.1438C46.0403 82.5059 46.1417 81.1517 46.7544 80.1178C47.7761 78.4022 49.131 76.8827 50.3437 75.2855C50.5013 75.0774 50.6403 74.862 50.8163 74.6071C50.6069 74.5354 50.5114 74.4762 50.4499 74.4952C50.2523 74.5579 50.0417 74.6262 49.8705 74.7316L49.8668 74.741ZM119.951 51.1611C120.449 50.5573 120.247 50.1102 119.679 49.6595C119.227 49.2978 118.918 48.7655 118.531 48.3213C118.331 48.0908 118.109 47.8847 117.892 47.6693C117.706 47.9205 117.455 48.1459 117.354 48.4302C117.196 48.8866 117.144 49.3742 117.042 49.9068C117.467 50.1174 117.963 50.3669 118.459 50.6163C118.404 50.7566 118.367 50.9043 118.321 51.0483C117.271 50.8074 116.23 50.5702 115.004 50.2817C115.894 52.0806 118.85 52.5317 119.961 51.1648L119.951 51.1611ZM85.2185 93.1654C84.6996 93.1663 84.2889 93.1666 83.8652 93.1726C83.8173 93.2942 83.7917 93.4138 83.7532 93.5391C84.1672 93.8319 84.5849 94.1154 85.0851 94.4638C84.371 97.2084 83.6419 99.9364 81.4323 102.254C84.1156 101.312 86.8761 93.8942 85.6476 91.2811C85.4794 91.9822 85.3444 92.599 85.2185 93.1654ZM139.894 76.6125C140.208 76.4447 140.592 75.9366 140.557 75.6418C140.422 74.6698 139.906 73.8939 138.807 73.2556C138.808 74.0771 138.808 74.5962 138.811 75.1376C138.354 74.9645 137.964 73.9428 137.642 72.0724C136.5 72.8869 136.115 73.9998 136.598 74.9682C137.104 75.9887 139.091 77.0312 139.898 76.6031L139.894 76.6125ZM26.9279 62.4068C26.2533 64.1187 24.8731 65.812 25.9101 67.8417C26.8419 64.5992 28.0883 61.5455 30.2271 58.8867C28.2652 59.2593 27.538 60.8856 26.9372 62.4105L26.9279 62.4068ZM38.304 65.4517C36.6168 65.8676 33.5075 72.2508 34.0528 74.4866C35.4471 71.5236 36.8414 68.5606 38.304 65.4517ZM117.886 89.6097C117.759 89.6029 117.632 89.5962 117.505 89.5894L113.982 98.5326C113.982 98.5326 114.23 98.5873 114.315 98.4805C114.98 97.6723 115.769 96.9026 116.207 95.9835C116.818 94.6789 117.306 93.3582 118.618 92.5783C118.661 92.5519 118.64 92.4139 118.663 92.2718L117.906 91.9734C117.903 91.1295 117.899 90.3714 117.896 89.6134L117.886 89.6097ZM55.6747 39.5717C57.0194 36.0489 59.6005 34.1047 63.215 33.4863C59.9752 32.1665 55.22 36.064 55.6747 39.5717ZM41.3552 69.334C39.5939 70.2396 36.9172 75.0316 37.0523 77.0193C37.1228 78.0197 37.5305 78.5478 38.2594 78.7269C37.2712 74.9009 39.847 72.2845 41.686 69.3995C41.4972 69.3576 41.4017 69.2983 41.3496 69.321L41.3552 69.334ZM82.0271 90.3518L78.4186 99.5102C79.9829 98.7757 82.4941 92.6216 82.0271 90.3518ZM127.786 83.5678C129.617 83.1437 129.984 84.3796 130.431 85.6039C130.561 85.958 131.04 86.1683 131.363 86.4467C131.551 86.0237 131.978 85.5435 131.892 85.1855C131.697 84.3631 131.396 83.5096 130.896 82.8587C129.902 81.5701 128.401 81.8431 127.777 83.5642L127.786 83.5678ZM123.683 95.298C123.285 94.8819 123.081 94.6608 122.852 94.4193C123.026 96.4442 123.176 98.3403 123.372 100.612C123.612 100.003 123.807 99.756 123.783 99.5414C123.525 97.5916 124.495 95.9528 125.053 94.206C125.267 93.5551 125.355 92.8657 125.43 92.182C125.46 91.913 125.272 91.6227 125.071 90.9815C124.54 92.631 124.141 93.8897 123.689 95.3111L123.683 95.298ZM73.8509 88.1246C73.1061 91.4407 72.4271 94.4802 71.7351 97.5253C73.3513 96.714 74.8181 90.7427 73.8509 88.1246ZM54.6 77.8919C52.6032 78.737 50.4337 83.448 51.0011 85.6276C52.3103 82.8257 53.4551 80.3588 54.6 77.8919ZM100.604 86.5288C99.3352 87.8014 99.7845 89.1564 101.793 89.818C102.309 89.9889 103.036 89.8973 103.518 89.6333C103.777 89.4976 103.916 88.623 103.741 88.2729C103.468 87.7329 102.885 87.3738 102.431 86.9355C102.34 87.0294 102.259 87.1269 102.171 87.2114C102.364 87.7089 102.557 88.2064 102.767 88.743C101.759 88.6338 101.221 87.8313 101.155 86.3355C100.954 86.4075 100.715 86.4106 100.591 86.5345L100.604 86.5288ZM99.9309 91.8835C99.5525 93.831 99.2713 95.806 98.7583 97.7112C98.2362 99.667 97.4787 101.562 96.7136 103.833C98.8149 101.873 100.881 93.7493 99.9309 91.8835ZM62.9971 88.3331C62.8812 88.2983 62.7653 88.2634 62.64 88.2249C61.6618 91.1464 60.6966 94.0623 59.7183 96.9839C59.8717 97.0335 60.0343 97.0868 60.1783 97.1327C61.8577 94.4333 62.5069 91.4146 62.9971 88.3331ZM60.0373 80.0234C57.9189 80.8207 56.0652 85.5803 57.1475 87.3577L60.0373 80.0234ZM142.556 86.6098C143.898 89.1811 143.272 91.8413 142.589 94.6418C144.242 93.6286 144.747 90.1531 143.837 87.4712C143.513 86.5113 143.451 86.4762 142.556 86.6098ZM119.766 93.2574C120.008 93.6016 120.251 93.9457 120.49 94.2992C120.593 94.3397 120.696 94.3803 120.815 94.4058L119.536 97.6519C121.369 96.4286 123.021 91.3302 122.159 89.9531C121.917 90.733 121.745 91.4434 121.476 92.1263C121.347 92.4537 121.102 92.8004 120.815 92.9793C120.525 93.1676 120.114 93.1679 119.76 93.2444L119.766 93.2574ZM66.4113 33.9567C66.2393 34.2563 66.1023 34.4942 65.9711 34.7451C67.1722 34.9049 68.3826 35.0684 69.5837 35.2282C70.0862 35.2965 70.587 35.3966 71.0855 35.4201C75.6729 35.5956 80.2438 35.4837 84.8214 34.8341C86.1625 34.6384 87.5869 35.0267 88.9581 35.2211C93.1089 35.8191 96.8353 37.3846 100.195 39.9621C102.345 41.6087 103.776 43.6531 104.687 46.195C104.929 46.8957 105.392 47.5318 105.833 48.1382C107.166 49.9926 107.317 52.1053 106.661 54.1813C106.027 56.2011 105.141 58.1755 104.122 60.0219C103.565 61.0237 102.492 61.7463 101.496 62.7374C101.791 62.9506 102.109 63.2383 102.476 63.4044C103.206 63.746 104 63.9509 104.695 64.3542C105.79 65.0019 105.861 65.6998 104.976 66.8752L107.876 68.0175C107.83 68.1615 107.793 68.3092 107.756 68.4569C106.538 68.1496 105.264 67.9827 104.112 67.5071C102.205 66.7236 100.377 65.7437 98.5055 64.8443C98.0489 64.632 97.5774 64.403 97.0766 64.303C94.0926 63.7325 91.083 63.2816 88.1061 62.6382C85.4152 62.0643 82.8386 62.3244 80.2146 63.1709C79.0647 63.5392 77.801 63.5384 76.5885 63.7091C76.5298 63.5564 76.4618 63.3999 76.4032 63.2471C77.8995 62.356 79.3864 61.4613 81.0707 60.4498C79.8878 59.8324 78.6609 59.3815 77.6603 58.6306C74.9676 56.6078 71.9692 55.7723 68.6243 55.8161C67.0601 55.8374 65.4855 55.6385 63.9205 55.4974C63.4423 55.4495 62.9841 55.2689 62.529 54.9707C65.1771 54.0904 67.8422 54.7298 70.6951 54.4814C69.2326 53.2027 67.8534 51.7947 66.2835 50.679C64.0728 49.1055 62.0616 47.4918 61.0919 44.7429C59.9007 41.3773 61.2749 38.4928 63.2709 36.772C64.1091 36.0432 65.0187 35.4073 65.9019 34.7286C62.9648 35.3005 61.606 37.5426 60.5544 40.3488C59.9016 37.152 63.4366 34.1031 66.4 33.9306L66.4113 33.9567ZM82.4762 38.0168C81.7968 38.3975 81.0919 38.5413 80.9314 38.9211C79.6462 42.046 78.4545 45.2076 77.2815 48.3767C77.1857 48.6199 77.3517 48.9663 77.3999 49.2555C77.6828 49.0859 78.1246 48.979 78.2241 48.7265C79.6106 45.3173 80.9502 41.8897 82.4799 38.0074L82.4762 38.0168ZM83.7682 38.4394L79.3857 49.5624C79.9763 49.7086 80.3782 49.8129 80.4848 49.8441C82.1269 46.0602 83.7081 42.4035 85.3335 38.6346C84.8908 38.5791 84.2203 38.4986 83.7589 38.4357L83.7682 38.4394ZM86.6218 39.0666C85.0185 42.7794 83.4521 46.3986 81.8083 50.2143C82.9374 50.5294 83.7655 50.7585 84.4964 50.96C85.3552 46.9431 87.0585 43.4426 88.8956 39.822C88.1701 39.5793 87.5474 39.3772 86.6125 39.0629L86.6218 39.0666ZM89.9127 40.5037C88.2405 43.8975 86.6619 47.3283 85.7048 51.1011C86.0322 51.2301 86.2118 51.3225 86.4099 51.3681C86.6491 51.4191 86.8954 51.3973 87.2539 51.4197C88.251 47.7922 89.2557 44.2003 90.2474 40.6139C90.1351 40.5697 90.0249 40.5479 89.9127 40.5037ZM92.9152 43.9886C93.5277 41.8308 93.4305 41.8033 91.3736 41.1009C91.2988 41.0714 91.2092 41.0794 91.2914 41.0901C90.2887 44.7045 89.3115 48.1993 88.3363 51.7164C89.8077 52.1773 90.0092 52.1594 90.669 50.4849C91.5093 48.352 92.2879 46.1839 92.9058 43.9849L92.9152 43.9886ZM95.0236 43.7926C95.1265 43.4766 94.8069 43.0264 94.6873 42.6443C94.555 42.6786 94.4283 42.7259 94.2959 42.7603C93.9547 46.149 93.0824 49.35 91.1312 52.1908C91.2029 52.3379 91.2689 52.472 91.335 52.6061C91.6754 52.3728 92.2252 52.2112 92.3318 51.8857C93.2908 49.2051 94.1842 46.4988 95.0273 43.7833L95.0236 43.7926ZM95.7179 51.4907C96.2533 49.5835 96.654 47.634 97.2455 45.7488C97.6496 44.4491 96.9499 44.1409 96.0167 43.7949C95.6638 47.46 94.7343 50.4223 93.1584 52.9139L94.9073 53.6029C95.2021 52.8545 95.531 52.1844 95.7272 51.4944L95.7179 51.4907ZM103.181 50.8109C103.396 53.7486 102.436 56.3209 100.688 58.6472C100.438 58.9808 100.264 59.3664 99.9273 59.9469C100.382 59.8344 100.507 59.8188 100.615 59.7641C100.723 59.7093 100.846 59.6172 100.905 59.5217C102.637 56.7997 104.191 54.0076 103.77 50.6323C103.718 50.2442 103.165 49.9185 102.792 49.5769C102.942 49.9925 103.159 50.4021 103.187 50.8239L103.181 50.8109ZM98.1959 56.0875C98.3286 56.1073 98.4649 56.1178 98.5882 56.1339C99.6998 53.7513 100.556 51.3326 99.5816 48.4848C100.123 48.5903 100.656 48.7462 100.972 49.0974C101.338 49.5118 101.507 50.0972 101.626 50.3169C101.944 50.0855 102.329 49.7941 102.727 49.497C101.405 48.1335 100.094 46.7737 98.7726 45.4103C98.6238 45.5138 98.4693 45.6042 98.3205 45.7077C98.615 47.4556 99.1484 49.2004 99.1275 50.9537C99.1119 52.6659 98.5363 54.3736 98.209 56.0818L98.1959 56.0875ZM75.2972 52.7823C81.8143 55.4365 87.9148 59.1478 95.0953 60.1181C92.6844 57.7092 89.8218 56.0626 86.6024 55.0751C84.4635 54.4161 82.264 53.9386 80.0829 53.4142C78.5205 53.0472 76.9547 52.7437 75.3942 52.399C75.365 52.528 75.3301 52.644 75.3009 52.7729L75.2972 52.7823ZM75.4603 46.6649C75.1359 47.4881 74.8153 48.302 74.4872 49.1345C74.5941 49.2199 74.7066 49.3182 74.8097 49.4129C75.1275 49.1274 75.6079 48.8952 75.761 48.5341C77.0958 45.2559 78.3839 41.9593 79.7255 38.5541C78.9589 38.3061 78.5165 38.6613 78.2035 39.5106C77.3234 41.9089 76.3871 44.285 75.4603 46.6649ZM74.6802 40.0893C73.9665 42.1749 73.2211 44.2588 72.5111 46.335C72.1672 47.3451 71.8606 48.3698 71.517 49.434C72.6398 49.6279 73.1515 49.2891 73.4526 48.3054C73.8986 46.8169 74.4793 45.3705 75.0413 43.9168C75.6823 42.2349 76.3645 40.5584 77.0243 38.8839C75.2337 38.4378 75.2524 38.4452 74.6896 40.093L74.6802 40.0893ZM69.9611 48.8859L73.8571 38.9977C73.7635 38.9609 73.6607 38.9203 73.5671 38.8835C72.5503 42.287 70.6339 45.3684 69.9611 48.8859ZM68.2455 47.756C68.3296 47.7892 68.4045 47.8186 68.4886 47.8518L72.1413 38.5811C72.0571 38.5479 71.9823 38.5184 71.9018 38.4759L68.2455 47.756ZM64.4344 43.8552L66.6091 38.3358C64.8996 39.1645 63.8401 41.8811 64.4344 43.8552ZM148.424 73.9106C148.807 72.9377 148.269 72.4663 147.268 72.072C146.72 71.7369 146.106 71.7869 145.745 72.7036C145.341 73.7009 145.771 74.227 146.663 74.5677C147.453 74.8679 148.077 74.7899 148.428 73.9012L148.424 73.9106ZM50.6368 36.7006C52.1047 33.9071 54.4568 32.078 57.1186 30.5871C54.5367 30.5317 50.7803 34.0878 50.6368 36.7006ZM66.9256 84.4774L64.1133 91.6152C66.0291 90.2626 67.8154 85.4548 66.9256 84.4774ZM144.67 84.9462C144.893 87.0119 145.113 89.0869 145.344 91.2422C146.705 90.0382 146.217 85.5448 144.67 84.9462ZM141.111 82.0524C141.087 81.5353 141.052 80.8839 141.014 80.2418C140.801 80.2336 140.579 80.2217 140.356 80.2098C140.209 80.9406 139.801 81.7848 140.007 82.3849C140.189 82.9105 141.046 83.2588 141.67 83.4833C141.902 83.553 142.443 83.0853 142.643 82.7426C142.741 82.5759 142.454 81.9874 142.209 81.8692C141.955 81.7473 141.536 81.9605 141.105 82.0393L141.111 82.0524ZM84.5485 32.9218C87.1207 33.276 89.721 33.6413 92.5585 34.0352C89.8107 32.5635 85.5074 32.0784 84.5485 32.9218ZM85.7739 84.544C85.8501 84.8442 85.8798 85.1801 86.0212 85.452C86.253 85.8783 86.7625 86.2304 86.8001 86.6559C86.9108 87.8558 87.6717 87.7342 88.8502 87.8419C88.1007 86.5631 87.5542 85.5372 86.8942 84.6072C86.7551 84.4119 86.1679 84.5587 85.7833 84.5477L85.7739 84.544ZM28.1099 43.009C27.4457 41.98 26.7872 40.964 26.123 39.935C25.9646 39.9807 25.8061 40.0263 25.644 40.0813C25.8052 40.9337 25.7727 41.8936 26.1869 42.5972C26.4431 43.0439 27.3339 43.1139 27.9418 43.3534C27.986 43.2411 28.0526 43.1269 28.1099 43.009ZM92.7584 89.9329C93.4915 89.087 94.1364 88.1631 94.8114 87.2727C94.7473 87.161 94.6796 87.0586 94.6156 86.9469C94.087 87.2466 93.517 87.4867 93.0297 87.8459C92.6281 88.1524 92.3185 88.5816 91.9733 88.9643C91.7969 89.165 91.5722 89.379 91.495 89.6296C91.4508 89.7419 91.697 90.0767 91.8334 90.0871C92.1377 90.1098 92.5952 90.1279 92.7584 89.9329ZM97.356 104.616L95.4062 109.564C96.6828 108.792 97.8745 105.987 97.356 104.616ZM27.7802 50.8655C28.741 50.7578 29.6936 50.5063 30.6501 50.2996C30.6363 50.1428 30.6281 49.9991 30.6105 49.8517C29.6693 49.7727 28.7335 49.6525 27.7945 49.65C27.5332 49.6551 27.2682 50.0262 26.9929 50.2312C27.261 50.4557 27.5395 50.9004 27.7802 50.8655ZM24.8633 41.103C24.9733 41.0707 25.0833 41.0384 25.1932 41.006C25.2928 40.3968 25.3887 39.797 25.4772 39.2159C24.6627 39.0895 23.9732 38.9475 23.2822 38.8914C23.0954 38.8718 22.7641 39.0547 22.6978 39.2231C22.6388 39.3728 22.8348 39.7526 22.9975 39.8059C23.4201 39.94 23.8869 39.9618 24.2063 40.0012C24.4511 40.4218 24.6619 40.7643 24.8633 41.103ZM106.437 99.3641C105.942 101.06 105.49 102.59 104.947 104.462C106.329 103.093 107.006 100.691 106.437 99.3641ZM126.936 93.3484C126.407 93.8964 125.89 94.2221 125.926 94.4311C126.03 94.9906 126.369 95.5023 126.623 96.0349C126.921 95.8821 127.473 95.6888 127.463 95.5768C127.398 94.9461 127.186 94.3329 126.933 93.3578L126.936 93.3484ZM105.378 37.2274C105.441 37.0684 105.504 36.9093 105.563 36.7597C105.083 36.3869 104.653 35.9149 104.118 35.6825C103.85 35.5663 103.385 35.8694 103.016 35.9833C103.199 36.3689 103.301 36.9602 103.582 37.0707C104.119 37.2714 104.766 37.1914 105.365 37.2331L105.378 37.2274ZM111.443 45.6365C110.837 46.1326 110.244 46.6231 109.389 47.3128L111.175 48.0166C111.378 47.2537 111.587 46.5039 111.791 45.7411C111.675 45.7062 111.559 45.6714 111.443 45.6365ZM131.193 79.8306C131.277 79.5072 131.286 79.1542 131.247 78.8146C131.198 78.3631 131.095 77.9118 131.02 77.4715C130.88 77.4163 130.732 77.3797 130.592 77.3244C130.352 77.8242 129.988 78.3078 129.913 78.8291C129.873 79.1486 130.239 79.5631 130.517 79.8454C130.632 79.9661 131.167 79.8961 131.183 79.8269L131.193 79.8306ZM69.6268 79.3492C70.2056 80.485 71.1124 81.1449 72.3473 81.3289C72.4473 81.1846 72.5568 81.044 72.6605 80.8903C71.737 80.2454 70.8228 79.6042 69.9049 78.9724C69.8122 79.098 69.7195 79.2236 69.6268 79.3492ZM152.876 56.2767C152.978 56.1006 153.07 55.9209 153.178 55.7579C152.59 55.3857 151.992 55.0099 151.404 54.6377C151.251 54.9447 150.896 55.3237 150.97 55.5474C151.313 56.5146 152.086 56.4732 152.876 56.2767ZM130.766 63.8301C130.608 63.984 130.498 64.2646 130.508 64.4849C130.556 65.379 131.344 65.8733 132.771 65.6791C132.202 64.9577 131.786 64.3941 131.321 63.8757C131.225 63.7623 130.857 63.7362 130.766 63.8301ZM127.292 79.2015C128.001 79.1567 128.698 78.9775 129.405 78.8561C129.372 78.6378 129.349 78.4232 129.329 78.1993C128.724 78.1446 128.115 78.0451 127.506 78.0539C127.267 78.0571 127.041 78.3029 126.795 78.433C126.959 78.7029 127.129 79.2023 127.292 79.2015ZM74.7069 90.9151C74.4599 92.2551 74.2128 93.5951 73.9657 94.9351C74.1264 94.966 74.2965 95.0006 74.4572 95.0315C74.764 93.7042 75.0709 92.377 75.3778 91.0497C75.1573 91.0061 74.9274 90.9587 74.7069 90.9151ZM132.706 80.1568C132.907 79.8682 133.058 79.6471 133.207 79.4354C133.107 79.3313 133.008 79.2273 132.899 79.1196C132.408 79.5423 131.903 79.9482 131.455 80.3987C131.405 80.4438 131.639 80.9466 131.79 80.9739C132.437 81.0881 133.098 81.1107 133.748 81.1614C133.764 81.0381 133.78 80.9148 133.796 80.7915C133.453 80.5917 133.111 80.3918 132.716 80.1605L132.706 80.1568ZM79.4379 106.137C79.2268 106.097 79.0287 106.051 78.8175 106.011C78.547 107.137 78.2801 108.253 78.0096 109.378C78.2207 109.418 78.4375 109.471 78.6486 109.511C78.9192 108.386 79.1767 107.266 79.4473 106.14L79.4379 106.137ZM112.158 42.0386C112.886 42.0553 113.619 41.9226 114.353 41.844C114.369 41.7207 114.385 41.5974 114.395 41.461C113.713 41.3003 113.04 41.0892 112.342 40.9976C112.095 40.9653 111.807 41.2301 111.539 41.3622C111.745 41.6057 111.94 42.0173 112.153 42.0255L112.158 42.0386ZM82.9912 85.3821C82.2749 85.8564 81.555 86.34 80.6936 86.9084C82.0219 87.4858 82.7143 87.0994 83.2097 85.76C83.14 85.6352 83.0572 85.5162 82.9875 85.3915L82.9912 85.3821ZM111.138 50.1957C111.23 50.0159 111.313 49.8325 111.409 49.6435C110.849 49.2823 110.293 48.9118 109.724 48.547C109.617 48.8725 109.383 49.4394 109.432 49.4803C109.976 49.7705 110.567 49.9709 111.138 50.1957ZM82.0607 28.6238C80.9155 28.4319 79.9496 28.2783 78.6811 28.0703C79.5799 29.3538 80.3941 29.4261 82.0607 28.6238ZM31.0399 13.4711C32.1234 13.2712 33.2163 13.075 34.3055 12.8881C34.2899 12.7631 34.2613 12.6438 34.2457 12.5187C33.1429 12.603 31.9764 12.2731 30.9512 12.9282C30.9764 13.1111 31.0053 13.2845 31.0399 13.4711ZM108.939 53.8574C109.605 53.8931 110.275 53.8112 110.952 53.7647C110.968 53.5872 110.975 53.4061 110.981 53.2249C110.38 53.1067 109.783 52.9474 109.178 52.8928C108.947 52.8772 108.696 53.1026 108.467 53.2177C108.627 53.4427 108.774 53.8359 108.952 53.8518L108.939 53.8574ZM94.7601 106.954C94.6386 106.906 94.5263 106.862 94.4048 106.814L93.3359 109.527C93.4501 109.593 93.5549 109.656 93.6654 109.732L94.7565 106.963L94.7601 106.954ZM24.5058 20.3205C25.1609 19.5627 25.7579 18.7604 26.3736 17.9655C26.2914 17.9548 26.2222 17.9383 26.14 17.9276C25.4445 18.4316 24.7338 18.9189 24.0589 19.4528C23.9064 19.5656 23.8724 19.844 23.7913 20.0498C24.0438 20.1493 24.4539 20.3973 24.5114 20.3335L24.5058 20.3205ZM148.321 48.8622C148.428 48.591 148.553 48.327 148.666 48.0688C148.127 47.8457 147.602 47.617 147.067 47.3845C146.967 47.6371 146.768 48.0881 146.801 48.1122C147.283 48.3991 147.808 48.6278 148.317 48.8716L148.321 48.8622ZM46.9422 67.8501C47.2692 68.2815 47.6724 68.6565 48.0496 69.0429C48.2316 68.8552 48.4229 68.6712 48.6142 68.4873C48.207 68.0675 47.7998 67.6476 47.3926 67.2278C47.2407 67.4489 46.9065 67.8036 46.9515 67.8538L46.9422 67.8501ZM90.672 30.8711C92.2432 31.1335 93.8051 31.3923 95.38 31.6453C95.3945 31.5538 95.4126 31.4529 95.4308 31.3519C93.8783 31.0969 92.3164 30.8381 90.7602 30.5924C90.7233 30.686 90.7089 30.7775 90.6814 30.8748L90.672 30.8711ZM90.6737 108.002C90.494 107.91 90.318 107.808 90.129 107.712L89.1891 110.098C89.3294 110.153 89.4566 110.214 89.5932 110.278C89.9553 109.524 90.3116 108.757 90.6737 108.002ZM152.89 61.9451C153.043 61.1732 153.151 60.7077 153.223 60.2499C153.245 60.1396 153.162 60.0205 153.124 59.8975C153 59.8272 152.868 59.7532 152.74 59.6923C152.507 60.1192 152.151 60.53 152.069 60.9841C152.026 61.2047 152.49 61.5066 152.886 61.9544L152.89 61.9451ZM39.8555 11.8543C40.3041 11.977 40.8171 11.909 41.2969 11.9251C41.3151 11.8242 41.3333 11.7233 41.3514 11.6223C40.9564 11.391 40.5815 11.0812 40.1495 10.9435C39.9214 10.8644 39.594 11.092 39.3126 11.1757C39.4874 11.4175 39.6257 11.807 39.8555 11.8543ZM116.557 81.0562C117.026 80.7979 117.532 80.6085 117.519 80.5059C117.459 80.1365 117.226 79.7961 117.06 79.4497C116.797 79.5948 116.359 79.6924 116.301 79.8962C116.222 80.1785 116.425 80.5397 116.557 81.0562ZM64.9988 78.1525C65.1044 78.3779 65.243 78.8215 65.3195 78.8193C65.756 78.7535 66.1601 78.5777 66.7398 78.3954C66.4748 78.0533 66.3144 77.7199 66.2118 77.7335C65.7904 77.816 65.4012 78.0085 64.9894 78.1488L64.9988 78.1525Z" fill="white"/>
</svg>
