<svg width="134" height="234" viewBox="0 0 134 234" fill="none" xmlns="http://www.w3.org/2000/svg">
<path d="M86.4779 215.789C86.9104 215.147 87.3009 215.063 87.9984 215.315C89.3793 215.817 90.7602 216.291 92.1969 216.612C99.6176 218.273 107.066 219.878 114.501 221.497C117.458 222.153 120.429 222.795 123.4 223.437C122.954 223.102 122.466 222.893 121.963 222.781C117.849 221.79 113.734 220.799 109.619 219.864C103.161 218.371 96.6884 216.933 90.2301 215.44C89.3932 215.245 88.5842 214.882 87.8589 214.631C88.1239 213.486 88.3331 212.551 88.5982 211.435C103.844 214.798 118.951 218.943 133.513 220.576C119.202 217.464 103.914 214.142 88.5563 210.793C88.6121 209.983 88.5982 209.327 88.7237 208.699C91.1787 196.753 92.3085 184.625 93.7173 172.539C94.8053 163.203 95.6144 153.838 96.7721 144.502C98.3204 131.941 100.106 119.409 101.724 106.862C102.407 101.573 103.021 96.2838 103.537 90.9666C104.151 84.812 104.639 78.6435 105.141 72.4749C105.211 71.5817 105.602 71.1212 106.327 70.7025C107.833 69.8233 109.326 68.9022 110.749 67.8973C111.906 67.06 112.269 65.2317 111.823 63.9478C110.219 59.3423 107.359 55.644 103.733 52.462C100.301 49.4615 96.0468 48.2194 91.8343 47.0889C86.2966 45.5817 80.5916 44.8978 74.8587 44.5071C72.6269 44.3675 70.409 44.1582 68.1772 43.9907C70.8972 34.2355 73.6033 24.5361 76.1977 15.2414C76.9091 14.711 77.6484 14.4598 77.7879 13.9993C77.9553 13.4689 77.6205 12.7711 77.495 12.185C78.3598 12.5618 79.1409 13.2038 79.7826 13.0921C80.48 12.9665 81.0519 12.1431 81.4983 11.7803C82.1817 12.0873 82.8513 12.6316 83.479 12.6037C84.3856 12.5479 85.2644 12.0594 86.1711 11.7942C86.3245 11.7524 86.5477 11.878 86.729 11.9617C88.1657 12.6455 89.5885 13.3852 91.0531 14.0132C93.2152 14.9483 95.447 15.7438 97.5811 16.7486C101.668 18.6885 105.699 20.7261 109.744 22.7218C112.06 23.8662 113.176 23.601 114.027 21.2006C114.682 19.3584 114.864 17.3348 115.101 15.3809C115.268 13.9714 114.459 13.0224 113.162 12.4641C105.95 9.33797 98.7668 6.19787 91.5553 3.08569C90.3975 2.58327 89.1561 2.26228 87.6496 1.75987C87.4683 1.22954 87.287 0.0153673 85.7805 0.838771C85.7108 0.880639 85.4597 0.768991 85.4039 0.671299C84.9017 -0.180017 84.3438 0.182839 83.7719 0.573607C83.4092 0.824815 83.0326 1.03415 82.6699 1.25745C81.7586 0.0386272 80.6613 -0.152105 79.378 0.685255C77.4392 -0.375401 77.0905 -0.235841 75.863 1.69009C75.6956 1.95525 75.0539 2.05294 74.6634 2.02503C73.5754 1.92734 72.8082 2.05294 72.7942 3.42063C72.7942 3.69975 72.32 4.1603 72.0131 4.21612C70.0603 4.53711 70.0603 4.5092 70.3532 6.46304C70.3811 6.63051 70.3532 6.81194 70.3532 6.81194C69.6139 7.28644 68.7352 7.52369 68.5259 8.04006C67.8843 9.645 67.4658 11.3337 66.9916 13.0084C65.4154 18.6466 63.8531 24.2988 62.3048 29.951C61.161 34.1099 60.0451 38.2688 58.8595 42.4137C58.72 42.8882 58.2039 43.5999 57.8273 43.6279C51.7456 44.0465 45.65 44.3815 39.5684 44.7443C30.8365 45.2607 22.2301 46.5447 13.9585 49.4615C9.5647 51.0106 5.77065 53.4808 3.97126 58.1421C3.80388 58.5887 3.44121 58.9655 3.24593 59.3981C2.33926 61.4357 1.25126 63.4175 0.651469 65.5388C0.0377252 67.7159 0.386443 69.8372 2.66008 71.1491C4.27814 72.0841 5.8125 73.1587 7.4445 74.0659C8.23957 74.5125 8.90911 74.7776 8.68593 75.922C8.56039 76.564 8.81147 77.2897 8.90911 77.9736C10.3458 88.287 11.9081 98.5866 13.1774 108.914C14.2654 117.762 14.921 126.652 15.9253 135.514C17.0831 145.744 18.4919 155.946 19.6496 166.175C20.7795 176.154 21.728 186.174 22.802 196.167C23.3739 201.54 24.0574 206.913 24.6991 212.286C24.7409 212.621 24.8525 213.068 25.0896 213.263C26.9169 214.756 28.6326 216.445 30.6552 217.575C35.1327 220.073 39.9869 221.483 45.1758 221.762C48.7048 221.944 52.2757 222.139 55.721 222.851C66.2941 225 76.6999 227.847 86.8964 231.42C88.9608 232.145 91.0671 232.787 93.1454 233.485C80.8566 228.559 68.233 224.791 55.191 222.32C55.9581 222.223 56.7253 222.223 57.4786 222.223C61.0634 222.153 64.6482 222.055 68.2191 221.985C69.1397 221.972 70.13 221.748 70.9809 221.985C78.9596 224.26 86.9243 226.605 94.889 228.95C98.2367 229.94 101.57 230.945 104.904 231.95C94.1776 227.666 82.8513 225.307 71.9015 221.609C72.5432 221.399 73.2127 221.385 73.7986 221.148C77.1602 219.78 80.3405 220.534 83.7161 221.441C91.0671 223.395 98.5296 224.916 105.95 226.619C107.764 227.038 109.591 227.442 111.418 227.861C101.222 224.246 90.4115 223.074 79.7965 219.753C81.1077 219.166 82.0423 218.664 83.0326 218.329C83.6882 218.106 84.4693 217.938 85.111 218.092C97.1487 220.925 109.186 223.814 121.21 226.689C121.489 226.758 121.768 226.786 122.033 226.828C109.995 222.572 97.5114 220.143 84.7623 217.366C85.5155 216.682 86.1292 216.305 86.5198 215.761L86.4779 215.789ZM113.929 14.8925C114.529 16.8742 113.831 20.1399 112.423 21.7588C111.39 20.126 112.423 15.6042 113.929 14.8925ZM89.8814 8.83556C90.2301 7.45391 90.5789 6.08623 90.9834 4.49524C98.0693 7.53765 105.113 10.5521 112.088 13.5527C111.641 14.8227 111.265 15.7996 110.944 16.8044C110.637 17.7674 110.358 18.7443 110.079 19.7073C108.35 19.3584 108.294 19.2746 108.308 17.2789C108.224 17.7674 108.154 18.2559 108.085 18.7304C107.959 18.7304 107.833 18.7583 107.694 18.7722C107.61 18.1023 107.527 17.4324 107.401 16.3718C107.289 17.2092 107.206 17.7116 107.136 18.2279C106.643 18.0326 106.373 17.2975 106.327 16.0229C106.257 16.5951 106.187 17.1533 106.104 17.879C104.263 16.9859 102.477 16.2183 100.831 15.2274C100.427 14.9902 100.469 14.0132 100.315 13.3992C100.259 13.8178 100.19 14.3063 100.092 14.9622C98.7528 14.2086 97.2464 13.9435 96.2281 12.7711C96.2281 12.7711 96.0468 12.8968 95.8515 13.0084C95.712 12.5618 95.5725 12.1292 95.447 11.7384C95.3912 11.9198 95.2935 12.199 95.2098 12.492C93.4941 12.4222 92.4341 11.878 92.2527 11.0825C92.0435 11.1941 91.7785 11.4593 91.5832 11.4174C91.0392 11.2918 90.4673 11.1243 90.007 10.8313C89.7838 10.6777 89.7141 10.1753 89.7001 9.82643C89.6862 9.5194 89.8256 9.18446 89.8954 8.87742L89.8814 8.83556ZM87.4962 9.75665C87.7891 8.05402 88.096 6.33743 88.3889 4.6348C88.4308 4.39755 88.4168 4.10447 88.5563 3.937C88.7237 3.72766 89.0306 3.62997 89.2816 3.47645C89.3793 3.74162 89.6025 4.03469 89.5467 4.25799C88.9887 6.40721 88.3889 8.54248 87.7891 10.6777C87.6915 10.6777 87.5799 10.6777 87.4823 10.6917C87.4823 10.3847 87.4404 10.0637 87.4823 9.77061L87.4962 9.75665ZM86.0176 2.02503C87.0638 3.43459 87.287 4.71854 86.9383 6.16996C86.7011 7.18875 86.6732 8.26336 86.45 9.28215C86.3664 9.645 86.0037 9.93808 85.7666 10.273C85.6689 10.2032 85.5852 10.1474 85.5015 10.0776C85.6689 7.48183 85.8363 4.88601 86.0176 2.01107V2.02503ZM84.1346 1.80173C84.288 2.48558 84.5112 2.96008 84.4972 3.43459C84.4554 5.38843 84.4414 7.34226 84.2322 9.28215C84.1764 9.85434 83.5627 10.3707 83.2 10.915C83.0745 10.901 82.9489 10.8871 82.8094 10.8592C82.7257 10.4963 82.5723 10.1474 82.5723 9.78456C82.5444 7.69117 82.642 5.56985 82.5305 3.47645C82.4607 2.27624 83.4511 2.45767 84.1346 1.80173ZM100.957 75.0009C100.343 75.2661 99.6595 75.3638 99.0457 75.629C98.4738 75.8662 97.9717 76.2291 97.3022 76.6198C97.3998 75.6987 99.8408 74.2054 102.087 73.4518C102.393 74.4567 101.612 74.7358 100.971 75.0149L100.957 75.0009ZM81.2332 76.243V71.7911H81.0798C81.0798 72.6982 81.1077 73.6053 81.0798 74.5125C81.01 76.6477 80.9961 76.6477 78.7225 76.5919C78.848 74.7079 78.9735 72.8098 79.113 70.9258C79.0293 70.9258 78.9317 70.9118 78.848 70.8979C78.7225 72.5307 78.5411 74.1496 78.5132 75.7685C78.4993 76.564 78.1924 76.8431 77.4671 76.9129C73.1151 77.3595 68.8468 78.4341 64.3971 78.3364C57.4786 78.1829 50.56 78.4062 43.6414 78.2387C39.4568 78.141 35.2861 77.6386 31.1155 77.2758C30.8644 77.2478 30.432 76.7734 30.4599 76.5501C30.6552 74.6939 30.8923 72.8378 31.2271 70.9956C31.2689 70.7583 31.8827 70.4373 32.2174 70.4652C34.2818 70.6048 36.3462 70.8281 38.4107 71.0374C41.3678 71.3305 44.311 71.6236 47.2681 71.9027C48.2306 71.9864 48.2445 71.9585 48.3979 72.5028C48.663 72.3493 48.9698 72.0423 49.3325 71.9725C49.8068 71.8748 50.3089 71.9725 50.7971 71.9725C55.191 71.7631 59.5709 71.5538 63.9508 71.3445C65.8478 71.2607 67.7448 71.177 69.6418 71.1491C69.9348 71.1491 70.2416 71.4003 70.5764 71.5538C70.8554 70.9956 73.0732 70.5629 76.3093 70.6885C76.2117 72.0423 76.114 73.396 76.0164 74.7497C76.0722 74.7497 76.128 74.7497 76.1838 74.7637C76.2535 73.6472 76.3512 72.5307 76.3791 71.4142C76.407 70.7862 76.6023 70.4931 77.2857 70.3815C80.8148 69.8233 84.3298 69.2232 87.8449 68.5951C88.5424 68.4695 88.919 68.5951 88.9887 69.3767C89.1143 70.6746 89.2677 71.9585 89.4909 73.2425C89.7001 74.4427 89.1561 74.8753 88.0402 74.8195C87.7752 73.1727 87.5101 71.5398 87.2451 69.907C87.1754 69.907 87.1056 69.9349 87.0359 69.9349C87.2033 71.177 87.3846 72.4191 87.5241 73.6612C87.6915 75.2242 87.6775 75.2242 85.8503 75.5452C85.655 73.717 85.4457 71.8887 85.2505 70.0605C85.1947 70.0605 85.1389 70.0745 85.0831 70.0884C85.1668 71.498 85.2505 72.9075 85.3481 74.3171C85.4132 75.3405 84.8227 75.8802 83.5766 75.936V70.1861C83.4929 70.1861 83.3953 70.1861 83.3116 70.1861C83.3116 71.6236 83.3116 73.0611 83.3116 74.4846C83.3116 76.243 83.2279 76.3268 81.2472 76.2291L81.2332 76.243ZM81.4006 81.2114C78.9456 81.5323 76.4628 81.6998 74.0357 82.1743C65.0527 83.877 56 83.5699 46.9473 83.3466C41.9257 83.221 36.9042 82.593 31.8827 82.1743C30.5715 82.0766 30.9899 81.1137 30.962 80.2484C48.1608 81.7138 65.2898 82.0906 82.4049 79.9134C82.6281 80.9322 82.0562 81.1276 81.4146 81.1974L81.4006 81.2114ZM15.5208 73.2564C15.8695 71.5678 16.2461 69.8651 16.6088 68.1625C16.8041 68.0229 17.0133 67.7857 17.1528 67.8276C18.8824 68.2183 20.6121 68.651 22.3278 69.0836C22.3278 69.1255 22.3138 69.1534 22.2999 69.1952C22.2999 69.1673 22.3138 69.1255 22.3278 69.0976V69.0836C23.4018 69.3488 24.448 69.7116 25.536 69.8512C27.1401 70.0605 28.7581 70.1163 30.3622 70.2559C30.5575 70.2559 30.7389 70.3675 30.9062 70.4234C30.5575 72.6424 30.2088 74.8195 29.8322 77.2199C27.8794 76.9129 25.8568 76.6338 23.8482 76.2291C21.3514 75.7266 18.8824 75.0986 16.3996 74.5683C15.6324 74.4008 15.3813 73.9961 15.5348 73.2844L15.5208 73.2564ZM14.8234 74.024C13.2751 73.9124 13.0937 73.8007 13.3588 72.2237C13.6377 70.5629 14.112 68.944 14.6002 66.8785C15.4511 67.4368 16.009 67.7996 16.567 68.1765C16.567 68.1765 16.5809 68.1765 16.5949 68.1625C16.009 70.1024 15.4232 72.0423 14.8094 74.024H14.8234ZM94.1916 72.1539C94.2334 72.4889 93.7313 73.0052 93.3547 73.2425C92.9362 73.5216 92.3782 73.5635 91.8064 73.7449C91.5274 72.0423 91.2484 70.4513 90.9834 68.8463C90.9136 68.8463 90.8299 68.8743 90.7602 68.8882C90.8997 70.2419 91.0531 71.6096 91.1926 72.9634C91.2903 73.8426 90.9415 74.2752 89.9791 74.1636C89.728 72.3353 89.463 70.5071 89.17 68.4835C90.4394 68.2183 91.7506 67.9392 93.3407 67.6043C93.6615 69.2232 94.0103 70.6746 94.1776 72.1539H94.1916ZM93.6197 67.5903C93.9405 67.4926 94.2753 67.3949 94.7774 67.2554C94.903 69.0836 95.0146 70.7862 95.1401 72.5028C95.0146 72.5307 94.889 72.5447 94.7635 72.5586C94.3869 70.9397 94.0103 69.3069 93.6197 67.5903ZM83.3674 79.746C87.5938 78.4899 91.8343 77.2758 96.0747 76.0756C96.256 76.0337 96.4513 76.0337 96.6466 76.0197C96.6884 76.0895 96.7442 76.1593 96.7861 76.243C96.5489 76.4524 96.3536 76.7733 96.0747 76.8571C91.7506 78.2108 87.4125 79.5227 83.0326 80.8485C83.0326 80.8485 82.9908 80.8485 82.5305 80.8485C82.8931 80.3461 83.0745 79.8437 83.3674 79.746ZM95.168 67.1158C96.5071 68.5254 96.6187 71.9864 95.4749 72.447C95.3633 70.5908 95.2656 68.8463 95.168 67.1158ZM96.0049 67.4089C95.9631 67.1995 96.2978 66.9344 96.4513 66.6971C96.5908 66.725 96.7442 66.7669 96.8837 66.7948C97.0371 68.4416 97.1906 70.0745 97.344 71.7213H97.0092C96.6745 70.2838 96.2978 68.8603 96.0189 67.4089H96.0049ZM100.231 70.4652C99.1852 66.7809 99.1573 66.111 100.05 65.7481C100.845 67.7996 100.929 70.0466 100.231 70.4652ZM100.482 65.5527C100.622 65.5248 100.761 65.5109 100.901 65.4829C101.194 66.9623 101.487 68.4416 101.78 69.907C101.57 69.9349 101.375 69.9628 101.166 69.9907L100.482 65.5527ZM99.785 70.3257C99.8129 70.6606 99.0736 71.0653 98.5436 71.5678C98.3065 69.7953 98.0693 68.3718 97.9577 66.9344C97.9298 66.6413 98.418 66.3064 98.6552 65.9993C98.7947 66.0412 98.9202 66.0691 99.0457 66.1249C99.3108 67.5205 99.6595 68.9161 99.7711 70.3257H99.785ZM98.0135 71.2468C97.9438 71.2468 97.874 71.2607 97.7904 71.2747C97.5951 69.7535 97.3998 68.2323 97.2045 66.7111C97.344 66.7111 97.4695 66.6832 97.609 66.6832C97.7485 68.2044 97.8741 69.7395 98.0135 71.2607V71.2468ZM102.128 69.4046C101.808 67.9532 101.487 66.5157 101.166 65.0643C101.347 65.0224 101.543 64.9805 101.724 64.9387C102.059 66.3901 102.393 67.8415 102.728 69.2929C102.519 69.3348 102.324 69.3627 102.128 69.4185V69.4046ZM103.049 68.8882C102.7 67.5205 102.352 66.1528 102.003 64.7991C102.114 64.7712 102.226 64.7433 102.352 64.7014C102.756 66.0551 103.147 67.3949 103.551 68.7487C103.384 68.8045 103.23 68.8463 103.063 68.8882H103.049ZM103.802 68.3579C103.356 66.9902 102.91 65.6225 102.463 64.2548C102.631 64.199 102.784 64.1432 102.951 64.0873C103.356 65.4829 103.76 66.8646 104.179 68.2462C104.053 68.2881 103.928 68.316 103.802 68.3579ZM105.532 61.3241C107.122 63.2919 107.513 65.3992 106.425 66.5157C105.741 65.2178 105.072 64.0176 104.486 62.7755C103.984 61.7148 104.932 61.6311 105.532 61.3101V61.3241ZM103.677 62.9011C103.872 62.8453 104.067 62.7894 104.263 62.7336C104.807 64.0036 105.392 65.2736 105.825 66.5855C105.922 66.8785 105.42 67.3531 105.197 67.7438L104.765 67.6182C104.639 65.9993 103.44 64.5758 103.677 62.9011ZM80.6474 1.18767C80.8148 1.22954 80.9961 1.28536 81.1774 1.34119V7.95633C80.759 6.19787 80.2568 4.42546 79.936 2.61118C79.8663 2.1925 80.3963 1.66217 80.6474 1.18767ZM74.3426 2.98799C74.7192 3.32294 75.2492 3.5881 75.4585 4.00678C76.3233 5.79315 77.0765 7.63534 77.9274 9.43566C78.2203 10.0776 78.6667 10.6359 79.0433 11.236C79.1967 11.1941 79.3501 11.1383 79.5175 11.0825C79.392 10.5103 79.3501 9.89621 79.127 9.37984C78.4993 7.88655 77.9413 6.33743 77.0905 4.96975C76.1559 3.44854 76.8115 2.34602 77.6624 0.782947C78.0808 1.52261 78.5132 2.01107 78.6388 2.56931C79.2107 5.10931 79.7128 7.6493 80.1731 10.2032C80.2568 10.6498 80.0755 11.2499 79.7826 11.6128C79.671 11.7524 78.9177 11.5291 78.5411 11.3197C78.1366 11.0825 77.7739 10.7057 77.5089 10.3288C76.5046 8.84951 75.4864 7.38413 74.5936 5.83502C74.1752 5.09535 74.0357 4.20217 73.7707 3.36481C73.9659 3.2392 74.1612 3.1136 74.3426 2.98799ZM71.4273 5.51403C72.2363 5.207 72.8919 5.29073 73.4359 6.23974C74.2868 7.70512 75.2632 9.11468 76.3093 10.7336C75.2911 10.0916 74.482 9.44962 73.5754 9.0449C72.0271 8.37501 71.1204 7.38413 71.4273 5.51403ZM71.0228 8.58435C72.4316 9.36588 73.8125 10.2312 75.1097 11.1941C75.6816 11.6128 76.0025 12.3664 76.4349 12.9665C76.3093 13.0782 76.1977 13.1898 76.0722 13.3154C75.8072 13.2457 75.5143 13.2177 75.2911 13.0782C73.5893 12.0036 71.8736 10.929 70.2137 9.79852C69.8929 9.58918 69.7534 9.08676 69.5442 8.70995C70.0464 8.65413 70.674 8.38896 71.0367 8.58435H71.0228ZM62.8349 32.6445C64.8993 25.3315 66.8381 17.9907 68.8747 10.5103C70.4648 11.5012 71.9713 12.4362 73.4917 13.3713C74.0775 13.7481 74.231 14.2924 73.7707 14.7948C72.1666 16.5114 72.1387 18.8001 71.511 20.8517C70.6461 23.6568 70.0185 26.5318 69.2513 29.3509C68.4283 32.3793 67.5774 35.4078 66.6708 38.4223C66.2384 39.8597 65.5828 41.2414 65.1364 42.6928C64.8156 43.7255 64.704 44.8281 64.439 45.8887C64.3692 46.1678 64.0484 46.3911 63.8531 46.6144C63.895 46.6842 64.2437 46.9773 64.1879 47.1448C64.0066 47.689 63.6857 48.1636 63.3649 48.7497C63.3928 48.7916 63.6997 49.1963 63.6439 49.2521C62.807 50.1174 63.8392 52.1131 61.7608 52.2666C62.1095 52.5039 62.3885 52.6853 62.6675 52.8807C62.6675 52.9505 62.6396 53.0342 62.6256 53.1179H60.8681C61.3702 53.2994 61.7887 53.4529 62.1932 53.5924C61.6353 54.8345 59.2361 55.2392 56.4742 54.4577C58.5945 47.1866 60.7705 39.9156 62.8349 32.6305V32.6445ZM65.2619 58.5329C62.2211 59.3423 59.1106 59.6773 55.9581 59.6214C51.0342 59.5377 46.1104 59.2865 41.3817 57.7374C40.4332 57.4303 39.5266 56.9698 38.6199 56.579C39.2894 54.5973 39.8195 54.4577 41.6328 54.9322C43.5159 55.4207 45.4548 55.7975 47.3797 55.8812C52.1641 56.1045 56.9764 56.1324 61.7608 56.2301C62.1653 56.2301 62.5838 56.2162 62.9743 56.1185C64.0484 55.8673 64.969 56.0208 65.6804 56.9419C65.527 56.6767 65.3735 56.4115 65.1922 56.0766C66.1128 55.6021 66.8381 55.4486 67.3124 56.5372C66.9916 55.965 67.0195 55.5742 67.7867 55.4207C68.4841 55.2811 69.1676 54.9741 69.865 54.8206C70.953 54.5833 71.0786 55.5323 71.3017 56.2022C71.3575 56.3557 70.8135 56.7744 70.4788 56.9419C70.0603 57.1652 69.5163 57.1931 69.1118 57.4443C68.3028 57.9328 67.8285 57.6257 67.4658 56.9C67.4658 57.2489 67.4379 57.5978 67.424 57.9467C66.9776 57.8211 66.5313 57.6955 66.0849 57.5839C66.3639 58.3933 65.7641 58.4212 65.234 58.5468L65.2619 58.5329ZM41.9815 53.425C46.4591 52.2945 51.0063 52.0294 55.721 52.0712C55.5118 52.9784 55.3305 53.718 55.1352 54.5694C50.7134 54.4856 46.2917 54.7787 41.9815 53.425ZM65.2619 54.2623C65.4293 52.0712 65.4991 52.0015 67.2985 52.1271C67.9401 52.1829 68.5678 52.2666 69.1955 52.3224C69.2234 52.4899 69.2513 52.6295 69.2931 52.7969C67.9819 53.2715 66.6847 53.732 65.2619 54.2623ZM10.6806 56.6907C12.3126 53.8157 15.0047 52.462 17.9339 51.7223C23.1368 50.4105 28.3676 49.0288 33.682 48.345C39.959 47.5634 46.3335 47.4937 52.6662 47.1169C54.1169 47.0192 55.5676 46.9215 57.3112 46.8238C56.8927 48.0798 56.5858 49.0986 56.1953 50.1034C56.1255 50.2988 55.6792 50.4105 55.4002 50.4384C51.8851 50.7594 48.3421 50.9548 44.841 51.4293C42.7487 51.7084 40.4472 51.8479 38.8012 53.3971C37.9364 54.2205 37.3366 55.4067 36.8205 56.5232C36.402 57.4164 36.8205 58.0444 37.8109 58.505C44.2831 61.4636 51.1319 61.966 58.0923 61.5474C61.4121 61.352 64.7319 60.9891 68.0377 60.6123C68.8607 60.5146 69.6139 60.0122 70.4369 59.7749C70.9112 59.6354 71.4412 59.6633 71.9434 59.6075C71.9294 58.7841 72.1108 58.6585 72.9477 58.8399C77.8995 59.9005 82.8652 60.9473 87.817 61.994C88.0681 62.0358 88.3471 62.0358 88.8632 62.0637C83.465 60.7519 78.1506 60.2494 72.9895 58.5608C75.2771 56.4813 75.1516 54.4717 72.7385 52.6853C71.2599 51.5828 69.6279 50.9268 67.7309 51.1501C67.2148 51.2199 66.6987 51.1501 66.0012 51.1501C66.3499 49.8941 66.601 48.7497 67.0334 47.6751C67.145 47.396 67.8425 47.2006 68.247 47.2285C71.5249 47.4518 74.8308 47.5914 78.0948 48.024C82.2375 48.5683 86.3664 49.3079 90.4673 50.1174C92.2109 50.4663 93.8568 51.2199 95.5586 51.7502C97.0232 52.1968 98.5157 52.5318 99.9524 53.0342C100.664 53.2854 101.278 53.8018 101.891 54.2344C104.235 55.8812 103.83 58.1979 101.18 59.9564C97.3858 62.4824 93.0199 63.236 88.64 63.9059C87.7752 64.0455 86.8685 64.0594 86.0176 64.2688C84.1485 64.7154 82.5305 64.1292 80.8706 63.3756C78.2482 62.1754 75.5561 61.1287 72.9058 60.0262C76.1419 61.5194 79.3641 63.0127 82.8513 64.6177C82.3073 64.7572 82.0283 64.8549 81.7354 64.9108C75.0818 66.3064 68.3725 67.046 61.5655 67.0181C58.2318 67.0181 54.8841 67.3391 51.5643 67.2135C47.2681 67.046 42.9579 66.7111 38.6757 66.2366C33.3473 65.6365 28.0189 64.8968 22.7183 64.1013C20.3471 63.7524 18.0037 63.2081 15.6882 62.5661C14.2933 62.1893 12.9263 61.5613 11.657 60.8635C9.77393 59.8168 9.66234 58.5468 10.7085 56.7046L10.6806 56.6907ZM2.50665 67.1716C3.0646 65.2317 3.77598 63.3477 4.45947 61.4497C4.61291 61.031 4.96162 60.6681 5.22665 60.2774C5.38009 60.3192 5.54747 60.3471 5.70091 60.403C5.64511 61.0449 5.70091 61.7288 5.50562 62.3428C4.97557 64.1571 4.36183 65.9435 4.05496 67.8276C4.65475 65.8737 5.2406 63.9338 5.84039 61.98C5.99383 61.98 6.14726 61.966 6.3007 61.9521C6.42624 62.3428 6.76101 62.8313 6.63547 63.1244C5.79855 65.2317 4.87793 67.2833 3.97126 69.3627C2.28347 69.0278 2.04634 68.7905 2.50665 67.1716ZM7.06788 63.4454C7.22132 63.4454 7.3608 63.4454 7.51424 63.4454C7.55609 63.8222 7.58398 64.213 7.62583 64.6037C6.78891 66.4878 5.95198 68.3579 5.11506 70.228C5.11506 67.7857 6.17516 65.6504 7.05393 63.4593L7.06788 63.4454ZM8.76962 72.14C7.89085 71.7213 6.91444 71.3026 6.00778 70.7723C5.8125 70.6606 5.79855 70.0326 5.89619 69.6977C6.44019 67.9811 7.05393 66.2924 7.63978 64.5898C7.82111 64.4921 8.00244 64.3944 8.49065 64.1292C7.69557 66.3901 6.99814 68.3579 6.31465 70.3257C6.41229 70.3675 6.52388 70.3955 6.62152 70.4373C7.31896 68.5533 8.01639 66.6692 8.75568 64.7014C9.43916 65.0643 10.025 65.3573 10.6388 65.6783C10.039 67.7996 9.43916 69.893 8.79752 72.14H8.76962ZM9.34152 71.6375C9.78788 69.7535 10.3179 67.8834 10.9038 65.7202C11.5175 66.1389 11.9081 66.404 12.2987 66.6692C12.2708 66.7809 12.2429 66.9065 12.201 67.0181C12.2429 66.9065 12.2847 66.7948 12.3126 66.6832V66.6553H12.2987C12.9682 66.7948 13.6238 66.9204 14.2236 67.0321C13.6935 69.265 13.1914 71.3863 12.6753 73.5914C11.7686 73.2704 10.7503 72.9773 9.80183 72.5586C9.55075 72.447 9.27178 71.9027 9.34152 71.6375ZM28.4931 211.449C27.3354 200.354 26.2753 189.259 25.0059 178.178C24.0435 169.692 22.802 161.235 21.7559 152.75C20.7655 144.711 19.8728 136.672 18.9243 128.634C17.7387 118.572 16.7064 108.495 15.3255 98.461C14.3212 91.1759 12.8566 83.9607 11.6012 76.7036C11.5594 76.4663 11.5175 76.2291 11.4478 75.8383C14.391 76.5919 17.1528 77.3455 19.9565 77.9736C23.081 78.6714 26.2334 79.2715 29.3719 79.8855C30.8365 80.1786 30.8923 80.2205 30.6273 82.0906C24.7409 80.8764 18.6593 80.6671 13.0519 77.8898C13.0798 78.1689 13.0937 78.2666 13.0937 78.2666C15.0884 78.8249 15.4092 80.36 15.6603 82.1604C17.0273 91.6644 18.5756 101.141 19.9147 110.645C20.8911 117.567 21.6024 124.531 22.4533 131.481C23.2066 137.705 24.0156 143.916 24.7409 150.14C25.3128 155.08 25.8289 160.021 26.3311 164.947C27.0424 171.911 27.7678 178.875 28.3955 185.853C29.2045 194.855 29.9298 203.871 30.697 212.872C30.711 213.109 30.697 213.347 30.697 213.598C29.2603 213.375 28.6187 212.747 28.4792 211.435L28.4931 211.449ZM32.064 214.714C31.7292 214.282 31.1713 213.863 31.1155 213.389C30.8923 211.463 30.8086 209.523 30.6831 207.583C30.7249 207.611 30.7668 207.625 30.8086 207.639C31.3247 209.927 31.8408 212.202 32.3569 214.491C32.2593 214.561 32.1616 214.631 32.0779 214.7L32.064 214.714ZM62.3606 217.171C61.0355 217.226 59.6964 217.352 58.2457 217.45C58.8874 198.721 59.5151 180.215 60.1428 161.793C62.3606 161.319 64.6343 160.83 67.0055 160.328C67.0195 160.495 67.0892 160.747 67.0753 161.012C66.6289 168.367 66.2105 175.721 65.7222 183.076C65.0109 194.046 64.2576 205.001 63.5463 215.97C63.4905 216.78 63.1836 217.129 62.3606 217.171ZM59.7801 160.035C55.3584 159.853 51.2016 159.239 47.5471 156.588C44.5062 154.397 42.6511 151.438 42.3442 147.712C41.7305 140.161 43.4043 133.128 47.7842 126.875C51.2714 121.921 57.4925 119.604 63.3231 122.507C69.7534 125.717 74.2449 130.616 75.8211 137.845C75.8769 138.082 75.9467 138.319 75.9467 138.57C75.9606 139.631 75.9467 140.692 75.9467 141.739C76.0025 141.739 76.0583 141.739 76.114 141.752C75.9467 143.525 75.8769 145.325 75.5979 147.084C74.5239 153.88 66.9358 160.314 59.7661 160.021L59.7801 160.035ZM77.4252 213.612C77.3415 214.477 77.0626 214.91 76.0025 214.742C76.1419 213.514 76.2954 212.286 76.407 211.058C77.0626 203.843 77.6345 196.627 78.3877 189.412C79.0433 183.062 79.8384 176.712 80.6613 170.39C81.9725 160.216 83.4371 150.084 84.7065 139.896C85.8363 130.937 86.8546 121.963 87.8031 112.989C88.4308 107.03 88.8353 101.071 89.3514 95.1115C89.5188 93.1298 89.714 91.148 89.6722 89.1523C89.184 94.7068 88.7376 100.261 88.1936 105.816C87.538 112.626 86.8406 119.423 86.0734 126.219C85.2923 133.1 84.4414 139.966 83.5487 146.818C82.5862 154.201 81.4704 161.57 80.5358 168.953C79.5873 176.419 78.7364 183.9 77.9413 191.394C77.1463 198.791 76.4628 206.215 75.7793 213.626C75.6816 214.659 75.3469 215.189 74.2868 215.259C73.7288 215.301 73.1848 215.468 72.3339 215.649C72.7245 211.714 73.0872 207.96 73.4638 204.233C73.394 204.233 73.3243 204.22 73.2406 204.206C72.9198 207.667 72.5571 211.128 72.2921 214.603C72.2224 215.51 71.9294 215.873 71.0228 215.998C68.6654 216.319 66.3081 216.724 63.7834 217.129C63.7834 216.515 63.7555 216.138 63.7834 215.761C64.146 211.17 64.5645 206.606 64.8574 202.014C65.3038 195.148 65.6525 188.282 66.0431 181.415C66.3081 176.615 66.5592 171.814 66.8381 167.027C66.9637 164.878 67.145 162.728 67.3543 160.579C67.3821 160.23 67.6332 159.77 67.9122 159.602C70.9251 157.844 73.3382 155.457 75.2353 152.554C75.2771 152.499 75.3748 152.485 75.6398 152.345C73.7986 173.223 71.9573 193.976 70.1161 214.728C70.1719 214.728 70.2277 214.728 70.2835 214.728C70.8414 208.657 71.4133 202.587 71.9713 196.53C72.5711 190.124 73.2127 183.732 73.7846 177.326C74.1333 173.349 74.3286 169.371 74.6634 165.394C75.04 160.816 75.4864 156.239 75.9048 151.661C75.9188 151.452 75.9746 151.256 76.0443 151.075C77.7739 146.358 77.6763 141.543 77.216 136.617C76.9649 133.853 77.4392 131.02 77.6903 128.229C78.1087 123.456 78.583 118.669 79.0712 113.896C79.5175 109.486 79.9918 105.076 80.4521 100.666C80.7171 98.126 80.9961 95.5721 81.2611 93.0321C80.9682 94.9859 80.6195 96.9537 80.4102 98.9215C79.7547 104.992 79.127 111.063 78.5272 117.148C77.9832 122.772 77.495 128.411 76.9789 134.049C76.951 134.272 76.9091 134.495 76.8673 134.816C76.6999 134.677 76.5744 134.621 76.5325 134.523C75.2771 131.23 73.2825 128.438 70.7856 125.968C68.3865 123.596 65.7362 121.572 62.4582 120.693C60.5752 120.176 58.5526 120.135 56.5998 119.939C56.1395 119.897 55.6234 120.037 55.177 120.218C50.3229 122.158 46.5288 125.215 44.2273 130.085C41.5073 135.821 40.2379 141.822 40.8238 148.102C41.298 153.238 44.297 156.839 48.7885 159.239C51.7596 160.83 54.9538 161.542 58.3015 161.556C59.2779 161.556 59.6546 161.793 59.6267 162.854C59.2919 172.958 59.0129 183.048 58.6781 193.152C58.5108 198.484 58.2876 203.815 58.1062 209.146C58.0226 211.63 57.9389 214.1 57.897 216.598C57.897 217.282 57.632 217.547 56.9625 217.534C52.6941 217.394 48.4398 217.296 44.1715 217.115C42.4 217.031 40.6285 216.738 38.7733 216.543C38.7733 215.663 38.7733 214.938 38.7733 214.212C38.6617 203.55 38.6199 192.873 38.4246 182.211C38.327 176.922 37.9922 171.632 37.7411 166.343C37.3645 158.332 37.0018 150.321 36.5694 142.311C36.2765 136.91 35.9696 131.509 35.5093 126.122C34.9793 120.009 34.2958 113.896 33.6541 107.798C33.0683 102.131 32.4685 96.4792 31.8687 90.8131C31.6595 88.8732 31.4363 86.9473 31.2271 85.0074C31.52 88.4964 31.7571 91.9854 32.1198 95.4744C32.873 102.801 33.7378 110.114 34.4492 117.455C35.1467 124.754 35.7883 132.053 36.2765 139.352C36.681 145.367 36.8623 151.396 37.1413 157.425C37.5179 166.008 38.0201 174.591 38.2154 183.188C38.4525 193.739 38.4386 204.289 38.5362 214.84C38.5362 215.287 38.4525 215.719 38.3688 216.473C36.8763 216.11 35.4535 215.831 34.1005 215.384C33.8215 215.287 33.6541 214.491 33.6541 214.017C33.6262 207.862 33.696 201.707 33.6262 195.553C33.5147 186.872 33.4589 178.192 33.0822 169.525C32.7475 161.723 32.05 153.922 31.506 146.135C31.0736 140.036 30.711 133.937 30.1809 127.866C29.4835 119.967 28.6884 112.068 27.8375 104.183C27.2377 98.6005 26.4845 93.046 25.7871 87.4636C25.7034 86.7798 25.5778 86.1099 25.4244 85.44C30.2507 126.261 33.9471 167.152 33.2078 208.323C30.0554 166.58 26.903 124.838 21.3653 83.3187C22.272 91.0643 23.2066 98.8099 24.0574 106.555C24.9083 114.315 25.6894 122.088 26.4984 129.848C26.3729 129.862 26.2474 129.876 26.1218 129.89C24.0574 114.58 21.9791 99.2704 19.9147 83.9607C19.8868 83.9607 19.8449 83.9607 19.817 83.9607C22.4533 105.411 25.522 126.82 27.6004 148.326C29.6788 169.874 31.8408 191.436 32.4406 213.151C32.2732 212.551 32.0082 211.951 31.9384 211.337C31.2689 206.048 30.5157 200.758 30.0135 195.455C28.8976 183.788 27.8794 172.093 26.8751 160.412C26.3032 153.796 25.9266 147.167 25.3128 140.566C24.6572 133.644 23.8342 126.736 23.0252 119.814C22.2022 112.78 21.3374 105.76 20.4447 98.7401C19.831 93.8974 19.1475 89.0686 18.3942 84.2398C21.3653 109.277 24.9641 134.258 26.3171 159.477C22.9834 132.918 20.2773 106.276 15.5069 79.8716C16.7483 79.6762 17.4736 80.6112 18.4919 80.7648C19.4404 80.9183 20.6958 80.7508 21.3514 81.6719C21.6443 81.6021 22.007 81.4207 22.3278 81.4765C24.978 81.9092 27.6143 82.3557 30.2367 82.8861C30.5575 82.9419 30.8644 83.4722 31.0457 83.863C31.2131 84.2119 31.2131 84.6445 31.2829 85.0353C31.2829 84.4073 31.2829 83.7793 31.2829 82.9C39.8195 84.4771 48.3561 84.3794 56.8648 84.4073C65.3456 84.4073 73.7707 83.6676 82.2933 82.0208C81.9865 84.6585 81.7075 87.1008 81.4285 89.5431C81.7075 87.7428 82.0423 85.9424 82.2375 84.1282C82.4747 81.9929 82.4328 82.0208 84.4554 81.5044C86.2966 81.016 88.1239 80.4577 90.0488 79.9134C90.1325 80.2205 90.2301 80.5415 90.4115 81.1834C90.4533 78.783 92.3085 79.3412 93.6755 78.5458C93.522 79.6622 93.4105 80.4717 93.3128 81.2951C92.6712 86.6681 91.9737 92.0412 91.3879 97.4143C90.3138 107.323 89.4211 117.26 88.2215 127.154C86.7011 139.757 84.9575 152.345 83.2837 164.919C82.0283 174.354 80.6474 183.788 79.4896 193.236C78.6527 200.019 78.0948 206.843 77.4392 213.64L77.4252 213.612ZM79.5594 213.082C79.4757 214.114 79.0572 214.575 77.8297 214.379C77.9413 212.621 77.9832 210.863 78.1924 209.104C79.6152 197.186 81.024 185.267 82.5584 173.363C83.6045 165.212 84.9157 157.09 86.0176 148.954C87.0219 141.487 87.9984 134.035 88.8353 126.554C90.0488 115.627 91.095 104.699 92.2388 93.7578C92.713 89.1942 93.2291 84.6166 93.7452 80.053C93.9405 78.3643 94.2753 78.0992 96.1584 78.0433C95.8375 80.388 95.4888 82.7046 95.2098 85.0353C94.4148 91.8179 93.6894 98.6284 92.8525 105.411C91.9737 112.598 91.0113 119.772 90.0488 126.959C89.2119 133.253 88.3192 139.533 87.4823 145.828C86.3524 154.299 85.1807 162.77 84.1485 171.241C83.3674 177.619 82.8094 184.039 82.0841 190.417C81.5122 195.469 80.8566 200.507 80.2708 205.559C79.9778 208.071 79.7407 210.583 79.5454 213.096L79.5594 213.082ZM80.5497 214.031C80.3963 214.003 80.2568 213.975 80.1034 213.933C80.1871 212.635 80.2289 211.337 80.3824 210.039C81.303 202.238 82.2794 194.45 83.1581 186.635C84.1346 177.982 84.9436 169.302 85.9618 160.649C86.6732 154.662 87.6636 148.717 88.4866 142.757C89.9372 132.151 91.4297 121.558 92.7549 110.938C94.066 100.485 95.2098 89.9897 96.4234 79.5227C96.5489 78.4481 96.5489 77.2199 98.3204 77.2897C97.8462 79.3413 97.2324 81.2811 96.9534 83.2768C96.0049 90.3386 95.0983 97.4003 94.3032 104.476C93.4523 112.124 92.8944 119.8 91.9319 127.434C90.3975 139.631 88.5981 151.787 86.9661 163.97C85.655 173.698 84.3577 183.425 83.1442 193.152C82.3212 199.74 81.6377 206.341 80.8845 212.928C80.8427 213.305 80.6613 213.654 80.5497 214.017V214.031ZM96.8 88.7476C96.1863 94.2881 95.5586 99.8426 94.9448 105.383C94.8332 105.383 94.7216 105.355 94.61 105.355C95.2098 99.8007 95.8096 94.2602 96.4094 88.7057C96.535 88.7197 96.6745 88.7336 96.8 88.7476ZM82.5444 212.649C82.4607 213.068 82.0144 213.43 81.7354 213.807C81.6238 213.737 81.5122 213.668 81.4006 213.598C84.0788 187.849 87.4544 162.198 91.6529 136.631C91.4576 138.263 91.2763 139.896 91.0671 141.529C89.5327 153.517 87.9286 165.492 86.4919 177.48C85.2505 187.891 84.1904 198.33 83.0466 208.769C82.9071 210.067 82.7815 211.365 82.5444 212.635V212.649ZM84.4693 211.574C84.3717 212.105 83.9951 212.579 83.744 213.068C83.5766 213.012 83.4092 212.956 83.2418 212.9C83.3116 212.16 83.3953 211.435 83.465 210.695C84.0369 204.778 84.5112 198.86 85.1807 192.957C86.0316 185.518 87.0219 178.094 87.9565 170.669C88.905 163.119 89.8535 155.583 90.7881 148.019C91.4018 143.009 92.0435 137.998 92.5735 132.988C93.257 126.499 93.7731 120.009 94.4706 113.533C95.2796 105.969 96.1863 98.4191 97.065 90.8549C97.5253 87.017 98.0135 83.1792 98.5436 79.3552C98.9202 76.6338 98.9621 76.6338 101.849 75.6708C101.487 78.5178 101.138 81.2532 100.803 83.9886C99.6874 92.9902 98.6273 102.006 97.4416 110.993C96.6047 117.371 95.5307 123.707 94.6937 130.085C93.7592 137.231 92.9223 144.376 92.0993 151.536C91.3879 157.718 90.7741 163.915 90.0767 170.097C89.3235 176.768 88.6121 183.439 87.7054 190.096C86.8964 196.013 85.8363 201.903 84.9296 207.82C84.7344 209.062 84.7065 210.332 84.4833 211.574H84.4693ZM76.0164 179.322C76.0164 179.322 76.114 179.322 76.1559 179.322C75.9467 181.248 75.7514 183.16 75.5561 185.086C75.5142 185.086 75.4724 185.086 75.4166 185.086C75.6119 183.16 75.8072 181.234 76.0164 179.322ZM62.7233 130.239C58.9013 128.634 55.2189 128.634 51.927 131.634C48.7188 134.537 47.1704 138.277 46.3614 142.38C45.3292 147.6 48.3561 152.582 53.4892 153.992C55.4699 154.536 57.5622 154.676 59.5988 154.997C64.6761 154.815 69.3629 151.452 70.6461 146.972C72.6827 139.84 67.8843 132.402 62.7372 130.253L62.7233 130.239ZM62.5419 153.88C61.6492 154.117 60.7007 154.09 59.3756 154.243C57.7715 154.006 55.7768 153.866 53.8658 153.392C48.9001 152.136 45.9569 147.516 47.0031 142.506C47.4494 140.371 48.2166 138.291 49.0535 136.268C50.2113 133.435 52.5686 131.579 55.3026 130.657C58.6781 129.513 61.984 130.35 64.8295 132.569C67.5495 134.705 69.3071 137.552 70.1998 140.831C71.6923 146.302 68.0377 152.443 62.5419 153.894V153.88ZM98.7807 60.1378C91.9179 59.6075 85.0691 59.0771 78.2064 58.5468C78.2064 58.5049 78.2064 58.4491 78.2064 58.3933C85.0691 58.9236 91.9179 59.426 98.7807 59.9564C98.7807 60.0122 98.7807 60.082 98.7668 60.1518L98.7807 60.1378ZM98.8784 55.9091H83.1721V55.8812H98.8505L98.8784 55.9091ZM20.7795 74.5264C21.2956 72.754 21.7977 70.9677 22.3138 69.1952C21.9233 71.0095 21.5467 72.8098 21.1561 74.6241L20.7795 74.5264ZM19.3288 74.1636C19.2451 74.1636 19.1614 74.1496 19.0638 74.1357C19.2591 72.6842 19.4404 71.2189 19.6357 69.7535C19.7194 69.7535 19.8031 69.7535 19.8868 69.7535C19.6915 71.2189 19.5101 72.6842 19.3149 74.1496L19.3288 74.1636ZM27.4888 75.5034C27.4051 75.5034 27.3214 75.4754 27.2377 75.4615C27.5446 74.0938 27.8654 72.7122 28.1862 71.3445C28.256 71.3724 28.3397 71.3724 28.4094 71.4003C28.1026 72.768 27.8096 74.1357 27.5028 75.5034H27.4888ZM10.6248 71.5817C11.1549 70.0745 11.6849 68.5533 12.215 67.0321C11.8104 68.5951 11.392 70.1442 10.9875 71.6934C10.8619 71.6655 10.7503 71.6236 10.6248 71.5817ZM9.66234 65.9714C9.11834 67.5903 8.57434 69.2092 8.01639 70.8281C7.91875 70.8002 7.82111 70.7583 7.72347 70.7304C8.26747 69.1115 8.82542 67.4926 9.36942 65.8877C9.46706 65.9156 9.55075 65.9435 9.64839 65.9854L9.66234 65.9714Z" fill="white"/>
</svg>
