<svg width="149" height="230" viewBox="0 0 149 230" fill="none" xmlns="http://www.w3.org/2000/svg">
<path d="M58.2856 207.899C58.8983 207.426 59.2953 207.469 59.8781 207.928C61.0305 208.839 62.1916 209.725 63.454 210.482C69.9737 214.396 76.5375 218.266 83.0836 222.144C85.6836 223.698 88.3011 225.244 90.9187 226.789C90.6006 226.33 90.2032 225.978 89.7618 225.714C86.1685 223.477 82.5753 221.24 78.9645 219.057C73.3055 215.605 67.6157 212.202 61.9567 208.75C61.2239 208.301 60.5704 207.702 59.9612 207.235C60.5732 206.232 61.0663 205.41 61.6696 204.434C75.0797 212.429 88.1113 221.122 101.418 227.259C88.8156 219.797 75.3526 211.829 61.8321 203.812C62.1401 203.061 62.3335 202.434 62.6505 201.878C68.7438 191.313 73.6367 180.159 78.7811 169.132C82.7549 160.614 86.4728 151.981 90.5129 143.484C95.9392 132.051 101.582 120.719 107.07 109.321C109.385 104.517 111.634 99.69 113.798 94.8061C116.32 89.1582 118.726 83.4576 121.146 77.7613C121.494 76.9355 122.009 76.6215 122.83 76.4526C124.537 76.0927 126.243 75.6887 127.91 75.1833C129.273 74.7532 130.193 73.1323 130.174 71.7732C130.102 66.8968 128.553 62.486 126.114 58.3236C123.802 54.3948 120.156 51.8758 116.514 49.4758C111.733 46.3008 106.534 43.8546 101.216 41.6777C99.1417 40.8422 97.1028 39.9448 95.0373 39.0828C100.692 30.6811 106.316 22.3281 111.706 14.3239C112.548 14.0447 113.329 14.0392 113.607 13.646C113.933 13.1954 113.835 12.4277 113.9 11.8318C114.602 12.4619 115.141 13.3173 115.786 13.4134C116.487 13.5139 117.289 12.9126 117.827 12.7089C118.379 13.2156 118.843 13.9431 119.448 14.1143C120.326 14.347 121.314 14.1602 122.258 14.1942C122.416 14.2028 122.589 14.3923 122.734 14.5289C123.883 15.6305 125 16.7807 126.192 17.8381C127.95 19.4067 129.817 20.8647 131.526 22.4907C134.794 25.6193 137.978 28.8231 141.188 31.9915C143.025 33.807 144.168 33.9069 145.732 31.8967C146.934 30.3549 147.744 28.4914 148.584 26.7118C149.187 25.4267 148.718 24.2712 147.663 23.3327C141.804 18.0939 135.975 12.8507 130.111 7.62518C129.171 6.78363 128.094 6.0879 126.822 5.1365C126.817 4.57605 127.027 3.36657 125.338 3.67348C125.259 3.69124 125.056 3.50618 125.034 3.39589C124.825 2.42973 124.181 2.59834 123.515 2.78905C123.092 2.91322 122.669 2.99326 122.254 3.09094C121.773 1.64708 120.792 1.12039 119.31 1.51085C117.804 -0.106595 117.429 -0.0839961 115.657 1.35718C115.415 1.55611 114.775 1.4467 114.413 1.29717C113.412 0.861707 112.644 0.739236 112.2 2.03289C112.112 2.2978 111.517 2.5855 111.208 2.54181C109.253 2.23127 109.262 2.20477 108.925 4.15141C108.898 4.31914 108.815 4.48254 108.815 4.48254C107.964 4.7 107.055 4.64833 106.694 5.0725C105.579 6.39359 104.65 7.86446 103.672 9.30451C100.4 14.1591 97.1368 19.0313 93.8868 23.908C91.4911 27.4948 89.1219 31.0904 86.6908 34.6508C86.409 35.0572 85.6949 35.5701 85.3287 35.4779C79.4248 33.9594 73.5341 32.3571 67.6478 30.7856C59.1978 28.5249 50.6252 27.0323 41.8559 27.1948C37.1977 27.2809 32.8187 28.4301 29.6425 32.2872C29.3429 32.6584 28.88 32.9017 28.5584 33.2508C27.056 34.899 25.3991 36.4371 24.1616 38.2615C22.8933 40.1344 22.556 42.2576 24.3006 44.2189C25.5417 45.6161 26.6594 47.1193 27.9225 48.4944C28.5364 49.1687 29.0883 49.6313 28.516 50.6471C28.1946 51.2169 28.2043 51.9847 28.0815 52.6645C26.1961 62.9055 24.4342 73.1727 22.3855 83.3742C20.6308 92.1145 18.4524 100.758 16.6138 109.486C14.49 119.559 12.6133 129.685 10.4894 139.759C8.41828 149.585 6.16184 159.394 4.03333 169.216C2.88346 174.496 1.8395 179.811 0.755829 185.113C0.690029 185.444 0.655252 185.903 0.818756 186.163C2.08258 188.156 3.17894 190.299 4.74241 192.009C8.205 195.79 12.368 198.657 17.2047 200.557C20.4969 201.841 23.8244 203.151 26.8701 204.912C36.2278 210.283 45.2069 216.263 53.7587 222.866C55.4894 224.205 57.2862 225.478 59.0389 226.795C48.9277 218.248 38.1339 210.695 26.5341 204.242C27.293 204.391 28.0211 204.632 28.736 204.87C32.1603 205.933 35.5934 206.969 39.0044 208.028C39.8825 208.305 40.8928 208.405 41.6256 208.898C48.4814 213.57 55.302 218.305 62.1226 223.039C64.9877 225.034 67.8351 227.038 70.6826 229.042C61.8519 221.596 51.8452 215.79 42.6181 208.83C43.293 208.834 43.9328 209.031 44.5636 208.991C48.1849 208.752 50.9659 210.469 53.8838 212.393C60.245 216.563 66.8484 220.358 73.3549 224.312C74.944 225.28 76.5508 226.24 78.1531 227.213C69.6145 220.57 59.7239 216.052 50.6958 209.556C52.1249 209.413 53.1701 209.23 54.2156 209.224C54.9081 209.219 55.7022 209.306 56.2628 209.654C66.7952 216.135 77.3099 222.669 87.8159 229.185C88.0586 229.339 88.3146 229.454 88.553 229.577C78.4691 221.745 67.3856 215.507 56.1605 208.855C57.0908 208.443 57.792 208.279 58.3341 207.886L58.2856 207.899ZM147.626 25.8791C147.571 27.9489 145.881 30.8286 144.033 31.9212C143.568 30.0464 145.972 26.08 147.626 25.8791ZM126.711 12.555C127.477 11.3535 128.239 10.1653 129.124 8.7828C134.891 13.9025 140.627 18.9826 146.301 24.0275C145.477 25.0922 144.812 25.9007 144.191 26.7533C143.596 27.5706 143.024 28.4099 142.456 29.2359C140.924 28.3599 140.897 28.2629 141.539 26.3732C141.306 26.8104 141.086 27.252 140.87 27.6804C140.751 27.6408 140.623 27.6278 140.486 27.5971C140.618 26.9349 140.75 26.2728 140.965 25.2266C140.595 25.9862 140.357 26.4366 140.128 26.9048C139.722 26.5641 139.698 25.7815 140.055 24.5571C139.809 25.0782 139.567 25.586 139.259 26.2484C137.793 24.8207 136.34 23.5298 135.09 22.0708C134.781 21.7182 135.128 20.8042 135.176 20.1731C134.991 20.5529 134.771 20.9945 134.472 21.5863C133.438 20.4492 132.092 19.7229 131.495 18.2895C131.495 18.2895 131.283 18.3516 131.063 18.3961C131.071 17.9283 131.075 17.4737 131.079 17.0633C130.969 17.2179 130.788 17.4521 130.616 17.7039C129.01 17.0971 128.175 16.2466 128.254 15.4345C128.02 15.4746 127.685 15.6427 127.513 15.5415C127.036 15.2509 126.546 14.9118 126.202 14.4886C126.038 14.2726 126.13 13.7738 126.227 13.4383C126.31 13.1425 126.548 12.8685 126.711 12.5991L126.711 12.555ZM124.157 12.6778C124.972 11.1541 125.804 9.6216 126.618 8.09794C126.732 7.88595 126.812 7.6034 126.997 7.4884C127.221 7.34245 127.544 7.3464 127.83 7.2798C127.839 7.56222 127.959 7.91068 127.836 8.10503C126.629 9.96906 125.387 11.8067 124.145 13.6443C124.052 13.6135 123.946 13.5783 123.849 13.5608C123.946 13.2694 124.008 12.9516 124.14 12.6866L124.157 12.6778ZM125.19 4.87404C125.738 6.54139 125.546 7.83027 124.758 9.09794C124.212 9.99015 123.847 11.0013 123.314 11.8979C123.12 12.2159 122.684 12.3798 122.353 12.623C122.282 12.526 122.22 12.4466 122.163 12.3541C123.14 9.94314 124.116 7.53222 125.194 4.86079L125.19 4.87404ZM123.473 4.0689C123.403 4.76626 123.465 5.28691 123.303 5.73286C122.647 7.57403 122.019 9.424 121.209 11.1992C120.976 11.7247 120.231 12.0214 119.715 12.4237C119.6 12.3709 119.485 12.3182 119.362 12.2477C119.397 11.877 119.361 11.4975 119.475 11.1531C120.108 9.15752 120.869 7.17498 121.423 5.15301C121.735 3.99194 122.617 4.47612 123.473 4.0689ZM116.379 78.8404C115.713 78.8988 115.033 78.7762 114.367 78.8345C113.75 78.8795 113.159 79.0657 112.4 79.2256C112.783 78.3822 115.57 77.7339 117.939 77.7261C117.914 78.7765 117.085 78.7953 116.388 78.8581L116.379 78.8404ZM97.2683 73.8059L98.6708 69.5806L98.5252 69.5323C98.2394 70.3932 97.9801 71.263 97.6679 72.1151C96.929 74.1197 96.9158 74.1153 94.7755 73.3461C95.4882 71.5975 96.2052 69.8357 96.9311 68.0915C96.8517 68.0651 96.7634 68.0211 96.6884 67.9815C96.0549 69.4917 95.3728 70.971 94.8363 72.4987C94.5725 73.2493 94.1933 73.4175 93.4829 73.2553C89.2118 72.3081 84.8223 71.9834 80.63 70.4889C74.112 68.1637 67.4754 66.1961 60.9619 63.8577C57.0211 62.4467 53.2211 60.656 49.3771 58.9978C49.1476 58.8922 48.8866 58.3056 48.9835 58.1025C49.7535 56.4024 50.5633 54.7154 51.4614 53.0725C51.5758 52.8605 52.2594 52.7492 52.5684 52.8812C54.4837 53.6639 56.3727 54.5262 58.266 55.3752C60.9802 56.585 63.6812 57.7903 66.3999 58.9867C67.287 59.3694 67.309 59.3473 67.2831 59.9122C67.583 59.85 67.971 59.6553 68.3372 59.7033C68.8181 59.76 69.2639 60.0109 69.7272 60.1647C73.9633 61.3502 78.1861 62.5313 82.409 63.7124C84.2358 64.2305 86.0626 64.7487 87.8718 65.3198C88.1499 65.412 88.362 65.7471 88.6313 65.9983C89.072 65.5564 91.3132 65.8444 94.3449 66.9831C93.8258 68.2371 93.3067 69.4912 92.7875 70.7452C92.8405 70.7628 92.8935 70.7804 92.942 70.8112C93.3599 69.7735 93.8043 68.7447 94.1825 67.6938C94.4068 67.1066 94.6845 66.8899 95.3684 66.9993C98.8936 67.5812 102.419 68.119 105.953 68.6303C106.654 68.7308 106.972 68.9686 106.792 69.7323C106.502 71.0037 106.243 72.2706 106.051 73.5595C105.871 74.7645 105.219 75.0038 104.177 74.5992C104.444 72.9528 104.707 71.3196 104.97 69.6864C104.904 69.6644 104.829 69.6689 104.763 69.647C104.53 70.8785 104.311 72.1145 104.052 73.3373C103.719 74.8735 103.705 74.8691 101.87 74.5981C102.261 72.8014 102.638 71.0004 103.029 69.2037C102.976 69.1861 102.918 69.1818 102.861 69.1775C102.496 70.5416 102.132 71.9058 101.78 73.2743C101.52 74.2662 100.789 74.5923 99.5891 74.2527L101.4 68.7956C101.321 68.7693 101.228 68.7385 101.149 68.7121C100.696 70.0764 100.243 71.4407 99.7948 72.7917C99.2409 74.4606 99.1351 74.5138 97.286 73.7971L97.2683 73.8059ZM95.862 78.574C93.4309 78.1053 91.0217 77.4821 88.5688 77.1678C79.5068 75.9539 71.0117 72.8107 62.4903 69.7469C57.764 68.0458 53.196 65.8679 48.562 63.8886C47.3484 63.3828 48.0489 62.6007 48.295 61.7707C64.1564 68.5795 80.2946 74.3332 97.2241 77.6586C97.115 78.6958 96.5106 78.7011 95.8797 78.5652L95.862 78.574ZM35.8426 50.2704C36.7055 48.7776 37.5993 47.2803 38.4799 45.7786C38.7092 45.7076 38.9825 45.5484 39.1017 45.632C40.6202 46.5478 42.1255 47.5033 43.6175 48.4544C43.6043 48.4941 43.5823 48.5162 43.5559 48.5516C43.5647 48.5251 43.5911 48.4897 43.6131 48.4676L43.6175 48.4544C44.5534 49.0444 45.4319 49.7183 46.4206 50.1935C47.8771 50.8975 49.3951 51.4603 50.8736 52.098C51.0589 52.1596 51.1959 52.3226 51.3371 52.4284C50.3071 54.4245 49.2903 56.381 48.1767 58.5405C46.42 57.6339 44.5884 56.7319 42.8095 55.715C40.5981 54.4516 38.4527 53.0778 36.2633 51.7923C35.588 51.3917 35.4772 50.9285 35.847 50.3013L35.8426 50.2704ZM34.9389 50.7792C33.5046 50.1855 33.3676 50.0224 34.116 48.6091C34.9039 47.1208 35.864 45.7337 36.978 43.9272C37.6097 44.7251 38.025 45.2452 38.4358 45.7786C38.4358 45.7786 38.449 45.783 38.4667 45.7742C37.2995 47.4307 36.1324 49.0873 34.9256 50.7748L34.9389 50.7792ZM110.855 74.0072C110.789 74.3383 110.15 74.6702 109.718 74.7767C109.233 74.9098 108.69 74.7737 108.09 74.7658C108.362 73.0619 108.598 71.4641 108.852 69.8574C108.786 69.8354 108.698 69.8355 108.627 69.8268C108.333 71.1556 108.048 72.5019 107.754 73.8307C107.569 74.6959 107.102 74.9967 106.224 74.5875C106.562 72.7733 106.886 70.9546 107.245 68.9418C108.534 69.09 109.866 69.2381 111.481 69.4212C111.275 71.0587 111.149 72.5461 110.842 74.0028L110.855 74.0072ZM111.75 69.4958C112.085 69.5041 112.434 69.5169 112.954 69.5426C112.497 71.3173 112.067 72.9684 111.645 74.6371C111.517 74.6241 111.394 74.5978 111.27 74.5715C111.423 72.9164 111.58 71.248 111.75 69.4958ZM98.1903 77.8028C102.597 77.9422 107.004 78.1257 111.407 78.3224C111.592 78.3398 111.777 78.4013 111.967 78.4496C111.985 78.529 112.016 78.6128 112.029 78.7054C111.738 78.8294 111.452 79.0725 111.161 79.0641C106.63 78.9867 102.1 78.8652 97.5253 78.7437C97.5253 78.7437 97.4855 78.7306 97.0487 78.5856C97.5511 78.223 97.8815 77.8033 98.1903 77.8028ZM113.369 69.5332C114.196 71.2928 113.211 74.6128 111.981 74.6896C112.46 72.8928 112.916 71.2064 113.369 69.5332ZM114.071 70.075C114.097 69.8631 114.498 69.7169 114.719 69.5401C114.842 69.6105 114.975 69.6986 115.098 69.769C114.725 71.3803 114.356 72.9784 113.983 74.5897L113.666 74.4842C113.801 73.0145 113.892 71.5448 114.084 70.0794L114.071 70.075ZM117.119 74.3072C117.287 70.4808 117.472 69.8363 118.433 69.7731C118.542 71.9707 117.913 74.1295 117.119 74.3072ZM118.905 69.7239C119.046 69.7414 119.183 69.7721 119.324 69.7895C119.136 71.2858 118.948 72.7821 118.765 74.2651C118.557 74.2257 118.363 74.1907 118.156 74.1513L118.905 69.7239ZM116.74 74.0341C116.661 74.3608 115.831 74.512 115.17 74.8219C115.503 73.065 115.727 71.6393 116.074 70.2398C116.14 69.9529 116.708 69.7888 117.03 69.5721C117.149 69.6558 117.26 69.7218 117.361 69.8144C117.173 71.2224 117.065 72.6568 116.726 74.0297L116.74 74.0341ZM114.768 74.3503C114.702 74.3283 114.631 74.3196 114.548 74.3064C114.841 72.8012 115.135 71.2959 115.429 69.7906C115.562 69.8346 115.69 69.8476 115.822 69.8916C115.475 71.3793 115.111 72.8758 114.764 74.3635L114.768 74.3503ZM119.254 73.8981C119.407 72.4196 119.555 70.9542 119.708 69.4756C119.893 69.493 120.092 69.5148 120.277 69.5322C120.137 71.0152 119.998 72.4982 119.858 73.9811C119.647 73.955 119.452 73.9199 119.249 73.9114L119.254 73.8981ZM120.29 73.6981C120.39 72.2902 120.49 70.8823 120.586 69.4876C120.7 69.4963 120.815 69.5049 120.947 69.5048C120.905 70.917 120.853 72.3116 120.811 73.7238C120.634 73.7241 120.476 73.7155 120.304 73.7025L120.29 73.6981ZM121.172 73.432C121.179 71.9934 121.187 70.5547 121.194 69.1161C121.37 69.1158 121.534 69.1112 121.71 69.1109C121.654 70.5629 121.603 72.0016 121.565 73.4447C121.433 73.4449 121.305 73.4319 121.172 73.432ZM125.03 67.3012C125.919 69.6698 125.626 71.7929 124.241 72.5098C124.002 71.0626 123.744 69.7126 123.58 68.3492C123.437 67.1844 124.364 67.4037 125.034 67.288L125.03 67.3012ZM122.772 68.2135C122.975 68.2221 123.178 68.2306 123.381 68.2392C123.497 69.6159 123.653 71.0057 123.65 72.387C123.651 72.6959 123.024 72.9881 122.69 73.2887L122.319 73.0332C122.71 71.4572 122.019 69.7283 122.772 68.2135ZM120.357 2.38755C120.502 2.48002 120.657 2.59013 120.811 2.70023L118.727 8.97855C118.884 7.17781 118.966 5.33745 119.233 3.51448C119.299 3.09515 119.969 2.7588 120.357 2.38755ZM113.806 2.11004C114.058 2.54657 114.477 2.96521 114.544 3.42849C114.802 5.39634 114.936 7.38202 115.177 9.35872C115.253 10.0603 115.5 10.7307 115.669 11.4189C115.827 11.4275 115.991 11.4229 116.167 11.4226C116.228 10.84 116.382 10.244 116.333 9.68364C116.208 8.06864 116.166 6.42264 115.789 4.85654C115.382 3.11838 116.351 2.27852 117.651 1.06308C117.815 1.89691 118.072 2.49672 118.015 3.06609C117.758 5.65691 117.434 8.22577 117.066 10.7947C117.005 11.2449 116.644 11.7573 116.252 12.0094C116.102 12.1067 115.457 11.6575 115.166 11.3402C114.857 10.9876 114.631 10.5157 114.498 10.0746C114.011 8.35421 113.506 6.64267 113.147 4.8912C112.983 4.05737 113.132 3.16572 113.144 2.2875C113.369 2.22981 113.594 2.17212 113.806 2.11004ZM110.243 3.58907C111.108 3.55254 111.703 3.83853 111.921 4.9106C112.267 6.56941 112.749 8.21479 113.232 10.0808C112.468 9.15076 111.902 8.2866 111.169 7.61687C109.911 6.49333 109.363 5.26729 110.243 3.58907ZM108.892 6.37563C109.983 7.56119 111.021 8.81743 111.949 10.14C112.359 10.7175 112.427 11.5339 112.648 12.2396C112.494 12.306 112.353 12.3769 112.194 12.4565C111.964 12.3068 111.695 12.188 111.527 11.9853C110.251 10.4293 108.961 8.8689 107.742 7.27312C107.503 6.97337 107.529 6.4526 107.449 6.02906C107.943 6.13427 108.622 6.08034 108.905 6.38003L108.892 6.37563ZM93.5413 26.6313C97.8044 20.3411 101.957 13.9848 106.246 7.52679C107.443 8.96815 108.579 10.3302 109.727 11.6966C110.164 12.2388 110.139 12.8037 109.543 13.1355C107.48 14.2593 106.733 16.4228 105.491 18.1721C103.786 20.562 102.285 23.0928 100.669 25.5267C98.9335 28.1417 97.1719 30.7479 95.3618 33.3233C94.4986 34.5514 93.4411 35.6562 92.5602 36.8931C91.9304 37.7722 91.4772 38.7834 90.8915 39.7066C90.7374 39.9495 90.3626 40.0604 90.1069 40.2108C90.1246 40.2902 90.3632 40.6782 90.2575 40.8195C89.914 41.279 89.46 41.6283 88.9709 42.0835C88.9842 42.132 89.1479 42.6128 89.0774 42.6482C88.0105 43.2058 88.3614 45.4251 86.3405 44.916C86.5967 45.251 86.8044 45.5111 87.0076 45.7844C86.9856 45.8507 86.9327 45.9214 86.8931 45.9964L85.2251 45.4428C85.6445 45.7731 85.9933 46.0507 86.3333 46.3106C85.4124 47.3136 83.0079 46.9419 80.6329 45.3302C84.9357 39.0972 89.2915 32.8818 93.5457 26.6181L93.5413 26.6313ZM87.6894 51.9662C84.5484 51.7765 81.4907 51.1144 78.5164 50.0684C73.8696 48.4377 69.2755 46.6482 65.2757 43.6883C64.4722 43.0981 63.7567 42.3754 63.0193 41.7189C64.2791 40.049 64.8261 40.0835 66.3976 41.1051C68.031 42.1619 69.7524 43.1303 71.5529 43.8162C76.0234 45.5353 80.5819 47.0778 85.0919 48.6777C85.4758 48.8051 85.8774 48.9237 86.2788 48.954C87.3773 49.054 88.2027 49.4897 88.5877 50.588C88.5256 50.288 88.4635 49.988 88.397 49.613C89.4202 49.4527 90.1569 49.5355 90.2641 50.718C90.1399 50.0739 90.2895 49.7118 91.066 49.8078C91.7718 49.895 92.5173 49.8189 93.2275 49.8929C94.3349 50.0105 94.1551 50.9508 94.1559 51.6568C94.1604 51.8201 93.5122 52.0461 93.1418 52.0996C92.6743 52.1797 92.1492 52.0348 91.6861 52.1458C90.7644 52.3545 90.411 51.9137 90.2954 51.1107C90.1855 51.4419 90.0491 51.7642 89.926 52.0909C89.5419 51.8311 89.1579 51.5713 88.7694 51.3247C88.7792 52.1808 88.2011 52.0184 87.6585 51.9706L87.6894 51.9662ZM67.2034 39.7844C71.8091 40.1221 76.2084 41.3029 80.6698 42.8279C80.1855 43.6229 79.7803 44.2678 79.3268 45.0143C75.1566 43.5418 70.8677 42.427 67.2034 39.7844ZM89.0347 47.9131C89.8838 45.8863 89.972 45.842 91.6402 46.5281C92.2316 46.7832 92.8009 47.0604 93.3791 47.3111C93.3528 47.4788 93.3353 47.6201 93.3222 47.7922C91.9283 47.8295 90.5521 47.8579 89.0347 47.9131ZM36.4674 33.0233C38.922 30.8089 41.9035 30.3722 44.9166 30.5929C50.2678 30.9869 55.6675 31.3234 60.9268 32.3486C67.1304 33.5842 73.2023 35.5261 79.3313 37.1635C80.7389 37.5277 82.1465 37.892 83.8321 38.3486C83.0392 39.4088 82.427 40.2791 81.7398 41.1097C81.6121 41.2732 81.1533 41.2385 80.8797 41.1771C77.4425 40.3744 74.0184 39.4437 70.546 38.7912C68.4723 38.3969 66.244 37.8043 64.1938 38.7561C63.1137 39.2651 62.1707 40.202 61.3292 41.0991C60.6506 41.8149 60.8499 42.5428 61.6448 43.2919C66.8554 48.1388 73.1972 50.7732 79.9351 52.5685C83.1475 53.4289 86.4125 54.1304 89.6688 54.8142C90.4806 54.9807 91.3538 54.7411 92.2096 54.7752C92.7036 54.7922 93.1979 54.9856 93.6921 55.0909C93.9382 54.305 94.1499 54.2429 94.8871 54.6787C99.2526 57.2453 103.636 59.8031 108.006 62.3564C108.231 62.4752 108.496 62.5631 108.977 62.7522C104.267 59.8066 99.381 57.6556 95.0147 54.427C97.8409 53.1741 98.3548 51.2272 96.6273 48.7716C95.5714 47.2594 94.2291 46.1228 92.3583 45.7371C91.8465 45.6407 91.3787 45.4119 90.7167 45.1922C91.4434 44.11 92.0422 43.103 92.7911 42.2193C92.985 41.9895 93.7084 42.0238 94.0836 42.1777C97.1243 43.4223 100.218 44.5962 103.179 46.035C106.94 47.8566 110.625 49.8593 114.262 51.9195C115.807 52.7999 117.132 54.0336 118.58 55.0731C119.829 55.9583 121.14 56.7464 122.346 57.6758C122.942 58.1383 123.362 58.8217 123.808 59.4257C125.513 61.7269 124.399 63.7982 121.33 64.6322C116.933 65.8344 112.552 65.1743 108.184 64.4303C107.32 64.2903 106.455 64.0179 105.581 63.9486C103.667 63.7836 102.316 62.7176 100.978 61.4794C98.8669 59.5142 96.6416 57.6727 94.4736 55.7914C97.0746 58.2281 99.6622 60.6604 102.466 63.2822C101.906 63.2433 101.61 63.2481 101.315 63.2088C94.5604 62.4373 87.9597 61.0257 81.5081 58.8549C78.3441 57.8047 75.0658 57.0547 71.9546 55.8897C67.9299 54.3773 63.9447 52.7017 60.0299 50.9023C55.1619 48.6542 50.3378 46.2736 45.5577 43.8488C43.4171 42.7707 41.3645 41.5159 39.3692 40.1771C38.164 39.3801 37.0645 38.3534 36.0796 37.2913C34.6221 35.7047 34.9163 34.4642 36.4895 33.0453L36.4674 33.0233ZM25.4079 40.3956C26.5486 38.7303 27.8173 37.1662 29.0639 35.5802C29.3414 35.2312 29.7867 34.9966 30.1613 34.7093C30.2937 34.7973 30.4438 34.8765 30.5718 34.9779C30.3166 35.5696 30.1542 36.2362 29.7754 36.7575C28.7008 38.3124 27.5555 39.8145 26.6708 41.5059C27.8555 39.8405 29.0227 38.1839 30.2074 36.5185C30.353 36.5669 30.5031 36.602 30.6531 36.6371C30.6491 37.0475 30.813 37.6165 30.6015 37.8551C29.1433 39.5915 27.6233 41.2486 26.1077 42.9365C24.6114 42.087 24.4611 41.7871 25.4079 40.3956ZM30.9108 38.296C31.0564 38.3443 31.1888 38.3883 31.3344 38.4366C31.2554 38.8074 31.1588 39.1871 31.0754 39.5711C29.6876 41.0956 28.3041 42.6068 26.9207 44.1181C27.6901 41.8001 29.3689 40.1075 30.8931 38.3048L30.9108 38.296ZM29.7869 47.084C29.0847 46.4098 28.2899 45.7048 27.5965 44.9159C27.4463 44.7484 27.6309 44.148 27.8291 43.8608C28.8862 42.403 30.0007 40.9937 31.093 39.5623C31.2959 39.5267 31.4988 39.4911 32.0457 39.3932C30.5789 41.2885 29.297 42.9364 28.0284 44.5887C28.1079 44.6592 28.205 44.7208 28.2845 44.7913C29.54 43.2229 30.7954 41.6545 32.117 40.0198C32.6513 40.5795 33.115 41.0422 33.5964 41.5402C32.3589 43.3645 31.1302 45.1624 29.8133 47.0928L29.7869 47.084ZM30.4879 46.7873C31.5051 45.1398 32.5973 43.5319 33.8347 41.6634C34.2853 42.2541 34.5725 42.6288 34.8596 43.0035C34.798 43.1007 34.7319 43.2111 34.6571 43.3039C34.7319 43.2111 34.8068 43.1183 34.8685 43.0211L34.8773 42.9947L34.864 42.9903C35.4555 43.3336 36.0382 43.6594 36.5722 43.9543C35.3657 45.9066 34.2209 47.7617 33.0364 49.6919C32.277 49.1016 31.403 48.5027 30.6346 47.8065C30.4315 47.6214 30.3382 47.017 30.4879 46.7873ZM4.62049 185.513C7.0169 174.618 9.50597 163.754 11.7921 152.837C13.5517 144.481 15.0377 136.063 16.7179 127.68C18.3103 119.739 19.9954 111.829 21.6276 103.9C23.6722 93.9769 25.8668 84.0886 27.7172 74.1301C29.059 66.8996 29.9419 59.5903 31.0366 52.3072C31.0717 52.0689 31.1067 51.8305 31.1636 51.4377C33.7195 53.0801 36.1033 54.6654 38.5664 56.1447C41.312 57.7913 44.1149 59.3539 46.9001 60.9254C48.1978 61.6649 48.2376 61.7222 47.3969 63.4136C42.1928 60.4069 36.4867 58.2924 32.0397 53.8901C31.9783 54.1638 31.9608 54.2609 31.9608 54.2609C33.678 55.4191 33.4989 56.9771 33.17 58.7649C31.4734 68.2157 29.9577 77.697 28.2346 87.139C26.9806 94.0163 25.4619 100.85 24.08 107.714C22.8341 113.859 21.6455 120.008 20.3731 126.144C19.3595 131.013 18.2929 135.864 17.2176 140.698C15.6989 147.532 14.1935 154.37 12.591 161.19C10.5231 169.988 8.37134 178.773 6.26374 187.558C6.20223 187.788 6.11425 188.009 6.03512 188.247C4.74189 187.583 4.33077 186.784 4.61165 185.495L4.62049 185.513ZM6.98077 189.737C6.79934 189.221 6.4017 188.648 6.49822 188.18C6.89312 186.282 7.42479 184.415 7.91676 182.534C7.94768 182.574 7.983 182.6 8.01832 182.626C7.78712 184.961 7.56032 187.283 7.32912 189.618C7.21447 189.653 7.09982 189.689 6.99841 189.728L6.98077 189.737ZM34.961 201.613C33.6858 201.248 32.3753 200.946 30.9677 200.581C37.4768 183.008 43.9022 165.642 50.3013 148.356C52.5557 148.605 54.8675 148.857 57.2763 149.127C57.2368 149.291 57.2238 149.551 57.127 149.798C54.3865 156.638 51.6724 163.487 48.8921 170.313C44.7613 180.5 40.5952 190.66 36.4644 200.847C36.1564 201.598 35.7553 201.832 34.961 201.613ZM50.5111 146.573C46.3716 145.008 42.62 143.116 39.9868 139.448C37.7911 136.41 36.9624 133.018 37.845 129.385C39.641 122.026 43.4455 115.877 49.572 111.323C54.4424 107.719 61.0765 107.48 65.6958 112.072C70.7875 117.144 73.5072 123.209 72.7257 130.566C72.704 130.809 72.6954 131.056 72.6163 131.295C72.2954 132.306 71.948 133.308 71.6183 134.301C71.6712 134.319 71.7242 134.336 71.7727 134.367C71.0555 135.997 70.4222 137.683 69.6035 139.264C66.443 145.377 57.2145 149.092 50.5022 146.555L50.5111 146.573ZM50.3797 202.981C50.0277 203.776 49.6266 204.098 48.6733 203.605C49.1925 202.484 49.725 201.367 50.2178 200.236C53.113 193.595 55.9288 186.927 58.9166 180.316C61.5393 174.496 64.2942 168.72 67.0669 162.979C71.5164 153.736 76.0983 144.582 80.5124 135.312C84.4072 127.165 88.2006 118.969 91.9277 110.751C94.4008 105.293 96.662 99.7643 99.0291 94.2711C99.8123 92.443 100.622 90.6237 101.211 88.7164C98.9977 93.8343 96.8243 98.9653 94.5582 104.066C91.7905 110.323 88.9875 116.554 86.1183 122.762C83.2095 129.046 80.2389 135.295 77.2329 141.517C73.9937 148.221 70.6133 154.863 67.4006 161.575C64.1483 168.363 60.9842 175.194 57.8687 182.057C54.784 188.826 51.7964 195.658 48.8132 202.476C48.3951 203.425 47.9104 203.823 46.8823 203.555C46.3395 203.419 45.7705 203.407 44.9058 203.311C46.5162 199.699 48.0431 196.25 49.5744 192.832C49.5082 192.81 49.4464 192.775 49.3714 192.735C47.9766 195.919 46.542 199.09 45.1958 202.304C44.8438 203.143 44.4515 203.395 43.5514 203.229C41.213 202.791 38.8482 202.432 36.3245 202.021C36.518 201.438 36.6102 201.072 36.7554 200.723C38.546 196.48 40.3808 192.28 42.1053 188.015C44.692 181.639 47.186 175.232 49.7198 168.838C51.4837 164.365 53.2343 159.888 55.0071 155.432C55.8033 153.432 56.6525 151.45 57.5281 149.476C57.6645 149.153 58.0479 148.795 58.3654 148.724C61.7789 148.005 64.8209 146.5 67.5358 144.342C67.5931 144.302 67.6902 144.32 67.9857 144.271C59.6611 163.506 51.3761 182.622 43.091 201.738C43.144 201.755 43.1969 201.773 43.2499 201.791C45.6919 196.205 48.1471 190.623 50.5847 185.05C53.172 179.16 55.7945 173.295 58.3553 167.396C59.9392 163.731 61.3776 160.017 62.9483 156.348C64.7478 152.122 66.6135 147.918 68.4527 143.706C68.5318 143.511 68.6464 143.343 68.7697 143.193C71.8973 139.261 73.3214 134.661 74.4365 129.84C75.0687 127.138 76.4113 124.599 77.5289 122.029C79.4296 117.631 81.3877 113.237 83.3547 108.861C85.1676 104.816 87.007 100.78 88.8331 96.7393C89.8848 94.4121 90.9541 92.0761 92.0058 89.7489C91.1123 91.511 90.1615 93.2687 89.343 95.0704C86.8083 100.626 84.3001 106.19 81.814 111.776C79.5259 116.942 77.2864 122.14 75.0204 127.328C74.9236 127.531 74.8135 127.73 74.6727 128.022C74.5578 127.836 74.4562 127.744 74.4473 127.638C74.2934 124.116 73.2796 120.839 71.688 117.708C70.1584 114.701 68.2806 111.945 65.4465 110.078C63.822 108.995 61.9156 108.318 60.1238 107.517C59.7001 107.332 59.1663 107.302 58.6855 107.334C53.4674 107.646 48.9037 109.351 45.185 113.249C40.7965 117.836 37.7013 123.132 36.2789 129.277C35.1111 134.3 36.8231 138.662 40.3297 142.355C42.6483 144.801 45.4557 146.483 48.6286 147.551C49.5553 147.859 49.838 148.202 49.4774 149.2C45.9766 158.685 42.5332 168.173 39.0324 177.657C37.1941 182.664 35.3028 187.654 33.4512 192.656C32.5892 194.988 31.7316 197.306 30.905 199.663C30.6895 200.313 30.3545 200.481 29.7234 200.257C25.7164 198.779 21.7094 197.347 17.7156 195.83C16.0607 195.192 14.4717 194.356 12.7726 193.586C13.0495 192.752 13.2781 192.063 13.5068 191.374C16.7598 181.219 20.0834 171.074 23.2569 160.893C24.8305 155.842 26.1791 150.716 27.607 145.617C29.7732 137.896 31.9525 130.179 34.0657 122.439C35.4892 117.221 36.8993 111.999 38.1595 106.741C39.5821 100.772 40.8591 94.7556 42.1714 88.7652C43.4003 83.203 44.6116 77.6497 45.8273 72.0831C46.2399 70.1761 46.6348 68.2779 47.0473 66.3709C46.2262 69.7745 45.3521 73.1606 44.5972 76.5862C43.0039 83.7773 41.521 90.9903 39.8836 98.1815C38.2462 105.329 36.5558 112.458 34.7198 119.539C33.2088 125.375 31.4816 131.155 29.8471 136.964C27.5007 145.229 25.2735 153.533 22.7506 161.754C19.6519 171.842 16.3149 181.851 13.0839 191.895C12.9432 192.319 12.7275 192.704 12.4106 193.392C11.1084 192.578 9.84601 191.865 8.70256 191.015C8.46857 190.834 8.5603 190.026 8.70978 189.576C10.6222 183.726 12.6272 177.907 14.4998 172.044C17.1285 163.77 19.8102 155.514 22.183 147.169C24.3229 139.66 26.1186 132.036 28.0555 124.474C29.5664 118.549 31.1434 112.647 32.5528 106.718C34.3793 99.0014 36.1131 91.254 37.7896 83.5023C38.9789 78.0152 40.0138 72.5062 41.1105 66.9883C41.2465 66.3129 41.3384 65.6376 41.4038 64.9535C33.1246 105.217 23.7512 145.19 10.0799 184.031C20.2379 143.421 30.3958 102.811 38.2197 61.6615C36.6401 69.2983 35.0871 76.9439 33.4546 84.5632C31.8177 92.1957 30.1102 99.8194 28.4336 107.439C28.31 107.412 28.1865 107.386 28.063 107.36C30.9266 92.1793 33.777 76.9943 36.6406 61.8138C36.6141 61.805 36.5744 61.7918 36.548 61.783C32.2926 82.9717 28.4609 104.257 23.6585 125.323C18.8429 146.428 14.1023 167.574 7.83062 188.372C7.86081 187.75 7.79832 187.097 7.92557 186.492C8.95639 181.261 9.90777 176.004 11.1018 170.813C13.7182 159.388 16.4361 147.968 19.1627 136.565C20.7039 130.106 22.4348 123.696 23.9318 117.238C25.4903 110.461 26.8854 103.646 28.2983 96.8211C29.733 89.8862 31.1237 82.9513 32.4878 76.0077C33.4309 71.2182 34.3034 66.4199 35.1097 61.5997C30.0422 86.298 25.5881 111.141 18.9278 135.502C24.1302 109.245 29.9549 83.1074 33.7454 56.5443C34.9852 56.75 35.379 57.8659 36.2971 58.3324C37.1489 58.7769 38.3932 59.0134 38.7252 60.0941C39.0252 60.1202 39.4266 60.0623 39.7135 60.2163C42.0925 61.4618 44.4539 62.7162 46.7756 64.0456C47.0625 64.1996 47.1867 64.7996 47.2357 65.2276C47.2847 65.6115 47.1484 66.0221 47.0915 66.4149C47.2893 65.8189 47.4872 65.2229 47.7641 64.3884C55.3693 68.5744 63.502 71.1709 71.5687 73.8778C79.6177 76.5495 87.8468 78.5016 96.4543 79.6235C95.3321 82.0302 94.298 84.2602 93.2638 86.4903C94.0957 84.8695 94.9806 83.2663 95.7375 81.6059C96.6352 79.6541 96.5867 79.6674 98.6689 79.8145C100.57 79.9309 102.48 79.9768 104.479 80.0666C104.461 80.3843 104.453 80.7197 104.423 81.3862C105.219 79.1211 106.804 80.2354 108.352 79.911C107.854 80.9223 107.493 81.6554 107.141 82.4061C104.84 87.3035 102.485 92.1832 100.237 97.0982C96.0956 106.164 92.1181 115.314 87.8625 124.327C82.4495 135.808 76.829 147.206 71.2792 158.613C67.1157 167.172 62.8331 175.69 58.7579 184.293C55.8269 190.467 53.1474 196.768 50.3841 203.012L50.3797 202.981ZM52.5723 203.15C52.1675 204.104 51.6252 204.409 50.5218 203.837C51.1817 202.203 51.7753 200.547 52.5279 198.944C57.6328 188.081 62.7245 177.213 67.9309 166.398C71.4913 158.992 75.2945 151.697 78.9035 144.322C82.2088 137.552 85.4832 130.786 88.634 123.95C93.2282 113.962 97.6635 103.92 102.196 93.8959C104.084 89.7141 106.016 85.5322 107.943 81.3635C108.66 79.8223 109.062 79.6761 110.866 80.2163C109.823 82.3405 108.763 84.4294 107.764 86.5535C104.872 92.7403 102.038 98.9755 99.1074 105.149C96.0091 111.694 92.8359 118.199 89.6583 124.717C86.8811 130.427 84.0555 136.106 81.2783 141.816C77.5374 149.5 73.7567 157.171 70.1084 164.886C67.3578 170.693 64.8059 176.61 62.1083 182.435C59.974 187.049 57.7647 191.624 55.6171 196.235C54.5478 198.527 53.5313 200.836 52.5546 203.159L52.5723 203.15ZM53.2132 204.362C53.0764 204.288 52.9528 204.217 52.8204 204.129C53.3087 202.924 53.7573 201.705 54.3118 200.522C57.6431 193.407 61.0231 186.324 64.3191 179.183C67.9716 171.279 71.4741 163.295 75.1663 155.404C77.7275 149.946 80.5404 144.615 83.1987 139.218C87.9169 129.609 92.6703 120.026 97.2737 110.364C101.811 100.856 106.203 91.2556 110.652 81.7038C111.11 80.7235 111.496 79.5579 113.156 80.1822C112.059 81.9799 110.866 83.6276 109.972 85.4338C106.847 91.8372 103.762 98.2538 100.779 104.719C97.5619 111.709 94.6143 118.818 91.296 125.76C85.9972 136.854 80.4601 147.823 75.0731 158.873C70.7643 167.692 66.4688 176.515 62.2527 185.365C59.3965 191.357 56.6683 197.407 53.8783 203.422C53.7199 203.766 53.4378 204.04 53.2176 204.349L53.2132 204.362ZM108.103 90.5777C105.775 95.6428 103.43 100.717 101.102 105.782C100.996 105.747 100.899 105.685 100.793 105.65C103.112 100.567 105.427 95.4977 107.746 90.4149C107.861 90.4677 107.989 90.5249 108.103 90.5777ZM55.5416 203.68C55.3303 204.051 54.7923 204.254 54.4088 204.524C54.3249 204.423 54.241 204.321 54.1571 204.22C64.8104 180.626 76.0948 157.344 88.1339 134.401C87.4342 135.889 86.7477 137.382 86.0347 138.866C80.8019 149.76 75.5073 160.619 70.3672 171.545C65.9092 181.035 61.6145 190.608 57.2404 200.156C56.6991 201.343 56.1711 202.536 55.546 203.666L55.5416 203.68ZM57.707 203.266C57.4473 203.739 56.9404 204.07 56.5482 204.455C56.4069 204.349 56.2657 204.243 56.1244 204.138C56.4236 203.458 56.7316 202.795 57.0308 202.115C59.4377 196.679 61.7519 191.213 64.2471 185.821C67.398 179.029 70.6768 172.294 73.9027 165.542C77.1814 158.675 80.4558 151.822 83.7256 144.937C85.8865 140.375 88.0738 135.822 90.1552 131.234C92.8482 125.29 95.3824 119.294 98.0843 113.368C101.235 106.444 104.474 99.5634 107.691 92.6612C109.337 89.1638 111.009 85.6751 112.717 82.2128C113.932 79.7486 113.971 79.7618 117.015 79.7575C115.774 82.3453 114.581 84.8315 113.402 87.3222C109.507 95.5139 105.661 103.736 101.704 111.893C98.9007 117.683 95.8854 123.358 93.0819 129.147C89.9439 135.634 86.8986 142.152 83.8621 148.688C81.2393 154.332 78.7048 160.019 76.0952 165.667C73.2788 171.761 70.5022 177.868 67.5445 183.901C64.9126 189.262 62.0512 194.518 59.3266 199.848C58.7499 200.965 58.3234 202.162 57.7203 203.27L57.707 203.266ZM59.8448 169.993C59.8448 169.993 59.9374 170.024 59.9771 170.037C59.1718 171.799 58.3842 173.552 57.5921 175.318C57.5524 175.305 57.5127 175.292 57.4598 175.274C58.2518 173.508 59.0439 171.742 59.8448 169.993ZM62.6909 119.221C59.5691 116.494 56.0741 115.334 52.0046 117.145C48.0453 118.889 45.3976 121.951 43.3372 125.59C40.7132 130.219 42.0164 135.901 46.4442 138.856C48.1526 139.997 50.0944 140.788 51.9261 141.734C56.8021 143.162 62.3097 141.446 64.939 137.598C69.1184 131.472 66.9077 122.9 62.6997 119.239L62.6909 119.221ZM55.0711 141.602C54.1491 141.546 53.2577 141.221 51.9517 140.949C50.504 140.218 48.6549 139.457 46.9907 138.405C42.6734 135.649 41.3354 130.337 43.9066 125.912C45.0029 124.026 46.3861 122.294 47.8179 120.637C49.8091 118.313 52.6312 117.294 55.5161 117.281C59.0803 117.258 61.9541 119.094 63.9557 122.097C65.8645 124.98 66.6357 128.236 66.4498 131.63C66.1429 137.292 60.7399 141.969 55.0667 141.615L55.0711 141.602ZM118.996 64.0486C112.65 61.3833 106.317 58.7225 99.9703 56.0572C99.9835 56.0175 100.001 55.9645 100.019 55.9115C106.365 58.5768 112.707 61.2111 119.053 63.8764C119.035 63.9294 119.013 63.9956 118.978 64.0574L118.996 64.0486ZM120.421 60.066L105.514 55.1181L105.523 55.0917L120.403 60.0307L120.421 60.066ZM40.4334 53.1323C41.4816 51.6128 42.5209 50.0755 43.5691 48.5559C42.6269 50.1548 41.7023 51.7448 40.7601 53.3437L40.4334 53.1323ZM39.1709 52.331C39.0915 52.3046 39.0165 52.265 38.9282 52.221C39.5708 50.905 40.2045 49.5713 40.8515 48.2421C40.9309 48.2684 41.0103 48.2948 41.0898 48.3212C40.4428 49.6504 39.8091 50.9841 39.1621 52.3133L39.1709 52.331ZM46.4934 56.1731C46.414 56.1467 46.3433 56.0939 46.2683 56.0543C46.9904 54.8529 47.7301 53.6427 48.4655 52.4457C48.5229 52.4941 48.6023 52.5205 48.6597 52.569C47.9376 53.7704 47.2287 54.9761 46.5066 56.1775L46.4934 56.1731ZM31.7235 47.1386C32.7013 45.8751 33.6836 44.5983 34.6659 43.3215C33.7896 44.6776 32.9044 46.016 32.0325 47.3588C31.9221 47.2928 31.8294 47.2179 31.7235 47.1386ZM32.5774 41.5107C31.5511 42.8758 30.5248 44.2409 29.4853 45.6016C29.4014 45.5444 29.3219 45.4739 29.238 45.4166C30.2643 44.0515 31.3039 42.6908 32.3257 41.339C32.4096 41.3962 32.4803 41.4491 32.5597 41.5196L32.5774 41.5107Z" fill="white"/>
</svg>
