<svg width="122" height="254" viewBox="0 0 122 254" fill="none" xmlns="http://www.w3.org/2000/svg">
<path d="M97.1396 153.242C97.2905 146.406 96.1222 139.807 94.0852 133.278C91.4522 124.845 88.4314 116.6 83.53 109.166C82.9545 108.284 82.6102 107.249 82.0347 106.367C81.2407 105.135 80.3655 103.956 79.4648 102.784C78.3114 101.286 77.5468 99.5583 77.8994 97.7532C78.6135 94.1263 77.9829 92.427 74.7709 90.6122C74.2648 90.3217 73.6826 89.8735 73.4595 89.3713C72.0491 86.2129 69.2828 84.081 67.4471 81.2613C67.3057 81.0262 67.0537 80.8389 66.8084 80.7191C64.9103 79.8801 63.8424 78.1613 62.5667 76.673C62.1987 76.2429 61.9633 75.5635 61.936 74.9736C61.8055 72.6345 60.557 71.2352 58.4917 70.3499C57.8671 70.0817 57.1556 69.7566 56.7897 69.2423C55.1916 67.0178 53.4281 64.8438 52.2266 62.4145C49.0147 55.9112 46.0329 49.2957 43.0256 42.6881C42.0447 40.5253 41.2722 38.271 40.4175 36.1115C40.7486 35.8294 40.8956 35.6732 41.0582 35.5678C44.8941 33.3242 45.429 29.293 42.3411 26.063C40.8766 24.5489 39.4337 23.0143 38.0845 21.6041C38.2565 20.6193 38.6329 19.7113 38.524 18.8542C38.1124 15.6409 36.3309 14.182 33.0508 14.2384C32.2761 14.2526 31.5041 14.3215 30.7389 14.458C24.036 15.5605 17.4944 17.2815 11.2327 19.9187C7.85522 21.3405 4.53319 22.8983 1.85769 25.5247C0.372918 26.9941 -0.0642162 28.4772 0.799032 30.3003C1.32221 31.4203 1.95357 32.7578 2.91111 33.3416C4.08851 34.053 3.91395 34.802 3.86417 35.7772C3.73251 38.6695 3.60968 41.5453 5.01907 44.2449C5.87488 45.8615 6.46977 46.3058 8.32364 46.2261C8.93017 46.2077 9.54059 46.202 10.1765 46.1886C10.3514 46.7611 10.4759 47.1683 10.5964 47.5628C12.001 52.7959 13.4095 58.0418 14.7887 63.2828C16.2145 68.6764 17.1882 74.1386 17.0387 79.7494C17.007 81.0112 16.9077 82.2798 16.8926 83.5505C16.8268 88.8435 16.5263 94.0969 15.8219 99.3486C15.2456 103.518 15.042 107.768 15.0624 111.977C15.0909 117.032 16.8193 121.777 18.2878 126.309C17.8114 127.345 17.1926 128.188 17.0685 129.102C16.8375 130.759 16.7227 132.477 16.9084 134.132C17.1722 136.361 17.5572 138.622 18.2106 140.76C20.2804 147.487 22.3924 154.215 24.7422 160.857C25.7678 163.757 27.2298 166.538 28.7703 169.212C30.2426 171.753 32.0655 174.076 33.7962 176.552C32.9699 178.446 32.5728 180.515 32.9737 182.647C33.6738 186.44 35.0034 189.97 37.6615 192.887C38.6612 193.972 39.6431 195.091 40.5869 196.222C44.6813 201.106 48.5014 206.185 50.7791 212.181C53.1016 218.233 55.0425 224.401 55.4918 230.97C55.6269 232.96 55.7436 234.844 55.1266 236.786C54.8344 237.696 54.8334 238.74 54.8804 239.713C55.0553 243.973 56.6751 247.679 59.5648 250.761C60.4912 251.744 61.7916 252.585 63.0705 252.945C68.1281 254.335 73.3292 253.872 78.4122 253.251C89.8149 251.867 100.54 248.311 110.227 241.997C113.535 239.846 116.76 237.608 119.232 234.404C120.476 232.785 120.99 231.098 121.047 229.146C121.077 228.47 121.246 227.792 121.355 227.105C121.248 225.843 121.154 224.578 121.043 223.305C120.935 223.226 120.76 223.154 120.729 223.053C119.445 219.716 117.775 216.665 114.674 214.622C114.38 214.433 114.152 214.141 113.91 213.895C108.661 208.557 105.826 201.966 104.931 194.713C104.277 189.431 104.265 184.023 104.416 178.69C104.529 174.189 105.071 169.725 103.878 165.276C103.009 162.021 102.122 158.8 99.0333 156.934C97.5325 156.029 97.1248 154.832 97.1601 153.263L97.1396 153.242ZM86.5019 133.913C86.3428 133.711 86.2004 133.518 86.0452 133.329C85.9423 133.402 85.7935 133.461 85.7317 133.578C84.3562 136.224 82.2123 138.131 79.8467 139.814C79.3197 140.184 78.7312 140.489 78.9851 141.274C79.0745 141.567 79.253 141.832 79.4216 142.156C77.4841 144.056 74.6675 145.265 68.492 146.818C68.5726 147.128 68.6532 147.437 68.7901 148.021C67.9761 148.089 67.2176 148.293 66.5007 148.178C64.6271 147.874 62.7594 147.499 60.9369 146.999C57.9481 146.187 54.9868 145.283 52.0177 144.354C49.295 143.503 46.5981 143.465 43.9335 144.488C41.3667 145.467 38.8566 146.54 36.3415 147.643C35.8138 147.874 35.4253 148.424 34.9775 148.825L34.9648 148.829C34.1738 148.653 33.3859 148.351 32.5956 148.314C31.6497 148.27 30.6859 148.439 29.4375 148.542C30.2425 146.488 31.4873 145.69 33.7629 145.579C33.0277 145.358 32.8018 145.302 32.4802 145.206C32.501 145.046 32.4692 144.805 32.5809 144.716C37.7417 139.66 43.7785 136.424 51.1205 136.184C53.4879 136.1 55.8925 136.548 58.2483 136.927C60.9434 137.369 63.5848 138.273 66.2902 138.476C68.5672 138.642 70.8953 138.112 73.2044 137.837C73.9979 137.748 74.783 137.494 75.6214 137.46C72.6369 139.486 69.0808 140.141 65.4626 141.595C71.459 141.64 81.821 137.625 86.7499 125.392C88.325 128.361 88.983 131.151 86.5312 133.917L86.5019 133.913ZM85.8311 141.004C85.6032 141.533 85.548 141.717 85.4431 141.874C85.3293 142.048 85.1822 142.204 85.0352 142.361C84.8627 142.525 84.6531 142.658 84.4602 142.801C84.3616 142.706 84.2629 142.61 84.1643 142.515C84.6121 142.114 85.0726 141.709 85.835 141.017L85.8311 141.004ZM69.2842 147.954C70.2134 147.489 70.758 147.086 71.3677 146.941C75.9333 145.81 79.8084 143.513 83.0907 140.186C83.2809 139.989 83.5159 139.848 83.8079 139.619C82.4604 143.996 74.6529 148.859 69.2754 147.97L69.2842 147.954ZM84.6242 137.283C84.8861 136.911 85.1391 136.555 85.401 136.183C85.5046 136.249 85.5993 136.331 85.7068 136.409C85.4576 136.778 85.2084 137.146 84.9593 137.514C84.8518 137.436 84.7317 137.361 84.6242 137.283ZM76.0704 92.9976C76.3716 93.5733 76.6688 94.1364 76.97 94.7121C76.8417 94.7931 76.7095 94.8613 76.5646 94.9334C76.2507 94.3615 75.9368 93.7897 75.6229 93.2178C75.7678 93.1457 75.9127 93.0736 76.0704 92.9976ZM77.4678 108.222C78.2359 108.641 77.8337 109.237 77.5803 109.774C77.0759 110.081 76.5804 110.372 76.076 110.679C76.1011 110.351 76.2047 109.916 76.0484 109.769C75.3249 109.086 75.7825 108.626 76.3046 108.286C76.5955 108.099 77.156 108.067 77.4551 108.226L77.4678 108.222ZM33.2639 18.4862C34.0716 19.1715 34.1822 19.6246 33.4216 20.4136C33.3682 19.6925 33.3251 19.2327 33.2639 18.4862ZM31.2555 18.5156C32.4216 19.0079 32.5348 19.6968 32.5868 20.6409C32.0418 20.724 31.7208 20.7664 31.0956 20.8601C31.1538 20.0493 31.1913 19.3979 31.2555 18.5156ZM29.9421 19.3622C30.0804 19.7235 30.2313 20.0808 30.3734 20.4547C30.2207 20.5014 30.0681 20.5481 29.9026 20.5986C29.7938 20.2424 29.681 19.8734 29.5721 19.5171C29.6993 19.4782 29.8227 19.4266 29.946 19.375L29.9421 19.3622ZM27.7596 19.4589C28.3522 19.8806 28.448 20.4218 28.047 21.0823C27.9502 20.5832 27.8699 20.093 27.7596 19.4589ZM25.9262 19.5601C26.8457 20.2622 26.9473 21.0195 26.231 21.8321C26.1249 21.0297 26.039 20.4299 25.9262 19.5601ZM24.1367 20.26C25.0507 20.0641 25.26 20.6123 25.2335 21.163C25.2162 21.5161 24.884 21.8403 24.6819 22.1803C24.544 22.139 24.4189 22.0937 24.281 22.0524C24.2372 21.4536 24.1806 20.8588 24.1367 20.26ZM21.1419 21.0222C21.7909 20.8239 22.3302 20.6313 22.8607 20.4552C23.3924 21.7396 23.0044 22.6095 21.6966 23.0648C21.5004 22.3318 21.3381 21.7553 21.138 21.0095L21.1419 21.0222ZM19.8352 21.4355C21.1021 22.4396 21.1427 22.6637 20.0361 23.8227C19.952 22.8189 19.8925 22.1693 19.8352 21.4355ZM14.2196 23.3187C15.0057 23.0228 15.7027 22.7541 16.4849 22.4455C16.9232 22.9237 17.3166 23.3461 17.8164 23.889C17.8991 23.1124 17.956 22.5246 18.0326 21.8195C19.3175 22.1085 19.0436 23.1244 19.5498 23.9157C17.9572 24.4859 16.5388 24.989 14.8443 25.5903C14.5937 24.6791 14.4275 24.0899 14.2196 23.3187ZM12.2414 23.9929C12.4881 23.8896 12.7581 23.8628 13.1476 23.7715C13.4771 24.3943 13.7861 24.9955 14.1954 25.7887C13.4924 26.1287 12.8491 26.4366 11.9376 26.8682C11.6251 26.0733 11.3681 25.4145 11.0595 24.6323C11.6441 24.3145 11.9311 24.1155 12.2414 23.9929ZM10.2338 25.1629C10.4711 25.9391 10.6733 26.6008 10.9727 27.5805C9.98299 26.77 9.7367 25.9641 10.2338 25.1629ZM8.38779 25.7689C8.72363 26.6401 9.00891 27.3459 9.29419 28.0518C9.20583 28.2179 9.11748 28.384 9.0164 28.554C8.65764 28.4272 8.14901 28.4018 7.97439 28.149C7.50814 27.4429 7.31299 26.6678 8.38779 25.7689ZM5.37646 27.5239C5.68685 28.403 5.94951 29.1714 6.26873 30.0338C4.80045 29.5086 4.66328 29.1053 5.37646 27.5239ZM7.20244 33.9083C10.5128 31.8114 14.0218 30.1825 17.6718 28.9695C23.3931 27.068 29.201 25.4042 34.9661 23.6006C35.9331 23.305 36.2 23.9052 36.6454 24.7708C31.2761 25.2292 26.2794 26.7702 21.487 28.8887C16.6819 31.0112 11.9246 33.2442 7.20154 36.4546C7.1997 35.356 7.19613 34.6615 7.18583 33.8995L7.20244 33.9083ZM8.54724 43.8622C7.14637 41.8278 7.22542 39.8559 7.15213 37.7496C8.01277 37.3336 8.88613 36.9136 9.75066 36.5103C14.6049 34.2754 19.4114 31.93 24.3533 29.8909C27.1306 28.736 30.0833 27.9727 33.0329 27.3356C34.7005 26.9651 36.5158 27.0781 38.2509 27.2017C39.6457 27.3041 40.282 28.6122 40.9893 29.6065C41.5952 30.4508 42.0922 31.4398 41.2867 32.6737C40.6802 32.6921 39.9846 32.7378 39.294 32.7541C33.58 32.8587 28.1242 34.0809 22.9858 36.5696C18.7423 38.6177 14.3907 40.4485 10.505 43.1665C9.978 43.5362 9.23929 43.6229 8.54724 43.8622ZM44.5305 64.1823C44.068 65.6732 42.8595 65.8616 41.673 65.8486C40.3514 65.8491 39.3872 66.1994 38.8076 67.4896C38.6426 67.86 38.1099 68.1202 37.689 68.2906C36.992 68.5592 36.2434 68.7045 35.4594 68.9163C33.6814 67.1502 32.4815 68.0039 30.72 70.9352C29.7512 70.633 28.7325 70.3044 27.704 70.0344C27.3403 69.9369 26.8454 69.8655 26.5506 70.0391C25.2344 70.8309 24.1578 70.1304 22.7061 69.6141C24.1867 68.8138 25.2229 68.1075 26.8796 68.3386C28.6624 68.5728 30.5481 68.233 31.7176 66.4148C31.8971 66.1373 32.3591 66.01 32.7125 65.8464C32.8956 65.7626 33.1879 65.8541 33.3173 65.7311C33.7258 65.3836 34.11 65.0019 34.4239 64.572C34.4896 64.4685 34.2704 63.979 34.0955 63.9072C33.4416 63.634 32.8651 63.7963 32.5028 64.4774C32.4184 64.6563 32.3007 64.8175 32.1339 65.0911C31.7122 64.6217 31.3824 64.1799 30.9879 63.7996C29.621 62.4226 27.7017 62.4249 26.2993 63.7995C25.6045 64.4849 24.9018 65.1449 24.0561 65.9738C24.2204 66.4661 24.4364 67.0818 24.6991 67.8502C24.0696 68.1122 23.3991 68.331 22.7852 68.6438C22.1713 68.9567 21.6266 69.3597 20.7844 69.8814C20.5252 68.8059 20.3011 67.8448 20.0964 66.9474C22.9037 64.4338 22.4829 61.919 19.2095 60.5404C18.7472 60.3478 18.1374 59.9916 17.9964 59.5755C16.3907 55.1412 14.8741 50.6796 13.3321 46.2258C13.2777 46.0477 13.3211 45.8257 13.3215 45.6448C18.2682 42.0738 32.0548 37.1091 36.7197 37.2138C38.2461 40.615 39.8029 43.9791 41.2912 47.392C42.7794 50.8048 44.2041 54.2371 45.733 57.8741C45.0201 58.2728 44.6164 58.591 44.1672 58.7144C42.6453 59.1517 41.8814 58.5643 41.9011 56.9444C41.9106 56.065 42.059 55.1849 42.1784 54.1189C40.5826 55.3161 40.194 58.0505 41.2071 59.2712C42.1714 60.4234 43.8736 60.3484 45.3022 59.1049C45.4315 58.9818 45.5941 58.8765 45.8772 58.6648C46.3545 59.7711 46.7917 60.7922 47.2213 61.7878C44.6057 62.1976 42.0474 62.3395 40.2386 64.4784C41.7015 64.713 42.9968 63.0789 44.5599 64.1872L44.5305 64.1823ZM41.6703 68.2981C41.2158 69.1326 40.5916 69.1843 39.7988 68.9118C40.1458 68.1658 40.7697 67.9612 41.6703 68.2981ZM34.1351 69.8636C33.5289 70.2019 32.8662 70.4462 32.2279 70.7248C32.1285 70.4908 32.0165 70.2607 31.9171 70.0267C32.4402 69.6442 32.9478 69.2109 33.5069 68.9009C33.6479 68.816 34.0732 68.9782 34.199 69.1624C34.3043 69.325 34.2711 69.8081 34.139 69.8764L34.1351 69.8636ZM30.8437 75.3912C30.4814 75.5715 30.2796 75.7305 30.0516 75.7585C29.942 75.7641 29.8134 75.5252 29.6942 75.4086C29.8911 75.2788 30.0597 75.1021 30.276 75.036C30.3778 75.0049 30.5457 75.1901 30.8437 75.3912ZM26.4928 66.4812C26.2669 64.9225 28.2744 63.2516 29.6798 63.9351C30.2368 64.21 30.889 64.8872 30.93 65.4312C30.9682 65.9203 30.3115 66.5941 29.81 66.956C29.33 67.2975 28.6256 67.3597 28.1 67.5065C27.2489 67.544 26.6123 67.4185 26.4928 66.4812ZM19.8397 65.6068C19.4374 64.1994 19.1284 63.0973 18.7805 61.868C20.8285 62.6055 21.0812 63.4326 19.8397 65.6068ZM20.501 118.801C19.2413 112.494 19.3961 106.172 20.396 99.8845C21.286 94.2839 21.4355 88.6732 21.4511 83.0338C21.4569 79.4565 21.3619 75.8682 21.3034 72.1714C21.5013 72.5005 21.63 72.7394 21.8396 73.1066C22.3687 72.6528 22.7847 72.0109 23.2877 71.9267C23.9931 71.8224 24.7743 72.0567 25.4791 72.3143C26.0588 72.5267 26.5049 73.0304 27.0708 73.2887C28.5691 73.9577 28.6529 74.1408 27.88 75.7543C29.4911 76.7923 30.7823 76.829 31.3583 75.846C31.7803 75.1327 31.4321 74.5853 29.9723 73.7236C30.2525 72.4554 31.415 72.2532 32.3467 72.0241C33.8715 71.6415 35.3072 71.2862 36.335 69.9148C36.6311 69.5182 37.4529 69.4757 38.0538 69.3477C38.3033 69.2993 38.5985 69.4456 38.8614 69.5322C41.6018 70.3503 41.9553 70.1866 43.2565 66.9785C43.6581 67.7462 43.9349 68.2877 44.2155 68.8419C44.3477 68.7737 44.4799 68.7055 44.6121 68.6372C44.7294 68.1562 44.8595 67.6712 45.0093 67.0689C46.1771 66.6564 47.4339 66.2166 48.7887 65.733C50.1595 67.6235 51.6017 69.5201 52.9156 71.4976C53.2239 71.9599 53.1218 72.6728 53.2466 73.3999C53.8542 73.3394 54.4049 73.3659 54.9255 73.2485C57.786 72.6386 58.8457 73.5112 58.7119 76.4877C57.2833 77.7312 56.0327 76.9169 54.8772 76.004C53.9332 76.5569 54.0718 77.238 54.4854 77.8629C55.4589 79.3183 56.9465 78.9054 58.3964 78.824C58.7821 79.2209 59.2235 79.5729 59.5318 80.0352C60.4459 81.3419 61.4982 82.0081 63.2439 81.7111C64.8036 81.4431 65.9242 82.2415 66.33 83.3418C66.914 84.8884 66.7274 85.7802 65.6441 86.5148C64.2357 87.46 63.4132 87.3635 62.0986 86.2488C61.7236 85.9322 61.059 85.5787 60.7067 85.7004C59.9842 85.9768 60.1882 86.7353 60.3533 87.3666C60.8797 89.3621 62.6513 90.3789 64.8084 89.7892C65.6687 89.5541 66.46 89.0479 67.5038 88.5481C67.7936 88.9047 68.233 89.3408 68.5275 89.8491C70.6258 93.4372 72.8475 96.9738 73.7621 101.105C73.9891 102.12 74.2493 103.154 74.2992 104.182C74.313 104.637 73.9734 105.256 73.5952 105.566C71.2968 107.423 69.0588 109.387 66.5819 110.979C61.0247 114.555 54.8355 116.656 48.5848 118.691C41.4766 121.017 34.1647 121.902 26.7956 122.554C25.9689 122.626 25.1032 122.57 24.2641 122.465C22.0402 122.199 20.9292 121.022 20.5 118.843L20.501 118.801ZM76.0308 110.804C75.9248 111.504 75.5102 111.923 74.915 112.161C74.8125 112.053 74.7061 111.932 74.6036 111.824C75.0709 111.487 75.5508 111.145 76.0181 110.808L76.0308 110.804ZM72.5371 113.666C70.8756 115.969 68.5744 117.27 65.7086 117.59C67.9805 116.283 70.2651 114.973 72.5371 113.666ZM22.0748 139.565C20.9633 135.564 20.1904 131.487 20.7945 127.045C21.4039 127.082 22.0748 127.183 22.7488 127.158C24.0753 127.128 25.4262 127.132 26.7354 126.955C28.5299 126.726 30.3371 125.993 32.1065 126.092C36.1168 126.286 39.7799 124.888 43.5438 124.002C47.3713 123.097 51.1454 121.971 54.7446 120.273C57.2872 119.078 60.0091 118.288 62.6628 117.366C62.9516 117.264 63.3192 117.374 63.8367 117.383C62.3481 119.841 59.1146 119.549 57.6783 121.769C59.9029 121.173 61.8511 119.854 64.5603 119.569C63.1692 121.162 61.2697 121.047 60.0635 122.153C62.5744 121.72 64.881 120.709 67.1554 119.638C69.4082 118.588 71.426 117.178 73.2321 115.485C74.995 113.833 76.9308 112.338 77.6036 109.85C78.0486 109.895 78.6191 109.804 78.8994 110.039C79.5919 110.62 80.244 111.297 80.7258 112.054C82.8492 115.315 84.4439 118.848 85.7282 122.504C85.9403 123.107 86.0287 123.943 85.7792 124.492C84.0192 128.202 82.0433 131.797 78.4665 134.114C77.2598 134.901 75.8952 135.443 74.4018 135.746C76.1849 134.297 78.1741 133.021 79.7189 131.339C81.2638 129.656 82.3643 127.567 83.3701 125.395C83.0927 125.716 82.7947 126.016 82.5505 126.355C78.8972 131.381 73.9677 134.599 68.1203 136.497C67.7894 136.599 67.4371 136.72 67.0878 136.716C64.3461 136.621 61.6637 136.175 58.9597 135.248C59.2407 135.121 59.5178 134.981 59.8203 134.832C59.704 134.771 59.5927 134.679 59.4998 134.694C57.1875 135.094 54.8928 134.961 52.5678 134.865C45.8578 134.578 39.9733 136.947 34.8141 141.098C32.937 142.603 31.161 143.939 28.6239 143.741C29.4269 143.774 30.2339 143.819 31.1249 143.867C31.049 144.21 30.9811 144.398 30.9553 144.586C30.8702 145.628 29.2817 145.028 29.1804 146.381C29.1073 147.28 28.0473 148.091 27.4567 148.981C26.9103 149.788 26.4177 150.634 25.6935 151.815C24.0561 147.641 23.1736 143.57 22.0621 139.569L22.0748 139.565ZM26.5602 152.329C27.4183 150.175 28.5132 148.477 31.2535 148.794C32.4496 148.93 33.6892 148.843 34.9012 148.848C34.7241 148.86 34.5226 148.839 34.3816 148.923C32.7977 149.871 31.1528 150.346 29.4468 150.348C30.259 150.684 30.7546 150.894 31.4506 151.169C29.9676 152.735 28.5973 154.169 27.1016 155.74C26.243 154.569 26.0884 153.517 26.5729 152.326L26.5602 152.329ZM29.8371 163.279C29 161.587 28.3548 159.795 27.5902 158.067C27.2551 157.334 27.313 156.704 27.9283 156.169C28.8925 155.317 29.4809 154.011 30.9145 153.739C31.9316 151.286 34.1683 151.048 36.4003 150.658C35.9603 150.583 35.5114 150.526 34.82 150.403C35.2855 149.969 35.564 149.605 35.9361 149.367C39.0192 147.436 42.4031 146.263 45.9136 145.413C47.637 144.997 49.4075 145.055 51.132 145.599C54.8989 146.771 58.76 147.706 62.4237 149.132C64.7452 150.036 67.1059 149.384 69.4289 150.066C69.3738 150.25 69.3176 150.475 69.2525 150.718C69.3688 150.78 69.4752 150.9 69.6014 150.903C71.5412 150.923 73.3013 150.218 75.0088 149.432C78.2701 147.948 81.6123 146.593 84.2602 144.058C85.1226 143.238 85.8619 142.289 86.6755 141.4C87.8313 140.129 87.7216 138.632 87.4653 137.11C87.4324 136.912 87.3408 136.703 87.4126 136.528C87.8433 135.297 88.2869 134.063 88.7343 132.841C88.9152 132.841 89.0962 132.841 89.2772 132.842C89.9361 135.089 90.646 137.321 91.2286 139.591C92.3472 143.98 92.7985 148.461 92.7097 152.996C92.7044 153.206 92.661 153.428 92.7232 153.631C93.4561 156.12 92.0116 157.494 90.2228 158.834C87.7307 160.694 85.1022 162.291 82.3877 163.788C80.6378 164.754 79.036 166.023 77.1076 166.724C70.2094 169.235 63.2122 171.332 55.9855 172.678C53.499 173.146 51.0376 173.787 48.5617 174.335C45.891 174.929 43.2313 175.421 40.4305 174.997C39.1347 174.809 38.1153 174.342 37.2737 173.5C34.2772 170.478 31.7442 167.106 29.8664 163.284L29.8371 163.279ZM100.512 166.235C100.869 168.129 100.855 170.179 100.563 172.09C99.516 178.908 99.5062 185.658 100.859 192.452C102.156 198.928 104.227 205.112 107.458 210.858C108.76 213.16 110.435 215.319 112.204 217.283C113.977 219.259 115.482 221.317 116.405 223.79C116.448 223.93 116.465 224.077 116.529 224.197C117.278 225.554 118.027 226.911 117.547 228.574C116.915 230.785 115.988 232.849 114.146 234.289C112.386 235.675 110.526 236.967 108.62 238.148C106.944 239.175 105.123 239.954 103.406 240.938C98.1496 243.949 92.3032 245.305 86.5745 247C80.375 248.839 73.934 249.069 67.5425 249.506C64.1193 249.731 61.3057 247.808 59.8662 244.464C58.5943 241.486 58.0993 238.409 58.9506 235.186C60.2708 230.219 59.8859 225.272 58.5658 220.361C57.8732 217.776 57.0534 215.231 56.2082 212.692C53.6664 205.15 49.116 198.819 43.9152 192.909C42.5243 191.317 41.0559 189.79 39.7551 188.129C38.0503 185.965 37.3283 183.375 36.9959 180.694C36.8899 179.892 37.0538 179.062 37.0912 178.411C41.104 178.339 44.9196 178.578 48.6679 178.142C57.0002 177.182 65.1543 175.274 73.1726 172.74C80.3766 170.455 87.0277 167.226 92.8036 162.316C93.3454 161.858 93.854 161.383 94.3753 160.904C95.8962 159.507 97.3655 159.489 98.4373 161.22C99.3881 162.738 100.161 164.492 100.487 166.243L100.512 166.235ZM62.0376 41.9835C61.4177 42.3678 60.6807 42.5513 60.0003 42.8288C59.9653 42.7143 59.9176 42.6036 59.866 42.4803C59.1407 42.7019 58.3384 42.808 57.6891 43.1873C56.7451 43.7402 55.6593 44.239 55.7035 45.6584C55.74 47.0525 56.471 47.9421 57.6636 48.3845C58.5434 48.7139 58.7035 49.3745 59.0348 50.0941C60.155 52.576 62.9372 54.077 65.7969 53.829C68.1039 53.6387 70.139 51.8759 70.6761 49.2631C70.9309 48.0027 70.9336 46.5549 70.6112 45.3179C69.5563 41.4108 65.4027 39.8838 62.0503 41.9797L62.0376 41.9835ZM61.7115 44.2397C62.6151 46.4678 62.3822 47.0259 60.3187 47.74C59.8383 46.2591 60.4946 45.2655 61.7115 44.2397ZM56.5833 46.4887C57.1919 44.8836 58.032 43.9451 59.8756 44.1051C59.395 45.3094 58.9762 46.3973 58.4327 47.7599C57.7625 47.2969 57.1832 46.9036 56.5833 46.4887ZM69.3719 48.9105C68.7474 51.1465 67.2199 52.4759 65.2536 52.5064C62.9088 52.5274 60.9764 51.212 60.322 49.1164C63.4404 47.6207 63.9366 46.4674 62.8234 43.3712C64.2333 42.2029 65.8896 42.1141 67.3794 43.1196C69.1584 44.3428 69.9864 46.7331 69.3846 48.9066L69.3719 48.9105ZM67.2303 66.6219C67.7601 65.8061 67.6996 64.6976 67.0962 64.089C66.4518 63.4373 65.5254 63.4561 64.6397 64.1998C64.1282 64.6204 63.649 65.1008 63.1316 65.5929C62.4094 64.1858 62.5125 63.4308 63.4191 62.5277C64.7098 61.2428 67.0331 61.2423 68.3943 62.5097C69.6735 63.6909 69.9515 65.6928 69.0718 67.3668C68.2629 68.908 66.7141 69.5761 64.9708 69.1071C63.5619 68.7308 63.1791 67.8878 63.8343 66.4354C64.1732 66.6797 64.4818 66.961 64.8307 67.1465C65.8363 67.66 66.6917 67.4543 67.2342 66.6346L67.2303 66.6219ZM62.2619 10.8063C59.7319 10.9952 58.7062 12.2826 58.9153 15.0151C59.0603 16.9464 60.7269 18.1205 63.03 17.9174C64.9154 17.7586 66.3715 15.9223 66.2031 13.9147C66.028 11.8396 64.5053 10.6355 62.2746 10.8024L62.2619 10.8063ZM65.1315 14.1866C65.1846 15.5894 64.1621 16.7506 62.7582 16.8458C61.004 16.9784 59.9764 16.1655 59.8855 14.5934C59.784 12.941 60.5877 12.111 62.4299 11.9932C64.0236 11.8818 65.0794 12.7417 65.1315 14.1866ZM47.8041 38.6121C49.0472 39.22 50.5303 38.6554 51.1481 37.3536C51.7443 36.0723 51.4597 35.0045 50.3141 34.5338C49.1558 34.0669 48.0209 34.1773 46.9277 34.9705C47.0366 35.3268 47.1338 35.6449 47.2349 35.9757L47.2476 35.9718C46.5125 37.2538 46.6811 38.0788 47.7914 38.616L47.8041 38.6121ZM49.6769 36.2728C49.5236 37.1823 49.0436 37.5237 48.2317 37.0067C47.8506 36.7614 47.6138 36.3051 47.3201 35.9358C48.1217 35.6908 48.9102 35.6306 49.673 36.2601L49.6769 36.2728ZM51.0497 29.8847C52.3607 29.8041 53.3001 28.5987 53.2374 27.0736C53.1755 25.6873 52.2144 24.9098 50.6677 24.9929C49.0573 25.0955 48.0607 26.068 48.1608 27.4425C48.2764 28.868 49.5744 29.9739 51.0497 29.8847ZM48.9812 27.6231C48.9737 26.9158 49.8417 26.2053 50.7731 26.1572C51.5949 26.1147 52.1392 26.3936 52.2216 27.3006C52.3185 28.3005 51.7626 28.9851 50.8146 29.0244C49.9214 29.0609 48.9671 28.3509 48.9723 27.6397L48.9812 27.6231ZM51.0587 3.92098C52.1188 4.11178 53.2021 3.37724 53.3801 2.3211C53.5413 1.4371 52.9898 0.770874 52.0857 0.90807C51.4184 1.00072 50.7878 1.30473 50.0371 1.53416C49.8382 3.25055 50.074 3.74891 51.0587 3.92098ZM52.2936 2.18014C51.9315 2.634 51.4303 2.815 50.79 2.72314C51.1574 2.28625 51.6586 2.10525 52.2936 2.18014ZM60.5056 203.31C62.7733 207.862 64.6073 212.588 65.5291 217.607C66.233 221.413 66.6708 225.258 67.2818 229.078C67.5449 230.667 67.3527 232.451 68.8589 233.646C68.9702 233.737 68.8296 234.142 68.7946 234.528C68.2708 234.271 67.8798 234.085 67.1771 233.743C67.4585 234.436 67.5271 234.888 67.777 235.159C68.0846 235.483 68.5837 235.887 68.9428 235.833C69.2637 235.79 69.5691 235.196 69.7684 234.801C69.9274 234.502 69.9624 234.116 69.9542 233.771C69.8488 231.104 69.9037 228.416 69.5448 225.785C69.0395 221.946 68.2807 218.143 67.5386 214.349C66.3605 208.31 64.3211 202.547 61.755 196.973C60.6415 194.559 58.7762 192.917 56.2394 192.037C55.213 191.682 54.2233 191.54 53.2216 192.041C53.2379 192.23 53.2004 192.381 53.2609 192.488C53.4023 192.723 53.5476 192.971 53.7487 193.173C56.7317 196.06 58.6784 199.653 60.5056 203.31ZM59.6996 195.528C60.5172 196.656 61.1712 197.931 61.7067 199.228C64.2121 205.377 66.2681 211.649 67.2006 218.251C67.7112 221.879 68.3911 225.469 68.9653 229.078C69.0746 229.754 69.0234 230.452 69.0397 231.142C68.892 231.16 68.7608 231.186 68.617 231.216C68.367 229.943 68.0495 228.676 67.8925 227.389C67.0459 220.385 66.0261 213.407 63.1302 206.89C60.9678 202 58.7938 197.071 54.8197 193.263C54.6839 193.138 54.6433 192.914 54.4552 192.526C56.7545 192.811 58.4674 193.818 59.6918 195.503L59.6996 195.528ZM82.2855 231.783C82.6863 232.412 83.0716 232.489 83.8237 232.036C83.7763 231.744 83.7816 231.534 83.7106 231.347C79.3999 220.338 77.0632 208.823 75.0142 197.248C74.5758 194.766 73.9475 192.301 73.1705 189.895C72.6045 188.134 72.0248 187.922 70.1505 187.98C71.1624 193.43 72.1743 198.881 73.1774 204.348C74.9357 213.925 77.0043 223.38 82.2855 231.783ZM73.2276 199.505C72.517 196.133 71.7936 192.764 71.083 189.392C71.0306 189.13 71.0713 188.853 71.061 188.592C71.1677 188.531 71.2911 188.48 71.3978 188.419C71.8015 189.103 72.3706 189.736 72.5668 190.469C73.2361 192.977 73.8035 195.517 74.3328 198.068C75.5667 204.063 76.648 210.105 78.0257 216.069C78.8301 219.566 80.0875 222.952 81.1375 226.388C81.258 226.782 81.3658 227.18 81.1485 227.789C80.8208 227.264 80.3991 226.794 80.1987 226.229C78.9766 222.777 77.5509 219.387 76.6635 215.846C75.3091 210.458 74.3442 204.979 73.2061 199.526L73.2276 199.505ZM90.0598 215.021C86.8721 206.048 84.854 196.759 83.3605 187.365C83.2473 186.676 83.2398 185.969 83.478 185.2C83.8998 187.172 84.2873 189.169 84.76 191.125C86.4644 198.159 88.1346 205.217 89.9829 212.22C91.0902 216.39 92.9453 220.275 95.2441 223.927C95.7092 224.675 96.337 225.318 97.2408 225.863C97.2256 225.631 97.2398 225.404 97.1775 225.2C95.3841 219.195 93.5818 213.207 91.7668 207.223C89.9508 201.281 88.854 195.188 87.7738 189.105C87.4786 187.456 86.9172 185.847 86.4233 184.231C86.0811 183.111 85.5194 182.184 84.1501 182.073C85.8177 181.703 86.3896 181.89 86.9365 183.406C87.6721 185.449 88.4361 187.539 88.7402 189.672C89.8081 197.081 91.7949 204.265 93.7818 211.449C95.2868 216.874 96.5206 222.368 98.8361 227.531C98.9121 227.689 98.8305 227.923 98.799 228.503C97.2862 227.24 95.6942 226.447 94.8627 224.864C93.1638 221.627 91.2614 218.452 90.047 215.025L90.0598 215.021ZM94.5917 179.912C94.5917 179.912 94.5956 179.924 94.5995 179.937C94.2673 179.76 93.9095 179.592 93.2949 179.265C93.402 180.526 93.4707 181.479 93.5559 182.44C94.4582 193.086 96.6718 203.47 100.139 213.541C101.344 217.026 103.393 220.226 105.115 223.539C105.396 224.094 105.739 224.851 106.697 224.573C106.729 224.312 106.827 224.088 106.772 223.909C106.547 223.171 106.403 222.381 106.045 221.711C103.541 217.161 102.355 212.14 100.972 207.206C99.1812 200.755 98.2791 194.117 97.288 187.505C96.9807 185.498 96.4875 183.52 96.0364 181.543C95.8579 180.777 95.4924 180.082 94.5917 179.912ZM96.4234 185.905C97.5204 196.004 99.366 205.958 102.684 215.587C103.112 216.848 103.586 218.08 103.94 219.377C102.427 217.474 101.48 215.287 100.729 213.012C97.6226 203.486 95.4391 193.746 94.3135 183.781C94.195 182.802 93.9963 181.833 93.8524 180.861C93.7742 180.287 93.9813 179.917 94.6112 179.975C95.7738 181.777 96.1769 183.824 96.3979 185.913L96.4234 185.905ZM104.404 238.602L104.457 238.641C104.381 238.664 104.317 238.684 104.241 238.707C104.301 238.675 104.357 238.63 104.4 238.589L104.404 238.602ZM102.286 239.458C102.917 239.153 103.578 238.951 104.245 238.72C103.812 239.033 103.387 239.372 102.905 239.616C95.4676 243.322 87.5828 245.565 79.446 247.12C75.1364 247.95 70.7946 248.219 66.4149 248.32C67.2544 248.244 68.0977 248.181 68.9372 248.105C80.5329 247.08 91.7422 244.516 102.282 239.445L102.286 239.458ZM74.1879 181.069C74.9496 181.24 75.6098 180.76 75.7335 180.027C75.8137 179.515 75.6323 178.694 75.2767 178.441C74.7101 178.044 73.9488 178.193 73.4925 178.931C73.26 179.308 72.9444 179.641 72.5266 180.186C73.066 180.494 73.5934 180.945 74.1918 181.082L74.1879 181.069ZM74.2019 178.839C74.3758 178.953 74.5497 179.067 74.7148 179.197C74.8162 179.347 75.0174 179.55 74.9732 179.633C74.8279 179.886 74.5996 180.095 74.3957 180.338C74.2444 180.162 73.9747 180.008 73.9789 179.839C73.9747 179.507 74.1132 179.186 74.1931 178.856L74.2019 178.839ZM62.137 183.292C63.033 183.811 63.8587 184.282 64.7649 183.059C64.3634 182.792 64.0028 182.568 63.5681 182.284C64.3965 181.808 65.102 181.704 65.4478 182.516C65.7613 183.269 65.2524 183.926 64.5271 184.147C63.6021 184.444 62.5814 184.7 62.137 183.292ZM77.0577 187.956C77.4963 188.253 78.0633 188.469 78.3433 188.884C78.5257 189.163 78.3055 189.717 78.2733 190.158C77.9008 190.077 77.3441 190.122 77.19 189.891C76.869 189.432 76.7499 188.815 76.5533 188.263C76.7198 188.17 76.8951 188.061 77.0616 187.968L77.0577 187.956ZM83.1527 177.717C82.9654 177.469 82.6968 177.273 82.2652 176.862C82.8876 176.713 83.3145 176.472 83.6107 176.576C84.0692 176.756 84.4764 177.132 84.8249 177.499C84.903 177.572 84.7182 178.06 84.5341 178.186C83.9219 178.595 83.5235 178.202 83.1566 177.73L83.1527 177.717ZM104.62 238.536C104.62 238.536 104.501 238.6 104.457 238.641L104.416 238.598C104.48 238.578 104.556 238.555 104.633 238.532L104.62 238.536ZM105.907 237.739C105.946 237.866 106.01 237.985 106.066 238.122C105.582 238.269 105.104 238.388 104.62 238.536C105.056 238.277 105.475 238.01 105.907 237.739ZM28.0381 119.336C28.5019 119.306 29.1575 118.674 29.2875 118.189C29.5713 117.114 29.6801 115.968 29.6744 114.857C29.6815 110.556 29.5498 106.255 29.5736 101.963C29.6068 95.7895 28.3 90.0116 24.6835 84.8702C24.8013 85.7107 24.8731 86.5374 25.0545 87.3585C25.8411 90.8884 26.0672 94.4505 25.9087 98.0745C25.7008 102.993 25.4714 107.933 25.5031 112.862C25.5114 114.71 26.1251 116.582 26.6391 118.4C26.7713 118.833 27.5783 119.379 28.0293 119.353L28.0381 119.336ZM26.4039 109.345C26.5283 104.563 26.691 99.7692 26.6893 94.9838C26.681 92.6351 26.3401 90.2906 26.123 87.7136C26.4008 88.213 26.6536 88.5392 26.7791 88.9044C28.4738 93.8123 29.2987 98.8331 29.058 104.054C28.8886 107.779 28.9881 111.519 28.9449 115.247C28.9241 116.408 29.045 117.623 27.8073 118.808C27.4216 117.911 27.0268 117.21 26.7973 116.46C26.0818 114.118 26.3485 111.714 26.4 109.333L26.4039 109.345ZM55.4708 83.8641C53.995 82.1309 52.5026 80.3888 51.0064 78.634C51.6854 80.082 52.2666 81.5739 53.0994 82.9333C56.3841 88.2179 58.5369 93.9876 60.494 99.8449C60.6662 100.363 60.9713 100.951 61.3982 101.21C62.9362 102.145 64.5487 102.96 66.3136 103.91C66.4422 103.648 66.6285 103.438 66.6034 103.265C66.3428 101.911 66.9326 100.882 67.7494 99.8675C68.0837 99.4592 68.217 98.8481 68.3276 98.2995C68.5961 96.9931 67.9863 96.136 66.4643 95.5717C65.7363 96.2394 66.3729 96.8657 66.5723 97.4725C66.8388 98.2536 66.9852 98.9602 66.1175 99.4897C65.2968 99.991 63.444 100.029 62.8855 99.4758C62.1425 98.729 62.7278 98.0492 63.0646 97.3759C63.1844 97.1306 63.4586 96.9355 63.5325 96.6764C63.63 96.3127 63.5897 95.9076 63.6119 95.5252C63.1648 95.5644 62.6368 95.4754 62.295 95.6772C61.6878 96.0576 61.1848 96.6426 60.6292 97.1463C60.3549 96.8406 60.1644 96.7179 60.0806 96.5348C58.3527 92.6109 56.6248 88.6869 54.9478 84.7474C54.8806 84.5732 55.2687 84.2042 55.4708 83.8641ZM65.5669 101.967C65.7758 102.196 65.9328 102.482 66.1152 102.76C65.9908 102.854 65.8664 102.947 65.742 103.041C65.5175 102.762 65.293 102.482 65.0686 102.203C65.2389 102.123 65.5259 101.924 65.5669 101.967ZM50.9148 78.4254C50.9381 78.5018 50.983 78.5576 51.0064 78.634C50.9615 78.5781 50.9166 78.5223 50.8717 78.4664L50.9148 78.4254ZM40.1999 115.383C40.5191 114.743 40.975 114.186 41.0877 113.553C41.3248 112.326 41.5591 111.044 41.489 109.813C41.1203 103.554 40.2996 97.3631 38.7186 91.2796C37.9436 88.2887 36.2151 85.7283 35.1718 82.8612C34.9937 82.9156 34.8156 82.9701 34.6424 82.9952C34.8878 84.6175 35.1498 86.2487 35.3697 87.8788C35.8142 91.2907 36.3556 94.7008 36.6484 98.1173C36.9827 101.897 37.0303 105.694 37.3263 109.485C37.4169 110.738 37.8068 111.968 38.1469 113.172C38.4131 114.134 38.9398 114.947 40.2127 115.379L40.1999 115.383ZM38.3957 111.983C37.9961 109.629 37.5468 107.248 37.5053 104.881C37.3692 98.7457 37.1694 92.6295 35.6577 86.6361C35.6227 86.5215 35.6895 86.3759 35.7566 86.0493C37.2087 87.8872 37.8603 89.928 38.4061 91.9872C39.9737 97.9358 40.506 104.048 40.9122 110.156C41.0052 111.644 40.889 113.085 40.0147 114.549C38.7804 113.924 38.5622 112.892 38.4084 111.979L38.3957 111.983ZM50.8717 78.4664C50.8717 78.4664 50.8406 78.3646 50.8123 78.3176C50.8494 78.348 50.8865 78.3784 50.9109 78.4127L50.8678 78.4537L50.8717 78.4664ZM45.2063 75.6345C44.8776 74.6498 45.1264 73.9616 46.3807 72.7853C46.7119 73.5049 47.0032 74.1393 47.3783 74.9568C47.8851 74.8854 48.439 74.7857 49.2922 74.6641C48.7086 73.9381 48.3456 73.4786 47.9865 73.0319C49.0832 71.9315 49.8445 71.7823 50.6903 72.4559C51.7345 73.2777 51.5762 74.7173 50.1813 76.7992C50.3877 77.2926 50.5981 77.7988 50.8123 78.3176C49.9579 77.4796 49.0912 76.9654 47.7145 77.1496C46.7645 77.2731 45.6178 76.8444 45.2063 75.6345ZM37.7986 80.6671C39.0201 79.793 39.5647 78.3883 39.1365 77.1696C38.7678 76.0997 37.7799 75.553 36.2413 75.4806C35.5478 75.4421 34.8409 75.2686 34.1619 75.3231C33.7402 75.3546 33.1245 75.5706 32.9605 75.899C32.5099 76.7462 32.2587 77.6995 31.9184 78.68C32.2733 79.295 32.4893 79.9107 32.912 80.338C34.1022 81.5464 36.435 81.6682 37.8025 80.6799L37.7986 80.6671ZM33.4421 78.3395C33.9341 77.3544 34.8155 76.779 36.013 76.6912C36.8376 76.7035 37.7121 76.7424 38.0575 77.7359C38.3124 78.4789 37.7253 79.5626 36.8071 79.9267C35.7743 80.3258 34.6963 80.3492 33.832 79.5699C33.544 79.3101 33.3046 78.6181 33.4548 78.3356L33.4421 78.3395ZM42.0957 83.8476C40.5529 83.9435 39.6523 84.7752 39.7733 85.9904C39.9031 87.189 41.1682 88.0962 42.5809 87.9844C43.8166 87.885 44.5853 86.9405 44.487 85.6628C44.3992 84.4653 43.4654 83.7768 42.0996 83.8603L42.0957 83.8476ZM43.3771 85.9464C43.3736 86.2535 43.0255 86.7077 42.719 86.8431C41.8467 87.221 41.2352 86.7679 40.5173 85.1926C41.4115 85.1141 42.1014 84.9589 42.7557 85.0511C43.0158 85.0829 43.3934 85.6353 43.3898 85.9425L43.3771 85.9464ZM39.9094 75.0552C41.0751 74.7268 41.7226 73.7498 41.4928 72.6792C41.2881 71.7818 40.2679 71.1753 39.1415 71.45C38.4046 71.6335 37.7376 72.046 36.9798 72.3889C37.2168 74.8486 38.0948 75.582 39.9094 75.0552ZM40.5211 72.8231C39.6337 74.4717 39.4771 74.5056 37.9197 73.5068C38.5856 72.6355 39.2868 72.1986 40.5211 72.8231ZM50.873 94.3125C48.9068 89.6545 46.9445 85.0091 44.9783 80.3511C45.038 80.3189 45.1105 80.2828 45.1663 80.2379C46.8681 83.5299 48.702 86.7537 50.2079 90.1333C50.7495 91.3591 50.5078 92.9355 50.873 94.3125ZM44.3423 96.4337C44.2497 95.2655 44.6833 94.5904 45.5539 94.6165C46.311 94.6355 46.6917 95.0618 46.7529 95.8082C46.8303 96.7445 46.2836 97.7325 45.5753 97.782C44.6478 97.8429 44.3898 97.2261 44.3462 96.4464L44.3423 96.4337ZM58.1559 105.123C58.5677 106.152 58.8817 107.224 59.1701 108.305C59.3702 109.051 59.5417 109.93 58.644 110.316C57.8187 110.666 57.216 110.196 56.8477 109.446C57.3474 109.488 57.8511 109.543 58.5817 109.612C58.8237 107.353 57.619 105.551 57.205 103.605C57.5376 104.101 57.9212 104.582 58.1432 105.127L58.1559 105.123ZM57.1241 103.477L57.1633 103.423C57.1633 103.423 57.1983 103.537 57.2177 103.601C57.1894 103.554 57.1484 103.511 57.1241 103.477ZM49.5982 113.039C49.9453 113.128 50.256 113.826 50.2991 114.286C50.3193 114.488 49.664 114.939 49.2805 114.959C48.4333 115.009 47.8865 114.494 47.5485 113.206C48.342 113.117 49.0213 112.881 49.5982 113.039ZM48.0108 106.707C48.1112 107.4 48.483 107.843 49.2539 107.816C50.1217 107.787 50.5532 107.196 50.4411 106.465C50.3725 106.013 49.8225 105.625 49.6224 105.38C48.426 105.425 47.8948 105.963 48.0069 106.694L48.0108 106.707ZM49.2613 107.02C49.0708 106.898 48.8902 106.716 48.7859 106.512C48.7703 106.461 49.0153 106.261 49.2358 106.026C49.4104 106.279 49.591 106.461 49.6367 106.655C49.6639 106.744 49.3073 107.034 49.2701 107.004L49.2613 107.02ZM60.8106 91.7762C60.8594 91.8448 60.9082 91.9134 60.9697 91.9781C60.9891 92.0417 61.0252 92.1141 61.0612 92.1866C61.0163 92.1307 60.9714 92.0749 60.9304 92.0318C60.9071 91.9554 60.8544 91.8741 60.8145 91.789L60.8106 91.7762ZM60.8106 91.7762C59.4005 89.9394 57.9778 88.1065 56.5638 86.2569C57.755 86.9224 59.9823 90.0677 60.8106 91.7762ZM42.9059 78.5775C43.1699 78.6221 43.5503 79.2293 43.4891 79.4845C43.4192 79.7563 42.8452 80.1543 42.6027 80.0893C41.9838 79.9306 41.4211 79.5461 40.8308 79.2535C40.887 79.0276 40.947 78.8145 40.9944 78.6052C41.643 78.5879 42.2986 78.4571 42.9186 78.5737L42.9059 78.5775ZM54.411 104.751C54.2495 104.814 54.0918 104.89 53.9303 104.953C53.5252 103.992 53.1201 103.031 52.715 102.069C52.8383 102.018 52.9617 101.966 53.085 101.915C53.5283 102.864 53.9677 103.801 54.411 104.751ZM56.6281 109.137C56.0417 108.357 55.4553 107.576 54.8561 106.799C55.006 106.698 55.1597 106.609 55.3096 106.508C55.7462 107.39 56.1916 108.255 56.6281 109.137ZM56.6281 109.137C56.6935 109.215 56.7628 109.305 56.8155 109.386C56.8233 109.412 56.8272 109.424 56.831 109.437C56.831 109.437 56.8056 109.445 56.7851 109.423C56.7413 109.326 56.6847 109.232 56.6409 109.134L56.6281 109.137ZM57.0558 103.344C57.0558 103.344 57.1262 103.392 57.1633 103.423L57.1241 103.477C57.1241 103.477 57.0841 103.391 57.0724 103.353L57.0558 103.344ZM56.2668 101.582C56.5298 102.169 56.7928 102.757 57.0558 103.344C56.5147 102.939 55.8413 102.603 56.2668 101.582ZM61.8941 94.0468C61.6194 93.4212 61.332 92.7995 61.0573 92.1739C61.4857 92.7107 61.9269 93.2437 62.3553 93.7806C62.2016 93.8693 62.0517 93.9708 61.898 94.0595L61.8941 94.0468ZM54.0162 98.8613C54.0162 98.8613 54.0572 98.9044 54.0777 98.926C54.0572 98.9044 54.024 98.8868 54.0035 98.8652L54.0162 98.8613ZM55.0176 100.044C54.6984 99.6823 54.3881 99.3042 54.0777 98.926C54.4616 99.226 54.8416 99.5134 55.2254 99.8134C55.1519 99.8916 55.0911 99.9658 55.0137 100.031L55.0176 100.044ZM53.1045 96.7887C53.9733 97.2188 54.3017 97.8836 54.0123 98.8486C54.0123 98.8486 53.9946 98.8818 53.9996 98.8525C53.6927 98.1671 53.3859 97.4818 53.0918 96.7926L53.1045 96.7887ZM53.0168 96.5929C53.0168 96.5929 53.0441 96.682 53.0557 96.7201C53.0635 96.7456 53.0713 96.771 53.0791 96.7965C53.0663 96.8004 53.0458 96.7788 53.0292 96.77C53.0292 96.77 52.9942 96.6555 52.9787 96.6046L53.0168 96.5929ZM52.4463 95.1812C52.5226 95.1579 52.6117 95.1307 52.688 95.1073C52.7976 95.6025 52.9034 96.085 53.0168 96.5929C52.8309 96.121 52.6322 95.6531 52.4463 95.1812ZM29.509 121.099C29.7536 121.08 29.9854 121.064 30.2261 121.033C30.2378 121.071 30.2279 121.129 30.2268 121.171C29.9618 121.169 29.7133 121.175 29.4609 121.169C29.4786 121.136 29.5051 121.086 29.5051 121.086L29.509 121.099ZM59.2139 170.996C55.5627 171.75 51.8943 172.356 47.8734 173.084C48.8892 171.856 48.8803 171.872 49.7032 171.788C53.9778 171.344 58.268 170.951 62.2644 169.187C64.8354 168.04 67.382 166.858 69.9452 165.685C70.5199 165.426 71.1151 165.188 71.6937 164.942C71.0501 165.431 70.4425 165.992 69.755 166.383C68.7004 166.984 67.5853 167.477 66.4857 168.022C66.5451 168.171 66.6211 168.329 66.6805 168.477C68.5385 167.729 70.4249 167.027 72.2508 166.218C72.5915 166.059 72.7247 165.448 73.0947 164.792C72.3217 164.903 71.9754 164.953 71.6417 164.999C72.4698 164.204 73.4234 163.773 74.5665 163.507C77.3937 162.88 80.1043 161.871 82.584 160.334C83.2255 159.929 83.79 159.408 84.3116 158.748C80.1067 160.604 75.8572 162.222 71.3323 163.077C75.4153 160.549 80.7447 160.506 83.9446 156.273C83.0203 156.708 82.1077 157.182 81.1757 157.592C78.9925 158.551 76.8131 159.523 74.5899 160.398C73.9057 160.662 73.1065 160.642 72.2957 160.584C76.3271 158.935 80.566 157.736 83.7978 154.244C82.438 154.257 81.4519 154.808 80.4132 155.279C78.1819 156.309 75.9223 157.291 73.6355 158.185C72.6791 158.561 71.6261 158.757 70.529 158.035C71.9265 157.692 73.364 157.433 74.7226 156.962C76.1831 156.46 77.6251 155.853 78.9619 155.082C80.2898 154.329 81.4801 153.353 82.7232 152.458C83.9789 151.56 85.2757 150.704 86.4866 149.75C87.6848 148.799 88.8097 147.746 90.2472 146.486C89.8984 147.302 89.6665 147.818 89.4386 148.347C89.6899 148.395 89.8698 148.438 90.2003 148.517C89.111 149.824 88.0649 151.09 86.7109 152.714C88.3792 152.483 88.7619 151.322 89.5709 150.783C90.0802 151.508 89.8506 152.548 88.8822 153.901C89.4499 153.755 89.8394 153.664 90.3688 153.53C89.9604 155.881 87.7803 156.714 86.6296 158.457C88.3541 158.501 89.2012 156.948 90.6101 156.322C90.8098 157.249 90.2242 157.609 89.7852 157.994C86.0716 161.229 81.9321 163.663 77.1355 164.948C76.2624 165.187 75.3474 165.425 74.5542 165.834C69.7053 168.36 64.5188 169.917 59.1923 171.016L59.2139 170.996ZM72.0371 156.642C71.3129 156.822 70.5625 156.87 69.8188 156.986C69.7976 156.826 69.7803 156.678 69.759 156.518C74.5062 155.025 79.2007 153.451 82.6007 149.463C78.6308 151.678 74.6942 153.91 69.5783 154.333C72.9774 152.891 76.1075 151.934 78.8672 150.312C81.6573 148.652 84.0642 146.33 86.7005 144.259C86.3697 144.86 86.03 145.479 85.6551 146.164C87.5223 145.218 87.8468 144.868 89.7581 141.835C89.96 144.681 89.9498 144.921 88.2382 146.877C86.5265 148.833 84.7611 150.75 82.1633 151.628C81.6582 151.796 81.2425 152.257 80.788 152.591C78.1266 154.489 75.1973 155.83 72.0371 156.642ZM39.6707 171.237C39.6707 171.237 39.6502 171.215 39.6297 171.194L39.6834 171.233L39.6707 171.237ZM43.6581 172.675C43.6471 172.776 43.6323 172.864 43.6086 172.969C44.7107 173.161 45.8167 173.365 46.9608 173.558C44.4202 174.168 41.7569 173.465 39.1624 171.531C39.3289 171.439 39.4915 171.333 39.6579 171.241C40.4483 172.279 41.6296 172.001 42.6723 172.045C43.5467 172.083 44.4176 171.928 45.3493 172.2C44.7856 172.359 44.2218 172.517 43.6454 172.679L43.6581 172.675ZM33.4382 159.994C35.3783 159.832 37.3057 159.675 39.3808 159.5C37.4631 160.781 35.4929 160.799 33.4382 159.994ZM38.3793 168.195C39.7635 169.219 41.4056 168.856 42.9361 169.084C41.0784 169.652 39.2408 169.42 37.4194 168.878C37.39 168.873 37.3511 168.746 37.3649 168.7C37.414 168.587 37.513 168.501 37.5787 168.398C37.3766 168.237 37.1705 168.064 36.6792 167.685C38.7529 167.733 40.5195 167.777 42.5257 167.832C41.0345 168.552 39.7264 168.688 38.3539 168.203L38.3793 168.195ZM39.6834 171.233L39.6297 171.194C39.6297 171.194 39.6668 171.224 39.6707 171.237L39.6834 171.233ZM38.5615 170.157C40.45 170.372 42.1957 170.576 43.9542 170.776C43.1921 171.287 42.305 171.252 41.4139 171.205C40.825 171.19 40.2274 171.192 39.6463 171.202C39.326 170.883 38.9969 170.58 38.5653 170.169L38.5615 170.157ZM32.245 155.726C34.1724 155.568 36.1125 155.406 38.5545 155.203C36.2897 156.396 34.3001 156.35 32.245 155.726ZM33.253 153.971C32.5125 153.961 31.784 153.808 31.0368 153.73C31.5398 153.646 32.0438 153.52 32.5496 153.49C34.1932 153.405 35.8395 153.375 37.4615 153.311C36.2489 154.168 34.7212 153.995 33.2657 153.967L33.253 153.971ZM30.9488 153.715C30.9488 153.715 31.0075 153.725 31.0329 153.717C30.9948 153.729 30.9439 153.744 30.9018 153.743C30.9018 153.743 30.9272 153.736 30.9361 153.719L30.9488 153.715ZM36.7091 166.326C38.2276 166.196 39.7205 166.074 41.3485 165.938C39.5704 166.857 39.1908 166.89 36.7091 166.326ZM39.9712 161.796C37.9039 162.497 36.1932 162.408 34.428 161.639C36.1525 161.683 37.8809 161.739 39.9712 161.796ZM32.4601 157.886C34.5645 157.716 36.3951 157.56 38.2256 157.404C36.4358 158.285 34.6021 158.567 32.4601 157.886ZM40.4192 164.399C38.4696 164.94 36.9681 164.898 35.4945 164.082C36.9861 164.183 38.4904 164.279 40.4192 164.399ZM63.8617 162.577C63.8617 162.577 63.8267 162.463 63.7984 162.416C64.2034 162.376 64.6124 162.348 65.0174 162.308C65.0252 162.333 65.033 162.358 65.0408 162.384C64.6562 162.446 64.2589 162.512 63.8617 162.577ZM61.4079 150.361C61.2181 150.377 61.0283 150.393 60.8385 150.409C61.0333 150.364 61.228 150.318 61.4228 150.273C61.4178 150.302 61.4129 150.331 61.4079 150.361ZM64.6055 124.633C64.602 124.94 64.6112 125.243 64.6271 125.614C67.2013 125.342 69.3669 124.416 71.1885 122.774C72.0371 122 72.9387 121.627 74.1659 121.864C72.0553 124.29 70.8005 125.146 61.9028 128.172C62.0174 128.638 62.1447 129.1 62.2553 129.553C65.8262 127.808 69.3415 125.926 72.9962 124.364C76.0976 123.041 78.1804 120.888 79.5927 117.952C79.6457 117.852 79.5569 117.698 79.5191 117.529C79.0685 117.875 78.6267 118.205 77.8929 118.763C78.3679 117.449 78.6944 116.515 79.1418 115.293C78.3459 115.648 77.9415 115.827 77.4647 116.042C77.7753 114.737 78.0573 113.565 78.3393 112.394C75.702 115.009 73.0123 117.361 70.2456 119.598C68.8877 120.709 67.3874 121.626 65.9358 122.612C65.2766 123.05 64.5503 123.314 63.7716 122.815C63.7437 124.089 63.4083 124.54 62.3773 124.535C62.2384 124.535 62.1002 124.174 61.9705 123.977C60.7288 124.649 59.4999 125.317 58.0536 126.093C59.8916 126.644 60.2811 126.553 64.5712 124.657L64.6055 124.633ZM76.2416 118.322C76.3519 118.455 76.4621 118.588 76.5724 118.722C75.7984 119.376 75.0283 120.042 74.2542 120.696C74.1439 120.563 74.0376 120.442 73.9273 120.309C74.6974 119.643 75.4675 118.976 76.2288 118.326L76.2416 118.322ZM71.2141 119.58C71.3806 119.488 71.5509 119.408 71.8726 119.504C71.5541 119.782 71.2484 120.057 70.9261 120.322C70.7903 120.197 70.6585 120.084 70.5355 119.955C70.7617 119.83 70.9879 119.705 71.2141 119.58ZM69.7121 122.404C69.751 122.532 69.8192 122.664 69.8708 122.787C68.2803 123.774 66.7542 124.88 64.6691 124.613C66.3501 123.877 68.0311 123.141 69.7248 122.4L69.7121 122.404ZM81.0346 121.031C81.1092 120.911 81.2042 120.812 81.2954 120.701C81.3276 120.76 81.3686 120.804 81.4046 120.876C79.3638 127.218 70.4483 133.462 62.7395 133.732C63.8493 132.947 64.6495 132.424 65.9071 132.624C66.5945 132.734 67.3965 132.308 68.1023 132.023C73.6422 129.801 77.7757 125.936 81.0346 121.031ZM79.5062 126.91C80.7468 125.78 81.8682 124.532 83.1424 123.239C81.5401 127.374 71.7534 135.957 65.2346 135.432C66.5551 134.972 67.8717 134.5 69.2038 134.079C73.3706 132.736 76.3833 129.757 79.5101 126.923L79.5062 126.91ZM63.7488 131.253C70.0786 128.247 76.2105 124.912 80.7231 119.192C79.9531 121.862 78.2842 123.958 76.0034 125.281C72.4966 127.327 68.7801 129.006 65.1318 130.816C64.7098 131.029 64.2068 131.113 63.7488 131.253ZM29.7502 129.581C27.8938 129.425 26.0286 129.286 23.874 129.109C25.1184 127.992 26.2495 127.869 27.5046 127.833C28.8145 127.794 30.1025 127.456 31.4039 127.253C31.4428 127.38 31.4816 127.508 31.5078 127.639C30.3089 127.95 29.1139 128.273 27.9023 128.588C27.9207 128.693 27.9263 128.803 27.9447 128.909C28.5657 128.983 29.1779 129.074 29.7989 129.149C29.7869 129.292 29.7749 129.435 29.759 129.565L29.7502 129.581ZM25.5532 134.968C27.4386 134.809 29.2984 134.658 31.3481 134.491C29.9474 135.462 27.8988 135.587 25.5532 134.968ZM26.4481 139.216C28.2405 139.072 30.0328 138.928 32.3105 138.732C30.1092 139.906 28.2719 139.494 26.4481 139.216ZM25.2957 137.676C26.9206 137.667 28.4065 137.658 29.8337 137.639C28.7034 138.402 27.6127 138.429 25.2957 137.676ZM25.4699 130.917C26.9081 130.798 28.3463 130.678 29.7718 130.562C28.4888 131.372 26.9838 131.136 25.4699 130.917ZM28.6437 133.244C27.2342 133.23 25.8207 133.203 24.4111 133.189C24.4348 133.084 24.4585 132.979 24.4733 132.891C25.8652 132.939 27.2532 132.974 28.6413 133.009C28.6391 133.093 28.6459 133.16 28.6437 133.244ZM30.0146 141.326C30.7367 141.231 31.4471 141.097 32.5206 140.922C30.6173 141.796 30.5116 141.814 27.9561 141.51C28.6478 141.452 29.3307 141.41 30.0185 141.339L30.0146 141.326ZM55.4033 130.896C56.3311 130.654 57.2628 130.425 58.1906 130.183C57.5213 131.361 56.3506 130.717 55.4033 130.896ZM58.2288 130.171C58.2288 130.171 58.2034 130.179 58.1906 130.183C58.1906 130.183 58.1906 130.183 58.1995 130.166C59.5596 129.973 60.8991 129.759 62.2514 129.54C60.9119 129.755 59.5596 129.973 58.2161 130.175L58.2288 130.171ZM35.5459 54.7686C33.3064 54.9521 32.4405 56.0794 32.5354 58.6659C32.5994 60.4689 33.8164 61.4465 35.8357 61.3163C38.0194 61.1776 39.4091 59.8068 39.2806 57.8844C39.1533 55.9199 37.5662 54.5963 35.5459 54.7686ZM38.04 58.0131C38.0917 59.1382 37.2116 59.9915 35.8537 60.1004C34.4703 60.2171 33.5951 59.5385 33.5338 58.2912C33.4882 57.0948 34.2565 56.3313 35.6781 56.2029C37.0449 56.0773 37.97 56.7824 38.0234 58.0043L38.04 58.0131ZM38.8338 62.9321C39.0357 63.2739 38.8512 64.0815 38.5522 64.4233C37.7817 65.271 36.9684 64.977 35.9928 64.1065C36.8362 64.0435 37.4056 63.9947 37.9623 63.9498C37.9898 63.8579 38.0262 63.7493 38.0411 63.6613C37.6961 63.4885 37.3472 63.303 36.6739 62.9662C37.5995 62.3076 38.3365 62.1241 38.825 62.9487L38.8338 62.9321ZM34.9433 49.6103C34.4392 49.2356 33.9224 48.8649 33.3148 48.4245C34.0998 47.6698 34.8304 47.2379 35.7112 48.026C36.1516 48.4201 35.9926 48.7191 34.956 49.6064L34.9433 49.6103ZM28.9645 54.22C28.7914 55.2468 28.1099 55.5664 26.9004 55.2961C27.776 54.7317 28.054 53.9418 27.7344 52.9265C28.794 52.7974 29.1217 53.3233 28.9645 54.22ZM78.4165 137.775C81.1436 135.773 83.7799 133.701 85.5513 130.711C84.6423 132.881 83.8302 135.049 82.1366 136.791C78.3435 140.677 73.6759 143.022 68.6319 144.772C68.1052 144.961 67.5553 145.073 66.941 145.066C71.0222 142.942 75.3646 141.309 79.1323 138.433C78.8032 138.13 78.6137 137.965 78.3999 137.766L78.4165 137.775ZM61.9664 144.722C62.2149 144.716 62.4595 144.697 62.708 144.69C62.7118 144.703 62.7157 144.716 62.7108 144.745C62.4584 144.739 62.2188 144.729 61.9664 144.722Z" fill="white"/>
</svg>
