<svg width="45" height="134" viewBox="0 0 45 134" fill="none" xmlns="http://www.w3.org/2000/svg">
<path d="M39.0029 84.8792C40.141 81.4297 40.5722 77.8953 40.551 74.2619C40.5227 69.5682 40.2683 64.9099 38.9323 60.3717C38.7767 59.8345 38.7626 59.2548 38.6071 58.7176C38.395 57.9683 38.1335 57.2332 37.8578 56.498C37.5044 55.5579 37.3842 54.5612 37.8437 53.6988C38.7697 51.9669 38.7131 51.0056 37.363 49.5847C37.1509 49.3585 36.9247 49.0404 36.8894 48.7506C36.6632 46.9269 35.5887 45.4141 35.0939 43.6964C35.0586 43.555 34.9596 43.4207 34.8536 43.3218C34.0194 42.6008 33.7438 41.5616 33.3267 40.6074C33.2065 40.3317 33.1924 39.95 33.2701 39.646C33.567 38.4372 33.15 37.5324 32.2381 36.7619C31.9624 36.5287 31.6514 36.253 31.5454 35.9349C31.0788 34.5565 30.5204 33.178 30.2871 31.7572C29.6651 27.9542 29.1773 24.13 28.6754 20.3058C28.5128 19.0546 28.4704 17.7893 28.3715 16.5593C28.5835 16.4674 28.6825 16.4109 28.7815 16.3826C31.0788 15.8383 31.9766 13.8732 30.9092 11.7525C30.4002 10.7558 29.9054 9.75204 29.4389 8.82603C29.6792 8.35242 30.0114 7.9495 30.0892 7.4971C30.379 5.80059 29.7004 4.78268 28.0251 4.302C27.6292 4.1889 27.2263 4.10408 26.8163 4.05459C23.2395 3.57392 19.6486 3.43254 16.0576 3.80012C14.1208 3.99804 12.191 4.27373 10.4238 5.19267C9.44123 5.70869 8.98883 6.39437 9.14434 7.45469C9.23623 8.10502 9.34933 8.88258 9.74519 9.32792C10.2329 9.87221 10.0279 10.2257 9.85122 10.7134C9.3352 12.1625 8.82624 13.6045 9.12313 15.195C9.30692 16.1493 9.54019 16.4674 10.4945 16.7148C10.8055 16.7996 11.1165 16.8915 11.4417 16.9834C11.4417 17.3015 11.4417 17.5277 11.4417 17.7469C11.3427 20.6239 11.2438 23.5079 11.1307 26.3849C11.0176 29.3468 10.6641 32.2732 9.71691 35.1008C9.50485 35.7369 9.25744 36.3661 9.05244 37.0093C8.19712 39.6884 7.22869 42.3109 6.05527 44.8698C5.11512 46.8986 4.35169 49.0263 3.70843 51.1681C2.93793 53.7412 3.07931 56.4203 3.12172 58.9509C2.7188 59.4033 2.27347 59.7355 2.06847 60.1809C1.69383 60.9867 1.36866 61.842 1.20608 62.7115C0.994015 63.8849 0.838501 65.0937 0.838501 66.2812C0.84557 70.0206 0.873845 73.7671 1.03643 77.5065C1.10712 79.1394 1.41814 80.7793 1.78572 82.3769C2.13916 83.8967 2.70466 85.3599 3.19948 86.8868C2.48553 87.7209 1.96244 88.7105 1.8352 89.8557C1.60193 91.8915 1.72917 93.892 2.62691 95.7864C2.96621 96.4933 3.29137 97.2143 3.59533 97.9353C4.9172 101.053 6.06941 104.227 6.29561 107.627C6.53595 111.062 6.56423 114.498 5.77252 117.905C5.53218 118.937 5.29891 119.912 4.68393 120.803C4.39411 121.22 4.23152 121.75 4.10429 122.252C3.53171 124.443 3.77912 126.578 4.76875 128.593C5.08685 129.236 5.61701 129.865 6.21079 130.247C8.5647 131.738 11.2791 132.311 13.9582 132.784C19.9667 133.852 25.9681 133.71 31.8705 132.007C33.8851 131.427 35.8715 130.791 37.6245 129.547C38.5081 128.918 39.0312 128.14 39.3634 127.158C39.4836 126.818 39.6745 126.5 39.8371 126.168C39.9784 125.511 40.1269 124.853 40.2683 124.189C40.2258 124.132 40.1481 124.069 40.1481 124.012C40.0138 122.118 39.6391 120.308 38.3809 118.788C38.2607 118.647 38.19 118.463 38.1052 118.301C36.2673 114.773 35.8503 110.984 36.5218 107.16C37.0095 104.375 37.8437 101.625 38.7485 98.9391C39.5048 96.67 40.4733 94.4857 40.5581 92.0399C40.6217 90.2515 40.6712 88.4773 39.3917 87.0494C38.7697 86.3566 38.7485 85.6851 39.01 84.8934L39.0029 84.8792ZM36.5995 73.4066C36.5501 73.2793 36.5077 73.1592 36.4582 73.039C36.3946 73.0602 36.3097 73.0673 36.2602 73.1168C35.1504 74.2478 33.765 74.884 32.3017 75.3717C31.9766 75.4777 31.6302 75.5414 31.6373 75.9796C31.6373 76.1422 31.6867 76.3048 31.7221 76.4956C30.4426 77.1601 28.8239 77.3368 25.445 77.1672C25.4379 77.3368 25.4308 77.5065 25.4096 77.8246C24.9855 77.7327 24.5685 77.7185 24.2221 77.5489C23.3173 77.1036 22.4266 76.6229 21.5784 76.0857C20.1858 75.2091 18.8215 74.2902 17.4572 73.3571C16.2061 72.5018 14.8418 72.0635 13.3291 72.1695C11.8729 72.2685 10.4309 72.424 8.98176 72.5937C8.6778 72.629 8.39505 72.8481 8.10523 72.9824H8.09816C7.72351 72.7704 7.37007 72.4947 6.97422 72.3533C6.50061 72.1837 5.98459 72.1201 5.33426 71.9787C6.06234 71.0597 6.8187 70.8477 7.99212 71.1446C7.65282 70.9184 7.54679 70.8547 7.39835 70.7558C7.43369 70.678 7.4549 70.5508 7.52558 70.5225C10.9327 68.7553 14.5025 68.0484 18.2702 69.0663C19.486 69.3915 20.6382 69.9923 21.7763 70.5508C23.0769 71.194 24.2786 72.0635 25.6217 72.5866C26.7527 73.0249 28.018 73.1168 29.2339 73.3359C29.6509 73.4136 30.0892 73.4066 30.5204 73.5197C28.6896 74.0852 26.781 73.866 24.7169 74.0428C27.7565 74.9971 33.6448 74.5659 38.0487 69.1158C38.388 70.8689 38.289 72.3887 36.6137 73.4136L36.5995 73.4066ZM35.1575 76.9056C34.9596 77.1389 34.903 77.2237 34.8253 77.2873C34.7405 77.358 34.6415 77.4146 34.5425 77.4711C34.4294 77.5277 34.3022 77.563 34.182 77.6054C34.1467 77.5418 34.1113 77.4782 34.076 77.4146C34.3658 77.2803 34.6627 77.146 35.1575 76.9127V76.9056ZM25.6712 77.867C26.2155 77.7751 26.5548 77.6549 26.887 77.6761C29.3823 77.8104 31.7079 77.2449 33.8922 76.0644C34.0194 75.9938 34.1608 75.9584 34.3446 75.8877C32.9803 77.9023 28.2584 79.1606 25.6641 77.8741L25.6712 77.867ZM35.1222 74.8274C35.313 74.679 35.4968 74.5376 35.6877 74.3891C35.7301 74.4386 35.7654 74.4952 35.8078 74.5517C35.6241 74.7002 35.4403 74.8486 35.2565 74.9971C35.2141 74.9405 35.1646 74.884 35.1222 74.8274ZM37.6528 50.9985C37.7164 51.3378 37.78 51.67 37.8437 52.0093C37.7659 52.0305 37.6881 52.0447 37.6033 52.0588C37.5326 51.7195 37.4619 51.3802 37.3913 51.0409C37.4761 51.0268 37.5609 51.0126 37.6528 50.9985ZM35.9987 58.9509C36.3239 59.2831 36.027 59.5235 35.8149 59.7567C35.511 59.8345 35.2141 59.9052 34.9101 59.9829C34.9737 59.8203 35.0939 59.6153 35.0373 59.5164C34.7758 59.0569 35.0798 58.8943 35.3979 58.8024C35.5746 58.753 35.8644 58.8236 35.9916 58.9509H35.9987ZM27.4737 6.49333C27.7777 6.96694 27.7636 7.21435 27.2546 7.4971C27.3394 7.12245 27.3889 6.88211 27.4737 6.49333ZM26.4488 6.19644C26.9648 6.62764 26.9153 6.99521 26.7951 7.48296C26.5053 7.44055 26.3357 7.41227 26.0034 7.36279C26.1589 6.95987 26.2791 6.6347 26.4488 6.19644ZM25.65 6.42264C25.6641 6.62764 25.6853 6.83263 25.6995 7.0447C25.6146 7.0447 25.5298 7.0447 25.4379 7.0447C25.4379 6.84677 25.4379 6.64177 25.4379 6.44385C25.5086 6.44385 25.5793 6.43678 25.65 6.42971V6.42264ZM24.526 6.13282C24.7617 6.43913 24.7263 6.72896 24.42 7.00228C24.4483 6.73367 24.4836 6.47212 24.526 6.13282ZM23.5788 5.89955C23.937 6.39908 23.871 6.79964 23.3809 7.10125C23.4516 6.67712 23.5011 6.35902 23.5788 5.89955ZM22.5609 5.97731C23.0557 6.01972 23.0769 6.33075 22.978 6.60643C22.9144 6.78315 22.6952 6.89625 22.5397 7.03763C22.4761 6.99521 22.4195 6.9528 22.3559 6.91039C22.4266 6.59936 22.4902 6.28833 22.5609 5.97731ZM20.921 5.89955C21.2815 5.89955 21.5854 5.88541 21.8823 5.87834C21.953 6.6135 21.6208 6.99521 20.8856 7.02349C20.8997 6.62057 20.9068 6.30247 20.921 5.89248V5.89955ZM20.1929 5.90662C20.6806 6.6135 20.6665 6.73367 19.9243 7.15073C20.0374 6.62764 20.108 6.28833 20.1929 5.90662ZM17.0473 5.99144C17.4926 5.96317 17.8884 5.93489 18.3338 5.89955C18.4822 6.21058 18.6165 6.48626 18.7862 6.8397C18.9488 6.45799 19.0689 6.16816 19.2174 5.82179C19.8253 6.16816 19.5284 6.64177 19.6627 7.12245C18.765 7.16486 17.9662 7.20021 17.0119 7.24262C17.026 6.74074 17.0331 6.41557 17.0473 5.99144ZM15.9375 6.02679C16.0788 6.01265 16.2202 6.04093 16.4323 6.05506C16.503 6.42264 16.5666 6.77608 16.6514 7.24262C16.2414 7.30624 15.8668 7.36279 15.3366 7.44055C15.3013 6.98814 15.273 6.6135 15.2376 6.16816C15.584 6.09748 15.7607 6.04093 15.9375 6.02679ZM14.7358 6.30954C14.7358 6.74074 14.7358 7.10831 14.7358 7.65261C14.3588 7.08711 14.3588 6.63942 14.7358 6.30954ZM13.7037 6.33075C13.7391 6.82556 13.7744 7.22848 13.8097 7.63141C13.7391 7.70209 13.6684 7.77278 13.5906 7.84347C13.428 7.7233 13.1736 7.63141 13.1241 7.47589C12.9968 7.0447 13.018 6.62057 13.7037 6.33075ZM11.9012 6.75487C11.9224 7.24969 11.9365 7.68089 11.9648 8.16863C11.3003 7.67382 11.2933 7.44762 11.9012 6.75487ZM11.8376 10.2822C13.8451 9.73084 15.8809 9.44809 17.9238 9.39861C21.126 9.32085 24.3352 9.3774 27.5444 9.35619C28.0816 9.35619 28.1241 9.70256 28.216 10.2115C25.4167 9.61067 22.6387 9.61774 19.8748 9.94997C17.1038 10.2822 14.3399 10.6781 11.4417 11.5758C11.6113 11.0174 11.7174 10.6639 11.8305 10.2751L11.8376 10.2822ZM10.9752 15.5485C10.5793 14.2973 10.9257 13.3077 11.2155 12.2261C11.7174 12.1484 12.2263 12.0706 12.7282 11.9999C15.5416 11.6182 18.3479 11.1729 21.1754 10.9043C22.7659 10.7487 24.3847 10.8194 25.9822 10.9537C26.887 11.0244 27.7918 11.3637 28.6542 11.696C29.347 11.9646 29.4671 12.728 29.6721 13.343C29.8488 13.8661 29.9478 14.4457 29.347 14.9476C29.0359 14.8628 28.6754 14.778 28.322 14.679C25.4026 13.8449 22.4407 13.6187 19.4436 14.0852C16.9695 14.4669 14.4742 14.7214 12.0779 15.499C11.7527 15.605 11.3639 15.5343 10.9752 15.5485ZM26.1024 31.4603C25.6358 32.146 24.9926 32.0541 24.3917 31.8632C23.7202 31.6582 23.1759 31.6865 22.6811 32.252C22.5397 32.4146 22.2287 32.4641 21.9883 32.4853C21.5925 32.5136 21.1896 32.4712 20.7584 32.457C20.1293 31.2836 19.387 31.531 18.0369 32.7468C17.5916 32.4429 17.125 32.1177 16.6443 31.8208C16.4747 31.7148 16.2343 31.6017 16.0576 31.6441C15.2659 31.842 14.8277 31.3189 14.1703 30.8312C15.0468 30.6545 15.683 30.4566 16.4888 30.8312C17.3583 31.2271 18.3691 31.3472 19.2457 30.605C19.38 30.4919 19.6344 30.499 19.8394 30.4707C19.9455 30.4566 20.0798 30.5484 20.1646 30.506C20.4261 30.3929 20.6806 30.2586 20.9068 30.089C20.9563 30.0466 20.921 29.7638 20.8432 29.7002C20.5534 29.4599 20.2353 29.4528 19.9455 29.7426C19.8748 29.8204 19.7899 29.884 19.6627 29.9971C19.5213 29.6931 19.4224 29.4174 19.281 29.163C18.8003 28.2511 17.8248 27.9542 16.8988 28.4349C16.4393 28.6752 15.9799 28.9014 15.4214 29.1912C15.4285 29.4669 15.4426 29.8133 15.4568 30.2445C15.0963 30.2798 14.7216 30.2869 14.3611 30.3505C14.0006 30.4141 13.6613 30.5343 13.1523 30.6686C13.1877 30.0819 13.223 29.5588 13.2584 29.0711C15.0751 28.2299 15.2518 26.8868 13.8027 25.678C13.5977 25.5084 13.3432 25.2327 13.3361 24.9994C13.2089 22.4971 13.1311 19.9947 13.0392 17.4924C13.0392 17.3934 13.0958 17.2874 13.1241 17.1955C16.1919 16.1493 23.9676 15.7676 26.3215 16.5452C26.5689 18.5103 26.8375 20.4613 27.0637 22.4264C27.2899 24.3915 27.4808 26.3567 27.6929 28.4419C27.2687 28.5338 27.0143 28.6328 26.7669 28.6257C25.9257 28.6116 25.6288 28.1945 25.8903 27.3746C26.0317 26.9292 26.2438 26.5051 26.47 25.982C25.4733 26.3425 24.8512 27.6714 25.1764 28.449C25.4874 29.1842 26.3639 29.4104 27.2829 29.0004C27.3677 28.958 27.4667 28.9297 27.6434 28.8661C27.7141 29.5023 27.7777 30.089 27.8413 30.6616C26.4488 30.4636 25.1269 30.1385 23.8757 30.9443C24.5826 31.2907 25.4945 30.6616 26.1165 31.4674L26.1024 31.4603ZM24.01 33.1074C23.6495 33.4608 23.3243 33.3901 22.9638 33.1286C23.256 32.8034 23.6047 32.7963 24.01 33.1074ZM19.9384 32.7327C19.5779 32.8105 19.2032 32.8317 18.8357 32.8741C18.8215 32.7398 18.8003 32.6055 18.7862 32.4712C19.1113 32.3581 19.4365 32.2167 19.7687 32.146C19.8536 32.1248 20.0444 32.2732 20.0798 32.3863C20.108 32.4853 20.0162 32.7256 19.9384 32.7398V32.7327ZM17.4078 35.0301C17.1957 35.0654 17.0685 35.1149 16.9483 35.0937C16.8917 35.0796 16.8635 34.9382 16.8211 34.8604C16.9412 34.8251 17.0543 34.7615 17.1745 34.7615C17.231 34.7615 17.2876 34.8816 17.4078 35.0301ZM16.5807 29.8274C16.708 29.0004 17.9874 28.4632 18.5953 29.0287C18.8357 29.2549 19.0619 29.7002 18.9982 29.9829C18.9417 30.2374 18.5034 30.4778 18.1924 30.5838C17.8955 30.6828 17.5279 30.605 17.2381 30.5979C16.7998 30.4848 16.4959 30.3222 16.5807 29.8274ZM13.3361 28.3501C13.3503 27.5725 13.3644 26.9646 13.3785 26.286C14.3046 26.9787 14.3046 27.4382 13.3361 28.3501ZM5.41201 55.4801C5.75132 52.08 6.81164 48.892 8.29608 45.8524C9.61795 43.145 10.5652 40.3175 11.4488 37.4547C12.0072 35.638 12.5162 33.8001 13.0605 31.9127C13.1099 32.1107 13.1382 32.252 13.1877 32.4712C13.527 32.3227 13.838 32.0612 14.1066 32.0965C14.4813 32.1531 14.8418 32.3934 15.1599 32.6337C15.4214 32.8317 15.5699 33.1568 15.8173 33.376C16.4747 33.9485 16.4888 34.0546 15.8456 34.7544C16.503 35.532 17.1533 35.7511 17.5986 35.3411C17.9238 35.0442 17.8319 34.712 17.224 34.0475C17.5633 33.4467 18.1853 33.5244 18.6943 33.5527C19.5284 33.5951 20.313 33.6375 21.0482 33.1003C21.2603 32.9448 21.6844 33.0508 22.0096 33.0791C22.1439 33.0932 22.2711 33.2134 22.3913 33.2982C23.6566 34.1394 23.8616 34.1111 25.0209 32.6832C25.1057 33.1356 25.1622 33.4537 25.2188 33.7789C25.2965 33.7648 25.3743 33.7506 25.4521 33.7365C25.5864 33.5103 25.7277 33.2841 25.8974 33.0013C26.5548 32.973 27.2617 32.9448 28.0251 32.9094C28.428 34.0828 28.8663 35.2704 29.2268 36.4792C29.3116 36.7619 29.149 37.1083 29.0996 37.4971C29.4177 37.5607 29.6933 37.6597 29.9761 37.6809C31.5242 37.8152 31.9271 38.4231 31.3969 39.9146C30.478 40.3246 29.969 39.7167 29.5237 39.0734C28.9582 39.2077 28.9228 39.5753 29.0359 39.957C29.3045 40.8477 30.1245 40.8689 30.8738 41.0527C31.0081 41.3142 31.1778 41.5616 31.2626 41.8444C31.5242 42.6502 31.9553 43.1521 32.8884 43.2723C33.7225 43.3783 34.1679 43.958 34.2032 44.58C34.2598 45.4565 34.0265 45.8807 33.362 46.0857C32.4996 46.3472 32.0967 46.1705 31.6019 45.4C31.4605 45.1809 31.1778 44.8981 30.9799 44.9052C30.5699 44.9335 30.5557 45.3505 30.5416 45.6969C30.4992 46.7925 31.2414 47.5843 32.429 47.6196C32.9026 47.6337 33.3832 47.4994 33.9912 47.4075C34.0831 47.6337 34.2386 47.9236 34.3093 48.2275C34.8182 50.3764 35.3979 52.5183 35.2211 54.7591C35.1787 55.3104 35.1504 55.876 35.0161 56.4061C34.9525 56.6394 34.6839 56.9009 34.4436 56.9999C32.9874 57.5866 31.5454 58.2369 30.0397 58.6611C26.6608 59.6154 23.19 59.7214 19.6981 59.785C15.7254 59.8628 11.8729 59.1771 8.02747 58.3642C7.59627 58.2723 7.16508 58.1097 6.75508 57.9259C5.66649 57.4452 5.28477 56.6747 5.40494 55.5013L5.41201 55.4801ZM34.8677 60.0395C34.7051 60.3788 34.4294 60.5272 34.0901 60.5555C34.0548 60.4848 34.0194 60.4071 33.9841 60.3364C34.2739 60.2374 34.5708 60.1384 34.8606 60.0395H34.8677ZM32.6481 60.9514C31.4464 61.8632 30.075 62.1672 28.5694 61.8844C29.9266 61.5734 31.2909 61.2624 32.6481 60.9514ZM2.98742 66.2742C3.04397 64.0687 3.28431 61.8774 4.28101 59.7143C4.58496 59.8274 4.91013 59.9829 5.2565 60.0748C5.9351 60.2657 6.62078 60.4777 7.31352 60.5908C8.26074 60.7534 9.29278 60.6615 10.1764 60.9867C12.1839 61.7077 14.2621 61.5663 16.3121 61.7006C18.3974 61.8349 20.4898 61.8491 22.5821 61.5451C24.0595 61.3331 25.5652 61.3543 27.0567 61.2977C27.2193 61.2907 27.3889 61.4038 27.6505 61.4886C26.5124 62.5065 24.9148 61.8562 23.8404 62.761C25.0633 62.8034 26.2579 62.4358 27.6787 62.7115C26.7244 63.3053 25.7772 62.9518 24.9926 63.3265C26.3357 63.4961 27.6646 63.3406 28.9865 63.1497C30.2942 62.966 31.5383 62.563 32.7188 61.9834C33.871 61.4179 35.0868 60.9584 35.8149 59.7991C36.034 59.891 36.338 59.9334 36.444 60.096C36.7056 60.4989 36.9318 60.9443 37.059 61.4038C37.6316 63.3901 37.8931 65.433 37.978 67.49C37.9921 67.8293 37.9073 68.2676 37.6952 68.5079C36.2249 70.1196 34.6627 71.6394 32.4855 72.2614C31.7504 72.4735 30.9728 72.5371 30.1669 72.4594C31.298 71.9999 32.5067 71.6606 33.5529 71.0456C34.5991 70.4306 35.4827 69.5399 36.3309 68.5927C36.1401 68.7129 35.9422 68.8189 35.7654 68.9532C33.1288 70.9396 30.1245 71.809 26.8587 71.8656C26.675 71.8656 26.477 71.8726 26.3003 71.8161C24.9219 71.3425 23.6283 70.6992 22.3983 69.8086C22.5609 69.7873 22.7235 69.7591 22.9002 69.7308C22.8507 69.6813 22.8083 69.6177 22.7588 69.6106C21.5218 69.4551 20.3767 69.031 19.2103 68.621C15.8456 67.4334 12.4879 67.7233 9.2221 69.031C8.03454 69.5046 6.92474 69.9075 5.66649 69.4127C6.06941 69.5541 6.47233 69.7025 6.91767 69.8651C6.82577 70.0277 6.76215 70.1125 6.71974 70.2044C6.51475 70.7204 5.8008 70.1691 5.53925 70.8406C5.36253 71.2859 4.69806 71.5333 4.2598 71.8939C3.85688 72.219 3.47516 72.5725 2.9238 73.0602C2.74001 70.6851 2.9238 68.4796 2.98035 66.2742H2.98742ZM3.28431 73.4561C4.0548 72.4947 4.87478 71.802 6.21786 72.3887C6.80457 72.6431 7.44783 72.7916 8.06281 72.9824C7.97092 72.9612 7.87195 72.9188 7.78713 72.94C6.8352 73.1757 5.92568 73.1615 5.05857 72.8976C5.41908 73.1945 5.63821 73.3783 5.94924 73.6257C4.95254 74.1912 4.0336 74.7072 3.02983 75.2727C2.77535 74.5447 2.86018 73.9862 3.29137 73.4561H3.28431ZM3.24896 79.5282C3.08638 78.5385 3.0369 77.5277 2.91673 76.531C2.86018 76.1069 2.98742 75.7958 3.38327 75.6191C4.00532 75.3364 4.50721 74.7638 5.27771 74.8486C6.17544 73.76 7.34886 73.9862 8.54349 74.1347C8.33143 74.0286 8.11229 73.9297 7.78006 73.76C8.08402 73.6116 8.28195 73.4702 8.50815 73.4066C10.3743 72.9047 12.2758 72.834 14.1915 72.9471C15.1316 73.0037 16.0223 73.3076 16.814 73.8519C18.5458 75.0324 20.3625 76.1069 22.0025 77.4004C23.0416 78.2204 24.3423 78.2558 25.4167 78.9627C25.3602 79.0475 25.2965 79.1535 25.2259 79.2666C25.2753 79.3161 25.3107 79.3938 25.3743 79.4151C26.3569 79.7261 27.3606 79.6413 28.3503 79.5069C30.2376 79.2595 32.1462 79.0899 33.8851 78.2134C34.4506 77.9306 34.9737 77.563 35.5251 77.2379C36.3097 76.7713 36.4865 75.9938 36.5925 75.1808C36.6066 75.0748 36.5925 74.9546 36.6561 74.8769C37.0661 74.3184 37.4831 73.76 37.9002 73.2087C37.9921 73.2369 38.084 73.2652 38.1759 73.2935C38.1618 74.5376 38.1759 75.7817 38.1193 77.0258C38.0062 79.4292 37.5397 81.776 36.7904 84.0663C36.7551 84.1724 36.6985 84.2784 36.6985 84.3915C36.6844 85.7699 35.7372 86.2435 34.6203 86.6464C33.0652 87.2049 31.4817 87.6078 29.8701 87.9471C28.8309 88.1662 27.8201 88.5621 26.7315 88.6186C22.8366 88.8236 18.9558 88.8024 15.0751 88.3642C13.7391 88.2157 12.3889 88.1592 11.0458 88.0531C9.59674 87.94 8.16884 87.7774 6.81164 87.1271C6.18251 86.8302 5.73718 86.4344 5.44029 85.8759C4.38704 83.8755 3.62361 81.769 3.2631 79.5352L3.24896 79.5282ZM38.699 92.0046C38.5859 93.0225 38.2607 94.0616 37.8154 94.9876C36.2249 98.2887 35.1717 101.717 34.8041 105.379C34.4577 108.871 34.5496 112.334 35.2989 115.756C35.6028 117.127 36.1189 118.484 36.7127 119.757C37.3064 121.036 37.7518 122.316 37.8366 123.715C37.8366 123.793 37.8225 123.871 37.8366 123.941C38.0062 124.747 38.1759 125.553 37.674 126.324C37.0095 127.349 36.2178 128.253 35.0586 128.699C33.9488 129.13 32.8036 129.497 31.6514 129.801C30.6406 130.063 29.5944 130.176 28.5694 130.409C25.4308 131.123 22.2499 130.904 19.076 130.876C15.6406 130.848 12.3324 129.964 9.0171 129.194C7.24283 128.776 6.11182 127.363 5.89976 125.44C5.71597 123.729 5.94217 122.089 6.87525 120.584C8.31729 118.265 8.88986 115.692 8.98176 112.992C9.03124 111.571 9.01003 110.15 8.97469 108.729C8.85452 104.502 7.52558 100.579 5.8008 96.769C5.34133 95.744 4.83237 94.7402 4.42945 93.694C3.89929 92.3297 3.93463 90.9019 4.18204 89.4881C4.25273 89.064 4.46479 88.6681 4.58496 88.3429C6.63492 88.9297 8.53642 89.6436 10.5086 90.0041C14.8913 90.81 19.3305 91.1068 23.798 91.0644C27.813 91.022 31.6938 90.4141 35.3908 88.8166C35.7372 88.6681 36.0694 88.5055 36.4087 88.3429C37.3983 87.8693 38.1476 88.0885 38.4233 89.1347C38.6707 90.0536 38.7909 91.0644 38.6848 92.0046H38.699ZM38.4445 22.9C38.0699 22.999 37.6669 22.9778 37.2782 23.0131C37.2782 22.9495 37.2711 22.8859 37.264 22.8152C36.8611 22.8152 36.437 22.7445 36.0482 22.8364C35.4827 22.9707 34.8536 23.0555 34.6556 23.7836C34.4577 24.4976 34.691 25.0631 35.2282 25.4731C35.6241 25.777 35.6028 26.1375 35.6594 26.5546C35.8432 27.9895 37.0237 29.1842 38.5152 29.5023C39.7169 29.7638 41.0246 29.1842 41.7032 27.9401C42.0284 27.3392 42.2546 26.6041 42.2829 25.9255C42.3536 23.7765 40.4803 22.3557 38.4516 22.9H38.4445ZM37.9285 23.9957C38.0416 25.2681 37.8366 25.5155 36.6773 25.5579C36.6632 24.7308 37.1509 24.3279 37.9285 23.9957ZM34.9737 24.342C35.5322 23.621 36.1047 23.2747 37.0166 23.6422C36.5854 24.1795 36.2037 24.6672 35.716 25.2751C35.4473 24.9358 35.2141 24.646 34.9737 24.342ZM41.0953 27.5583C40.4308 28.5975 39.4483 29.0357 38.4445 28.7459C37.2499 28.3925 36.4723 27.424 36.4652 26.2577C38.2819 25.982 38.7131 25.4731 38.6283 23.7271C39.526 23.3524 40.3814 23.5645 40.9822 24.3067C41.6962 25.2044 41.7456 26.5475 41.1024 27.5583H41.0953ZM37.2569 36.2247C37.6528 35.8925 37.7942 35.3199 37.5821 34.917C37.3559 34.4858 36.8823 34.3515 36.3168 34.5918C35.9916 34.7261 35.6735 34.8958 35.3342 35.0654C35.1858 34.2384 35.3554 33.8708 35.9563 33.5527C36.8116 33.1003 37.9921 33.4608 38.4869 34.3161C38.9535 35.1149 38.7838 36.1752 38.0769 36.8892C37.4266 37.5466 36.5359 37.6455 35.723 37.1366C35.0656 36.7266 35.002 36.2388 35.5604 35.6026C35.6947 35.7794 35.8078 35.9702 35.9563 36.1187C36.3875 36.5357 36.854 36.564 37.2569 36.2318V36.2247ZM43.3997 7.09418C42.0849 6.79729 41.3639 7.2921 41.0458 8.71293C40.8196 9.7167 41.4841 10.572 42.6858 10.8265C43.6683 11.0386 44.6933 10.3317 44.9195 9.2855C45.1528 8.20398 44.5661 7.35572 43.4068 7.09418H43.3997ZM44.3328 9.25723C44.142 9.97825 43.4421 10.4094 42.7141 10.2398C41.8022 10.0348 41.4063 9.46222 41.6043 8.64931C41.8093 7.79399 42.3465 7.4971 43.3008 7.7233C44.1278 7.91416 44.5307 8.515 44.3328 9.25723ZM31.7362 18.9768C32.2734 19.4787 33.1146 19.4222 33.6307 18.8567C34.1325 18.2982 34.1537 17.7115 33.6448 17.2945C33.1288 16.8774 32.535 16.7572 31.8564 16.9905C31.8564 17.1884 31.8564 17.3651 31.8564 17.5489H31.8635C31.2909 18.0862 31.2485 18.5315 31.7291 18.9768H31.7362ZM33.051 18.0791C32.8319 18.5174 32.535 18.6163 32.2028 18.2275C32.0472 18.0437 31.9978 17.7751 31.9059 17.5419C32.3512 17.5419 32.7612 17.6338 33.051 18.072V18.0791ZM34.7405 15.0466C35.4191 15.2092 36.0835 14.7426 36.2885 13.958C36.4723 13.244 36.1047 12.6997 35.306 12.5018C34.4718 12.3039 33.8144 12.6432 33.6519 13.3571C33.4893 14.0994 33.977 14.8628 34.7405 15.0466ZM34.0406 13.5763C34.1467 13.2158 34.698 12.9896 35.1787 13.1097C35.6029 13.2158 35.8361 13.442 35.7372 13.9156C35.6311 14.4387 35.2423 14.7002 34.7546 14.573C34.2951 14.4528 33.9205 13.9438 34.0336 13.5833L34.0406 13.5763ZM38.7767 1.8562C39.2857 2.11774 39.9502 1.91275 40.2046 1.40379C40.4238 0.979666 40.247 0.555538 39.7664 0.48485C39.4129 0.4283 39.0454 0.48485 38.6283 0.48485C38.2607 1.32604 38.3031 1.61586 38.7767 1.8562ZM39.6745 1.16345C39.42 1.33782 39.1372 1.35196 38.8262 1.20587C39.0807 1.04093 39.3634 1.02679 39.6745 1.16345ZM12.6151 104.629C13.0605 107.294 13.2584 109.981 12.9474 112.674C12.7141 114.717 12.3394 116.738 12.0567 118.774C11.9436 119.622 11.5689 120.499 12.1486 121.34C12.191 121.404 12.0567 121.588 11.9789 121.778C11.7527 121.566 11.5831 121.411 11.2791 121.128C11.3145 121.524 11.2791 121.764 11.3639 121.941C11.47 122.153 11.6608 122.436 11.8517 122.464C12.0213 122.492 12.2687 122.238 12.4313 122.068C12.5586 121.941 12.6363 121.75 12.6858 121.573C13.0463 120.202 13.4916 118.845 13.7179 117.452C14.0572 115.424 14.2621 113.374 14.4742 111.331C14.8135 108.079 14.6721 104.834 14.2339 101.604C14.043 100.204 13.3503 99.0805 12.1981 98.2393C11.7315 97.9 11.2508 97.6738 10.6641 97.7727C10.6429 97.8717 10.6005 97.9424 10.6146 98.006C10.65 98.1474 10.6853 98.2958 10.756 98.4301C11.8234 100.36 12.2546 102.488 12.6151 104.629ZM13.4139 100.551C13.6542 101.251 13.7885 102 13.8592 102.742C14.1773 106.255 14.248 109.761 13.6966 113.26C13.3927 115.183 13.1806 117.113 12.912 119.036C12.8625 119.396 12.7282 119.743 12.6293 120.096C12.5515 120.082 12.4808 120.075 12.4031 120.068C12.4737 119.382 12.5091 118.689 12.6293 118.011C13.2867 114.321 13.8522 110.617 13.3927 106.856C13.0534 104.036 12.7141 101.194 11.2862 98.6422C11.2367 98.5574 11.2508 98.4372 11.2155 98.211C12.3394 98.7129 13.0534 99.4904 13.4139 100.537V100.551ZM19.2598 122.478C19.3658 122.86 19.5496 122.959 20.002 122.846C20.0232 122.69 20.0586 122.584 20.0515 122.478C19.5708 116.215 20.1717 110.002 20.928 103.802C21.0906 102.473 21.1542 101.123 21.133 99.7803C21.1189 98.7977 20.8573 98.5998 19.896 98.3382C19.5637 101.265 19.2315 104.191 18.8922 107.125C18.2984 112.264 17.8814 117.389 19.2598 122.478ZM19.6698 104.672C19.8324 102.848 19.9879 101.024 20.1505 99.2006C20.1646 99.0592 20.2282 98.9249 20.2636 98.7906C20.3272 98.7765 20.3979 98.7694 20.4615 98.7553C20.5604 99.1653 20.7513 99.5753 20.7372 99.9782C20.6877 101.357 20.5817 102.735 20.4544 104.113C20.1505 107.351 19.7617 110.588 19.5355 113.833C19.4012 115.735 19.5143 117.65 19.5143 119.559C19.5143 119.778 19.5072 119.997 19.3022 120.273C19.2174 119.955 19.076 119.651 19.0619 119.333C18.977 117.389 18.7791 115.445 18.8781 113.508C19.0265 110.56 19.387 107.627 19.6556 104.679L19.6698 104.672ZM25.8126 115.169C25.5864 110.115 26.0034 105.082 26.7032 100.077C26.7527 99.7096 26.8587 99.3491 27.0991 98.9956C27.0072 100.063 26.8941 101.137 26.8305 102.205C26.6043 106.043 26.3569 109.889 26.2084 113.734C26.1236 116.024 26.4629 118.286 27.0637 120.499C27.1839 120.951 27.403 121.375 27.7777 121.793C27.806 121.672 27.8484 121.559 27.8484 121.446C27.8696 118.117 27.8837 114.794 27.8908 111.472C27.8908 108.171 28.2796 104.905 28.6754 101.646C28.7815 100.763 28.7461 99.858 28.7461 98.9603C28.7461 98.3382 28.6047 97.7798 27.9261 97.5112C28.8309 97.5819 29.0925 97.7657 29.1349 98.621C29.1914 99.7732 29.2551 100.954 29.0783 102.085C28.4704 106.015 28.3644 109.973 28.2584 113.932C28.1806 116.922 27.9544 119.905 28.3291 122.888C28.3432 122.98 28.2654 123.086 28.1594 123.376C27.5868 122.499 26.9012 121.849 26.7244 120.916C26.3639 119.007 25.8903 117.099 25.8055 115.169H25.8126ZM33.567 98.0343C33.567 98.0343 33.567 98.0413 33.567 98.0484C33.4257 97.907 33.2701 97.7657 33.0086 97.5041C32.8672 98.1615 32.7541 98.6563 32.6481 99.1582C31.4535 104.707 30.9657 110.327 31.1636 115.982C31.2343 117.94 31.7786 119.884 32.1391 121.835C32.1957 122.16 32.2522 122.598 32.7824 122.605C32.8389 122.478 32.9238 122.379 32.9238 122.28C32.9238 121.87 32.9733 121.446 32.8955 121.05C32.33 118.35 32.5067 115.614 32.5703 112.893C32.6622 109.337 33.2348 105.824 33.7579 102.311C33.9134 101.244 33.97 100.162 34.0477 99.0875C34.076 98.6705 33.9982 98.2605 33.567 98.0343ZM33.567 101.364C32.5562 106.665 31.9483 112.009 32.1391 117.417C32.1603 118.124 32.2098 118.824 32.1886 119.538C31.715 118.336 31.5736 117.078 31.5454 115.805C31.4464 110.482 31.8493 105.195 32.8248 99.957C32.9167 99.441 32.9662 98.9179 33.0439 98.4018C33.0934 98.0979 33.256 97.9424 33.567 98.0696C33.8781 99.1653 33.765 100.268 33.5529 101.364H33.567ZM29.4389 129.377L29.4601 129.406C29.4177 129.406 29.3823 129.406 29.3399 129.406C29.3752 129.399 29.4106 129.384 29.4389 129.37V129.377ZM28.2301 129.483C28.5977 129.427 28.9652 129.427 29.3399 129.413C29.0713 129.505 28.8027 129.611 28.5199 129.66C24.1655 130.388 19.8112 130.303 15.4356 129.83C13.117 129.582 10.8691 129.045 8.62832 128.416C9.06658 128.508 9.50485 128.607 9.94311 128.699C15.994 129.978 22.0873 130.416 28.2301 129.476V129.483ZM23.0204 95.4542C23.3809 95.6592 23.7909 95.5178 23.9676 95.1643C24.0878 94.9169 24.1231 94.4716 23.9817 94.2878C23.7555 93.998 23.3456 93.9556 22.9992 94.2595C22.8225 94.415 22.6104 94.5352 22.3135 94.7473C22.5397 94.9876 22.7376 95.2986 23.0204 95.4612V95.4542ZM23.3738 94.3231C23.4445 94.408 23.5152 94.4928 23.5788 94.5847C23.6071 94.6766 23.6778 94.8109 23.6424 94.8462C23.5293 94.9523 23.3809 95.023 23.2395 95.1149C23.19 95.0018 23.0769 94.8816 23.1052 94.7968C23.1547 94.6271 23.2749 94.4857 23.3668 94.3302L23.3738 94.3231ZM16.5524 94.7119C16.9271 95.1149 17.2735 95.4824 17.9238 95.0018C17.7612 94.8038 17.6128 94.6342 17.436 94.4221C17.9309 94.309 18.3055 94.3656 18.355 94.8321C18.3974 95.2633 18.0369 95.5178 17.634 95.5178C17.1179 95.5248 16.5595 95.4966 16.5524 94.7119ZM23.4092 99.3986C23.5859 99.6177 23.8404 99.8156 23.9181 100.07C23.9676 100.24 23.7697 100.487 23.6849 100.706C23.5081 100.607 23.2183 100.544 23.1759 100.402C23.084 100.12 23.1194 99.7873 23.1052 99.4763C23.2042 99.4551 23.3102 99.4268 23.4092 99.4056V99.3986ZM28.0958 95.1431C28.0392 94.9876 27.9332 94.8462 27.7777 94.5706C28.117 94.5918 28.3715 94.5352 28.5058 94.6342C28.7108 94.7968 28.8592 95.0512 28.9794 95.2916C29.0077 95.3411 28.838 95.5602 28.7249 95.5955C28.3503 95.7086 28.2089 95.4471 28.0958 95.1502V95.1431ZM29.559 129.377C29.559 129.377 29.4883 129.391 29.4601 129.406L29.4459 129.377C29.4813 129.377 29.5237 129.377 29.5661 129.377H29.559ZM30.3366 129.172C30.3366 129.243 30.3507 129.314 30.3578 129.391C30.0892 129.391 29.8276 129.377 29.559 129.377C29.8206 129.314 30.075 129.243 30.3366 129.172ZM9.15848 56.9221C9.39882 56.9787 9.83001 56.7596 9.97139 56.5334C10.2824 56.0315 10.5157 55.466 10.6853 54.9005C11.3569 52.7162 11.9577 50.5107 12.6363 48.3335C13.6118 45.2021 13.8451 42.0635 12.806 38.8896C12.7353 39.335 12.6434 39.7662 12.608 40.2115C12.4596 42.1271 12.0213 43.9721 11.3781 45.7888C10.5086 48.2558 9.62502 50.7299 8.87572 53.2393C8.59297 54.1794 8.61418 55.2256 8.59297 56.2294C8.59297 56.4697 8.91814 56.8727 9.15141 56.9292L9.15848 56.9221ZM9.87949 51.5923C10.6853 49.1818 11.5124 46.7713 12.2546 44.3397C12.6151 43.145 12.806 41.9009 13.0958 40.5579C13.1594 40.8548 13.2372 41.0598 13.2442 41.2647C13.3432 44.0216 12.9827 46.7007 12.0496 49.3161C11.3851 51.1823 10.855 53.0979 10.2541 54.9853C10.0633 55.572 9.93604 56.2082 9.12313 56.6182C9.06658 56.1022 8.97469 55.6851 8.97469 55.268C8.97469 53.9674 9.48364 52.7869 9.87949 51.5852V51.5923ZM28.6047 43.1592C28.1241 42.0494 27.6363 40.9325 27.1486 39.8086C27.2687 40.6498 27.3324 41.498 27.5444 42.318C28.3927 45.5131 28.5906 48.7789 28.6754 52.0588C28.6825 52.3486 28.7461 52.695 28.9228 52.8929C29.559 53.6069 30.2518 54.2713 31.0011 55.0277C31.1071 54.9146 31.2343 54.8368 31.2485 54.7449C31.3262 54.0169 31.7857 53.5857 32.3583 53.1969C32.5915 53.0414 32.7541 52.7515 32.8955 52.49C33.2348 51.8679 33.0581 51.3378 32.3724 50.8147C31.8988 51.0409 32.125 51.458 32.1321 51.7973C32.1462 52.2355 32.1109 52.6172 31.5878 52.7515C31.093 52.8788 30.1457 52.6102 29.9478 52.2426C29.6863 51.7478 30.0892 51.4933 30.3649 51.2035C30.4638 51.0974 30.6335 51.0409 30.7112 50.9207C30.8173 50.7511 30.8597 50.539 30.9304 50.3482C30.6971 50.2987 30.4426 50.1714 30.2376 50.2209C29.8701 50.3199 29.5237 50.539 29.1632 50.7087C29.0713 50.5107 28.9935 50.4188 28.9794 50.3128C28.7108 48.0508 28.4422 45.7888 28.2018 43.5268C28.1947 43.4278 28.4492 43.3006 28.6047 43.1592ZM30.9233 53.925C30.994 54.0734 31.0293 54.2431 31.0788 54.4127C31.0011 54.441 30.9233 54.4693 30.8455 54.4975C30.7749 54.3208 30.7042 54.1441 30.6335 53.9674C30.7324 53.9532 30.9092 53.8967 30.9233 53.925ZM27.1344 39.6884C27.1344 39.7308 27.1486 39.7662 27.1486 39.8086C27.1344 39.7732 27.1203 39.7379 27.1062 39.7025L27.1344 39.6884ZM15.9516 56.802C16.2131 56.5263 16.5312 56.3142 16.6867 56.0103C16.9978 55.4236 17.3159 54.8086 17.4714 54.1724C18.256 50.9349 18.8003 47.662 18.9417 44.3255C19.0124 42.6856 18.5317 41.1163 18.4469 39.4975C18.3479 39.4975 18.249 39.4975 18.1571 39.4834C18.0298 40.3458 17.9096 41.2153 17.7683 42.0777C17.4643 43.8802 17.2098 45.6969 16.8281 47.4782C16.4111 49.4504 15.8456 51.3873 15.4073 53.3595C15.2588 54.0098 15.2659 54.6955 15.2518 55.3599C15.2376 55.8901 15.379 56.3849 15.9587 56.802H15.9516ZM15.5628 54.7944C15.7254 53.5362 15.8668 52.2567 16.2131 51.048C17.0967 47.9094 17.945 44.7709 18.1076 41.491C18.1076 41.4273 18.1641 41.3637 18.2489 41.2082C18.7014 42.3675 18.7155 43.5056 18.6731 44.6366C18.5458 47.9024 17.8672 51.0904 17.125 54.2572C16.9412 55.0277 16.6585 55.7416 15.9869 56.3496C15.4568 55.8406 15.5063 55.2822 15.5699 54.7944H15.5628ZM27.1062 39.7025C27.1062 39.7025 27.1062 39.646 27.0991 39.6177C27.1132 39.6389 27.1274 39.6601 27.1344 39.6813L27.1062 39.6955V39.7025ZM24.6674 37.384C24.6533 36.8326 24.8866 36.5216 25.7065 36.1187C25.7631 36.5357 25.8126 36.9033 25.8762 37.3769C26.1448 37.4193 26.4417 37.4547 26.8941 37.5254C26.7103 37.0659 26.5972 36.7761 26.4841 36.4933C27.2122 36.1045 27.6222 36.1469 27.9473 36.6205C28.3503 37.2002 28.0463 37.9071 27.0143 38.7483C27.0425 39.031 27.0708 39.3208 27.0991 39.6177C26.7951 39.0593 26.4346 38.6634 25.7065 38.5433C25.2046 38.4584 24.6886 38.0626 24.6674 37.384ZM20.1222 38.7907C20.8785 38.5362 21.3734 37.9071 21.3451 37.2214C21.3239 36.6205 20.9068 36.1894 20.1363 35.9137C19.7899 35.7864 19.4577 35.5885 19.1043 35.5107C18.8851 35.4613 18.5388 35.4754 18.4045 35.6168C18.044 35.9773 17.7683 36.4226 17.4431 36.868C17.5279 37.2355 17.5421 37.5819 17.6905 37.8647C18.1076 38.6634 19.2739 39.0876 20.1222 38.7977V38.7907ZM18.2702 36.9316C18.6731 36.5074 19.2103 36.3519 19.8324 36.4933C20.2494 36.6276 20.6877 36.7831 20.7089 37.3416C20.723 37.7586 20.2565 38.2181 19.7334 38.2605C19.1467 38.3029 18.5953 38.1474 18.2772 37.6172C18.1712 37.4405 18.1571 37.0517 18.2772 36.9316H18.2702ZM21.8116 41.0739C21.0129 40.883 20.4261 41.1658 20.2989 41.802C20.1787 42.4311 20.6806 43.0885 21.4158 43.2511C22.059 43.3925 22.5963 43.0319 22.7447 42.3675C22.8861 41.7454 22.5185 41.2506 21.8116 41.081V41.0739ZM22.1368 42.3392C22.0873 42.4947 21.8399 42.6714 21.6632 42.6926C21.1613 42.7492 20.921 42.424 20.8008 41.5122C21.2673 41.6111 21.642 41.6394 21.9601 41.7878C22.0873 41.8444 22.1933 42.1837 22.1439 42.3392H22.1368ZM22.0661 36.2671C22.7094 36.2812 23.19 35.8854 23.2395 35.3058C23.2749 34.818 22.8507 34.3515 22.2358 34.3161C21.8328 34.2949 21.4299 34.4009 20.9916 34.4575C20.7301 35.744 21.0623 36.253 22.0661 36.2671ZM22.7235 35.228C22.0166 35.9278 21.9318 35.9207 21.2956 35.1714C21.7692 34.8321 22.1933 34.719 22.7235 35.228ZM24.6462 47.7539C24.3705 45.0819 24.0948 42.417 23.8192 39.745C23.8545 39.7379 23.8969 39.7308 23.9323 39.7167C24.2857 41.6535 24.7169 43.5762 24.9572 45.5272C25.0421 46.2341 24.6745 46.9975 24.6462 47.7539ZM20.9987 47.8175C21.133 47.2096 21.4582 46.9339 21.8965 47.0824C22.2782 47.2096 22.4054 47.4853 22.3206 47.8741C22.2145 48.3618 21.7833 48.7789 21.4158 48.6941C20.9351 48.581 20.8997 48.2275 20.9987 47.8246V47.8175ZM26.6679 54.3774C26.7174 54.9641 26.7103 55.5579 26.6891 56.1516C26.675 56.5616 26.6255 57.0352 26.1095 57.0918C25.6358 57.1413 25.4026 56.809 25.3319 56.3708C25.5793 56.4697 25.8267 56.5758 26.1872 56.7242C26.6608 55.6144 26.3286 54.5117 26.4205 53.4584C26.5124 53.7624 26.6325 54.0663 26.6608 54.3774H26.6679ZM26.3993 53.3807L26.4276 53.3595C26.4276 53.3595 26.4276 53.4231 26.4276 53.4584C26.4205 53.4302 26.4063 53.4019 26.3993 53.3807ZM21.0906 57.0706C21.2532 57.1695 21.3027 57.5725 21.2532 57.8128C21.232 57.9188 20.8291 58.0461 20.6311 57.9966C20.1929 57.8906 19.9949 57.5442 20.0232 56.8373C20.4403 56.9151 20.822 56.9009 21.0906 57.0706ZM21.2673 53.6069C21.2108 53.9744 21.3309 54.2572 21.7268 54.3632C22.1721 54.4834 22.4832 54.2501 22.5397 53.8613C22.5751 53.621 22.3559 53.3383 22.2923 53.1827C21.6773 53.0202 21.3239 53.211 21.2673 53.5998V53.6069ZM21.854 53.9603C21.7763 53.8684 21.7127 53.7482 21.6915 53.6281C21.6915 53.5998 21.847 53.5362 21.9954 53.4514C22.0449 53.6069 22.1085 53.727 22.1014 53.8331C22.1014 53.8826 21.8752 53.9744 21.8611 53.9532L21.854 53.9603ZM30.0892 48.0084C30.1033 48.0508 30.1175 48.0932 30.1387 48.1356C30.1387 48.171 30.1457 48.2134 30.1528 48.2558C30.1387 48.2204 30.1245 48.1851 30.1104 48.1568C30.1104 48.1144 30.0963 48.0649 30.0892 48.0154V48.0084ZM30.0892 48.0084C29.658 46.8562 29.2197 45.704 28.7885 44.5447C29.2904 45.0678 29.9337 47.0117 30.0892 48.0084ZM23.0416 38.5221C23.1688 38.5857 23.2678 38.9533 23.1971 39.0734C23.1194 39.2007 22.7659 39.3138 22.6528 39.2431C22.363 39.0664 22.1368 38.7836 21.8823 38.5433C21.9459 38.4372 22.0096 38.3383 22.0661 38.2393C22.3983 38.3312 22.7518 38.3665 23.0487 38.5221H23.0416ZM24.8229 53.6069C24.731 53.6139 24.6391 53.6281 24.5472 53.6351C24.4907 53.0838 24.4341 52.5324 24.3776 51.981C24.4483 51.974 24.519 51.9669 24.5897 51.9598C24.6674 52.5112 24.7452 53.0555 24.8229 53.6069ZM25.2683 56.1799C25.0915 55.6922 24.9148 55.2044 24.731 54.7167C24.8229 54.6884 24.9148 54.6672 25.0067 54.6389C25.0915 55.1549 25.1834 55.6639 25.2683 56.1799ZM25.2683 56.1799C25.2895 56.2294 25.3107 56.2859 25.3248 56.3354C25.3248 56.3496 25.3248 56.3566 25.3248 56.3637C25.3248 56.3637 25.3107 56.3637 25.3036 56.3496C25.2965 56.293 25.2824 56.2365 25.2753 56.1799H25.2683ZM26.3851 53.3029C26.3851 53.3029 26.4134 53.3383 26.4276 53.3595L26.3993 53.3807C26.3993 53.3807 26.3922 53.3312 26.3922 53.31L26.3851 53.3029ZM26.2579 52.285C26.3003 52.6243 26.3427 52.9636 26.3851 53.3029C26.1731 53.0131 25.8833 52.7374 26.2579 52.285ZM30.2871 49.3302C30.2447 48.9697 30.1952 48.6092 30.1528 48.2487C30.2871 48.588 30.4285 48.9273 30.5628 49.2666C30.4709 49.2878 30.379 49.3161 30.2871 49.3373V49.3302ZM25.5369 50.5531C25.5369 50.5531 25.551 50.5814 25.5581 50.5956C25.551 50.5814 25.5369 50.5673 25.5298 50.5531H25.5369ZM25.862 51.3095C25.756 51.0762 25.6571 50.8359 25.5581 50.5956C25.7065 50.8076 25.855 51.0126 26.0034 51.2247C25.9539 51.253 25.9115 51.2812 25.862 51.3024V51.3095ZM25.3955 49.3585C25.7702 49.712 25.8338 50.1007 25.5369 50.5461C25.5369 50.5461 25.5227 50.5602 25.5298 50.5461C25.4803 50.1502 25.4308 49.7544 25.3884 49.3585H25.3955ZM25.3814 49.2454C25.3814 49.2454 25.3814 49.2949 25.3814 49.3161C25.3814 49.3302 25.3814 49.3444 25.3814 49.3585C25.3743 49.3585 25.3672 49.3444 25.3602 49.3373C25.3602 49.3373 25.3602 49.2737 25.3602 49.2454H25.3814ZM25.3107 48.4396C25.3531 48.4396 25.4026 48.4396 25.445 48.4396C25.4238 48.7082 25.4026 48.9697 25.3814 49.2454C25.3602 48.9768 25.3319 48.7082 25.3107 48.4396ZM9.63209 58.0461C9.75932 58.0744 9.87949 58.1026 10.0067 58.1238C10.0067 58.145 9.99259 58.1733 9.98553 58.1945C9.85122 58.1521 9.72398 58.1168 9.59674 58.0744C9.61088 58.0602 9.63209 58.039 9.63209 58.039V58.0461ZM16.9766 88.0107C15.0044 87.8269 13.0463 87.5654 10.8903 87.3109C11.5972 86.8444 11.5901 86.8514 12.0213 86.9363C14.2621 87.3745 16.503 87.8411 18.8074 87.5654C20.2918 87.3816 21.7692 87.1766 23.2537 86.9787C23.5859 86.9363 23.9252 86.908 24.2574 86.8726C23.8545 87.0211 23.4587 87.2119 23.0487 87.3038C22.4195 87.4452 21.7763 87.523 21.133 87.629C21.1401 87.7138 21.1542 87.8057 21.1613 87.8905C22.2216 87.7986 23.289 87.735 24.3423 87.6078C24.5402 87.5795 24.7028 87.2897 24.9926 87.014C24.5826 86.9504 24.3988 86.9221 24.2221 86.8938C24.7664 86.6182 25.3177 86.5475 25.9398 86.5899C27.4737 86.7101 29.0077 86.6182 30.5062 86.2223C30.895 86.1163 31.2626 85.9396 31.6302 85.6851C29.2056 85.9749 26.7951 86.1375 24.3635 85.8689C26.8305 85.2185 29.5449 86.0244 31.8281 84.3703C31.2909 84.448 30.7537 84.547 30.2164 84.6106C28.9582 84.7591 27.6999 84.9146 26.4346 85.0135C26.0458 85.0418 25.6429 84.9075 25.24 84.752C27.5444 84.5399 29.8842 84.5894 32.0685 83.317C31.3757 83.112 30.789 83.2393 30.1882 83.317C28.8946 83.4937 27.5939 83.6422 26.2932 83.7412C25.7489 83.7836 25.1834 83.7199 24.7381 83.1827C25.5015 83.2251 26.272 83.317 27.0355 83.2888C27.8554 83.2605 28.6825 83.1757 29.4813 82.9919C30.273 82.8151 31.0293 82.5041 31.7998 82.2426C32.5774 81.981 33.3691 81.7478 34.1325 81.4509C34.8889 81.154 35.6241 80.7935 36.5501 80.3764C36.2461 80.7369 36.0482 80.9631 35.8503 81.1964C35.9704 81.26 36.0553 81.3095 36.2108 81.4014C35.4544 81.8962 34.7263 82.3769 33.7862 82.9919C34.6698 83.1332 35.0444 82.6031 35.5392 82.4546C35.6853 82.9023 35.4073 83.3948 34.7051 83.932C35.0161 83.9462 35.2282 83.9603 35.518 83.9744C34.9455 85.1054 33.7084 85.1903 32.8531 85.8971C33.7225 86.187 34.3941 85.5296 35.207 85.4306C35.1646 85.9325 34.8111 86.0244 34.5284 86.1516C32.1391 87.219 29.658 87.8128 27.0213 87.7209C26.5407 87.7068 26.0388 87.6855 25.5722 87.7704C22.7164 88.3005 19.8394 88.2864 16.9624 88.0178L16.9766 88.0107ZM25.7207 82.7091C25.3248 82.6879 24.936 82.596 24.5402 82.5395C24.5543 82.4546 24.5685 82.3769 24.5826 82.2921C27.2263 82.2708 29.8559 82.2002 32.2028 80.7016C29.8418 81.2105 27.4949 81.7336 24.83 81.154C26.781 80.949 28.5199 80.949 30.174 80.5531C31.8493 80.1431 33.4327 79.3373 35.0939 78.694C34.8323 78.9485 34.5637 79.2101 34.2668 79.4999C35.3625 79.309 35.5816 79.1818 37.0237 77.9377C36.6844 79.4151 36.642 79.5352 35.4685 80.2633C34.2951 80.9914 33.1005 81.6912 31.6443 81.7336C31.3616 81.7407 31.0788 81.9103 30.7961 82.0093C29.149 82.5607 27.4525 82.7869 25.7207 82.7091ZM7.00956 85.0984C7.00956 85.0984 7.00249 85.0842 6.99542 85.0701L7.01663 85.0984H7.00956ZM8.8121 86.4485C8.7909 86.498 8.76969 86.5404 8.74142 86.5899C9.27158 86.8585 9.80174 87.1342 10.3531 87.4099C8.96762 87.325 7.72351 86.5545 6.7056 85.1691C6.80457 85.1479 6.90353 85.1196 7.00249 85.0984C7.24283 85.7487 7.88609 85.7911 8.40918 85.9749C8.84745 86.1304 9.31399 86.187 9.74519 86.4697C9.43416 86.4626 9.12313 86.4556 8.80504 86.4485H8.8121ZM5.58873 78.4184C6.59957 78.6375 7.60334 78.8566 8.68487 79.0899C7.51145 79.4433 6.50768 79.1464 5.58873 78.4184ZM6.82577 83.3524C7.37007 84.0875 8.26074 84.1582 9.00296 84.5117C7.97092 84.5117 7.07318 84.1087 6.23199 83.5503C6.21786 83.5432 6.21786 83.4725 6.23199 83.4513C6.27441 83.4019 6.33803 83.3736 6.38751 83.3312C6.30975 83.2181 6.23199 83.0979 6.04114 82.8293C7.08732 83.1757 7.97799 83.4725 8.98882 83.8118C8.11936 83.9462 7.43369 83.8118 6.81164 83.3524H6.82577ZM7.01663 85.0984L6.99542 85.0701C6.99542 85.0701 7.00956 85.0913 7.00956 85.0984H7.01663ZM6.61371 84.3773C7.53972 84.7803 8.39505 85.1549 9.25744 85.5296C8.7909 85.6709 8.34556 85.5154 7.90023 85.3528C7.60334 85.2539 7.29938 85.162 7.00249 85.0772C6.88939 84.8651 6.76922 84.6601 6.61371 84.3844V84.3773ZM5.64528 76.0644C6.64905 76.2836 7.65989 76.5027 8.93227 76.7784C7.59627 77.0329 6.5925 76.7006 5.64528 76.0644ZM6.42992 75.3293C6.05527 75.2091 5.7089 75.0183 5.34133 74.8627C5.60994 74.8981 5.88562 74.9122 6.14717 74.9759C6.99542 75.1879 7.83661 75.4283 8.67073 75.6474C7.92144 75.8948 7.17214 75.5696 6.43699 75.3293H6.42992ZM5.29891 74.8415C5.29891 74.8415 5.32719 74.8557 5.34133 74.8557C5.32012 74.8557 5.29184 74.8557 5.27064 74.8486C5.27064 74.8486 5.28478 74.8486 5.29184 74.8415H5.29891ZM6.26734 82.1436C7.05904 82.3133 7.83661 82.4829 8.68487 82.6667C7.63868 82.8576 7.44076 82.8151 6.26734 82.1436ZM8.62832 80.3481C7.46903 80.3835 6.61371 80.0725 5.83614 79.408C6.7056 79.6978 7.57507 79.9947 8.62832 80.3481ZM5.41908 77.1955C6.51475 77.4358 7.46903 77.6408 8.42332 77.8458C7.37714 78.0154 6.40164 77.8741 5.41908 77.1955ZM8.4516 81.7407C7.37714 81.7124 6.62078 81.4579 5.99872 80.8147C6.74095 81.0974 7.49024 81.3802 8.4516 81.7407ZM20.6453 84.4551C20.6453 84.4551 20.6453 84.3915 20.6382 84.3632C20.8503 84.4056 21.0623 84.4551 21.2744 84.4975C21.2744 84.5117 21.2744 84.5258 21.2744 84.5399C21.0694 84.5117 20.8573 84.4834 20.6453 84.4551ZM21.2956 77.867C21.1966 77.8458 21.0977 77.8246 20.9987 77.8034C21.1047 77.8104 21.2108 77.8175 21.3168 77.8246C21.3097 77.8387 21.3027 77.8528 21.2956 77.867ZM26.9153 65.2916C26.8658 65.4471 26.8234 65.6026 26.7739 65.7935C28.1241 66.055 29.3682 65.9207 30.5487 65.3694C31.1 65.1078 31.616 65.0583 32.2028 65.3694C30.7537 66.2742 29.9832 66.5145 24.9926 66.67C24.9784 66.9245 24.9714 67.179 24.9572 67.4264C27.0425 67.0941 29.1208 66.6841 31.2202 66.4579C33.0015 66.2671 34.3941 65.4966 35.5675 64.2242C35.6099 64.1818 35.5887 64.0899 35.5958 63.998C35.313 64.104 35.0373 64.203 34.5779 64.3727C35.0232 63.7789 35.3342 63.3547 35.7513 62.8034C35.2918 62.8599 35.0586 62.8882 34.7829 62.9235C35.1434 62.3086 35.4685 61.7572 35.7937 61.2058C34.0477 62.1248 32.3159 62.9023 30.5628 63.6092C29.7004 63.9627 28.7956 64.1959 27.9049 64.4716C27.502 64.5918 27.092 64.613 26.7739 64.2383C26.5619 64.8816 26.3215 65.0583 25.7984 64.8957C25.7277 64.8745 25.7136 64.6695 25.6783 64.5494C24.9431 64.6978 24.215 64.8463 23.3597 65.0159C24.2079 65.5814 24.42 65.5956 26.8941 65.2987L26.9153 65.2916ZM33.8074 63.892C33.8427 63.9768 33.8781 64.0616 33.9134 64.1464C33.4186 64.3585 32.9238 64.5776 32.429 64.7897C32.3936 64.7049 32.3583 64.6271 32.3229 64.5423C32.8177 64.3232 33.3126 64.104 33.8003 63.892H33.8074ZM31.0576 63.7506C31.1566 63.7294 31.2555 63.7153 31.404 63.8142C31.199 63.9061 31.0011 63.998 30.7961 64.0828C30.7466 63.998 30.6971 63.9202 30.6547 63.8354C30.789 63.8071 30.9233 63.7789 31.0576 63.7506ZM29.8559 64.9523C29.8559 65.023 29.8701 65.1007 29.8771 65.1714C28.9158 65.4259 27.9685 65.7511 26.9506 65.2916C27.9191 65.1785 28.8875 65.0654 29.863 64.9523H29.8559ZM35.822 66.0126C35.8785 65.9631 35.9422 65.9278 36.0058 65.8854C36.0128 65.9207 36.027 65.949 36.034 65.9914C34.0124 68.8967 28.5128 70.6851 24.5543 69.6248C25.24 69.3986 25.7277 69.2572 26.3357 69.5541C26.6679 69.7167 27.1415 69.6248 27.5444 69.5894C30.7042 69.3208 33.4045 67.9989 35.822 66.0126ZM34.1325 68.7624C34.9384 68.3807 35.7018 67.9212 36.5501 67.4617C35.0939 69.3137 28.7885 72.1554 25.5581 70.8759C26.3003 70.8477 27.0425 70.8123 27.7848 70.8053C30.1104 70.7699 32.1038 69.7237 34.1325 68.7694V68.7624ZM25.4521 68.522C29.1349 67.9777 32.7683 67.2355 35.9492 65.03C35.1434 66.2671 33.97 67.0729 32.6057 67.391C30.5062 67.8858 28.3573 68.1615 26.2226 68.515C25.9751 68.5574 25.7065 68.522 25.4521 68.522ZM8.43746 62.3934C7.51852 62.0258 6.5925 61.6653 5.52511 61.2412C6.33096 60.8665 6.92474 60.9796 7.568 61.1563C8.23953 61.3401 8.94641 61.3684 9.63915 61.4674C9.63915 61.5381 9.63915 61.6087 9.63209 61.6794C8.97469 61.6512 8.31729 61.63 7.65282 61.6017C7.64575 61.6582 7.63162 61.7148 7.62455 61.7713C7.92851 61.9056 8.22539 62.047 8.52935 62.1813C8.50108 62.252 8.4728 62.3227 8.44453 62.3863L8.43746 62.3934ZM5.46856 64.4787C6.45113 64.6907 7.41955 64.9028 8.48694 65.1361C7.62455 65.4118 6.56423 65.1573 5.46856 64.4787ZM5.26357 66.776C6.19665 66.981 7.12973 67.186 8.31729 67.4405C7.01663 67.695 6.14717 67.2002 5.26357 66.776ZM4.9172 65.8147C5.74425 66.0621 6.50061 66.2883 7.22869 66.5004C6.53595 66.7124 5.97752 66.5569 4.9172 65.8147ZM6.05527 62.4075C6.80457 62.5701 7.55386 62.7327 8.29608 62.8953C7.51852 63.1073 6.79043 62.7539 6.05527 62.4075ZM7.30645 64.0828C6.5925 63.8566 5.87855 63.6234 5.16461 63.3972C5.19288 63.3477 5.22116 63.2982 5.24236 63.2558C5.94217 63.4961 6.64198 63.7294 7.34179 63.9627C7.32766 64.0051 7.32059 64.0404 7.30645 64.0828ZM6.74802 68.4019C7.12973 68.4655 7.51145 68.5079 8.08402 68.5857C6.98129 68.7341 6.92474 68.727 5.67356 68.1757C6.03407 68.2534 6.38751 68.3382 6.74802 68.4089V68.4019ZM21.2673 67.0447C21.7763 67.0659 22.2852 67.0941 22.7942 67.1153C22.2711 67.6102 21.7763 67.1012 21.2673 67.0447ZM22.8154 67.1153C22.8154 67.1153 22.8013 67.1153 22.7942 67.1153C22.7942 67.1153 22.7942 67.1153 22.8013 67.1083C23.5223 67.2214 24.2362 67.3203 24.9572 67.4193C24.2433 67.3203 23.5223 67.2214 22.8083 67.1153H22.8154ZM22.9992 25.2822C21.8328 25.0277 21.2178 25.466 20.8644 26.7949C20.617 27.7209 21.0835 28.4066 22.1297 28.654C23.2607 28.9226 24.1797 28.4419 24.4129 27.4452C24.6533 26.4273 24.0524 25.5084 22.9992 25.2822ZM23.7626 27.318C23.6142 27.8977 23.0345 28.1945 22.3276 28.039C21.6066 27.8835 21.2673 27.4028 21.4299 26.7596C21.5925 26.1446 22.1014 25.876 22.8437 26.0315C23.5576 26.1799 23.9181 26.6818 23.7555 27.3109L23.7626 27.318ZM23.4021 29.9405C23.4516 30.1455 23.2325 30.5272 23.0275 30.6545C22.5044 30.9655 22.1368 30.6898 21.7763 30.096C22.2145 30.195 22.5114 30.2586 22.8013 30.3222C22.8295 30.2798 22.8649 30.2304 22.8861 30.1879C22.7376 30.0466 22.5892 29.8981 22.2994 29.6224C22.8719 29.4316 23.2749 29.4528 23.395 29.9476L23.4021 29.9405ZM23.494 22.5678C23.2961 22.2992 23.0911 22.0305 22.8507 21.7125C23.3668 21.4509 23.805 21.3449 24.1302 21.8821C24.2928 22.1507 24.1655 22.278 23.5011 22.5678H23.494ZM19.7405 23.9815C19.4931 24.4764 19.0972 24.5329 18.5246 24.2077C19.0571 24.0569 19.3211 23.6988 19.3163 23.1333C19.8748 23.2322 19.9596 23.5503 19.7405 23.9815ZM31.8917 74.1135C33.5882 73.5197 35.2494 72.8764 36.6137 71.6323C35.8149 72.5937 35.0656 73.5692 33.9346 74.1912C31.404 75.5767 28.6684 76.0432 25.8338 76.1493C25.5369 76.1634 25.24 76.1351 24.929 76.0362C27.3324 75.5908 29.7923 75.4353 32.1533 74.5588C32.0331 74.3538 31.9624 74.2407 31.8847 74.1064L31.8917 74.1135ZM22.4549 75.0889C22.5821 75.1243 22.7094 75.1526 22.8366 75.1879C22.8366 75.195 22.8366 75.202 22.8295 75.2162C22.7023 75.1738 22.5821 75.1314 22.4549 75.0889Z" fill="white"/>
</svg>
