<svg width="84" height="142" viewBox="0 0 84 142" fill="none" xmlns="http://www.w3.org/2000/svg">
<path d="M64.1051 46.7657C63.6618 45.519 63.5766 44.1185 62.4941 42.8034C62.4941 43.3329 62.4344 43.5634 62.4941 43.7598C63.3635 46.4242 62.6901 48.8579 61.5735 51.3002C60.3716 53.9133 58.5816 55.8261 55.8454 56.7313C54.3111 57.2437 52.7341 57.5938 51.1743 58.0208C49.5547 58.4648 47.9948 58.3453 46.469 57.5938C45.6934 57.2181 44.8495 56.979 44.0227 56.7228C38.4395 54.9722 32.6602 54.0841 26.9236 53.0679C25.0057 52.7348 23.0708 52.5214 20.8631 52.2139C21.3575 51.5052 21.6132 50.9159 22.065 50.5317C25.2359 47.799 29.0376 47.2354 32.9671 47.8503C36.496 48.3882 39.9653 49.319 43.4516 50.1303C46.6395 50.8647 49.8701 50.822 53.0921 50.6597C53.9445 50.617 54.831 50.4206 55.6323 50.1132C57.9423 49.2422 60.2437 48.115 61.0109 45.5958C62.1531 41.8128 61.9315 38.0384 59.9369 34.5116C59.0845 33.0001 58.1213 31.5569 57.2433 30.054C56.9876 29.6184 56.7148 29.1146 56.6807 28.6279C56.5358 26.493 55.6749 24.6314 54.7799 22.7271C53.3053 19.6016 52.8194 16.3481 53.9531 12.9494C54.4986 11.3098 55.0015 9.64458 55.4618 7.9623C55.8965 6.41665 56.3313 4.84539 56.6211 3.25704C56.8768 1.86511 56.2716 0.797669 55.1294 0.225523C54.0554 -0.312464 52.342 0.140128 51.3874 1.28442C50.5435 2.30062 49.657 3.32536 49.0006 4.46111C48.1568 5.91282 47.0316 7.00588 45.6507 7.89398C41.994 10.2253 39.3601 13.4361 37.4251 17.296C36.0357 20.0884 35.6266 22.6588 38.1582 25.0327C38.61 25.4597 39.0958 25.9806 38.7634 26.7065C38.4224 27.4665 37.6808 27.5604 36.9904 27.5177C35.6095 27.4238 34.2201 27.3042 32.8733 27.031C30.5889 26.5442 28.3045 26.4503 25.986 26.5955C19.3884 27.0054 15.6549 32.7354 15.0583 37.2101C14.9304 38.1836 14.973 39.1571 14.9304 40.1049C13.1404 41.087 11.3077 41.9495 9.62852 43.0425C5.93764 45.4421 4.86363 48.5932 6.15927 52.8032C5.82683 52.8971 5.50292 53.0166 5.17049 53.0423C3.94304 53.1362 3.01393 53.8194 2.16153 54.6221C0.959656 55.7237 0.729509 57.4059 1.46257 58.8833C1.67567 59.3188 1.82057 59.8482 1.80353 60.3264C1.76091 61.5988 1.6501 62.8712 1.49666 64.1351C0.917036 68.7805 0.482315 73.4431 0.0561169 78.1057C-0.259269 81.53 0.814749 84.5359 1.77796 87.6272C1.99958 88.3274 2.69854 88.9423 3.29522 89.4632C4.12204 90.1634 5.0682 90.727 5.97174 91.3504C5.87798 93.3572 5.86093 95.3213 5.68193 97.2683C5.05115 103.886 4.284 110.496 3.71289 117.123C3.27817 122.187 3.0736 127.276 2.75821 132.357C2.72411 133.006 2.90312 133.493 3.32931 134.056C4.60791 135.747 6.28713 136.789 8.21354 137.498C11.2481 138.599 14.2996 139.692 17.3427 140.768C17.9394 140.982 18.5616 141.144 19.1839 141.23C20.8375 141.469 22.4997 141.716 24.1704 141.844C26.6338 142.024 29.1569 142.391 31.2623 140.563C31.8931 140.008 32.4642 139.385 33.1972 138.659C33.8365 138.915 34.5696 139.206 35.2941 139.496C34.6122 139.052 33.9218 138.608 33.3762 138.258C35.763 131.998 38.1667 125.876 40.4341 119.71C42.727 113.468 44.9006 107.191 47.0913 101.009C49.0688 100.419 50.9867 99.8216 52.504 98.3699C52.6659 98.2247 52.845 97.9685 53.0154 97.9685C54.4475 98.0197 54.8481 96.9182 55.2572 95.919C56.8938 91.9055 58.5304 87.8748 60.0988 83.8442C61.1814 81.0432 62.1446 78.1996 63.193 75.373C63.3379 74.9802 63.6107 74.4764 63.9602 74.3227C64.8382 73.9555 65.1706 73.2382 65.3325 72.4525C65.7843 70.3006 65.5542 68.3109 63.6448 66.8335C62.8947 66.2614 62.2043 65.6209 61.3433 64.8951C63.3038 63.7252 64.7614 62.393 65.3837 60.4289C65.8696 58.9003 66.1849 57.3035 66.4918 55.7151C66.9436 53.3155 66.3299 51.155 65.0427 49.1056C64.5995 48.3968 64.3864 47.5343 64.0966 46.7401L64.1051 46.7657ZM62.9714 53.196C63.6704 54.3488 63.7471 55.4419 63.4743 56.5776C63.4488 55.476 61.8633 54.6306 62.9714 53.196ZM62.3151 54.605C62.5026 55.7151 62.6475 56.5605 62.7839 57.4145C62.656 57.4145 62.5196 57.4401 62.3833 57.4572C62.2724 56.6118 61.0109 55.8945 62.3151 54.605ZM60.9853 56.2019C62.2895 58.0549 62.2895 59.8312 60.9342 61.3341C60.4909 60.019 60.0733 58.7808 59.6044 57.423C60.0647 57.0131 60.5165 56.6118 60.9853 56.2019ZM55.0697 59.464C55.3425 60.0446 55.6152 60.6339 55.888 61.2145C55.7942 61.3085 55.692 61.4024 55.5982 61.4878C54.7117 61.0779 53.8252 60.6595 52.6319 60.1044C53.578 59.5408 54.2855 59.3786 55.0697 59.4554V59.464ZM58.8543 68.3792C58.4537 69.4893 58.36 69.5406 57.3541 69.1648C57.6695 68.2682 57.9849 67.3715 58.3003 66.4663C59.2123 66.8079 59.3061 67.1324 58.8629 68.3792H58.8543ZM59.7153 67.3288C60.1329 68.9257 59.988 69.4039 58.7606 70.2749C59.1015 69.2246 59.3828 68.3621 59.7153 67.3288ZM57.3882 72.0853C56.8256 71.9572 56.4335 71.6583 57.1496 70.6934C57.5076 71.1118 57.7889 71.4534 58.0701 71.795C57.84 71.906 57.5843 72.1366 57.3882 72.0939V72.0853ZM56.6722 75.484C56.8853 74.6301 57.0558 73.9384 57.2859 73.0332C57.7377 74.1775 57.6866 74.3739 56.6722 75.484ZM56.229 68.8745C56.0414 67.4569 56.5955 66.4749 56.783 65.3562C57.9764 66.2614 57.8485 67.2947 56.229 68.8745ZM56.2034 77.0468C56.2034 77.0468 56.2801 77.0638 56.3227 77.0809C56.2375 77.4225 56.1522 77.7555 56.0755 78.0886C56.0329 78.08 55.9988 78.0715 55.9562 78.063C56.0414 77.7299 56.1182 77.3969 56.2119 77.0553L56.2034 77.0468ZM55.0441 74.2544C54.8452 74.7212 54.4304 75.1111 53.7996 75.4243C53.9445 73.7164 55.0953 70.9154 55.9647 70.1469C56.2972 71.1033 56.2204 71.4705 55.0441 74.2544ZM55.2402 76.3209C55.3425 75.9025 55.4533 75.484 55.5556 75.0571C55.6323 75.0571 55.709 75.0571 55.7942 75.0656C55.8028 75.2279 55.8539 75.4072 55.8113 75.5524C55.7261 75.8512 55.5897 76.116 55.4789 76.3978C55.4021 76.3721 55.3254 76.3465 55.2402 76.3124V76.3209ZM55.2658 79.9502C55.1635 80.3772 55.0527 80.7956 54.9504 81.2311C54.9248 81.2311 54.8992 81.2311 54.8992 81.2311C54.9845 80.7956 55.0868 80.3601 55.1976 79.9416C55.1976 79.9416 55.2487 79.9502 55.2658 79.9587V79.9502ZM49.8786 91.3077C49.7337 90.9234 49.5888 90.7441 49.6314 90.6502C51.268 86.3036 52.9131 81.9826 54.6861 77.2944C54.9078 79.1219 52.0948 87.0465 49.8786 91.3077ZM54.0213 83.2379C53.9104 84.5103 53.9019 84.553 53.2371 85.1678C53.5013 84.5103 53.7655 83.8613 54.0213 83.2379ZM53.1433 85.3984C53.0666 85.9961 52.9813 86.5854 52.8961 87.1831C52.7938 87.1575 52.683 87.1404 52.5722 87.1148C52.7597 86.5427 52.9472 85.9705 53.1348 85.3984H53.1433ZM48.046 87.6101C47.2106 87.3795 47.2532 86.7989 47.4578 86.2523C48.1056 84.4761 48.779 82.6999 49.5036 80.9493C49.6485 80.6077 50.0832 80.3942 50.3815 80.121C50.4838 80.1978 50.5946 80.2747 50.6969 80.3601C49.819 82.7597 48.941 85.1593 48.046 87.6186V87.6101ZM48.6171 90.3684C48.5233 90.8295 48.4295 91.2821 48.2761 92.0592C47.6112 91.2052 47.8499 90.7697 48.1653 90.3427C48.3187 90.3598 48.4636 90.3598 48.6171 90.3684ZM38.1411 102.904C37.7064 101.845 38.4139 99.3092 39.6499 97.4818C40.5193 97.9173 41.4058 98.3784 42.2838 98.8225C41.6786 100.223 41.0648 101.632 40.4596 103.032C40.2466 103.536 40.059 104.049 39.684 104.501C39.2322 103.502 39.8885 102.725 40.2039 101.905C40.5278 101.06 40.937 100.257 41.1842 99.3604C39.8374 100.266 39.9226 102.392 38.1241 102.896L38.1411 102.904ZM27.6908 131.546C27.8016 131.623 27.9209 131.682 28.0317 131.759C27.418 133.57 27.1879 135.525 26.003 137.438C25.6535 136.243 26.0797 134.219 26.9662 132.297C27.1026 131.998 27.4436 131.802 27.6822 131.554L27.6908 131.546ZM28.134 129.684C28.475 130.308 28.5687 130.769 27.6822 131.059C27.4265 130.453 27.4777 130.017 28.134 129.684ZM29.0887 132.442C29.4893 134.133 29.4126 135.705 27.8868 136.866C27.7675 136.687 27.5203 136.456 27.5629 136.319C27.9891 134.996 28.1084 133.553 29.0887 132.442ZM30.7679 123.416C30.6997 124.543 30.7168 125.722 29.3274 126.345C29.3529 125.022 29.8729 124.125 30.7679 123.416ZM30.6571 122.767C30.9384 121.845 31.1771 121.076 31.4157 120.299C32.1232 121.666 32.055 121.947 30.6571 122.767ZM29.7791 126.832C29.4297 127.823 29.1654 128.566 28.9012 129.308C28.2448 127.712 28.2874 127.592 29.7791 126.832ZM29.1057 132.383C29.2421 131.674 28.9267 130.7 30.2821 130.615C30.4781 131.435 30.0349 132.067 29.7024 132.784C29.4552 132.622 29.2847 132.494 29.1143 132.383H29.1057ZM29.8132 130.231C30.0519 127.84 30.7338 126.482 32.038 126.004C31.2538 127.464 31.6374 129.266 29.8132 130.231ZM31.6885 125.372C31.6715 124.586 31.9613 123.721 32.5579 122.776C32.8733 124.074 32.6261 124.808 31.6885 125.372ZM32.413 120.146C32.3534 120.299 31.7737 120.24 31.4157 120.265C31.9272 119.07 32.4471 117.874 32.9671 116.679C33.1887 116.175 33.274 115.551 34.169 115.543C33.8962 117.234 33.0353 118.651 32.4216 120.146H32.413ZM35.0299 116.568C34.8594 118.446 34.0496 120.103 33.1291 121.717C33.291 119.821 34.2201 118.224 35.0299 116.568ZM34.7912 114.006C34.1349 112.725 34.5185 111.367 35.8908 109.77C36.0442 109.915 36.3255 110.112 36.3 110.214C35.9505 111.512 35.601 112.81 34.7912 114.006ZM37.3569 109.796C37.5189 109.855 37.6723 109.915 37.8257 109.966C37.391 111.094 36.9648 112.204 36.5301 113.331C36.4193 113.288 36.317 113.254 36.2062 113.212C36.5813 112.076 36.9648 110.931 37.3484 109.796H37.3569ZM35.9164 109.71C35.8141 109.48 35.5754 109.224 35.6266 109.044C36.0101 107.669 36.4022 106.286 36.9137 104.962C37.1097 104.467 37.6638 104.108 38.1838 103.562C38.4736 105.167 37.0671 108.694 35.9164 109.71ZM38.9594 105.227C39.147 105.27 39.3345 105.321 39.522 105.364C39.2407 106.098 38.9594 106.824 38.6696 107.558C38.5162 107.507 38.3628 107.447 38.2179 107.396C38.465 106.67 38.7122 105.944 38.9594 105.219V105.227ZM29.5064 88.3104C29.208 88.985 28.9012 89.6596 28.6028 90.3342C28.296 91.043 27.8186 91.0857 27.0856 90.5904C27.2987 89.7194 27.5373 88.7886 27.7675 87.8578C27.6567 87.8151 27.5459 87.7638 27.4351 87.7211C26.8128 88.4641 26.8469 89.5657 26.2587 90.4623C25.8411 90.394 25.4149 90.3257 24.8352 90.2232C24.9887 89.3009 25.1251 88.4726 25.2785 87.5247C24.2812 88.1225 24.9887 89.6937 23.3265 90.0012C23.6845 88.5665 23.9743 87.4052 24.3068 86.073C26.9748 86.3292 29.549 87.0209 32.3022 87.9688C31.7482 89.2924 31.2708 90.4452 30.7764 91.6408C30.1627 91.487 29.6768 91.3675 29.0716 91.2138C29.3018 90.2659 29.5319 89.3522 29.7621 88.4299C29.6768 88.4043 29.5916 88.3616 29.5064 88.3274V88.3104ZM20.7523 86.4658C20.471 87.3881 20.1897 88.3189 19.9084 89.2497C19.0645 87.9005 19.8828 86.7305 19.8999 85.2874C21.204 85.4667 22.3633 85.6204 23.6248 85.7827C23.2839 87.149 22.9855 88.3445 22.6531 89.6937C21.9712 89.5827 21.383 89.5059 20.6244 89.3863C20.8205 88.3274 20.9824 87.4479 21.1529 86.5683C21.025 86.5341 20.8887 86.5085 20.7608 86.4744L20.7523 86.4658ZM12.5522 83.1354C12.2539 81.8374 12.4755 80.7785 13.7371 80.0868C14.0269 79.9246 14.2229 79.6172 14.4701 79.378H14.4531C15.3225 78.8828 16.1834 78.3789 17.0529 77.8751C15.7999 77.747 15.1094 78.5924 14.4105 79.3951C13.9672 79.5659 13.5154 79.7367 12.9699 79.9331C12.8591 79.0365 13.021 78.4216 13.72 77.9007C14.436 77.3713 15.0668 76.7223 15.7317 76.1245C15.655 76.0306 15.5782 75.9452 15.5015 75.8598C14.8793 76.3636 14.257 76.8589 13.3194 77.6274C13.3535 75.689 13.5495 74.1519 14.0098 72.2988C14.6747 73.0417 15.1776 73.5968 15.7913 74.2885C15.689 72.5892 13.362 71.7608 14.4701 69.7797C15.5527 70.8044 16.5755 71.7779 17.5984 72.7429C17.6922 72.6489 17.7774 72.555 17.8627 72.4611C16.9506 71.5132 16.0556 70.5311 15.1179 69.6089C14.6321 69.1221 14.3934 68.6012 14.4786 67.9095C14.8111 65.2793 15.1265 62.6492 15.4759 59.7628C16.6693 59.7628 17.8541 59.6945 19.039 59.7885C26.7105 60.4631 34.2372 61.9575 41.6445 64.0497C41.9684 64.1351 42.2753 64.2973 42.7952 64.4937C41.7127 68.2169 40.3318 71.7608 38.9594 75.3132C38.8231 75.3132 38.6867 75.3303 38.5503 75.3389C38.269 74.5959 37.9792 73.853 37.5615 72.7599C37.3399 74.0494 37.7831 74.8009 38.1582 75.5438C38.4906 76.2099 38.627 76.8162 37.8343 77.5591C37.4336 76.7564 37.0671 76.0306 36.7091 75.3047C36.6153 75.3474 36.5131 75.3901 36.4193 75.4328C36.6324 75.9879 36.7347 76.6283 37.0671 77.098C37.7661 78.0886 37.6467 79.0279 37.1779 80.027C37.0842 80.232 37.0074 80.4626 36.9478 80.676C36.5727 81.9655 35.8567 82.8024 34.3735 82.6828C34.2286 82.6657 34.0667 82.7938 33.5126 83.0329C34.4929 83.0415 35.081 83.05 35.8056 83.05C35.4902 84.1516 35.5243 85.2788 34.2031 85.4838C34.4332 85.7485 34.6463 85.9962 35.0469 86.4573C34.4929 86.4744 34.2201 86.5427 33.9814 86.4829C32.1999 86.0132 30.444 85.3557 28.6284 85.0824C26.1735 84.7238 24.213 83.5197 22.3292 82.068C22.7895 82.5718 23.2498 83.0671 23.8209 83.7076C19.9681 83.5112 16.2942 83.3233 12.5437 83.1354H12.5522ZM19.4055 85.2361C19.0816 86.5427 18.8003 87.6784 18.4593 89.0277C17.9138 88.9593 17.266 88.891 16.5073 88.7971C16.6182 87.5333 16.7119 86.406 16.8142 85.1422C17.6751 85.1764 18.4508 85.1934 19.4055 85.2361ZM16.4392 85.2105C16.2857 86.2694 16.1664 87.1661 16.0215 88.0627C15.9959 88.225 15.9021 88.3701 15.7999 88.6178C15.4845 88.5665 15.1691 88.5238 14.777 88.4726C14.794 87.3881 14.8026 86.3804 14.8196 85.0824C15.4248 85.1337 15.9021 85.1593 16.4392 85.2105ZM14.3849 85.1422C14.3082 86.1072 14.257 86.9611 14.1718 87.8065C14.1547 88.0115 14.0269 88.2079 13.9416 88.4214C13.0381 88.0285 13.0466 88.0285 13.2171 86.0815C13.2682 85.4582 13.3194 84.9116 14.3849 85.1507V85.1422ZM10.8901 91.8372C10.2422 91.4273 9.95243 91.7859 9.7308 92.4349C9.09151 94.2965 8.69088 96.2008 8.5545 98.1649C8.51188 98.8139 8.35845 99.4629 8.24764 100.129C7.96634 100.061 7.90668 100.052 7.85553 100.027C7.80439 100.009 7.72767 99.9668 7.72767 99.9668C7.77029 96.8498 7.82144 93.7671 7.88111 90.5392C9.70523 90.6416 11.4441 90.7441 13.0722 90.838C12.7994 93.7415 12.5522 96.4656 12.2709 99.1811C12.2454 99.4202 11.9897 99.6166 11.8106 99.8301C10.7111 99.907 10.8815 99.0616 10.873 98.4296C10.856 96.2521 10.8815 94.0745 10.8901 91.8457V91.8372ZM8.68236 58.9345C8.06863 58.9857 7.92373 58.5332 7.82996 58.0635C7.59982 56.9448 7.87258 55.8603 8.46073 54.938C9.02332 54.0499 9.95243 54.3915 10.7792 54.4854C9.7649 55.4077 9.23641 56.552 9.29608 57.9439C9.32165 58.4392 9.32165 58.8918 8.67383 58.9345H8.68236ZM11.0009 65.8344C9.31313 64.0924 9.84161 62.282 10.3871 60.4972C10.2252 62.2564 11.6743 63.8276 11.0009 65.8344ZM8.92103 83.2037C8.89546 83.0842 8.86988 82.9817 8.84431 82.8622C9.30461 82.5547 9.77342 82.2302 10.2422 81.9057C10.7281 81.8033 11.2225 81.7008 11.8874 81.5642C11.8618 82.0765 11.8362 82.5462 11.8106 83.1696C10.7622 83.1867 9.84161 83.1867 8.92103 83.1952V83.2037ZM10.6429 88.3274C10.4724 88.3445 10.3019 88.3445 10.1314 88.353C9.99505 87.3283 9.86719 86.3036 9.73933 85.313C10.1655 84.9116 10.7452 84.6981 10.8645 85.2618C11.0605 86.278 11.1714 87.3625 10.6514 88.3274H10.6429ZM9.08298 88.1054C8.67383 87.1234 8.29026 86.1413 8.85284 84.8519C9.43246 86.0559 9.31313 87.0721 9.08298 88.1054ZM10.157 79.7282C10.7792 79.472 11.4185 79.2414 12.109 78.9767C12.3988 80.0783 12.0919 80.7529 11.1969 81.214C10.8645 81.3848 10.5917 81.641 10.2934 81.863C9.85866 81.9057 9.41542 81.9484 8.97217 81.9997C8.84431 80.2747 8.84431 80.2661 10.1655 79.7282H10.157ZM12.4244 85.0995C12.9529 86.1328 12.5863 87.1234 12.467 88.1139C12.4414 88.3189 12.2368 88.4982 12.0408 88.7971C11.1458 87.1319 11.8703 86.1242 12.4244 85.0995ZM10.7537 78.9681C10.2763 79.1219 9.80752 79.2585 9.15117 79.4549C9.49213 75.5694 10.5065 72.0512 11.2992 68.1742C12.6375 69.8224 13.8564 71.1118 13.2171 73.2296C12.9017 74.2629 12.7994 75.3816 12.7398 76.4746C12.663 77.8324 11.9726 78.5924 10.7537 78.9681ZM11.8277 66.1504C12.4244 67.3715 14.0013 68.1572 13.4302 69.8992C12.6289 68.772 11.2992 67.8753 11.8277 66.1504ZM12.4158 61.1889C12.2965 61.1889 12.1857 61.1889 12.0664 61.1889C11.8788 61.6501 11.6828 62.1197 11.4953 62.5809C11.393 62.5809 11.2907 62.5723 11.1884 62.5552C11.1287 61.8635 11.0691 61.1719 10.9923 60.3094C12.3136 60.1727 13.4984 60.0532 14.8878 59.908C14.7258 62.5552 14.4701 65.0915 13.8905 67.8327C11.751 65.8003 11.8192 63.5544 12.4244 61.1804L12.4158 61.1889ZM10.6599 67.8754C10.2763 69.6174 9.91833 71.368 9.56885 73.1271C9.22789 74.818 8.93808 76.5173 8.58859 78.2081C8.46926 78.7888 8.56302 79.4805 7.71063 80.0783C7.71063 77.4652 8.39254 75.1852 8.71645 72.8539C9.04889 70.4628 9.3387 68.0718 9.68818 65.3733C10.5321 66.2102 10.873 66.9189 10.6599 67.8668V67.8754ZM8.10273 80.9151C8.02601 81.4531 7.9493 81.9911 7.87258 82.5377C7.11395 81.9057 7.35262 81.3507 7.65948 80.8041C7.80439 80.8383 7.9493 80.881 8.0942 80.9151H8.10273ZM9.38985 62.06C8.79317 61.522 8.63974 60.984 8.92103 60.3862C8.9807 60.2581 9.38132 60.2923 9.84161 60.224C9.64556 61.0011 9.53475 61.4622 9.38132 62.06H9.38985ZM8.9466 62.8968C9.03184 63.4348 9.24494 63.9984 9.16822 64.5108C8.42664 69.5918 7.63391 74.6728 6.84971 79.7452C6.82414 79.9075 6.69628 80.0441 6.50022 80.1722C6.57694 74.3483 7.89815 68.6866 8.44369 62.9395C8.61416 62.9225 8.78464 62.9224 8.9466 62.9054V62.8968ZM7.55719 100.932C7.65948 100.932 7.75325 100.915 7.85553 100.915C7.95782 101.085 8.14535 101.282 8.13682 101.461C7.98339 103.946 7.79587 106.44 7.59129 109.258C7.14805 108.839 6.86676 108.686 6.87528 108.549C7.07985 106.013 7.32705 103.468 7.55719 100.932ZM8.17944 118.088C8.6994 119.753 7.80439 121.273 7.69358 122.87C7.71063 121.264 7.42934 119.625 8.17944 118.088ZM8.17944 118.019C8.17092 116.141 8.1283 114.279 8.17944 112.426C8.23911 110.026 8.3414 107.627 8.46926 105.227C8.5545 103.587 8.6994 101.956 8.81022 100.325C9.19379 100.325 9.5859 100.325 10.0632 100.351C10.1485 100.778 10.2934 101.162 10.2763 101.529C10.1144 104.552 9.99505 107.575 9.69671 110.59C9.46656 112.972 9.01479 115.329 8.63121 117.695C8.61417 117.823 8.3414 117.917 8.17092 118.019H8.17944ZM8.81022 100.308C9.03184 98.6858 9.23641 97.0633 9.47508 95.4408C9.57737 94.7064 9.75637 93.9977 10.1655 93.2889C10.1826 95.3042 10.2422 97.3281 10.2081 99.3519C10.1996 100.206 9.38984 100.146 8.81022 100.308ZM51.7368 79.7965C51.984 79.3524 52.4528 79.045 52.8194 78.6778C52.9472 78.7632 53.0666 78.8486 53.1944 78.934C51.8136 82.5035 50.4327 86.0815 49.0603 89.651C48.4295 88.336 50.177 82.606 51.7283 79.7879L51.7368 79.7965ZM50.194 79.5488C50.2281 78.6693 50.4156 78.0373 51.4555 77.8324C51.5237 78.8059 51.2254 79.3695 50.194 79.5488ZM52.7 78.1398C52.5807 77.1151 53.0666 76.6881 54.0127 76.2867C53.9872 77.3713 53.5354 77.8239 52.7 78.1398ZM52.3335 76.3978C52.1886 76.7308 51.7198 76.9272 51.4044 77.1919C51.2851 77.1065 51.1657 77.0126 51.0464 76.9272C52.0693 74.3739 53.0921 71.8035 54.0809 69.31C54.9333 69.31 55.1379 69.6686 54.9163 70.2066C54.0809 72.2817 53.2371 74.3483 52.325 76.3978H52.3335ZM53.0154 70.5568C52.2568 72.3671 51.3447 74.1177 50.7395 75.9793C50.177 77.7128 49.0433 78.3021 47.185 78.4045C48.2932 74.9461 50.015 71.906 51.2084 68.6439C49.0859 71.7608 47.8584 75.3645 45.8809 78.5839C46.7162 74.8777 48.5915 71.6071 49.9042 68.0888C47.6965 71.3338 46.273 74.9717 44.5682 78.6522C43.8351 78.4729 43.1106 78.285 42.2071 78.063C43.7158 74.5532 45.1734 71.1801 46.631 67.807C46.5543 67.7558 46.4776 67.7046 46.4094 67.6533C46.2048 67.9266 45.9491 68.1657 45.8212 68.4646C44.662 71.0435 43.5283 73.6395 42.3861 76.227C42.1389 76.7906 41.8405 77.3371 41.4996 78.0373C40.8262 77.5933 40.2977 77.2602 39.7948 76.8845C39.3174 76.5429 39.1896 76.1074 39.4027 75.5267C40.6301 72.0426 41.8405 68.5585 43.0595 65.0659C43.0935 64.9719 43.2044 64.8951 43.4516 64.6218C46.8867 65.6124 50.1258 67.3374 53.7059 68.7293C53.4587 69.4125 53.2711 69.9931 53.0325 70.5568H53.0154ZM46.3241 81.103C46.2048 79.2158 46.9038 78.8401 49.3757 78.618C49.3842 79.5659 49.0007 80.2235 48.1397 80.6077C47.7988 80.7529 47.4834 80.9408 47.151 81.1201C46.8697 81.1201 46.5969 81.1116 46.3156 81.1116L46.3241 81.103ZM38.7975 88.6178C39.4197 86.8501 38.8912 84.6128 41.3973 83.8527C41.0478 83.9211 40.6983 83.9808 40.0846 84.1004C40.4767 82.1448 41.3206 80.5138 42.0025 78.7717C42.7952 78.9682 43.4516 79.1304 44.2954 79.3439C43.6391 81.1713 42.9913 82.7597 42.4969 84.4078C41.994 86.0559 41.6445 87.7467 41.1671 89.6681C40.2636 89.2668 39.6158 88.9764 38.7975 88.6178ZM42.352 92.5801C42.0707 93.306 41.8064 93.6134 41.1586 93.0412C40.8262 93.5621 40.5023 94.0745 40.1698 94.6125C40.221 93.5707 40.2636 92.6143 40.3062 91.5639C40.9029 91.8542 41.6019 92.2129 42.352 92.5716V92.5801ZM40.579 80.4369C38.4565 79.1219 38.2264 78.6436 39.0447 76.9784C39.8544 77.525 40.5449 78.0117 41.3888 78.5753C41.116 79.2158 40.8518 79.8136 40.5875 80.4455L40.579 80.4369ZM33.6064 88.131C33.2654 89.5059 33.0097 90.5135 32.7114 91.7432C33.8792 91.0601 33.6575 89.7279 34.3565 89.0106C35.439 89.6084 35.2771 90.2403 33.5297 92.3495C32.8989 92.1958 32.2511 92.0336 31.6203 91.8713C31.7993 90.1976 32.3789 88.9764 33.6149 88.131H33.6064ZM35.959 89.54C36.2573 89.8389 36.7262 90.2061 36.675 90.2915C36.2062 91.1967 35.6692 92.0506 35.1151 92.9046C35.081 92.9558 34.7316 92.8192 34.3395 92.7167C34.9276 91.5724 35.3879 90.6672 35.959 89.5486V89.54ZM35.2259 87.0465C34.9702 85.7741 35.8226 85.5606 36.5386 85.2361C36.0783 85.1507 35.763 84.9458 35.942 84.4249C36.1806 83.7417 36.2403 82.9049 37.1524 82.6999C37.8257 82.5547 38.4991 82.4352 39.1725 82.3071C38.5077 82.2388 37.8343 82.1875 36.8966 82.1021C37.2887 81.0945 37.6382 80.1893 38.0729 79.0706C38.9424 79.8392 39.6414 80.4626 40.417 81.1628C39.9226 81.6239 39.5646 81.957 39.2066 82.3071C39.3771 82.4693 39.7181 82.6572 39.701 82.7938C39.5987 83.7417 39.2663 84.5786 38.3372 85.0226C38.5162 85.2618 38.7804 85.4838 38.8401 85.7485C38.8998 85.9961 38.7549 86.3121 38.6781 86.5939C38.5332 87.0807 38.3713 87.5589 38.1497 88.2677C37.0842 87.8151 36.1124 87.4222 35.2259 87.0465ZM37.5274 90.4281C37.7064 90.5392 37.8769 90.6416 38.0559 90.7612C37.8087 91.0942 37.57 91.4273 37.3228 91.7603C37.2205 91.692 37.1183 91.6322 37.0074 91.5724C37.1779 91.1882 37.3569 90.8039 37.5274 90.4281ZM38.9168 91.043C39.0191 91.1113 39.1214 91.2052 39.2237 91.2736C38.9424 92.3325 38.2178 93.0156 37.3569 93.6048C37.2632 93.528 37.1694 93.4597 37.0756 93.3743C37.6894 92.5886 38.3031 91.8115 38.9253 91.0344L38.9168 91.043ZM42.0451 95.902C42.4031 94.5783 43.4516 94.177 44.3807 93.6219C44.5 93.7756 44.6193 93.9379 44.7302 94.1087C43.8351 94.7064 42.9401 95.3042 42.0451 95.902ZM42.369 90.394C41.7979 89.0362 42.4116 86.4914 43.6306 85.0226C43.4601 87.0294 42.9231 88.5665 42.369 90.394ZM44.5852 82.2388C44.6193 83.2294 44.4744 83.9552 43.6391 84.7921C43.5027 83.6136 43.5709 82.8451 44.5852 82.2388ZM44.5597 81.5898C44.6364 80.7273 44.6961 79.8477 45.7019 79.1389C45.736 80.3259 45.5399 81.1286 44.5597 81.5898ZM45.2586 83.8698C45.6763 85.2617 47.0572 86.2523 45.8212 87.8407C44.9006 86.6451 43.9715 85.6204 45.2586 83.8698ZM45.9491 84.2626C45.1308 82.4779 45.199 82.2815 46.9379 81.3592C47.0146 81.3165 47.0742 81.2226 47.1339 81.1543C47.509 81.1372 47.9011 81.1201 48.5489 81.0774C47.9693 82.6145 47.4408 84.015 46.9123 85.4069C46.7503 85.4411 46.5798 85.4838 46.4094 85.5265C46.2559 85.108 46.1451 84.6725 45.9576 84.2626H45.9491ZM47.0146 87.9944C47.7817 88.8056 47.4578 89.4803 46.989 90.3513C46.2218 89.4205 46.452 88.78 47.0146 87.9944ZM49.2393 91.7176C49.8189 92.341 49.8019 92.6996 48.9069 93.0498C49.0347 92.5459 49.12 92.1958 49.2393 91.7176ZM54.8481 67.9437C55.1379 66.7652 55.3936 65.7661 55.6323 64.7841C56.2972 65.843 56.0841 66.9702 54.8481 67.9437ZM30.0008 56.0396C33.5723 56.6972 37.1097 57.517 40.6472 58.3624C44.9347 59.3871 48.941 61.1804 52.8961 63.0676C55.2999 64.2034 55.3339 64.4937 54.0042 67.0299C54.0724 66.2785 54.1491 65.5099 54.2429 64.4937C53.4757 65.3135 53.8252 66.4407 52.6915 66.8848C52.7086 66.0564 52.7256 65.3733 52.7427 64.6901C52.683 64.6901 52.6233 64.6901 52.5637 64.6645C52.3506 65.2281 52.1289 65.7917 51.9244 66.3297C50.7651 66.509 50.2707 65.322 49.1541 65.3135C48.1397 65.3135 47.1424 64.5193 46.1196 64.1351C45.0882 63.7593 44.0397 63.4348 42.9913 63.1274C41.9428 62.8114 40.8773 62.5382 39.8204 62.2478C38.7634 61.966 37.7064 61.6671 36.6409 61.4195C35.5158 61.1719 34.3735 60.9925 33.2399 60.779C32.1658 60.5656 31.1004 60.3094 30.0263 60.113C28.9523 59.908 27.8698 59.7201 26.7872 59.5579C25.7047 59.3871 24.6221 59.2419 23.5311 59.0968C22.44 58.9601 21.3575 58.8064 20.2664 58.7125C19.1753 58.6185 18.0758 58.5844 16.9847 58.5673C15.9021 58.5502 14.8111 58.5929 13.4728 58.61C13.6774 57.5597 13.8564 56.6288 14.078 55.5016C13.9587 55.8603 13.8905 56.014 13.8479 56.1762C13.1148 59.0028 12.9955 59.0797 9.84161 58.6527C9.25346 57.0729 10.2252 55.8176 10.7707 54.4769H10.7878C13.6603 54.4598 16.5414 54.2719 19.3884 54.5111C22.9429 54.8185 26.4804 55.3992 29.9922 56.0396H30.0008ZM53.0154 1.3442C52.8393 2.05582 52.396 2.48279 51.6857 2.62512C51.626 2.51411 51.5834 2.39455 51.5237 2.28354C51.9414 2.01882 52.3591 1.75409 53.0069 1.3442H53.0154ZM52.7938 3.18019C52.9075 3.94874 52.1886 4.44403 50.6373 4.66606C51.1089 3.92028 51.8278 3.42499 52.7938 3.18019ZM52.5637 4.84539C52.1545 5.81889 51.5834 6.10069 49.6314 6.2971C50.3389 5.12719 51.4896 5.15281 52.5637 4.84539ZM52.2483 5.96406C51.9585 7.33892 51.3959 7.67196 47.4749 8.87603C48.6256 7.23644 50.5009 6.87779 52.2483 5.96406ZM51.3021 8.32096C50.0491 10.063 47.9437 10.1655 46.273 11.0878C46.81 10.0374 48.7876 8.92726 51.3021 8.32096ZM49.4354 10.5156C48.8728 11.4094 47.3157 12.4114 44.7642 13.5215C45.0711 12.3004 46.8185 11.139 49.4354 10.5156ZM44.8495 10.1484C44.9688 10.2423 45.0967 10.3192 45.2075 10.4131C44.9688 10.7718 44.7216 11.1305 44.4744 11.4891C44.338 11.3952 44.2102 11.3012 44.0738 11.2073C44.3295 10.8572 44.5852 10.5071 44.841 10.1569L44.8495 10.1484ZM47.8755 12.7017C47.5004 15.0501 45.2757 15.144 43.8437 16.4249C43.8778 14.7085 45.2927 13.4788 47.8755 12.7017ZM45.6934 21.6938C46.4861 23.5469 46.3582 23.7262 43.3237 25.1864C42.7611 22.8637 44.9603 22.932 45.6934 21.6938ZM43.1447 22.5648C43.9033 21.5657 44.8154 20.7801 46.0343 20.2506C45.9235 21.301 45.378 21.745 43.1447 22.5648ZM43.1788 21.5315C42.906 19.5931 43.8437 18.5854 46.4264 17.7913C46.5117 20.1567 44.2358 20.1225 43.1788 21.5315ZM43.1788 18.5256C43.5283 16.5872 45.4035 16.3993 46.6992 15.2721C46.6992 16.3082 45.5257 17.3927 43.1788 18.5256ZM43.0765 13.4105C43.0254 12.9067 42.9657 12.4114 42.906 11.9161C43.7158 12.3516 43.5965 12.864 43.0765 13.4105ZM39.4368 17.0227C40.2636 18.3634 40.6131 19.8578 40.7324 21.4291C40.1613 20.003 39.3089 18.6708 39.4368 17.0227ZM38.8912 18.1499C39.5305 20.3019 40.1016 22.3001 40.758 24.2898C40.9796 24.9559 41.4484 25.5366 41.8064 26.16C41.4996 24.9644 41.2524 23.8372 41.4825 22.4965C41.6956 21.2754 41.1075 19.909 40.8091 18.6281C40.6216 17.851 40.2721 17.0996 40.0675 16.3139C39.9994 16.0577 40.1443 15.7418 40.5193 15.4258C40.8006 16.5616 41.0904 17.6973 41.3717 18.8331C41.491 18.816 41.6019 18.8075 41.7212 18.7904C41.4825 17.1849 41.2439 15.5795 41.0137 13.9741C41.133 13.9399 41.2439 13.9058 41.3632 13.8716C41.5081 14.1193 41.7553 14.3669 41.7894 14.6231C41.9428 15.9894 42.1048 17.3557 42.1559 18.7221C42.2241 20.8996 42.0451 23.0857 42.4969 25.2377C42.5992 25.733 42.531 26.2624 42.5395 27.0651C42.1985 26.7577 42.0366 26.6125 41.8746 26.4759C41.8491 26.937 41.8235 27.3982 41.7979 27.8508C41.7127 29.2769 41.0308 29.6526 39.505 29.1317C41.0137 27.0224 41.0308 27.0224 40.0846 24.3752C39.5902 23.0003 39.0447 21.634 38.5247 20.2677H38.5418C38.3826 19.4479 38.502 18.7391 38.8998 18.1414L38.8912 18.1499ZM37.9025 20.1311C38.0985 20.1823 38.3031 20.2335 38.4991 20.2762C38.6867 21.301 38.8742 22.3086 39.0702 23.3932C37.5871 22.4794 37.391 21.9158 37.9025 20.1225V20.1311ZM17.0699 37.304C17.283 36.433 17.4194 35.801 17.6069 35.1777C17.6837 34.9129 17.8797 34.6738 18.0161 34.4176C20.0789 30.4297 23.3436 28.4144 27.8186 28.6108C30.1116 28.7133 32.4045 29.0378 34.6889 29.3366C36.3937 29.5587 38.107 29.4904 39.8033 30.0113C41.2098 30.4468 42.5992 29.4733 42.9401 27.7398C43.3066 25.8952 44.5852 25.1096 46.2218 24.1446C46.5713 26.6125 47.5004 28.8243 46.827 31.2153C46.1451 33.6491 44.7387 35.4168 42.3179 36.2963L42.3775 36.2622L42.3264 36.2365V36.2792C41.8064 36.4842 41.295 36.6806 40.775 36.877C41.0649 35.4509 41.6019 34.0419 41.0478 32.4109C40.8347 32.7866 40.7068 33.0172 40.579 33.2563C40.1443 33.1196 39.9056 33.2392 39.7522 33.7345C39.4453 34.7251 39.0021 35.6815 38.7122 36.6721C38.3883 37.7651 37.6894 38.286 36.5898 38.3714C36.0272 38.4141 35.4646 38.491 34.5952 38.5849C35.4049 37.0051 36.0954 35.6559 36.7858 34.2981C36.675 34.2383 36.5642 34.1785 36.4534 34.1102C35.3794 35.4338 34.706 37.0222 33.9814 38.6532C33.112 38.6788 32.2767 38.7045 30.981 38.7301C31.8419 37.5516 32.4727 36.6977 33.095 35.8352C32.933 36.5013 32.7625 37.1674 32.6006 37.8334C32.7199 37.8676 32.8392 37.9017 32.95 37.9359C33.3933 36.9026 34.3139 36.0658 34.1775 34.5201C33.6916 35.1008 33.3762 35.4765 33.0523 35.8694C33.1461 35.6217 33.2399 35.3741 33.4274 34.8788C32.2511 35.3484 32.0465 36.3305 31.4413 36.9368C30.9128 37.4662 31.1771 38.7984 29.5916 38.5337C30.2991 37.3894 30.9299 36.3646 31.5606 35.3399C31.4498 35.263 31.339 35.1947 31.2282 35.1264C30.5804 36.0401 29.8644 36.9112 29.2933 37.8761C28.8586 38.6105 28.3556 38.7728 27.3754 38.4654C28.134 37.3296 28.8074 36.3134 29.6001 35.1179C28.6028 35.6815 28.5346 35.8181 27.6908 36.8599C27.2134 37.4492 27.1026 38.4654 25.6706 38.7215C26.4292 37.3808 27.0003 36.3646 27.5629 35.357C27.4436 35.2887 27.3242 35.2204 27.2049 35.152C26.523 36.2451 25.8411 37.3296 25.0483 38.602C24.7074 38.6447 24.1533 38.6959 23.2242 38.7899C23.8635 37.7053 24.3323 36.9026 24.8097 36.1085C23.7868 36.6294 23.7186 36.6294 23.0196 38.0298C22.6616 38.7642 22.2781 39.1656 21.187 38.8069C21.8348 37.8676 22.4144 37.0222 23.0111 36.1682C21.9115 36.5696 21.2893 37.4406 20.7523 38.3629C20.3346 39.0717 19.8828 39.5669 18.7662 39.1571C19.2862 38.2519 19.7805 37.3979 20.4113 36.3049C19.2435 36.9709 18.8003 37.8676 18.357 38.7813C18.1098 39.2937 17.9053 39.8915 16.9421 39.4047C17.3512 38.491 17.7604 37.5687 18.2718 36.4159C17.8371 36.7233 17.5814 36.9026 17.0444 37.2869L17.0699 37.304ZM40.579 35.3741C40.6046 35.8779 40.7068 36.3817 40.775 36.8856C40.775 36.8856 40.7665 36.8856 40.758 36.8856C40.3062 37.1588 39.863 37.4321 39.4112 37.7139C39.3089 37.6285 39.1981 37.5516 39.0958 37.4662C39.5902 36.117 40.0846 34.7592 40.5705 33.4014C40.5705 34.0675 40.5449 34.7165 40.5705 35.3655L40.579 35.3741ZM9.3728 46.39C11.6572 44.1527 14.4701 42.8205 17.5814 42.163C21.8945 41.2578 26.2502 40.8991 30.6656 41.1382C35.3368 41.3859 39.701 40.327 43.7584 37.9188C47.5772 35.6559 49.6399 31.3776 48.583 26.9883C47.7391 23.4956 47.9096 19.9944 48.4125 16.4676C48.7279 14.2217 49.9042 12.3687 51.0549 10.49C52.4869 8.15871 53.7229 5.76765 53.8167 2.94108C53.8252 2.52265 54.0724 2.09567 54.2088 1.67724C55.2231 1.71139 55.3766 2.32624 55.3169 2.99232C55.2487 3.67548 55.0527 4.3501 54.8992 5.02472C54.2599 7.9623 53.5098 10.8743 53.0069 13.8289C52.3761 17.5436 52.8961 21.096 54.456 24.6058C55.9391 27.9362 56.0329 31.5911 55.3936 35.1777C55.0356 37.2357 53.7314 38.9094 52.1289 40.1647C49.2137 42.4533 46.0002 44.1954 42.1303 43.8709C40.4256 43.7257 38.7549 43.1877 37.0586 42.8376C36.0016 42.6241 34.9447 42.4191 33.8365 42.385C34.5099 43.2902 35.5158 43.5122 36.4534 43.794C38.3798 44.3832 40.3147 45.1432 42.2923 45.3226C47.2873 45.8008 51.2169 43.5122 54.4986 39.9598C55.7772 38.5764 56.6381 36.9539 56.9109 35.0496C56.9706 34.6567 57.0984 34.2639 57.2859 33.5125C58.2832 34.8958 58.9822 36.1426 59.1015 37.5345C59.2635 39.473 59.2294 41.4542 59.1186 43.4012C59.0248 45.1347 57.8997 46.1936 56.2886 46.9792C55.7772 45.2457 56.0926 43.367 54.9078 41.7445C55.368 45.1432 55.226 47.2041 54.4816 47.9271C54.5838 46.0399 54.5156 44.5284 53.4672 42.8803C53.6888 44.3491 53.9701 45.4592 54.0127 46.5864C54.0554 47.9015 53.757 48.0979 52.1716 48.2772C52.0181 47.1159 51.8647 45.9459 51.7027 44.7931C51.1061 45.9801 52.0267 47.3891 50.9185 48.448C50.4156 47.4404 50.6713 46.2619 49.7081 45.2372C49.8616 46.3985 49.998 47.3464 50.1514 48.4736C49.4695 48.5505 48.9325 48.6103 48.3443 48.6786C48.0715 47.7905 47.8329 47.0475 47.5942 46.2875C47.5175 46.2961 47.4322 46.3131 47.3555 46.3217C47.4322 47.0305 47.509 47.7307 47.6112 48.6444C46.9293 48.6444 46.3412 48.6444 45.736 48.6444C45.5229 47.91 45.3524 47.3379 45.1904 46.7487C45.1052 46.7487 45.0285 46.7487 44.9432 46.7657C44.9092 47.2952 44.8751 47.8161 44.8495 48.337C42.8464 48.5334 42.5906 48.4053 42.1389 46.8511C41.9343 47.2866 41.7809 47.6111 41.6274 47.9271C40.5591 47.8873 39.863 47.4831 39.5391 46.7145C38.8742 48.1491 37.8002 47.1671 36.8711 47.244C36.7091 46.8084 36.5727 46.4412 36.3596 45.8606C36.1977 46.3302 36.1039 46.6035 36.0101 46.8853C35.0327 46.9308 34.2855 46.2676 33.7683 44.8956C33.7087 45.3909 33.6746 45.6044 33.6661 45.8264C33.6661 46.0484 33.6831 46.2619 33.6916 46.4498C32.5239 46.9707 32.2596 46.0911 31.876 45.2628C31.6629 46.074 31.4754 46.7828 30.3929 46.3729C30.2821 45.9801 30.1542 45.5275 29.9155 44.6906C29.7109 45.5275 29.5916 45.9886 29.4552 46.5523C28.8841 46.5864 28.3301 46.6206 27.7163 46.6462C27.5118 45.8606 27.3413 45.1859 27.1623 44.5113C27.0685 44.5284 26.9662 44.5455 26.8725 44.554C26.8725 45.2201 26.8725 45.8776 26.8895 46.6889C26.0883 46.9451 25.2273 47.2354 24.2727 47.5514C23.9914 46.5266 23.7357 45.5702 23.4714 44.6138C23.3436 44.6394 23.2242 44.665 23.0964 44.6906C23.2583 45.741 23.4117 46.7828 23.5993 48.004C23.139 48.3028 22.6787 48.6017 22.065 49.0031C21.5024 47.6795 21.0591 46.6206 20.6074 45.5531C20.4966 45.5958 20.3857 45.6385 20.2664 45.6812C20.5136 46.4327 20.7182 47.1842 21.008 47.9015C21.3319 48.7213 21.3404 49.3959 20.667 50.0961C20.1215 50.6683 19.772 51.4283 19.2947 52.1712C18.1354 52.1456 16.9335 52.1285 15.7402 52.1029C14.7088 50.6597 13.7115 49.2678 12.7142 47.8673C12.6119 47.9356 12.5011 47.9869 12.3988 48.0552C12.6971 48.7213 13.2341 49.2763 13.6433 49.8827C14.0439 50.506 14.4445 51.1209 14.8963 51.8297C14.0354 52.2737 13.5069 52.1456 12.9614 51.5308C11.9215 50.3779 10.8133 49.2849 9.64556 48.2345C10.2422 49.7119 11.6402 50.6341 12.5863 51.9236C10.4298 52.5811 10.3275 52.5555 9.1256 51.0013C7.58277 49.0202 7.56572 48.1491 9.35575 46.39H9.3728ZM9.41542 52.2566C8.28173 52.3591 8.03454 52.0517 7.78734 50.1474C8.45221 51.0184 8.89546 51.5905 9.41542 52.2566ZM7.77029 54.5708C7.60834 56.0311 7.44638 57.4145 7.25886 59.1053C6.97757 59.037 6.48318 59.0626 6.32975 58.8491C5.80978 58.0806 5.92912 57.2095 6.21041 56.3641C6.47465 55.5358 6.79004 54.7587 7.77029 54.5708ZM5.78421 61.2231C5.84388 60.4887 6.26155 60.241 7.31 60.4631C6.67923 63.4519 6.0655 66.3468 5.4603 69.2417C5.37506 69.2417 5.29835 69.2246 5.22163 69.2246C5.37506 67.1837 5.51997 65.1513 5.66488 63.1189C5.7075 62.4955 5.73307 61.855 5.78421 61.2316V61.2231ZM4.93182 58.6271C5.02558 58.4478 5.13639 58.2599 5.30687 57.9354C5.51145 58.3624 5.68193 58.721 5.8524 59.0797C5.80126 59.1309 5.75012 59.1736 5.69897 59.2248C5.44325 59.0199 5.19606 58.8235 4.94034 58.6271H4.93182ZM6.25303 54.2036C5.4603 55.8176 4.17319 56.9363 4.90625 58.6015H4.8892C4.74429 58.8491 4.60791 59.1053 4.47152 59.37C4.20728 59.1907 3.72142 59.0114 3.72142 58.8235C3.72142 57.9439 3.74699 57.0473 3.94304 56.1848C4.06237 55.6639 4.43743 55.1942 4.0368 54.6648C4.68462 54.5111 5.34949 54.383 6.26155 54.2036H6.25303ZM3.96009 54.7331C3.67027 55.6468 3.38898 56.552 3.09917 57.4743C2.65592 56.2787 3.29522 55.5016 3.96009 54.7331ZM2.2553 80.1978C2.29792 79.045 2.33201 77.8922 2.4343 76.7479C2.86902 71.8035 3.32079 66.8762 3.78961 61.9404C3.90042 60.762 3.94304 60.762 5.42621 60.7278C4.76134 67.6021 4.09647 74.4593 3.41455 81.4104C2.36611 81.4873 2.22972 80.8895 2.2553 80.1978ZM3.39751 83.5709C2.83493 83.2749 2.52522 82.7711 2.4684 82.0594C3.24123 82.1107 3.55094 82.6145 3.39751 83.5709ZM3.52537 85.3471C4.18171 86.3036 4.82953 87.2685 5.48587 88.2164C4.24138 87.6955 3.61061 86.7135 3.52537 85.3471ZM5.40916 80.9408C4.75281 77.8666 6.50875 64.3571 8.08568 60.0959C8.14535 60.8217 8.23911 61.1889 8.18797 61.522C7.60834 65.3391 6.97757 69.1563 6.42351 72.9734C6.05698 75.4755 5.78421 77.9946 5.40916 80.9408ZM5.71602 130.965C5.6734 130.965 5.62226 131.46 5.66488 131.725C5.76717 132.391 5.9206 133.04 6.0655 133.749C4.91477 133.869 5.01706 133.177 5.04263 132.528C5.12787 130.051 5.14492 127.575 5.3154 125.107C5.60521 120.897 5.99731 116.713 6.36384 112.511C6.44908 111.504 6.61104 110.479 6.77299 109.164C7.78734 109.898 7.71063 110.581 7.66801 111.265C7.43786 114.936 7.21624 118.608 6.96904 122.28C6.79856 124.74 6.59399 127.199 6.37237 129.659C6.32975 130.137 6.6707 130.88 5.72455 130.965H5.71602ZM7.60834 129.829C7.63391 129.624 7.74472 129.419 7.81291 129.223C7.90668 129.257 8.00896 129.291 8.10273 129.326C8.05158 130.043 8.02601 130.777 7.9152 131.486C7.84701 131.964 7.64243 132.425 7.31852 132.844C7.41229 131.836 7.49753 130.82 7.59981 129.821L7.60834 129.829ZM19.576 137.634C19.3799 138.198 18.9622 138.266 18.4593 138.13C17.2404 137.797 16.0215 137.412 14.794 137.122C13.7797 136.892 13.9246 136.063 13.7541 135.38C13.6859 134.646 14.2314 134.432 14.777 134.21C14.24 134.159 13.703 134.116 13.1404 134.065C13.4046 134.654 13.5751 135.03 13.7456 135.389C13.6518 135.756 13.5666 136.123 13.4558 136.55C11.3504 136.439 9.86719 135.038 7.88963 134.278C8.13682 133.006 8.36697 131.802 8.6994 130.103C7.489 127.797 8.06011 124.902 8.75055 122.016C8.84431 121.64 9.35575 121.375 9.72228 121.008C9.08298 120.453 9.05741 119.591 9.24494 118.66C9.50918 117.302 9.67966 115.936 9.93538 114.578C9.99505 114.236 10.0462 113.681 10.677 114.057C10.2508 113.152 10.2252 112.221 10.3616 111.222C10.6684 108.797 10.9156 106.354 11.0946 103.912C11.1628 102.964 11.0435 101.999 10.9583 101.051C10.8986 100.342 11.2822 100.035 11.8447 99.8216L11.8277 99.8387C12.467 99.7874 13.1063 99.7362 13.7541 99.6764C12.7483 99.2324 12.663 98.5236 12.808 97.6525C12.9529 96.7986 12.987 95.919 13.1915 95.0907C13.2853 94.6893 13.6689 94.3478 13.8905 94.0233C13.7626 93.7329 13.4472 93.3145 13.4132 92.8875C13.3705 92.3239 13.5581 91.7603 13.6774 91.0003C14.3252 91.0174 14.9475 90.9661 15.5356 91.0686C17.1722 91.3675 18.7832 91.7774 20.4198 92.0506C21.8263 92.2983 23.2839 92.3324 24.6733 92.6399C27.0856 93.1693 29.4638 93.8183 31.8505 94.4759C32.4386 94.6381 33.3336 94.732 32.8819 95.7653C32.3448 96.1069 31.8078 96.4399 31.0577 96.9096C32.055 97.217 32.2426 97.7209 31.9954 98.4296C31.7311 99.1897 31.3305 99.9411 31.2964 100.727C31.2453 102.281 30.3247 102.956 29.0461 103.408C30.2906 103.374 31.2708 102.93 31.9016 101.777C32.0465 101.512 32.4045 101.367 32.6602 101.162C32.4557 101.179 32.1317 101.29 32.055 101.196C31.322 100.351 31.876 98.5492 32.9927 98.0624C32.4045 97.3195 32.6091 96.551 32.9074 95.7909C33.3507 95.6116 33.8621 95.2273 34.2201 95.3383C35.797 95.7909 37.3314 96.3972 39.0873 97.0206C38.465 98.6004 37.911 100.027 37.3143 101.444C37.2546 101.598 36.9393 101.632 36.7347 101.726C37.2632 103.673 36.2488 104.826 34.6975 105.714C35.0128 105.791 35.3368 105.876 35.6521 105.953C35.3282 107.242 35.1066 108.498 34.6804 109.685C34.5099 110.154 33.9218 110.479 33.4956 110.829C33.1205 111.128 32.6858 111.384 32.2767 111.657C32.6432 111.615 33.0097 111.589 33.3592 111.555C33.9814 114.125 32.3193 116.738 29.9581 116.132C29.5831 116.474 29.2166 116.807 28.8415 117.148C29.9155 116.858 30.9895 116.559 32.3789 116.166C31.5095 118.335 30.785 120.24 29.9667 122.101C29.7024 122.699 29.1825 123.177 28.7818 123.707C28.4238 123.758 28.0743 123.8 27.7249 123.869C27.1879 123.971 26.9066 123.724 26.7787 123.228C26.881 123.826 26.5571 124.168 26.1224 124.449C25.9007 124.321 25.5001 124.185 25.5086 124.065C25.5598 123.339 25.466 122.502 26.3696 122.135C26.2502 120.282 26.2587 118.472 28.0232 117.251C27.1026 117.182 27.3583 116.516 27.3498 115.927C27.1793 117.148 26.5059 117.78 25.3041 117.917C24.912 117.968 24.5625 118.318 24.1874 118.532C24.5284 118.694 24.8779 118.873 25.2188 119.044C25.4291 118.589 25.8382 118.281 26.4463 118.122C26.4463 118.848 26.6253 119.565 25.7388 119.924C26.0116 121.401 25.4064 122.733 24.8608 124.005C24.6392 124.518 23.9573 124.825 23.4629 125.209L23.4117 125.252C23.7357 125.286 24.0681 125.321 24.554 125.372C24.392 126.012 24.213 126.55 24.1363 127.105C23.9914 128.053 23.3777 128.378 22.5082 128.548C21.2722 128.779 20.0618 129.129 18.8344 129.437V129.419C18.1439 129.351 17.8627 128.847 17.6325 128.284C17.803 128.907 17.4961 129.368 17.087 129.787C17.6837 129.761 18.3656 130.197 18.8173 129.454C20.3431 129.274 21.8774 129.103 23.6675 128.907C23.3777 129.607 23.1305 130.214 22.8833 130.794C22.8065 130.991 22.602 131.17 22.6275 131.332C22.798 132.442 22.1246 132.869 21.2381 133.177C21.6388 133.245 22.1673 133.288 21.9882 133.843C21.5194 135.354 20.9654 136.84 20.3261 138.668C19.9169 138.087 19.7464 137.839 19.576 137.592V137.634ZM24.3323 137.387C23.2668 136.832 23.7442 137.814 23.6419 138.13C23.5737 138.335 23.7357 138.616 23.855 139.103C23.0111 139.026 22.3463 138.967 21.4427 138.881C21.4939 138.07 21.5109 137.353 21.5791 136.635C21.6132 136.354 21.7751 136.089 21.8433 135.807C22.2269 134.056 23.1901 132.801 24.912 132.195C24.4176 132.263 23.9232 132.323 23.4203 132.383C23.3009 129.966 23.9147 128.77 25.5683 128.079C25.2444 128.002 24.9205 127.917 24.554 127.823C24.5966 126.456 24.7841 125.227 26.0712 124.526C27.1282 124.817 27.9294 124.176 28.7904 123.766C29.2762 125.098 28.4835 125.978 27.6737 126.832C27.3328 127.191 26.898 127.472 26.5059 127.788C26.8299 127.763 27.1538 127.746 27.6908 127.703C27.1026 129.607 27.0344 131.588 24.8608 132.323C25.1933 132.306 25.5257 132.272 26.003 132.255C25.7899 134.014 25.1847 135.551 24.7074 137.105C24.6733 137.233 24.4005 137.404 24.3323 137.378V137.387ZM25.466 139.641C25.1876 138.73 25.4262 138.039 26.182 137.566C25.9178 138.326 25.7473 138.821 25.466 139.641ZM41.7382 109.181C41.3802 108.942 41.116 108.762 40.8603 108.6C41.4143 109.565 41.3547 110.522 40.937 111.538C40.3318 113.024 39.863 114.552 39.2833 116.038C38.8231 117.199 38.3372 118.369 37.2291 119.121C38.0815 119.01 38.0559 119.471 37.8257 120.052C36.9904 122.178 36.1977 124.338 35.2771 126.431C34.9958 127.063 34.3565 127.532 33.8792 128.087C34.5185 128.053 34.5185 128.48 34.365 128.881C33.5979 130.914 32.8222 132.955 32.0039 134.97C31.7056 135.705 31.2623 136.362 30.9213 137.079C29.9496 139.137 29.3274 139.479 26.8128 139.206C26.8554 138.283 26.9321 137.412 27.8612 136.9C28.0743 137.301 28.3045 137.703 28.6114 138.249C29.1143 137.216 29.7365 136.405 29.9496 135.252C30.2735 133.527 30.8446 131.802 31.5521 130.179C31.859 129.479 32.7625 129.027 33.3933 128.463C32.9927 128.617 32.592 128.77 31.9186 129.027C32.4386 127.541 32.4301 126.174 33.4359 125.133C33.6234 124.936 33.7087 124.543 33.7087 124.262C33.6831 122.929 34.0667 121.828 35.2259 121.068C35.1237 120.735 34.8509 120.333 34.9361 120.069C35.5669 118.113 36.2147 116.149 36.9989 114.253C37.2887 113.536 37.9707 113.007 38.448 112.366C38.6611 112.076 39.0276 111.58 38.9339 111.427C38.1411 110.223 38.8912 109.232 39.2663 108.199C39.4368 107.721 39.6669 107.277 39.9312 106.67C40.2806 106.952 40.5278 107.14 40.775 107.336C39.9653 105.919 40.758 104.57 41.0222 103.229C41.3206 101.743 41.8661 100.3 42.3093 98.8395H42.3179C43.2811 99.4031 44.2528 99.9753 45.2501 100.573C44.1079 103.383 42.9486 106.235 41.7382 109.206V109.181ZM44.7728 91.4443C44.1846 91.154 43.6988 90.9149 43.1873 90.6673C43.5283 89.2839 43.8437 88.0371 44.1676 86.7391C45.8809 88.1054 45.9832 88.8313 44.7728 91.4443ZM46.452 90.4965C46.5884 91.0174 46.7162 91.5468 46.8867 92.1958C46.04 91.9567 45.8951 91.3903 46.452 90.4965ZM46.2048 99.8045C45.7615 99.4031 45.8212 98.9847 46.3923 98.6261C47.3214 98.0539 48.2505 97.4732 49.1882 96.9182C49.8275 96.5339 50.3304 96.884 50.9526 97.2341C49.3416 98.1137 47.8584 98.9164 46.2048 99.8045ZM52.2142 97.0292C51.6516 96.2862 51.1998 95.7141 50.7566 95.1249C51.8732 94.5527 49.6229 93.8183 51.1998 93.1608C51.7454 93.323 52.5892 93.5963 53.6462 93.9123C53.1348 95.0138 52.7 95.9617 52.2142 97.0292ZM53.9786 93.5194C52.9558 93.1779 52.1289 92.9046 51.1061 92.5545C51.7539 91.0601 52.342 89.7535 52.8961 88.447C53.4502 87.1148 54.0127 85.7827 54.5156 84.4249C55.0356 83.0159 55.4874 81.5898 55.9818 80.1637C56.4591 78.7974 56.6893 77.2346 57.5161 76.1416C58.4537 74.9034 57.4735 73.2809 59.0419 72.0939C59.7579 72.7856 60.5165 73.5285 61.403 74.4081C58.9396 80.7358 56.4932 87.0294 53.9701 93.528L53.9786 93.5194ZM64.3693 71.4192C64.0881 72.3927 63.4488 72.7343 61.9571 72.6233C62.2298 71.5303 62.4941 70.4543 62.7924 69.2673C64.3523 70.0273 64.6421 70.4543 64.3693 71.4192ZM61.2581 70.2835C61.4968 69.754 61.6928 69.3185 61.8889 68.8745C62.3747 70.1127 61.8462 71.146 61.4371 72.4781C60.8149 71.8975 60.3375 71.4449 59.792 70.924C60.1159 69.9675 60.4398 69.0196 60.8319 67.8497C61.9485 68.6268 60.9768 69.4637 61.2666 70.2835H61.2581ZM60.1159 63.8276C59.8005 63.8789 59.4254 63.7764 59.1356 63.6398C58.6242 63.3836 58.1639 63.0164 57.6439 62.7687C56.9706 62.4442 56.5614 62.0173 56.4676 61.2231C56.3824 60.4033 55.9477 59.7543 55.1294 59.4554C55.9562 59.1138 56.7915 58.7637 57.8059 58.3453C58.036 59.6006 58.2321 60.7022 58.4793 62.0856C59.434 60.5399 57.7036 59.0711 58.9652 57.4913C59.7664 59.2248 60.2523 60.7022 60.3972 62.4357C61.9059 61.5647 63.0481 60.4802 63.6448 58.6015C63.8664 60.8303 61.9144 63.5714 60.1159 63.8362V63.8276ZM64.591 55.8261C64.0966 54.5964 63.5084 53.5376 63.2783 52.3933C63.1248 51.6332 63.4743 50.7878 63.6278 49.8143C65.0001 51.2063 65.3155 53.4692 64.591 55.8261ZM19.9681 126.055C20.9654 125.098 22.2525 125.44 23.4288 125.269C22.2781 125.534 21.1188 125.799 19.9681 126.055ZM83.5141 51.0611L83.4971 51.0355C83.4971 51.0355 83.5141 50.9672 83.5227 50.9415C83.5227 50.9757 83.5141 50.9928 83.5141 51.0099V51.0611ZM83.5141 51.0611C83.6079 51.2063 83.7613 51.3514 83.7443 51.4795C83.4289 54.5367 82.8919 57.534 81.5025 60.3094C81.4087 60.5058 81.2297 60.668 81.0166 60.8217C82.2867 57.6707 83.0794 54.4086 83.5141 51.0611ZM77.1894 54.716H77.2064C77.0786 55.2284 76.9592 55.7237 76.8314 56.2189H76.8143C76.9422 55.7151 77.0615 55.2198 77.1894 54.716ZM84 49.4728C83.8466 49.9595 83.6931 50.4463 83.5312 50.9415C83.6164 50.4377 83.7017 49.9168 83.7869 49.413C83.8551 49.4301 83.9318 49.4471 84 49.4728ZM57.0387 45.6812C57.0217 43.8282 56.9961 42.163 56.9706 40.4978C57.0132 40.4551 57.0558 40.4209 57.1069 40.3697C57.2348 40.7454 57.3712 41.1211 57.6098 41.7958C58.3173 40.3355 57.8315 39.1571 57.8656 37.953C58.5219 39.046 58.7606 40.4892 58.377 41.8128C58.0105 43.0596 57.5331 44.2722 57.0387 45.6812ZM27.3754 69.4637C27.1111 69.6003 26.8213 69.6857 26.54 69.7882C26.7787 69.5235 27.0003 69.2075 27.2987 69.0111C29.37 67.6789 30.9895 65.9027 32.3278 63.8533C32.5068 63.58 32.7369 63.358 33.1205 62.8798C33.1546 63.4177 33.2995 63.802 33.1802 63.913C31.2367 65.749 29.8644 68.1913 27.3839 69.4552L27.3754 69.4637ZM35.4987 66.9019C35.4646 65.8857 35.439 64.8609 35.4135 63.8447C35.4902 63.8447 35.5754 63.8447 35.6521 63.8362C35.7459 64.8524 35.8397 65.8686 35.9249 66.8933C35.78 66.8933 35.6436 66.9104 35.4987 66.9104V66.9019ZM34.6037 70.0102C34.3395 69.3014 34.0752 68.6097 33.7087 67.6277C34.3622 68.4247 34.6605 69.2189 34.6037 70.0102ZM44.9518 32.8037C44.8239 31.4886 44.7046 30.165 44.5852 28.8413C44.6364 28.8072 44.7302 28.7303 44.7302 28.7303C44.9432 29.2171 45.1478 29.7124 45.3524 30.2162C45.4973 30.2162 45.6337 30.2333 45.7701 30.2504C45.8042 29.1573 45.8383 28.0472 45.8724 26.9627C46.7418 29.0463 46.4008 30.9677 44.9518 32.8122V32.8037ZM42.0195 35.1264C42.2326 34.0846 42.369 33.0342 42.548 31.9326C43.4686 33.4356 42.548 34.819 42.3008 36.2451C41.8235 35.9804 41.9172 35.579 42.011 35.1264H42.0195ZM43.6135 34.0931C43.6391 32.8891 43.6561 31.685 43.6817 30.4895C44.3892 31.7106 44.4062 32.9147 43.6135 34.0931Z" fill="white"/>
</svg>
