<svg width="125" height="71" viewBox="0 0 125 71" fill="none" xmlns="http://www.w3.org/2000/svg">
<path d="M40.1882 36.9182L38.2019 41.4266C41.5621 41.4266 43.8919 39.2918 45.221 36.2912L45.8184 34.9476H49.089C51.4486 34.9476 53.644 33.9325 55.2867 32.2307C56.2425 31.2454 56.8399 29.9765 57.4821 28.4985L60.0806 22.6316L64.5311 12.5698H81.601C84.7222 12.5698 87.4403 10.8232 88.9337 8.21068H66.4725L66.5323 8.0614C66.5323 8.0614 66.8011 7.41947 67.4433 6.24012C68.0705 5.07569 69.2055 4.3442 71.1171 4.35913H91.0096C94.1308 4.35913 96.8489 2.61249 98.3423 0H71.7742H70.9229C68.5633 0 66.368 1.01514 64.7252 2.71699C63.7694 3.70227 63.172 4.97119 62.5299 6.44912L62.1416 7.34483L61.7533 8.21068H58.4528C56.0932 8.21068 53.8979 9.22582 52.2551 10.9277C51.2993 11.913 50.7019 13.1819 50.0597 14.6598L49.6714 15.5555L43.0257 30.5736H34.0054C30.8841 30.5736 28.1661 32.3053 26.6726 34.9178H41.0842L40.2031 36.9182H40.1882ZM54.9731 14.4508C55.6004 13.2864 56.7354 12.5549 58.647 12.5698H59.7969L55.4211 22.4823L52.6583 28.7075C52.0311 29.872 50.8961 30.6034 48.9845 30.5885H47.7748L54.9881 14.4657L54.9731 14.4508ZM25.9558 67.3127L25.3734 68.91H29.3011L28.5842 70.9104H22.4313L25.7168 61.804H31.8698L31.1529 63.8045H27.2252L26.6726 65.3272H30.0329L29.316 67.3276H25.9558V67.3127ZM115.8 63.7895L113.232 70.9104H111.007L113.575 63.7895H111.35L112.067 61.7891H118.743L118.026 63.7895H115.8ZM23.9994 64.73C24.537 63.2372 23.9845 61.804 21.9683 61.804H18.3841L15.0986 70.9104H17.3238L18.5036 67.656H19.8626C21.8638 67.656 23.4618 66.2229 24.0143 64.73H23.9994ZM21.7742 64.73C21.6099 65.2077 21.0872 65.6556 20.4749 65.6556H19.2204L19.8925 63.8194H21.147C21.7593 63.8194 21.9534 64.2672 21.7742 64.745V64.73ZM7.57169 66.1184C7.88531 66.5961 7.82557 67.2679 7.52688 68.1188C6.85484 69.9699 4.89845 70.9851 3.00179 70.9851C1.6129 70.9851 0.582437 70.7313 0 69.7759L1.94146 68.3427C2.24014 68.8204 3.00179 68.9847 3.73357 68.9847C4.6147 68.9847 5.1374 68.6861 5.33154 68.1636C5.40621 67.9397 5.42115 67.7605 5.34648 67.6262C5.2718 67.5067 5.10753 67.4172 4.83871 67.3873L3.80824 67.238C3.04659 67.1186 2.53883 66.8499 2.28495 66.4319C2.01613 65.9989 2.046 65.3869 2.32975 64.5957C2.92712 62.9386 4.6147 61.7145 6.67563 61.7145C7.97491 61.7145 8.8411 62.028 9.33393 62.8043L7.42234 64.2075C7.06392 63.6253 6.28734 63.6701 5.89904 63.6701C5.12246 63.6701 4.64456 64.118 4.49522 64.521C4.45042 64.6405 4.43548 64.8047 4.52509 64.939C4.59976 65.0585 4.7491 65.163 5.04779 65.2077L6.07826 65.357C6.85484 65.4765 7.34767 65.7302 7.58662 66.1184H7.57169ZM123.238 66.1184C123.551 66.5961 123.492 67.2679 123.193 68.1188C122.521 69.9699 120.565 70.9851 118.668 70.9851C117.279 70.9851 116.249 70.7313 115.666 69.7759L117.608 68.3427C117.906 68.8204 118.668 68.9847 119.4 68.9847C120.281 68.9847 120.803 68.6861 120.998 68.1636C121.072 67.9397 121.087 67.7605 121.013 67.6262C120.938 67.5067 120.774 67.4172 120.505 67.3873L119.474 67.238C118.713 67.1186 118.205 66.8499 117.951 66.4319C117.697 65.9989 117.712 65.3869 117.996 64.5957C118.593 62.9386 120.281 61.7145 122.342 61.7145C123.641 61.7145 124.507 62.028 125 62.8043L123.088 64.2075C122.73 63.6253 121.968 63.6701 121.565 63.6701C120.789 63.6701 120.311 64.118 120.161 64.521C120.116 64.6405 120.102 64.8047 120.191 64.939C120.266 65.0585 120.415 65.163 120.714 65.2077L121.744 65.357C122.521 65.4765 123.014 65.7302 123.253 66.1184H123.238ZM38.411 64.73C38.9486 63.2372 38.3961 61.804 36.3799 61.804H32.7957L29.4952 70.9104H31.7204L32.945 67.5217H33.6918L34.0651 70.9104H36.6487L36.0663 67.1186C36.9026 66.7603 37.948 65.984 38.3961 64.745L38.411 64.73ZM34.8865 65.6556H33.632L34.3041 63.8194H35.5585C36.1708 63.8194 36.365 64.2672 36.1858 64.745C36.0215 65.2227 35.4988 65.6705 34.8865 65.6705V65.6556ZM15.1882 67.7157C14.4713 69.7161 12.4403 70.9851 10.5585 70.9851C8.67682 70.9851 7.60155 69.7012 8.3184 67.7157L10.454 61.804H12.6792L10.5585 67.656C10.2599 68.5069 10.5287 68.9847 11.2754 68.9847C12.0221 68.9847 12.6643 68.492 12.9779 67.656L15.0986 61.804H17.3238L15.1882 67.7157ZM58.0795 70.9104H60.4092L61.3501 69.5519H64.1278L64.0532 70.9104H66.3829V61.804H64.6655L58.0795 70.9104ZM64.2174 67.6859H62.6493L64.3369 65.2525L64.2174 67.6859ZM86.9922 68.1188C86.3202 69.9699 84.3638 70.9851 82.4671 70.9851C81.0783 70.9851 80.0478 70.7313 79.4654 69.7759L81.4068 68.3427C81.7055 68.8204 82.4671 68.9847 83.1989 68.9847C84.08 68.9847 84.6027 68.6861 84.7969 68.1636C84.8716 67.9397 84.8865 67.7605 84.8118 67.6262C84.7372 67.5067 84.5729 67.4172 84.3041 67.3873L83.2736 67.238C82.5119 67.1186 82.0042 66.8499 81.7503 66.4319C81.4815 65.9989 81.5114 65.3869 81.7951 64.5957C82.3925 62.9386 84.0801 61.7145 86.141 61.7145C87.4403 61.7145 88.3065 62.028 88.7993 62.8043L86.8877 64.2075C86.5293 63.6253 85.7527 63.6701 85.3644 63.6701C84.5878 63.6701 84.1099 64.118 83.9606 64.521C83.9158 64.6405 83.9008 64.8047 83.9904 64.939C84.0651 65.0585 84.2145 65.163 84.5131 65.2077L85.5585 65.357C86.3351 65.4765 86.828 65.7302 87.0669 66.1184C87.3805 66.5961 87.3208 67.2679 87.0221 68.1188H86.9922ZM72.1774 61.804L68.8919 70.9104H66.6667L69.9671 61.804H72.1924H72.1774ZM76.9564 61.804H73.3722L70.0717 70.9104H72.2969L73.5215 67.5217H74.2682L74.6416 70.9104H77.2252L76.6428 67.1186C77.4791 66.7603 78.5245 65.984 78.9725 64.745C79.5102 63.2521 78.9576 61.819 76.9415 61.819L76.9564 61.804ZM76.7623 64.73C76.598 65.2077 76.0753 65.6556 75.463 65.6556H74.2085L74.8805 63.8194H76.135C76.7473 63.8194 76.9415 64.2672 76.7623 64.745V64.73ZM102.778 62.7445C102.36 62.0728 101.732 61.7145 100.612 61.7145C99.4922 61.7145 98.6111 62.0728 97.7151 62.7445C96.4158 63.7 95.9827 64.9838 95.4898 66.3572C94.997 67.7307 94.4892 68.9996 95.1016 69.9699C95.5197 70.6417 96.1619 71 97.267 71C98.3722 71 99.2682 70.6417 100.164 69.9699C101.464 69.0145 101.897 67.7307 102.389 66.3572C102.882 64.9838 103.39 63.7149 102.778 62.7445ZM100.164 66.3572C99.5669 68.0143 99.328 68.3129 99.0293 68.5816C98.7903 68.8055 98.402 68.9847 97.9988 68.9847C97.5956 68.9847 97.3417 68.7906 97.2521 68.5816C97.1476 68.3129 97.1326 68.0143 97.73 66.3572C98.3274 64.7002 98.5663 64.3867 98.865 64.118C99.1039 63.894 99.4922 63.7149 99.8955 63.7149C100.299 63.7149 100.553 63.894 100.642 64.118C100.747 64.3867 100.762 64.7002 100.164 66.3572ZM59.8268 61.804L55.1374 67.2082L53.7933 70.9104H51.5681L52.9122 67.2082L52.1356 61.804H54.5699L54.8088 65.0734L57.4074 61.804H59.8417H59.8268ZM47.043 68.91H50.8363L50.1195 70.9104H44.101L47.4014 61.804H49.6266L47.0579 68.91H47.043ZM44.7282 65.3869L44.0113 67.3873H40.6511L39.3817 70.9104H37.1565L40.4421 61.804H46.595L45.8781 63.8045H41.9504L41.368 65.4018H44.7282V65.3869ZM108.527 61.7891H104.943L101.643 70.8955H103.868L105.093 67.5067H105.839L106.213 70.8955H108.796L108.214 67.1037C109.05 66.7454 110.096 65.9691 110.544 64.73C111.081 63.2372 110.529 61.804 108.513 61.804L108.527 61.7891ZM108.333 64.7151C108.169 65.1928 107.646 65.6407 107.034 65.6407H105.78L106.452 63.8045H107.706C108.318 63.8045 108.513 64.2523 108.333 64.73V64.7151ZM93.6977 61.7891H90.1135L86.813 70.8955H89.0382L90.218 67.6411H91.5771C93.5783 67.6411 95.1762 66.208 95.7288 64.7151C96.2664 63.2222 95.7139 61.7891 93.6977 61.7891ZM93.5036 64.7151C93.3393 65.1928 92.8166 65.6407 92.2043 65.6407H90.9498L91.6219 63.8045H92.8763C93.4886 63.8045 93.6828 64.2523 93.5036 64.73V64.7151Z" fill="white"/>
</svg>
