<?xml version="1.0" encoding="utf-8"?>
<!-- Generator: Adobe Illustrator 27.8.1, SVG Export Plug-In . SVG Version: 6.00 Build 0)  -->
<svg version="1.1" id="Layer_1" xmlns="http://www.w3.org/2000/svg" xmlns:xlink="http://www.w3.org/1999/xlink" x="0px" y="0px"
	 viewBox="0 0 187.4 200.8" style="enable-background:new 0 0 187.4 200.8;" xml:space="preserve">
<style type="text/css">
	.st0{fill:#FFFFFF;}
	.st1{fill:#C6A445;}
</style>
<g>
	<path id="SkyLounge_00000066483018963966878610000000975540191467882155_" class="st0" d="M160.9,42.1l11.6,8.8l2.8-3.7l-7.4-5.6
		l2.3-3l6.3,4.8l2.8-3.7l-6.3-4.8l2.2-2.8l7.4,5.6l2.8-3.7l-11.6-8.8L160.9,42.1z M150.4,36.2c2.1,1.1,4.1,1.6,6.6,0.9
		c2.2-0.7,3.6-2.2,5.3-5.2l1.4-2.6l-7.4-4l-2.1,3.9l2.8,1.5l-0.1,0.3c-0.4,0.7-1,1.4-1.8,1.6c-0.7,0.2-1.5,0.2-2.5-0.4
		c-0.8-0.5-1.3-1.1-1.4-1.8c-0.1-0.8,0-1.6,1.8-5c1.9-3.4,2.5-3.9,3.2-4.2c0.6-0.3,1.4-0.3,2.3,0.2c1.6,0.9,2,1.9,1.5,3.6l4.6,2.5
		c1.2-3.3,0.9-7.6-4-10.2c-2.3-1.2-4.2-1.4-6.3-0.8c-3,0.9-4.3,3.3-6,6.5c-1.7,3.2-3,5.6-2.1,8.5C147,33.4,148.2,34.9,150.4,36.2
		 M124.2,25.3l5,1.7l3.4-10.2l3.1,12.4l4.4,1.5l6.8-20.3l-5-1.7l-3.4,10.2l-3.1-12.4L131,5L124.2,25.3z M112.3,23.2
		c4.4,0.7,8.5-1.6,9.3-6.3l2.3-13.7l-5.2-0.9L116.4,16c-0.3,2-1.6,2.9-3.4,2.6c-1.7-0.3-2.6-1.6-2.3-3.5L113,1.5l-5.2-0.9l-2.3,13.7
		C104.8,19,107.9,22.5,112.3,23.2 M92.8,17.1c-1,0-1.7-0.4-2.1-1c-0.5-0.6-0.8-1.3-0.8-5.2s0.3-4.6,0.8-5.3c0.4-0.5,1.1-0.9,2.1-0.9
		c1,0,1.7,0.4,2.1,0.9c0.5,0.6,0.8,1.3,0.8,5.3c0,3.9-0.3,4.6-0.8,5.2C94.6,16.6,93.8,17.1,92.8,17.1 M92.9,21.8
		c2.6,0,4.4-0.8,5.9-2.4c2.2-2.2,2.2-4.9,2.2-8.5s0-6.3-2.2-8.5c-1.5-1.5-3.3-2.3-6-2.3c-2.6,0-4.4,0.8-5.9,2.4
		c-2.2,2.2-2.2,4.9-2.2,8.5c0,3.6,0,6.3,2.2,8.5C88.5,21,90.3,21.8,92.9,21.8 M69,23.8l14.1-2.1l-0.7-4.6l-8.9,1.3L71.1,1.9
		l-5.2,0.8L69,23.8z M49.6,29.7l4.9-1.8l-3-8.2l1.7-14.1l-5.4,2l-0.5,8.4l-5.8-6.1l-5.4,2l10.4,9.7L49.6,29.7z M27.6,40.6l4.6-2.6
		l-3.3-5.8l0.6-2.7l8.6,5.3l5.4-3l-12.8-7.4l2.2-11.1l-5.6,3.1L25.5,26l-3.7-6.6l-4.6,2.6L27.6,40.6z M18.3,47.7
		c3.5-2.8,5-7,2.3-10.4c-1.2-1.6-2.6-2.5-4.2-2.7c-1.3-0.1-2.7,0.2-4.4,1.2l-2.2,1.3c-0.6,0.4-1.2,0.5-1.5,0.4
		c-0.5-0.1-0.8-0.3-0.9-0.5c-0.6-0.7-0.6-2,0.8-3.2c1.3-1.1,2.4-1.7,4-1.5l0.5-4.6c-2.6-0.3-4.8,0.6-7.2,2.5
		c-3.8,3-4.4,7.1-1.9,10.1c1.1,1.4,2.4,2.3,3.8,2.5c1.4,0.2,2.9-0.2,4.5-1.2l2.2-1.3c0.6-0.4,1.1-0.5,1.5-0.4
		c0.4,0.1,0.8,0.3,1.1,0.7c0.8,1,0.4,2.1-1.2,3.4c-1.3,1.1-3.1,2-4.7,1.8l-0.5,4.7C13.3,51,15.8,49.8,18.3,47.7"/>
	<path id="Menu_00000149379259594561299920000008984046003557583759_" class="st1" d="M153.6,77.4h10.1V66.5h-10.1V77.4z
		 M170.6,77.4h10.1V66.5h-10.1V77.4z M167,136.5c11.1,0,20.4-7.5,20.4-19.2V82.6h-13.1V117c0,5-2.9,7.8-7.2,7.8s-7.1-2.9-7.1-7.8
		V82.6h-13.1v34.7C146.8,129,155.9,136.5,167,136.5 M98.9,136.1H112v-26.9l17.1,26.9h11.5V82.6h-13.1v26.9l-17.1-26.9H98.9V136.1z
		 M57,136.1h36.4v-11.7H70.1V115h19.8v-11.7H70.1v-8.9h23.2V82.6H57V136.1z M0,136.1h13.1v-25.6l7.6,13.2h8.4l7.6-13.2v25.6h13.1
		V82.6H37l-12,23.6l-12-23.6H0V136.1z"/>
	<path id="Flag_00000170262206017624437240000017985549194936901789_" class="st0" d="M115,176.8C115,176.8,115,176.8,115,176.8
		L115,176.8C115,176.8,115,176.8,115,176.8z M116.9,176c0,0,0-0.1,0-0.1c-0.1,0-0.1,0-0.2,0.1c0,0,0,0.1,0,0.1
		C116.8,176.1,116.8,176.1,116.9,176z M116.8,176.7L116.8,176.7L116.8,176.7L116.8,176.7L116.8,176.7L116.8,176.7
		C116.8,176.7,116.8,176.7,116.8,176.7C116.8,176.7,116.8,176.7,116.8,176.7z M116.7,176.7C116.7,176.7,116.7,176.7,116.7,176.7
		C116.7,176.6,116.7,176.6,116.7,176.7z M136.1,181.7c0,0-0.1,0.1-0.1,0.1C136.1,181.8,136.1,181.8,136.1,181.7
		C136.2,181.7,136.1,181.7,136.1,181.7z M109.8,176.7c0.1,0,0.1,0.1,0.1,0c0-0.1-0.1-0.2-0.2-0.3c0,0-0.1,0-0.1,0.1
		C109.5,176.6,109.7,176.6,109.8,176.7z M110.1,175.8C110.1,175.8,110.1,175.7,110.1,175.8c-0.1-0.1-0.1-0.1-0.2,0c0,0,0,0.1,0,0.1
		C110,175.9,110.1,175.9,110.1,175.8z M118.5,184.5C118.6,184.5,118.6,184.5,118.5,184.5l0.1,0L118.5,184.5c0.1,0,0.1,0,0.1,0
		c0,0,0,0,0,0v0C118.6,184.5,118.6,184.5,118.5,184.5z M119.4,178.6c0,0.1,0,0.2,0.1,0.2c0.1,0,0.1-0.1,0.1-0.2
		c0-0.1-0.1-0.1-0.1-0.2C119.4,178.5,119.4,178.5,119.4,178.6z M119.5,178.4L119.5,178.4C119.5,178.4,119.5,178.4,119.5,178.4
		C119.5,178.4,119.5,178.4,119.5,178.4z M111.6,178.9c-0.1,0-0.1,0-0.1,0.1c0,0,0.1,0.1,0.1,0.1c0,0,0.1,0,0.1-0.1
		C111.7,179,111.6,178.9,111.6,178.9z M40.3,187.7c-0.6-0.2-0.6-0.2-0.7,0.4c0,0,0,0.1,0,0.1c0,0.1,0,0.1,0,0.2
		c0.1,0,0.3-0.1,0.4-0.1c0,0,0,0,0,0c0,0,0,0,0,0c0,0,0,0,0,0.1c0.3-0.1,0.6-0.3,0.8-0.6C40.6,187.7,40.4,187.8,40.3,187.7z
		 M39.9,188.3C39.9,188.3,39.9,188.3,39.9,188.3C39.9,188.3,39.9,188.3,39.9,188.3C39.9,188.3,39.9,188.3,39.9,188.3z M38.7,188
		c-0.2,0.1-0.5,0.1-0.4,0.4c0.1,0,0.2,0,0.3,0c0.2,0,0.3,0,0.5,0c0,0-0.1-0.1-0.1-0.2C39.1,188,39,187.9,38.7,188z M41.6,186.3
		c-0.1,0.4-0.4,0.7-0.6,1.1c0-0.2-0.3-0.2-0.4-0.3c0,0-0.1,0-0.1,0c-0.4,0.1-0.5-0.1-0.5-0.5l0,0c0,0,0,0,0,0
		c0.3,0.1,0.5-0.1,0.7-0.2l0,0c0,0,0,0.1,0,0.1c0,0,0-0.1,0-0.1l0,0c-0.4-0.5-0.4-0.5-0.7,0.1c0,0,0,0,0,0c0,0,0,0,0,0c0,0,0,0,0,0
		c-0.2,0-0.3,0.1-0.4,0.3c-0.3,0-0.5-0.2-0.8-0.1c-0.1,0-0.2,0-0.2,0.1c0,0.1,0,0.1,0.1,0.2c0.4,0.5,0.4,0.5-0.1,0.8
		c-0.1,0-0.2,0.1-0.2,0.1c-0.1,0.1-0.3,0.1-0.4-0.1c-0.1-0.2,0.1-0.2,0.2-0.3c0.1,0,0.1-0.1,0.1-0.1c0-0.1-0.1-0.1-0.2-0.1
		c-0.5-0.1-0.5,0.4-0.7,0.5c-0.2,0.1,0.2,0.1,0.3,0.3c0,0,0.1,0.1,0.1,0.1c-0.8-0.3-1.4-0.7-2.2-0.9c-0.7-0.2-1.3-0.6-2-0.5
		c-0.2,0-0.4-0.2-0.6-0.3c-0.5-0.4-1.1-0.7-1.6-0.9v-0.4c0.3-0.3,0.3-0.7,0.3-1.1c0-0.2-0.1-0.5,0.2-0.7c1-0.6,1.3-1.6,1.5-2.5
		c0.1-0.6,0.4-1.1,0.8-1.5c0.8-0.8,1.2-1.7,1-2.8c-0.1-0.5,0.2-0.9,0.1-1.3c-0.1-0.4-0.2-0.8-0.4-1.1c0,0,0,0,0,0
		c0.1-0.3,0.5-0.3,0.5-0.6c0,0,0-0.1,0-0.1c-0.1,0-0.2-0.1-0.2-0.1c-0.1,0.2-0.3,0.5-0.4,0.7c-0.1-0.1-0.1-0.2-0.2-0.3
		c-0.2-0.2-0.2-0.4-0.2-0.7c0-1.2-0.5-2.3-0.9-3.3c-0.4-1-0.4-1.9,0.1-2.8c0.2-0.3,0.4-0.6,0.5-0.9h0.7c0.1,0,0.1,0.1,0.2,0.1
		c1.2,0,2.3,0.5,3.4,0.8v0c0,0.1,0,0.2,0.1,0.2c0.1,0,0.1-0.1,0.1-0.2c0.2,0,0.3,0.1,0.5,0.1c0.9,0.2,1.7,0.3,2.6,0.4l0,0
		c0,0,0,0,0,0c0.4,0,0.7,0,1.1,0c0.1,0.1,0.1,0.3,0.1,0.5c0,0.2,0.3,0,0.4-0.1c0.2-0.1,0.5-0.1,0.6-0.3c0-0.1,0.1-0.1,0.1-0.2
		c0.1,0,0.2,0,0.3,0c0.1,0.1,0.1,0.1,0.2,0.2h0c0,0-0.1,0-0.1,0c0,0,0.1,0,0.1,0l0,0c0.1,0,0.2,0,0.2,0c0,0.1,0,0.3,0,0.4l0,0
		c0,0,0,0,0,0c-0.1,0-0.1,0-0.1,0.1c0,0,0,0.1,0.1,0.1c0,0,0.1-0.1,0.1-0.1c0,0,0,0,0,0v0c0.1,0,0.2,0,0.3,0l0,0c0,0,0,0,0,0
		c-0.1,0.2-0.1,0.5,0.2,0.6c0.2,0.1,0.2,0.3,0.3,0.4h0l0,0c-0.1,0-0.1,0-0.2,0c0,0,0,0,0,0c0.1,0,0.1,0,0.2,0c0,0,0,0,0,0l0,0
		c0.2,0,0.3,0,0.4-0.2c0-0.2-0.1-0.2-0.2-0.3c-0.3-0.1-0.5-0.3-0.6-0.6c0,0,0,0,0,0l0,0c0-0.1,0.1-0.1,0.2,0
		c0.3,0.1,0.6,0.3,0.8,0.6c0.3,0.3,0.6,0,0.8-0.2c0.2-0.2-0.2-0.2-0.2-0.3c0-0.1-0.1-0.1-0.1-0.2c0.5,0.1,0.9,0.1,1.4,0
		c0.4-0.1,0.8-0.1,1.1,0.1c0.3,0.2,0.6,0.2,1,0.2c1,0,1.6,0.7,2.3,1.3c0.1,0.1,0.2,0.3,0.1,0.5c-0.2,0.4-0.2,0.8-0.3,1.2
		c-0.3,1.1-1.4,1.8-2.5,1.4c-0.8-0.2-1.6-0.3-2.4-0.3c-1,0-2,0-3-0.1c-0.1,0-0.2,0-0.4,0c0,0,0,0,0,0l0,0c0,0,0,0,0,0
		c-0.7,0-1.4,0.2-1.9,0.6h0c-0.1,0.1-0.3,0.3-0.4,0.4c0,0,0,0-0.1,0.1c0-0.1,0.1-0.2,0-0.3c-0.2,0-0.1,0.2-0.2,0.3
		c-0.1,0.1-0.1,0.2-0.1,0.3c-0.1,0.1-0.3,0.2-0.4,0.3c-0.9,0.6-1.3,1.6-1.5,2.6c0,0.1,0,0.3,0,0.4c0.4,0.6,0.3,1.3,0.5,2
		c0.1,0.3,0.2,0.5,0.3,0.8c0,0-0.1,0.1-0.1,0.1c-0.3,0.2,0,0.4,0.1,0.6l0,0v0c-0.3,0-0.5,0-0.7-0.2c-0.1-0.1-0.2,0-0.3,0
		c-0.1,0.2,0.1,0.2,0.2,0.2c0.2,0.1,0.3,0.2,0.6,0.3c0.3,0,0.2-0.2,0.2-0.3l0,0c0,0,0,0,0,0c0.1-0.1,0.1-0.2,0.2-0.3
		c0.2,0.5,0.3,0.9,0.3,1.4c0,0.6,0.4,1.2,0.8,1.7c0.6,0.9,0.7,1.8,0.4,2.8c-0.1-0.1-0.1-0.1-0.2-0.1c-0.1,0-0.1,0.1-0.1,0.1
		C41.4,186.2,41.4,186.3,41.6,186.3z M39.3,179c0,0,0.1,0.1,0.1,0.1c0,0,0,0,0,0c0,0,0,0,0,0c0.1,0,0.1,0.1,0.2,0.1c0,0,0,0,0,0
		c-0.1-0.1-0.1-0.1-0.2-0.1c0,0,0,0,0,0l0,0C39.4,179,39.4,178.9,39.3,179C39.3,178.9,39.3,178.9,39.3,179z M49,170.2L49,170.2
		L49,170.2L49,170.2z M48.2,171.5c0,0,0.1,0.1,0.1,0.1c0,0,0,0,0,0C48.3,171.5,48.3,171.5,48.2,171.5
		C48.2,171.4,48.2,171.5,48.2,171.5z M46.2,169.5c0,0.2,0.1,0.2,0.3,0.2c0.1,0,0.2,0,0.1-0.1c-0.1-0.1-0.1-0.2-0.2-0.2
		C46.3,169.3,46.2,169.4,46.2,169.5z M46,171.1c0,0.1,0.1,0.3,0.2,0.3c0.2,0,0.1-0.2,0.1-0.3c0-0.1,0.1-0.3-0.2-0.3
		C46,170.8,46,171,46,171.1z M45.6,169.5C45.6,169.5,45.6,169.5,45.6,169.5C45.6,169.5,45.6,169.5,45.6,169.5
		C45.6,169.4,45.6,169.5,45.6,169.5z M45.6,171.6C45.6,171.6,45.6,171.6,45.6,171.6c0.1,0.1,0.2,0,0.2,0
		C45.7,171.5,45.7,171.5,45.6,171.6C45.6,171.5,45.6,171.5,45.6,171.6z M45.2,172.3C45.2,172.3,45.2,172.4,45.2,172.3
		c0.1,0.1,0.1,0.1,0.1,0C45.3,172.2,45.3,172.2,45.2,172.3C45.2,172.2,45.2,172.2,45.2,172.3z M45,171c0,0,0,0.1-0.1,0.1l0,0
		c0,0,0,0,0,0c0,0-0.1,0-0.1,0c-0.1,0-0.1,0.1-0.2,0.1l0,0.1c0.1,0,0.1,0,0.2-0.1c0,0,0.1-0.1,0.1-0.1l0,0l0,0
		C45,171.2,45,171.1,45,171C45.1,171.1,45,171,45,171z M44.5,169.8c0.1,0.1,0.2,0.3,0.3,0.3c0.1,0,0.1-0.1,0.1-0.2
		c0-0.2-0.2-0.3-0.3-0.3C44.6,169.6,44.5,169.7,44.5,169.8z M43.9,170.5c0-0.1-0.1-0.2-0.2-0.2c0,0-0.1,0-0.1,0l0,0c0,0,0,0,0,0
		c-0.4-0.3-1,0-1.4-0.3c-0.1-0.1-0.1,0.1-0.1,0.2c0.2,0.6,0.5,1.1,0.5,1.8c0,0.1,0.1,0.1,0.1,0.1c0.1,0,0.1-0.1,0.1-0.1
		c-0.1-0.5,0.4-0.8,0.4-1.3c0-0.2,0.2-0.4,0.4-0.4c0,0,0,0,0,0l0,0c0,0,0,0.1,0,0.1C43.7,170.4,43.7,170.5,43.9,170.5
		C43.8,170.5,43.9,170.5,43.9,170.5z M43.8,169.6C43.8,169.7,43.9,169.7,43.8,169.6C43.9,169.7,43.9,169.6,43.8,169.6
		C43.9,169.6,43.9,169.6,43.8,169.6z M43.7,168.5L43.7,168.5L43.7,168.5L43.7,168.5z M42.6,169.5c0.3,0.2,0.7,0,0.8-0.4l0,0l0,0
		c0.1,0,0.1,0,0.2,0c0.1,0,0.2,0.1,0.3,0c0,0,0-0.1,0-0.1c-0.1-0.1-0.2-0.1-0.2-0.1c-0.1,0-0.1,0.1-0.2,0.1c0,0,0,0,0,0v0
		c-0.1-0.1-0.2-0.2-0.3-0.3c-0.2-0.4-0.3-0.1-0.4,0c-0.1,0.1,0,0.3-0.2,0.5C42.5,169.4,42.5,169.5,42.6,169.5z M42,167.8
		c0,0.1,0,0.3,0.2,0.3c0.1,0,0.2-0.1,0.2-0.2c0-0.2-0.2-0.2-0.3-0.3C42,167.7,42,167.8,42,167.8z M41.8,168.7
		C41.8,168.7,41.8,168.8,41.8,168.7C41.9,168.8,41.9,168.8,41.8,168.7C41.9,168.7,41.9,168.7,41.8,168.7z M41.6,170.7L41.6,170.7
		C41.6,170.7,41.6,170.7,41.6,170.7C41.6,170.7,41.6,170.7,41.6,170.7z M41,168.5c-0.2,0.3-0.4,0.7-0.3,1c0.2,0.3,0.1,0.6,0.1,0.9
		c0,0.1-0.2,0.3,0,0.4c0.2,0,0.3-0.1,0.4-0.3c0.1-0.1,0-0.3,0-0.4C41.2,169.6,41.1,169,41,168.5C41,168.5,41,168.5,41,168.5
		C41,168.5,41,168.5,41,168.5c0.1,0,0.2,0,0.2-0.1l0,0C41.1,168.4,41.1,168.4,41,168.5C41,168.5,41,168.5,41,168.5
		C41,168.5,41,168.5,41,168.5z M34.6,168.6L34.6,168.6L34.6,168.6L34.6,168.6z M34.7,169C34.7,169,34.6,169,34.7,169
		C34.6,169,34.6,169,34.7,169C34.6,169.1,34.7,169.1,34.7,169C34.7,169.1,34.8,169.1,34.7,169z M34.8,169.9L34.8,169.9L34.8,169.9
		L34.8,169.9z M39.2,171.1c0-0.1-0.1-0.1-0.1-0.1c-0.2,0-0.3,0.2-0.3,0.3c0,0.1,0,0.2,0.1,0.1C39,171.4,39.1,171.3,39.2,171.1z
		 M39.2,174.6C39.2,174.6,39.2,174.6,39.2,174.6L39.2,174.6C39.2,174.7,39.2,174.7,39.2,174.6z M39.8,169.9c0-0.1,0-0.2-0.1-0.3
		c-0.1-0.1-0.1,0-0.1,0c0,0.1,0,0.2,0.1,0.3C39.8,170,39.8,170,39.8,169.9z M40.3,173.9C40.3,173.9,40.2,173.8,40.3,173.9
		c-0.1-0.1-0.2-0.1-0.2-0.1C40,173.9,40.1,173.9,40.3,173.9C40.2,174,40.3,174,40.3,173.9z M40.3,171.5
		C40.3,171.5,40.3,171.5,40.3,171.5c-0.1-0.1-0.1-0.1-0.1,0C40.1,171.6,40.2,171.6,40.3,171.5C40.2,171.6,40.3,171.6,40.3,171.5z
		 M40.2,169.8c-0.3,0-0.1,0.2-0.2,0.4c0,0.1-0.1,0.3,0.1,0.3c0.2,0,0.1-0.2,0.2-0.3C40.3,170,40.3,169.8,40.2,169.8z M39.7,168.1
		c0,0.2,0.2,0.4,0,0.7c-0.1,0.1-0.1,0.3,0.1,0.3c0.2,0,0.4,0.1,0.5-0.2c0-0.1-0.3-1-0.4-1.1c0,0,0,0-0.1,0
		C39.7,167.9,39.6,168,39.7,168.1z M39.6,167.5C39.6,167.5,39.6,167.5,39.6,167.5C39.6,167.5,39.6,167.4,39.6,167.5
		C39.6,167.4,39.6,167.4,39.6,167.5C39.5,167.5,39.5,167.5,39.6,167.5z M39.2,171.5c0,0,0.1,0,0.1,0.1c0,0,0,0,0,0l0,0
		c0,0.1,0,0.2-0.1,0.3c0,0.1-0.2,0.2,0,0.3c0.2,0.1,0.2-0.1,0.3-0.2c0.1-0.2,0-0.3-0.2-0.4l0,0c0,0,0,0,0,0
		C39.3,171.5,39.3,171.5,39.2,171.5z M38.2,167.8c0,0.1-0.1,0.3,0,0.4c0,0,0.1,0,0.1,0C38.3,168.1,38.3,167.9,38.2,167.8
		C38.2,167.8,38.2,167.8,38.2,167.8L38.2,167.8L38.2,167.8z M36.8,168.5C36.8,168.5,36.8,168.5,36.8,168.5
		C36.8,168.5,36.8,168.5,36.8,168.5L36.8,168.5z M35.3,168c0,0,0.1,0,0.1-0.1c0.1-0.1,0.2-0.3,0.2-0.4c0.1-0.1,0.2-0.4,0.1-0.4
		c-0.2-0.1-0.1,0.2-0.2,0.3c-0.1,0.1-0.1,0.3-0.2,0.4C35.3,167.9,35.2,167.9,35.3,168z M35.6,174.7c0-0.2,0.1-0.4,0.1-0.7
		c0,0,0-0.1,0-0.1c0,0-0.1,0-0.1,0C35.5,174.2,35.1,174.5,35.6,174.7L35.6,174.7L35.6,174.7L35.6,174.7z M35.5,179.5
		C35.4,179.5,35.4,179.5,35.5,179.5L35.5,179.5C35.5,179.5,35.5,179.5,35.5,179.5C35.5,179.5,35.5,179.5,35.5,179.5z M35.1,182.9
		C35.1,182.9,35.2,182.9,35.1,182.9C35.2,182.9,35.2,182.9,35.1,182.9C35.2,182.9,35.2,182.9,35.1,182.9
		C35.1,182.9,35.1,182.9,35.1,182.9z M35.2,184L35.2,184L35.2,184L35.2,184z M34.4,185.7C34.4,185.7,34.4,185.8,34.4,185.7
		c0.1,0,0.1,0,0.1,0C34.5,185.6,34.4,185.6,34.4,185.7C34.4,185.6,34.4,185.7,34.4,185.7z M34.2,183.1c0-0.1,0-0.1-0.1-0.2
		c-0.1,0-0.2,0-0.2,0.1c0,0.1,0,0.1,0.1,0.2C34.2,183.2,34.2,183.2,34.2,183.1z M34.6,186.9c0-0.1,0-0.2-0.1-0.2
		c-0.1,0-0.2,0.1-0.2,0.2c0,0.1,0,0.1,0.1,0.1C34.5,187,34.6,187,34.6,186.9z M35,186.3c-0.1-0.1-0.2,0-0.2,0l0,0l0,0h0c0,0,0,0,0,0
		C34.9,186.4,34.9,186.4,35,186.3C35,186.4,35,186.3,35,186.3z M35.2,187.2L35.2,187.2L35.2,187.2L35.2,187.2z M35.5,185.9
		c0-0.1-0.1-0.2-0.2-0.2c-0.1,0-0.1,0-0.1,0.1c0,0.1,0.1,0.1,0.2,0.2C35.4,186,35.4,186,35.5,185.9z M35.8,185L35.8,185L35.8,185
		c-0.1-0.1-0.1-0.2-0.2-0.2c-0.1-0.1-0.1-0.3-0.2-0.2c-0.1,0.1,0,0.3,0.1,0.4C35.5,185,35.6,185,35.8,185
		C35.8,185,35.8,185,35.8,185L35.8,185c0,0.1,0,0.2,0,0.3c0,0.1,0,0.3,0.1,0.3c0.1,0,0.1-0.2,0.1-0.4C36.1,184.9,35.9,185,35.8,185z
		 M35.9,172.4C35.9,172.3,36,172.3,35.9,172.4c0.1-0.1,0.1-0.1,0-0.2C35.9,172.2,35.9,172.2,35.9,172.4
		C35.8,172.3,35.9,172.3,35.9,172.4z M35.8,182.9L35.8,182.9L35.8,182.9L35.8,182.9z M36,171.3c0.2,0,0.3,0,0.3-0.2
		c0-0.1-0.1-0.1-0.2-0.1c-0.1,0-0.3,0.1-0.3,0.2C35.8,171.3,35.9,171.2,36,171.3z M35.8,184.4C35.8,184.4,35.8,184.4,35.8,184.4
		C35.9,184.4,35.9,184.4,35.8,184.4C35.8,184.4,35.8,184.4,35.8,184.4z M36.1,182.3L36.1,182.3L36.1,182.3L36.1,182.3z M36.4,184.4
		C36.4,184.4,36.4,184.4,36.4,184.4c0-0.1,0-0.1,0-0.1c0,0,0,0,0,0c0-0.1,0-0.2-0.1-0.2c0,0-0.1,0-0.1,0.1c0,0.1,0.1,0.1,0.2,0.2
		c0,0,0,0,0,0C36.3,184.3,36.3,184.3,36.4,184.4C36.3,184.4,36.3,184.4,36.4,184.4z M36.4,172.1c0.1,0,0.1,0,0.2-0.1
		c0-0.1,0-0.1-0.1-0.1c-0.1,0-0.1,0-0.2,0.1C36.3,172.1,36.4,172.1,36.4,172.1z M36.6,172.7C36.6,172.7,36.6,172.7,36.6,172.7
		C36.5,172.7,36.5,172.8,36.6,172.7C36.6,172.8,36.6,172.8,36.6,172.7C36.6,172.8,36.6,172.7,36.6,172.7z M37.3,185.9L37.3,185.9
		C37.3,185.9,37.3,185.9,37.3,185.9c-0.1,0-0.2,0-0.3,0c0,0,0,0,0,0l0,0c0-0.1,0-0.1-0.1-0.1c0,0-0.1,0-0.1,0c0,0,0.1,0.1,0.1,0.1
		l0,0c0,0,0,0,0,0C37.1,186,37.2,186.1,37.3,185.9L37.3,185.9z M37.7,185.1c0-0.2-0.1-0.3-0.3-0.3c-0.2,0-0.3,0-0.5,0c0,0,0,0,0,0
		l0,0l0,0c0,0.2-0.3,0.4,0.1,0.4c0.1,0,0.2,0.1,0.3,0.1c0.1,0,0.2,0.2,0.4,0.1C37.7,185.3,37.7,185.2,37.7,185.1z M37.5,171.8
		c0-0.1,0-0.2-0.1-0.2c-0.2,0-0.2,0.2-0.2,0.3c0,0.1,0.1,0.1,0.2,0.1C37.4,172,37.5,171.9,37.5,171.8z M37.4,172.7
		C37.4,172.7,37.4,172.7,37.4,172.7C37.4,172.7,37.4,172.7,37.4,172.7C37.4,172.7,37.4,172.7,37.4,172.7
		C37.4,172.6,37.4,172.7,37.4,172.7z M37.8,176.5C37.8,176.5,37.8,176.5,37.8,176.5C37.7,176.4,37.7,176.5,37.8,176.5
		C37.7,176.5,37.7,176.6,37.8,176.5C37.7,176.6,37.7,176.6,37.8,176.5z M37.9,186.6c0,0-0.1-0.1-0.1-0.1c0,0,0,0,0,0l0,0
		c0,0,0,0,0,0C37.8,186.6,37.8,186.7,37.9,186.6z M37.8,172.7C37.9,172.7,37.9,172.7,37.8,172.7l0-0.1
		C37.8,172.6,37.8,172.6,37.8,172.7C37.8,172.7,37.8,172.7,37.8,172.7z M38.1,170.3c0.1,0,0.2-0.1,0.2-0.1c0-0.1-0.1,0-0.1-0.1
		c-0.3-0.2-0.6-0.3-1-0.1c0,0,0,0,0,0h0c-0.1-0.1-0.2-0.1-0.2-0.2c0.2-0.8-0.5-1.1-0.8-1.6c0-0.1-0.2-0.1-0.3,0
		c-0.4,0.5,0.5,0.7,0.2,1.1c0,0,0,0.1,0,0.1c0.1,0,0.1,0,0.2,0c0.2-0.1,0.3,0,0.5,0.1c-0.3,0.3-0.6,0.6-0.8,0.9l0,0
		c-0.1,0-0.1,0-0.2,0c0,0,0,0,0,0c0.1,0.1,0.1,0,0.2,0l0,0l0,0l0,0c0,0.1,0.1,0.2,0.2,0.2c0.3-0.2,0.7-0.4,1-0.6l0,0l0,0
		C37.5,170.1,37.7,170.5,38.1,170.3z M38,180.5C38,180.5,38,180.5,38,180.5C38,180.5,38,180.5,38,180.5C38,180.5,38,180.5,38,180.5
		C38,180.5,38,180.5,38,180.5z M38.2,177.3c0-0.1-0.1-0.1-0.1-0.1c0,0-0.1,0-0.1,0.1c0,0,0.1,0.1,0.1,0.1
		C38.1,177.4,38.2,177.4,38.2,177.3z M38.2,183.5L38.2,183.5C38.2,183.5,38.1,183.5,38.2,183.5C38.1,183.5,38.1,183.5,38.2,183.5
		C38.1,183.5,38.1,183.6,38.2,183.5C38.1,183.5,38.1,183.5,38.2,183.5C38.2,183.5,38.2,183.5,38.2,183.5z M38.3,175.4
		C38.3,175.4,38.3,175.3,38.3,175.4C38.3,175.3,38.3,175.4,38.3,175.4L38.3,175.4C38.3,175.4,38.3,175.4,38.3,175.4z M38.4,171.9
		c0,0,0-0.1,0-0.1c0-0.1,0-0.2-0.2-0.2c0,0-0.1,0.1,0,0.1C38.2,171.7,38.3,171.8,38.4,171.9z M38.6,179.9c0,0,0-0.1-0.1-0.1
		c0,0-0.1,0-0.1,0.1C38.4,179.9,38.4,180,38.6,179.9C38.5,180,38.6,180,38.6,179.9z M38.8,170.1C38.8,170.1,38.9,170.2,38.8,170.1
		c0.1,0.1,0.2,0,0.2,0c0.1-0.1,0.2-0.3,0.1-0.4c-0.6-0.5-0.1-1.2-0.2-1.8c0,0,0,0,0,0c0,0,0,0,0,0c0,0,0,0,0.1,0H39c0,0,0,0,0,0
		c-0.5,0.3-0.4,0.9-0.4,1.4C38.6,169.5,39.1,169.7,38.8,170.1z M38.7,176.6L38.7,176.6L38.7,176.6L38.7,176.6z M38.7,184.8
		L38.7,184.8L38.7,184.8L38.7,184.8z M38.8,183.4c0,0,0,0.1,0,0.1c0,0,0,0,0,0l0,0c0,0,0,0,0,0C38.8,183.5,38.9,183.5,38.8,183.4z
		 M39.3,186.2C39.3,186.2,39.2,186.2,39.3,186.2c-0.1,0-0.1,0.1-0.1,0.1c0,0,0,0,0.1,0C39.3,186.3,39.3,186.2,39.3,186.2z M40,182.1
		C40,182.1,39.9,182.1,40,182.1c-0.1,0-0.2,0-0.2,0c0,0.1,0,0.1,0.1,0.1C39.9,182.2,40,182.2,40,182.1z M41.3,184.7
		C41.4,184.7,41.4,184.7,41.3,184.7c0-0.1,0-0.1,0-0.1C41.3,184.6,41.2,184.6,41.3,184.7C41.2,184.7,41.3,184.7,41.3,184.7z
		 M156.3,182.7c0.1,0.8-0.1,1.6-0.6,2.3c-0.2,0.3-0.4,0.5-0.6,0.8c-0.3-0.2-0.5-0.4-0.8-0.7l0,0l0,0l0,0h0c-0.3-0.1-0.3-0.3-0.4-0.6
		c-0.1-0.6-0.7,0.4-0.8-0.2c0,0-0.1,0-0.1,0.1c0,0.1,0,0.2,0,0.2c0.1,0.1,0.1,0.1,0.2,0.2c0.3,0.1,0.4,0.2,0.1,0.5
		c-0.1,0.1-0.2,0.1-0.1,0.2c0.2,0.3,0,0.5-0.1,0.7c-0.2,0.3-0.1,0.4,0.3,0.4c0.2,0,0.8-0.3,0.7,0.5c0,0,0,0.1,0,0.1c0,0,0,0,0,0.1
		c-0.4,0.6-0.7,1.3-1,2c-0.2,0.4-0.3,0.9-0.4,1.4c0,0,0,0,0,0c0,0,0-0.1-0.1-0.1c-0.1,0-0.1,0.1-0.1,0.2c0,0.1,0,0.2,0.1,0.2
		c0,0,0,0,0,0c0,0.2,0,0.5,0,0.7c-0.1-0.2-0.4-0.2-0.5-0.1c-0.4,0.3-0.9,0.2-1.3,0.2l0,0l0,0c0-0.1,0-0.2,0-0.3c0,0-0.1,0-0.1,0.1
		c0,0.1,0,0.2,0.1,0.2l0,0c0,0,0,0,0,0c0.5,0.4,0.9,0.7,1,1.4c0,0.2,0.3,0,0.4-0.1c0.2-0.1,0.5-0.1,0.6-0.3c0,0,0-0.1,0.1-0.1
		c0.2,0.7,0.6,1.4,0.8,2.1l0,0c-0.1,0-0.1,0.1-0.1,0.2c0.1,0.1,0.1,0.2,0.2,0.2c0.1,0.3,0.2,0.7,0.2,1l0,0c0,0,0,0.1-0.1,0.1
		c0,0,0,0,0,0l0,0c0,0-0.1,0-0.1,0c-0.1,0-0.1,0.1-0.2,0.1l0,0.1c0.1,0,0.1,0,0.2-0.1c0,0,0.1-0.1,0.1-0.1c0,0,0,0,0,0c0,0,0,0,0,0
		c0,0,0.1,0,0.1-0.1c0,0,0,0,0,0c0.6,0.8,0.3,1.8,0.5,2.7c0.2,1-0.1,1.4-0.9,1.8h-1.3c0-0.2-0.2-0.1-0.3-0.2c0,0,0,0,0,0
		c0,0,0,0,0,0c0,0-0.1-0.1-0.1-0.1c-0.1-0.1-0.1-0.1-0.2-0.1c0,0,0,0,0,0.1c0,0.1,0.1,0.1,0.2,0.2c0.1,0,0.1,0,0.2,0c0,0,0,0,0,0
		l0,0c0,0.1,0,0.1,0.1,0.1c-0.2-0.2-0.5-0.2-0.7,0c-0.1,0-0.2,0-0.3,0v0l-0.1,0h-0.1c-0.9-0.3-1.7-0.5-2.6-0.4c-1,0-1.9-0.1-2.9-0.5
		c-0.2-0.1-0.5-0.1-0.7-0.2c0-0.2,0.1-0.3,0.1-0.5c0,0,0-0.1,0-0.1c0,0-0.1,0-0.1,0c0,0.2-0.2,0.4-0.2,0.5c-0.2,0-0.4,0-0.6-0.1
		c-1.5-0.2-3.1-0.3-4.6-0.3c-0.5,0-0.9,0-1.4,0c-1.2-0.1-2.1-1.1-2.2-2.3c0-0.9,0.3-1.7,0.5-2.5c0.1-0.4,0.4-0.5,0.7-0.4
		c0.9,0.2,1.8,0.2,2.8,0.2c0.3,0,0.5,0.1,0.7,0.2c1.4,0.7,2.8,0.8,4.3,0.2c0.2-0.1,0.3-0.1,0.5-0.2c0,0,0.1,0,0.1,0
		c0.2-0.1,0.3,0,0.5,0.1c-0.3,0.3-0.5,0.6-0.8,0.9c0,0,0,0,0,0c-0.1,0-0.1,0-0.2,0c0,0,0,0,0,0c0.1,0.1,0.1,0,0.2,0h0c0,0,0,0,0,0
		l0,0c0,0.1,0.1,0.2,0.2,0.2c0.3-0.2,0.7-0.4,1-0.6c0,0,0,0,0,0c0,0,0,0,0,0c0.3,0.1,0.6,0.4,0.9,0.3c0.1,0,0.2-0.1,0.2-0.1
		c0-0.1-0.1,0-0.1-0.1c-0.3-0.2-0.6-0.3-1-0.1c0,0,0,0,0,0v0c-0.1-0.1-0.2-0.1-0.2-0.2c0.1-0.3,0-0.6-0.1-0.8c0.5-0.4,0.9-1,1.2-1.7
		c0.1-0.2,0.1-0.4,0.1-0.6c0-0.4,0.1-0.7,0.2-1.1c0,0,0,0,0.1,0c0.1,0,0.2-0.1,0.1-0.2c-0.1-0.3-0.2-0.6,0-0.9
		c0.1-0.1,0.2-0.2,0.1-0.3c-0.1-0.1-0.2,0-0.3,0.1c0,0,0,0,0,0c-0.1-0.2-0.1-0.3-0.2-0.5l0,0l0-0.1l0,0c-0.2-0.3-0.3-0.6-0.4-0.9
		c-0.2-0.9-0.5-1.7-0.9-2.5c-0.3-0.5-0.4-1.1-0.3-1.7c0-0.3,0.1-0.6,0.1-0.9c0-0.3,0.1-0.7,0.2-1c0.1,0.1,0.2,0.1,0.3,0.2
		c0.1,0,0.2,0,0.2-0.1c0-0.2-0.1-0.3-0.3-0.3c0,0-0.1,0-0.1,0c0.2-0.7,0.6-1.3,0.8-1.9c0.2-0.6,1.2-0.8,1.9-0.7
		c1.1,0.2,2.1,0.5,3.2,0.8c0.1,0,0.2,0.1,0.3,0.1c1.2-0.3,2,0.6,3,0.9C155.9,181.2,156.2,181.9,156.3,182.7z M147,187.5
		C147,187.5,147,187.5,147,187.5L147,187.5C147,187.5,147,187.5,147,187.5c-0.3,0.2-0.1,0.6-0.2,0.8c0,0,0,0.1,0.1,0.1
		c0.1,0,0.1-0.1,0.2-0.1C147.2,188.1,147.1,187.8,147,187.5z M147.2,186.9L147.2,186.9L147.2,186.9L147.2,186.9z M143,199.1
		L143,199.1L143,199.1L143,199.1z M144.3,198.8C144.3,198.8,144.3,198.7,144.3,198.8c-0.1-0.1-0.2-0.2-0.2-0.2
		c-0.1,0.2-0.3,0.5-0.4,0.7c0,0,0,0.1,0,0.1c0,0,0.1,0,0.1,0C143.9,199.1,144.3,199.1,144.3,198.8z M145,197.5
		C145,197.4,145,197.4,145,197.5c-0.1-0.1-0.1-0.1-0.1,0C144.9,197.5,144.9,197.5,145,197.5C144.9,197.5,145,197.5,145,197.5z
		 M145.3,196.3c0-0.1-0.1-0.1-0.2-0.1c-0.1,0-0.3,0.1-0.3,0.2c0,0.1,0.1,0.1,0.2,0.1C145.2,196.5,145.3,196.5,145.3,196.3z
		 M145.5,197.3c0.1,0,0.1,0,0.2-0.1c0-0.1,0-0.1-0.1-0.1c-0.1,0-0.1,0-0.2,0.1C145.3,197.2,145.4,197.3,145.5,197.3z M145.6,197.9
		C145.6,197.9,145.6,197.8,145.6,197.9C145.5,197.9,145.5,197.9,145.6,197.9C145.6,197.9,145.6,198,145.6,197.9
		C145.6,197.9,145.6,197.9,145.6,197.9z M146.4,197.9C146.4,197.9,146.4,197.8,146.4,197.9C146.4,197.8,146.4,197.8,146.4,197.9
		C146.4,197.8,146.4,197.9,146.4,197.9C146.4,197.9,146.4,197.9,146.4,197.9z M146.5,196.9c0-0.1,0-0.2-0.1-0.2
		c-0.2,0-0.2,0.2-0.2,0.3c0,0.1,0.1,0.1,0.2,0.1C146.4,197.1,146.5,197.1,146.5,196.9z M146.9,197.8L146.9,197.8c-0.1,0-0.1,0-0.1,0
		C146.8,197.8,146.8,197.9,146.9,197.8C146.9,197.9,146.9,197.8,146.9,197.8z M147.2,192.2c0,0.1,0,0.2,0.1,0.2
		c0.1,0,0.1-0.1,0.1-0.2c0-0.1,0-0.1-0.1-0.2C147.2,192,147.2,192.1,147.2,192.2z M147.3,193.4c0.1-0.2,0-0.3-0.1-0.4c0,0,0,0,0,0
		l0,0c0,0,0,0,0,0c0,0.1-0.1,0.3,0,0.4C147.2,193.4,147.3,193.4,147.3,193.4z M147.4,196.9c0-0.1,0-0.2-0.2-0.2c0,0-0.1,0.1,0,0.1
		c0,0.1,0.1,0.2,0.2,0.2C147.4,197,147.4,197,147.4,196.9z M154.2,197.4C154.2,197.5,154.2,197.5,154.2,197.4c0.1,0.1,0.1,0,0.1,0
		C154.3,197.4,154.3,197.4,154.2,197.4C154.2,197.4,154.2,197.4,154.2,197.4z M152,199.9C152,199.9,152,199.8,152,199.9
		c-0.1-0.1-0.1,0-0.1,0C151.9,199.9,151.9,200,152,199.9C152,200,152,199.9,152,199.9z M152.4,198.7c-0.2-0.2-0.5-0.4-0.8-0.7
		c0,0,0,0,0,0l0,0c0,0,0,0,0,0c0.1,0.3,0.2,0.7,0.6,0.9c0.1,0,0.2,0,0.2-0.1C152.5,198.8,152.5,198.8,152.4,198.7z M152.8,197.4
		C152.8,197.4,152.8,197.4,152.8,197.4C152.8,197.4,152.8,197.4,152.8,197.4L152.8,197.4C152.7,197.4,152.8,197.4,152.8,197.4
		L152.8,197.4C152.8,197.4,152.8,197.4,152.8,197.4z M153,199C153.1,199,153.1,199.1,153,199c0.1,0.1,0.1,0.1,0.1,0.1c0,0,0,0,0.1,0
		c0.1,0,0.2,0,0.3,0c0,0,0,0,0,0c0,0,0,0,0,0c0,0,0.1-0.1,0-0.1c0,0,0,0.1,0,0.1l0,0c0,0,0,0,0,0c-0.1,0-0.2,0-0.3,0c0,0,0,0,0,0
		C153.1,199.1,153.1,199.1,153,199C153.1,199,153.1,199,153,199C153,199,153,199,153,199z M152.9,194.8
		C152.9,194.8,152.9,194.8,152.9,194.8C152.9,194.9,152.9,194.9,152.9,194.8C152.9,194.8,152.9,194.8,152.9,194.8z M152.7,193.7
		L152.7,193.7L152.7,193.7L152.7,193.7z M151.6,194.7c0.3,0.2,0.7,0,0.8-0.4c0,0,0,0,0,0l0,0c0.1,0,0.1,0,0.2,0c0.1,0,0.2,0.1,0.3,0
		c0,0,0-0.1,0-0.1c-0.1-0.1-0.2-0.1-0.2-0.1c-0.1,0-0.1,0.1-0.2,0.1l0,0v0c-0.1-0.1-0.2-0.2-0.3-0.3c-0.2-0.4-0.3-0.1-0.4,0
		c-0.1,0.1,0,0.3-0.2,0.5C151.5,194.6,151.5,194.6,151.6,194.7z M151.2,195.1c-0.1-0.1-0.2,0.1-0.1,0.2c0.2,0.6,0.5,1.2,0.5,1.8
		c0,0.1,0.1,0.1,0.1,0.1c0.1,0,0.1-0.1,0.1-0.1c-0.1-0.5,0.4-0.8,0.4-1.2c0-0.2,0.1-0.4,0.4-0.4l0,0c0,0,0,0,0,0c0,0,0,0.1,0,0.1
		c0,0.1,0.1,0.2,0.2,0.2c0,0,0.1,0,0.1,0c0-0.1-0.1-0.2-0.2-0.2c0,0-0.1,0-0.1,0c0,0,0,0,0,0c0,0,0,0,0,0
		C152.2,195.1,151.6,195.4,151.2,195.1z M151,193c0,0.1,0,0.3,0.2,0.3c0.1,0,0.2-0.1,0.2-0.2c0-0.2-0.2-0.2-0.3-0.3
		C151,192.8,151,192.9,151,193z M150.9,198C150.9,198,150.9,198,150.9,198C150.9,198,150.9,198,150.9,198
		C150.9,198,150.9,198,150.9,198C150.9,198.1,150.9,198.1,150.9,198C150.9,198.1,150.9,198,150.9,198z M150.8,193.9
		C150.8,193.9,150.8,193.9,150.8,193.9C150.9,193.9,150.9,193.9,150.8,193.9C150.9,193.9,150.9,193.9,150.8,193.9z M151.6,185.3
		C151.6,185.4,151.6,185.4,151.6,185.3c0.2,0.1,0.2,0,0.1,0C151.7,185.3,151.7,185.2,151.6,185.3
		C151.6,185.2,151.5,185.3,151.6,185.3z M151.2,182.5L151.2,182.5C151.2,182.5,151.2,182.5,151.2,182.5L151.2,182.5
		C151.2,182.5,151.3,182.5,151.2,182.5C151.3,182.5,151.2,182.5,151.2,182.5C151.2,182.5,151.2,182.5,151.2,182.5L151.2,182.5z
		 M151.1,185.4C151.1,185.5,151.1,185.5,151.1,185.4c0,0.1,0,0.1,0,0.1c0,0,0,0,0,0c0.1,0.5,0.7,0.4,0.9,0.6
		c0.1,0.1,0.1,0.2,0.2,0.2c0.1-0.1,0.1-0.2,0.1-0.3c-0.1-0.1-0.2-0.3-0.3-0.3c-0.3,0-0.6-0.2-0.9-0.2c0,0,0,0,0,0
		C151.2,185.5,151.2,185.5,151.1,185.4C151.2,185.5,151.2,185.4,151.1,185.4z M151.9,188.9c-0.1-0.1-0.3-0.1-0.4-0.2
		c-0.1,0-0.1,0,0,0.1C151.6,188.9,151.7,188.9,151.9,188.9C151.9,189,151.9,188.9,151.9,188.9z M150.6,184.5L150.6,184.5
		L150.6,184.5L150.6,184.5z M150.5,187.9c0.1,0,0.1-0.1,0.1-0.2c0-0.1,0-0.1,0-0.2l0,0l0,0c0.1,0.1,0.3,0.2,0.2,0.4
		c0,0.1,0,0.3,0.1,0.4c0.2,0.1,0.3-0.1,0.4-0.2c0.4-0.2,0.2-0.6,0.2-0.9l0,0l0,0c0.1-0.4,0-0.6-0.4-0.6l0,0c0,0,0,0,0,0
		c-0.2-0.2-0.4,0-0.5,0l0,0c0,0,0,0,0,0l0,0c-0.1,0-0.1,0,0,0l0,0c0,0,0,0,0,0l0,0c0,0.3,0.1,0.4,0.4,0.2c0.1-0.1,0.1-0.1,0.2-0.2
		l0,0l0,0c0,0.3,0.2,0.4,0.4,0.6l0,0c0,0,0,0,0,0c-0.4,0-0.7,0.3-1,0.4c0,0,0,0,0,0c0,0,0,0,0,0c0,0-0.1,0.1-0.1,0.1
		C150.4,187.7,150.4,187.9,150.5,187.9z M149.9,183c0.1,0,0.1,0.1,0.2,0.1c0,0,0,0,0,0c0,0,0,0,0,0c0,0.1,0,0.1,0.1,0.1
		c0,0-0.1-0.1-0.1-0.1c0,0,0,0,0-0.1c0,0,0,0,0,0C150.1,183,150.1,182.9,149.9,183C149.9,182.9,149.9,183,149.9,183z M150.1,187.1
		C150.1,187.1,150.1,187.1,150.1,187.1c-0.1,0.2,0,0.2,0.1,0.2c0.1,0,0.2,0,0.1-0.1C150.3,187.1,150.2,187.1,150.1,187.1z
		 M149.5,189c-0.2,0.5-0.8,0.7-0.7,1.2l0,0l0,0v0c0.2,0.1,0.3,0.2,0.1,0.4c-0.3,0.2-0.3,0.2,0,0.5l0,0c0.1,0.1,0.2,0.2,0.4,0.3
		c0.3,0.1,0.7,0.3,0.6-0.3c0-0.1,0.1-0.2,0.2-0.2c0.1,0,0.4,0.2,0.4-0.1c0-0.2-0.2-0.2-0.4-0.3c-0.2-0.2-0.4-0.2-0.6-0.1
		c-0.1,0-0.2,0-0.3-0.2c0-0.1,0.1-0.2,0.1-0.3C149.5,189.6,149.5,189.3,149.5,189C149.6,189,149.6,188.9,149.5,189z M150.1,192.4
		C150.1,192.4,150.1,192.5,150.1,192.4c0.1,0,0.2,0,0.2-0.1c0-0.1-0.1-0.1-0.1,0C150.1,192.3,150.1,192.4,150.1,192.4z M150.1,191.8
		C150.1,191.8,150.1,191.8,150.1,191.8C150.2,191.8,150.2,191.8,150.1,191.8C150.2,191.8,150.2,191.7,150.1,191.8
		C150.1,191.7,150.1,191.7,150.1,191.8z M149,191.8c0.1,0.1,0.2,0.2,0.3,0.1c0.1-0.1,0-0.2-0.2-0.3c-0.1-0.1-0.2,0-0.3,0
		c0,0,0,0,0,0l0,0h0C148.8,191.7,148.9,191.8,149,191.8z M148.8,192c-0.1,0-0.2,0-0.3,0.2c0,0.1,0,0.1,0.1,0.1c0.1,0,0.2,0,0.3-0.2
		C148.9,192.1,148.9,192,148.8,192z M149.2,192.4c0,0,0,0.1,0,0.1c0,0,0.1,0,0.1-0.1c0,0,0,0,0-0.1
		C149.2,192.4,149.2,192.4,149.2,192.4z M149.2,187.7c0,0.1,0.1,0.1,0.1,0.1c0,0,0-0.1,0-0.1c0-0.1-0.1-0.1-0.1-0.1
		C149.2,187.6,149.2,187.7,149.2,187.7z M149.2,188.8c-0.2,0-0.3,0.1-0.3,0.3c0,0.1,0,0.1,0.1,0.1C149,189.1,149.1,189,149.2,188.8
		C149.1,188.9,149.1,188.8,149.2,188.8C149.2,188.8,149.2,188.8,149.2,188.8L149.2,188.8L149.2,188.8z M147.7,188.2
		C147.7,188.2,147.6,188.1,147.7,188.2c-0.1-0.1-0.1-0.1-0.1,0C147.5,188.2,147.6,188.3,147.7,188.2
		C147.6,188.3,147.6,188.2,147.7,188.2z M148.3,182.3c0.2-0.1,0.6,0.2,0.8-0.3c0.1-0.4-0.1-0.7-0.4-0.9c-0.3-0.2-0.6-0.2-0.9-0.1
		c-0.2,0.1-0.4,0.7-0.3,1C147.6,182.4,148,182.3,148.3,182.3z M148.2,189.5c0.2-0.1,0.2-0.3,0.2-0.5c-0.1-0.2-0.2-0.3-0.4-0.3
		c-0.2,0.1-0.1,0.3,0,0.4C148,189.3,148.1,189.3,148.2,189.5L148.2,189.5C148.2,189.5,148.2,189.5,148.2,189.5c0,0.1,0,0.1-0.1,0.1
		c0,0,0,0.1-0.1,0.1l0,0c0-0.1,0.1-0.1,0.1-0.2C148.2,189.6,148.2,189.5,148.2,189.5L148.2,189.5
		C148.2,189.5,148.2,189.5,148.2,189.5z M147.9,187.6c0,0.1,0,0.3,0.1,0.3c0.1,0,0.2,0,0.2-0.1c0-0.1,0-0.3-0.1-0.3
		C148,187.5,147.9,187.5,147.9,187.6z M148,186.2L148,186.2L148,186.2L148,186.2z M147.7,192.2L147.7,192.2
		C147.7,192.1,147.8,192.2,147.7,192.2z M147.7,187.1L147.7,187.1L147.7,187.1L147.7,187.1z M147.6,194.4c0,0.3,0.5,0.5,0.2,0.8
		c0,0,0.1,0.1,0.1,0.1c0,0,0.1,0,0.1-0.1c0.1-0.1,0.2-0.3,0.1-0.4c-0.6-0.5-0.1-1.2-0.2-1.7c0,0,0,0,0,0l0,0c0,0,0,0,0.1,0
		c0,0-0.1,0-0.1,0l0,0C147.5,193.4,147.6,194,147.6,194.4z M148.2,196.3c0-0.1-0.1-0.1-0.1-0.1c-0.2,0-0.3,0.2-0.3,0.3
		c0,0.1,0,0.2,0.1,0.1C148,196.6,148.1,196.4,148.2,196.3z M148.2,199.8C148.2,199.8,148.2,199.8,148.2,199.8
		C148.2,199.8,148.2,199.9,148.2,199.8C148.2,199.8,148.2,199.8,148.2,199.8z M148.3,196.8C148.3,196.8,148.3,196.8,148.3,196.8
		C148.3,196.8,148.3,196.8,148.3,196.8c0-0.1,0-0.2-0.1-0.1C148.2,196.7,148.3,196.7,148.3,196.8
		C148.3,196.8,148.3,196.8,148.3,196.8C148.3,196.8,148.3,196.8,148.3,196.8c0,0.1,0,0.2-0.1,0.3c0,0.1-0.2,0.2,0,0.3
		c0.2,0.1,0.2-0.1,0.3-0.2C148.6,197,148.5,196.9,148.3,196.8z M148.6,192.7C148.6,192.7,148.6,192.7,148.6,192.7
		C148.6,192.6,148.6,192.6,148.6,192.7C148.6,192.6,148.6,192.6,148.6,192.7C148.5,192.6,148.5,192.7,148.6,192.7z M148.8,195.1
		c0-0.1,0-0.2-0.1-0.3c-0.1,0-0.1,0-0.1,0.1c0,0.1,0,0.2,0.1,0.3C148.8,195.2,148.8,195.1,148.8,195.1z M149.3,194.1
		c0-0.1-0.3-1-0.4-1.1c0,0,0,0-0.1,0c-0.1,0-0.2,0.2-0.1,0.3c0,0.2,0.2,0.4,0,0.7c-0.1,0.1-0.1,0.3,0.1,0.3
		C148.9,194.3,149.2,194.4,149.3,194.1z M149.3,199.1C149.3,199,149.2,199,149.3,199.1c-0.1-0.1-0.2-0.1-0.2-0.1
		C149.1,199.1,149.1,199.1,149.3,199.1C149.2,199.1,149.3,199.1,149.3,199.1z M149.3,196.7C149.3,196.7,149.3,196.7,149.3,196.7
		c-0.1-0.1-0.1-0.1-0.1,0C149.2,196.7,149.2,196.8,149.3,196.7C149.2,196.8,149.3,196.7,149.3,196.7z M149.3,195.3
		c0-0.1,0-0.3-0.1-0.3c-0.3,0-0.1,0.2-0.2,0.4c0,0.1-0.1,0.3,0.1,0.3C149.3,195.6,149.3,195.4,149.3,195.3z M149.8,196
		c0.2,0,0.3-0.1,0.4-0.3c0.1-0.1,0-0.3,0-0.4c0-0.5-0.2-1.1-0.2-1.6l0,0l0,0c0.1,0,0.1,0,0.2-0.1l0,0c0,0-0.1,0.1-0.1,0.1
		c0,0,0,0,0,0c0,0,0,0,0,0c-0.2,0.3-0.4,0.7-0.3,1c0.2,0.3,0.1,0.6,0.1,0.9C149.8,195.7,149.7,195.9,149.8,196z M150.6,199.5
		c-0.1-0.3,0-0.6-0.2-0.9c-0.1-0.1,0.1-0.3,0-0.3c-0.2,0-0.1,0.2-0.2,0.3c-0.1,0.1-0.1,0.2-0.1,0.4c0.1,0.2,0,0.5,0.1,0.7
		c0,0.1,0.2,0.2,0.3,0.1C150.5,199.7,150.7,199.7,150.6,199.5z M150.6,195.9C150.6,195.9,150.6,195.9,150.6,195.9
		C150.6,195.9,150.6,195.9,150.6,195.9L150.6,195.9z M150.6,192.6C150.5,192.6,150.5,192.6,150.6,192.6c-0.1,0.1-0.1,0.1,0,0.1
		C150.6,192.7,150.6,192.7,150.6,192.6C150.6,192.6,150.6,192.6,150.6,192.6z M152.3,190c0-0.2-0.2-0.1-0.3-0.1
		c-0.2,0-0.2-0.1-0.1-0.3c0.3-0.3-0.1-0.3-0.2-0.3c-0.5,0.2-0.8,0-1.1-0.4h0c0,0,0,0,0,0c0.1,0,0.1,0,0.1-0.1c0,0-0.1,0.1-0.1,0.1
		c0,0,0,0,0,0l0,0c-0.2,0.1-0.5,0.2-0.6,0.4c-0.2,0.3,0.4,0.2,0.4,0.6c0,0.3,0.2,0.3,0.3,0c0.1-0.2,0.3-0.3,0.5-0.2
		c0.1,0.1,0,0.3,0,0.5c0,0.1,0,0.1-0.1,0.2c0,0-0.1,0-0.1,0l0,0l0,0h0c0.1,0.4,0.5,0.6,0.5,1c0,0,0.1,0.1,0.2,0.1
		c0.1,0,0.2-0.1,0.1-0.1c-0.2-0.3,0-0.7-0.4-0.9c0.3-0.2,0.4,0,0.5,0.2c0,0.1,0.2,0.2,0.3,0.1C152.1,190.4,152.3,190.2,152.3,190z
		 M152.4,187.5C152.4,187.5,152.3,187.4,152.4,187.5c-0.2-0.1-0.2,0-0.2,0.1c0,0,0.1,0.1,0.1,0.1
		C152.4,187.6,152.4,187.6,152.4,187.5z M153.2,187.8C153.2,187.8,153.2,187.9,153.2,187.8C153.3,187.8,153.3,187.8,153.2,187.8
		C153.3,187.7,153.2,187.7,153.2,187.8C153.2,187.7,153.2,187.8,153.2,187.8z M152.7,186.8C152.7,186.8,152.7,186.8,152.7,186.8
		C152.7,186.8,152.8,186.8,152.7,186.8C152.8,186.8,152.8,186.8,152.7,186.8z M152.9,189.1c0,0-0.1,0-0.1,0c0,0,0,0-0.1,0
		c0,0,0,0,0,0c0-0.1,0-0.1,0-0.2c0-0.1,0.1-0.2-0.1-0.2c0,0.1,0,0.1,0,0.2c0,0.1,0,0.1,0,0.2c0,0,0,0,0,0c0,0,0.1,0,0.1,0
		C152.8,189.2,152.9,189.2,152.9,189.1z M153.2,181.4c0-0.1-0.1-0.1-0.1-0.1c-0.1,0-0.1,0.1-0.1,0.1c0,0.1,0,0.1,0.1,0.1
		C153.2,181.6,153.2,181.5,153.2,181.4z M153.8,181.7C153.8,181.8,153.8,181.8,153.8,181.7C153.8,181.8,153.8,181.8,153.8,181.7
		C153.9,181.7,153.8,181.7,153.8,181.7C153.8,181.7,153.8,181.7,153.8,181.7z M154.6,182.2c0,0-0.1-0.1-0.1-0.1
		c-0.1,0-0.2,0-0.2-0.1c-0.1,0-0.1,0-0.1,0c-0.3,0.2-0.7-0.1-0.8,0.3c0,0.1,0.5,0.1,0.7,0.4c0.1,0.1,0.2,0.1,0.2-0.1
		c-0.1-0.3,0-0.3,0.2-0.3C154.5,182.4,154.6,182.3,154.6,182.2z M152.6,192.2c0,0,0.1,0,0.1,0c0-0.1-0.1-0.2-0.1-0.3
		C152.6,192,152.6,192.1,152.6,192.2z M88.4,187.1L88.4,187.1L88.4,187.1C88.4,187.1,88.4,187.1,88.4,187.1z M138.3,192.3
		c-1.4-0.4-2.9-0.3-4.2-1c-0.4-0.2-0.9-0.3-1.4-0.3c-1.1-0.1-2.2-0.2-3.3-0.5c-0.6-0.2-1.4-0.2-2,0c-0.5,0.2-0.9,0.1-1.3,0
		c-0.9-0.3-1.8-0.6-2.8-0.1c-0.2,0.1-0.5,0.1-0.7,0c-1.2-0.3-2.5-0.2-3.8-0.1c-0.8,0-1.5-0.1-2.3,0.2c-0.2,0.1-0.5,0.1-0.7,0
		c-1.5-0.2-3,0-4.5,0.3c-0.7,0.1-1.4,0-2.1,0c-0.9,0-1.8,0.1-2.8,0.2c-1.2,0.2-2.4,0.3-3.6,0.4c-0.3,0-0.6,0-0.9,0.2
		c-0.3,0.2-0.6,0.2-0.9,0.1c-0.8-0.1-1.6-0.2-2.3,0.1c-0.9,0.3-1.8,0.1-2.7,0.3c-0.4,0.1-0.8,0.1-1.2,0.3c-0.1,0.1-0.3,0.1-0.4,0.1
		c-1.6-0.1-3.1,0.5-4.7,0.6c-0.9,0-1.8,0-2.7,0.2c-1.7,0.3-3.4,0.6-5.1,0.8c-0.7,0.1-1.4,0.3-2.2,0.4c-1.5,0.1-2.9,0.1-4.4,0.3
		c-0.4,0.1-0.9,0.1-1.3,0.3c-0.1,0.1-0.3,0.1-0.5,0.1c-1.1-0.2-2.3,0.1-3.4,0.3c-0.5,0.1-0.9,0.1-1.4,0.1c-0.8,0-1.6,0-2.3,0.2
		c-0.9,0.3-1.9,0.1-2.8,0.3c-1.8,0.2-3.6,0.1-5.5,0c-0.9-0.1-1.8-0.1-2.7,0c-0.2,0-0.4,0.1-0.5,0.1c0.1-0.1,0.1-0.1,0.2-0.2
		c0.4-0.3,0.1-0.6,0-0.8c-0.1-0.2-0.2,0.1-0.3,0.2c-0.1,0-0.2,0.1-0.3,0c-0.2-0.3-0.3-0.1-0.4,0.1c-0.1,0.1-0.1,0.2-0.2,0.3
		c-0.1-0.1-0.2-0.1-0.2-0.2c0.1-0.5-0.2-0.3-0.4-0.3c-0.3,0.1-0.6,0.3-0.8-0.2c0-0.1-0.1-0.1-0.2-0.1c-0.1,0-0.1,0.1-0.1,0.2
		c0.2,0.3,0.1,0.4-0.1,0.7c-0.2,0.2,0,0.3,0.1,0.3c-0.1,0-0.1,0-0.2,0.1c-0.4,0.1-0.7,0.1-1.1,0l0,0l0,0c0,0,0,0,0,0
		c0.1,0,0.2,0,0.2,0c0.2,0,0.3-0.1,0.3-0.3c0,0,0-0.1,0-0.1c-0.2-0.1-0.3,0.1-0.4,0.2c-0.1,0.1-0.1,0.1-0.1,0.2c0,0,0,0,0,0
		c0,0,0,0,0,0c-0.1,0-0.1,0-0.2,0c-0.1,0-0.2-0.1-0.3-0.1c-0.3-0.1-0.6-0.2-1-0.2c0,0,0-0.1,0-0.1c-0.1-0.2,0.1-0.5-0.2-0.6
		c-0.1-0.1-0.4,0.1-0.4,0.3c0,0.2,0.2,0.3,0.4,0.4c-0.3,0-0.5,0-0.8,0c-0.3,0-0.6,0-0.8-0.1c0-0.3,0-0.6,0.6-0.4
		c0.2,0.1,0.2-0.4,0.2-0.6c-0.1-0.3-0.2,0.1-0.3,0c-0.3-0.1-0.6-0.3-0.7-0.5c-0.1-0.2,0.2-0.3,0.3-0.4c0.1,0,0.1-0.1,0.1-0.2
		c0,0-0.1,0-0.2,0c-0.1,0-0.2,0.1-0.3,0.2c-0.2,0.4-0.6,0.6-1,0.8l0,0c0,0,0,0,0,0l0,0l0,0c-0.1,0.3-0.4,0.2-0.7,0.2
		c-0.2,0-0.3,0.1-0.2,0.2c-0.6-0.1-1.2-0.2-1.8-0.4c0.1-0.1,0.1-0.2,0.2-0.3c0.1,0,0.1-0.2,0-0.2c-0.3,0.1-0.3,0-0.2-0.3
		c0-0.1,0.1-0.2-0.1-0.2c0,0-0.1,0.1-0.2,0.1c-0.1,0.1-0.1,0.2-0.1,0.2c0,0.1,0,0.1,0,0.1c0,0.1,0,0.3,0,0.5
		c-0.8-0.2-1.6-0.5-2.1-1.2c-0.4-0.5-0.4-0.9-0.2-1.5c0.1-0.3,0.2-0.5,0.4-0.8c1.1-1.8,1.7-3.8,2.2-5.8c0.3-1,0.1-2.1-0.4-3
		c-0.8-1.6-1.3-3.3-1.8-5c-0.5-1.7,1.1-3.4,2.7-3.1c1.1,0.2,2.2,0.4,3.3,0.4c0.7,0,1.3,0.1,2,0c0.4-0.1,0.9-0.1,1.3,0.1
		c0.5,0.2,1.1,0.2,1.7,0.1c0.6-0.1,1.3-0.1,1.9,0c0.8,0.1,1.5,0,2.3,0c0.5,0,1,0,1.5-0.1c0.7-0.2,1.4,0,2.1,0c1.1,0.1,2.2,0,3.3-0.1
		c1.4-0.2,2.7-0.2,4.1-0.3c0.9-0.1,1.8-0.3,2.7-0.3c0.3,0,0.5,0,0.8,0.1c0.5,0.3,1,0.2,1.5,0.2c0.8-0.1,1.7-0.3,2.5-0.5
		c1.6-0.4,3.2-0.6,4.8-0.5c2.3,0.1,4.5-0.3,6.7-0.5c1.6-0.2,3.3-0.3,4.9-0.6c1.9-0.3,3.8-0.4,5.6-0.8c0.7-0.2,1.5-0.1,2.3-0.2
		c2-0.3,4.1-0.2,6.2-0.5c0.9-0.1,1.8-0.2,2.7-0.2c0.1,0.3,0.3,0.5,0.4,0.5c0.2,0.1,0.4,0,0.5-0.2c0.1-0.2,0-0.3-0.1-0.4
		c0.5-0.1,1.1-0.1,1.6-0.2c0.3,0,0.5-0.1,0.8-0.2c0.2-0.1,0.3-0.1,0.5-0.1c0.9,0.1,1.7,0.2,2.6-0.1c0.2-0.1,0.5-0.1,0.7,0
		c0.6,0.3,1.3,0.2,1.9-0.1c0.2-0.1,0.4-0.2,0.7-0.1c1,0.1,2,0,3,0c0,0,0,0,0.1,0c0.1,0,0.1,0,0.1,0c0.8,0,1.5,0,2.3,0.2
		c0.4,0.1,0.7,0.1,1.1,0c1.1-0.3,2.1-0.3,3.2-0.2c-0.2,0.3-0.4,0.5-0.3,0.9c0,0,0,0,0,0v0c-0.1,0.1-0.2,0.1-0.2,0.1
		c-0.7-0.4-1.2,0.3-1.8,0.4c-0.1,0-0.2,0.2,0,0.3c0.4,0.4,0.8-0.4,1.1,0.1c0,0,0.1,0,0.1,0c0-0.1,0-0.1,0-0.2c0-0.2,0.1-0.3,0.2-0.4
		c0.2,0.3,0.5,0.7,0.7,1v0c0,0.1-0.1,0.1-0.1,0.2c0,0,0,0,0,0c0.1-0.1,0.1-0.1,0.1-0.2c0,0,0,0,0,0l0,0v0c0.1,0,0.2,0,0.2-0.1
		c-0.1-0.4-0.3-0.7-0.4-1.1c0,0,0,0,0,0l0,0c0.1-0.3,0.5-0.4,0.5-0.9v0c0.1,0,0.3,0,0.4,0c0.4,0,0.8,0.4,1.3,0.4
		c1.5,0.1,3.1,0.3,4.6,0.5c2.4,0.3,4.7,1,7,1.7c0.5,0.1,0.9,0.3,1.4,0.4c0.4,0.1,0.8,0.3,1.2,0.2c0.3-0.1,0.6,0,0.9,0.2
		c0.1,0.1,0.3,0.3,0.4,0.4c0,0.1-0.1,0.2-0.1,0.2c-0.2,0.1-0.2-0.1-0.2-0.3c0-0.1-0.1-0.2-0.1-0.2c-0.1,0-0.1,0.1-0.2,0.2
		c-0.2,0.4,0.3,0.5,0.4,0.8c0.1,0.2,0.2-0.2,0.3-0.2c0.1,0,0.2-0.1,0.3-0.1c0,0.1,0.1,0.1,0.1,0.2l0,0c0,0.1,0,0.1,0,0.2
		c0,0,0,0,0.1,0c0.1,0.2,0.2,0.4,0.3,0.6c0.2,0.7,0,1.3-0.2,1.9c-0.3,1.3-0.7,2.7-1.3,3.9c0,0.1,0,0.1-0.1,0.2c-0.8,1-0.9,2.2-1,3.4
		c-0.1,0.7,0.3,1.3,0.6,1.8c0.3,0.5,0.5,1,0.6,1.5c0.2,0.9,0.3,1.7,0.7,2.5c0.2,0.3,0.2,0.6,0.1,0.9c-0.2,1-0.8,1.7-1.7,2.2
		c-0.1,0-0.2,0.1-0.3,0.1c-0.9-0.1-1.8,0-2.6-0.4c-0.7-0.3-1.4-0.5-2.1-0.4C138.4,192.3,138.3,192.4,138.3,192.3z M145.4,175.1
		C145.4,175.1,145.4,175.1,145.4,175.1C145.5,175.1,145.5,175.1,145.4,175.1C145.5,175.1,145.4,175.1,145.4,175.1
		C145.4,175.1,145.4,175.1,145.4,175.1z M144.9,175.4C144.9,175.4,145,175.4,144.9,175.4c0.2-0.2,0.1-0.4,0.1-0.6c0,0,0,0,0,0l0,0
		c0.1,0,0.1-0.1,0.2-0.1l0,0c-0.1,0-0.1,0.1-0.2,0.1v0C144.9,174.9,144.8,175.1,144.9,175.4z M144.1,176.6
		C144.1,176.6,144.1,176.6,144.1,176.6L144.1,176.6C144.1,176.6,144.1,176.6,144.1,176.6z M143.6,176.2L143.6,176.2L143.6,176.2
		L143.6,176.2z M143.5,173.5L143.5,173.5L143.5,173.5c0.1,0,0.2,0,0.1-0.1C143.6,173.3,143.5,173.4,143.5,173.5
		C143.5,173.5,143.5,173.5,143.5,173.5z M140.6,178.4C140.6,178.4,140.6,178.4,140.6,178.4C140.6,178.4,140.6,178.4,140.6,178.4
		c0.1-0.1,0-0.1,0-0.1C140.5,178.4,140.5,178.4,140.6,178.4z M140.6,176.2C140.6,176.2,140.6,176.1,140.6,176.2
		C140.6,176.1,140.6,176.1,140.6,176.2C140.6,176.1,140.5,176.1,140.6,176.2C140.5,176.2,140.6,176.2,140.6,176.2z M140.7,187.9
		C140.7,187.9,140.6,187.9,140.7,187.9c-0.1,0-0.1,0-0.1,0c0,0.1,0,0.1,0.1,0.1C140.7,188,140.7,188,140.7,187.9z M141.1,175
		C141.1,174.9,141,174.9,141.1,175C141,174.9,141,175,141.1,175C141,175,141.1,175,141.1,175z M142,176.6
		C142,176.5,142,176.5,142,176.6c-0.1,0-0.1,0-0.1,0C141.9,176.6,142,176.6,142,176.6C142,176.6,142.1,176.6,142,176.6z
		 M142.8,176.1C142.8,176.1,142.7,176.1,142.8,176.1c-0.1,0-0.1,0.1-0.1,0.2l0,0l0,0l0,0v0C142.7,176.3,142.8,176.2,142.8,176.1z
		 M143,176.7c0,0.1,0,0.2,0.1,0.2c0.1,0,0.1,0,0.2-0.1c0-0.1,0-0.2-0.1-0.2C143.1,176.6,143.1,176.6,143,176.7z M142.6,174.2
		c0,0,0.1-0.1,0.1-0.1h0c0,0,0,0,0,0c0.1-0.1,0.2-0.1,0-0.3c0,0,0,0,0,0l0,0c0,0,0,0,0,0c0,0.1,0,0.2,0,0.3c0,0,0,0,0,0c0,0,0,0,0,0
		C142.7,174.1,142.6,174.1,142.6,174.2C142.5,174.2,142.6,174.2,142.6,174.2z M142.4,175.6c-0.1,0-0.2,0-0.2,0.2
		c0,0.1,0,0.1,0.1,0.2c0.1,0,0.2-0.1,0.2-0.1C142.5,175.7,142.5,175.6,142.4,175.6z M141.6,174L141.6,174L141.6,174
		c0.2,0.1,0.3,0.4,0.4,0c0-0.1,0.1-0.1,0.2-0.2c0.1-0.1,0.2-0.2,0.2-0.3c0-0.1-0.2-0.1-0.3-0.1c-0.2,0-0.3,0-0.4,0.2
		C141.7,173.7,141.7,173.8,141.6,174C141.6,174,141.6,174,141.6,174z M141.4,175.2c-0.1,0-0.3,0.1-0.2,0.2c0.1,0.2,0.2,0.1,0.4,0
		c0.1-0.1,0.1-0.2,0.1-0.3l0,0v0c0.1,0,0.2,0.1,0.3,0.1c0.1,0,0.3,0.1,0.3-0.1c0-0.1-0.2-0.2-0.3-0.2c-0.2-0.1-0.2,0.1-0.2,0.2l0,0
		c0,0,0,0,0,0C141.5,175.2,141.4,175.2,141.4,175.2z M140.8,174.6c0.1,0,0.1-0.1,0.2-0.1l0,0c0,0,0,0,0,0c0,0,0.1,0,0.1,0
		c0,0-0.1,0-0.1,0c0,0,0,0,0,0c0,0,0,0,0,0C140.9,174.4,140.8,174.4,140.8,174.6C140.7,174.5,140.8,174.6,140.8,174.6z M140.6,172.5
		C140.6,172.5,140.6,172.5,140.6,172.5L140.6,172.5C140.7,172.5,140.7,172.5,140.6,172.5L140.6,172.5
		C140.6,172.5,140.6,172.4,140.6,172.5L140.6,172.5z M140.5,175.5C140.5,175.6,140.5,175.6,140.5,175.5c0.2,0.1,0.2,0,0.2-0.1
		c0,0-0.1-0.1-0.1-0.1C140.5,175.4,140.5,175.5,140.5,175.5z M139.6,174.6L139.6,174.6L139.6,174.6L139.6,174.6z M139.6,182.1
		C139.6,182.1,139.6,182.1,139.6,182.1C139.6,182.1,139.6,182.1,139.6,182.1C139.6,182.1,139.6,182.1,139.6,182.1
		C139.6,182.1,139.6,182.1,139.6,182.1z M139.4,182.6c-0.1,0-0.1,0.1-0.1,0.2c0,0.1,0.1,0.1,0.2,0.1c0.1,0,0.1-0.1,0.1-0.2
		C139.6,182.6,139.5,182.6,139.4,182.6z M139.4,175.3C139.4,175.3,139.4,175.3,139.4,175.3C139.4,175.3,139.4,175.3,139.4,175.3
		C139.4,175.2,139.4,175.2,139.4,175.3C139.4,175.2,139.4,175.2,139.4,175.3z M139.3,176.5c0.1,0,0.1,0,0.2-0.1c0-0.1,0-0.1-0.1-0.2
		c-0.1,0-0.1,0-0.2,0C139.1,176.3,139.2,176.4,139.3,176.5z M139,174.2L139,174.2L139,174.2L139,174.2z M125.7,170.6L125.7,170.6
		L125.7,170.6c0,0,0.1,0,0.1,0C125.7,170.6,125.7,170.6,125.7,170.6C125.7,170.6,125.7,170.6,125.7,170.6L125.7,170.6L125.7,170.6z
		 M43.2,194.5C43.2,194.5,43.2,194.5,43.2,194.5C43.1,194.5,43.1,194.5,43.2,194.5C43.1,194.5,43.1,194.5,43.2,194.5
		C43.1,194.6,43.2,194.5,43.2,194.5z M46.2,192.5c0,0-0.1,0-0.1,0.1c0,0.1,0,0.1,0.1,0.1c0,0,0,0,0.1,0
		C46.2,192.6,46.2,192.6,46.2,192.5z M48,192.7c0-0.1-0.1-0.2-0.1-0.3c-0.1-0.1-0.1,0-0.1,0.1c0,0.1,0,0.2,0.1,0.3
		C47.9,192.8,47.9,192.8,48,192.7z M48.9,176C48.9,176,49,176,48.9,176C49,176,49,176,48.9,176C49,176,49,175.9,48.9,176
		C48.9,176,48.9,176,48.9,176z M48.4,194.2L48.4,194.2C48.4,194.2,48.4,194.2,48.4,194.2C48.4,194.2,48.4,194.2,48.4,194.2z
		 M49.2,194.2c-0.1-0.2-0.2-0.4-0.4-0.5c-0.1,0-0.2,0-0.3,0l0,0c0-0.1-0.1-0.1-0.1-0.2l0,0c0,0.1,0.1,0.1,0.1,0.2l0,0
		c0.1,0.1,0.1,0.2,0.2,0.3C48.9,194.1,49,194.3,49.2,194.2C49.2,194.3,49.3,194.3,49.2,194.2z M49.8,192.8L49.8,192.8L49.8,192.8
		L49.8,192.8z M49.7,183.6c0-0.1,0-0.1-0.1-0.1c0,0-0.1,0.1-0.1,0.1c0,0,0,0.1,0.1,0.1C49.6,183.7,49.7,183.7,49.7,183.6z
		 M49.9,194.2c0,0,0-0.1,0-0.1c0,0-0.1,0-0.1,0c0,0,0,0.1,0,0.1C49.8,194.3,49.9,194.3,49.9,194.2z M50.5,187c0,0.1,0,0.1,0.1,0.2
		c0.1,0,0.1,0,0.1-0.1c0,0,0-0.1-0.1-0.1C50.6,186.9,50.6,186.9,50.5,187z M50.6,194.1L50.6,194.1L50.6,194.1L50.6,194.1z
		 M50.5,182.2L50.5,182.2L50.5,182.2L50.5,182.2z M51,195.5c0-0.1,0-0.1,0-0.2c0,0,0,0,0,0c0-0.1-0.1-0.1-0.1-0.2c0,0,0,0,0,0
		c0-0.2-0.2-0.4-0.4-0.4c-0.1,0-0.2,0-0.2,0.1c0,0.1,0.1,0.2,0.2,0.1c0.2,0,0.3,0.1,0.4,0.1c0,0,0,0,0,0c0,0.1,0.1,0.1,0.1,0.2
		c0,0,0,0,0,0c0,0-0.1,0.1-0.1,0.1c0,0.1-0.1,0.1,0,0.2C50.9,195.7,51,195.6,51,195.5z M51.9,193.2c-0.3,0-0.3,0.3-0.5,0.5
		c-0.1,0,0,0.1,0.1,0.2c0.3,0,0.4-0.1,0.5-0.3C52,193.4,52,193.2,51.9,193.2z M52.6,193.4C52.6,193.4,52.6,193.3,52.6,193.4
		c-0.1-0.1-0.1-0.1-0.1-0.1c0,0,0,0.1,0,0.1C52.5,193.4,52.6,193.4,52.6,193.4z M52.7,194.1C52.7,194.1,52.7,194.1,52.7,194.1
		C52.7,194,52.7,194,52.7,194.1C52.6,194.1,52.6,194.1,52.7,194.1C52.7,194.1,52.7,194.1,52.7,194.1z M52.8,192.2L52.8,192.2
		L52.8,192.2L52.8,192.2z M53.2,183c0.3,0.1,0.5,0.3,0.6-0.2c0-0.1,0.2-0.2,0.3-0.4c0.1-0.2,0.2-0.4,0.1-0.6c-0.5-1-0.9-2-1.6-2.9
		c-0.2-0.2-0.3-0.3-0.6-0.1c-0.3,0.2-0.5,0.4-0.5,0.7c0,0.2,0,0.5-0.1,0.7c0,0.2-0.2,0.4,0,0.5c0.2,0.1,0.3,0,0.5-0.1
		c0.2-0.1,0.4-0.3,0.7-0.3c0.3,0,0.4,0.2,0.5,0.5c0.1,0.5,0.1,1-0.2,1.4C52.7,182.6,52.7,182.8,53.2,183z M53.1,194.6
		C53.1,194.6,53.1,194.6,53.1,194.6L53.1,194.6C53.1,194.6,53.1,194.6,53.1,194.6c0,0.1-0.2,0.2,0,0.3c0,0,0.1,0,0.1-0.1
		C53.3,194.7,53.2,194.7,53.1,194.6z M53.4,192.5c0,0-0.1-0.1-0.1-0.1c-0.1,0-0.1,0-0.1,0c0,0.1,0,0.1,0.1,0.2
		C53.3,192.6,53.4,192.6,53.4,192.5z M53.9,194.7C53.9,194.6,53.8,194.6,53.9,194.7c-0.1-0.1-0.2-0.1-0.2,0
		C53.7,194.7,53.7,194.7,53.9,194.7C53.8,194.7,53.9,194.7,53.9,194.7z M54.3,193.5C54.3,193.5,54.2,193.5,54.3,193.5
		c-0.3,0.1-0.6-0.2-0.7,0.1c0,0.1,0.1,0.1,0.2,0.2C53.9,193.8,54.1,193.8,54.3,193.5z M54.9,180.4c0-0.1,0-0.1-0.1-0.1
		c-0.1,0-0.2,0-0.2,0.1c0,0.1,0,0.2,0.1,0.2C54.8,180.6,54.9,180.5,54.9,180.4z M56.3,195.7c0-0.1,0-0.2-0.1-0.1
		c-0.1,0-0.2,0.1-0.3,0.2c0,0.1,0,0.1,0.1,0.2C56.2,195.9,56.3,195.8,56.3,195.7z M56.5,182.8c0-0.2-0.1-0.5-0.4-0.5
		c-0.3,0-0.7,0-0.7,0.4c0,0.4,0.4,0.4,0.6,0.4C56.3,183.2,56.5,183.1,56.5,182.8z M57.2,188.6c0-0.1,0-0.3-0.1-0.2
		c-0.1,0-0.2,0.1-0.2,0.2c0,0.1,0,0.2,0.2,0.3C57.1,188.8,57.1,188.7,57.2,188.6z M57.3,179.4c0-0.2-0.1-0.3-0.2-0.3
		c-0.1,0-0.1,0.1-0.1,0.2c0,0.1,0.1,0.2,0.2,0.1C57.2,179.5,57.2,179.4,57.3,179.4z M57.4,193.3L57.4,193.3L57.4,193.3L57.4,193.3z
		 M58,176.8c0-0.4-0.3-0.4-0.6-0.5c-0.2,0-0.4,0-0.4,0.3c0,0.2,0.4,0.6,0.6,0.6C57.9,177.1,58,176.9,58,176.8z M77,178
		c0,0.1,0,0.2,0.2,0.2c0.1,0,0.2,0,0.2-0.1c0-0.1,0-0.2-0.2-0.2C77.1,177.9,77,177.9,77,178z M73.4,181.6c0,0.2,0.1,0.3,0.4,0.3
		c0.1-0.1,0.4,0,0.4-0.3c0-0.2-0.3-0.3-0.5-0.3C73.4,181.2,73.3,181.4,73.4,181.6z M73,179.9c0,0.1,0.1,0.2,0.2,0.2
		c0.1,0,0.1-0.1,0.2-0.2c0-0.1-0.1-0.2-0.3-0.1C73,179.8,73,179.9,73,179.9z M68.3,179.3c0.8,0.5,0.8,1.1,0.3,1.8
		c-0.1,0.1-0.3,0.2-0.1,0.5c0.2,0.2,0.4,0.1,0.5-0.1c0.3-0.3,0.4-0.7,0.4-1.1c0-0.3-0.1-0.6-0.1-0.8c0-0.4-0.3-0.7-0.6-0.9
		c-0.3-0.2-0.7-0.3-0.8-0.1C67.7,178.9,67.9,179.1,68.3,179.3z M66.6,180.4c0.4,0,0.7,0.2,1,0.4c0.1,0.1,0.2,0.1,0.3,0
		c0.1-0.1,0.1-0.2,0.1-0.3c-0.1-0.2-0.2-0.4-0.2-0.7c0.1-0.4-0.2-0.3-0.4-0.4c-0.3,0.1-0.6,0.1-0.8,0.3
		C66.4,180,66.4,180.4,66.6,180.4z M63.1,180.8c0,0.1,0,0.1,0.1,0.1c0.1,0,0.2-0.1,0.3-0.2c0-0.1-0.1-0.1-0.1-0.1
		C63.2,180.6,63.1,180.7,63.1,180.8z M60,179.2c0,0.1,0.1,0.2,0.2,0.2c0.2,0,0.4-0.1,0.4-0.3c0-0.1-0.1-0.2-0.2-0.2
		C60.2,178.9,60.1,179,60,179.2z M58.5,178.3c0.2,0,0.5,0,0.6-0.3c0-0.2-0.1-0.2-0.3-0.2c-0.2,0-0.5,0-0.6,0.3
		C58.2,178.3,58.4,178.3,58.5,178.3z M58.8,180.9c0.1,0,0.3-0.1,0.3-0.3c0-0.2-0.1-0.3-0.4-0.3c-0.2,0-0.3,0.1-0.4,0.3
		C58.3,180.9,58.5,180.9,58.8,180.9z M58.5,194.3C58.5,194.3,58.5,194.3,58.5,194.3c-0.1,0-0.1,0-0.2,0c0,0,0,0,0,0
		C58.5,194.3,58.5,194.3,58.5,194.3z M59.3,191.2c0-0.2,0.1-0.5-0.3-0.5c-0.3,0-0.5,0.1-0.5,0.4c0,0.3,0.3,0.7,0.5,0.7
		C59.4,191.8,59.2,191.4,59.3,191.2z M59.6,187.1c0-0.2-0.3-0.6-0.5-0.5c-0.1,0-0.1,0.1-0.1,0.1c0,0.3,0.3,0.6,0.5,0.5
		C59.5,187.3,59.6,187.2,59.6,187.1z M60.2,182.6c0-0.2-0.1-0.3-0.3-0.4c-0.1,0-0.1,0-0.1,0.1c0,0.2,0,0.4,0.3,0.4
		C60.1,182.7,60.2,182.7,60.2,182.6z M60.5,181.4c0.1,0,0.2-0.1,0.2-0.2c0-0.1-0.1-0.2-0.3-0.2c-0.1,0-0.2,0.1-0.2,0.2
		C60.2,181.3,60.4,181.4,60.5,181.4z M60.9,184.6c0.2,0.1,0.3,0.3,0.4,0.4c0.1,0.1,0.1,0.3,0.4,0.2c0.2-0.1,0.1-0.2,0.1-0.4
		c0-0.5-0.3-0.9-0.8-0.9c-0.2,0-0.4,0.1-0.5,0.4C60.5,184.6,60.8,184.5,60.9,184.6z M61.3,190.2c0-0.1-0.1-0.1-0.2-0.1
		c-0.1,0-0.1,0.1-0.1,0.1c0,0.1,0.1,0.1,0.1,0.1C61.3,190.4,61.3,190.3,61.3,190.2z M62,189c0-0.2-0.1-0.3-0.1-0.5
		c-0.1-0.2-0.2-0.5-0.1-0.7c0-0.2,0.2-0.4,0-0.5c-0.2-0.1-0.2,0.2-0.3,0.3c-0.4,0.5-0.1,1,0.1,1.5c0.1,0.1,0.1,0.4,0.3,0.3
		C62,189.4,62,189.2,62,189z M62.4,182.1c0.1-0.2,0.2-0.5-0.1-0.6c-0.3-0.1-0.5,0.1-0.6,0.3c-0.2,0.2-0.3,0.5-0.3,0.7
		c0,0.2,0.1,0.5,0.3,0.6c0.2,0.1,0.4,0.3,0.7,0.1c0.2-0.1,0.2-0.4,0.1-0.6C62.3,182.4,62.3,182.2,62.4,182.1z M64,183.1
		c0-0.6-0.2-0.8-0.5-0.8c-0.5,0.1-0.5,0.4-0.5,0.8c-0.1,0.6,0.3,1.2,0.2,1.8c0,0.1,0.1,0.2,0.2,0.2c0.1,0,0.3,0,0.2-0.2
		c0-0.4,0.2-0.8,0.3-1.2C63.9,183.5,64,183.3,64,183.1z M64.6,185.9C64.6,185.9,64.6,185.9,64.6,185.9c-0.1,0-0.1,0-0.1,0.1
		c0,0,0,0,0,0C64.6,186,64.6,185.9,64.6,185.9z M65.4,187c0-0.3-0.2-0.4-0.3-0.5c-0.1,0-0.2,0-0.2,0.1c0,0.2,0,0.4,0.3,0.5
		C65.2,187.2,65.4,187.1,65.4,187z M66,179.7c0.1,0,0.2,0,0.2-0.2c0-0.4-0.6-0.9-1-0.9c-0.1,0-0.2,0.1-0.2,0.2
		C65,179.2,65.5,179.7,66,179.7z M66.2,188.3c-0.1,0-0.1,0-0.1,0.1c0,0.1,0,0.2,0.1,0.3c0.1,0,0.1-0.1,0.1-0.1
		C66.3,188.5,66.3,188.4,66.2,188.3z M67,183.3c0.2,0,0.3-0.1,0.4-0.3c0.1-0.1,0.1-0.3,0-0.4c-0.5-0.4-0.7-0.9-0.9-1.5
		c0-0.1-0.1-0.1-0.1-0.2c-0.1,0.1-0.1,0.2-0.2,0.3c-0.2,0.3-0.1,0.6-0.1,1C66.1,182.9,66.3,183.2,67,183.3z M68.2,192.1
		c0-0.1,0-0.3-0.2-0.3c-0.2,0-0.2,0.2-0.2,0.4c0,0.1,0,0.3,0.2,0.3C68.2,192.5,68.2,192.3,68.2,192.1z M68.9,188.5
		c0.3,0,0.4-0.2,0.4-0.5c0-0.2,0-0.5-0.4-0.5c-0.3,0-0.5,0.2-0.5,0.6C68.5,188.4,68.7,188.5,68.9,188.5z M70.4,191.1
		c-0.1-0.4-0.4-0.6-0.6-0.8c-0.1-0.1-0.2-0.3-0.5-0.2c-0.2,0.2-0.2,0.4-0.1,0.6c0.1,0.3,0.7,0.6,1,0.5
		C70.3,191.3,70.3,191.3,70.4,191.1z M69.4,186.3C69.5,186.3,69.5,186.3,69.4,186.3c0.1-0.1,0.1-0.2,0-0.2c0,0-0.1,0-0.1,0.1
		C69.4,186.2,69.4,186.3,69.4,186.3z M70.7,181.6c0-0.1,0-0.2-0.1-0.3c-0.1,0-0.2,0-0.3,0.1c-0.2,0.1-0.3,0.3-0.4,0.6
		c-0.3,0.5-0.6,1.1-0.9,1.6c-0.3,0.4-0.6,0.8-1.1,1c-0.4,0.1-0.7,0-1-0.3c-0.1-0.1-0.2,0-0.3,0.1c-0.1,0.1,0,0.2,0.1,0.3
		c0.5,0.2,0.5,0.6,0.5,1.1c0,0.1,0,0.2,0,0.3c0.1,0.4,0.2,0.4,0.5,0.2c0.3-0.2,0.6-0.4,0.9-0.6c0.5-0.4,1-0.8,1.1-1.4
		c0.1-0.6,0.4-1.1,0.8-1.7C70.5,182.2,70.7,181.9,70.7,181.6z M71.1,190.2C71.1,190.2,71,190.2,71.1,190.2c-0.1-0.1-0.1,0-0.1,0
		C71,190.2,71,190.2,71.1,190.2C71,190.3,71,190.2,71.1,190.2z M71.2,179.4c0-0.1-0.1-0.1-0.2-0.1c-0.1,0-0.1,0.1-0.1,0.1
		c0,0.1,0.1,0.2,0.2,0.1C71.2,179.5,71.2,179.4,71.2,179.4z M71.9,181.7c-0.1,0-0.2,0.1-0.2,0.2c0,0.1,0,0.3,0.2,0.3
		c0.2,0,0.2-0.1,0.2-0.2C72.1,181.9,72.1,181.8,71.9,181.7z M72.2,186.7c0,0,0,0.1,0.1,0.1c0.1,0.1,0.1,0,0.1-0.1c0,0,0-0.1-0.1-0.1
		C72.3,186.7,72.2,186.7,72.2,186.7z M72.6,191.7c0-0.2-0.1-0.4-0.3-0.5c-0.1-0.1-0.1,0-0.1,0.1c0,0.2,0.1,0.4,0.3,0.5
		C72.6,191.8,72.6,191.7,72.6,191.7z M72.9,187.7c0.1,0,0.2-0.1,0.4-0.2c-0.1,0-0.2-0.1-0.3-0.1c-0.1,0-0.2-0.1-0.3,0.1
		C72.7,187.6,72.8,187.7,72.9,187.7z M73.4,192.8c0-0.1-0.1-0.3-0.3-0.3c-0.2,0-0.2,0.2-0.2,0.3c0,0.2,0.1,0.3,0.3,0.2
		C73.4,193.1,73.4,193,73.4,192.8z M73.4,189.5C73.4,189.4,73.4,189.4,73.4,189.5c-0.1,0-0.2,0-0.1,0c0,0,0.1,0.1,0.1,0.1
		C73.4,189.6,73.5,189.5,73.4,189.5z M74.2,186c0-0.3-0.1-0.4-0.2-0.6c-0.1-0.1-0.2-0.3-0.4-0.3c-0.2,0.1-0.4,0.4-0.3,0.5
		c0.2,0.3,0.4,0.6,0.7,0.8c0,0,0.1,0,0.2-0.1C74.2,186.2,74.2,186.1,74.2,186z M75.9,182.7c0.2-0.2,0.4-0.3,0.6-0.5
		c0.3-0.2,0.8-0.2,0.8-0.5c0-0.3-0.3-0.6-0.5-0.9c-0.1-0.2-0.2-0.2-0.4,0c-0.2,0.3-0.4,0.7-0.6,1c-0.5,0.8-1.2,1.3-2.2,1.2
		c-0.1,0-0.3,0-0.4,0c-0.4,0-0.6,0.2-0.6,0.5c0,0.2,0.1,0.4,0.3,0.2c0.3-0.2,0.7-0.3,1.1-0.3C74.8,183.5,75.4,183.3,75.9,182.7z
		 M77.2,190.5c0,0,0-0.1-0.1-0.1c-0.1,0-0.1,0-0.2,0.1c0,0.1,0,0.1,0.1,0.1C77.1,190.6,77.2,190.5,77.2,190.5z M77.6,187.9
		c0-0.1,0-0.1,0-0.2c0.1-0.8-0.6-1.2-0.9-1.8c-0.1-0.2-0.3,0-0.5,0.1c-0.2,0.1-0.1,0.3,0,0.4c0.4,0.3,0.6,0.7,0.8,1.2
		c0.1,0.1,0.1,0.3,0.2,0.4c0.1,0.1,0.2,0.1,0.2,0.1C77.6,188.1,77.6,188,77.6,187.9z M77.8,184c0-0.3,0-0.5-0.4-0.6
		c-0.2,0-0.2,0.1-0.2,0.3c0,0.3,0.1,0.5,0.4,0.6C77.8,184.4,77.8,184.1,77.8,184z M78.8,178.2L78.8,178.2
		C78.8,178.2,78.7,178.2,78.8,178.2C78.8,178.2,78.8,178.2,78.8,178.2z M78.9,178.3C78.9,178.3,78.8,178.3,78.9,178.3
		C78.8,178.3,78.8,178.4,78.9,178.3z M79.1,181.7c0.1,0,0.1,0,0.2-0.1c0-0.1,0-0.2-0.1-0.2c-0.1,0-0.1,0-0.1,0.1
		C78.9,181.6,79,181.7,79.1,181.7z M79.5,192.9c0-0.1-0.1-0.3-0.3-0.3c-0.1,0-0.2,0.1-0.2,0.2c0,0.2,0.1,0.3,0.3,0.3
		C79.4,193.1,79.4,193,79.5,192.9z M79.8,179c-0.1-0.2-0.1-0.4-0.4-0.4c-0.2,0-0.3,0.2-0.3,0.4c0,0.3,0.1,0.4,0.4,0.4
		C79.6,179.4,79.8,179.4,79.8,179z M86.2,178.5c-0.1,0-0.2,0.1-0.2,0.2c0,0.1,0,0.2,0.1,0.2c0.1,0,0.1-0.1,0.2-0.2
		C86.4,178.6,86.3,178.5,86.2,178.5z M86.1,174.3C86.1,174.3,86.2,174.2,86.1,174.3c0.1-0.1,0.1-0.2,0-0.2
		C86.1,174.1,86.1,174.2,86.1,174.3C86,174.2,86,174.3,86.1,174.3z M86,177C85.9,177,86,177.1,86,177C86,177,86,177,86,177
		C86,177,86,176.9,86,177C86,176.9,86,177,86,177z M81.9,179.7c-0.2-0.1-0.6,0-0.7,0.3c-0.1,0.2-0.1,0.4,0,0.7c0,0.1,0,0.3,0.1,0.5
		c0,0.1-0.1,0.2,0.1,0.2c0,0,0.1-0.1,0.1-0.1c0.1-0.3,0.3-0.7,0.4-1.1C81.9,180,82.3,179.8,81.9,179.7z M82.5,184.7
		C82.5,184.7,82.4,184.7,82.5,184.7C82.4,184.7,82.4,184.8,82.5,184.7C82.4,184.8,82.4,184.8,82.5,184.7
		C82.5,184.8,82.5,184.8,82.5,184.7z M83.1,181.4c0.3-0.5,0.5-1,0.7-1.5c0.1-0.3,0.1-0.6-0.3-0.7c-0.4-0.1-0.5,0.1-0.6,0.4
		c0,0.1,0,0.4-0.2,0.2c0,0,0,0,0,0c-0.1,0-0.2,0-0.2,0.1c0.1,0.5,0.3,0.9,0.2,1.5c0,0.1,0,0.1,0.1,0.2
		C83,181.6,83.1,181.5,83.1,181.4z M83.8,184.1L83.8,184.1L83.8,184.1L83.8,184.1z M83.7,191.3c0-0.1,0-0.2-0.2-0.2
		c-0.2,0-0.2,0.2-0.2,0.3c0,0.1,0,0.3,0.2,0.2C83.7,191.6,83.7,191.5,83.7,191.3z M84,187.9c0-0.3-0.2-0.5-0.5-0.5
		c-0.1,0-0.3,0.1-0.2,0.3c0.1,0.3,0.2,0.5,0.5,0.5C83.9,188.1,84,188,84,187.9z M84.1,185.5c-0.2,0-0.2,0.1-0.2,0.3
		c0,0.1,0.1,0.2,0.2,0.3c0.2,0,0.2-0.1,0.2-0.2C84.3,185.7,84.3,185.6,84.1,185.5z M86.2,188c0-0.2-0.1-0.3-0.3-0.3
		c-0.3,0-0.6,0.3-0.6,0.6c0,0.3,0.2,0.3,0.4,0.3C86,188.6,86.1,188.3,86.2,188z M86.2,182.3c0-0.4-0.3-0.6-0.6-0.6
		c-0.2,0-0.4,0-0.5,0.3c-0.1,0.2,0.6,0.7,0.9,0.7C86.2,182.6,86.2,182.4,86.2,182.3z M86.6,180.2c-0.2-0.3-0.3-0.6-0.5-0.9
		c0-0.1-0.1-0.1-0.2-0.1c-0.1,0-0.2,0.1-0.2,0.2c-0.1,0.2,0.5,0.9,0.7,0.9C86.6,180.4,86.6,180.3,86.6,180.2z M86.6,175.3
		c-0.1,0-0.1,0.1-0.2,0.1c0,0.1,0,0.1,0.1,0.1C86.6,175.5,86.6,175.4,86.6,175.3z M88,181.1c0,0.1,0.1,0.1,0.2,0.1
		c0.1,0,0.1-0.1,0.1-0.2c0-0.1-0.1-0.1-0.2-0.1C88.1,181,88,181.1,88,181.1z M87.2,188.3c0-0.1,0-0.1-0.1-0.1c0,0,0,0.1,0,0.1
		C87.1,188.3,87.1,188.4,87.2,188.3C87.2,188.4,87.2,188.3,87.2,188.3z M87.3,177C87.3,176.9,87.3,176.9,87.3,177
		C87.3,176.9,87.3,177,87.3,177C87.3,177,87.3,177,87.3,177z M87.8,177.4c-0.1-0.2-0.2-0.3-0.4-0.4
		C87.4,177.2,87.4,177.4,87.8,177.4C87.7,177.5,87.8,177.4,87.8,177.4z M89,186.9c0-0.1,0-0.2-0.2-0.2c-0.2,0-0.6,0-0.5,0.4
		c-0.6,0.3-0.6,0.4-0.4,1c0.1,0.2,0.1,0.3,0.3,0.4c0.2,0,0.4-0.1,0.5-0.3C89,187.7,88.9,187.3,89,186.9z M89.8,181.8
		C89.8,181.8,89.8,181.8,89.8,181.8C89.7,181.9,89.7,181.9,89.8,181.8C89.8,181.9,89.8,181.9,89.8,181.8z M90.4,183.7
		C90.4,183.6,90.4,183.6,90.4,183.7C90.4,183.6,90.3,183.7,90.4,183.7C90.3,183.7,90.4,183.7,90.4,183.7
		C90.4,183.7,90.4,183.7,90.4,183.7z M91.2,184.5c0-0.1-0.1-0.1-0.2-0.1c-0.1,0-0.2,0-0.2,0.1c0,0.1,0.1,0.1,0.2,0.1
		C91.1,184.5,91.2,184.6,91.2,184.5z M91.5,182.4c0-0.1,0-0.2-0.1-0.2c-0.1,0-0.2,0.1-0.2,0.2c0,0.1,0.1,0.2,0.2,0.2
		C91.5,182.6,91.5,182.5,91.5,182.4z M91.7,176.5L91.7,176.5L91.7,176.5L91.7,176.5z M92.2,181.4L92.2,181.4L92.2,181.4L92.2,181.4z
		 M92.8,182.4c0-0.1-0.1-0.3-0.2-0.3c-0.2,0-0.3,0.2-0.3,0.3c0,0.1,0,0.3,0.3,0.3C92.7,182.7,92.8,182.6,92.8,182.4z M94.2,177.7
		c0-0.1-0.1-0.1-0.1-0.1c-0.2,0-0.4,0.1-0.4,0.3c0,0.1,0,0.1,0.1,0.1C94,177.9,94.1,177.8,94.2,177.7z M94.7,187.8
		C94.7,187.8,94.7,187.8,94.7,187.8C94.6,187.8,94.6,187.8,94.7,187.8C94.6,187.8,94.6,187.9,94.7,187.8
		C94.6,187.9,94.7,187.8,94.7,187.8z M95.4,183.1C95.4,183,95.4,183,95.4,183.1c-0.1,0-0.1,0-0.1,0.1
		C95.2,183.1,95.3,183.2,95.4,183.1C95.3,183.1,95.4,183.1,95.4,183.1z M95.8,177.3C95.8,177.3,95.8,177.2,95.8,177.3L95.8,177.3
		C95.7,177.3,95.7,177.3,95.8,177.3C95.8,177.3,95.8,177.3,95.8,177.3z M96.4,186.8c-0.1,0-0.1,0.1-0.2,0.1c0,0,0.1,0.1,0.1,0.1
		c0,0,0.1,0,0.2-0.1C96.5,186.8,96.5,186.8,96.4,186.8z M98.3,175.5L98.3,175.5L98.3,175.5L98.3,175.5z M98.6,184.1
		c0-0.1-0.1-0.2-0.2-0.2c0,0-0.1,0.1-0.1,0.2c0,0.1,0.1,0.2,0.2,0.2C98.6,184.3,98.6,184.2,98.6,184.1z M98.7,181.8
		c0-0.1,0-0.3-0.2-0.2c-0.2,0-0.4,0.2-0.5,0.4c0,0.1,0.1,0.2,0.3,0.2C98.4,182.1,98.6,182,98.7,181.8z M102.1,175.4
		C102.2,175.4,102.2,175.4,102.1,175.4C102.2,175.4,102.2,175.4,102.1,175.4C102.2,175.4,102.2,175.4,102.1,175.4
		C102.2,175.4,102.2,175.4,102.1,175.4z M102.1,182.9C102.1,182.9,102.1,182.9,102.1,182.9C102.1,182.9,102.2,182.9,102.1,182.9
		C102.1,182.9,102.1,182.9,102.1,182.9C102.1,182.9,102.1,182.9,102.1,182.9z M100.3,175.9c0,0.1,0,0.2,0.1,0.2
		c0.2,0.1,0.4-0.1,0.5-0.2c0.2-0.1,0.4-0.2,0.4-0.5c0-0.1-0.1-0.2-0.2-0.2C100.7,175.2,100.3,175.6,100.3,175.9z M101,179.1
		c-0.1,0-0.1,0.1-0.1,0.1c0,0,0.1,0.1,0.1,0.1c0.1,0,0.1,0,0.1-0.1C101.1,179.2,101.1,179.1,101,179.1z M98.9,184.5
		C98.9,184.5,98.9,184.6,98.9,184.5c0.1,0.1,0.1,0.1,0.1,0.1C99,184.5,99,184.5,98.9,184.5C98.9,184.5,98.9,184.5,98.9,184.5z
		 M99.4,185.4c0-0.1-0.1-0.4-0.2-0.4c-0.3,0.1-0.2,0.4-0.3,0.7c0,0.1,0,0.2,0.2,0.2C99.3,185.9,99.4,185.7,99.4,185.4z M100.3,182.3
		c0.1,0,0.1-0.2,0.1-0.3c0-0.2,0-0.4-0.3-0.5c-0.2,0-0.3,0.1-0.2,0.2C99.9,182,100,182.2,100.3,182.3z M101.1,187.9
		c-0.5,0-0.6-0.3-0.6-0.7c0-0.2,0-0.3,0-0.5c0-0.1-0.1-0.2-0.2-0.1c-0.1,0-0.2,0.1-0.2,0.2c-0.2,0.4,0.5,1.6,1,1.7
		c0.2,0,0.4-0.1,0.4-0.3C101.5,188,101.3,187.9,101.1,187.9z M102.3,185.2c0-0.1-0.1-0.1-0.2-0.1c-0.1,0.1-0.3,0-0.4,0.2
		c0,0,0.1,0.1,0.2,0.1C102.1,185.5,102.2,185.4,102.3,185.2z M102.3,176.7C102.3,176.7,102.3,176.7,102.3,176.7
		C102.3,176.7,102.3,176.7,102.3,176.7C102.3,176.7,102.3,176.7,102.3,176.7C102.3,176.7,102.3,176.7,102.3,176.7z M102.8,176.8
		L102.8,176.8L102.8,176.8L102.8,176.8z M123.6,174.9C123.6,174.9,123.7,174.9,123.6,174.9c0.2,0.1,0.2-0.1,0.2-0.2
		C123.8,174.8,123.6,174.7,123.6,174.9z M123.7,182.1C123.7,182.1,123.7,182.1,123.7,182.1C123.8,182.1,123.8,182.1,123.7,182.1
		C123.8,182.1,123.8,182.1,123.7,182.1z M123.1,176.9c0,0.1,0,0.2,0,0.3C123.1,177,123.1,176.9,123.1,176.9z M122.8,172.3
		L122.8,172.3L122.8,172.3L122.8,172.3z M122.8,175.1c0,0.1,0,0.1,0.1,0.1c0.1,0,0.1-0.1,0.1-0.1c0-0.1,0-0.1-0.1-0.1
		C122.8,174.9,122.8,175,122.8,175.1z M122.9,177.3C122.9,177.3,122.9,177.3,122.9,177.3c0.1,0,0.1,0,0.1-0.1
		C123,177.2,122.9,177.2,122.9,177.3z M123,176.8c0,0-0.1-0.1-0.1,0C122.9,176.8,123,176.8,123,176.8z M122.3,172.4L122.3,172.4
		L122.3,172.4L122.3,172.4z M122.2,173.6L122.2,173.6L122.2,173.6L122.2,173.6z M122,171.4C122.1,171.5,122.1,171.5,122,171.4
		c0.1,0.1,0.1,0,0.1,0C122.1,171.4,122.1,171.4,122,171.4C122.1,171.4,122,171.4,122,171.4z M121.4,172.3L121.4,172.3L121.4,172.3
		L121.4,172.3z M121.3,176.1C121.3,176.1,121.4,176.1,121.3,176.1c0.1,0,0.1,0,0.1,0C121.5,176,121.4,176,121.3,176.1
		C121.4,176,121.3,176,121.3,176.1z M121.3,177.5L121.3,177.5C121.4,177.5,121.4,177.5,121.3,177.5
		C121.4,177.5,121.3,177.5,121.3,177.5z M120.7,171.3c0,0,0.1,0,0.1,0c0-0.1,0.1-0.1,0-0.2c0,0-0.1,0-0.1,0.1
		C120.7,171.2,120.6,171.3,120.7,171.3z M120.6,175.6C120.6,175.7,120.6,175.7,120.6,175.6c0.1,0.1,0.1,0,0.2,0
		C120.7,175.6,120.7,175.6,120.6,175.6C120.6,175.6,120.6,175.6,120.6,175.6z M120.6,173.1c0,0,0.1,0,0.1-0.1c0,0,0,0,0,0
		C120.6,173,120.6,173,120.6,173.1C120.6,173,120.6,173.1,120.6,173.1z M120.3,172c0,0.1,0.1,0.3,0.2,0.3c0.1,0,0.1,0,0.1-0.1
		c0-0.2,0-0.3-0.2-0.3C120.4,171.9,120.3,171.9,120.3,172z M119.9,175.2c0,0.1,0.2,0.1,0.3,0.1c0.1,0,0.3-0.1,0.3-0.2
		c0-0.2-0.2-0.1-0.3-0.1C120.1,175.1,119.9,174.9,119.9,175.2z M120.4,176.5C120.4,176.5,120.4,176.4,120.4,176.5
		C120.3,176.5,120.3,176.5,120.4,176.5c0,0.1,0,0.1,0,0.2l0.1,0C120.5,176.6,120.5,176.5,120.4,176.5z M120.2,176.2
		C120.2,176.2,120.1,176.3,120.2,176.2c0,0.1,0,0.1,0.1,0.1C120.3,176.3,120.3,176.3,120.2,176.2z M119.8,178.1
		c-0.2,0-0.4-0.2-0.4-0.4c-0.3,0.4,0,1-0.3,1.4c-0.1,0.1,0.1,0.2,0.2,0.1c0.6-0.2,1.1-0.5,1.8-0.5c0.1,0,0.1-0.1,0.1-0.1
		c0-0.1-0.1-0.1-0.1-0.1C120.5,178.5,120.2,178.1,119.8,178.1z M119.4,177.6c0,0,0,0.1,0,0.1C119.4,177.7,119.4,177.7,119.4,177.6
		c0.2,0.1,0.2,0,0.2-0.1c0,0,0-0.1,0-0.1C119.5,177.4,119.4,177.5,119.4,177.6z M119.3,172.3L119.3,172.3L119.3,172.3L119.3,172.3z
		 M119,176.3c-0.2,0-0.3,0.2-0.3,0.3c0,0.1,0.1,0.1,0.2,0.1c0.1-0.1,0.3-0.2,0.3-0.3C119.2,176.3,119.1,176.3,119,176.3z
		 M118.8,177.4C118.8,177.4,118.8,177.4,118.8,177.4C118.7,177.4,118.8,177.4,118.8,177.4C118.8,177.4,118.8,177.4,118.8,177.4z
		 M118.5,175c0,0.1,0,0.1,0.1,0.1c0.2,0,0.2-0.1,0.2-0.3c0-0.1,0-0.2-0.1-0.1C118.6,174.8,118.5,174.9,118.5,175z M118.6,175.7
		C118.6,175.7,118.6,175.7,118.6,175.7C118.6,175.7,118.6,175.7,118.6,175.7C118.6,175.7,118.6,175.6,118.6,175.7z M118.3,177.9
		c-0.1,0.1-0.2,0.2-0.3,0.3c-0.4,0.2-0.2,0.3,0,0.4c0.1,0.1,0.3,0,0.5,0.2c0.1,0.1,0.2,0,0.2-0.1C118.8,178.4,118.6,178,118.3,177.9
		z M117.9,179.4C117.8,179.4,117.8,179.4,117.9,179.4C117.8,179.5,117.9,179.5,117.9,179.4C117.9,179.4,117.9,179.4,117.9,179.4z
		 M118.3,177.4c-0.1,0.1-0.1,0.2-0.1,0.2c0,0.1,0.1,0.1,0.1,0.2c0-0.1,0-0.1,0-0.2C118.3,177.6,118.4,177.5,118.3,177.4
		C118.3,177.4,118.3,177.4,118.3,177.4z M118.2,176c0,0.1,0,0.1,0,0.2c0,0,0,0,0,0C118.2,176.1,118.2,176,118.2,176z M117.7,175.8
		c-0.1,0.3-0.3,0.5-0.5,0.6c0.2,0.1,0.5,0.1,0.6-0.2c0.1-0.2,0.3-0.2,0.4-0.3c0-0.2,0-0.3-0.2-0.4
		C117.8,175.5,117.8,175.7,117.7,175.8z M119.3,183.2c-0.2,0.3-0.3,0.6-0.1,1c0.1-0.3,0.4-0.6,0.3-0.9c0-0.1-0.1-0.2-0.1-0.2
		C119.2,183,119.3,183.1,119.3,183.2z M119.6,181.2c0-0.2-0.2-0.2-0.3-0.2c-0.1,0-0.3,0-0.3,0.1c0,0.3,0.2,0.1,0.4,0.2
		C119.4,181.3,119.6,181.3,119.6,181.2z M118.7,181.5c0,0.1,0,0.1,0.1,0.1c0.1,0,0.2,0,0.3-0.1c0-0.1,0-0.1-0.1-0.1
		C118.9,181.4,118.8,181.5,118.7,181.5z M117.1,182.3C117.1,182.3,117,182.3,117.1,182.3c0.3,0.5,0.8,0.4,1.3,0.4
		c0.3,0,0.4-0.5,0.8-0.2c0,0,0.1-0.1,0.1-0.1c0,0,0-0.1-0.1-0.1c-0.1-0.1-0.3-0.2-0.4-0.1C118.3,182.7,117.6,182.3,117.1,182.3z
		 M118.1,181c-0.1,0-1,0.3-1.1,0.4c0,0,0,0,0,0.1c0,0.1,0.2,0.2,0.3,0.1c0.2,0,0.4-0.2,0.7,0c0.1,0.1,0.3,0.1,0.3-0.1
		C118.3,181.4,118.3,181.1,118.1,181z M116.7,179.8C116.7,179.7,116.7,179.7,116.7,179.8c-0.1-0.1-0.2-0.1-0.1,0c0,0,0,0,0,0.1
		C116.6,179.8,116.7,179.8,116.7,179.8z M116.6,181.7C116.6,181.7,116.6,181.7,116.6,181.7C116.5,181.7,116.5,181.7,116.6,181.7
		C116.6,181.8,116.6,181.8,116.6,181.7C116.6,181.7,116.6,181.7,116.6,181.7z M117.1,178.5c0.2,0,0-0.3-0.1-0.4
		c-0.2,0.5-0.5,0.1-0.7,0c-0.3,0-0.2-0.3-0.1-0.5c-0.2,0.1-0.4-0.1-0.5,0c-0.2,0.1-0.2,0.4-0.1,0.6c0.3,0.4,0.2,0.9,0.2,1.3
		C116.1,179.1,116.5,178.6,117.1,178.5z M116.4,181.2c0,0,0.1,0,0.1,0c0,0,0-0.1-0.1-0.1c0,0,0,0-0.1,0
		C116.3,181.1,116.3,181.1,116.4,181.2z M116.3,180.2C116.4,180.2,116.4,180.2,116.3,180.2c0-0.1,0-0.2-0.1-0.2
		c-0.1,0-0.1,0.1,0,0.1C116.3,180.2,116.3,180.2,116.3,180.2z M115.7,180.1C115.7,180.1,115.7,180.1,115.7,180.1
		C115.6,180.2,115.7,180.2,115.7,180.1C115.8,180.2,115.8,180.2,115.7,180.1C115.8,180.1,115.7,180.1,115.7,180.1z M117.3,176.8
		C117.3,176.9,117.3,176.8,117.3,176.8c0-0.1,0-0.1-0.1-0.1C117.2,176.8,117.2,176.8,117.3,176.8z M116.8,179.2c0,0.1,0,0.1,0.1,0.1
		c0.1,0,0.3,0,0.3-0.2c0-0.1-0.1-0.2-0.2-0.2C116.9,178.9,116.9,179.1,116.8,179.2z M117.6,180.3c0-0.1,0-0.1-0.1-0.2c0,0,0,0,0,0
		C117.5,180.2,117.5,180.2,117.6,180.3z M117.6,177.5L117.6,177.5L117.6,177.5L117.6,177.5z M115.6,173.4c0,0.1,0.1,0.1,0.2,0.1
		c0.2,0,0.4-0.1,0.5-0.3l-0.1-0.1C116.1,173.3,115.7,173.1,115.6,173.4z M116.1,174.3C116.1,174.3,116,174.3,116.1,174.3
		c-0.1,0.2,0,0.2,0,0.2C116.2,174.4,116.2,174.4,116.1,174.3C116.2,174.3,116.1,174.3,116.1,174.3z M115.5,174.8
		C115.5,174.8,115.6,174.7,115.5,174.8c0.1-0.2,0.1-0.3-0.1-0.3C115.5,174.6,115.4,174.7,115.5,174.8z M115,172.3
		c0,0,0.1,0.1,0.1,0.1c0.1,0,0.1,0,0.1-0.1c0,0-0.1-0.1-0.1-0.1C115.1,172.3,115.1,172.3,115,172.3z M114.9,174
		C114.9,174,114.9,174,114.9,174C114.9,174,114.9,174,114.9,174C114.9,174,114.9,174,114.9,174C114.9,174,114.9,174,114.9,174z
		 M114.6,172.1L114.6,172.1L114.6,172.1L114.6,172.1z M114.6,173.5C114.6,173.4,114.7,173.4,114.6,173.5c0.1-0.1,0.1-0.2,0-0.2
		c0,0,0,0,0,0C114.6,173.4,114.6,173.4,114.6,173.5z M114.5,176.7c0,0.2,0.1,0.4,0.4,0.5c0.2,0.1,0.4,0.1,0.6,0.1
		c0.3,0,0.6,0.1,0.7,0.4c0.3,0.1,0.5,0.4,0.8,0.4c-0.1-0.2-0.1-0.5-0.3-0.6c-0.5-0.3-0.2-0.4,0-0.6c0-0.1,0-0.2,0-0.2
		c0.1,0,0.3,0,0.4,0c0-0.1,0-0.2,0-0.3c-0.1,0-0.1-0.1,0-0.2c0.1-0.3,0.3-0.6,0.5-0.8c0.3-0.3,0-0.6-0.2-0.8
		c-0.2-0.2-0.2,0.2-0.3,0.2c-0.1,0.1-0.2,0.1-0.2,0c-0.3-0.3-0.3-0.1-0.3,0.1c0,0.1-0.1,0.2-0.1,0.3c-0.1,0-0.2-0.1-0.2-0.1
		c0-0.5-0.2-0.3-0.5-0.2c-0.3,0.2-0.6,0.4-0.8,0c0-0.1-0.1-0.1-0.2,0c-0.1,0.1-0.1,0.1,0,0.2c0.2,0.2,0.2,0.4,0,0.7
		c-0.2,0.3,0.1,0.3,0.3,0.3c0.1-0.2,0.5-0.2,0.5-0.5c0-0.2,0.2-0.1,0.3,0c0.1,0.1,0.2,0.2,0,0.3c-0.3,0.1-0.3,0.2,0,0.4
		c0.1,0.1,0.1,0.2-0.1,0.2c-0.3,0-0.5,0.2-0.8,0.2c0-0.1,0-0.3,0-0.4C114.8,176.4,114.5,176.3,114.5,176.7z M115,176.2v0.2
		C115.1,176.3,115.1,176.2,115,176.2z M114.3,179.3c0,0,0,0.1,0,0.1c0.4-0.1,0.6-0.5,1-0.5c0,0,0.1-0.1,0.1-0.2
		c0-0.1-0.1-0.2-0.1-0.1c-0.3,0.2-0.7,0-0.9,0.4C114.5,179.1,114.4,179.2,114.3,179.3z M114.5,177.7c0,0.1,0.1,0.1,0.2,0.1
		c0.1,0,0.2,0,0.2-0.1c0-0.1-0.1-0.1-0.2-0.1C114.6,177.6,114.5,177.6,114.5,177.7z M114.2,175.9c-0.2,0-0.3,0.2-0.3,0.3
		c0,0.1-0.1,0.2-0.1,0.2c0.1,0,0.2,0,0.2,0c0.2,0,0.3-0.2,0.2-0.4C114.3,176,114.2,175.9,114.2,175.9z M113.6,173.9
		c0,0,0,0.1,0.1,0.1c0.3,0,0.4-0.2,0.4-0.4c0-0.2,0-0.3-0.2-0.3C113.7,173.4,113.8,173.7,113.6,173.9z M113.7,176.4
		c-0.3,0-0.4,0.1-0.3,0.4C113.8,176.8,113.8,176.6,113.7,176.4z M113.4,175.9c0.1,0,0.2-0.1,0.1-0.2c0-0.1,0-0.1-0.1-0.2
		c0,0.1,0,0.1-0.1,0.2C113.4,175.8,113.3,175.9,113.4,175.9z M113.3,178.6c0.2,0.5,0,0.8-0.4,1.1c0.1,0.2,0.2,0.5,0.4,0.6
		c0.3,0.2,0.2-0.4,0.6-0.4c0.3,0,0.3-0.2,0-0.3c-0.2-0.1-0.3-0.3-0.2-0.5c0.1-0.1,0.3,0,0.5,0c0.1,0,0.1,0,0.2,0.1
		c0-0.1,0-0.2,0-0.3c-0.2-0.2,0-0.4,0.2-0.5c0.1,0,0.2-0.2,0.1-0.2c-0.2-0.1-0.4-0.2-0.7-0.3c-0.2,0-0.1,0.2-0.1,0.3
		c0,0.2-0.1,0.2-0.3,0.1C113.2,178.1,113.2,178.5,113.3,178.6z M112.9,179.7c0-0.1,0-0.1-0.1-0.1
		C112.8,179.6,112.8,179.6,112.9,179.7z M112.8,181.2C112.8,181.2,112.8,181.2,112.8,181.2c0,0.1,0.1,0.2,0.3,0.3
		c0.1,0,0.1,0,0.1-0.1C113.1,181.3,112.9,181.2,112.8,181.2z M112.9,178.5C112.9,178.4,112.9,178.4,112.9,178.5
		c-0.1,0.1-0.2,0.2-0.2,0.3c0,0.1,0,0.1,0.1,0C112.9,178.7,112.9,178.6,112.9,178.5z M112.9,177.7c0.1,0,0.1,0,0.2,0
		C113,177.6,112.9,177.6,112.9,177.7c-0.1-0.1-0.2-0.2-0.2,0C112.7,177.6,112.8,177.7,112.9,177.7z M113.1,177.5c0,0,0.1-0.1,0-0.1
		C113.1,177.5,113.1,177.5,113.1,177.5z M112.8,174.6L112.8,174.6L112.8,174.6L112.8,174.6z M112.6,175.3c0,0.1,0.1,0.1,0.2,0.1
		c0.2-0.1,0.3,0,0.5,0c-0.1-0.2-0.2-0.3-0.5-0.3C112.7,175.1,112.6,175.2,112.6,175.3z M112.1,174.7c0,0,0,0.1,0,0.1
		c0,0,0.1,0,0.1-0.1C112.2,174.8,112.2,174.7,112.1,174.7C112.2,174.7,112.1,174.7,112.1,174.7z M111.9,173.4L111.9,173.4
		L111.9,173.4L111.9,173.4z M111.6,176.1c0,0.3,0.3,0.2,0.5,0.3c0.1,0,0.1,0,0.1-0.1c-0.2-0.1,0-0.5-0.3-0.5
		C111.8,175.7,111.6,175.9,111.6,176.1z M111.8,177C111.7,177,111.7,177,111.8,177C111.7,177.1,111.7,177.1,111.8,177
		C111.7,177.1,111.7,177.1,111.8,177C111.8,177.1,111.8,177.1,111.8,177z M110.8,174.6c0.1,0.1,0.2,0.1,0.3,0.2
		c0.1,0.1,0.3,0.2,0.5,0.2c0.1,0,0.1-0.1,0.1-0.1c-0.1-0.2-0.3-0.4-0.5-0.4C111,174.5,110.9,174.5,110.8,174.6z M111.4,177.9
		C111.4,177.9,111.3,178,111.4,177.9c-0.1,0.2,0,0.2,0.1,0.2c0,0,0.1-0.1,0.1-0.1C111.6,177.9,111.5,177.9,111.4,177.9z
		 M109.7,173.5c0,0.1,0.1,0.2,0.1,0.2c0.1,0,0.1,0,0.2-0.1c0-0.1-0.1-0.2-0.2-0.3C109.8,173.4,109.7,173.5,109.7,173.5z
		 M105.7,176.5C105.6,176.5,105.7,176.5,105.7,176.5C105.7,176.5,105.7,176.5,105.7,176.5C105.7,176.5,105.7,176.5,105.7,176.5
		C105.7,176.5,105.7,176.5,105.7,176.5z M105.2,177.2c0,0.1,0.1,0.1,0.1,0.1c0.1,0,0.1,0,0.1-0.1c0-0.1-0.1-0.1-0.1-0.1
		C105.3,177.1,105.3,177.1,105.2,177.2z M105.3,186.1c0-0.3-0.2-0.5-0.5-0.5c-0.1,0-0.2,0-0.4,0c-0.2,0-0.4,0-0.4,0.2
		c-0.1,0.2,0.1,0.4,0.2,0.5c0.1,0.1,0.3,0.1,0.5,0.1C105,186.4,105.3,186.4,105.3,186.1z M106,184.1c-0.2,0-0.3,0.1-0.3,0.3
		c0,0.1,0,0.2,0.1,0.2c0.2,0,0.2-0.2,0.3-0.3C106.2,184.2,106.1,184.1,106,184.1z M106.2,182c-0.1-0.2,0.2-0.6-0.3-0.8
		c-0.4-0.1-0.7,0.1-0.9,0.4c-0.2,0.3-0.2,0.6-0.1,0.9c0.1,0.2,0.7,0.4,1,0.3C106.3,182.7,106.2,182.3,106.2,182z M106.4,179.1
		C106.4,179.1,106.4,179,106.4,179.1C106.4,179.1,106.4,179.1,106.4,179.1L106.4,179.1z M106.5,176.1c-0.3,0.1-0.3,0-0.3-0.2
		c0-0.1,0-0.2-0.1-0.2c0,0-0.1,0.1-0.1,0.1c0,0.1,0,0.2-0.1,0.2c0,0.1,0,0.1,0,0.1c0.2,0.3-0.1,0.7,0.3,0.8c0.1,0,0.1-0.5,0.4-0.7
		C106.7,176.3,106.7,176.1,106.5,176.1z M107,180.2c-0.1,0-0.1,0.1-0.2,0.2c0,0.1,0.1,0.1,0.1,0.1C107,180.3,107,180.2,107,180.2z
		 M107.2,180c0,0-0.1,0.1-0.1,0.1C107.1,180.1,107.2,180.1,107.2,180z M108.2,174C108.3,174,108.3,174,108.2,174
		c0.1-0.1,0.1-0.1,0-0.1C108.2,173.9,108.2,174,108.2,174C108.1,174,108.2,174.1,108.2,174z M108.5,179.7L108.5,179.7L108.5,179.7
		L108.5,179.7z M109.2,177c0.1,0.1,0.1,0.2,0.2,0.1c0.3-0.2,0.5,0,0.7,0.1c0.3,0.2,0.4,0.1,0.4-0.3c0-0.2-0.3-0.8,0.5-0.7
		c0.3,0,0.1-0.5,0.1-0.6c-0.1-0.3-0.2,0.1-0.2,0.1c-0.3-0.1-0.6-0.1-0.8-0.3c-0.2-0.2,0.1-0.3,0.2-0.4c0-0.1,0.1-0.1,0-0.2
		c0,0-0.1,0-0.2,0c-0.1,0.1-0.2,0.1-0.3,0.2c-0.2,0.4-0.5,0.7-0.8,1v0c-0.1,0.3-0.3,0.3-0.6,0.4c-0.6,0.1,0.4,0.7-0.2,0.8
		c0,0,0,0.1,0.1,0.1c0.1,0,0.2,0,0.2,0c0.1-0.1,0.1-0.1,0.2-0.2C108.8,176.8,108.9,176.7,109.2,177z M110.4,179.1
		c0.3,0,0.4-0.2,0.6-0.4C110.6,178.6,110.5,178.7,110.4,179.1z M110.7,177.6C110.7,177.6,110.8,177.6,110.7,177.6
		C110.8,177.6,110.8,177.5,110.7,177.6C110.7,177.5,110.7,177.5,110.7,177.6z M109.4,178.6C109.3,178.6,109.3,178.5,109.4,178.6
		c-0.1,0-0.2,0-0.2,0C109.2,178.7,109.2,178.8,109.4,178.6C109.3,178.7,109.3,178.7,109.4,178.6z M109.5,179.2
		C109.4,179.1,109.4,179.1,109.5,179.2C109.4,179.2,109.4,179.2,109.5,179.2z M110.1,182.4L110.1,182.4L110.1,182.4L110.1,182.4z
		 M110.3,178c-0.1-0.1-0.2-0.1-0.3-0.1c-0.1,0.1-0.3,0.2-0.3,0.3c0,0.3-0.2,0.6-0.2,0.9c0.5-0.1,0.4-0.7,0.7-0.9
		C110.2,178.1,110.4,178.1,110.3,178z M110.4,179.7L110.4,179.7C110.4,179.7,110.4,179.7,110.4,179.7
		C110.4,179.8,110.4,179.8,110.4,179.7z M110.6,179.3c-0.1-0.1-0.1-0.1-0.2-0.2c-0.2,0.2,0,0.4,0,0.5
		C110.7,179.6,110.9,179.5,110.6,179.3z M110.9,183.1L110.9,183.1L110.9,183.1L110.9,183.1z M111,182.6L111,182.6L111,182.6
		L111,182.6z M111.2,180.1c0-0.1,0-0.2-0.1-0.1c0,0-0.1,0.1-0.1,0.2c0,0,0.1,0.1,0.1,0.1C111.2,180.2,111.2,180.2,111.2,180.1z
		 M111.4,179.7c0.1-0.1,0.2-0.3,0.4-0.2c0.1,0,0.3,0,0.4-0.1c0.1-0.2-0.1-0.3-0.2-0.4c-0.2-0.4-0.6-0.2-0.9-0.2
		C111.1,179.1,111.3,179.4,111.4,179.7z M112.2,182.6C112.1,182.6,112.1,182.7,112.2,182.6c-0.1,0.1-0.1,0.1,0,0.1
		C112.2,182.8,112.2,182.7,112.2,182.6C112.2,182.7,112.2,182.7,112.2,182.6z M111.5,179.7c0,0,0.1,0.1,0.1,0.1
		c0.1,0.1,0.2,0.1,0.2,0c0-0.1-0.1-0.1-0.2-0.1C111.6,179.7,111.5,179.7,111.5,179.7z M111.6,180.9c-0.1,0-0.1,0.1-0.1,0.1
		c0,0,0.1,0,0.1,0c0.1,0,0.1-0.1,0.1-0.1C111.7,180.9,111.7,180.9,111.6,180.9z M111.6,182.4c0.1,0,0.3,0,0.3-0.1
		c0-0.1,0-0.2-0.1-0.2c-0.1,0-0.3,0-0.3,0.1C111.4,182.3,111.5,182.4,111.6,182.4z M112.3,183.4
		C112.4,183.5,112.4,183.4,112.3,183.4c0-0.1,0-0.2-0.1-0.2c-0.3-0.2-0.5,0-0.8,0.1C111.7,183.6,112.1,183.3,112.3,183.4z
		 M112.2,184.5c0.1,0.1,0.3,0.2,0.5,0.2c0.1,0,0.2,0,0.1-0.1c-0.1-0.2-0.3-0.1-0.5-0.2C112.2,184.4,112.1,184.5,112.2,184.5z
		 M113,187.2c0-0.2-0.1-0.3-0.3-0.3c-0.1,0-0.2,0-0.1,0.1c0.1,0.1,0.1,0.3,0.3,0.3C113,187.3,113,187.2,113,187.2z M112.9,186
		C112.9,186,112.9,186,112.9,186c-0.1,0.1-0.1,0.2,0,0.2c0,0,0.1,0,0.1-0.1C113,186.1,113,186,112.9,186z M113,183.2L113,183.2
		L113,183.2L113,183.2z M113.1,182.4c0.1-0.1,0.2-0.2,0.3-0.2c-0.1-0.2-0.3-0.2-0.5-0.2c-0.2,0.1-0.3,0.2-0.3,0.4
		C112.8,182.6,113,182.5,113.1,182.4z M113.4,184.3C113.4,184.2,113.4,184.2,113.4,184.3c-0.1-0.1-0.2-0.1-0.2,0
		C113.2,184.3,113.3,184.3,113.4,184.3C113.4,184.4,113.4,184.3,113.4,184.3z M113.8,187.1L113.8,187.1L113.8,187.1L113.8,187.1z
		 M114.3,186.7c0-0.1,0-0.1-0.1-0.2c-0.1,0-0.1,0-0.1,0.1C114.2,186.7,114.2,186.7,114.3,186.7C114.3,186.7,114.3,186.7,114.3,186.7
		z M114.3,186.1C114.3,186.1,114.3,186.1,114.3,186.1C114.3,186.1,114.3,186,114.3,186.1c-0.1-0.1-0.1-0.1-0.1,0
		C114.2,186.1,114.3,186.1,114.3,186.1z M114.8,182.9c0-0.1-0.1-0.2-0.2-0.1c-0.3,0.1-0.6,0.2-0.9,0c-0.1-0.1-0.2-0.2-0.3-0.1
		c-0.1,0.1,0,0.2,0.1,0.3C113.7,183.2,114.6,183.2,114.8,182.9C114.8,182.9,114.8,182.9,114.8,182.9z M113.5,182.2
		c0,0,0.1,0,0.1,0.1c0,0,0,0,0,0C113.7,182.2,113.6,182.2,113.5,182.2C113.5,182.1,113.5,182.1,113.5,182.2
		C113.5,182.2,113.5,182.2,113.5,182.2z M114.9,188.1L114.9,188.1L114.9,188.1L114.9,188.1z M115,181.4L115,181.4
		c0.1-0.1,0.2-0.2,0.3-0.4c0.1-0.3,0.3-0.7-0.3-0.6c-0.1,0-0.2-0.1-0.2-0.2c0-0.1,0.2-0.4-0.1-0.4c-0.2,0-0.2,0.2-0.3,0.4
		c-0.2,0.2-0.2,0.4-0.1,0.6c0,0.1,0,0.2-0.2,0.3c-0.1,0-0.2-0.1-0.3-0.1c-0.3-0.1-0.6-0.1-0.9-0.2c0,0-0.2,0-0.1,0.1
		c0.5,0.2,0.7,0.8,1.2,0.7c0.1-0.2,0.2-0.3,0.4-0.1C114.8,181.8,114.8,181.8,115,181.4z M115.2,186.8L115.2,186.8L115.2,186.8
		L115.2,186.8z M115.4,183.7c-0.1,0-0.1,0-0.2,0c-0.1,0-0.2,0-0.2,0.1c0,0,0.1,0,0.2,0C115.3,183.8,115.4,183.7,115.4,183.7z
		 M115.5,179.7c0.1,0,0.2,0,0.2-0.1C115.6,179.6,115.5,179.6,115.5,179.7C115.5,179.6,115.5,179.7,115.5,179.7z M115.8,181.1
		c-0.1-0.1-0.2,0-0.3,0.2c-0.1,0.1,0,0.2,0,0.3c0.1-0.1,0.1-0.1,0.2-0.2C115.8,181.3,116,181.2,115.8,181.1z M116,181.5
		c0,0.1,0,0.2,0.2,0.3c0.1,0,0.1,0,0.1-0.1c0-0.1,0-0.2-0.2-0.3C116,181.4,116,181.4,116,181.5z M116.2,183.1c0.1,0,0.2,0,0.2-0.1
		c0-0.1-0.1-0.1-0.2-0.1c-0.1,0-0.1,0-0.2,0.1C116,183.1,116.1,183.1,116.2,183.1z M117.1,186c0,0,0-0.1-0.1-0.1
		c-0.1-0.1-0.3-0.2-0.4-0.2c-0.1-0.1-0.4-0.2-0.4-0.1c-0.1,0.2,0.2,0.1,0.3,0.2c0.1,0.1,0.3,0.1,0.4,0.2
		C117,186,117.1,186.1,117.1,186z M117.3,183.1l0-0.1c-0.2-0.1-0.3,0-0.4,0.1C117,183.1,117.2,183.2,117.3,183.1z M117.7,186.7
		L117.7,186.7L117.7,186.7L117.7,186.7z M119,186.4L119,186.4L119,186.4L119,186.4z M119.6,185.4c0,0.1,0,0.1,0,0.2c0,0,0,0,0,0
		C119.6,185.5,119.6,185.5,119.6,185.4z M119.7,185.2c-0.2-0.3-0.4-0.7-0.6-1c-0.1,0.1-0.1,0.2-0.2,0.2c-0.8-0.2-1.1,0.5-1.6,0.8
		c-0.1,0-0.1,0.2,0,0.3c0.5,0.4,0.7-0.5,1.1-0.2c0,0,0.1,0,0.1,0c0-0.1,0-0.1,0-0.2c-0.1-0.2,0-0.3,0.1-0.5c0.3,0.3,0.6,0.5,0.9,0.8
		l0,0C119.6,185.3,119.8,185.3,119.7,185.2z M119.9,180.5c0-0.2-0.1-0.3-0.3-0.4c-0.1-0.1-0.3,0-0.4,0c-0.5,0-1.1,0.2-1.6,0.2
		c0.3,0.2,0.7,0.4,1,0.3c0.3-0.2,0.6-0.1,0.9-0.1C119.7,180.5,119.9,180.6,119.9,180.5z M120.2,185c-0.1,0-0.1,0.1-0.1,0.2
		c0,0.1,0.1,0.3,0.2,0.3c0.1,0,0.1-0.1,0.1-0.2C120.4,185.1,120.4,185,120.2,185z M120.6,182.5c0-0.2-0.2-0.3-0.4-0.4
		c-0.1,0-0.1,0.1-0.1,0.1c0,0.2,0.2,0.3,0.3,0.3C120.5,182.6,120.6,182.6,120.6,182.5z M120.6,181.1c0,0,0.1,0,0.1,0
		c0,0,0-0.1-0.1-0.1c0,0,0,0,0,0C120.6,181.1,120.6,181.1,120.6,181.1z M120.7,183c0,0.1,0.1,0.1,0.1,0c0.1,0,0.2-0.1,0.2-0.2
		c0,0-0.1,0-0.1,0C120.8,182.9,120.7,182.9,120.7,183z M120.6,182.1c0,0,0-0.1,0.1-0.1C120.7,182,120.6,182,120.6,182.1z M121,184.1
		c0.1,0,0.1-0.1,0.1-0.2c0-0.1-0.1-0.2-0.2-0.2c-0.1,0-0.2,0-0.2,0.1C120.7,184.1,120.8,184.1,121,184.1z M121.3,184.9
		c0-0.1,0-0.1-0.1-0.2c-0.1,0-0.1,0-0.1,0.1c0,0.1,0,0.1,0.1,0.2C121.2,185,121.2,184.9,121.3,184.9z M121.4,182.1
		c0.1-0.2-0.1-0.2-0.2-0.3c-0.2-0.1-0.3,0-0.4,0.2c0.1,0,0.2,0,0.3,0.1C121.2,182.1,121.3,182.2,121.4,182.1z M121.5,185.4
		C121.5,185.4,121.4,185.3,121.5,185.4c-0.1-0.1-0.1-0.1-0.2,0C121.3,185.4,121.4,185.4,121.5,185.4
		C121.4,185.5,121.4,185.4,121.5,185.4z M121.7,174.7L121.7,174.7L121.7,174.7L121.7,174.7z M121.8,183.5
		C121.8,183.5,121.8,183.5,121.8,183.5c0-0.1,0-0.1,0-0.1C121.7,183.4,121.7,183.4,121.8,183.5C121.7,183.5,121.7,183.5,121.8,183.5
		z M121.8,183.9C121.8,183.9,121.8,183.9,121.8,183.9C121.8,183.9,121.8,183.9,121.8,183.9C121.8,183.9,121.8,183.9,121.8,183.9
		C121.8,183.9,121.8,183.9,121.8,183.9z M121.9,184.7C121.9,184.7,121.9,184.7,121.9,184.7C121.8,184.7,121.8,184.7,121.9,184.7
		C121.8,184.8,121.9,184.8,121.9,184.7C121.9,184.7,121.9,184.7,121.9,184.7z M121.9,172.1c0,0,0.1,0,0.1-0.1c0-0.1,0-0.1,0-0.2
		c-0.1,0-0.1,0-0.1,0C121.9,172,121.9,172.1,121.9,172.1z M122,178.6c0.3-0.1,0.7-0.2,0.9-0.6c0-0.1,0-0.2-0.1-0.2
		c-0.1,0-0.1,0-0.2,0.1C122.5,178.1,122.3,178.4,122,178.6z M122.5,180.2c0.1,0.1,0.2,0.1,0.4,0.1c0.2-0.1,0.5,0,0.7-0.1
		c0.1,0,0.2-0.2,0.1-0.3c-0.1-0.1,0-0.2-0.3-0.1c-0.3,0.1-0.6,0-0.9,0.2c-0.1,0-0.3-0.1-0.3,0C122.1,180.1,122.4,180.1,122.5,180.2z
		 M123,181C123,181,122.9,181.1,123,181c-0.1,0.1-0.1,0.2-0.1,0.2C123,181.3,123.1,181.2,123,181C123.1,181.1,123.1,181,123,181z
		 M123.1,187.3L123.1,187.3L123.1,187.3L123.1,187.3z M123.4,186.6C123.4,186.6,123.4,186.6,123.4,186.6c-0.3-0.2-0.3-0.6-0.7-0.6
		c0,0-0.1,0-0.1,0c0,0.1-0.1,0.2-0.1,0.2c0.2,0.1,0.5,0.3,0.7,0.4C123.3,186.7,123.3,186.6,123.4,186.6z M123.9,185.7
		c-0.2,0-0.4-0.1-0.7-0.1c0,0-0.1,0-0.1,0c0,0,0,0.1,0,0.1C123.4,185.8,123.6,186.2,123.9,185.7z M123.9,178.4
		C123.9,178.3,123.9,178.3,123.9,178.4c-0.1-0.1-0.2-0.1-0.1,0c0,0,0,0,0,0.1C123.9,178.4,123.9,178.4,123.9,178.4z M124,174.6
		c0,0-0.1,0.1-0.1,0.1C123.9,174.7,124,174.6,124,174.6C124.1,174.6,124,174.5,124,174.6z M124.3,171.7c0.1,0.1,0.3,0.2,0.4,0.3
		c0,0,0.1,0.1,0.2,0c0,0,0-0.1,0-0.1c-0.1-0.1-0.2-0.2-0.4-0.3c-0.1-0.1-0.4-0.2-0.4-0.1C124,171.6,124.2,171.6,124.3,171.7z
		 M124.5,183C124.5,183,124.5,183,124.5,183C124.5,183,124.5,183,124.5,183C124.5,183,124.5,183,124.5,183
		C124.5,183,124.5,183,124.5,183z M124.6,178.4c0,0-0.1,0.1-0.1,0.1c-0.1,0.1-0.1,0.1-0.1,0.2c0,0,0,0,0.1,0c0.1,0,0.1-0.1,0.2-0.2
		C124.6,178.6,124.6,178.5,124.6,178.4z M124.9,179.4C124.9,179.4,124.9,179.3,124.9,179.4c0-0.1-0.1-0.1-0.1,0c0,0,0,0,0,0.1
		C124.8,179.4,124.8,179.4,124.9,179.4z M124.8,178.1C124.8,178.1,124.8,178.1,124.8,178.1c-0.2,0-0.2,0.1-0.2,0.3
		C124.7,178.4,124.9,178.3,124.8,178.1z M124.9,181L124.9,181L124.9,181L124.9,181z M125,175.1c-0.1-0.1-0.2-0.1-0.3-0.1
		c-0.1,0-0.1,0-0.1,0.1C124.7,175.1,124.8,175.2,125,175.1C124.9,175.2,125,175.1,125,175.1z M126.6,172.8L126.6,172.8L126.6,172.8
		L126.6,172.8z M126.4,175.5C126.4,175.5,126.4,175.6,126.4,175.5c0.1,0.1,0.2,0.1,0.2,0.1C126.6,175.5,126.5,175.5,126.4,175.5
		C126.4,175.4,126.4,175.4,126.4,175.5z M126.2,175.1C126.2,175.1,126.2,175.1,126.2,175.1c0.1,0,0.1,0,0.2,0
		C126.3,175,126.3,175,126.2,175.1C126.2,175,126.2,175,126.2,175.1z M126,177.9c0,0,0,0.1,0.1,0.1c0,0,0.1,0,0.1-0.1
		C126.1,177.9,126.1,177.8,126,177.9C126.1,177.8,126,177.8,126,177.9z M125.9,175.4C125.9,175.4,126,175.4,125.9,175.4
		C126,175.4,126,175.4,125.9,175.4C126,175.4,126,175.4,125.9,175.4C126,175.3,125.9,175.4,125.9,175.4z M125.9,176.1
		c0,0.1,0,0.2,0.1,0.2C126,176.2,126,176.1,125.9,176.1z M125.7,175C125.7,175,125.7,175,125.7,175C125.7,175,125.8,175,125.7,175
		C125.8,175,125.8,175,125.7,175C125.7,175,125.7,175,125.7,175z M125.3,172.8L125.3,172.8L125.3,172.8L125.3,172.8z M125.5,181.8
		c0.1,0,0.1-0.1,0.1-0.2c0-0.1-0.1-0.2-0.2-0.2c-0.1,0-0.2,0.1-0.2,0.2C125.3,181.7,125.4,181.8,125.5,181.8z M125.6,183.5
		C125.6,183.5,125.6,183.5,125.6,183.5C125.5,183.6,125.6,183.6,125.6,183.5C125.6,183.6,125.7,183.6,125.6,183.5
		C125.7,183.6,125.7,183.6,125.6,183.5z M125.8,182.6L125.8,182.6L125.8,182.6L125.8,182.6z M125.8,186.8
		C125.8,186.8,125.8,186.7,125.8,186.8C125.8,186.7,125.7,186.7,125.8,186.8C125.8,186.8,125.8,186.8,125.8,186.8z M126.3,179.3
		c-0.2,0.1-0.5,0.1-0.7,0.3l0,0C126,179.7,126.1,179.5,126.3,179.3z M126.4,183.1c-0.1,0-0.1,0.1-0.1,0.1c0,0,0,0.1,0.1,0.1
		c0,0,0.1-0.1,0.1-0.1C126.5,183.2,126.5,183.1,126.4,183.1z M126.6,179c0-0.2-0.1-0.4-0.3-0.5c-0.2-0.1-0.3,0.1-0.4,0.2
		c-0.1,0.2,0,0.3,0.1,0.3c0.1,0,0.2,0.1,0.3,0.2C126.5,179.2,126.7,179.2,126.6,179z M137.6,172C137.7,172,137.7,172,137.6,172
		C137.7,172,137.7,172,137.6,172L137.6,172C137.7,171.9,137.6,172,137.6,172z M137.5,180.8C137.5,180.8,137.5,180.9,137.5,180.8
		c0,0.1,0,0.1,0,0.1C137.6,181,137.6,180.9,137.5,180.8C137.6,180.8,137.6,180.8,137.5,180.8z M137.5,177.7L137.5,177.7L137.5,177.7
		L137.5,177.7z M137.4,181.4L137.4,181.4C137.4,181.4,137.4,181.4,137.4,181.4C137.4,181.3,137.4,181.3,137.4,181.4z M137.1,171.4
		c0,0,0.1,0,0.1,0c0,0,0-0.1,0-0.1C137.2,171.3,137.1,171.3,137.1,171.4C137.1,171.4,137.1,171.4,137.1,171.4z M136.3,177.9
		c0,0,0.1,0.1,0.2,0.1c0.1,0,0.1,0,0.1-0.1c0-0.1-0.1-0.1-0.2-0.1C136.4,177.8,136.3,177.9,136.3,177.9z M136.1,174.2
		C136.1,174.3,136.2,174.3,136.1,174.2C136.2,174.2,136.2,174.2,136.1,174.2C136.2,174.2,136.2,174.2,136.1,174.2
		C136.2,174.2,136.1,174.2,136.1,174.2z M135.8,178.8c0,0,0.1,0,0.1-0.1c0,0,0-0.1,0-0.1C135.8,178.6,135.8,178.6,135.8,178.8
		C135.7,178.7,135.7,178.8,135.8,178.8z M135.5,176.7c0.1,0.1,0.1,0.1,0.2,0.1c0,0,0.1-0.1,0-0.1
		C135.6,176.8,135.6,176.7,135.5,176.7z M135.1,179.9c0,0.1,0.1,0.1,0.1,0.1c0.1-0.1,0.2-0.1,0.2-0.3c0-0.1-0.1-0.2-0.2-0.1
		C135.1,179.6,135.1,179.8,135.1,179.9z M134.9,175.3C134.9,175.3,134.9,175.3,134.9,175.3C134.9,175.3,134.9,175.2,134.9,175.3
		C134.8,175.2,134.8,175.2,134.9,175.3z M134.9,184.4c0,0,0.1-0.1,0.1-0.1C135,184.3,134.9,184.3,134.9,184.4
		C134.8,184.4,134.9,184.5,134.9,184.4z M134.8,177.1c0,0,0.1,0,0.1-0.1C134.8,177,134.8,177,134.8,177.1z M134.5,171.3
		c0,0,0.1,0,0.2-0.1c0-0.1,0-0.1-0.1-0.1c-0.1,0-0.1,0.1-0.2,0.1C134.3,171.3,134.4,171.3,134.5,171.3z M134.2,183.6
		c-0.2,0-0.3,0.1-0.3,0.3c0,0.2,0,0.3,0,0.5c0.2,0,0.4,0.3,0.4-0.1c0-0.1,0.1-0.2,0.1-0.3c0-0.1,0.2-0.2,0.1-0.4
		C134.5,183.6,134.3,183.6,134.2,183.6z M133.9,182.6L133.9,182.6L133.9,182.6L133.9,182.6z M134,179.1c-0.1,0-0.2,0-0.2,0.1
		c0,0.1,0,0.2,0.2,0.2c0.1,0,0.2,0,0.2-0.1C134.2,179.2,134.1,179.2,134,179.1z M133.7,180C133.7,180,133.7,180.1,133.7,180
		c0.1,0.1,0.1,0,0.1,0C133.9,179.9,133.8,179.9,133.7,180C133.8,180,133.7,180,133.7,180z M133.8,177.2
		C133.8,177.2,133.8,177.2,133.8,177.2C133.8,177.3,133.8,177.3,133.8,177.2z M133.7,171.5C133.7,171.5,133.8,171.5,133.7,171.5
		C133.8,171.4,133.8,171.4,133.7,171.5C133.7,171.4,133.7,171.4,133.7,171.5C133.6,171.4,133.6,171.4,133.7,171.5z M133.7,175.9
		L133.7,175.9L133.7,175.9L133.7,175.9z M133.6,176.8c0,0.1,0,0.1,0.1,0.1c0.1,0,0.1-0.1,0.1-0.2c0-0.1-0.1-0.1-0.1-0.1
		C133.6,176.6,133.6,176.7,133.6,176.8z M133.2,174.6C133.2,174.6,133.2,174.6,133.2,174.6C133.2,174.6,133.2,174.6,133.2,174.6
		L133.2,174.6C133.3,174.6,133.3,174.6,133.2,174.6C133.2,174.6,133.2,174.6,133.2,174.6C133.2,174.5,133.2,174.5,133.2,174.6z
		 M132.8,176.7C132.8,176.7,132.7,176.7,132.8,176.7c0,0.2,0,0.4,0.2,0.4c0,0,0-0.1,0.1-0.1C133.1,176.9,133,176.8,132.8,176.7z
		 M132.3,178.3L132.3,178.3L132.3,178.3L132.3,178.3z M130.8,173c0.2,0.1,0.4,0.5,0.8,0.1c0,0,0,0,0,0l0,0c0,0,0,0,0,0
		c-0.2-0.1-0.4-0.2-0.6-0.2c0,0-0.1,0-0.1,0C130.8,172.9,130.8,173,130.8,173z M129.8,171.8C129.8,171.8,129.8,171.8,129.8,171.8
		C129.8,171.8,129.8,171.7,129.8,171.8C129.8,171.7,129.8,171.7,129.8,171.8C129.7,171.7,129.7,171.7,129.8,171.8z M129.5,179.3
		c0,0.1,0,0.1,0.1,0.1c0.1,0,0.1,0,0.1-0.1C129.7,179.2,129.6,179.2,129.5,179.3C129.5,179.2,129.5,179.2,129.5,179.3z M129.1,180.2
		c-0.3-0.1-0.1,0.3-0.2,0.4c0,0,0,0.1,0,0.1c0.1,0,0.1,0,0.2,0.1c0.2,0,0.4,0.1,0.5-0.1C129.5,180.4,129.3,180.2,129.1,180.2z
		 M129.2,171.7c0-0.1,0-0.1,0-0.2c-0.1,0-0.1,0-0.2,0.1c0,0.1,0,0.1,0,0.2C129.1,171.8,129.1,171.8,129.2,171.7z M129.1,179.4
		c-0.1,0-0.1,0.1-0.1,0.1c0,0,0.1,0.1,0.1,0.1C129.2,179.6,129.2,179.6,129.1,179.4C129.2,179.5,129.1,179.5,129.1,179.4z
		 M129.2,172.2c0,0-0.1,0-0.1,0c0,0,0,0.1,0.1,0.1C129.2,172.4,129.2,172.3,129.2,172.2C129.3,172.3,129.3,172.2,129.2,172.2z
		 M128.8,170.7c0,0.2,0.1,0.2,0.3,0.3c0.1,0,0.1,0,0.1-0.1c0-0.1,0-0.2-0.2-0.2C128.9,170.6,128.8,170.6,128.8,170.7z M128.6,177.5
		C128.6,177.5,128.7,177.5,128.6,177.5c0.1,0,0.1,0,0.1-0.1c0,0-0.1,0-0.1-0.1C128.6,177.4,128.6,177.4,128.6,177.5z M128.6,176.1
		C128.7,176.1,128.7,176,128.6,176.1c0-0.1,0-0.1,0-0.1C128.6,176,128.6,176,128.6,176.1C128.6,176.1,128.6,176.1,128.6,176.1z
		 M128.3,175.3c0.1,0.1,0.2,0.1,0.3,0.2c0.1,0,0.1-0.1,0.1-0.1c0-0.1-0.1-0.2-0.3-0.2C128.4,175.2,128.3,175.2,128.3,175.3z
		 M128.5,180.2C128.5,180.2,128.4,180.2,128.5,180.2c0,0.1,0,0.1,0,0.2C128.5,180.4,128.5,180.3,128.5,180.2z M128,171.8
		c0,0.1,0,0.3,0.1,0.4c0.1,0,0.1-0.1,0.1-0.2c0.1-0.1,0.1-0.3-0.1-0.3C128,171.6,128,171.7,128,171.8z M127.7,175.1
		c0,0.1,0.1,0.1,0.1,0.1c0.1,0,0.1-0.1,0.1-0.1c0-0.1-0.1-0.1-0.1-0.1C127.7,175,127.7,175.1,127.7,175.1z M127.9,177.7
		C127.8,177.7,127.8,177.7,127.9,177.7c-0.1,0.1-0.1,0.1-0.1,0.2c0,0,0.1,0,0.1-0.1C127.9,177.7,127.9,177.7,127.9,177.7z
		 M127.7,179.7c0,0.1,0,0.1,0.1,0.1c0.1-0.1,0.2-0.2,0.2-0.3c0-0.1-0.1-0.1-0.1-0.1C127.7,179.5,127.7,179.6,127.7,179.7z
		 M127.2,176.2c0,0.1,0,0.1,0.1,0.1c0.1,0,0.1,0,0.2-0.1c0,0,0-0.1,0-0.1C127.3,176.1,127.2,176.1,127.2,176.2z M127.1,176.8
		C127.1,176.8,127.2,176.8,127.1,176.8c0.1-0.1,0.1-0.1,0.1-0.1c0,0-0.1,0-0.1,0C127.1,176.8,127.1,176.8,127.1,176.8z M127.2,180
		C127.1,180,127.1,179.9,127.2,180c-0.1,0-0.2,0-0.2,0.1c0,0.1,0.1,0.1,0.1,0.1C127.1,180.1,127.2,180.1,127.2,180z M127.4,178.8
		c0,0,0-0.1,0-0.1c-0.2,0.1-0.3,0.2-0.1,0.4c0,0,0.1,0.1,0.2,0.1C127.5,179,127.4,178.9,127.4,178.8z M127.6,178.6
		c0,0-0.1-0.1-0.1-0.1c-0.2,0-0.2,0.1-0.1,0.2C127.4,178.7,127.5,178.8,127.6,178.6z M128.2,181.9c0,0-0.1,0-0.1,0.1
		c0,0,0,0.1,0,0.1C128.1,182,128.1,181.9,128.2,181.9z M128.3,181.7L128.3,181.7c-0.1,0-0.1,0.1-0.1,0.2
		C128.2,181.8,128.3,181.8,128.3,181.7z M128.5,180.5c-0.2,0-0.3,0-0.5,0c-0.2,0-0.4-0.2-0.5,0c0,0,0,0.1,0,0.1
		c0.2,0.1,0.4,0.1,0.5,0.1C128.2,180.7,128.4,180.5,128.5,180.5z M128.6,181.2C128.6,181.2,128.6,181.2,128.6,181.2
		c-0.1,0-0.1,0-0.1,0c0,0,0,0.1,0.1,0.1C128.6,181.3,128.6,181.3,128.6,181.2z M128.7,185.8C128.7,185.8,128.6,185.8,128.7,185.8
		C128.6,185.8,128.6,185.8,128.7,185.8C128.6,185.9,128.6,185.9,128.7,185.8C128.7,185.8,128.7,185.8,128.7,185.8z M129,182.7
		c0,0-0.1,0-0.1,0.1c0,0,0,0.1,0.1,0.1C129,182.9,129.1,182.9,129,182.7C129.1,182.8,129.1,182.7,129,182.7z M129.5,181.4
		c-0.2-0.2-0.5-0.3-0.6-0.7c-0.4,0.3-0.1,0.5,0.1,0.7C129.1,181.8,129.3,181.4,129.5,181.4z M129.7,183.3
		C129.6,183.3,129.6,183.3,129.7,183.3C129.6,183.3,129.6,183.3,129.7,183.3C129.6,183.3,129.6,183.3,129.7,183.3
		C129.6,183.3,129.6,183.3,129.7,183.3z M129.8,181.6c0-0.3-0.2-0.2-0.3-0.2c0,0.3,0,0.5-0.2,0.7c-0.1,0.1,0,0.2,0,0.3
		c0.2,0.1,0.2-0.1,0.2-0.2C129.7,182,129.8,181.8,129.8,181.6z M129.9,174.4L129.9,174.4L129.9,174.4L129.9,174.4z M129.9,170.9
		C129.9,170.9,129.9,170.9,129.9,170.9C129.9,170.9,129.9,170.9,129.9,170.9C129.9,170.9,129.9,171,129.9,170.9
		C129.9,171,129.9,170.9,129.9,170.9z M130,170.5C130,170.5,130,170.4,130,170.5c-0.1-0.1-0.1-0.1-0.1,0
		C129.9,170.5,129.9,170.5,130,170.5C130,170.5,130,170.5,130,170.5z M130.5,174.6L130.5,174.6L130.5,174.6L130.5,174.6z
		 M130.9,173.9C130.9,173.9,130.9,173.8,130.9,173.9c-0.3-0.2-0.2-0.6-0.5-0.7c0,0-0.1,0-0.1,0c0,0-0.1,0.1-0.1,0.1
		c0.2,0.2,0.4,0.4,0.6,0.6C130.8,173.9,130.8,173.9,130.9,173.9z M131.3,181.4c0,0-0.1-0.1-0.1-0.1c0,0-0.1,0.1-0.1,0.1
		c0,0,0.1,0.1,0.1,0.1C131.4,181.6,131.4,181.5,131.3,181.4z M131.5,185.2L131.5,185.2L131.5,185.2L131.5,185.2z M131.7,179.6
		c0-0.1,0.1-0.1,0.1-0.2c0-0.1,0-0.2-0.1-0.2c0,0-0.1,0-0.1,0c-0.1,0.1,0.1,0.2,0.1,0.2C131.6,179.5,131.7,179.5,131.7,179.6z
		 M132,186.2C132,186.1,132,186.1,132,186.2C132,186.1,132,186.1,132,186.2C132,186.1,132,186.1,132,186.2
		C132,186.2,132,186.2,132,186.2z M132.1,185.4L132.1,185.4L132.1,185.4L132.1,185.4z M132.3,187.2c0-0.1,0-0.1-0.1-0.2
		c-0.1,0-0.1,0-0.2,0.1c-0.1,0.1,0,0.2,0.1,0.2C132.2,187.3,132.3,187.3,132.3,187.2z M132.6,179.8c0.1-0.1-0.1-0.2-0.1-0.3
		c-0.1-0.1-0.2-0.2-0.3-0.1c-0.1,0.1-0.3,0.2-0.5,0.2c0,0.5,0.4,0.2,0.6,0.3C132.4,179.9,132.5,180,132.6,179.8z M132.5,182.5l0.1,0
		C132.6,182.5,132.6,182.4,132.5,182.5z M132.7,183.2C132.7,183.2,132.6,183.2,132.7,183.2L132.7,183.2
		C132.6,183.2,132.7,183.2,132.7,183.2z M132.7,170.6C132.7,170.6,132.7,170.6,132.7,170.6C132.7,170.6,132.7,170.6,132.7,170.6
		C132.7,170.6,132.7,170.6,132.7,170.6L132.7,170.6z M133.1,178c0.1,0,0.1-0.1,0.1-0.2c-0.1-0.1-0.2-0.2-0.4-0.2
		c-0.1,0-0.1,0.1-0.1,0.1C132.8,177.9,132.9,178,133.1,178z M133.2,186.1L133.2,186.1L133.2,186.1L133.2,186.1z M133.4,185
		c-0.1,0-0.2,0-0.2,0.1c0,0,0,0.1,0.1,0.1C133.3,185.1,133.4,185.1,133.4,185z M133.4,185C133.5,185,133.5,185,133.4,185
		C133.5,184.9,133.5,184.9,133.4,185z M133.6,185.5C133.5,185.4,133.5,185.4,133.6,185.5C133.5,185.5,133.5,185.5,133.6,185.5
		C133.5,185.5,133.5,185.5,133.6,185.5z M133.7,177.3C133.7,177.3,133.6,177.3,133.7,177.3l-0.1,0.1
		C133.7,177.4,133.7,177.3,133.7,177.3z M134.1,185.5c-0.1,0-0.1,0.1-0.2,0.1c-0.1,0.1-0.3,0.1-0.2,0.2c0.1,0.1,0.3,0,0.4-0.1
		C134.1,185.8,134.1,185.7,134.1,185.5z M134.7,185.4c0-0.1-0.2-0.1-0.4-0.1c-0.3,0-0.2,0.1-0.1,0.2c0.1,0,0.2,0,0.3,0
		C134.5,185.5,134.7,185.6,134.7,185.4z M134.9,186.8C134.8,186.8,134.8,186.8,134.9,186.8c-0.1,0-0.1,0-0.1,0.1
		C134.7,186.9,134.8,186.9,134.9,186.8C134.9,186.9,134.9,186.9,134.9,186.8z M135,185.8c-0.1,0-0.2,0.1-0.2,0.2
		c0,0.1,0,0.1,0.1,0.1c0.1,0,0.1-0.1,0.2-0.2C135.1,185.9,135.1,185.9,135,185.8z M135,184c0,0.1,0,0.2,0,0.3
		C135.1,184.2,135.2,184.1,135,184z M135.7,181.4C135.7,181.4,135.7,181.4,135.7,181.4c0.1-0.2,0-0.5-0.1-0.7
		C135,181.1,135,181.1,135.7,181.4z M135.4,182.1C135.4,182.1,135.4,182,135.4,182.1c0-0.1-0.1-0.1-0.1,0c0,0,0,0.1,0,0.1
		C135.3,182.1,135.4,182.1,135.4,182.1z M135.5,186.3C135.5,186.3,135.4,186.3,135.5,186.3c-0.1,0.1-0.1,0.2-0.1,0.2
		C135.5,186.4,135.6,186.4,135.5,186.3z M135.7,183.4c0,0-0.1,0.1-0.1,0.1C135.7,183.5,135.8,183.5,135.7,183.4z M136.2,186.9
		c0-0.1,0-0.2-0.1-0.2c-0.1,0-0.2,0-0.2,0.1c0,0.1,0.1,0.2,0.2,0.2C136.1,187,136.2,187,136.2,186.9z M136.3,186.2L136.3,186.2
		L136.3,186.2L136.3,186.2z M137.4,184.5C137.4,184.5,137.4,184.5,137.4,184.5c-0.1,0.2-0.2,0.4,0,0.6l0.1,0
		C137.6,184.9,137.4,184.7,137.4,184.5z M137.9,183.7c0-0.1,0-0.1-0.1-0.1c-0.1,0-0.1,0.1-0.1,0.1c0,0.1,0,0.1,0.1,0.1
		C137.8,183.9,137.9,183.8,137.9,183.7z M137.9,184.7C137.9,184.7,137.9,184.7,137.9,184.7C137.8,184.7,137.8,184.7,137.9,184.7
		C137.8,184.7,137.9,184.7,137.9,184.7C137.9,184.7,137.9,184.7,137.9,184.7z M138.1,183.1c0-0.1-0.1-0.2-0.2-0.2
		c-0.1,0-0.2,0-0.3,0c-0.4,0.2-0.4-0.1-0.5-0.3c-0.1-0.3,0-0.4,0.3-0.4c0.1,0,0.2-0.1,0.2-0.2c0-0.2-0.1-0.2-0.3-0.2
		c0,0-0.1,0-0.1,0c-0.6-0.1-0.6-0.1-0.4-0.7c0.1-0.3-0.1-0.6-0.3-0.7c-0.3-0.1-0.2,0.3-0.3,0.4c0,0,0,0.1,0,0.1
		c0.1,0.4-0.1,0.5-0.5,0.5c0,0.2,0.1,0.3,0.3,0.4v0l0,0c0,0,0,0,0,0c0,0,0,0,0,0l0,0l0,0l0,0c0,0.3-0.2,0.5-0.1,0.8
		c0,0.1,0,0.2,0.1,0.2c0,0,0.1,0,0.2-0.1c0.5-0.4,0.5-0.4,0.8,0.1c0,0.1,0.1,0.2,0.1,0.2c0.1,0.1,0.1,0.3-0.1,0.4
		c-0.2,0.1-0.2-0.1-0.3-0.2c0-0.1-0.1-0.1-0.1-0.1c-0.1,0-0.1,0.1-0.1,0.2c-0.1,0.5,0.4,0.5,0.5,0.7c0.1,0.2,0.1-0.2,0.3-0.3
		c0.2-0.1,0.3-0.5,0.7-0.5C138,183.3,138.1,183.2,138.1,183.1z"/>
</g>
</svg>
