<?xml version="1.0" encoding="UTF-8"?>
<svg xmlns="http://www.w3.org/2000/svg" version="1.1" viewBox="0 0 187.4 200.8">
  <defs>
    <style>
      .cls-1 {
        fill: #c6a445;
      }

      .cls-2 {
        fill: #fff;
      }
    </style>
  </defs>
  <!-- Generator: Adobe Illustrator 28.7.2, SVG Export Plug-In . SVG Version: 1.2.0 Build 154)  -->
  <g>
    <g id="Layer_1">
      <g>
        <path id="SkyLounge" class="cls-2" d="M160.9,42.1l11.6,8.8,2.8-3.7-7.4-5.6,2.3-3,6.3,4.8,2.8-3.7-6.3-4.8,2.2-2.8,7.4,5.6,2.8-3.7-11.6-8.8-12.9,16.9ZM150.4,36.2c2.1,1.1,4.1,1.6,6.6.9,2.2-.7,3.6-2.2,5.3-5.2l1.4-2.6-7.4-4-2.1,3.9,2.8,1.5v.3c-.5.7-1.1,1.4-1.9,1.6-.7.2-1.5.2-2.5-.4-.8-.5-1.3-1.1-1.4-1.8-.1-.8,0-1.6,1.8-5,1.9-3.4,2.5-3.9,3.2-4.2.6-.3,1.4-.3,2.3.2,1.6.9,2,1.9,1.5,3.6l4.6,2.5c1.2-3.3.9-7.6-4-10.2-2.3-1.2-4.2-1.4-6.3-.8-3,.9-4.3,3.3-6,6.5s-3,5.6-2.1,8.5c.8,1.9,2,3.4,4.2,4.7M124.2,25.3l5,1.7,3.4-10.2,3.1,12.4,4.4,1.5,6.8-20.3-5-1.7-3.4,10.2-3.1-12.4-4.4-1.5-6.8,20.3ZM112.3,23.2c4.4.7,8.5-1.6,9.3-6.3l2.3-13.7-5.2-.9-2.3,13.7c-.3,2-1.6,2.9-3.4,2.6-1.7-.3-2.6-1.6-2.3-3.5l2.3-13.6-5.2-.9-2.3,13.7c-.7,4.7,2.4,8.2,6.8,8.9M92.8,17.1c-1,0-1.7-.4-2.1-1-.5-.6-.8-1.3-.8-5.2s.3-4.6.8-5.3c.4-.5,1.1-.9,2.1-.9s1.7.4,2.1.9c.5.6.8,1.3.8,5.3s-.3,4.6-.8,5.2c-.3.5-1.1,1-2.1,1M92.9,21.8c2.6,0,4.4-.8,5.9-2.4,2.2-2.2,2.2-4.9,2.2-8.5s0-6.3-2.2-8.5c-1.5-1.5-3.3-2.3-6-2.3s-4.4.8-5.9,2.4c-2.2,2.2-2.2,4.9-2.2,8.5s0,6.3,2.2,8.5c1.6,1.5,3.4,2.3,6,2.3M69,23.8l14.1-2.1-.7-4.6-8.9,1.3-2.4-16.5-5.2.8,3.1,21.1ZM49.6,29.7l4.9-1.8-3-8.2,1.7-14.1-5.4,2-.5,8.4-5.8-6.1-5.4,2,10.4,9.7,3.1,8.1ZM27.6,40.6l4.6-2.6-3.3-5.8.6-2.7,8.6,5.3,5.4-3-12.8-7.4,2.2-11.1-5.6,3.1-1.8,9.6-3.7-6.6-4.6,2.6,10.4,18.6ZM18.3,47.7c3.5-2.8,5-7,2.3-10.4-1.2-1.6-2.6-2.5-4.2-2.7-1.3,0-2.7.2-4.4,1.2l-2.2,1.3c-.6.4-1.2.5-1.5.4-.5,0-.8-.3-.9-.5-.6-.7-.6-2,.8-3.2,1.3-1.1,2.4-1.7,4-1.5l.5-4.6c-2.6-.3-4.8.6-7.2,2.5-3.8,3-4.4,7.1-1.9,10.1,1.1,1.4,2.4,2.3,3.8,2.5s2.9-.2,4.5-1.2l2.2-1.3c.6-.4,1.1-.5,1.5-.4s.8.3,1.1.7c.8,1,.4,2.1-1.2,3.4-1.3,1.1-3.1,2-4.7,1.8l-.5,4.7c3,.5,5.5-.7,8-2.8"/>
        <path id="Menu" class="cls-1" d="M167,136.5c11.1,0,20.4-7.5,20.4-19.2v-34.7h-13.1v34.4c0,5-2.9,7.8-7.2,7.8s-7.1-2.9-7.1-7.8v-34.4h-13.1v34.7c0,11.7,9,19.2,20.1,19.2M98.9,136.1h13.1v-26.9l17.1,26.9h11.5v-53.5h-13.1v26.9l-17.1-26.9h-11.5v53.5ZM57,136.1h36.4v-11.7h-23.3v-9.4h19.8v-11.7h-19.8v-8.9h23.2v-11.8h-36.3v53.5ZM0,136.1h13.1v-25.6l7.6,13.2h8.4l7.6-13.2v25.6h13.1v-53.5h-12.8l-12,23.6-12-23.6H0v53.5Z"/>
        <path id="Flag" class="cls-2" d="M115,176.8h0ZM116.9,176h0q0-.1-.2,0h0q0,.1.2,0ZM116.8,176.7h0ZM116.7,176.7h0q0,0,0,0ZM136.1,181.7h-.1q.1.1.1,0c0,0,0,0,0,0ZM109.8,176.7c0,0,0,.1,0,0s0-.2-.2-.3c0,0,0,0,0,.1-.1.1,0,.1.2.2ZM110.1,175.8s0-.1,0,0q0-.1-.2,0h0c0,0,.2,0,.2,0ZM118.5,184.5q0,0,0,0h0,0,0,0ZM119.4,178.6c0,.1,0,.2,0,.2s0-.1,0-.2,0-.1,0-.2q0,0,0,.2ZM119.5,178.4h0ZM111.6,178.9q0,0,0,.1h0c0,.1,0,.1,0,0h0ZM40.3,187.7q-.6-.2-.7.4h0v.3c0,0,.3-.1.4-.1h0c.3,0,.6-.2.8-.5-.2,0-.4,0-.5,0ZM39.9,188.3h0ZM38.7,188c-.2.1-.5.1-.4.4h.8s0-.1,0-.2c0-.2,0-.3-.3-.2ZM41.6,186.3c0,.4-.4.7-.6,1.1,0-.2-.3-.2-.4-.3h0c-.4.1-.5-.1-.5-.5h0c.3.1.5-.1.7-.2h0c0,.1,0,0,0,0h0q-.4-.5-.7.1h0c-.2,0-.3.1-.4.3-.3,0-.5-.2-.8-.1,0,0-.2,0-.2.1s0,.1,0,.2q.4.5,0,.8c0,0-.2.1-.2.1,0,.1-.3.1-.4-.1,0-.2,0-.2.2-.3,0,0,0-.1,0-.1,0-.1,0-.1-.2-.1-.5-.1-.5.4-.7.5s.2.1.3.3h0c-.8-.2-1.4-.6-2.2-.8-.7-.2-1.3-.6-2-.5-.2,0-.4-.2-.6-.3-.5-.4-1.1-.7-1.6-.9v-.4c.3-.3.3-.7.3-1.1s-.1-.5.2-.7c1-.6,1.3-1.6,1.5-2.5,0-.6.4-1.1.8-1.5.8-.8,1.2-1.7,1-2.8,0-.5.2-.9,0-1.3s-.2-.8-.4-1.1h0c0-.3.5-.3.5-.6h0c0-.1-.2-.2-.2-.2,0,.2-.3.5-.4.7,0-.1,0-.2-.2-.3-.2-.2-.2-.4-.2-.7,0-1.2-.5-2.3-.9-3.3s-.4-1.9,0-2.8c.2-.3.4-.6.5-.9h.7c0,0,0,.1.2.1,1.2,0,2.3.5,3.4.8h0c0,.1,0,.2,0,.2s0-.1,0-.2c.2,0,.3.1.5.1.9.2,1.7.3,2.6.4h1.1c0,.1,0,.3,0,.5s.3,0,.4-.1c.2-.1.5-.1.6-.3,0-.1,0-.1,0-.2h.3q0,.1.2.2h0,.3v.4h0q0,0,0,.1s0,.1,0,.1h0c0-.1.2-.1.3-.1h0c0,.2,0,.5.2.6.2.1.2.3.3.4h-.2.2c.2,0,.3,0,.4-.2,0-.2,0-.2-.2-.3-.3-.1-.5-.3-.6-.6h0c0-.1,0-.1.2,0,.3.1.6.3.8.6.3.3.6,0,.8-.2s-.2-.2-.2-.3,0-.1,0-.2c.5.1.9.1,1.4,0,.4-.1.8-.1,1.1.1.3.2.6.2,1,.2,1,0,1.6.7,2.3,1.3,0,.1.2.3,0,.5-.2.4-.2.8-.3,1.2-.3,1.1-1.4,1.8-2.5,1.4-.8-.2-1.6-.3-2.4-.3s-2,0-3-.1h-.4c-.7,0-1.4.2-1.9.6h0c0,.1-.3.3-.4.4h0s0,0,0-.2c-.2,0,0,.2-.2.3,0,.1,0,.2,0,.3,0,.1-.3.2-.4.3-.9.6-1.3,1.6-1.5,2.6v.4c.4.6.3,1.3.5,2,0,.3.2.5.3.8h0c-.3.3,0,.5,0,.7h0c-.3,0-.5,0-.7-.2,0-.1-.2,0-.3,0,0,.2,0,.2.2.2.2.1.3.2.6.3.3,0,.2-.2.2-.3h0c0-.1,0-.2.2-.3.2.5.3.9.3,1.4s.4,1.2.8,1.7c.6.9.7,1.8.4,2.8q0-.1-.2-.1c0,0,0,.1,0,.1-.2.2-.2.3,0,.3ZM39.3,179h0c0,.1,0,.2.2.2h0q0-.1-.2-.1h0c0-.1,0-.2,0-.1q0-.1,0,0ZM49,170.2h0ZM48.2,171.5h0,0c0-.1,0,0,0,0ZM46.2,169.5c0,.2,0,.2.3.2s.2,0,0-.1c0-.1,0-.2-.2-.2,0,0-.2,0-.2.1ZM46,171.1c0,.1,0,.3.2.3.2,0,0-.2,0-.3s0-.3-.2-.3,0,.2,0,.3ZM45.6,169.5h0c0-.1,0,0,0,0ZM45.6,171.6h0c0,.1.2,0,.2,0q0-.1-.2,0t0,0ZM45.2,172.3s0,0,0,0q0,.1,0,0t0,0,0,0ZM45,171s0,.1,0,.1h0c0,0,0,.1-.2.1h0q0,.1.2,0h0c0,0,0-.1,0-.2,0,.1,0,0,0,0ZM44.5,169.8c0,.1.2.3.3.3s0-.1,0-.2c0-.2-.2-.3-.3-.3,0,0,0,0,0,.2ZM43.9,170.5c0-.1,0-.2-.2-.2h0c-.4-.3-1,0-1.4-.3,0-.1,0,.1,0,.2.2.6.5,1.1.5,1.8s0,.1,0,.1c0,0,0-.1,0-.1,0-.5.4-.8.4-1.3s.2-.4.4-.4h0c0,0,0,.2.3.2-.1,0,0,0,0,0ZM43.8,169.6c0,0,.1,0,0,0,.1,0,.1,0,0,0q.1,0,0,0ZM43.7,168.5h0ZM42.6,169.5c.3.2.7,0,.8-.4h.2c0,0,.2.1.3,0h0c0-.2-.2-.2-.2-.2,0,0,0,.1-.2.1h0c0-.1-.2-.2-.3-.3-.2-.4-.3-.1-.4,0,0,.1,0,.3-.2.5,0,.2,0,.3,0,.3ZM42,167.8c0,.1,0,.3.2.3s.2-.1.2-.2c0-.2-.2-.2-.3-.3-.1,0-.1.2-.1.2ZM41.8,168.7s0,.1,0,0q.1.1,0,0,.1,0,0,0ZM41.6,170.7h0ZM41,168.5c-.2.3-.4.7-.3,1,.2.3,0,.6,0,.9s-.2.3,0,.4c.2,0,.3-.1.4-.3,0-.1,0-.3,0-.4,0-.5-.1-1.1-.2-1.6h0c0,0,.2,0,.2-.1h0q-.1,0-.2.1h0ZM34.6,168.6h0ZM34.7,169s-.1,0,0,0q-.1,0,0,0c-.1.1,0,.1,0,0,0,.1,0,.1,0,0ZM34.8,169.9h0ZM39.2,171.1c0-.1,0-.1,0-.1-.2,0-.3.2-.3.3s0,.2,0,.1c0,0,.2-.1.3-.3ZM39.2,174.6h0q0,0,0,0ZM39.8,169.9c0-.1,0-.2,0-.3s0,0,0,0c0,.1,0,.2,0,.3s0,.1,0,0ZM40.3,173.9s0,0,0,0c0-.1-.2-.1-.2-.1,0,.1,0,.1.2.1,0,.1,0,.1,0,0ZM40.3,171.5h0q0-.1,0,0c-.1.1,0,.1,0,0,0,.1,0,.1,0,0ZM40.2,169.8c-.3,0,0,.2-.2.4,0,.1,0,.3,0,.3s0-.2.2-.3c0-.2,0-.4,0-.4ZM39.7,168.1c0,.2.2.4,0,.7,0,.1,0,.3,0,.3s.4.1.5-.2c0-.1-.3-1-.4-1.1h0c0,0-.2.2,0,.3ZM39.6,167.5h0s0-.1,0,0q0-.1,0,0,0,0,0,0ZM39.2,171.5s0,0,0,.1h0c0,.1,0,.2,0,.3,0,.1-.2.2,0,.3s.2-.1.3-.2c0-.2,0-.3-.2-.4h0q0-.1,0-.1ZM38.2,167.8c0,.1,0,.3,0,.4h0c0,0,0-.3,0-.4h0ZM36.8,168.5h0ZM35.3,168s0,0,0-.1c0-.1.2-.3.2-.4,0-.1.2-.4,0-.4-.2-.1,0,.2-.2.3,0,.1,0,.3-.2.4,0,0,0,0,0,.2ZM35.6,174.7c0-.2,0-.4,0-.7h0c0-.1,0-.1,0-.1,0,.3-.5.6,0,.8h0ZM35.5,179.5q0,0,0,0h0ZM35.1,182.9s.1,0,0,0q.1,0,0,0,.1,0,0,0h0ZM35.2,184h0ZM34.4,185.7s0,.1,0,0h0c0,0,0,0,0,0,0,0,0,0,0,0ZM34.2,183.1q0-.1,0-.2c0,0-.2,0-.2.1s0,.1,0,.2q.2,0,.2-.1ZM34.6,186.9c0-.1,0-.2,0-.2s-.2.1-.2.2,0,.1,0,.1.2,0,.2-.1ZM35,186.3c0-.1-.2,0-.2,0h0q.1,0,.2,0c0,0,0,0,0,0ZM35.2,187.2h0ZM35.5,185.9c0-.1,0-.2-.2-.2s0,0,0,.1,0,.1.2.2h0ZM35.8,185h0c0-.1,0-.2-.2-.2,0-.1,0-.3-.2-.2,0,.1,0,.3,0,.4h.3v.3c0,.1,0,.3,0,.3s0-.2,0-.4c.1-.3,0-.2-.2-.2ZM35.9,172.4c0,0,0,0,0,0q0-.1,0-.2v.2c-.1,0,0,0,0,0ZM35.8,182.9h0ZM36,171.3c.2,0,.3,0,.3-.2s0-.1-.2-.1-.3.1-.3.2.1,0,.2.1ZM35.8,184.4h0q.1,0,0,0h0ZM36.1,182.3h0ZM36.4,184.4h0c0-.2,0-.3,0-.3,0,0,0,0,0,.1s0,.1.2.2h0q-.1,0,0,0-.1,0,0,0ZM36.4,172.1q0,0,.2-.1,0-.1,0-.1,0,0-.2.1c0,.1,0,.1,0,.1ZM36.6,172.7h0c0,0,0,.1,0,0q0,.1,0,0c0,.1,0,0,0,0ZM37.3,185.9h-.3q0-.1,0-.1h0,0c.2.2.3.3.4.1h0ZM37.7,185.1c0-.2,0-.3-.3-.3h-.5c0,.2-.3.4,0,.4s.2.1.3.1.2.2.4.1v-.3ZM37.5,171.8c0-.1,0-.2,0-.2-.2,0-.2.2-.2.3s0,.1.2.1c0,0,0-.1,0-.2ZM37.4,172.7h0c0,0,0,0,0,0ZM37.8,176.5h0c0-.1,0,0,0,0,0,0,0,.1,0,0q0,.1,0,0ZM37.9,186.6h0s0,0,0,0ZM37.8,172.7q.1,0,0,0h0q0,0,0,0h0ZM38.1,170.3c0,0,.2-.1.2-.1,0-.1,0,0,0-.1-.3-.2-.6-.3-1-.1h0c0-.1-.2-.1-.2-.2.2-.8-.5-1.1-.8-1.6,0-.1-.2-.1-.3,0-.4.5.5.7.2,1.1h0q0,.1.2.1c.2-.1.3,0,.5.1-.3.3-.6.6-.8.9h-.2c0,.1,0,0,.2,0h0c0,.1,0,.2.2.2.3-.2.7-.4,1-.6h0c.3.1.5.5.9.3ZM38,180.5h0ZM38.2,177.3c0-.1,0-.1,0-.1,0,0,0,0,0,.1h0c0,0,0,0,0,0ZM38.2,183.5h0s-.1,0,0,0q-.1,0,0,0c-.1,0-.1.1,0,0q-.1,0,0,0h0ZM38.3,175.4s0,0,0,0c0,0,0,0,0,0h0ZM38.4,171.9h0c0-.2,0-.3-.2-.3,0,0,0,.1,0,.1,0,0,0,.1.2.2ZM38.6,179.9s0-.1,0-.1c0,0,0,0,0,.1,0,0,0,.1.2,0,0,.1,0,.1,0,0ZM38.8,170.1s.1,0,0,0c0,.1.2,0,.2,0,0-.1.2-.3,0-.4-.6-.5,0-1.2-.2-1.8h.1c-.5.3-.4.9-.4,1.4s.5.4.2.8ZM38.7,176.6h0ZM38.7,184.8h0ZM38.8,183.4h0c0,.1.1.1,0,0ZM39.3,186.2s0,0,0,0c0,0,0,.1,0,.1h0ZM40,182.1s0,0,0,0h-.2q0,.1,0,.1s.1,0,.1-.1ZM41.3,184.7q.1,0,0,0h0c0,0,0,0,0,0,0,0,0,0,0,0ZM156.3,182.7c.1.8-.1,1.6-.6,2.3-.2.3-.4.5-.6.8-.3-.2-.5-.4-.8-.7h0c-.3-.1-.3-.3-.4-.6-.1-.6-.7.4-.8-.2,0,0-.1,0-.1.1v.2l.2.2c.3.1.4.2.1.5-.1.1-.2.1-.1.2.2.3,0,.5-.1.7-.2.3-.1.4.3.4s.8-.3.7.5h0v.2c-.4.6-.7,1.3-1,2-.2.4-.3.9-.4,1.4h0s0-.1-.1-.1-.1.1-.1.2,0,.2.1.2h0v.7c-.1-.2-.4-.2-.5-.1-.4.3-.9.2-1.3.2h0v-.3s-.1,0-.1.1,0,.2.1.2h0c.5.4.9.7,1,1.4,0,.2.3,0,.4-.1.2-.1.5-.1.6-.3,0,0,0-.1.1-.1.2.7.6,1.4.8,2.1h0c-.1,0-.1.1-.1.2.1.1.1.2.2.2.1.3.2.7.2,1h0s0,.1-.1.1h-.1c-.1,0-.1.1-.2.1h0q.1.1.2,0h.1c0-.1.1-.1.1-.2h0c.6.8.3,1.8.5,2.7.2,1-.1,1.4-.9,1.8h-1.3c0-.2-.2-.1-.3-.2h-.1q-.1-.2-.2-.2h0c0,.2.1.2.2.3h.2q0,.1.1.1c-.2-.2-.5-.2-.7,0h-.5c-.9-.3-1.7-.5-2.6-.4-1,0-1.9-.1-2.9-.5-.2-.1-.5-.1-.7-.2,0-.2.1-.3.1-.5h0c0-.1-.1-.1-.1-.1,0,.2-.2.4-.2.5-.2,0-.4,0-.6-.1-1.5-.2-3.1-.3-4.6-.3h-1.4c-1.2-.1-2.1-1.1-2.2-2.3,0-.9.3-1.7.5-2.5.1-.4.4-.5.7-.4.9.2,1.8.2,2.8.2s.5.1.7.2c1.4.7,2.8.8,4.3.2.2-.1.3-.1.5-.2h.1c.2-.1.3,0,.5.1-.3.3-.5.6-.8.9h-.2c.1.1.1,0,.2,0h0c0,.1.1.2.2.2.3-.2.7-.4,1-.6h0c.3.1.6.4.9.3.1,0,.2-.1.2-.1,0-.1-.1,0-.1-.1-.3-.2-.6-.3-1-.1h0c-.1-.1-.2-.1-.2-.2.1-.3,0-.6-.1-.8.5-.4.9-1,1.2-1.7.1-.2.1-.4.1-.6,0-.4.1-.7.2-1.1h.1c.1,0,.2-.1.1-.2-.1-.3-.2-.6,0-.9.1-.1.2-.2.1-.3-.1-.1-.2,0-.3.1h0c-.1-.2-.1-.3-.2-.5h0c-.2-.4-.3-.7-.4-1-.2-.9-.5-1.7-.9-2.5-.3-.5-.4-1.1-.3-1.7,0-.3.1-.6.1-.9s.1-.7.2-1c.1.1.2.1.3.2.1,0,.2,0,.2-.1,0-.2-.1-.3-.3-.3h-.1c.2-.7.6-1.3.8-1.9.2-.6,1.2-.8,1.9-.7,1.1.2,2.1.5,3.2.8.1,0,.2.1.3.1,1.2-.3,2,.6,3,.9.6.6.9,1.3,1,2.1ZM147,187.5h0c-.3.2-.1.6-.2.8,0,0,0,.1.1.1s.1-.1.2-.1c0-.2,0-.5-.1-.8ZM147.2,186.9h0ZM143,199.1h0ZM144.3,198.8s0-.1,0,0l-.2-.2c-.1.2-.3.5-.4.7h0c0,.1.1.1.1.1,0-.3.5-.3.5-.6ZM145,197.5q0-.1,0,0-.1-.1-.1,0h.1c-.1,0,0,0,0,0ZM145.3,196.3c0-.1-.1-.1-.2-.1s-.3.1-.3.2.1.1.2.1c.2,0,.3,0,.3-.2ZM145.5,197.3q.1,0,.2-.1,0-.1-.1-.1-.1,0-.2.1c0,0,0,.1.1.1ZM145.6,197.9s0,0,0,0q-.1,0,0,0s0,.1,0,0h0ZM146.4,197.9s0,0,0,0q0,0,0,0c0,0,0,0,0,0h0ZM146.5,196.9c0-.1,0-.2-.1-.2-.2,0-.2.2-.2.3s.1.1.2.1c0,0,.1,0,.1-.2ZM146.9,197.8h-.1s0,0,.1,0c0,0,0,0,0,0ZM147.2,192.2c0,.1,0,.2.1.2s.1-.1.1-.2,0-.1-.1-.2c-.1,0-.1.1-.1.2ZM147.3,193.4c.1-.2,0-.3-.1-.4h0c0,.1-.1.3,0,.4h.1ZM147.4,196.9c0-.1,0-.2-.2-.2,0,0-.1.1,0,.1,0,.1.1.2.2.2h0ZM154.2,197.4q0,.1,0,0c.1.1.1,0,.1,0h-.1ZM152,199.9s0,0,0,0c-.1-.1-.1,0-.1,0,0,0,0,.1.1,0,0,.1,0,0,0,0ZM152.4,198.7c-.2-.2-.5-.4-.8-.7h0c.1.3.2.7.6.9.1,0,.2,0,.2-.1q.1,0,0,0ZM152.8,197.4h0c-.1,0,0,0,0,0h0ZM153,199c.1,0,.1.1,0,0h.1q0,.1.1.1h.3s.1-.1,0-.1h0c-.1.1-.2.1-.3.1h0q-.1,0-.2-.1.1,0,0,0h0ZM152.9,194.8h0q0,0,0,0h0ZM152.7,193.7h0ZM151.6,194.7c.3.2.7,0,.8-.4h.2c.1,0,.2.1.3,0h0c-.1-.2-.2-.2-.2-.2-.1,0-.1.1-.2.1h0l-.3-.3c-.2-.4-.3-.1-.4,0-.1.1,0,.3-.2.5q-.1.2,0,.3ZM151.2,195.1c-.1-.1-.2.1-.1.2.2.6.5,1.2.5,1.8s.1.1.1.1c.1,0,.1-.1.1-.1-.1-.5.4-.8.4-1.2s.1-.4.4-.4h0c0,.2.1.3.2.3h.1c0-.1-.1-.2-.2-.2h-.1c-.4-.5-1-.2-1.4-.5ZM151,193c0,.1,0,.3.2.3s.2-.1.2-.2c0-.2-.2-.2-.3-.3,0,0,0,0,0,.2ZM150.9,198h0q0,.1,0,0c0,.1,0,0,0,0ZM150.8,193.9h0q0,0,0,0,0,0,0,0ZM151.6,185.3q0,0,0,0c.2.1.2,0,.1,0s0-.1-.1,0c0-.1-.1,0,0,0ZM151.2,182.5h0s.1,0,0,0c.1,0,0,0,0,0h0ZM151.1,185.4q0,.1,0,0h0c.1.6.7.5.9.7.1.1.1.2.2.2.1-.1.1-.2.1-.3-.1-.1-.2-.3-.3-.3-.3,0-.6-.2-.9-.2h0q0,0,0-.1c0,.1,0,0,0,0ZM151.9,188.9c-.1-.1-.3-.1-.4-.2q-.1,0,0,.1c.1,0,.2,0,.4,0,0,.1,0,0,0,0ZM150.6,184.5h0ZM150.5,187.9c.1,0,.1-.1.1-.2v-.2h0c.1.1.3.2.2.4,0,.1,0,.3.1.4.2.1.3-.1.4-.2.4-.2.2-.6.2-.9h0c.1-.4,0-.6-.4-.6h0c-.2-.2-.4,0-.5,0h0q-.1,0,0,0h0c0,.3.1.4.4.2l.2-.2h0c0,.3.2.4.4.6h0c-.4,0-.7.3-1,.4h-.1c0,.1,0,.3,0,.3ZM149.9,183c.1,0,.1.1.2.1h0q0,.1.1.1h-.1v-.2h0s0-.1-.2,0c0-.1,0,0,0,0ZM150.1,187.1h0c-.1.2,0,.2.1.2s.2,0,.1-.1c0,0-.1,0-.2,0ZM149.5,189c-.2.5-.8.7-.7,1.2h0c.2.1.3.2.1.4q-.3.2,0,.5h0c.1.1.2.2.4.3.3.1.7.3.6-.3,0-.1.1-.2.2-.2s.4.2.4-.1-.2-.2-.4-.3c-.2-.2-.4-.2-.6-.1-.1,0-.2,0-.3-.2,0-.1.1-.2.1-.3.2-.3.2-.6.2-.9.1,0,.1-.1,0,0ZM150.1,192.4s0,.1,0,0c.1,0,.2,0,.2-.1s-.1-.1-.1,0c0,0,0,.1,0,.1ZM150.1,191.8h0q0,0,0,0c0,0,0-.1,0,0q0-.1,0,0ZM149,191.8c.1.1.2.2.3.1.1-.1,0-.2-.2-.3-.1-.1-.2,0-.3,0h0c0,0,0,.2.2.2ZM148.8,192c-.1,0-.2,0-.3.2q0,.1.1.1c.1,0,.2,0,.3-.2,0,0,0-.1-.1-.1ZM149.2,192.4h0c0,.1.1.1.1,0h-.1ZM149.2,187.7c0,.1.1.1.1.1h0c0-.2-.1-.2-.1-.2h0ZM149.2,188.8c-.2,0-.3.1-.3.3s0,.1.1.1c0-.1.1-.2.2-.4,0,0,0,0,0,0h0ZM147.7,188.2s0,0,0,0q-.1-.1-.1,0c0,0,0,.1.1,0,0,.1,0,0,0,0ZM148.3,182.3c.2-.1.6.2.8-.3.1-.4-.1-.7-.4-.9-.3-.2-.6-.2-.9-.1-.2.1-.4.7-.3,1,0,.4.5.3.8.3ZM148.2,189.5c.2-.1.2-.3.2-.5-.1-.2-.2-.3-.4-.3-.2.1-.1.3,0,.4,0,.2.1.2.2.4h0q0,.1-.1.1s0,.1-.1.1h0c0-.1.1-.1.1-.2.1,0,.1,0,.1,0h0ZM147.9,187.6c0,.1,0,.3.1.3s.2,0,.2-.1,0-.3-.1-.3-.2,0-.2.1ZM148,186.2h0ZM147.7,192.2h0c0,0,.1,0,0,0ZM147.7,187.1h0ZM147.6,194.4c0,.3.5.5.2.8h.1c0,.1.1.1.1,0,.1-.1.2-.3.1-.4-.6-.5-.1-1.2-.2-1.7h.1-.1c-.4.3-.3.9-.3,1.3ZM148.2,196.3c0-.1-.1-.1-.1-.1-.2,0-.3.2-.3.3s0,.2.1.1c.1,0,.2-.2.3-.3ZM148.2,199.8h0s0,0,0,0h0ZM148.3,196.8h0c0-.1,0-.2-.1-.1,0,0,.1,0,.1.1h0c0,.1,0,.2-.1.3,0,.1-.2.2,0,.3s.2-.1.3-.2c.1-.2,0-.3-.2-.4ZM148.6,192.7h0q0,0,0,0,0,0,0,0c-.1,0-.1,0,0,0ZM148.8,195.1c0-.1,0-.2-.1-.3q-.1,0-.1.1c0,.1,0,.2.1.3.1,0,.1-.1.1-.1ZM149.3,194.1c0-.1-.3-1-.4-1.1h-.1c-.1,0-.2.2-.1.3,0,.2.2.4,0,.7-.1.1-.1.3.1.3s.4,0,.5-.2ZM149.3,199.1c0-.1-.1-.1,0,0-.1-.1-.2-.1-.2-.1q0,.1.2.1c-.1,0,0,0,0,0ZM149.3,196.7h0q-.1-.1-.1,0s0,.1.1,0c-.1.1,0,0,0,0ZM149.3,195.3c0-.1,0-.3-.1-.3-.3,0-.1.2-.2.4,0,.1-.1.3.1.3.2,0,.2-.3.2-.4ZM149.8,196c.2,0,.3-.1.4-.3.1-.1,0-.3,0-.4,0-.5-.2-1.1-.2-1.6h0q.1,0,.2-.1h-.1c-.2.4-.4.8-.3,1.1.2.3.1.6.1.9,0,.1-.2.3,0,.4ZM150.6,199.5c-.1-.3,0-.6-.2-.9-.1-.1.1-.3,0-.3-.2,0-.1.2-.2.3-.1.1-.1.2-.1.4.1.2,0,.5.1.7,0,.1.2.2.3.1,0-.1.2-.1,0-.3ZM150.6,195.9h0ZM150.6,192.6q-.1,0,0,0-.1.1,0,.1h0ZM152.3,190c0-.2-.2-.1-.3-.1-.2,0-.2-.1-.1-.3.3-.3-.1-.3-.2-.3-.5.2-.8,0-1.1-.4h0q.1,0,.1-.1h-.1c-.2.2-.5.3-.6.5-.2.3.4.2.4.6s.2.3.3,0c.1-.2.3-.3.5-.2.1.1,0,.3,0,.5s0,.1-.1.2h-.1c.1.4.5.6.5,1,0,0,.1.1.2.1s.2-.1.1-.1c-.2-.3,0-.7-.4-.9.3-.2.4,0,.5.2,0,.1.2.2.3.1,0-.4.1-.6.1-.8ZM152.4,187.5s0-.1,0,0c-.2-.1-.2,0-.2.1h.1q0,0,0-.1ZM153.2,187.8s0,0,0,0q.1,0,0,0c.1-.1,0-.1,0,0,0-.1,0,0,0,0ZM152.7,186.8h0s.1,0,0,0q.1,0,0,0ZM152.9,189.1h-.2v-.2c0-.1.1-.2-.1-.2v.4h.1c.1,0,.2,0,.2,0ZM153.2,181.4c0-.1-.1-.1-.1-.1-.1,0-.1.1-.1.1q0,.1.1.1c.1.1.1,0,.1-.1ZM153.8,181.7q0,.1,0,0,0,.1,0,0c0,0,0,0,0,0h0ZM154.6,182.2h-.1c-.1-.1-.2-.1-.2-.2h-.1c-.3.2-.7-.1-.8.3,0,.1.5.1.7.4.1.1.2.1.2-.1-.1-.3,0-.3.2-.3,0,.1.1,0,.1,0ZM152.6,192.2h.1c0-.1-.1-.2-.1-.3v.3ZM88.4,187.1h0ZM138.3,192.3c-1.4-.4-2.9-.3-4.2-1-.4-.2-.9-.3-1.4-.3-1.1-.1-2.2-.2-3.3-.5-.6-.2-1.4-.2-2,0-.5.2-.9.1-1.3,0-.9-.3-1.8-.6-2.8-.1-.2.1-.5.1-.7,0-1.2-.3-2.5-.2-3.8-.1-.8,0-1.5-.1-2.3.2-.2.1-.5.1-.7,0-1.5-.2-3,0-4.5.3-.7.1-1.4,0-2.1,0s-1.8.1-2.8.2c-1.2.2-2.4.3-3.6.4-.3,0-.6,0-.9.2s-.6.2-.9.1c-.8-.1-1.6-.2-2.3.1-.9.3-1.8.1-2.7.3-.4.1-.8.1-1.2.3,0,.1-.3.1-.4.1-1.6-.1-3.1.5-4.7.6-.9,0-1.8,0-2.7.2-1.7.3-3.4.6-5.1.8-.7.1-1.4.3-2.2.4-1.5.1-2.9.1-4.4.3-.4.1-.9.1-1.3.3,0,.1-.3.1-.5.1-1.1-.2-2.3.1-3.4.3-.5.1-.9.1-1.4.1-.8,0-1.6,0-2.3.2-.9.3-1.9.1-2.8.3-1.8.2-3.6.1-5.5,0-.9-.1-1.8-.1-2.7,0-.2,0-.4.1-.5.1q0-.1.2-.2c.4-.3,0-.6,0-.8s-.2.1-.3.2c0,0-.2.1-.3,0-.2-.3-.3-.1-.4.1,0,.1,0,.2-.2.3,0-.1-.2-.1-.2-.2,0-.5-.2-.3-.4-.3-.3.1-.6.3-.8-.2,0-.1,0-.1-.2-.1s0,.1,0,.2c.2.3,0,.4,0,.7-.2.2,0,.3,0,.3q0,0-.2.1c-.4.1-.7.1-1.1,0h.2c.2,0,.3-.1.3-.3h0c-.2-.2-.3,0-.4,0q0,.1,0,.2h-.2c0,0-.2-.1-.3-.1-.3-.1-.6-.2-1-.2h0c0-.3,0-.6-.2-.7,0-.1-.4.1-.4.3s.2.3.4.4h-.8c-.3,0-.6,0-.8-.1,0-.3,0-.6.6-.4.2.1.2-.4.2-.6,0-.3-.2.1-.3,0-.3-.1-.6-.3-.7-.5,0-.2.2-.3.3-.4,0,0,0-.1,0-.2h-.2c0,0-.2.1-.3.2-.2.4-.6.6-1,.8h0c0,.3-.4.2-.7.2s-.3.1-.2.2c-.6-.1-1.2-.2-1.8-.4,0-.1,0-.2.2-.3,0,0,0-.2,0-.2-.3.1-.3,0-.2-.3,0-.1,0-.2,0-.2,0,0,0,.1-.2.1,0,.1,0,.2,0,.2h0v.6c-.8-.2-1.6-.5-2.1-1.2-.4-.5-.4-.9-.2-1.5,0-.3.2-.5.4-.8,1.1-1.8,1.7-3.8,2.2-5.8.3-1,0-2.1-.4-3-.8-1.6-1.3-3.3-1.8-5s1.1-3.4,2.7-3.1c1.1.2,2.2.4,3.3.4s1.3.1,2,0c.4-.1.9-.1,1.3.1.5.2,1.1.2,1.7.1.6-.1,1.3-.1,1.9,0,.8.1,1.5,0,2.3,0s1,0,1.5-.1c.7-.2,1.4,0,2.1,0,1.1.1,2.2,0,3.3-.1,1.4-.2,2.7-.2,4.1-.3.9-.1,1.8-.3,2.7-.3s.5,0,.8.1c.5.3,1,.2,1.5.2.8-.1,1.7-.3,2.5-.5,1.6-.4,3.2-.6,4.8-.5,2.3.1,4.5-.3,6.7-.5,1.6-.2,3.3-.3,4.9-.6,1.9-.3,3.8-.4,5.6-.8.7-.2,1.5-.1,2.3-.2,2-.3,4.1-.2,6.2-.5.9-.1,1.8-.2,2.7-.2,0,.3.3.5.4.5.2.1.4,0,.5-.2s0-.3,0-.4c.5-.1,1.1-.1,1.6-.2.3,0,.5-.1.8-.2.2-.1.3-.1.5-.1.9.1,1.7.2,2.6-.1.2-.1.5-.1.7,0,.6.3,1.3.2,1.9-.1.2-.1.4-.2.7-.1,1,.1,2,0,3,0h.2c.8,0,1.5,0,2.3.2.4.1.7.1,1.1,0,1.1-.3,2.1-.3,3.2-.2-.2.3-.4.5-.3.9h0c0,.1-.2.1-.2.1-.7-.4-1.2.3-1.8.4,0,0-.2.2,0,.3.4.4.8-.4,1.1.1h0v-.2c0-.2,0-.3.2-.4.2.3.5.7.7,1h0c0,.1,0,.1,0,.2h0q0-.1,0-.2h0c0,0,.2,0,.2-.1,0-.4-.3-.7-.4-1.1h0c0-.3.5-.4.5-.9h.4c.4,0,.8.4,1.3.4,1.5.1,3.1.3,4.6.5,2.4.3,4.7,1,7,1.7.5.1.9.3,1.4.4.4.1.8.3,1.2.2.3-.1.6,0,.9.2l.4.4c0,.1-.1.2-.1.2-.2.1-.2-.1-.2-.3s-.1-.2-.1-.2c-.1,0-.1.1-.2.2-.2.4.3.5.4.8.1.2.2-.2.3-.2s.2-.1.3-.1c0,.1.1.1.1.2h0v.2h.1c.1.2.2.4.3.6.2.7,0,1.3-.2,1.9-.3,1.3-.7,2.7-1.3,3.9q0,.1-.1.2c-.8,1-.9,2.2-1,3.4-.1.7.3,1.3.6,1.8s.5,1,.6,1.5c.2.9.3,1.7.7,2.5.2.3.2.6.1.9-.2,1-.8,1.7-1.7,2.2-.1,0-.2.1-.3.1-.9-.1-1.8,0-2.6-.4-.7-.3-1.4-.5-2.1-.4,0-.3-.2-.2-.2-.3ZM145.4,175.1h0q.1,0,0,0c.1,0,0,0,0,0h0ZM144.9,175.4s.1,0,0,0c.2-.2.1-.4.1-.6h0c.1,0,.1-.1.2-.1h0c-.1,0-.1.1-.2.1h0c-.1.1-.2.3-.1.6ZM144.1,176.6h0ZM143.6,176.2h0ZM143.5,173.5h0c.1,0,.2,0,.1-.1,0,0-.1,0-.1.1h0ZM140.6,178.4h0c.1-.1,0-.1,0-.1q-.1.1,0,.1ZM140.6,176.2s0,0,0,0q0,0,0,0c0,0-.1,0,0,0-.1,0,0,0,0,0ZM140.7,187.9s0,0,0,0h-.1q0,.1.1.1h0ZM141.1,175c0-.1-.1-.1,0,0-.1-.1-.1,0,0,0-.1,0,0,0,0,0ZM142,176.6q0-.1,0,0h-.1.1s.1,0,0,0ZM142.8,176.1s-.1,0,0,0c-.1,0-.1.1-.1.2h0s.1-.1.1-.2ZM143,176.7c0,.1,0,.2.1.2s.1,0,.2-.1c0-.1,0-.2-.1-.2q0,0-.2.1ZM142.6,174.2h.1c.1-.2.2-.2,0-.4h0v.3h0s-.1,0-.1.1c-.1,0,0,0,0,0ZM142.4,175.6c-.1,0-.2,0-.2.2s0,.1.1.2c.1,0,.2-.1.2-.1,0-.2,0-.3-.1-.3ZM141.6,174h0c.2.1.3.4.4,0,0-.1.1-.1.2-.2s.2-.2.2-.3-.2-.1-.3-.1c-.2,0-.3,0-.4.2,0,.1,0,.2,0,.4h0ZM141.4,175.2c-.1,0-.3.1-.2.2.1.2.2.1.4,0,.1-.1.1-.2.1-.3h0c.1,0,.2.1.3.1s.3.1.3-.1-.2-.2-.3-.2c-.2-.1-.2.1-.2.2h0c-.3.1-.4.1-.4.1ZM140.8,174.6c.1,0,.1-.1.2-.1h.1-.1c-.1-.1-.2-.1-.2.1-.1-.1,0,0,0,0ZM140.6,172.5h0q0,0,0,0h0s0-.1,0,0h0ZM140.5,175.5q0,.1,0,0c.2.1.2,0,.2-.1h-.1c0,0,0,.1,0,.1ZM139.6,174.6h0ZM139.6,182.1h0ZM139.4,182.6c-.1,0-.1.1-.1.2s.1.1.2.1.1-.1.1-.2c0-.1,0-.1-.2-.1ZM139.4,175.3h0q0-.1,0,0,0-.1,0,0ZM139.3,176.5q.1,0,.2-.1,0-.1-.1-.2h-.2c0,.1,0,.2.1.3ZM139,174.2h0ZM125.7,170.6h0,0ZM43.2,194.5h0q-.1,0,0,0-.1,0,0,0c-.1.1,0,0,0,0ZM46.2,192.5s0,0,0,.1,0,.1,0,.1h0q0-.1,0-.2ZM48,192.7c0-.1,0-.2,0-.3,0-.1,0,0,0,.1s0,.2,0,.3h0ZM48.9,176s0,0,0,0q0,0,0,0c0,0,0-.1,0,0h0ZM48.4,194.2h0ZM49.2,194.2c0-.2-.2-.4-.4-.5h-.3c0-.1,0-.1,0-.2h0c0,.1,0,.1,0,.2h0c0,.1,0,.2.2.3.2.1.3.3.5.2,0,.1,0,.1,0,0ZM49.8,192.8h0ZM49.7,183.6q0-.1,0-.1h0c0,.1,0,.2,0,.2,0,0,0,0,0-.1ZM49.9,194.2h0c0-.1,0-.1,0-.1h0c0,.2,0,.2,0,.1ZM50.5,187q0,.1,0,.2,0,0,0-.1s0-.1,0-.1q0,0,0,0ZM50.6,194.1h0ZM50.5,182.2h0ZM51,195.5v-.2h0c0-.1,0-.1,0-.2h0c0-.2-.2-.4-.4-.4s-.2,0-.2.1,0,.2.2.1c.2,0,.3.1.4.1h0c0,.1,0,.1,0,.2h0c0,.2,0,.2,0,.3,0,.2,0,0,0,0ZM51.9,193.2c-.3,0-.3.3-.5.5,0,0,0,.1,0,.2.3,0,.4-.1.5-.3,0-.2,0-.4,0-.4ZM52.6,193.4s0,0,0,0h0c0-.1,0,0,0,0h0ZM52.7,194.1h0q0-.1,0,0-.1,0,0,0h0ZM52.8,192.2h0ZM53.2,183c.3.1.5.3.6-.2,0-.1.2-.2.3-.4s.2-.4,0-.6c-.5-1-.9-2-1.6-2.9-.2-.2-.3-.3-.6-.1s-.5.4-.5.7,0,.5,0,.7c0,.2-.2.4,0,.5s.3,0,.5-.1.4-.3.7-.3.4.2.5.5c0,.5,0,1-.2,1.4-.2.4-.2.6.3.8ZM53.1,194.6h0c0,.1-.2.2,0,.3,0,0,0,0,0-.1.1-.1,0-.1,0-.2ZM53.4,192.5h-.2,0c0,.1,0,.1,0,0ZM53.9,194.7c0,0-.1,0,0,0,0-.1-.2-.1-.2,0h.2c-.1,0,0,0,0,0ZM54.3,193.5s0,0,0,0c-.3.1-.6-.2-.7.1,0,.1,0,.1.2.2.1,0,.3,0,.5-.3ZM54.9,180.4q0-.1,0-.1c0,0-.2,0-.2.1s0,.2,0,.2c0,0,.2,0,.2-.2ZM56.3,195.7c0-.1,0-.2,0-.1,0,0-.2.1-.3.2q0,.1,0,.2c.2,0,.3-.2.3-.3ZM56.5,182.8c0-.2,0-.5-.4-.5s-.7,0-.7.4.4.4.6.4c.3.1.5,0,.5-.3ZM57.2,188.6c0-.1,0-.3,0-.2,0,0-.2.1-.2.2s0,.2.2.3c0-.1,0-.2,0-.3ZM57.3,179.4c0-.2,0-.3-.2-.3s0,.1,0,.2,0,.2.2.1c0,.1,0,0,0,0ZM57.4,193.3h0ZM58,176.8c0-.4-.3-.4-.6-.5-.2,0-.4,0-.4.3s.4.6.6.6c.3-.1.4-.3.4-.4ZM77,178c0,.1,0,.2.2.2s.2,0,.2-.1,0-.2-.2-.2-.2,0-.2.1ZM73.4,181.6c0,.2,0,.3.4.3,0-.1.4,0,.4-.3s-.3-.3-.5-.3c-.3-.1-.4,0-.3.3ZM73,179.9c0,.1,0,.2.2.2s0-.1.2-.2c0-.1,0-.2-.3-.1,0,0,0,.1,0,.1ZM68.3,179.3c.8.5.8,1.1.3,1.8,0,.1-.3.2,0,.5.2.2.4.1.5-.1.3-.3.4-.7.4-1.1s0-.6,0-.8c0-.4-.3-.7-.6-.9-.3-.2-.7-.3-.8-.1-.2.3,0,.5.4.7ZM66.6,180.4c.4,0,.7.2,1,.4,0,.1.2.1.3,0,0-.1,0-.2,0-.3,0-.2-.2-.4-.2-.7,0-.4-.2-.3-.4-.4-.3.1-.6.1-.8.3-.2.3-.2.7,0,.7ZM63.1,180.8q0,.1,0,.1c0,0,.2-.1.3-.2,0-.1,0-.1,0-.1-.2,0-.3,0-.3.2ZM60,179.2c0,.1,0,.2.2.2.2,0,.4-.1.4-.3s0-.2-.2-.2c-.2,0-.3.1-.4.3ZM58.5,178.3c.2,0,.5,0,.6-.3,0-.2,0-.2-.3-.2s-.5,0-.6.3c0,.2.2.2.3.2ZM58.8,180.9c0,0,.3-.1.3-.3s0-.3-.4-.3-.3.1-.4.3c0,.3.2.3.5.3ZM58.5,194.3h-.2.2ZM59.3,191.2c0-.2,0-.5-.3-.5s-.5.1-.5.4.3.7.5.7c.4,0,.2-.4.3-.6ZM59.6,187.1c0-.2-.3-.6-.5-.5,0,0,0,.1,0,.1,0,.3.3.6.5.5,0,0,0,0,0-.1ZM60.2,182.6c0-.2,0-.3-.3-.4q0,0,0,.1c0,.2,0,.4.3.4,0,0,0,0,0-.1ZM60.5,181.4c0,0,.2-.1.2-.2s0-.2-.3-.2-.2.1-.2.2.2.2.3.2ZM60.9,184.6c.2.1.3.3.4.4,0,.1,0,.3.4.2.2-.1,0-.2,0-.4,0-.5-.3-.9-.8-.9s-.4.1-.5.4c0,.3.3.2.4.3ZM61.3,190.2c0-.1,0-.1-.2-.1s0,.1,0,.1c0,.1,0,.1,0,.1.2,0,.2,0,.2-.1ZM62,189c0-.2,0-.3,0-.5,0-.2-.2-.5,0-.7,0-.2.2-.4,0-.5s-.2.2-.3.3c-.4.5,0,1,0,1.5,0,.1,0,.4.3.3,0,0,0-.2,0-.4ZM62.4,182.1c0-.2.2-.5,0-.6s-.5.1-.6.3c-.2.2-.3.5-.3.7s0,.5.3.6.4.3.7.1c.2-.1.2-.4,0-.6-.2-.2-.2-.4-.1-.5ZM64,183.1c0-.6-.2-.8-.5-.8-.5.1-.5.4-.5.8,0,.6.3,1.2.2,1.8,0,.1,0,.2.2.2s.3,0,.2-.2c0-.4.2-.8.3-1.2,0-.2,0-.4,0-.6ZM64.6,185.9h0q0,0,0,.1h0c0,0,0-.1,0-.1ZM65.4,187c0-.3-.2-.4-.3-.5,0,0-.2,0-.2.1,0,.2,0,.4.3.5,0,0,.2,0,.2-.1ZM66,179.7c0,0,.2,0,.2-.2,0-.4-.6-.9-1-.9s-.2.1-.2.2c0,.4.5.9,1,.9ZM66.2,188.3q0,0,0,.1c0,.1,0,.2,0,.3,0,0,0-.1,0-.1,0-.1,0-.2,0-.3ZM67,183.3c.2,0,.3-.1.4-.3,0-.1,0-.3,0-.4-.5-.4-.7-.9-.9-1.5,0-.1,0-.1,0-.2,0,.1,0,.2-.2.3-.2.3,0,.6,0,1,0,.7.2,1,.9,1.1ZM68.2,192.1c0-.1,0-.3-.2-.3s-.2.2-.2.4,0,.3.2.3.2-.2.2-.4ZM68.9,188.5c.3,0,.4-.2.4-.5s0-.5-.4-.5-.5.2-.5.6c0,.3.3.4.5.4ZM70.4,191.1c0-.4-.4-.6-.6-.8,0-.1-.2-.3-.5-.2-.2.2-.2.4,0,.6,0,.3.7.6,1,.5q0,0,.2-.1ZM69.4,186.3q0,0,0,0c0-.1,0-.2,0-.2,0,0,0,0,0,.1,0,0,0,0,0,0ZM70.7,181.6c0-.1,0-.2,0-.3,0,0-.2,0-.3.1-.2.1-.3.3-.4.6-.3.5-.6,1.1-.9,1.6-.3.4-.6.8-1.1,1-.4.1-.7,0-1-.3,0-.1-.2,0-.3.1,0,.1,0,.2,0,.3.5.2.5.6.5,1.1v.3c0,.4.2.4.5.2s.6-.4.9-.6c.5-.4,1-.8,1.1-1.4,0-.6.4-1.1.8-1.7,0-.4.2-.7.2-1ZM71.1,190.2s0,0,0,0c0-.1,0,0,0,0h0c0,.1,0,0,0,0ZM71.2,179.4c0-.1,0-.1-.2-.1s0,.1,0,.1c0,.1,0,.2.2.1,0,0,0-.1,0-.1ZM71.9,181.7c0,0-.2.1-.2.2s0,.3.2.3.2-.1.2-.2,0-.2-.2-.3ZM72.2,186.7s0,.1,0,.1c0,.1,0,0,0-.1,0,0,0-.1,0-.1,0,.1,0,.1,0,.1ZM72.6,191.7c0-.2,0-.4-.3-.5,0-.1,0,0,0,.1,0,.2,0,.4.3.5,0,0,0-.1,0-.1ZM72.9,187.7c0,0,.2-.1.4-.2,0,0-.2-.1-.3-.1s-.2-.1-.3.1c0,.1.1.2.2.2ZM73.4,192.8c0-.1,0-.3-.3-.3s-.2.2-.2.3c0,.2,0,.3.3.2.2.1.2,0,.2-.2ZM73.4,189.5q0-.1,0,0c0,0-.2,0,0,0h0c0,.1,0,0,0,0ZM74.2,186c0-.3,0-.4-.2-.6,0-.1-.2-.3-.4-.3-.2.1-.4.4-.3.5.2.3.4.6.7.8,0,0,0,0,.2-.1,0,0,0-.2,0-.3ZM75.9,182.7c.2-.2.4-.3.6-.5.3-.2.8-.2.8-.5s-.3-.6-.5-.9c0-.2-.2-.2-.4,0-.2.3-.4.7-.6,1-.5.8-1.2,1.3-2.2,1.2h-.4c-.4,0-.6.2-.6.5s0,.4.3.2c.3-.2.7-.3,1.1-.3.8.1,1.4,0,1.9-.7ZM77.2,190.5s0-.1,0-.1,0,0-.2.1q0,.1,0,.1c0,0,.2-.1.2-.1ZM77.6,187.9v-.2c0-.8-.6-1.2-.9-1.8s-.3,0-.5.1,0,.3,0,.4c.4.3.6.7.8,1.2,0,.1,0,.3.2.4,0,.1.2.1.2.1.2,0,.2,0,.2-.2ZM77.8,184c0-.3,0-.5-.4-.6-.2,0-.2.1-.2.3,0,.3,0,.5.4.6.2,0,.2-.2.2-.3ZM78.8,178.2h0s-.1,0,0,0h0ZM78.9,178.3s0,0,0,0c0,0,0,0,0,0ZM79.1,181.7q0,0,.2-.1c0-.1,0-.2,0-.2s0,0,0,.1c-.2.1,0,.2,0,.2ZM79.5,192.9c0-.1,0-.3-.3-.3s-.2.1-.2.2c0,.2,0,.3.3.3,0,0,0,0,.2-.2ZM79.8,179c0-.2,0-.4-.4-.4s-.3.2-.3.4c0,.3,0,.4.4.4s.3,0,.3-.4ZM86.2,178.5c0,0-.2.1-.2.2s0,.2,0,.2,0-.1.2-.2c.1,0,0-.2,0-.2ZM86.1,174.3s0-.1,0,0c0-.1,0-.2,0-.2v.2c0-.1,0,0,0,0ZM86,177c0,0,0,.1,0,0h0s0-.1,0,0c0-.1,0,0,0,0ZM81.9,179.7c-.2-.1-.6,0-.7.3,0,.2,0,.4,0,.7,0,.1,0,.3,0,.5,0,.1,0,.2,0,.2h0c0-.4.3-.8.4-1.2,0-.2.4-.4,0-.5ZM82.5,184.7s0,0,0,0c0,0,0,.1,0,0q0,.1,0,0,0,.1,0,0ZM83.1,181.4c.3-.5.5-1,.7-1.5,0-.3,0-.6-.3-.7-.4-.1-.5.1-.6.4,0,.1,0,.4-.2.2h0c0,0-.2,0-.2.1,0,.5.3.9.2,1.5q0,.1,0,.2c.2,0,.3,0,.3-.2ZM83.8,184.1h0ZM83.7,191.3c0-.1,0-.2-.2-.2s-.2.2-.2.3,0,.3.2.2c.2,0,.2-.1.2-.3ZM84,187.9c0-.3-.2-.5-.5-.5s-.3.1-.2.3c0,.3.2.5.5.5,0,0,.2-.2.2-.3ZM84.1,185.5c-.2,0-.2.1-.2.3s0,.2.2.3c.2,0,.2-.1.2-.2,0-.2,0-.3-.2-.4ZM86.2,188c0-.2,0-.3-.3-.3-.3,0-.6.3-.6.6s.2.3.4.3c.3,0,.4-.3.5-.6ZM86.2,182.3c0-.4-.3-.6-.6-.6s-.4,0-.5.3c0,.2.6.7.9.7.2,0,.2-.3.2-.4ZM86.6,180.2c-.2-.3-.3-.6-.5-.9,0-.1,0-.1-.2-.1s-.2.1-.2.2c0,.2.5.9.7.9.2.1.2,0,.2,0ZM86.6,175.3c0,0,0,.1-.2.1q0,.1,0,.1c0,0,0-.1,0-.2ZM88,181.1c0,.1,0,.1.2.1s0-.1,0-.2,0-.1-.2-.1c0,0,0,.2,0,.2ZM87.2,188.3q0-.1,0-.1h0c0,.1,0,.2,0,.1,0,0,0,0,0,0ZM87.3,177q0-.1,0,0c0-.1,0,0,0,0h0ZM87.8,177.4c0-.2-.2-.3-.4-.4,0,.2,0,.4.4.4-.1.1,0,0,0,0ZM89,186.9c0-.1,0-.2-.2-.2s-.6,0-.5.4c-.6.3-.6.4-.4,1,0,.2,0,.3.3.4.2,0,.4-.1.5-.3.3-.5.2-.9.3-1.3ZM89.8,181.8h0q-.1,0,0,0,0,0,0,0ZM90.4,183.7q0,0,0,0c0,0,0,0,0,0,0,0,0,0,0,0h0ZM91.2,184.5c0-.1,0-.1-.2-.1s-.2,0-.2.1,0,.1.2.1c0-.1.2,0,.2-.1ZM91.5,182.4c0-.1,0-.2,0-.2s-.2.1-.2.2,0,.2.2.2c0,0,0,0,0-.2ZM91.7,176.5h0ZM92.2,181.4h0ZM92.8,182.4c0-.1,0-.3-.2-.3-.2,0-.3.2-.3.3s0,.3.3.3.2,0,.2-.3ZM94.2,177.7c0-.1,0-.1,0-.1-.2,0-.4.1-.4.3s0,.1,0,.1c.2-.1.3-.2.4-.3ZM94.7,187.8h0q0,0,0,0c0,0,0,0,0,0,0,0,0,0,0,0ZM95.4,183.1q0-.1,0,0,0,0,0,.1c-.1-.1,0,0,0-.1,0,0,0,0,0,0ZM95.8,177.3s0-.1,0,0h0q-.1,0,0,0h0ZM96.4,186.8c0,0,0,.1-.2.1h0c0,.1,0,.1.2,0q0-.1,0-.1ZM98.3,175.5h0ZM98.6,184.1c0-.1,0-.2-.2-.2,0,0,0,.1,0,.2s0,.2.2.2,0-.1,0-.2ZM98.7,181.8c0-.1,0-.3-.2-.2-.2,0-.4.2-.5.4,0,.1,0,.2.3.2,0,0,.3-.2.4-.4ZM102.1,175.4q0,0,0,0,0,0,0,0,0,0,0,0,0,0,0,0ZM102.1,182.9h0s0,0,0,0h0ZM100.3,175.9c0,.1,0,.2,0,.2.2.1.4-.1.5-.2.2-.1.4-.2.4-.5s0-.2-.2-.2c-.4,0-.8.4-.8.7ZM101,179.1c0,0,0,.1,0,.1h0q0,.1,0,0s0-.1,0-.1ZM98.9,184.5s0,.1,0,0h0,0ZM99.4,185.4c0-.1,0-.4-.2-.4-.3.1-.2.4-.3.7,0,.1,0,.2.2.2s.3-.2.3-.5ZM100.3,182.3c0,0,0-.2,0-.3,0-.2,0-.4-.3-.5-.2,0-.3.1-.2.2,0,.3,0,.5.4.6ZM101.1,187.9c-.5,0-.6-.3-.6-.7v-.5c0-.1,0-.2-.2-.1,0,0-.2.1-.2.2-.2.4.5,1.6,1,1.7.2,0,.4-.1.4-.3,0-.2-.2-.3-.4-.3ZM102.3,185.2c0-.1,0-.1-.2-.1,0,.1-.3,0-.4.2,0,0,0,.1.2.1.2.1.3,0,.4-.2ZM102.3,176.7h0ZM102.8,176.8h0ZM123.6,174.9s0,0,0,0c.2.1.2-.1.2-.2,0,.1-.2,0-.2.2ZM123.7,182.1h0q.1,0,0,0,.1,0,0,0ZM123.1,176.9v.3-.3ZM122.8,172.3h0ZM122.8,175.1q0,.1,0,.1c0,0,0-.1,0-.1q0-.1,0-.1c0-.1,0,0,0,.1ZM122.9,177.3h0q0,0,0-.1s0,0,0,.1ZM123,176.8s0-.1,0,0h0ZM122.3,172.4h0ZM122.2,173.6h0ZM122,171.4q0,.1,0,0c0,.1,0,0,0,0h0c0,0,0,0,0,0ZM121.4,172.3h0ZM121.3,176.1s0,0,0,0h0c0-.1,0-.1,0,0,0-.1,0-.1,0,0ZM121.3,177.5h0q0,0,0,0c0,0,0,0,0,0ZM120.7,171.3h0c0-.1,0-.1,0-.2,0,0,0,0,0,.1,0,0,0,0,0,0ZM120.6,175.6q0,0,0,0c0,.1,0,0,.2,0h-.2ZM120.6,173.1s0,0,0-.1h0q0,0,0,.1c0-.1,0,0,0,0ZM120.3,172c0,.1,0,.3.2.3s0,0,0-.1c0-.2,0-.3-.2-.3,0,0,0,0,0,.1ZM119.9,175.2c0,.1.2.1.3.1s.3-.1.3-.2c0-.2-.2-.1-.3-.1-.1.1-.3-.1-.3.2ZM120.4,176.5s0-.1,0,0q0,0,0,0v.2h0c0,0,0-.2,0-.2ZM120.2,176.2s0,.1,0,0q0,.1,0,.1s0,0,0-.1ZM119.8,178.1c-.2,0-.4-.2-.4-.4-.3.4,0,1-.3,1.4,0,.1,0,.2.2.1.6-.2,1.1-.5,1.8-.5s0-.1,0-.1c0-.1,0-.1,0-.1-.6,0-.9-.4-1.3-.4ZM119.4,177.6h0q0,0,0,0c.2.1.2,0,.2-.1h0c0-.1-.2,0-.2.1ZM119.3,172.3h0ZM119,176.3c-.2,0-.3.2-.3.3s0,.1.2.1c0-.1.3-.2.3-.3s0-.1-.2-.1ZM118.8,177.4h0c-.1,0,0,0,0,0h0ZM118.5,175q0,.1,0,.1c.2,0,.2-.1.2-.3s0-.2,0-.1c0,.1-.2.2-.2.3ZM118.6,175.7h0s0,0,0,0ZM118.3,177.9c0,.1-.2.2-.3.3-.4.2-.2.3,0,.4,0,.1.3,0,.5.2,0,.1.2,0,.2-.1.1-.3,0-.7-.4-.8ZM117.9,179.4q0,0,0,0c0,.1,0,.1,0,0h0ZM118.3,177.4c0,.1,0,.2,0,.2,0,.1,0,.1,0,.2v-.2s0,0,0-.2h0ZM118.2,176v.2h0v-.2ZM117.7,175.8c0,.3-.3.5-.5.6.2.1.5.1.6-.2,0-.2.3-.2.4-.3,0-.2,0-.3-.2-.4-.2,0-.2.2-.3.3ZM119.3,183.2c-.2.3-.3.6,0,1,0-.3.4-.6.3-.9,0-.1,0-.2,0-.2-.2-.1-.1,0-.1,0ZM119.6,181.2c0-.2-.2-.2-.3-.2s-.3,0-.3.1c0,.3.2.1.4.2,0,0,.2,0,.2-.1ZM118.7,181.5q0,.1,0,.1c0,0,.2,0,.3-.1q0-.1,0-.1c0,0-.2.1-.3.1ZM117.1,182.3s0,0,0,0c.3.5.8.4,1.3.4s.4-.5.8-.2h0c0-.1,0-.2,0-.2,0-.1-.3-.2-.4-.1-.5.5-1.2.1-1.7.1ZM118.1,181c0,0-1,.3-1.1.4h0c0,.2.2.3.3.2.2,0,.4-.2.7,0,0,.1.3.1.3-.1s0-.4-.2-.5ZM116.7,179.8q0-.1,0,0c0-.1-.2-.1,0,0h0ZM116.6,181.7h0q0,0,0,0,0,.1,0,0h0ZM117.1,178.5c.2,0,0-.3,0-.4-.2.5-.5.1-.7,0-.3,0-.2-.3,0-.5-.2.1-.4-.1-.5,0-.2.1-.2.4,0,.6.3.4.2.9.2,1.3.3-.4.7-.9,1.3-1ZM116.4,181.2h0s0-.1,0-.1h0s0,0,0,.1ZM116.3,180.2q0,0,0,0c0-.1,0-.2,0-.2s0,.1,0,.1h0ZM115.7,180.1h0c0,0,0,0,0,0q.1,0,0,0c.1,0,0,0,0,0ZM117.3,176.8c0,0,0,0,0,0q0-.1,0-.1,0,.1,0,.1ZM116.8,179.2q0,.1,0,.1c0,0,.3,0,.3-.2s0-.2-.2-.2c-.1,0-.1.2-.2.3ZM117.6,180.3q0-.1,0-.2h0q0,0,0,.2ZM117.6,177.5h0ZM115.6,173.4c0,.1,0,.1.2.1.2,0,.4-.1.5-.3h0c0,.1-.5,0-.6.2ZM116.1,174.3s0,0,0,0c0,.2,0,.2,0,.2q0-.1,0-.2c0,0,0,0,0,0ZM115.5,174.8s0-.1,0,0c0-.2,0-.3,0-.3,0,.1,0,.2,0,.3ZM115,172.3h0q0,.1,0,0h-.2ZM114.9,174h0ZM114.6,172.1h0ZM114.6,173.5c0-.1,0-.1,0,0,0-.1,0-.2,0-.2h0v.2ZM114.5,176.7c0,.2,0,.4.4.5.2.1.4.1.6.1.3,0,.6.1.7.4.3.1.5.4.8.4,0-.2,0-.5-.3-.6-.5-.3-.2-.4,0-.6v-.2h.4v-.3c0,0,0-.1,0-.2,0-.3.3-.6.5-.8.3-.3,0-.6-.2-.8s-.2.2-.3.2c0,.1-.2.1-.2,0-.3-.3-.3-.1-.3.1s0,.2,0,.3c0,0-.2-.1-.2-.1,0-.5-.2-.3-.5-.2-.3.2-.6.4-.8,0,0-.1,0-.1-.2,0s0,.1,0,.2c.2.2.2.4,0,.7s0,.3.3.3c0-.2.5-.2.5-.5s.2-.1.3,0c0,.1.2.2,0,.3-.3.1-.3.2,0,.4,0,.1,0,.2,0,.2-.3,0-.5.2-.8.2v-.4c-.2.1-.5,0-.5.4ZM115,176.2v.2c0,0,0-.2,0-.2ZM114.3,179.3h0c.4,0,.6-.4,1-.4,0,0,0-.1,0-.2s0-.2,0-.1c-.3.2-.7,0-.9.4,0,.1,0,.2,0,.3ZM114.5,177.7c0,.1,0,.1.2.1s.2,0,.2-.1,0-.1-.2-.1c0,0-.2,0-.2.1ZM114.2,175.9c-.2,0-.3.2-.3.3s0,.2,0,.2h.2c.2,0,.3-.2.2-.4.1,0,0-.1,0-.1ZM113.6,173.9s0,.1,0,.1c.3,0,.4-.2.4-.4s0-.3-.2-.3c-.2,0,0,.4-.3.6ZM113.7,176.4c-.3,0-.4.1-.3.4.4,0,.4-.2.3-.4ZM113.4,175.9c0,0,.2-.1,0-.2q0-.1,0-.2,0,.1,0,.2c0,.1,0,.2,0,.2ZM113.3,178.6c.2.5,0,.8-.4,1.1,0,.2.2.5.4.6.3.2.2-.4.6-.4s.3-.2,0-.3c-.2-.1-.3-.3-.2-.5,0-.1.3,0,.5,0s0,0,.2.1v-.3c-.2-.2,0-.4.2-.5,0,0,.2-.2,0-.2-.2-.1-.4-.2-.7-.3-.2,0,0,.2,0,.3,0,.2,0,.2-.3.1-.4-.2-.4.2-.3.3ZM112.9,179.7q0-.1,0-.1s0,0,0,.1ZM112.8,181.2h0c0,.1,0,.2.3.3q0,0,0-.1c-.1,0-.3-.2-.4-.2ZM112.9,178.5q0-.1,0,0c0,.1-.2.2-.2.3s0,.1,0,0,0-.2,0-.3ZM112.9,177.7h.2c0,0-.2,0-.2,0,0-.1-.2-.2-.2,0,0,0,0,0,.2,0ZM113.1,177.5s0-.1,0-.1h0ZM112.8,174.6h0ZM112.6,175.3c0,.1,0,.1.2.1.2-.1.3,0,.5,0,0-.2-.2-.3-.5-.3s-.2,0-.2.2ZM112.1,174.7h0c0,.1,0,.1,0,0,0,.1,0,0,0,0,0,0,0,0,0,0ZM111.9,173.4h0ZM111.6,176.1c0,.3.3.2.5.3q0,0,0-.1c-.2-.1,0-.5-.3-.5,0-.1-.3,0-.3.3ZM111.8,177q-.1,0,0,0-.1.1,0,0-.1.1,0,0,0,.1,0,0ZM110.8,174.6c0,.1.2.1.3.2,0,.1.3.2.5.2s0-.1,0-.1c0-.2-.3-.4-.5-.4s-.3,0-.4.1ZM111.4,177.9s0,.1,0,0c0,.2,0,.2,0,.2h0c0-.2,0-.2-.2-.2ZM109.7,173.5c0,.1,0,.2,0,.2q0,0,.2-.1c0-.1,0-.2-.2-.3,0,.1,0,.2,0,.2ZM105.7,176.5c0,0,0,0,0,0h0ZM105.2,177.2c0,.1,0,.1,0,.1q0,0,0-.1c0-.1,0-.1,0-.1t0,.1ZM105.3,186.1c0-.3-.2-.5-.5-.5h-.4c-.2,0-.4,0-.4.2,0,.2,0,.4.2.5s.3.1.5.1c.3,0,.6,0,.6-.3ZM106,184.1c-.2,0-.3.1-.3.3s0,.2,0,.2c.2,0,.2-.2.3-.3,0-.1,0-.2,0-.2ZM106.2,182c0-.2.2-.6-.3-.8-.4-.1-.7.1-.9.4-.2.3-.2.6,0,.9,0,.2.7.4,1,.3.4,0,.3-.5.3-.8ZM106.4,179.1s0-.1,0,0h0ZM106.5,176.1c-.3.1-.3,0-.3-.2s0-.2,0-.2h0c0,.2,0,.3,0,.3h0c.2.4,0,.8.3.9,0,0,0-.5.4-.7,0,0,0-.1-.1-.1ZM107,180.2c0,0,0,.1-.2.2,0,.1,0,.1,0,.1,0-.2,0-.3,0-.3ZM107.2,180h0c0,.1,0,.1,0,0ZM108.2,174q.1,0,0,0,0-.1,0-.1h0c0,.1,0,.2,0,.1ZM108.5,179.7h0ZM109.2,177c0,.1,0,.2.2.1.3-.2.5,0,.7.1.3.2.4.1.4-.3s-.3-.8.5-.7c.3,0,0-.5,0-.6,0-.3-.2.1-.2.1-.3-.1-.6-.1-.8-.3-.2-.2,0-.3.2-.4,0-.1,0-.1,0-.2h-.2c0,.1-.2.1-.3.2-.2.4-.5.7-.8,1h0c0,.3-.3.3-.6.4-.6.1.4.7-.2.8,0,0,0,.1,0,.1h.2q0-.1.2-.2c.1-.3.2-.4.5-.1ZM110.4,179.1c.3,0,.4-.2.6-.4-.4-.1-.5,0-.6.4ZM110.7,177.6s.1,0,0,0c.1,0,.1-.1,0,0q0-.1,0,0ZM109.4,178.6c0,0,0-.1,0,0h-.2c0,0,0,.2.2,0q0,0,0,0ZM109.5,179.2q0,0,0,0,0,0,0,0ZM110.1,182.4h0ZM110.3,178c0-.1-.2-.1-.3-.1,0,.1-.3.2-.3.3,0,.3-.2.6-.2.9.5-.1.4-.7.7-.9,0,0,.2,0,.1-.2ZM110.4,179.7h0q0,.1,0,0ZM110.6,179.3q0-.1-.2-.2c-.2.2,0,.4,0,.5.3,0,.5-.1.2-.3ZM110.9,183.1h0ZM111,182.6h0ZM111.2,180.1c0-.1,0-.2,0-.1,0,0,0,.1,0,.2h0q0,0,0,0ZM111.4,179.7c0-.1.2-.3.4-.2,0,0,.3,0,.4-.1,0-.2,0-.3-.2-.4-.2-.4-.6-.2-.9-.2,0,.3.2.6.3.9ZM112.2,182.6c0,0,0,0,0,0q0,.1,0,.1c0,0,0,0,0-.1q0,0,0,0ZM111.5,179.7h0c0,.2.2.2.2.1s0-.1-.2-.1h0ZM111.6,180.9c0,0,0,.1,0,.1h0c0,0,0-.1,0-.1h0ZM111.6,182.4c0,0,.3,0,.3-.1s0-.2,0-.2-.3,0-.3.1c0,.1,0,.2,0,.2ZM112.3,183.4c0,.1,0,0,0,0,0-.1,0-.2,0-.2-.3-.2-.5,0-.8.1.3.3.7,0,.9,0ZM112.2,184.5c0,.1.3.2.5.2s.2,0,0-.1c0-.2-.3-.1-.5-.2,0,0-.2.1,0,.1ZM113,187.2c0-.2,0-.3-.3-.3s-.2,0,0,.1,0,.3.3.3,0-.1,0-.1ZM112.9,186h0c0,.1,0,.2,0,.2,0,0,0,0,0-.1,0,0,0,0,0,0ZM113,183.2h0ZM113.1,182.4c0-.1.2-.2.3-.2,0-.2-.3-.2-.5-.2-.2.1-.3.2-.3.4.2.2.4.1.5,0ZM113.4,184.3q0-.1,0,0c0-.1-.2-.1-.2,0,0,0,0,0,.2,0,0,0,0,0,0,0ZM113.8,187.1h0ZM114.3,186.7q0-.1,0-.2,0,0,0,.1,0,0,.2,0h0ZM114.3,186.1h0s0-.1,0,0q0-.1,0,0s0,0,0,0ZM114.8,182.9c0-.1,0-.2-.2-.1-.3.1-.6.2-.9,0,0-.1-.2-.2-.3-.1,0,.1,0,.2,0,.3.2.2,1.1.2,1.3,0h0ZM113.5,182.2s0,0,0,.1h0c0-.1,0-.1,0-.1q0,0,0,0h0ZM114.9,188.1h0ZM115,181.4h0c0-.1.2-.2.3-.4,0-.3.3-.7-.3-.6,0,0-.2-.1-.2-.2s.2-.4,0-.4-.2.2-.3.4c-.2.2-.2.4,0,.6,0,.1,0,.2-.2.3,0,0-.2-.1-.3-.1-.3-.1-.6-.1-.9-.2,0,0-.2,0,0,.1.5.2.7.8,1.2.7,0-.2.2-.3.4-.1q.4.3.6-.1ZM115.2,186.8h0ZM115.4,183.7h-.2c0,0-.2,0-.2.1h.2c0,0,.2-.1.2-.1ZM115.5,179.7c0,0,.2,0,.2-.1,0,0-.2,0-.2.1,0,0,0,0,0,0ZM115.8,181.1c0-.1-.2,0-.3.2,0,.1,0,.2,0,.3q0-.1.2-.2c.1-.1.3-.2.1-.3ZM116,181.5c0,.1,0,.2.2.3q0,0,0-.1c0-.1,0-.2-.2-.3q0,0,0,.1ZM116.2,183.1c0,0,.2,0,.2-.1s0-.1-.2-.1,0,0-.2.1c0,.1,0,.1.2.1ZM117.1,186s0-.1,0-.1c0-.1-.3-.2-.4-.2,0-.1-.4-.2-.4-.1,0,.2.2.1.3.2,0,.1.3.1.4.2,0,0,.2.1.2,0ZM117.3,183.1h0c-.2-.2-.3-.1-.4,0,0,0,.3,0,.4,0ZM117.7,186.7h0ZM119,186.4h0ZM119.6,185.4v.2h0v-.2ZM119.7,185.2c-.2-.3-.4-.7-.6-1,0,.1,0,.2-.2.2-.8-.2-1.1.5-1.6.8,0,0,0,.2,0,.3.5.4.7-.5,1.1-.2h0v-.2c0-.2,0-.3,0-.5.3.3.6.5.9.8h0c0-.1.3-.1.2-.2ZM119.9,180.5c0-.2,0-.3-.3-.4,0-.1-.3,0-.4,0-.5,0-1.1.2-1.6.2.3.2.7.4,1,.3.3-.2.6-.1.9-.1s.4.1.4,0ZM120.2,185c0,0,0,.1,0,.2s0,.3.2.3,0-.1,0-.2c0-.2,0-.3-.2-.3ZM120.6,182.5c0-.2-.2-.3-.4-.4,0,0,0,.1,0,.1,0,.2.2.3.3.3,0,0,.2,0,.2,0ZM120.6,181.1h0s0-.1,0-.1h0ZM120.7,183c0,.1,0,.1,0,0,0,0,.2-.1.2-.2h0c0,0-.2,0-.2.2ZM120.6,182.1s0-.1,0-.1c0,0,0,0,0,.1ZM121,184.1c0,0,0-.1,0-.2s0-.2-.2-.2-.2,0-.2.1c0,.3,0,.3.3.3ZM121.3,184.9q0-.1,0-.2,0,0,0,.1,0,.1,0,.2s0-.1,0-.1ZM121.4,182.1c0-.2,0-.2-.2-.3-.2-.1-.3,0-.4.2,0,0,.2,0,.3.1,0,0,.2,0,.3,0ZM121.5,185.4s0,0,0,0q0-.1-.2,0h.2c0,.1,0,0,0,0ZM121.7,174.7h0ZM121.8,183.5h0q-.1-.1,0,0-.1,0,0,0ZM121.8,183.9h0ZM121.9,184.7h0q0,0,0,0c0,.1,0,.1,0,0h0ZM121.9,172.1s0,0,0-.1v-.2h0v.3ZM122,178.6c.3-.1.7-.2.9-.6,0-.1,0-.2,0-.2s0,0-.2.1c-.1.2-.3.5-.6.7ZM122.5,180.2c0,.1.2.1.4.1.2-.1.5,0,.7-.1,0,0,.2-.2,0-.3s0-.2-.3-.1c-.3.1-.6,0-.9.2,0,0-.3-.1-.3,0,0,.1.2.1.3.2ZM123,181s0,.1,0,0c0,.1,0,.2,0,.2,0,.1.2,0,0-.2,0,.1,0,0,0,0ZM123.1,187.3h0ZM123.4,186.6h0c-.3-.2-.3-.6-.7-.6h0c0,.1,0,.2,0,.2.2.1.5.3.7.4,0,.1,0,0,.2,0ZM123.9,185.7c-.2,0-.4-.1-.7-.1h0c.3.2.5.6.8.1ZM123.9,178.4q0,0,0,0c0-.1-.2-.1,0,0h0ZM124,174.6h0c0,0,0,0,0,0,0,0,0-.1,0,0ZM124.3,171.7c0,.1.3.2.4.3,0,0,0,.1.2,0h0c0-.2-.2-.3-.4-.4,0-.1-.4-.2-.4-.1,0,.1,0,.1.2.2ZM124.5,183h0ZM124.6,178.4h0q0,.2,0,.3h0c0,0,0-.1.2-.2,0,.1,0,0,0-.1ZM124.9,179.4s0,0,0,0c0-.1,0-.1,0,0h0ZM124.8,178.1h0c-.2,0-.2.1-.2.3,0,0,.3-.1.2-.3ZM124.9,181h0ZM125,175.1c0-.1-.2-.1-.3-.1s0,0,0,.1c0,0,.2,0,.4,0,0,0,0,0,0,0ZM126.6,172.8h0ZM126.4,175.5s0,.1,0,0c0,.1.2.1.2.1,0-.1,0-.1-.2-.1q0-.1,0,0ZM126.2,175.1h.2q0-.1-.2,0,0-.1,0,0ZM126,177.9s0,.1,0,.1c0,0,0,0,0-.1,0,0,0,0-.2,0,0,0,0,0,0,0ZM125.9,175.4s0,0,0,0q0,0,0,0,0,0,0,0c0,0,0,0,0,0ZM125.9,176.1c0,.1,0,.2,0,.2,0-.1,0-.2,0-.2ZM125.7,175h0s.1,0,0,0q.1,0,0,0h0ZM125.3,172.8h0ZM125.5,181.8c0,0,0-.1,0-.2s0-.2-.2-.2-.2.1-.2.2c0,0,.2.2.3.2ZM125.6,183.5h0c0,.1,0,.1,0,0,0,.1,0,.1,0,0q0,.1,0,0ZM125.8,182.6h0ZM125.8,186.8s0-.1,0,0c0-.1-.1-.1,0,0h0ZM126.3,179.3c-.2.1-.5.1-.7.3h0c.4,0,.5-.1.7-.3ZM126.4,183.1c0,0,0,.1,0,.1,0,0,0,.1,0,.1h0c0-.1,0-.2,0-.2ZM126.6,179c0-.2,0-.4-.3-.5-.2-.1-.3.1-.4.2,0,.2,0,.3,0,.3s.2.1.3.2c.2,0,.4,0,.3-.2ZM137.6,172q0,0,0,0,0,0,0,0h0c0-.1,0,0,0,0ZM137.5,180.8s0,0,0,0h0c.1.2.1,0,0,0q.1,0,0,0ZM137.5,177.7h0ZM137.4,181.4h0q0,0,0,0ZM137.1,171.4h.1c0,0-.1,0-.1,0h0ZM136.3,177.9s.1.1.2.1.1,0,.1-.1-.1-.1-.2-.1h-.1ZM136.1,174.2c0,.1,0,.1,0,0q0,0,0,0,0,0,0,0c0,0,0,0,0,0ZM135.8,178.8s.1,0,.1-.1h0q-.1,0-.1.1c-.1-.1-.1,0,0,0ZM135.5,176.7q.1.1.2.1s.1-.1,0-.1c0,.1,0,0-.2,0ZM135.1,179.9c0,.1.1.1.1.1.1-.1.2-.1.2-.3s-.1-.2-.2-.1c-.1,0-.1.2-.1.3ZM134.9,175.3h0s0-.1,0,0q0-.1,0,0ZM134.9,184.4h.1c0,0-.1,0-.1,0,0,0,0,.1,0,0ZM134.8,177.1s.1,0,.1-.1q-.1,0-.1.1ZM134.5,171.3s.1,0,.2-.1q0-.1-.1-.1c-.1,0-.1.1-.2.1,0,.1,0,.1.1.1ZM134.2,183.6c-.2,0-.3.1-.3.3v.5c.2,0,.4.3.4-.1s.1-.2.1-.3.2-.2.1-.4h-.3ZM133.9,182.6h0ZM134,179.1c-.1,0-.2,0-.2.1s0,.2.2.2.2,0,.2-.1,0-.1-.2-.2ZM133.7,180s0,.1,0,0c.1.1.1,0,.1,0,0-.1,0-.1-.1,0,.1,0,0,0,0,0ZM133.8,177.2h0q0,.1,0,0ZM133.7,171.5s.1,0,0,0q.1-.1,0,0,0-.1,0,0,0-.1,0,0ZM133.7,175.9h0ZM133.6,176.8q0,.1.1.1c.1,0,.1-.1.1-.2s-.1-.1-.1-.1c-.1,0-.1,0-.1.2ZM133.2,174.6h0q.1,0,0,0h0q0-.1,0,0ZM132.8,176.7s-.1,0,0,0c0,.2,0,.4.2.4,0,0,0-.1.1-.1,0,0-.1-.2-.3-.3ZM132.3,178.3h0ZM130.8,173c.2.1.4.5.8.1h0c-.2-.1-.4-.2-.6-.2h-.1c0,0,0,0,0,0ZM129.8,171.8h0s0-.1,0,0q0-.1,0,0-.1-.1,0,0ZM129.5,179.3q0,.1.1.1.1,0,.1-.1c0-.1-.1-.1-.2,0q0-.1,0,0ZM129.1,180.2c-.3-.1-.1.3-.2.4h0q.1.1.2.2c.2,0,.4.1.5-.1-.1-.3-.3-.5-.5-.5ZM129.2,171.7v-.2q-.1,0-.2.1v.2q.1,0,.2-.1ZM129.1,179.4c-.1,0-.1.1-.1.1h.1q0,.1,0-.1c0,.1,0,.1,0,0ZM129.2,172.2h-.1s0,.1.1.1c0,0,0,0,0-.1.1.1.1,0,0,0ZM128.8,170.7c0,.2.1.2.3.3q.1,0,.1-.1c0-.1,0-.2-.2-.2-.1,0-.2,0-.2,0ZM128.6,177.5s0,0,0,0q.1,0,.1-.1s-.1,0-.1-.1v.2ZM128.6,176.1c0,0,0-.1,0,0h0q0-.1,0,0h0ZM128.3,175.3c.1.1.2.1.3.2.1,0,.1-.1.1-.1,0-.1-.1-.2-.3-.2s-.1,0-.1.1ZM128.5,180.2s-.1,0,0,0v.2-.2ZM128,171.8c0,.1,0,.3.1.4.1,0,.1-.1.1-.2.1-.1.1-.3-.1-.3-.1,0-.1,0-.1.1ZM127.7,175.1c0,.1,0,.1,0,.1,0,0,0-.1,0-.1,0-.1,0-.1,0-.1,0,0,0,.1,0,.1ZM127.9,177.7q0,0,0,0,0,.1,0,.2s0,0,0-.1h0ZM127.7,179.7q0,.1,0,.1c0-.1.2-.2.2-.3s0-.1,0-.1c-.2.1-.2.2-.2.3ZM127.2,176.2q0,.1,0,.1,0,0,.2-.1h0c-.2,0-.3,0-.3,0ZM127.1,176.8s0,0,0,0h0c0-.1,0-.1,0-.1h0ZM127.2,180c0,0,0-.1,0,0,0,0-.2,0-.2.1s0,.1,0,.1c0-.1,0-.1,0-.2ZM127.4,178.8h0c-.2,0-.3,0,0,.3,0,0,0,.1.2.1,0-.2,0-.3,0-.4ZM127.6,178.6h0c-.2-.1-.2,0,0,0,0,0,0,.1.2,0ZM128.2,181.9s-.1,0-.1.1h0s0-.1.1-.1ZM128.3,181.7h0c-.1,0-.1.1-.1.2,0,0,.1,0,.1-.2ZM128.5,180.5h-.5c-.2,0-.4-.2-.5,0h0c.2.2.4.2.5.2.2,0,.4-.2.5-.2ZM128.6,181.2h-.1s0,.1.1.1h0ZM128.7,185.8s0,0,0,0q0,0,0,0,0,0,0,0h0ZM129,182.7s-.1,0-.1.1c0,0,0,.1.1.1,0,0,.1,0,0-.2.1.1.1,0,0,0ZM129.5,181.4c-.2-.2-.5-.3-.6-.7-.4.3-.1.5.1.7.1.4.3,0,.5,0ZM129.7,183.3q0,0,0,0,0,0,0,0,0,0,0,0,0,0,0,0ZM129.8,181.6c0-.3-.2-.2-.3-.2,0,.3,0,.5-.2.7s0,.2,0,.3c.2.1.2-.1.2-.2.2-.2.3-.4.3-.6ZM129.9,174.4h0ZM129.9,170.9h0s0,.1,0,0c0,.1,0,0,0,0ZM130,170.5s0-.1,0,0q-.1-.1-.1,0h.1ZM130.5,174.6h0ZM130.9,173.9s0,0,0,0c-.3-.2-.2-.6-.5-.7h-.2c.2.3.4.5.6.7t.1,0ZM131.3,181.4h-.1c0-.1-.1,0-.1,0h.1c.2.2.2.1.1,0ZM131.5,185.2h0ZM131.7,179.6c0-.1.1-.1.1-.2s0-.2-.1-.2h-.1c-.1.1.1.2.1.2,0,0,0,0,0,.2ZM132,186.2q0,0,0,0,0,0,0,0,0,0,0,0h0ZM132.1,185.4h0ZM132.3,187.2q0-.1-.1-.2-.1,0-.2.1c-.1.1,0,.2.1.2s.2,0,.2-.1ZM132.6,179.8c.1-.1-.1-.2-.1-.3-.1-.1-.2-.2-.3-.1-.1.1-.3.2-.5.2,0,.5.4.2.6.3,0,0,.2.1.3,0ZM132.5,182.5h.1s0-.1-.1,0ZM132.7,183.2s0,0,0,0h0c0,0,0,0,0,0ZM132.7,170.6h0ZM133.1,178c.1,0,.1-.1.1-.2-.1-.1-.2-.2-.4-.2s-.1.1-.1.1c0,.2.2.3.4.3ZM133.2,186.1h0ZM133.4,185c-.1,0-.2,0-.2.1,0,0,0,.1.1.1,0-.1,0-.1,0-.2ZM133.4,185q.1,0,0,0,.1-.1,0,0ZM133.6,185.5q-.1-.1,0,0-.1,0,0,0-.1,0,0,0ZM133.7,177.3s0,0,0,0h-.1c.1,0,.1,0,.1,0ZM134.1,185.5c-.1,0-.1.1-.2.1-.1.1-.3.1-.2.2.1.1.3,0,.4-.1,0,.1,0,0,0-.2ZM134.7,185.4c0-.1-.2-.1-.4-.1-.3,0-.2.1-.1.2h.3s.2.1.2,0ZM134.9,186.8q0,0,0,0-.1,0-.1.1c0,0,0,0,.1-.1q0,0,0,0ZM135,185.8c-.1,0-.2.1-.2.2s0,.1.1.1.1-.1.2-.2t-.1-.1ZM135,184v.3c.1-.1.2-.2,0-.3ZM135.7,181.4h0c.1-.2,0-.5-.1-.7q-.6.4.1.7ZM135.4,182.1s0-.1,0,0c0-.1-.1-.1-.1,0h.1ZM135.5,186.3s-.1,0,0,0c-.1.1-.1.2-.1.2.1-.1.2-.1.1-.2ZM135.7,183.4h-.1c.1.1.2.1.1,0ZM136.2,186.9c0-.1,0-.2-.1-.2s-.2,0-.2.1.1.2.2.2.1,0,.1-.1ZM136.3,186.2h0ZM137.4,184.5h0c-.1.2-.2.4,0,.6h.1c.1-.2-.1-.4-.1-.6ZM137.9,183.7q0-.1-.1-.1c-.1,0-.1.1-.1.1q0,.1.1.1c0,0,.1,0,.1-.1ZM137.9,184.7h0q0,0,0,0c0,0,0,0,0,0h0ZM138.1,183.1c0-.1-.1-.2-.2-.2h-.3c-.4.2-.4-.1-.5-.3-.1-.3,0-.4.3-.4s.2-.1.2-.2c0-.2-.1-.2-.3-.2h-.1q-.6-.1-.4-.7c.1-.3-.1-.6-.3-.7-.3-.1-.2.3-.3.4h0c.1.5-.1.6-.5.6,0,.2.1.3.3.4h0c0,.3-.2.5-.1.8,0,.1,0,.2.1.2,0,0,.1,0,.2-.1q.5-.4.8.1c0,.1.1.2.1.2.1.1.1.3-.1.4-.2.1-.2-.1-.3-.2,0-.1-.1-.1-.1-.1-.1,0-.1.1-.1.2-.1.5.4.5.5.7s.1-.2.3-.3.3-.5.7-.5c0,.1.1,0,.1,0Z"/>
      </g>
    </g>
  </g>
</svg>