<svg width="281" height="105" viewBox="0 0 281 105" fill="none" xmlns="http://www.w3.org/2000/svg">
<path d="M230.303 16.328H245.403V0H230.303V16.328ZM255.764 16.328H270.864V0H255.764V16.328ZM250.471 104.985C267.145 104.985 281 93.7248 281 76.1374V24.1097H261.282V75.7026C261.282 83.1394 257.009 87.4125 250.471 87.4125C243.933 87.4125 239.885 83.1244 239.885 75.7026V24.1097H220.167V76.1524C220.167 93.7248 233.797 105 250.471 105M148.282 104.325H168V63.9926L193.686 104.325H210.93V24.1097H191.212V64.4424L165.526 24.1097H148.282V104.325ZM85.4096 104.325H139.945V86.7528H105.128V72.6739H134.877V55.1014H105.128V41.6971H139.945V24.1247H85.4096V104.34V104.325ZM0 104.325H19.718V65.9118L31.0989 85.7333H43.7244L55.1054 65.9118V104.325H74.8234V24.1097H55.4503L37.4267 59.4795L19.4031 24.1097H0.0149947V104.325H0Z" fill="#C6A445"/>
</svg>
