<svg width="146" height="75" viewBox="0 0 146 75" fill="none" xmlns="http://www.w3.org/2000/svg">
<path d="M31.7616 71.7884C30.7519 70.7217 29.5765 69.7601 29.019 68.1825C28.8834 68.3027 28.8532 68.7384 28.5518 68.4379C28.6573 68.3027 28.7628 68.1675 28.8834 68.0172C27.5121 66.4096 26.4874 64.3812 24.7996 63.1342C23.8653 59.393 20.9419 57.8905 18.7719 55.5166C18.7116 55.4415 18.5459 55.4866 18.4253 55.4866C18.3048 55.0208 18.2143 54.54 18.3801 54.0592V54.0892C17.8376 53.7888 17.4157 53.3681 17.265 52.6619C17.0691 51.8055 16.5417 51.2946 15.9841 50.7988C14.7333 49.672 13.4374 48.6202 13.1059 46.5769C13.0456 46.2012 12.6839 45.8406 12.3976 45.5702C9.86599 43.1362 7.50011 40.5369 5.63153 37.2915C4.36571 35.0829 3.41635 34.9627 1.7286 36.0895C-0.275612 38.0728 -0.51672 39.2448 0.899788 41.228C1.45735 41.9943 1.99984 42.8808 2.87386 43.2564V43.2864H2.85879H2.904C3.02455 43.4216 3.1451 43.5719 3.25059 43.7071V43.7672L3.28073 43.7372C3.91364 44.9241 4.63696 46.051 5.6466 46.8172C6.05347 47.1328 6.55075 47.7488 7.03297 46.9074C7.45491 48.5902 8.73579 49.4466 9.59474 50.6936C10.0619 51.3698 10.3482 52.1811 11.0866 52.6469C13.0004 53.8338 14.3717 55.8772 15.8485 57.6501C16.7526 58.7319 17.5061 59.3029 18.6966 59.0925C18.6966 59.378 18.7267 59.6634 18.7418 59.9339H18.7267V60.4447H18.7418C19.0884 61.4213 19.9624 61.6467 20.5501 62.2928C20.309 62.8036 20.3994 63.2243 20.8063 63.5849C21.4994 64.1859 22.1776 64.8019 22.8557 65.4179C23.1118 65.6884 23.353 65.9739 23.6091 66.2443V66.2894C23.8201 66.034 24.0763 65.7335 24.3325 66.1391C24.5133 66.4396 24.1968 66.6199 24.0009 66.7702H24.0311C25.1462 67.9571 26.5175 68.6633 27.6929 69.7451C28.0244 70.0456 28.5669 70.0606 28.6875 70.6616C29.0793 72.6449 30.6615 73.3961 31.6561 74.7483C31.9273 75.124 32.3191 75.0038 32.6657 74.8685C32.9219 73.5914 32.5452 72.6749 31.7013 71.7884H31.7616ZM3.46156 36.6755L3.32594 36.5854C3.35607 36.5253 3.35607 36.4351 3.38621 36.4201C3.52184 36.3299 3.59718 36.39 3.56704 36.5553C3.56704 36.6004 3.4917 36.6605 3.46156 36.6755ZM4.71231 42.9559L4.63696 42.8507H4.74244L4.69724 42.9559H4.71231ZM6.53568 42.0844C6.40006 42.1746 6.32471 42.0995 6.36992 41.9342L6.49048 41.829L6.61103 41.9192C6.59596 41.9793 6.58089 42.0544 6.55075 42.0844H6.53568ZM11.2825 46.8473L11.2071 46.9975L11.1167 46.8623H11.2674L11.2825 46.8473ZM10.0317 49.4616C10.0317 49.4616 10.0619 49.3414 10.1071 49.3114C10.4688 49.0409 10.6496 49.2663 10.7852 49.6419C10.529 49.7471 10.2427 50.0025 10.0317 49.4616ZM11.4483 49.7922C11.2222 49.9424 11.0414 49.7621 10.8455 49.6569C11.0414 49.5968 11.2373 49.5067 11.4332 49.4917C11.5387 49.4917 11.5537 49.702 11.4332 49.7922H11.4483ZM13.3168 53.4732C12.9401 53.308 12.8196 52.8422 12.6689 52.4215C12.5935 52.2262 12.5634 51.8956 12.7894 51.9107C13.362 51.9557 13.1812 52.7671 13.4977 53.0525C13.573 53.308 13.5579 53.5784 13.3168 53.4732ZM13.6333 50.0175C13.6333 50.0175 13.5579 49.9124 13.5278 49.8523C13.4525 49.672 13.5278 49.5067 13.6634 49.5518C13.7538 49.5668 13.7991 49.7621 13.8593 49.8823C13.8593 50.0927 13.7689 50.1377 13.6333 50.0175ZM14.6731 51.9557C14.4169 51.8956 14.2361 51.6703 14.3868 51.3397C14.5374 50.9791 14.8388 50.8589 15.1553 50.919C15.3964 50.9641 15.6074 51.1143 15.5622 51.505C15.4115 52.0459 15.0347 52.0459 14.6731 51.9557ZM15.9087 55.5316C15.6827 55.5917 15.6676 55.5316 15.6676 53.8338C15.8635 53.338 14.5676 53.0676 15.4868 52.5567C15.9238 52.3013 17.0389 53.6235 16.9636 54.2094C16.8883 54.9306 16.5115 55.4114 15.8937 55.5316H15.9087ZM18.0034 55.7119C18.0034 55.7119 18.0034 55.6969 18.0034 55.6668C18.0034 55.6368 18.1691 55.5917 18.3349 55.5617C18.2596 55.6218 18.1842 55.6669 18.1089 55.6819C18.0486 55.6819 18.0184 55.6969 17.9883 55.7269L18.0034 55.7119ZM21.5145 62.2778C21.2282 62.7586 20.9419 62.5332 20.6405 62.2778C20.6857 62.2627 20.7158 62.2327 20.761 62.2177C21.0172 62.1576 21.2433 61.842 21.5597 62.0975C21.5597 62.0975 21.5446 62.2177 21.5145 62.2627V62.2778ZM22.6748 62.3228C22.6748 62.3228 22.6296 62.2026 22.6146 62.1425C22.6598 62.1425 22.7502 62.0975 22.7502 62.0975C22.8707 62.2627 22.8406 62.3379 22.6748 62.3228ZM23.3379 64.9071L23.4132 64.8019C23.4886 64.847 23.4584 64.8921 23.3379 64.9071ZM24.6037 63.9455C24.4831 64.0357 24.3475 63.9455 24.3475 63.7652C24.3475 63.4196 24.5886 63.3145 24.7695 63.1642C24.7544 63.4347 24.8448 63.7502 24.6037 63.9455ZM32.711 74.9136C32.711 74.9136 32.711 74.8986 32.711 74.8836C32.711 74.8836 32.726 74.8836 32.7411 74.8836L32.711 74.9286V74.9136ZM1.78887 36.0595C1.78887 36.0595 1.78887 36.0745 1.75873 36.0895L1.78887 36.0595ZM71.6197 11.7644C71.5444 10.7728 71.2279 9.73606 71.6197 8.77448C71.7553 8.41388 72.1471 8.86463 72.4184 9.0299C72.2074 8.29368 72.328 7.54245 72.2828 6.80623C72.2376 5.93479 72.328 4.62764 71.454 4.58256C70.4745 4.53749 70.6854 5.84464 70.6101 6.70106C70.5799 7.07668 70.6101 7.4523 70.6101 7.82792C70.5197 12.095 70.9265 16.3169 71.0622 20.5689C71.1224 22.2818 70.6553 24.0246 71.1224 25.7074C71.4841 27.0596 71.5293 28.4419 71.6649 29.8242L71.6951 29.7942C71.6951 30.2449 71.7252 30.6956 71.68 31.1314C71.4238 34.0762 70.8964 37.0211 72.1471 39.8758C72.2677 40.1613 72.2376 40.627 72.1622 40.9726C71.3334 45.0293 71.891 49.101 71.9964 53.1727C72.0417 54.6902 71.9362 56.3129 72.4485 57.8004L72.4184 57.7703C72.5842 59.9339 72.7047 62.0975 72.9157 64.261C72.991 65.1174 72.3581 66.5899 73.3979 66.65C74.0007 66.68 74.287 64.9672 74.1664 63.9305C73.8801 61.4814 74.4678 59.0174 73.9404 56.5834C73.7596 55.7269 73.9705 54.8104 74.0157 53.909C74.1513 51.1444 74.6336 48.4249 74.724 45.6603C74.8596 42.1145 73.8198 38.5536 74.9048 35.0378C75.0254 34.6321 74.9199 34.1664 74.6637 33.7908C75.2514 31.9728 74.3774 29.9444 75.2062 28.1565C75.3418 27.856 75.1309 27.4803 74.8897 27.4353C73.6691 27.2399 73.7294 26.7592 74.5432 25.8877C74.9048 25.4971 74.6788 25.1064 74.2568 24.851C73.5486 24.4003 73.4732 23.7993 74.2719 23.4988C75.2213 23.1532 75.3418 22.417 75.2966 21.4404C75.2665 20.614 75.2665 19.7876 75.3268 18.9613C75.4172 17.579 75.0103 16.9179 73.7746 16.8127C72.2828 16.6925 72.1019 16.2718 72.2376 14.529C72.2978 13.8529 72.4787 13.2368 72.7198 12.6509C72.2074 12.6208 71.6649 12.5457 71.6047 11.8245L71.6197 11.7644ZM73.7445 48.8456L73.7897 48.9958H73.6691L73.7445 48.8456ZM72.2526 25.9779L72.1923 25.8126C72.328 25.6774 72.4033 25.7224 72.4033 25.9178C72.3581 25.9328 72.2828 26.0079 72.2376 25.9779H72.2526ZM72.4787 33.7006C72.6896 33.4151 72.7047 33.6555 72.7499 33.8058C72.6595 33.7757 72.5691 33.7457 72.4787 33.7006ZM73.2623 43.1662C73.2171 43.2714 73.0814 43.3014 72.976 43.3615C72.8554 43.2864 72.8403 43.1662 72.9458 43.031C72.991 42.9709 73.0965 42.9258 73.0965 42.9258C73.2623 42.9108 73.3376 43.001 73.2623 43.1512V43.1662ZM73.0513 34.2715C72.8705 34.2265 72.8554 34.0612 72.8253 33.8959C72.9006 33.9711 72.991 34.0311 73.0814 34.1213C73.0814 34.1213 73.0664 34.2114 73.0664 34.2715H73.0513ZM72.5389 21.6056C72.7348 21.6207 72.9157 21.7108 72.9006 21.9813C72.9006 22.2968 72.7499 22.5222 72.4636 22.5522C72.2677 22.5823 72.1019 22.4621 72.1019 22.1916C72.1019 21.8911 72.2526 21.6657 72.5239 21.6056H72.5389ZM72.117 17.2785C72.117 17.2785 72.1471 17.3536 72.1923 17.3837C72.1471 17.4137 72.1019 17.4738 72.0567 17.4588C72.0115 17.4588 71.9814 17.3837 71.9362 17.3536C71.9814 17.3236 72.0266 17.2635 72.117 17.2785ZM45.9568 36.8107C45.791 36.0595 45.339 36.1496 45.0677 36.8107C44.9472 37.1263 44.902 37.5019 44.8266 37.8474C43.8019 37.2465 44.4348 36.4652 44.7362 35.8492C45.339 34.6472 45.3842 33.5053 44.8115 32.2732C44.5102 31.6272 44.3293 30.936 44.1033 30.2599C43.2745 27.6005 43.0635 24.7008 41.8429 22.1916C41.8429 22.1916 41.8429 22.1916 41.858 22.1916C41.5566 21.0497 41.1799 19.9379 40.984 18.781C40.5922 16.3019 39.1003 15.3854 37.292 14.8896C37.6085 14.2435 38.1057 14.3487 38.588 14.4989C39.025 14.6341 39.5524 14.7844 39.6127 14.0632C39.6579 13.4923 39.3866 12.6208 38.8743 12.6959C36.7194 13.0115 38.0605 12.125 38.5277 11.4339C38.7236 11.1334 38.5578 10.7277 38.3921 10.3972L38.3468 10.2619L38.3921 10.3821C38.1359 10.6826 37.7591 11.1784 37.5632 10.4573C37.2167 9.12005 36.4331 9.48064 35.7399 9.67597C34.8809 9.90134 33.6 12.0799 33.5398 13.1617C33.374 15.4455 34.5042 17.1283 35.3481 18.9463L35.3179 18.9162C35.6344 19.7125 35.6495 20.7342 36.4632 21.185L36.4331 21.1549C36.3125 21.8911 36.1015 22.6273 37.2016 22.417C37.9098 22.2818 37.729 22.9429 37.6235 23.4236C37.292 23.5438 36.7495 23.5589 37.1564 24.22C37.6838 25.0764 38.1359 25.9328 38.1962 27.0296C38.2564 28.0663 39.3414 27.5254 39.5976 28.2616C39.8538 28.9978 38.588 29.0279 39.1154 30.0496C39.8086 31.4168 40.336 32.8292 41.8881 33.0245C42.3854 33.0846 42.8676 33.2799 43.3649 33.3701C43.7567 33.4452 43.9074 33.6856 43.8622 34.1513C43.7868 34.6922 43.5156 35.0228 43.0937 34.7523C41.7826 33.911 42.0539 35.3233 42.0388 35.9092C42.0087 36.5253 42.1744 37.1864 42.8224 37.547C43.4252 37.8775 44.4499 38.2231 43.5759 39.41C42.4909 40.9125 45.5198 39.5753 44.3745 41.1229C43.9827 41.6487 44.3745 41.8741 44.7814 41.9492C44.2992 44.1729 45.0828 45.7956 46.861 46.3365C47.3884 46.4867 47.9309 47.0426 48.4432 46.5017C49.0761 45.8557 48.5336 45.0894 48.398 44.4283C47.8706 41.7689 46.5144 39.4852 45.9568 36.8107ZM34.1275 13.1918L34.248 13.1016V13.2669L34.1275 13.1918ZM35.544 14.7093L35.5741 14.5891L35.6495 14.6792L35.544 14.7093ZM36.2824 13.6425C36.0111 13.6425 35.9056 13.3721 35.8152 13.1166C36.0413 13.1166 36.2824 13.0716 36.4331 13.357C36.5084 13.5073 36.4331 13.6575 36.2974 13.6425H36.2824ZM36.5687 11.2986V11.1634L36.6591 11.2235L36.5687 11.2986ZM37.0208 15.3553C36.7646 14.9497 37.1112 15.0098 37.2619 14.9196C37.2016 15.13 37.0509 15.4154 37.0208 15.3553ZM41.0292 22.5522C41.1497 21.9662 41.4963 22.0864 41.8278 22.1766C41.7977 22.2217 41.7676 22.2667 41.7525 22.3118C41.5717 22.5672 41.5717 23.0631 41.21 23.048C40.999 23.048 40.999 22.7475 41.0442 22.5522H41.0292ZM38.2866 16.9179C38.2866 16.9179 38.4825 16.7226 38.5427 16.7677C38.8592 16.948 38.7839 17.2935 38.7839 17.6091C38.5427 17.4588 38.2564 17.3536 38.2866 16.9329V16.9179ZM38.814 17.6391C38.814 17.6391 38.9044 17.594 38.9647 17.594C39.4017 17.549 39.9593 17.0832 40.1552 17.9396C40.2305 18.2551 39.9442 18.4504 39.7181 18.5406C39.04 18.781 38.8743 18.3002 38.814 17.6391ZM40.8182 26.0079C40.3963 26.0981 39.9894 26.0079 39.6127 25.7375C39.9894 25.6473 40.5168 25.7224 40.4415 24.9712C40.3963 24.4303 40.3661 23.9946 40.9237 24.4153C41.2853 24.7008 42.0539 24.6857 41.9333 25.4219C41.858 25.9328 41.2251 25.9027 40.8182 26.0079ZM44.917 41.8891C44.917 41.8891 45.0376 41.7389 45.1129 41.6637C45.1431 41.8741 45.0225 41.8591 44.917 41.8891ZM46.3486 41.6637C46.4541 41.4534 46.65 41.4083 46.8158 41.5135C46.9966 41.6337 47.0418 41.844 46.9664 42.0694C46.8459 42.2647 46.6651 42.3098 46.4993 42.2046C46.3185 42.0844 46.2582 41.8741 46.3486 41.6637ZM47.4487 45.5702C47.0569 45.5702 46.7253 45.3148 46.6952 44.819C46.6801 44.2781 47.0418 44.0827 47.4336 44.0978C47.7953 44.0978 47.946 44.4133 47.9309 44.834C47.8857 45.2096 47.8405 45.6002 47.4336 45.5852L47.4487 45.5702ZM144.645 35.7139C143.545 35.0679 142.31 35.5186 141.707 36.4351C140.471 38.3433 138.949 39.9359 137.834 41.9342C137.231 43.031 136.87 44.248 135.589 44.7288C134.745 45.0443 134.895 45.8256 135.845 46.0209C134.911 46.5318 134.579 47.9591 133.072 47.8089C132.032 47.7037 131.219 51.0092 131.761 52.3914C131.912 52.7821 132.409 53.2929 132.062 53.5333C131.008 54.2996 131.716 56.0425 130.691 56.7637C130.54 56.8688 130.465 57.1543 130.631 57.3346C130.872 57.59 131.128 57.4248 131.249 57.1543C131.912 55.5767 133.102 54.7654 134.353 54.0141C134.564 53.8939 134.775 53.6686 134.926 53.4282C136.327 51.1594 138 49.2362 139.778 47.3732C141.044 46.036 142.264 44.6537 143.696 43.5569C145.127 42.4751 145.775 40.8524 145.971 38.8842C146.107 37.4718 145.775 36.3299 144.675 35.6839L144.645 35.7139ZM133.75 50.2429C133.63 50.288 133.464 50.4082 133.328 50.3931C133.087 50.3481 133.102 50.1227 133.268 49.9875C133.404 49.8823 133.584 49.8372 133.75 49.8523C133.871 49.8673 133.886 50.0476 133.75 50.2429ZM138.181 46.2613C138.135 46.3665 138 46.3966 137.909 46.4717C137.774 46.4266 137.683 46.3214 137.759 46.1712C137.804 46.066 137.939 45.9759 138.03 45.9608C138.165 45.9608 138.241 46.1111 138.181 46.2613ZM138.919 43.3916C138.919 43.3916 138.798 43.3465 138.798 43.3165C138.798 43.2714 138.829 43.2113 138.859 43.1512C138.904 43.1812 138.949 43.2113 138.994 43.2263C138.979 43.2864 138.949 43.3465 138.934 43.3916H138.919ZM143.244 38.9593C143.153 39.5903 143.425 40.5068 142.822 40.8073C142.144 41.1379 142.129 39.8457 141.556 39.7255C141.3 40.026 140.983 40.5369 140.788 39.8007C140.486 38.7339 141.767 36.991 142.716 37.0662C143.033 37.0812 143.153 37.3516 143.199 37.6371C143.259 38.0728 143.334 38.5386 143.259 38.9593H143.244ZM141.556 39.7255L141.586 39.6955C141.586 39.6955 141.571 39.7105 141.556 39.7255ZM108.494 23.664C107.726 24.0847 107.304 23.664 107.032 22.8527C106.897 22.432 106.806 21.9813 106.731 21.5606C106.641 21.0948 106.49 20.6891 106.038 20.6441C105.616 20.614 105.345 20.9145 105.119 21.3052C104.908 21.6657 104.787 22.1015 104.621 22.4921C103.582 25.1665 103.386 28.1414 102.406 30.8309C101.924 32.138 101.17 33.2499 100.914 34.6772C100.538 36.7807 100.055 38.8541 99.6334 40.9426C101.08 39.6955 101.11 39.6955 102.271 41.0027C103.084 40.3566 102.768 39.0044 103.461 38.2832L103.431 38.3132C104.486 36.6605 105.209 34.8124 105.752 32.8292C105.993 31.9277 105.827 31.0562 105.872 30.1848C105.917 29.1781 107.138 30.0496 107.349 28.7424C107.59 27.27 108.479 25.9328 109.097 24.5505C109.248 24.22 109.504 23.8443 109.308 23.5288C109.052 23.1081 108.75 23.5438 108.494 23.6791V23.664ZM101.773 37.5319C101.623 37.4869 101.562 37.3216 101.638 37.1864C101.698 37.0962 101.834 37.0662 101.954 37.0061C102.014 37.0812 102.15 37.1864 102.135 37.2615C102.12 37.5319 101.939 37.592 101.758 37.5319H101.773ZM102.813 32.4986C102.813 32.4986 102.783 32.4085 102.768 32.3484C102.813 32.3484 102.873 32.3183 102.873 32.3183C102.873 32.3634 102.888 32.4235 102.903 32.4686C102.858 32.4686 102.813 32.5136 102.798 32.4986H102.813ZM103.793 30.6806C103.612 30.8309 103.431 30.7407 103.356 30.5003C103.325 30.3952 103.386 30.1848 103.461 30.1097C103.642 29.9594 103.808 30.0947 103.898 30.32C103.868 30.4402 103.853 30.6205 103.777 30.6806H103.793ZM105.134 26.4286L105.058 26.3535L105.179 26.3084L105.149 26.4286H105.134ZM99.6334 40.9275C99.6334 40.9275 99.6334 40.9726 99.6334 40.9876V40.9576C99.6334 40.9576 99.6334 40.9426 99.6334 40.9275ZM102.271 40.9876C102.271 40.9876 102.286 41.0177 102.301 41.0177L102.271 40.9876ZM111.267 9.60084C109.73 9.30035 108.253 9.76611 108.178 10.8629C107.997 13.1317 106.776 14.9647 106.595 17.2485C106.43 19.3369 106.354 19.5623 107.876 20.4337C108.554 20.8244 109.549 20.5239 109.865 21.7108C109.911 21.8911 110.046 21.831 110.182 21.7709C110.679 21.5305 111.674 19.5322 111.342 19.1716C110.107 17.7894 111.071 17.5039 111.96 17.0682C112.322 16.8879 112.487 16.4071 112.563 15.9864C112.789 14.7543 112.955 13.4923 113.105 12.5157C113.09 10.8329 112.367 9.81119 111.237 9.60084H111.267ZM107.53 18.3753C107.53 18.3753 107.409 18.4805 107.364 18.4504C107.213 18.4054 107.153 18.2701 107.243 18.1049C107.274 18.0598 107.349 17.9997 107.394 18.0147C107.545 18.0748 107.59 18.195 107.515 18.3753H107.53ZM102.301 41.0177C102.301 41.0177 102.255 41.0778 102.24 41.0928C102.24 41.0477 102.255 41.0177 102.271 40.9726L102.301 41.0027V41.0177ZM102.24 41.0928C101.562 44.2029 100.251 46.9675 99.0005 49.7771C98.3978 51.1444 98.3526 52.8121 97.6443 54.1644C97.5087 54.4198 97.4183 54.7503 97.1319 54.7053C96.8607 54.6452 96.7703 54.3146 96.7552 53.9991C96.6045 51.6252 96.4538 49.2513 97.2073 46.9675C97.2676 46.7872 97.4333 46.5919 97.584 46.5468C97.7649 46.4867 97.9306 46.697 97.9608 46.9224C98.0361 47.4934 98.0813 48.0793 98.1416 48.6503C98.7594 48.4249 98.7745 47.869 98.6539 47.2379C98.5032 46.4717 98.7745 45.9458 99.2718 45.5101L99.2416 45.5401C99.1663 45.0143 99.1512 44.3532 99.543 44.1428C100.779 43.5118 101.321 42.0694 102.24 41.0928ZM73.6541 14.4388C74.076 13.357 73.2472 13.1016 72.8102 12.5757C73.1869 12.2903 73.5787 12.0198 73.9555 11.7344C74.1966 12.2001 74.6486 12.2302 74.9802 12.5006C75.8843 13.2218 75.8692 14.4538 74.9952 15.2502C74.6788 15.5356 74.3322 15.7009 73.9705 15.5206C73.5637 15.3253 73.4431 14.9196 73.639 14.4388H73.6541ZM72.78 12.5457C72.78 12.5457 72.7951 12.5607 72.8102 12.5757C72.8102 12.5757 72.7951 12.5757 72.78 12.5757C72.78 12.5757 72.78 12.5457 72.78 12.5307V12.5457ZM73.9555 11.7344C73.9555 11.7344 73.9404 11.7193 73.9404 11.7043H73.9705C73.9705 11.7043 73.9705 11.7344 73.9705 11.7494L73.9555 11.7344ZM74.287 11.6893C74.1815 11.7193 74.076 11.6893 73.9705 11.6893C73.9856 11.5541 73.9856 11.4339 74.0308 11.3137C74.1212 11.0132 73.9555 10.5324 74.3623 10.4573C74.4678 10.4422 74.6637 10.6676 74.7391 10.8329C74.9802 11.3888 74.6938 11.5991 74.302 11.6893H74.287ZM75.7336 8.54911C75.824 8.62423 75.9144 8.68433 76.0049 8.74443C75.9597 8.86463 75.9145 8.9698 75.8692 9.07497C75.7788 9.01487 75.6432 8.95478 75.6281 8.87965C75.6131 8.77448 75.7035 8.65428 75.7487 8.53408L75.7336 8.54911ZM76.2008 4.52246C76.1857 4.76286 76.261 5.0333 76.0199 5.18355C75.9898 5.19858 75.8994 5.13848 75.8843 5.0934C75.809 4.76286 75.9898 4.62764 76.2008 4.52246ZM76.2309 4.50744C76.2309 4.50744 76.2158 4.50744 76.2008 4.52246V4.49241C75.4021 3.84635 74.4226 4.04167 73.5787 3.62097C73.3678 4.07172 73.1568 4.53749 72.5992 4.28207C72.4937 4.23699 72.343 4.19192 72.2677 4.08674C71.7704 3.38058 70.5347 4.20694 70.4443 3.21531C70.3388 2.10347 71.1074 1.21701 71.9663 0.631041C72.1924 0.465768 72.3732 0.315521 72.4335 0H73.9555C75.3418 1.03671 76.3364 2.35889 76.2008 4.47739H76.2158V4.50744H76.2309ZM75.0706 6.73111C74.95 6.8513 74.8747 6.80623 74.8747 6.62593C74.8747 6.58086 74.935 6.55081 74.9651 6.50573C75.0103 6.52076 75.0706 6.53578 75.0856 6.58086C75.1007 6.62593 75.0856 6.71608 75.0555 6.74613L75.0706 6.73111ZM41.0894 33.8358L41.1799 33.9861L41.0744 33.8659V33.8358H41.0894ZM72.4335 9.13507C72.4335 9.13507 72.4184 9.13507 72.4033 9.13507C72.4033 9.10502 72.4033 9.07497 72.4033 9.01487C72.554 9.01487 72.5691 9.12005 72.4485 9.13507H72.4335ZM72.4033 9.13507C72.3732 9.2102 72.2978 9.1501 72.4033 9.13507Z" fill="#C6A445"/>
</svg>
