<svg width="275" height="76" viewBox="0 0 275 76" fill="none" xmlns="http://www.w3.org/2000/svg">
<path d="M238.255 62.8878L255.631 76L259.873 70.4296L248.779 62.0515L252.183 57.5862L261.657 64.7397L265.9 59.1692L256.425 52.0158L259.663 47.7595L270.757 56.1376L275 50.5672L257.625 37.455L238.255 62.9177V62.8878ZM222.574 54.0319C225.662 55.7045 228.72 56.4811 232.483 55.3013C235.797 54.2858 237.955 52.0307 240.429 47.4907L242.558 43.5929L231.509 37.6193L228.376 43.3838L232.528 45.624L232.318 46.0122C231.734 47.0726 230.834 48.0732 229.62 48.4316C228.615 48.7601 227.401 48.6556 225.932 47.8641C224.673 47.1771 223.998 46.1466 223.848 45.2058C223.668 44.0409 223.803 42.8313 226.592 37.7089C229.38 32.5864 230.295 31.8547 231.374 31.3618C232.259 30.9736 233.503 30.9288 234.777 31.6157C237.146 32.9001 237.701 34.5279 237.101 36.9472L244.072 40.7106C245.916 35.7375 245.376 29.3756 238.135 25.4479C234.732 23.611 231.779 23.387 228.66 24.3129C224.208 25.6271 222.244 29.2113 219.665 33.9455C217.087 38.6796 215.138 42.2638 216.457 46.7141C217.387 49.8204 219.171 52.1651 222.574 54.002M183.25 37.8134L190.731 40.3074L195.844 25.0746L200.476 43.5481L207.012 45.7285L217.192 15.4271L209.711 12.9331L204.599 28.1659L199.981 9.6924L193.445 7.51201L183.265 37.8134H183.25ZM165.35 34.6922C171.932 35.7824 178.123 32.2579 179.278 25.3434L182.666 4.89854L174.885 3.6142L171.512 23.8948C171.032 26.8219 169.053 28.2257 166.475 27.7926C163.896 27.3744 162.577 25.4181 163.057 22.5059L166.43 2.22533L158.649 0.940989L155.246 21.3858C154.106 28.2854 158.739 33.602 165.32 34.6922M136.221 25.4629C134.782 25.4629 133.643 24.8058 133.058 24.0441C132.338 23.1033 131.874 22.0728 131.859 16.2485C131.829 10.4092 132.278 9.33398 132.998 8.39313C133.583 7.63149 134.707 6.98932 136.146 6.98932C137.586 6.98932 138.71 7.60162 139.31 8.36326C140.029 9.30411 140.494 10.3794 140.509 16.2037C140.539 22.0429 140.089 23.0734 139.37 24.0142C138.785 24.7759 137.66 25.4629 136.221 25.4629ZM136.251 32.467C140.164 32.452 142.863 31.2274 145.156 28.9276C148.425 25.6421 148.41 21.5501 148.38 16.1738C148.35 10.7975 148.335 6.70557 145.036 3.44993C142.758 1.17994 140.044 -0.0147958 136.131 0.000138311C132.218 0.0150725 129.52 1.23967 127.226 3.53953C123.958 6.82504 123.973 10.917 123.988 16.2933C124.018 21.6696 124.033 25.7615 127.331 29.0172C129.64 31.2872 132.353 32.4968 136.266 32.4819M100.481 35.6031L121.604 32.467L120.57 25.5375L107.257 27.5088L103.569 2.83763L95.7735 3.98756L100.496 35.5882L100.481 35.6031ZM71.4119 44.2948L78.8178 41.5917L74.3203 29.3756L76.8689 8.27365L68.7883 11.2157L68.0537 23.7156L59.3435 14.6655L51.263 17.6075L66.8994 32.0637L71.3969 44.2799L71.4119 44.2948ZM38.445 60.6029L45.3262 56.7798L40.4239 48.0433L41.2635 44.026L54.1264 51.8814L62.147 47.4161L42.9725 36.2901L46.2108 19.6983L37.8004 24.3727L35.2368 38.7542L29.7048 28.8828L22.8236 32.7059L38.46 60.6029H38.445ZM24.5177 71.2957C29.8098 67.1142 32.0136 60.8568 27.9658 55.7493C26.1218 53.4345 24.1129 51.9859 21.7292 51.747C19.8253 51.5229 17.6514 52.1054 15.1328 53.5689L11.7597 55.5402C10.8002 56.1376 10.0206 56.2272 9.43596 56.1675C8.74634 56.0928 8.26661 55.7194 8.01175 55.3909C7.14223 54.3007 7.05227 52.3742 9.1961 50.6717C11.205 49.0887 12.7941 48.118 15.1328 48.3868L15.9424 41.4573C12.0895 41.0093 8.68638 42.3086 5.08835 45.161C-0.638498 49.6711 -1.43306 55.7493 2.20994 60.3191C3.919 62.4697 5.82295 63.7092 7.93679 63.978C9.99066 64.2468 12.2694 63.6495 14.743 62.2158L18.1162 60.2445C19.0157 59.7068 19.7353 59.5426 20.305 59.6023C20.9646 59.7068 21.5043 60.0951 21.9691 60.6925C23.1084 62.1411 22.5987 63.8585 20.1551 65.785C18.1462 67.3681 15.4776 68.7271 13.1389 68.4583L12.3144 75.5221C16.9318 76.1195 20.6348 74.3423 24.4727 71.2957" fill="white"/>
</svg>
